<?xml version="1.0" encoding="utf-8"?>
<!-- Generator: Adobe Illustrator 21.0.0, SVG Export Plug-In . SVG Version: 6.00 Build 0)  -->
<svg version="1.1" id="Layer_1" xmlns="http://www.w3.org/2000/svg" xmlns:xlink="http://www.w3.org/1999/xlink" x="0px" y="0px"
	 width="590px" height="530px" viewBox="0 0 590 530" enable-background="new 0 0 590 530" xml:space="preserve">
<g>
	
		<linearGradient id="SVGID_1_" gradientUnits="userSpaceOnUse" x1="138.351" y1="882.0792" x2="591.4594" y2="882.0792" gradientTransform="matrix(1 0 0 1 -127.46 -395.5502)">
		<stop  offset="5.600000e-03" style="stop-color:#F8F8F9"/>
		<stop  offset="0.1966" style="stop-color:#CACACA"/>
		<stop  offset="0.2461" style="stop-color:#D6D6D6"/>
		<stop  offset="0.3343" style="stop-color:#E9E8E8"/>
		<stop  offset="0.4253" style="stop-color:#F4F4F4"/>
		<stop  offset="0.5225" style="stop-color:#F8F8F9"/>
		<stop  offset="0.6239" style="stop-color:#F4F3F4"/>
		<stop  offset="0.7203" style="stop-color:#E8E8E8"/>
		<stop  offset="0.8143" style="stop-color:#D6D6D6"/>
		<stop  offset="0.8652" style="stop-color:#CACACA"/>
		<stop  offset="1" style="stop-color:#F8F8F9"/>
	</linearGradient>
	<ellipse fill="url(#SVGID_1_)" cx="237.4" cy="486.5" rx="226.6" ry="35.6"/>
	<g id="la_x7C_Mug_Color_x7C_fill">
		<g>
			<path fill="#D67474" d="M428.8,93.8l-0.7,69.5h4.9c0,0,9.1-40.7,55.4-28.1c46.3,12.6,57.6,70.2,42.1,146
				c-15.4,75.8-92.6,63.2-104.6,40l-2.8,59.7c0,0,3.5-2.8,7-2.8c3.5,0,94.7,11.2,127-62.5c0,0,28.8-77.9,8.4-146.7
				C545.3,100.1,494,93,434.4,95.2L428.8,93.8z"/>
			<path fill="#D67474" d="M429.3,93.8l-0.7,69.5h4.9c0,0,9.1-40.7,55.4-28.1c46.3,12.6,57.6,70.2,42.1,146
				c-15.4,75.8-92.9,75.6-104.8,52.5l-2.5,47.2c0,0,3.5-2.8,7-2.8c3.5,0,82.1,8.8,114.3-64.9c0,0,26.7-71.1,6.4-139.9
				s-62.1-65.7-121.8-63.6L429.3,93.8z"/>
			<g>
				<path fill="#F8F8F9" d="M485.4,109.7c4.5-0.2,40.8,7.8,58.2,43c0,0,5.9-9.8-17.6-30.3C502.5,101.9,485.4,109.7,485.4,109.7z"/>
				<path fill="#F8F8F9" d="M501.1,138.1c0,0,19.6,10.8,23,19.6C524.1,157.7,519.2,139.1,501.1,138.1z"/>
				<path fill="#F8F8F9" d="M426.8,335.2c0,0,8.8,12.7,30.8,12.2c0,0-30.8-14.2-30.8-18.6C426.8,324.4,426.8,335.2,426.8,335.2z"/>
			</g>
		</g>
		<g>
			<g>
				<path fill="#D67474" d="M238.8,10.4c-6.4-0.1-159.5-1-193.9,22.9L55.6,475l3.1,13.8c0,0,62.6,29,180.1,26
					c117.5,3,180.1-26,180.1-26l3.1-13.8l10.7-441.6C398.2,9.4,245.2,10.4,238.8,10.4z"/>
			</g>
		</g>
	</g>
	<path fill="#F8F8F9" d="M173.9,499.4c0,0,49.7,18.2,148.5,0C322.3,499.4,211.6,508.9,173.9,499.4z"/>
	<path fill="#9A999C" d="M58.7,488.7c0,0,77.6,27.6,181.1,25.2c0,0,130-2.4,178.7-25.2l-2,4.4c0,0-72.8,26.8-171.5,26.4
		c-98.8-0.4-176.7-20.8-184.7-26.4L58.7,488.7z"/>
	
		<linearGradient id="SVGID_2_" gradientUnits="userSpaceOnUse" x1="498.6735" y1="585.3475" x2="498.6735" y2="438.4352" gradientTransform="matrix(1 0 0 1 -127.46 -395.5502)">
		<stop  offset="0" style="stop-color:#EAEAEA"/>
		<stop  offset="0.5852" style="stop-color:#ECECEC"/>
		<stop  offset="0.9171" style="stop-color:#F4F4F5"/>
		<stop  offset="1" style="stop-color:#F8F8F9"/>
	</linearGradient>
	<path fill="url(#SVGID_2_)" d="M360.4,44.4c0,0,9.3,128.4,7.7,145.4L382,42.9L360.4,44.4z"/>
	<ellipse id="la_x7C_Mug_Color_x7C_fill_1_" fill="#D67474" cx="235.9" cy="34.3" rx="192.5" ry="26.3"/>
	
		<linearGradient id="SVGID_3_" gradientUnits="userSpaceOnUse" x1="187.8385" y1="430.7023" x2="541.9719" y2="430.7023" gradientTransform="matrix(1 0 0 1 -127.46 -395.5502)">
		<stop  offset="0" style="stop-color:#BCBEC0"/>
		<stop  offset="0.2191" style="stop-color:#F4F4F4"/>
		<stop  offset="1" style="stop-color:#9D9FA2"/>
	</linearGradient>
	<ellipse fill="url(#SVGID_3_)" cx="237.4" cy="35.2" rx="177.1" ry="17"/>
</g>
</svg>
