<?xml version="1.0" encoding="utf-8"?>
<!-- Generator: Adobe Illustrator 16.2.0, SVG Export Plug-In . SVG Version: 6.00 Build 0)  -->
<!DOCTYPE svg PUBLIC "-//W3C//DTD SVG 1.1//EN" "http://www.w3.org/Graphics/SVG/1.1/DTD/svg11.dtd">
<svg version="1.1" id="Layer_1" xmlns="http://www.w3.org/2000/svg" xmlns:xlink="http://www.w3.org/1999/xlink" x="0px" y="0px"
	 width="587px" height="543px" viewBox="0 0 587 543" enable-background="new 0 0 587 543" xml:space="preserve">
<style type="text/css">
	<![CDATA[
	 .bg {fill:#D67474}
	]]>
</style>
<g>
	<linearGradient id="SVGID_1_" gradientUnits="userSpaceOnUse" x1="0.7002" y1="499.8789" x2="467.8223" y2="499.8789">
		<stop  offset="0.0056" style="stop-color:#F8F8F9"/>
		<stop  offset="0.1966" style="stop-color:#CACACA"/>
		<stop  offset="0.2461" style="stop-color:#D6D6D6"/>
		<stop  offset="0.3343" style="stop-color:#E9E8E8"/>
		<stop  offset="0.4253" style="stop-color:#F4F4F4"/>
		<stop  offset="0.5225" style="stop-color:#F8F8F9"/>
		<stop  offset="0.6239" style="stop-color:#F4F3F4"/>
		<stop  offset="0.7203" style="stop-color:#E8E8E8"/>
		<stop  offset="0.8143" style="stop-color:#D6D6D6"/>
		<stop  offset="0.8652" style="stop-color:#CACACA"/>
		<stop  offset="1" style="stop-color:#F8F8F9"/>
	</linearGradient>
	<ellipse fill="url(#SVGID_1_)" cx="234.261" cy="499.879" rx="233.561" ry="36.668"/>
	<g>
		<path class="bg" d="M431.505,94.956l-0.722,71.631h5.063c0,0,9.404-41.966,57.159-28.942
			c47.754,13.024,59.333,72.354,43.414,150.497c-15.919,78.141-95.509,65.12-107.809,41.241l-2.894,61.499
			c0,0,3.616-2.894,7.233-2.894c3.619,0,97.68,11.579,130.962-64.393c0,0,29.665-80.313,8.683-151.221
			s-73.801-78.143-135.302-75.972L431.505,94.956z"/>
		<path class="bg" d="M432.095,95.033l-0.722,71.63h5.063c0,0,9.404-41.966,57.159-28.942
			c47.754,13.024,59.333,72.354,43.414,150.497c-15.919,78.14-95.79,77.977-108.09,54.096l-2.612,48.644
			c0,0,3.616-2.894,7.233-2.894c3.619,0,84.597,9.047,117.879-66.924c0,0,27.537-73.27,6.555-144.177
			c-20.983-70.907-64.024-67.706-125.525-65.535L432.095,95.033z"/>
		<g>
			<path fill="#F8F8F9" d="M489.919,111.429c4.663-0.189,42.051,8.089,59.988,44.361c0,0,6.05-10.082-18.146-31.254
				C507.563,103.363,489.919,111.429,489.919,111.429z"/>
			<path fill="#F8F8F9" d="M506.049,140.667c0,0,20.168,11.092,23.694,20.166C529.743,160.833,524.7,141.674,506.049,140.667z"/>
			<path fill="#F8F8F9" d="M429.424,343.827c0,0,9.075,13.107,31.76,12.603c0,0-31.76-14.619-31.76-19.155
				C429.424,332.735,429.424,343.827,429.424,343.827z"/>
		</g>
	</g>
	<g>
		<g>
			<path class="bg" d="M235.632,9.032C229.038,8.98,71.25,7.986,35.774,32.665l11.028,455.296l3.15,14.18
				c0,0,64.516,29.896,185.679,26.786c121.164,3.109,185.679-26.786,185.679-26.786l3.15-14.18L435.49,32.665
				C400.016,7.986,242.227,8.98,235.632,9.032z"/>
		</g>
	</g>
	<path fill="#F8F8F9" d="M168.731,513.153c0,0,51.274,18.727,153.052,0C321.783,513.153,207.61,522.92,168.731,513.153z"/>
	<path fill="#9A999C" d="M49.997,502.16c0,0,79.975,28.444,186.745,25.971c0,0,133.979-2.473,184.272-25.971l-2.063,4.534
		c0,0-75.028,27.62-176.85,27.208c-101.823-0.412-182.21-21.437-190.455-27.208L49.997,502.16z"/>
	<linearGradient id="SVGID_2_" gradientUnits="userSpaceOnUse" x1="372.166" y1="193.9697" x2="372.166" y2="42.5137">
		<stop  offset="0" style="stop-color:#EAEAEA"/>
		<stop  offset="0.5852" style="stop-color:#ECECEC"/>
		<stop  offset="0.9171" style="stop-color:#F4F4F5"/>
		<stop  offset="1" style="stop-color:#F8F8F9"/>
	</linearGradient>
	<path fill="url(#SVGID_2_)" d="M361.006,44.108c0,0,9.565,132.325,7.972,149.862l14.348-151.456L361.006,44.108z"/>
	<ellipse class="bg" cx="232.667" cy="33.649" rx="198.487" ry="27.103"/>
	<linearGradient id="SVGID_3_" gradientUnits="userSpaceOnUse" x1="51.7168" y1="34.542" x2="416.8057" y2="34.542">
		<stop  offset="0" style="stop-color:#BCBEC0"/>
		<stop  offset="0.2191" style="stop-color:#F4F4F4"/>
		<stop  offset="1" style="stop-color:#9D9FA2"/>
	</linearGradient>
	<ellipse fill="url(#SVGID_3_)" cx="234.261" cy="34.542" rx="182.544" ry="17.537"/>
</g>
</svg>
