<?xml version="1.0" encoding="utf-8"?>
<!-- Generator: Adobe Illustrator 15.0.0, SVG Export Plug-In . SVG Version: 6.00 Build 0)  -->
<!DOCTYPE svg PUBLIC "-//W3C//DTD SVG 1.1//EN" "http://www.w3.org/Graphics/SVG/1.1/DTD/svg11.dtd">
<svg version="1.1" id="Шар_1" xmlns="http://www.w3.org/2000/svg" xmlns:xlink="http://www.w3.org/1999/xlink" x="0px" y="0px"
	 width="100px" height="89.602px" viewBox="0 0 100 89.602" enable-background="new 0 0 100 89.602" xml:space="preserve">
<path d="M99.186,73.656l-1.744-3.021L60.6,6.822c-0.309-0.67-0.674-1.305-1.098-1.9C57.385,1.947,53.916,0,49.986,0
	c-3.931,0-7.399,1.947-9.516,4.923c-0.423,0.594-0.789,1.229-1.096,1.898L2.436,70.8l-1.573,2.726C0.31,74.883,0,76.364,0,77.921
	c0,6.452,5.229,11.681,11.681,11.681h76.637c6.453,0,11.682-5.229,11.682-11.681C100,76.414,99.705,74.979,99.186,73.656z"/>
</svg>
