<?xml version="1.0" encoding="utf-8"?>
<!-- Generator: Adobe Illustrator 21.0.0, SVG Export Plug-In . SVG Version: 6.00 Build 0)  -->
<svg version="1.1" id="Layer_1" xmlns="http://www.w3.org/2000/svg" xmlns:xlink="http://www.w3.org/1999/xlink" x="0px" y="0px"
	 width="500px" height="500px" viewBox="0 0 500 500" enable-background="new 0 0 500 500" xml:space="preserve">
<path fill="#DD2C00" d="M337.8,418.1c-15.4-7.7-35.4-10.2-47-11.1l-9.4-74.3c-0.7-5.5-5.7-9.4-11.2-8.7c-5.5,0.7-9.4,5.7-8.7,11.2
	l9,71.4h-10.1c-5.5,0-10,4.5-10,10s4.5,10,10,10h20.8c8,0,32.3,1.7,47.6,9.4c1.4,0.7,3,1.1,4.5,1.1c3.7,0,7.2-2,9-5.5
	C344.7,426.6,342.7,420.6,337.8,418.1z"/>
<path fill="#FF3D00" d="M317,428.6c-15.4-7.7-35.3-10.2-46.9-11.1l-9.4-75c-0.7-5.5-5.7-9.4-11.2-8.7c-5.5,0.7-9.4,5.7-8.7,11.2
	l9.1,72.1h-10.2c-5.5,0-10,4.5-10,10s4.5,10,10,10h20.8c8,0,32.3,1.7,47.6,9.4c1.4,0.7,3,1.1,4.5,1.1c3.7,0,7.2-2,9-5.5
	C323.9,437,321.9,431,317,428.6z"/>
<g>
	<path fill="#CFD8DC" d="M385.3,169.6c-8.1-12.8,4.7-12.8,15.4-34.2L363.8,73c-53.7,0-71.9,82.7-82.6,104.2
		c-43,0-114.6,41.7-114.6,41.7c-21.5,0-46-62.9-59.5-70.3c0,0-27.4,43.5-36.9,109.4c7.5,5.1,16.5,10.7,27.5,15
		c36.7,84.9,120.7,112.6,169.4,112.6c53.7,0,76.6-31.3,76.6-31.3S460.5,319.9,385.3,169.6z"/>
	<circle fill="#CFD8DC" cx="99" cy="161.5" r="15.6"/>
	<circle fill="#CFD8DC" cx="78.6" cy="213.5" r="15.6"/>
	<circle fill="#CFD8DC" cx="78.1" cy="244.8" r="15.6"/>
	<circle fill="#CFD8DC" cx="83.3" cy="184" r="15.6"/>
</g>
<path fill="#B0BEC5" d="M302.5,127.8c-9.8,20.3-16.2,40.4-20.6,49.3c-41.7,0-115.2,41.7-115.2,41.7c20.8,20.8,52.7,20.8,52.7,20.8
	s-16.2,20.4-52.7,31.3c20.8,10.4,52.1,10.4,52.1,10.4s-10.4,20.8-41.7,31.3c20.8,10.4,57.1,9.2,78.7,0.4
	c83.3-33.9,78.1-114.6,78.1-114.6C331.6,170.3,316.4,135.8,302.5,127.8z"/>
<g>
	<path fill="#FF3D00" d="M354.8,78.1c0-8.6,10.4-36.5,15.6-36.5S386,69.4,386,78.1s-7,15.6-15.6,15.6
		C361.8,93.8,354.8,86.8,354.8,78.1z"/>
	<path fill="#FF3D00" d="M366.9,67.4c3.9-7.7,25.7-27.9,30.4-25.5c4.7,2.4,1.4,31.9-2.5,39.6s-13.3,10.8-21,6.9
		C366.1,84.5,363,75.1,366.9,67.4z"/>
	<path fill="#FF3D00" d="M352.2,91.5c-4.6-7.3-10.7-36.4-6.3-39.2s28.1,15.2,32.7,22.4c4.6,7.3,2.5,16.9-4.8,21.6
		C366.5,101,356.8,98.8,352.2,91.5z"/>
	<path fill="#FF3D00" d="M388,63.5c8.1-3,37.8-3.1,39.6,1.8c1.8,4.9-20.6,24.4-28.7,27.4s-17.1-1.1-20.1-9.1
		C375.8,75.5,379.9,66.5,388,63.5z"/>
	<path fill="#FF3D00" d="M404.1,83.5c8.5,1.3,34.4,15.8,33.7,21c-0.8,5.1-29.9,11.2-38.4,9.9c-8.5-1.3-14.4-9.3-13.1-17.8
		C387.6,88.1,395.5,82.2,404.1,83.5z"/>
	<path fill="#FF3D00" d="M406.9,151c0,14.4-11.7,26-26,26c-13.2,0-24.1-9.8-25.8-22.6c0.1-0.3,26.7,0,31-19.1c0,0,9.4-6.1,9.3-6
		C402.3,134.1,406.9,142.1,406.9,151z"/>
</g>
<g>
	<circle fill="#607D8B" cx="365.2" cy="114.6" r="41.7"/>
	<path fill="#607D8B" d="M365.2,72.9c-52.7,0-73.6,72.9-83.3,104.2l31.3-20.8l15.6,24.1l27-25.7L365.2,72.9z"/>
</g>
<circle cx="375.7" cy="114.6" r="10.4"/>
<path fill="#FFC107" d="M406.9,114.6l-20.8,20.8l20.8,10.4c0,0,20.8-10.4,41.7,0C438.2,114.6,406.9,114.6,406.9,114.6z"/>
</svg>
