<?xml version="1.0" encoding="utf-8"?>
<!-- Generator: Adobe Illustrator 21.0.0, SVG Export Plug-In . SVG Version: 6.00 Build 0)  -->
<svg version="1.1" id="Layer_1" xmlns="http://www.w3.org/2000/svg" xmlns:xlink="http://www.w3.org/1999/xlink" x="0px" y="0px"
	 width="500px" height="500px" viewBox="0 0 500 500" enable-background="new 0 0 500 500" xml:space="preserve">
<path fill="#DD2C00" d="M333.3,375h-53.7l-9.3-73.5c-0.7-5.5-5.7-9.4-11.2-8.7c-5.5,0.7-9.4,5.7-8.7,11.2l10.4,82.7c0,0,0,0,0,0.1
	c-0.3,1.2-0.5,2.5-0.5,3.9c0,8.6,10.4,15.6,15.6,15.6l46.9,10.4c0-10.4,10.4-20.8,20.8-20.8C343.8,395.8,322.9,385.4,333.3,375z"/>
<path fill="#FF3D00" d="M312.5,395.8h-53.7l-9.3-73.5c-0.7-5.5-5.7-9.4-11.2-8.7c-5.5,0.7-9.4,5.7-8.7,11.2l10.4,82.7c0,0,0,0,0,0.1
	c-0.3,1.2-0.5,2.5-0.5,3.9c0,8.6,10.4,15.6,15.6,15.6l46.9,10.4c0-10.4,10.4-20.8,20.8-20.8C322.9,416.7,302.1,406.3,312.5,395.8z"
	/>
<path fill="#BCAAA4" d="M364.6,177.1c0,0,72.9,31.2,72.9,83.3c0,0,10.4,83.4-135.4,93.8s-145.8-20.8-156.3-31.3
	c-10.4-10.4-62.5-65.8-62.5-65.8s114.6-59.2,208.3-59.2C333.3,197.9,364.6,177.1,364.6,177.1z"/>
<path fill="#795548" d="M437.5,260.4c0-52.1-72.9-83.3-72.9-83.3s-31.2,20.8-72.9,20.8c0.4,0.4,72.9,31.2,41.6,72.9
	c41.7,15,54,36.5,62.3,58.4C442.5,301.2,437.5,260.4,437.5,260.4z"/>
<g>
	<path fill="#4E342E" d="M125,302.1l20.8,20.9c0,0,0-10.4,10.4-20.9C166.7,291.7,125,302.1,125,302.1z"/>
	<path fill="#4E342E" d="M291.7,197.9c0.7,0,1.4-0.1,2.2-0.1C293.1,197.9,292.4,197.9,291.7,197.9c-93.8,0-239.6,52.1-239.6,52.1
		s26,33.2,57.8,23c50.2-16.1,130.9-33.8,225.3-41.7C322.1,211.1,292,198.2,291.7,197.9z"/>
</g>
<g>
	<circle fill="#4CAF50" cx="338.5" cy="109.4" r="46.9"/>
	<path fill="#4CAF50" d="M291.7,104.2c0,0-10.4,41.7,0,93.8c52.1,20.8,72.9-20.8,72.9-20.8s-20.8-10.4,10.4-41.7L291.7,104.2z"/>
</g>
<path fill="#EFEBE9" d="M375.5,182.5c-6.5-3.6-10.9-5.4-10.9-5.4s-4-2-5.9-6.9c-10.6,10.1-32.9,22.6-70.6,3.3
	c0.7,7.8,1.8,15.9,3.5,24.4c12.2,4.7,23.1,6.6,32.8,6.6C349.4,204.4,366.3,192,375.5,182.5z"/>
<g>
	<path fill="#FBC02D" d="M447.9,135.4c0,5.8-5.2,8.9-10.4,10.4c-5.5,1.6-10.4-4.7-10.4-10.4s4.7-10.4,10.4-10.4
		C443.3,125,447.9,129.7,447.9,135.4z"/>
	<path fill="#FBC02D" d="M385.4,104.2c0,0,17.2,20.8,52.1,20.8c10.4,0,0,20.8,0,20.8s-42.3,13.5-73.6,3.1
		C381.8,136.7,385.4,114.6,385.4,104.2z"/>
</g>
<path fill="#004D40" d="M361.5,96.8c4.1,4.1,3.1,17.8,3.1,17.8s-13.7,1-17.8-3.1s-3.1-17.8-3.1-17.8S357.5,92.7,361.5,96.8z"/>
<ellipse transform="matrix(0.2497 -0.9683 0.9683 0.2497 176.6207 478.9836)" fill="#6B4C07" cx="397.4" cy="125.5" rx="2.7" ry="5.3"/>
<path fill="#A1887F" d="M333.7,229.2c-0.1,0-0.2,0-0.4,0c-93.7,0-260.6,52.1-260.6,52.1s23.6,33.2,54.3,28.9
	c54.1-7.6,139.9-19.4,206.3-39.3C345.2,255,342.1,240.8,333.7,229.2z"/>
</svg>
