<?xml version="1.0" encoding="utf-8"?>
<!-- Generator: Adobe Illustrator 21.0.0, SVG Export Plug-In . SVG Version: 6.00 Build 0)  -->
<svg version="1.1" id="Layer_1" xmlns="http://www.w3.org/2000/svg" xmlns:xlink="http://www.w3.org/1999/xlink" x="0px" y="0px"
	 width="500px" height="500px" viewBox="0 0 500 500" enable-background="new 0 0 500 500" xml:space="preserve">
<path fill="#DCE775" d="M447.9,166.7H375c-5.8,0-10.4,4.7-10.4,10.4c0,0,0,156.3-166.7,156.3h-10.4v31.3h31.3
	c0,0,177.1,0,177.1-166.7c0,0,31.3-10.4,52.1-10.4c5.8,0,10.4-4.7,10.4-10.4C458.3,171.3,453.7,166.7,447.9,166.7z"/>
<g>
	<path fill="#7CB342" d="M354.2,93.8c-41.7,0-104.2,52.1-104.2,52.1s-93.8,0-135.4,31.3c-41.7,31.3-83.3,114.6-83.3,125
		c0,10.4,0,41.7,52.1,41.7l104.2-10.4H198c36.5,0,64.9-7.5,87.2-19.2c1.5,6.6,3.6,13.3,6.6,19.2c4.7,9.3,44.2,58.9,44.2,58.9
		c0.1-0.1,0.2-0.2,0.3-0.3c2.8,3.3,7.5,4.4,11.6,2.6c0.4-0.2,42.3-18.3,68.5-0.8c1.7,1.1,3.6,1.7,5.5,1.7c3.2,0,6.4-1.6,8.3-4.5
		c3.1-4.6,1.8-10.8-2.8-13.9c-21.1-14.1-47.4-12-65.7-7.8l-28.4-56.8l7.4-51.9c23.8-40.8,23.8-83.5,23.8-83.5
		c0-5.8,4.7-10.4,10.4-10.4h72.9h10.4c5.8,0,10.4-4.7,10.4-10.4C468.8,156.3,468.8,93.8,354.2,93.8z"/>
	<path fill="#7CB342" d="M281.8,376.8c-8.6-5.7-22.4-8.8-38.3-10.1c-37.8-8.3-94.1-12.5-122-12.5c-44.1,0-79.9,9.3-79.9,20.8
		s35.8,20.8,79.9,20.8c1.1,0,2-0.1,3-0.1c0.2,0,0.3,0.1,0.5,0.1c0.6,0,1.2-0.1,1.8-0.2c28.8-0.6,49.3-5.4,70.4-8.2
		c31.9-2,61.7-0.9,73.1,6.7c4.8,3.2,11.3,1.9,14.5-2.9C287.9,386.4,286.6,379.9,281.8,376.8z"/>
</g>
<circle fill="#CFD8DC" cx="359.4" cy="119.8" r="36.5"/>
<circle fill="#37474F" cx="380.2" cy="119.8" r="15.6"/>
<g>
	<path fill="#558B2F" d="M343.8,119.8c0-16.5,11-30.3,26-34.8c-3.3-1-6.8-1.7-10.4-1.7c-20.1,0-36.5,16.3-36.5,36.5
		s16.3,36.5,36.5,36.5c3.6,0,7.1-0.7,10.4-1.7C354.8,150.1,343.8,136.3,343.8,119.8z"/>
	<circle fill="#558B2F" cx="421.9" cy="380.2" r="15.6"/>
	<path fill="#558B2F" d="M444.9,128.1c4.1,4.1,3.1,17.8,3.1,17.8s-13.7,1-17.8-3.1c-4.1-4.1-4.1-10.7,0-14.7
		C434.2,124,440.8,124,444.9,128.1z"/>
	<circle fill="#558B2F" cx="276" cy="380.2" r="15.6"/>
	<circle fill="#558B2F" cx="244.8" cy="380.2" r="15.6"/>
	<path fill="#558B2F" d="M121.5,354.2c17.2,0,45.1,1.6,72.9,4.7c39.4-20.5,65.9-47.9,65.9-67.2c0-31.3-34.5-41.7-92.1-31.3
		c-67.7,12.3-126.6,83.3-126.6,104.2c0,0-1.4,3.9,0.3,8.5C45.8,362.5,79.9,354.2,121.5,354.2z"/>
</g>
<g>
	<g>
		<path fill="#689F38" d="M62.5,312.1c-1.1,0-2.3-0.2-3.4-0.6c-5.2-1.9-7.9-7.6-6-12.8c0.2-0.5,4.7-12.7,13.9-29.6
			c2.6-4.8,8.7-6.6,13.6-4c4.8,2.6,6.6,8.7,4,13.6C76.2,294.2,72,305.5,72,305.6C70.4,309.6,66.6,312.1,62.5,312.1z"/>
		<path fill="#689F38" d="M89.4,261.5c-1.9,0-3.9-0.6-5.6-1.7c-4.6-3.1-5.8-9.3-2.7-13.9c1.5-2.2,3-4.3,4.5-6.4
			c0.3-0.4,0.5-0.7,0.8-1c0.2-0.4,0.4-0.7,0.7-1.1c1.6-2.1,3.2-4.2,4.8-6.2c0.3-0.3,0.6-0.7,0.9-1c0.2-0.4,0.5-0.7,0.8-1.1
			c1.7-2.1,3.4-4.1,5.1-6c0.3-0.3,0.6-0.6,0.9-0.9c0.2-0.4,0.5-0.7,0.8-1c1.8-2,3.6-3.9,5.4-5.8c0.3-0.3,0.6-0.6,1-0.9
			c0.3-0.3,0.6-0.7,0.9-1c1.9-1.9,3.8-3.8,5.7-5.5c0.3-0.3,0.7-0.6,1-0.8c0.3-0.3,0.6-0.7,0.9-1c2-1.8,4-3.6,6-5.2
			c0.3-0.3,0.7-0.5,1.1-0.8c0.3-0.3,0.6-0.6,1-0.9c2.1-1.7,4.2-3.3,6.3-4.9c0.4-0.3,0.7-0.5,1.1-0.7c0.3-0.3,0.7-0.6,1-0.8
			c2.2-1.6,4.4-3.1,6.7-4.5c0.4-0.2,0.8-0.5,1.2-0.6c0.3-0.3,0.7-0.5,1.1-0.8c2.3-1.4,4.6-2.8,7-4c0.4-0.2,0.8-0.4,1.2-0.6
			c0.4-0.3,0.7-0.5,1.1-0.7c0.4-0.2,0.8-0.4,1.2-0.6c4.9-2.5,10.9-0.5,13.4,4.4s0.5,10.9-4.4,13.4c-0.3,0.2-0.7,0.3-1,0.5
			c-0.4,0.2-0.7,0.3-1.1,0.5c-0.3,0.2-0.6,0.4-1,0.6c-2,1.1-4.1,2.3-6,3.5c-0.3,0.2-0.7,0.4-1,0.6c-0.3,0.2-0.6,0.5-1,0.7
			c-1.9,1.2-3.9,2.6-5.8,3.9c-0.3,0.2-0.7,0.4-1,0.6c-0.3,0.3-0.6,0.5-0.9,0.8c-1.9,1.4-3.7,2.8-5.6,4.3c-0.3,0.3-0.6,0.5-1,0.7
			c-0.3,0.3-0.6,0.6-0.9,0.8c-1.8,1.5-3.6,3.1-5.3,4.7c-0.3,0.3-0.6,0.5-0.9,0.7c-0.3,0.3-0.5,0.6-0.8,0.9c-1.7,1.6-3.4,3.3-5.1,5
			c-0.3,0.3-0.6,0.6-0.9,0.8c-0.2,0.3-0.5,0.6-0.8,0.9c-1.6,1.7-3.3,3.5-4.9,5.3c-0.3,0.3-0.6,0.6-0.8,0.8c-0.2,0.3-0.5,0.6-0.7,1
			c-1.5,1.8-3.1,3.6-4.6,5.5c-0.3,0.3-0.5,0.6-0.8,0.9c-0.2,0.3-0.4,0.7-0.7,1c-1.5,1.9-2.9,3.8-4.4,5.7c-0.2,0.3-0.5,0.6-0.8,0.9
			c-0.2,0.3-0.4,0.7-0.6,1c-1.4,1.9-2.8,3.9-4.2,5.9C95.7,260,92.6,261.5,89.4,261.5z"/>
		<path fill="#689F38" d="M167.6,194.5c-4,0-7.8-2.4-9.3-6.4c-2-5.2,0.6-10.9,5.7-12.9c10.6-4.1,21.6-6.8,32.8-8
			c5.5-0.6,10.4,3.3,11,8.8s-3.3,10.4-8.8,11c-9.5,1.1-18.8,3.3-27.8,6.8C170,194.3,168.8,194.5,167.6,194.5z"/>
	</g>
</g>
</svg>
