<?xml version="1.0" encoding="utf-8"?>
<!-- Generator: Adobe Illustrator 21.0.0, SVG Export Plug-In . SVG Version: 6.00 Build 0)  -->
<svg version="1.1" id="Layer_1" xmlns="http://www.w3.org/2000/svg" xmlns:xlink="http://www.w3.org/1999/xlink" x="0px" y="0px"
	 width="500px" height="500px" viewBox="0 0 500 500" enable-background="new 0 0 500 500" xml:space="preserve">
<g>
	<path fill="#5D4037" d="M427.1,301.7c-1,0-2.1-0.2-3.2-0.5l-68.2-22.8L344.3,210c-0.9-5.4,2.8-10.6,8.2-11.5
		c5.4-0.9,10.6,2.8,11.5,8.2l9.4,56.5l56.8,18.9c5.2,1.7,8.1,7.4,6.3,12.7C435.2,299,431.3,301.7,427.1,301.7z"/>
	<path fill="#5D4037" d="M427.1,437.1c-1.5,0-3-0.3-4.5-1.1l-45.4-22.7l-22.1-66.4c-1.7-5.2,1.1-10.9,6.3-12.6
		c5.2-1.8,10.9,1.1,12.6,6.3l19.5,58.6l38,19c4.9,2.5,6.9,8.5,4.5,13.4C434.3,435.1,430.7,437.1,427.1,437.1z"/>
	<path fill="#5D4037" d="M72.9,301.7c-4.2,0-8.1-2.6-9.5-6.8c-1.7-5.2,1.1-10.9,6.3-12.7l56.8-18.9l9.4-56.5
		c0.9-5.4,6.1-9.1,11.5-8.2c5.4,0.9,9.1,6.1,8.2,11.5l-11.4,68.4L76,301.3C75,301.5,74,301.7,72.9,301.7z"/>
	<path fill="#5D4037" d="M72.9,437.1c-3.7,0-7.2-2-9-5.5c-2.5-4.9-0.5-10.9,4.5-13.4l38-19l19.5-58.6c1.7-5.2,7.4-8.1,12.6-6.3
		c5.2,1.7,8.1,7.4,6.3,12.6l-22.1,66.4L77.4,436C76,436.8,74.4,437.1,72.9,437.1z"/>
	<g>
		<path fill="#5D4037" d="M421.8,126.8c-4.7-2.8-10.9-1.3-13.7,3.4l-28.3,47.2H250H120.2l-28.3-47.2c-2.8-4.7-9-6.3-13.7-3.4
			c-4.7,2.8-6.3,9-3.4,13.7l34.2,56.9h141h141.1l34.2-56.9C428.1,135.8,426.5,129.7,421.8,126.8z"/>
		<path fill="#5D4037" d="M177.1,82.9c15.8,0,28.2,3.2,37.2,6.9c-9.3,7.8-16.4,17-16.4,24.7c0,0-20.8,10.4-20.8,41.7l52.1,20.8h41.7
			l52.1-20.8c0-31.3-20.8-41.7-20.8-41.7c0-7.8-7-16.9-16.4-24.7c9-3.7,21.4-6.9,37.2-6.9c5.5,0,10-4.5,10-10s-4.5-10-10-10
			c-26.4,0-45.4,7.8-56.8,14.4c-6-2.8-11.7-4.4-16.2-4.4s-10.2,1.7-16.2,4.4c-11.4-6.7-30.3-14.4-56.8-14.4c-5.5,0-10,4.5-10,10
			S171.6,82.9,177.1,82.9z"/>
	</g>
</g>
<rect x="239.6" y="208.4" fill="#B71C1C" width="20.8" height="229.2"/>
<path fill="#FF3D00" d="M158.4,177.1c-25.3,24.8-43.8,60-43.8,104.1c0,92,79.9,156.3,125,156.3L250,197.9l10.4,239.6
	c45.1,0,125-64.2,125-156.3c0-44.1-18.5-79.3-43.8-104.1H158.4L158.4,177.1z"/>
<g>
	<path fill="#3E2723" d="M250,229.2c28.8,0,52.1-23.3,52.1-52.1H197.9C197.9,205.9,221.2,229.2,250,229.2z"/>
	<circle fill="#3E2723" cx="307.3" cy="296.9" r="26"/>
	<circle fill="#3E2723" cx="192.7" cy="296.9" r="26"/>
	
		<ellipse transform="matrix(0.4731 -0.881 0.881 0.4731 -131.6758 260.9781)" fill="#3E2723" cx="152.3" cy="240.6" rx="20.8" ry="15.6"/>
	
		<ellipse transform="matrix(0.881 -0.4731 0.4731 0.881 -72.1379 194.35)" fill="#3E2723" cx="350.3" cy="240.6" rx="15.6" ry="20.8"/>
	
		<ellipse transform="matrix(0.7071 -0.7071 0.7071 0.7071 -173.0022 337.1509)" fill="#3E2723" cx="320.5" cy="377.4" rx="20.8" ry="15.6"/>
	
		<ellipse transform="matrix(0.7071 -0.7071 0.7071 0.7071 -212.6495 241.4074)" fill="#3E2723" cx="185.1" cy="377.4" rx="15.6" ry="20.8"/>
</g>
<g>
	<path fill="#A1887F" d="M302.1,114.6h-20.8v20.8c0,5.8,4.7,10.4,10.4,10.4h30.4C318.2,122.7,302.1,114.6,302.1,114.6z"/>
	<path fill="#A1887F" d="M197.9,114.6h20.8v20.8c0,5.8-4.7,10.4-10.4,10.4h-30.4C181.8,122.7,197.9,114.6,197.9,114.6z"/>
</g>
</svg>
