<?xml version="1.0" encoding="utf-8"?>
<!-- Generator: Adobe Illustrator 21.0.0, SVG Export Plug-In . SVG Version: 6.00 Build 0)  -->
<svg version="1.1" id="Layer_1" xmlns="http://www.w3.org/2000/svg" xmlns:xlink="http://www.w3.org/1999/xlink" x="0px" y="0px"
	 width="500px" height="500px" viewBox="0 0 500 500" enable-background="new 0 0 500 500" xml:space="preserve">
<g>
	<path fill="#673AB7" d="M305,386.2c-4.3-11.4-2.9-21.6-2.9-21.6s75.3,56,134.5-20c-1.5,3.5-3.3,6.9-5.3,10.2
		c6.1-9.9,10-20.8,11.7-31.5c2.3-13.7,1.5-27-0.8-39.4c-1.2-6.2-2.8-12.3-4.8-18.1c-1-3.1-1.9-5.5-3.3-8.9c-0.9-2.2-2.5-5.8-4-8.6
		c-5.9-11.1-12.5-19.9-17.6-28.4c-2.5-4.3-4.6-8.4-6.1-12.6c-1.5-4.1-2.2-7.7-2-11.9c0.3-8.6,4.1-17.1,9.9-26.4
		c2.8-4.8,5.8-9.9,8-15.7c1.8-5.1,4-10.2,5.2-16.7c1.8-12.8-2.8-23.9-7.2-33.9c-4.6-10.1-10.2-19.4-14-29.7
		c2.2,10.7,6.4,21.1,9.4,31.4c3,10.2,5,21.2,2.2,30c-1.4,4.1-4.3,8.8-6.9,13.7c-2.4,4.1-5.6,8-9.1,12.2c-7.1,8.1-14.9,19-17.7,32.2
		c-1.5,6.5-1.4,14.1-0.1,20.5c1.1,6.4,3.1,12.4,5.3,18c4.4,11.1,9.5,20.9,12.4,29.8c5.4,17.3,6.3,38.3,0.9,53.2
		c-2.6,7.6-6.8,13.6-11.9,18.1c-5.3,4.6-12,7.9-18.6,9.5c-13.2,3.3-27-0.8-36.3-9c-4.6-4-8.3-9.5-10.2-14.4
		c-2.6-6.2-3.1-11.1-3.1-18c0.1-13.6,5.4-32.3,10.3-56.1l0.3-1.4c0.5-2.4,0.7-5,0.8-7.6c0.3-23.1-18.2-42.2-41.3-42.5
		c-23.1-0.3-42.2,18.2-42.5,41.3c-0.3,19.4-4.6,44.1,0.1,74.2c2.3,14.7,8.3,31.2,16.9,43.8c9.2,13.9,24.5,23.2,34.4,32.7
		C302.3,385.2,301.6,384.5,305,386.2z"/>
	<path fill="#673AB7" d="M343.8,114.6c0,51.8-42,177.1-93.8,177.1s-93.8-125.3-93.8-177.1s42-93.8,93.8-93.8S343.8,62.8,343.8,114.6
		z"/>
	<path fill="#673AB7" d="M254.1,266.3c-0.7-11.3-1.3-21.6-1.8-32.3c-0.1-1.8-0.3-3.8-0.6-5.6c-4.1-22.7-25.8-37.8-48.5-33.8
		c-22.7,4.1-37.8,25.8-33.8,48.5l0.1,0.8c3.9,21.9,10.5,46.4,10.9,57.6l0.1,2.7v0.1c0.1-0.6-0.2,1.5,0.2-1.4v0.3v0.5l-0.1,1
		l-0.1,2.1c-0.3,2.7,0.4,0.8,0,2.8c-0.2,2.4-0.8,5-1.9,7.6c-2.1,5.3-6.1,10.8-11.3,15.5c-2.7,2.3-5.2,4.4-8.6,6
		c-0.7,0.6-4.2,2-7.3,2.5c-6.5,1.3-14.9,1.1-23.1-0.5l-3-0.6l-1.5-0.4l-0.7-0.2l-0.2-0.1c0.4,0.1-0.9-0.3,0.8,0.3h-0.1l-0.5-0.2
		l-3.6-1.1c-0.4-0.2-0.7-0.1-1.4-0.4c-2.7-1-5.1-2.4-7.3-4.3c-4.5-3.7-8.7-10.3-11.6-18.7c-6-15.2-4.5-34.3,1.2-53.7l1-3.4l1.2-3.5
		c0.7-2,1.7-4.5,2.8-6.9l6.8-15.4c4.5-10.7,9-24.1,6.3-38.5c-2.5-13.4-10.1-24.5-17.3-32.8c-3.5-4.2-6.7-8.1-9.3-12.3
		c-2.5-4.4-5.6-9.7-7.1-13.7c-3.2-8.8-1.9-19.8,0.6-30.2c2.4-10.5,6.2-21,8.3-31.8c-3.8,10.3-9,19.9-13.1,30.3
		c-4,10.3-7.8,21.7-5.5,34.3c1.6,6.6,3.5,11.1,5.5,16.6c2.3,5.7,5.3,10.8,8.1,15.5c5.8,9.2,9.3,17.9,9.4,26.4
		c0.2,7.7-3.6,15.9-8.9,24.4l-8.8,13.6c-1.6,2.5-3.1,4.9-4.7,7.8l-2.1,4l-2,4.2c-5.1,10.8-9.5,22.3-12,34.9
		c-1.3,6.3-2.1,12.9-2.3,19.6c-0.1,3.3,0,6.8,0.4,10.8l0.4,4.2L59,325c1.3,7.3,3.5,15,6.9,22.8c-0.4-0.9-0.8-1.8-1.2-2.7
		c59,73.9,134.7,19.5,134.7,19.5s0.9,10.9-3.3,22.1c1.8-0.9,3.6-1.7,5.2-2.6c13.1-7.4,25-17.6,34.6-30.9c4.8-6.6,8.9-14.1,11.9-22.1
		c1.5-3.1,3.3-10.4,4-13.1l0.5-2l0.3-1l0.1-0.5l0.1-0.3l0.3-1.8l0.8-5.5c1-7.5,1.2-15.3,1.1-22.1C254.8,278,254.4,272,254.1,266.3z"
		/>
	<g>
		<path fill="#673AB7" d="M316.6,302.2c-1,2.2-2.4,5.9-2.8,6.4c-0.6,1-1.3,2.8-2,4.8c-1.4,3.8-2.5,8-3.5,12.3
			c-2,8.7-3.3,18.2-3.9,27.8c-0.6,9.6-0.7,19.4,0,29.1l0.1,1.8v0.2v0.1c0,0.2-0.3-1.1-0.2-0.6v0.1l0.1,0.5l0.1,1l0.5,4
			c0.2,1.8,0.3,3.5,0.8,5.7c0.8,4.1,1.8,8.3,3.4,12.3c5.8,16,18.5,30.4,36.1,39.7c17.6,9.3,39.1,13.6,61,12.7
			c-20.5,7.6-43.6,11.1-67.4,7.1c-23.6-3.8-48-16.4-65-37.3c-4.3-5.1-8.1-10.7-11.4-16.6c-1.7-2.8-3.3-6.2-4.9-9.5l-1.8-3.8
			l-0.4-0.9l-0.2-0.5l-0.1-0.1l-0.2-0.8l-0.1-0.3l-0.9-2.1c-4.7-11.4-8.5-22.9-11.6-34.8s-5.5-24.1-6.9-37c-0.7-6.4-1.1-13.1-1.1-20
			c0-3.4,0.1-7,0.5-11.3l0.7-9.4l0.1-0.6c1.8-23.3,22.2-40.6,45.5-38.8s40.6,22.2,38.8,45.5C319.5,293.6,318.3,298.1,316.6,302.2z"
			/>
	</g>
	<g>
		<path fill="#673AB7" d="M265.4,282.9l0.8,9.4c0.4,4.3,0.5,7.9,0.5,11.3c0,6.9-0.4,13.6-1.1,20c-1.4,12.9-3.8,25.1-6.9,37
			s-6.9,23.4-11.6,34.8l-0.9,2.1l-0.1,0.3l-0.2,0.7l-0.1,0.1l-0.2,0.5l-0.4,0.9l-1.8,3.8c-1.6,3.3-3.2,6.7-4.9,9.5
			c-3.3,5.8-7.1,11.4-11.4,16.6c-17,21-41.4,33.6-65,37.3c-23.7,3.9-46.9,0.5-67.4-7.1c21.9,0.9,43.4-3.4,61-12.7
			c17.6-9.3,30.4-23.7,36.1-39.7c1.5-4,2.6-8.1,3.4-12.3c0.5-2.2,0.6-3.9,0.8-5.7l0.5-4l0.1-1l0.1-0.5v-0.1c0.2-0.6-0.2,0.7-0.2,0.6
			v-0.1v-0.2l0.1-1.8c0.7-9.6,0.6-19.4,0-29.1c-0.6-9.6-1.9-19.1-3.9-27.8c-1-4.4-2.2-8.5-3.5-12.3c-0.7-2-1.4-3.8-2-4.8
			c-0.4-0.6-1.8-4.2-2.8-6.4c-9.1-21.5,0.9-46.3,22.3-55.4c21.5-9.1,46.3,0.9,55.4,22.3c1.8,4.3,2.9,8.6,3.3,13V282.9z"/>
	</g>
	<path fill="#673AB7" d="M343.8,192.7c0,36.5-68.9,99-83.3,99h-20.8c-14.4,0-83.3-62.5-83.3-99l0,0c0-14.4,11.7-26,26-26h135.4
		C332.1,166.7,343.8,178.3,343.8,192.7L343.8,192.7z"/>
</g>
<g>
	<circle fill="#7E57C2" cx="260.4" cy="62.5" r="20.8"/>
	<circle fill="#7E57C2" cx="218.8" cy="62.5" r="10.4"/>
	<circle fill="#7E57C2" cx="307.3" cy="88.5" r="15.6"/>
	<circle fill="#7E57C2" cx="312.5" cy="125" r="10.4"/>
</g>
<g>
	<circle fill="#B39DDB" cx="239.6" cy="104.2" r="10.4"/>
	<circle fill="#B39DDB" cx="192.7" cy="88.5" r="5.2"/>
	<circle fill="#B39DDB" cx="276" cy="109.4" r="5.2"/>
</g>
<g>
	<g>
		<path fill="#FFEB3B" d="M219.2,210.5c10.4-10.4-8.5-8.5-18.9-18.9c-10.4-10.5-8.5-29.4-18.9-18.9"/>
		<path fill="#311B92" d="M219.2,220.5c-2.6,0-5.1-1-7.1-2.9c-2.5-2.5-3.4-5.9-2.7-9.1c-4.8-2-11-4.7-16.2-9.8
			c-5.1-5.2-7.9-11.3-9.8-16.2c-3.2,0.6-6.6-0.3-9.1-2.7c-3.9-3.9-3.9-10.2,0-14.1c1.8-1.8,7.2-7.2,14.7-5.7s10.3,8.4,12.5,14
			c1.5,3.7,3.2,8,5.9,10.7s6.9,4.4,10.7,5.9c5.5,2.2,12.4,5,14,12.5c1.5,7.4-3.9,12.9-5.7,14.7C224.3,219.5,221.7,220.5,219.2,220.5
			z"/>
	</g>
	<g>
		<path fill="#FFEB3B" d="M276.2,210.5c-10.5-10.4,8.5-8.5,18.9-18.9c10.4-10.5,8.5-29.4,18.9-18.9"/>
		<path fill="#311B92" d="M276.2,220.5c-2.6,0-5.1-1-7.1-2.9c-1.8-1.8-7.3-7.2-5.7-14.7c1.5-7.5,8.4-10.3,14-12.5
			c3.7-1.5,8-3.2,10.7-5.9s4.4-6.9,5.9-10.7c2.2-5.5,5-12.4,12.5-14c7.4-1.5,12.9,3.9,14.7,5.7c3.9,3.9,3.9,10.2,0,14.1
			c-2.5,2.5-5.9,3.4-9.1,2.7c-2,4.8-4.7,11-9.8,16.2c-5.2,5.1-11.3,7.9-16.2,9.8c0.6,3.2-0.3,6.6-2.7,9.1
			C281.3,219.5,278.7,220.5,276.2,220.5z"/>
	</g>
	<path fill="#311B92" d="M250,322.9c0,0-18.7,133-91.6,144.8c1.2-0.2,2.4-0.2,3.6-0.4c23.6-3.8,48-16.4,65-37.3
		c4.3-5.1,8.1-10.7,11.4-16.6c1.7-2.8,3.3-6.2,4.9-9.5l1.8-3.8l0.4-0.9l0.2-0.5l0.1-0.1l0.2-0.7l0.1-0.3l0.9-2.1
		c1.3-3,2.3-6.1,3.4-9.2c1.1,3.1,2.2,6.2,3.4,9.2l0.9,2.1l0.1,0.3l0.2,0.7l0.1,0.1l0.2,0.5l0.4,0.9l1.8,3.8c1.6,3.3,3.2,6.7,4.9,9.5
		c3.4,5.8,7.1,11.4,11.4,16.6c16.8,20.7,40.9,33.2,64.2,37.2C268.1,452.3,250,322.9,250,322.9z"/>
</g>
<g>
	<g>
		<path fill="#FFEB3B" d="M212.3,218c10.4-10.4-8.5-8.5-18.9-18.9c-10.4-10.5-8.5-29.4-18.9-18.9c-10.4,10.4-10.4,27.4,0,37.8
			S201.9,228.4,212.3,218z"/>
	</g>
	<path fill="#FFEB3B" d="M282.1,217.9c-11-11,8.9-8.9,19.9-19.9s8.9-31,19.9-19.9c11,11,11,28.9,0,39.9
		C311,228.9,293.2,228.9,282.1,217.9z"/>
</g>
<g>
	<path fill="#263238" d="M293.6,203.7c1.9,2.7,4.9,4.6,8.4,4.6c5.8,0,10.4-4.7,10.4-10.4c0-3.6-1.9-6.6-4.6-8.4
		c-1.5,3-3.3,5.9-5.8,8.4C299.6,200.4,296.6,202.2,293.6,203.7z"/>
	<path fill="#263238" d="M201.9,204.8c-3-1.4-6-3.2-8.5-5.7s-4.3-5.5-5.7-8.5c-2.8,1.9-4.7,4.9-4.7,8.5c0,5.8,4.7,10.4,10.4,10.4
		C197,209.5,200,207.5,201.9,204.8z"/>
</g>
<g>
	<g>
		<path fill="#FF80AB" d="M304.3,384C304.3,384.1,304.3,384.1,304.3,384C304.3,384,304.3,383.9,304.3,384z"/>
		<path fill="#FF80AB" d="M303.9,365.9c-0.1,5.6,0,11.2,0.4,16.7l0.1,1.8v0.2c0.2,0.6,0.3,1.1,0.5,1.7
			c83.9,40.4,129.3-32.3,131.6-41.6C382.8,413.6,315.8,373.8,303.9,365.9z"/>
	</g>
	<path fill="#FF80AB" d="M196,386.8c0,0,0.1,0,0.1-0.1c0.1-0.3,0.2-0.5,0.3-0.8v-0.2l0.1-1l0.1-0.5v-0.1c0.2-0.6-0.2,0.7-0.2,0.6
		v-0.1v-0.2l0.1-1.8c0.4-5.4,0.5-10.9,0.4-16.4c-13.2,8.4-79.4,45.1-132.3-21.1C94.6,411,168.6,401.3,196,386.8z"/>
</g>
</svg>
