<?xml version="1.0" encoding="utf-8"?>
<!-- Generator: Adobe Illustrator 21.0.0, SVG Export Plug-In . SVG Version: 6.00 Build 0)  -->
<svg version="1.1" id="Layer_1" xmlns="http://www.w3.org/2000/svg" xmlns:xlink="http://www.w3.org/1999/xlink" x="0px" y="0px"
	 width="500px" height="500px" viewBox="0 0 500 500" enable-background="new 0 0 500 500" xml:space="preserve">
<g>
	<path fill="#BF360C" d="M243,326.5c-3.6,0-7.1-2.2-8.5-5.7c-6.1-14.9-16.8-27-30.4-34.3c-4.5-2.4-6.2-8-3.8-12.4
		c2.4-4.5,8-6.2,12.4-3.8c17.3,9.2,31.1,24.7,38.8,43.6c1.9,4.7-0.3,10.1-5.1,12C245.4,326.3,244.2,326.5,243,326.5z"/>
	<path fill="#BF360C" d="M315.9,269.6c-2.9,0-5.8-1.4-7.6-4c-12-17.6-44.4-44.7-71.5-47.7c-5-0.6-8.7-5.1-8.1-10.2
		c0.6-5,5.1-8.7,10.2-8.1c34.5,3.8,70.9,35.4,84.7,55.6c2.9,4.2,1.8,9.9-2.4,12.8C319.5,269.1,317.7,269.6,315.9,269.6z"/>
	<path fill="#BF360C" d="M279.9,300.9c-3.5,0-6.8-2-8.3-5.3c-8.6-18.4-24.5-33.7-43.7-41.7c-4.7-2-6.9-7.4-4.9-12.1
		c2-4.7,7.4-6.9,12.1-4.9c23.3,9.8,42.7,28.4,53.2,50.9c2.1,4.6,0.2,10.1-4.4,12.2C282.6,300.6,281.2,300.9,279.9,300.9z"/>
</g>
<path fill="#DD2C00" d="M379.8,346.3c-2.9,1.4-43.4,24.6-57.9,33.3c-18.8,10.1-37.6,17.4-47.8,17.4c-0.7,0-1.4-0.1-2.2-0.1l0,0
	l-0.1,0.4c-2.9,13.2-8.4,25.6-16.1,36.7c11.5,2.3,22.6,3.5,32.8,3.5c33.3,0,60.8-2.9,81.1-8.7c11.4-1.4,31.9-11.6,31.9-11.6
	c10.6-5.3,14.7-29.2-12.7-21.4C424.3,361.7,410.8,327.5,379.8,346.3z"/>
<g>
	<path fill="#FF5722" d="M251.5,392.8C251.5,392.8,251.4,392.8,251.5,392.8L251.5,392.8c-34.1-12.6-54.2-52.2-54.1-79.8
		c0.1-22.9,19.5-53.6,37.8-70.9c7-6.6,16.4-28.5-2.5-33.7c-18.4-36.7-36.2-31.9-55-84c-27.1-9.8-57,54-57,54
		c-53.2,142.3,32.8,224,113.5,250l0,0C242.6,418.2,248.6,406.1,251.5,392.8z"/>
	<path fill="#FF5722" d="M387.2,396.8c0,0-51.5,28.4-122.2,20.8c-2.6,5.7-5.7,11.2-9.2,16.4c11.5,2.3,22.6,3.5,32.8,3.5
		c33.3,0,60.8-2.9,81.1-8.7c11.4-1.4,31.9-11.6,31.9-11.6c10.6-5.3,14.7-29.2-12.7-21.4c0.1-0.1,0.1-0.1,0.2-0.2L387.2,396.8z"/>
	<path fill="#FF5722" d="M358,124.6l79.5-52.1c0,0-41.8,7.5-69.5,10.8c8.7-4.3,43.1-20.8,41.6-20.8
		c-188.2,20.3-209.4,30.4-226.7,47.8C158.3,132,214.1,221.6,243,218.8c58-29.9,135.3-66.2,156.3-93.8L358,124.6z"/>
</g>
<g>
	<path fill="#FFCCBC" d="M271.9,396.8L271.9,396.8c-3.5-0.1-6.9-0.5-10.2-1.2c-0.3-0.1-0.5-0.1-0.8-0.2c-3.2-0.7-6.4-1.5-9.4-2.7
		h-0.1c0,0,0,0,0.1,0c-2.9,13.3-8.9,25.4-17.3,35.5l0,0c3.3,1.1,6.5,2,9.8,2.9c3,0.7,6.8,1.6,11.8,2.8c0,0,0,0,0.1,0
		c7.6-11.1,13.2-23.6,16.1-36.7L271.9,396.8z"/>
	<path fill="#FFCCBC" d="M221.6,371.9c-4.8-5.3-8.9-11.2-12.4-17.3l0,0c-12.2,14.9-27.7,26.8-45.4,35c5.9,5,12.1,9.6,18.4,13.8
		C197.1,395.2,210.5,384.5,221.6,371.9z"/>
	<path fill="#FFCCBC" d="M197.4,313c0-3.2,0.5-6.5,1.2-10c-15.4,3.2-31.3,4.9-47.7,4.9c-14.2,0-28-1.3-41.5-3.8c2,7.7,4.4,15,7.3,22
		c11.4,1.6,22.9,2.6,34.2,2.6c15.9,0,31.9-1.6,47.5-4.5C197.8,320.3,197.4,316.6,197.4,313z"/>
	<path fill="#FFCCBC" d="M209.3,275.9c3.6-6.5,7.8-12.9,12.4-18.7l0,0c-41.9-7.2-79.4-27-108.5-55.5c-2.2,8-4,15.7-5.4,23.3
		C136.7,250.4,171.4,267.8,209.3,275.9z"/>
	<path fill="#FFCCBC" d="M241.6,218.8c-24.8,0-67-62.5-64.6-94.6c-7-2.3-14.2,0.3-21,5.4c0.3,8.2,2.3,17.8,6.6,29.3
		c11.8,31.2,43.2,76.6,74.8,80.3c3.9-5.2,7.4-13.7,5.8-20.7c-0.1,0.1-0.2,0.1-0.3,0.2C242.6,218.8,242.1,218.8,241.6,218.8z"/>
</g>
<circle fill="#3E2723" cx="347.2" cy="83.3" r="20.8"/>
</svg>
