<?xml version="1.0" encoding="utf-8"?>
<!-- Generator: Adobe Illustrator 21.0.0, SVG Export Plug-In . SVG Version: 6.00 Build 0)  -->
<svg version="1.1" id="Layer_1" xmlns="http://www.w3.org/2000/svg" xmlns:xlink="http://www.w3.org/1999/xlink" x="0px" y="0px"
	 width="500px" height="500px" viewBox="0 0 500 500" enable-background="new 0 0 500 500" xml:space="preserve">
<g>
	<path fill="#795548" d="M395.3,144.6h-0.1c-2.9-17.2-17.8-30.3-35.8-30.3c-20.1,0-36.5,16.3-36.5,36.5c0,2.2,0.3,4.4,0.7,6.5l0,0
		v0.1c0.1,0.4,0.1,0.9,0.2,1.3c30.5,154.9-42.8,164-125.9,174.4c-115.5,14.5-135.4,73-135.4,73s0,20.8,20.8,20.8s208.3,0,208.3,0
		s125,0,125-125C416.7,229,405.8,217.6,395.3,144.6z"/>
	
		<rect x="360.4" y="83.5" transform="matrix(0.6403 -0.7681 0.7681 0.6403 72.4329 341.6845)" fill="#795548" width="81.4" height="20"/>
	
		<rect x="307.8" y="53.9" transform="matrix(0.8136 -0.5814 0.5814 0.8136 1.8445 203.145)" fill="#795548" width="20" height="89.6"/>
</g>
<g>
	<circle fill="#5D4037" cx="416.7" cy="72.7" r="20.8"/>
	<circle fill="#5D4037" cx="302.1" cy="72.7" r="20.8"/>
</g>
<path fill="#BCAAA4" d="M395.9,148.3c-3.1-7.6-10.8-13.1-20.9-13.1c-11.5,0-20.8,9.3-20.8,20.8c0,3.4,25.9,135.7,0,187.5
	C322.9,406,281.3,406,260.4,406c-15.8,0-139,0-197.9,0l0,0c0,0,0,20.8,20.8,20.8s208.3,0,208.3,0S427,437.2,427,312.2
	C427.1,240.6,406.3,228.9,395.9,148.3z"/>
<g>
	<path fill="#4E342E" d="M330.7,207.7c-0.2-0.2-0.2-0.4-0.4-0.7c6.7,108.6-59,117-132.4,126.1c-26.5,3.3-47.8,9-65.2,15.7
		c-4.6,3.2-7.8,4.6-9.1,3.8c0,0,0,0-0.1,0c-3.8,1.7-7.5,3.5-10.9,5.3c-0.1,0-0.2,0.1-0.2,0.1c-3.3,1.8-6.5,3.5-9.4,5.4l0,0
		c19,14.6,41.4,25,65.8,29.6c3,0.6,6.6,1.1,10.5,1.6c1.1,0.1,2.2,0.3,3.4,0.4c6.7,0.8,14.3,1.3,22.4,1.3c6.9,0,13.6-0.4,20-1.2
		l4.4-0.5l3.8-2.3c12-7.2,22.9-15.6,32.3-25c8.3-8.3,15.3-17.6,21.2-27.5c31.2-7.4,66-25.9,67.2-63.9
		C354.2,273.9,357.4,244.1,330.7,207.7z"/>
</g>
<path fill="#FF9800" d="M62.5,239.6c0-34.7,13.1-66.4,34.6-90.4c24.8-27.6,60.8-45,100.8-45c74.8,0,135.4,60.6,135.4,135.4
	c0,1.5,2,19.5-2,35.8c-11.7,52.7-71,47.5-71,47.5S227.8,375,197.9,375C123.1,375,62.5,314.4,62.5,239.6z"/>
<g>
	<path fill="#FFB74D" d="M181,167c2.1-0.2,4.3-0.3,6.5-0.3c5.4,0,10.7,0.6,15.9,1.6c5.9-14,13.1-36.9,11.9-62.8
		c-5.7-0.7-11.5-1.2-17.4-1.2c-1.2,0-2.4,0.2-3.6,0.2C196.2,132.3,185.9,157,181,167z"/>
	<path fill="#FFB74D" d="M150.7,175.3c6.8-3.4,14.2-5.9,21.9-7.2c1.7-17.4,1.1-39.3-7.1-59.9c-6.8,1.7-13.4,3.9-19.8,6.5
		C154.5,135.6,153.3,159.2,150.7,175.3z"/>
	<path fill="#FFB74D" d="M235.4,181.8c8.4-13.3,20.7-36.1,25.1-62.3c-6.3-3.3-12.9-6.1-19.8-8.4c-3,25.5-15.9,48.8-23.8,60.9
		C223.5,174.6,229.7,177.8,235.4,181.8z"/>
	<path fill="#FFB74D" d="M98.4,248.3l5.9,3.9c0-0.7-0.1-1.4-0.1-2.2c0-7.2,1-14.2,2.7-20.8c-6.2-3.4-21.7-10.2-42.9-9.1
		c-0.9,6.4-1.6,12.9-1.6,19.5c0,0.5,0.1,1,0.1,1.5C83.5,239.1,97.4,247.6,98.4,248.3z"/>
	<path fill="#FFB74D" d="M105.9,203.7l5.8,8.6l2.3-1.5c7.2-13.4,17.9-24.6,31-32.4c-2.7-15.2-11.5-33.6-26.2-48.6
		c-5.7,4.1-10.9,8.7-15.9,13.6c14.6,14.5,22.2,33.2,22.2,44.1v7.3l-1.8-2.6c-0.7-1.1-13-18.9-36.9-29c-4,5.8-7.5,11.8-10.6,18.2
		C95.3,188.6,105.3,202.8,105.9,203.7z"/>
	<path fill="#FFB74D" d="M104.8,259.7l-3.9,1.3c-1,0.3-17.4,6-31.6,20.8c2.5,7.5,5.5,14.8,9.2,21.7c11-16.3,28.5-22.6,29-22.8
		l2.3-0.8C107.3,273.5,105.6,266.7,104.8,259.7z"/>
	<path fill="#FFB74D" d="M267.4,229.8l6.9,19.7c15.2-5.3,40-21.9,52.3-52c-3.4-10.5-8.1-20.3-13.9-29.5
		C307.9,214.5,269.3,229.1,267.4,229.8z"/>
	<path fill="#FFB74D" d="M254.7,207.2c1.6-0.8,31.9-16.4,43.2-58.8c-5.5-6-11.5-11.5-17.9-16.4c-6.2,41.1-33.1,55.8-34.6,56.6
		l-9.3,4.6L254.7,207.2z"/>
	<path fill="#FFB74D" d="M272.5,301.9c15.8-2.6,41.7-13.1,60.4-35.3c1.7-13.4,0.4-25.8,0.4-27.1c0-5.7-0.5-11.3-1.2-16.8
		c-11.7,49-60.9,58.3-63.1,58.6l-6.8,22.3L272.5,301.9z"/>
</g>
<path fill="#CE630B" d="M251,184.7c-18.3-18.3-42.7-28.4-68.6-28.4s-50.3,10.1-68.7,28.4c-31.1,31.1-31.1,81.7,0,112.8
	c25.7,25.7,67.5,25.7,93.2,0c10.4-10.3,16.1-24.1,16.1-38.8c0-14.6-5.7-28.4-16.1-38.7c-8.7-8.7-20.2-13.5-32.5-13.5
	s-23.8,4.8-32.5,13.5c-15.1,15.1-15.1,39.8,0,54.9c12.9,12.9,34,12.9,46.9,0c4.1-4.1,4.1-10.7,0-14.7s-10.7-4.1-14.7,0
	c-4.8,4.8-12.6,4.8-17.4,0c-7-7-7-18.4,0-25.4c9.5-9.5,26-9.5,35.5,0c6.4,6.4,9.9,14.9,9.9,24s-3.5,17.6-9.9,24
	c-17.6,17.6-46.2,17.6-63.7,0c-23-23-23-60.4,0-83.3c14.4-14.4,33.6-22.3,53.9-22.3s39.5,7.9,53.9,22.3
	c38.2,38.2,38.2,100.3,0,138.5c-18,18-40.6,29.8-65,34.4c11.2,2.1,30.8,4.7,51.5,2.3c10.2-6.1,19.7-13.3,28.3-21.9
	C297.3,306.3,297.3,231,251,184.7z"/>
</svg>
