<?xml version="1.0" encoding="utf-8"?>
<!-- Generator: Adobe Illustrator 21.0.0, SVG Export Plug-In . SVG Version: 6.00 Build 0)  -->
<svg version="1.1" id="Layer_1" xmlns="http://www.w3.org/2000/svg" xmlns:xlink="http://www.w3.org/1999/xlink" x="0px" y="0px"
	 width="500px" height="500px" viewBox="0 0 500 500" enable-background="new 0 0 500 500" xml:space="preserve">
<g>
	<path fill="#FF3D00" d="M275.8,439.2c-0.7-0.4-16.9-9.6-39-11.4l-13.2-46.1c3.4-2.9,5.5-7.1,5.5-11.9c0-7-4.5-12.8-10.8-14.9v-52.8
		c0-5.5-4.5-10-10-10s-10,4.5-10,10V366v0.1c-0.3,1.2-0.5,2.4-0.5,3.7c0,4.4,1.8,8.3,4.7,11.2l13.6,47.6
		c-18.2,3.1-25.4,12.2-26.3,13.4c-3.3,4.4-2.3,10.7,2.1,14c4.4,3.3,10.7,2.3,14-2.1c0-0.1,6.1-6.3,23.1-6.4c0,0,0,0,0.1,0l0,0
		c20.4,0,36.5,9,36.6,9.1c1.6,0.9,3.3,1.3,5,1.3c3.5,0,6.8-1.8,8.7-5C282.3,448.1,280.6,442,275.8,439.2z"/>
	<path fill="#FF3D00" d="M312.5,62.5c0,0,82.3,10.1,93.8,31.3h-125L291.7,73L312.5,62.5z"/>
</g>
<path fill="#B0BEC5" d="M314.9,147.9c-3.4-6.9-8.8-14.7-15.1-23.8c-6.4-9.4-13.7-19.8-19.3-30.3c0.1,0,0.3,0,0.4,0s0.2,0,0.3,0
	L291.6,73l20.2-10.1c0-17.1-13.8-30.9-30.9-30.9S250,45.9,250,62.9c0,2.8,0.4,5.5,1.1,8.1c2.1,13.7,8.8,27.7,16.7,40.8
	c5,9.8,42.7,86.2,13.5,86.2c-20.8,0-145.5-11.7-187.5,125c0,0,37.6,10.6,83.3,10.4c11.1,0,22.9-0.9,35.2-2.9
	c57.2-9.5,105.7-72.3,113.5-122.9c0.4-1.9,0.7-3.8,0.9-5.7C329.7,177.3,319.3,156.7,314.9,147.9z"/>
<path fill="#455A64" d="M125,333.3c104.2-31.3,145.8-93.8,145.8-93.8c-10.4,10.4-62.5,31.3-114.6,20.8c6.9-31.3,41.7-52.1,41.7-52.1
	s-89.2,9.1-110,102.9c-4.6,22.1-4.6,53.4-4.6,53.4C93.8,343.8,125,333.3,125,333.3z"/>
<ellipse fill="#37474F" cx="281.2" cy="57.3" rx="10.4" ry="5.2"/>
</svg>
