<?xml version="1.0" encoding="utf-8"?>
<!-- Generator: Adobe Illustrator 21.0.0, SVG Export Plug-In . SVG Version: 6.00 Build 0)  -->
<svg version="1.1" id="Layer_1" xmlns="http://www.w3.org/2000/svg" xmlns:xlink="http://www.w3.org/1999/xlink" x="0px" y="0px"
	 width="500px" height="500px" viewBox="0 0 500 500" enable-background="new 0 0 500 500" xml:space="preserve">
<g>
	<path fill="#8BC34A" d="M277.6,326.6c-23,0-41.7-18.7-41.7-41.7s18.7-40.4,41.7-41.7c66.2-3.7,111.2-14.1,125.7-80.4
		c9.8-44.6,49.6-38.3,72.3-34.2c22.6,4.1,13.9,26.5,9.8,49.1C467.3,276.5,416.7,322.9,277.6,326.6z"/>
	<g>
		<path fill="#8BC34A" d="M77.8,284.4c-3.3,8.6-7.1,15-11.5,21.9c-4.4,6.6-9.5,12.8-15.2,18.3c-11.3,11-26.1,18.4-40.7,19.2
			c13.3-6,22.6-16.8,28.2-28.6c2.8-5.9,4.9-12.2,6.3-18.5c1.4-6.2,2.4-13.2,2.3-18.5C47,269.3,54,262,62.8,261.8s16.2,6.8,16.4,15.6
			c0.1,2.1-0.3,4.2-1,6.1L77.8,284.4z"/>
	</g>
</g>
<path fill="#C0CA33" d="M62.5,312.5c0,17.3,14,31.3,31.3,31.3H323c17.2,0,31.3-12.3,33.9-31.3H62.5z"/>
<g>
	<circle fill="#558B2F" cx="437.5" cy="157.3" r="20.8"/>
	<path fill="#558B2F" d="M312.5,396c-4.2,0-8.4-1.3-12-4c-8.8-6.6-10.6-19.2-4-28c8.2-11,20.2-31.1,25.1-47.9
		c-16.5-2.1-46.3-3.4-71.6-3.4c-11,0-20-9-20-20s9-20,20-20c1,0,24.3,0,48,1.3c14.3,0.8,25.9,1.9,34.4,3.3c6.1,1,10.8,2.2,14.6,3.7
		c15.1,5.9,16.8,17.4,16.8,22.1c0,36.9-31.6,80.1-35.3,84.9C324.6,393.2,318.6,396,312.5,396z M332.5,318.3L332.5,318.3L332.5,318.3
		z"/>
	<path fill="#558B2F" d="M154.2,396c-35.3,0-63-8.7-82.3-25.9c-15.5-13.8-19.8-28.2-20.4-30.9l-1.8-7.2l24.1-48.3
		c4.9-9.9,17-13.9,26.8-8.9c9.9,4.9,13.9,17,8.9,26.8l-16.4,32.8c5.8,7.9,21.4,21.6,61,21.6c11,0,20,9,20,20S165.3,396,154.2,396z"
		/>
</g>
<path fill="#795548" d="M250,312.5l7.3-2.4c45.8-19.4,84.3-49.8,110.6-87.3c-20.6-68.6-84.2-118.7-159.6-118.7
	c-92,0-166.7,74.6-166.7,166.7v10.4l62.5,31.3L250,312.5L250,312.5z"/>
<path fill="#8D6E63" d="M208.3,104.2C131.5,104.2,67,156.3,47.7,227l46.1,23l62.5,10.4h62.5l52.1-20.8l41.7-31.3l32.6-32.6
	C315,132.5,265,104.2,208.3,104.2z"/>
<path fill="#5D4037" d="M338.8,167.3L313.1,193l-50.9-59.4L270,116c-6.4-2.6-13-4.8-19.9-6.6l-8.6,19.4L195,166l-54.6-9.1
	l-24.7-24.7c-5.8,3.9-11.3,8.3-16.6,12.9l23.6,23.6L89.1,236l-38.3-19.2c-2.3,6.7-4.3,13.4-5.7,20.4l44.1,22c0.5,0.3,1,0.2,1.5,0.4
	c0.5,0.2,0.9,0.5,1.4,0.6l62.5,10.4c0.6,0.1,1.1,0.1,1.7,0.1h62.5c1.3,0,2.6-0.2,3.9-0.7l52.1-20.8c0.9-0.3,1.6-0.8,2.4-1.3
	l41.7-31.3c0.2-0.2,0.3-0.4,0.5-0.5c0.2-0.2,0.4-0.2,0.6-0.4l31-31C347.2,178.6,343.2,172.8,338.8,167.3z M157.1,250l-47.7-8
	l31.9-63.8l48.2,8l15.9,63.8H157.1z M265.7,230.4L226,246.3L209.7,181l39-31.2l48.7,56.8L265.7,230.4z"/>
<path fill="#4E342E" d="M295,268.3l-11.3-25.4l26.2-19.7l24.8,37.2c5.2-4.8,10.2-9.9,14.9-15.2l-23.8-35.7l25-25
	c-3.7-6.1-7.7-11.8-12.1-17.4l-33.1,33.1l-40,30l-49,19.6H157L97,240l-46.2-23.1c-2.3,6.7-4.3,13.4-5.7,20.4l36.6,18.3l-10.1,40.6
	L92,306.4l9.9-44.5l44.1,7.3v43.3h20.8v-41.7h42.8l4.6,41.7h21l-5-45.4l35.4-14.2l19.4,43.5c6.2-3.4,12.2-7.1,18-10.9L295,268.3z"/>
<circle cx="444.2" cy="149.5" r="10.4"/>
</svg>
