<?xml version="1.0" encoding="utf-8"?>
<!-- Generator: Adobe Illustrator 15.0.0, SVG Export Plug-In . SVG Version: 6.00 Build 0)  -->
<!DOCTYPE svg PUBLIC "-//W3C//DTD SVG 1.1 Basic//EN" "http://www.w3.org/Graphics/SVG/1.1/DTD/svg11-basic.dtd">
<svg version="1.1" baseProfile="basic" id="Шар_1"
	 xmlns="http://www.w3.org/2000/svg" xmlns:xlink="http://www.w3.org/1999/xlink" x="0px" y="0px" width="220px" height="220px"
	 viewBox="0 0 220 220" xml:space="preserve">
<g>
	<path d="M42.443,145.479c1.205,2.615,2.543,5.144,4.018,7.576c6.352,10.48,15.202,19.264,26.302,26.104
		c18.837,11.603,37.383,13.551,38.163,13.628l0.184,0.019l0.184-0.021c0.741-0.087,18.359-2.228,36.246-13.757
		c10.537-6.791,18.938-15.441,24.965-25.709c1.479-2.517,2.807-5.133,3.996-7.84h34.191l-2.303-18.948l2.286-21.387h-11.616V84.428
		h-15.222V44.725c0-9.012-7.33-16.343-16.342-16.343H50.858c-9.012,0-16.343,7.331-16.343,16.343v39.703h-15.22v20.716h-8.847
		l2.288,21.387l-2.304,18.949h32.011V145.479z M19.295,107.153v23.167h17.942c1.107,4.594,2.549,8.981,4.327,13.15H12.7
		l2.044-16.812l0.013-0.114l-2.073-19.392H19.295z M21.303,105.144V86.436h13.212h1.721h1.722h5.596h1.005h1.004h127.228h1.004
		h1.004h5.598h1.722h1.721h13.213v18.708v1.005v1.004v21.158h-15.186h-1.75h-1.757h-5.703h-1.032h-1.035h-4.601h-1.004h-1.004
		H57.146h-1.005h-1.004h-7.04h-1.035h-1.036h-5.724h-1.77H36.77H21.303v-21.158v-1.004V105.144z M37.958,44.725
		c0-7.113,5.787-12.9,12.9-12.9h116.638c7.111,0,12.898,5.787,12.898,12.9v39.703h-5.597V43.316c0-3.316-2.696-6.013-6.014-6.013
		H49.568c-3.316,0-6.014,2.697-6.014,6.013v41.112h-5.596V44.725z M172.791,84.428H45.563V43.316c0-2.209,1.797-4.005,4.005-4.005
		h119.217c2.208,0,4.006,1.796,4.006,4.005V84.428z M206.367,126.545l2.057,16.926h-31.072c1.695-4.171,3.056-8.561,4.088-13.15
		h17.619v-23.167h9.383L206.367,126.545z M172.715,145.479c-0.961,2.067-2,4.082-3.139,6.025
		c-5.734,9.793-13.738,18.057-23.792,24.559c-16.272,10.524-32.788,13.017-34.702,13.275c-1.98-0.234-19.431-2.555-36.621-13.18
		c-10.604-6.555-19.047-14.95-25.096-24.955c-1.118-1.85-2.145-3.764-3.099-5.725c-0.163-0.334-0.325-0.668-0.483-1.006
		c-0.156-0.332-0.312-0.666-0.463-1.004c-1.868-4.15-3.386-8.537-4.545-13.15h5.763c1.249,4.648,2.889,9.033,4.919,13.15
		c0.165,0.336,0.324,0.674,0.494,1.004c0.175,0.34,0.359,0.67,0.538,1.006c5.577,10.41,13.746,19.027,24.488,25.772
		c14.651,9.2,29.672,11.978,33.925,12.61l0.158,0.021l0.155-0.025c4.015-0.672,18.185-3.572,31.978-12.646
		c10.298-6.772,18.098-15.378,23.373-25.735c0.17-0.332,0.338-0.668,0.502-1.004c0.164-0.334,0.322-0.668,0.479-1.005
		c1.929-4.12,3.478-8.505,4.636-13.151h5.721c-1.08,4.609-2.512,8.998-4.293,13.151c-0.144,0.335-0.281,0.673-0.43,1.005
		C173.031,144.813,172.871,145.145,172.715,145.479 M164.982,144.139c-0.226,0.451-0.457,0.896-0.693,1.342
		c-5.113,9.648-12.521,17.69-22.199,24.058c-13.291,8.742-26.933,11.61-31.049,12.315c-4.357-0.662-18.85-3.418-32.996-12.302
		c-10.094-6.338-17.857-14.383-23.259-24.071c-0.185-0.332-0.36-0.67-0.538-1.006c-0.18-0.334-0.363-0.666-0.536-1.004
		c-2.103-4.103-3.795-8.49-5.085-13.15h6.51h1.004h1.005h106.833h1.004h1.004h4.113c-1.06,4.121-2.429,8.033-4.113,11.725
		C165.664,142.751,165.328,143.449,164.982,144.139"/>
	<rect x="185.186" y="89.167" width="2.582" height="0.861"/>
	<rect x="193.458" y="91.225" width="0.86" height="2.583"/>
	<rect x="193.458" y="101.555" width="0.86" height="2.583"/>
	<rect x="193.458" y="96.39" width="0.86" height="2.583"/>
	<rect x="190.35" y="89.167" width="2.584" height="0.861"/>
	<rect x="30.234" y="89.167" width="2.583" height="0.861"/>
	<rect x="24.035" y="96.741" width="0.861" height="2.583"/>
	<rect x="24.035" y="101.906" width="0.861" height="2.583"/>
	<rect x="25.07" y="89.167" width="2.582" height="0.861"/>
	<rect x="24.035" y="91.576" width="0.861" height="2.583"/>
	<rect x="28.959" y="124.718" width="2.583" height="0.861"/>
	<polygon points="24.896,107.153 24.896,107.071 24.035,107.071 24.035,107.153 24.035,109.653 24.896,109.653 	"/>
	<rect x="24.035" y="112.236" width="0.861" height="2.582"/>
	<rect x="24.035" y="117.4" width="0.861" height="2.584"/>
	<polygon points="26.376,124.718 24.896,124.718 24.896,122.566 24.036,122.566 24.036,125.579 26.376,125.579 	"/>
	<rect x="193.458" y="117.05" width="0.86" height="2.583"/>
	<polygon points="194.318,107.153 194.318,106.72 193.458,106.72 193.458,107.153 193.458,109.302 194.318,109.302 	"/>
	<rect x="183.909" y="124.718" width="2.583" height="0.861"/>
	<rect x="193.458" y="111.885" width="0.86" height="2.583"/>
	<rect x="189.074" y="124.718" width="2.583" height="0.861"/>
	<rect x="193.458" y="122.215" width="0.86" height="2.582"/>
	<rect x="174.855" y="89.167" width="2.582" height="0.861"/>
	<rect x="40.564" y="89.167" width="2.583" height="0.861"/>
	<polygon points="41.871,125.579 41.871,124.718 39.561,124.718 39.288,124.718 39.288,125.579 39.732,125.579 	"/>
	<rect x="173.579" y="124.718" width="2.583" height="0.861"/>
	<polygon points="36.706,125.579 36.706,124.718 36.072,124.718 34.124,124.718 34.124,125.579 36.218,125.579 	"/>
	<polygon points="182.117,90.028 182.604,90.028 182.604,89.167 182.117,89.167 180.395,89.167 180.02,89.167 180.02,90.028 
		180.395,90.028 	"/>
	<polygon points="37.958,90.028 37.982,90.028 37.982,89.167 37.958,89.167 36.236,89.167 35.399,89.167 35.399,90.028 
		36.236,90.028 	"/>
	<polygon points="180.631,125.579 181.327,125.579 181.327,124.718 180.781,124.718 179.027,124.718 178.744,124.718 
		178.744,125.579 178.887,125.579 	"/>
	<rect x="97.38" y="89.167" width="2.583" height="0.861"/>
	<rect x="102.545" y="89.167" width="2.583" height="0.861"/>
	<rect x="101.269" y="124.718" width="2.583" height="0.861"/>
	<rect x="96.104" y="124.718" width="2.583" height="0.861"/>
	<rect x="92.215" y="89.167" width="2.583" height="0.861"/>
	<rect x="90.938" y="124.718" width="2.583" height="0.861"/>
	<rect x="123.205" y="89.167" width="2.583" height="0.861"/>
	<rect x="106.434" y="124.718" width="2.583" height="0.861"/>
	<rect x="116.764" y="124.718" width="2.584" height="0.861"/>
	<rect x="121.93" y="124.718" width="2.582" height="0.861"/>
	<rect x="118.04" y="89.167" width="2.583" height="0.861"/>
	<rect x="127.094" y="124.718" width="2.583" height="0.861"/>
	<rect x="107.71" y="89.167" width="2.583" height="0.861"/>
	<rect x="111.6" y="124.718" width="2.582" height="0.861"/>
	<rect x="112.875" y="89.167" width="2.583" height="0.861"/>
	<rect x="70.278" y="124.718" width="2.583" height="0.861"/>
	<rect x="65.113" y="124.718" width="2.583" height="0.861"/>
	<rect x="59.948" y="124.718" width="2.583" height="0.861"/>
	<rect x="61.225" y="89.167" width="2.583" height="0.861"/>
	<rect x="87.05" y="89.167" width="2.583" height="0.861"/>
	<rect x="56.06" y="89.167" width="2.583" height="0.861"/>
	<rect x="50.895" y="89.167" width="2.583" height="0.861"/>
	<rect x="45.73" y="89.167" width="2.583" height="0.861"/>
	<rect x="80.608" y="124.718" width="2.583" height="0.861"/>
	<rect x="81.885" y="89.167" width="2.583" height="0.861"/>
	<rect x="85.773" y="124.718" width="2.583" height="0.861"/>
	<rect x="76.72" y="89.167" width="2.583" height="0.861"/>
	<rect x="71.555" y="89.167" width="2.583" height="0.861"/>
	<rect x="75.443" y="124.718" width="2.583" height="0.861"/>
	<rect x="66.39" y="89.167" width="2.583" height="0.861"/>
	<rect x="158.084" y="124.718" width="2.583" height="0.861"/>
	<rect x="159.359" y="89.167" width="2.584" height="0.861"/>
	<rect x="164.525" y="89.167" width="2.582" height="0.861"/>
	<rect x="128.37" y="89.167" width="2.583" height="0.861"/>
	<rect x="152.918" y="124.718" width="2.583" height="0.861"/>
	<rect x="169.689" y="89.167" width="2.584" height="0.861"/>
	<rect x="154.195" y="89.167" width="2.582" height="0.861"/>
	<rect x="132.259" y="124.718" width="2.583" height="0.861"/>
	<rect x="138.7" y="89.167" width="2.583" height="0.861"/>
	<rect x="137.423" y="124.718" width="2.583" height="0.861"/>
	<rect x="133.535" y="89.167" width="2.583" height="0.861"/>
	<rect x="149.029" y="89.167" width="2.584" height="0.861"/>
	<rect x="143.865" y="89.167" width="2.583" height="0.861"/>
	<rect x="142.588" y="124.718" width="2.583" height="0.861"/>
	<rect x="147.753" y="124.718" width="2.583" height="0.861"/>
	<rect x="49.618" y="124.718" width="2.583" height="0.861"/>
	<polygon points="56.142,125.579 57.146,125.579 57.367,125.579 57.367,124.718 57.146,124.718 56.142,124.718 55.138,124.718 
		54.784,124.718 54.784,125.579 55.138,125.579 	"/>
	<rect x="168.414" y="124.718" width="2.583" height="0.861"/>
	<polygon points="164.982,125.579 165.832,125.579 165.832,124.718 164.982,124.718 163.979,124.718 163.25,124.718 163.25,125.579 
		163.979,125.579 	"/>
	<polygon points="46.449,125.579 47.036,125.579 47.036,124.718 46.274,124.718 45.245,124.718 44.454,124.718 44.454,125.579 
		45.421,125.579 	"/>
	<polygon points="113.012,161.654 110.563,156.693 108.114,161.654 102.638,162.45 106.6,166.313 105.665,171.768 110.563,169.191 
		115.46,171.768 114.525,166.313 118.486,162.45 	"/>
	<path d="M113.568,53.483c-0.453,0.294-1.047,0.532-1.685,0.723c-2.305,0.692-4.773,0.692-7.078,0
		c-0.637-0.191-1.23-0.429-1.683-0.723c-1.814-1.179-13.423-6.349-37.638-2.267v7.073c0,0,2.902-0.906,3.537,2.994
		c0.635,3.899,2.086,16.687,11.972,16.959c0,0,8.978,0.363,10.883,0c1.904-0.362,8.707-1.904,11.337-12.334
		c0,0,0.54-2.34,1.793-4.242c1.575-2.391,5.1-2.391,6.677,0c1.254,1.902,1.793,4.242,1.793,4.242
		c2.631,10.43,9.432,11.972,11.338,12.334c1.902,0.363,10.883,0,10.883,0c9.886-0.272,11.336-13.06,11.972-16.959
		c0.634-3.9,3.536-2.994,3.536-2.994v-7.073C126.99,47.134,115.382,52.304,113.568,53.483 M100.131,65.256
		c-2.313,6.014-4.971,8.899-8.89,9.645c-0.021,0.004-0.592,0.102-3.031,0.102c-3.125,0-7.039-0.157-7.078-0.159l-0.04-0.001
		c-3.547-0.098-5.193-2.536-6.23-4.648c-0.703-1.43-1.265-3.116-1.719-5.153l-0.01-0.046l-0.017-0.045
		c-0.004-0.012-0.464-1.259-0.616-2.923c-0.136-1.491-0.044-3.639,1.161-5.409c1.548-2.273,4.572-3.466,8.988-3.546
		c0.389-0.007,0.78-0.011,1.164-0.011c5.261,0,9.884,0.637,14.134,1.948c1.913,0.59,3.217,2.404,3.171,4.412
		C101.065,61.728,100.733,63.691,100.131,65.256 M143.029,56.619c1.207,1.77,1.297,3.918,1.162,5.409
		c-0.151,1.664-0.611,2.911-0.615,2.923l-0.018,0.045l-0.011,0.046c-0.455,2.037-1.019,3.723-1.719,5.153
		c-1.037,2.112-2.685,4.55-6.229,4.648l-0.041,0.001c-0.039,0.002-3.951,0.159-7.076,0.159c-2.439,0-3.012-0.098-3.033-0.102
		c-3.918-0.746-6.576-3.631-8.891-9.645c-0.601-1.565-0.933-3.528-0.984-5.834c-0.047-2.008,1.256-3.822,3.17-4.412
		c4.25-1.311,8.873-1.948,14.134-1.948c0.384,0,0.776,0.004,1.164,0.011C138.459,53.153,141.482,54.346,143.029,56.619"/>
</g>
</svg>
