<?xml version="1.0" encoding="utf-8"?>
<!-- Generator: Adobe Illustrator 15.0.0, SVG Export Plug-In . SVG Version: 6.00 Build 0)  -->
<!DOCTYPE svg PUBLIC "-//W3C//DTD SVG 1.1 Basic//EN" "http://www.w3.org/Graphics/SVG/1.1/DTD/svg11-basic.dtd">
<svg version="1.1" baseProfile="basic" id="Шар_1"
	 xmlns="http://www.w3.org/2000/svg" xmlns:xlink="http://www.w3.org/1999/xlink" x="0px" y="0px" width="220px" height="220px"
	 viewBox="0 0 220 220" xml:space="preserve">
<path d="M189.058,65.331c-13.45-7.362-25.7-15.718-36.41-24.837c-11.505-9.795-26.701-15.189-42.79-15.189
	c-16.088,0-31.285,5.394-42.79,15.189c-10.71,9.119-22.96,17.475-36.41,24.837C22.053,70.04,14.862,76.599,9.859,84.299
	c-5.181,7.975-7.92,17.066-7.92,26.289c0,9.223,2.739,18.314,7.92,26.289c5.003,7.7,12.194,14.259,20.798,18.968
	c13.45,7.362,25.7,15.719,36.41,24.837c11.506,9.795,26.702,15.189,42.79,15.189s31.284-5.395,42.79-15.189
	c10.71-9.118,22.961-17.475,36.41-24.837c8.604-4.709,15.795-11.268,20.798-18.968c5.181-7.975,7.92-17.066,7.92-26.289
	c0-9.223-2.739-18.314-7.92-26.289C204.853,76.599,197.661,70.04,189.058,65.331 M109.857,192.428
	c-15.271,0-29.674-5.104-40.558-14.367c-10.889-9.271-23.334-17.762-36.989-25.236c-16.861-9.229-26.928-25.019-26.928-42.236
	c0-17.218,10.067-33.007,26.928-42.237c13.655-7.474,26.101-15.965,36.989-25.235c10.883-9.265,25.287-14.367,40.558-14.367
	c15.271,0,29.675,5.102,40.558,14.367c10.889,9.27,23.334,17.761,36.989,25.235c16.861,9.23,26.928,25.019,26.928,42.237
	c0,17.218-10.066,33.007-26.928,42.236c-13.655,7.475-26.101,15.966-36.989,25.236C139.532,187.324,125.128,192.428,109.857,192.428
	"/>
<path d="M211.319,110.588c0-16.1-9.482-30.901-25.361-39.594c-13.837-7.574-26.452-16.181-37.497-25.584
	c-10.338-8.802-24.048-13.649-38.604-13.649c-14.556,0-28.266,4.847-38.604,13.649c-11.045,9.403-23.661,18.011-37.496,25.584
	c-15.88,8.692-25.361,23.494-25.361,39.594c0,16.099,9.481,30.901,25.361,39.593c13.835,7.573,26.451,16.182,37.496,25.584
	c10.338,8.802,24.048,13.649,38.604,13.649c14.556,0,28.267-4.848,38.604-13.649c11.046-9.403,23.661-18.011,37.496-25.584
	C201.837,141.489,211.319,126.688,211.319,110.588 M109.857,187.406c-14.079,0-27.327-4.678-37.302-13.17
	c-11.149-9.491-23.878-18.178-37.834-25.816c-15.226-8.335-24.317-22.478-24.317-37.832c0-15.355,9.091-29.497,24.317-37.832
	c13.956-7.639,26.685-16.325,37.834-25.817c9.975-8.492,23.223-13.169,37.302-13.169s27.327,4.677,37.303,13.169
	c11.148,9.491,23.877,18.177,37.833,25.817c15.227,8.335,24.317,22.478,24.317,37.832s-9.091,29.497-24.317,37.832
	c-13.955,7.639-26.684,16.325-37.833,25.816C137.185,182.729,123.937,187.406,109.857,187.406"/>
<rect x="18.159" y="103.272" transform="matrix(-0.7071 -0.7071 0.7071 -0.7071 -37.7214 199.5257)" width="8.607" height="8.607"/>
<rect x="192.949" y="103.272" transform="matrix(0.7072 0.7071 -0.7071 0.7072 133.8238 -107.9654)" width="8.608" height="8.607"/>
<path d="M119.527,66.413l2.405,1.804c0,0-0.167,5.018-5.326,4.553c-3.47-0.313-4.176-12.091-4.257-20.017h3.284v-3.995h-3.277
	c0.012-0.831,0.027-1.527,0.041-2.048c1.264-0.829,2.1-2.255,2.1-3.88c0-2.562-2.077-4.639-4.64-4.639
	c-2.562,0-4.639,2.077-4.639,4.639c0,1.621,0.831,3.045,2.09,3.875c0.014,0.521,0.03,1.219,0.041,2.053h-3.268v3.995h3.276
	c-0.078,7.926-0.779,19.704-4.249,20.017c-5.159,0.465-5.326-4.553-5.326-4.553l2.405-1.804c0,0-4.982-2.664-6.1-4.897
	c0,0-3.092,6.529-3.264,9.794c0,0,2.062-1.117,2.492-1.289c0,0,3.117,9.926,14.872,11.08l0.863,0.099
	c0.565,0.065,1.135,0.063,1.7-0.005l0.777-0.094c11.756-1.154,14.873-11.08,14.873-11.08c0.43,0.172,2.491,1.289,2.491,1.289
	c-0.172-3.265-3.265-9.794-3.265-9.794C124.51,63.749,119.527,66.413,119.527,66.413 M109.857,44.893
	c-1.139,0-2.063-0.923-2.063-2.063c0-1.139,0.924-2.062,2.063-2.062s2.063,0.923,2.063,2.062
	C111.92,43.97,110.997,44.893,109.857,44.893"/>
</svg>
