<?xml version="1.0" encoding="utf-8"?>
<!-- Generator: Adobe Illustrator 15.0.0, SVG Export Plug-In . SVG Version: 6.00 Build 0)  -->
<!DOCTYPE svg PUBLIC "-//W3C//DTD SVG 1.1 Basic//EN" "http://www.w3.org/Graphics/SVG/1.1/DTD/svg11-basic.dtd">
<svg version="1.1" baseProfile="basic" id="Шар_1"
	 xmlns="http://www.w3.org/2000/svg" xmlns:xlink="http://www.w3.org/1999/xlink" x="0px" y="0px" width="220px" height="220px"
	 viewBox="0 0 220 220" xml:space="preserve">
<path d="M148.347,182.273l1.017,1.731c1-0.585,1.998-1.204,2.968-1.835l-1.096-1.684
	C150.291,181.101,149.319,181.702,148.347,182.273"/>
<path d="M78.958,188.092c1.062,0.464,2.147,0.909,3.229,1.322l0.718-1.876c-1.052-0.402-2.109-0.835-3.143-1.286L78.958,188.092z"/>
<path d="M99.056,193.72c1.148,0.155,2.314,0.287,3.467,0.391l0.18-2c-1.122-0.102-2.258-0.229-3.375-0.381L99.056,193.72z"/>
<path d="M72.7,185.007c1.016,0.561,2.056,1.104,3.093,1.615l0.889-1.802c-1.01-0.497-2.022-1.026-3.011-1.571L72.7,185.007z"/>
<path d="M92.192,192.465c1.128,0.26,2.277,0.497,3.417,0.706l0.361-1.978c-1.109-0.201-2.229-0.433-3.327-0.686L92.192,192.465z"/>
<path d="M85.474,190.585c1.102,0.363,2.225,0.706,3.338,1.018l0.541-1.935c-1.084-0.303-2.177-0.637-3.249-0.99L85.474,190.585z"/>
<path d="M110.813,192.414h-1.322c-1.127,0-2.271-0.025-3.398-0.075l-0.091,2.006c1.158,0.052,2.332,0.078,3.489,0.078h1.322h0.031
	c0.662,0,1.334-0.009,1.999-0.026l-0.052-2.008C112.134,192.405,111.473,192.415,110.813,192.414"/>
<path d="M116.185,192.225l0.143,2.003c1.157-0.082,2.325-0.19,3.472-0.325l-0.232-1.995
	C118.45,192.038,117.313,192.145,116.185,192.225"/>
<path d="M142.338,185.438l0.854,1.818c1.047-0.491,2.098-1.014,3.123-1.555l-0.936-1.776
	C144.38,184.451,143.357,184.961,142.338,185.438"/>
<path d="M136.063,188.034l0.681,1.891c1.088-0.393,2.183-0.815,3.254-1.259l-0.768-1.856
	C138.188,187.241,137.122,187.653,136.063,188.034"/>
<path d="M122.931,191.438l0.322,1.982c1.142-0.186,2.296-0.401,3.43-0.64l-0.413-1.966
	C125.165,191.047,124.042,191.257,122.931,191.438"/>
<path d="M129.575,190.039l0.504,1.944c1.123-0.291,2.252-0.611,3.356-0.953l-0.593-1.919
	C131.768,189.443,130.669,189.756,129.575,190.039"/>
<g>
	<path d="M180.497,144.008c-0.393,1.059-0.814,2.12-1.255,3.156l1.849,0.785c0.452-1.064,0.885-2.155,1.289-3.242L180.497,144.008z"
		/>
	<path d="M159.371,174.357l1.314,1.519c0.873-0.756,1.743-1.544,2.586-2.343l-1.382-1.458
		C161.068,172.854,160.221,173.621,159.371,174.357"/>
	<path d="M168.797,164.588l1.564,1.258c0.729-0.904,1.442-1.834,2.125-2.766l-1.62-1.187
		C170.201,162.8,169.506,163.706,168.797,164.588"/>
	<path d="M154.039,178.568l1.172,1.631c0.94-0.675,1.878-1.382,2.787-2.1l-1.245-1.576
		C155.868,177.223,154.955,177.91,154.039,178.568"/>
	<path d="M164.305,169.682l1.446,1.395c0.807-0.836,1.602-1.698,2.364-2.563l-1.507-1.328
		C165.866,168.026,165.091,168.866,164.305,169.682"/>
	<path d="M172.809,159.108l1.674,1.111c0.641-0.965,1.268-1.958,1.862-2.95l-1.722-1.033
		C174.043,157.202,173.434,158.168,172.809,159.108"/>
	<path d="M61.169,177.184c0.896,0.736,1.821,1.46,2.745,2.151l1.203-1.608c-0.9-0.673-1.801-1.378-2.674-2.096L61.169,177.184z"/>
	<path d="M176.302,153.284l1.769,0.953c0.55-1.021,1.084-2.067,1.584-3.109l-1.812-0.869
		C177.355,151.272,176.837,152.291,176.302,153.284"/>
	<path d="M179.158,73.814l1.847-0.791c-0.456-1.064-0.943-2.132-1.447-3.174l-1.808,0.875
		C178.241,71.738,178.715,72.778,179.158,73.814"/>
	<path d="M66.755,181.359c0.96,0.651,1.945,1.288,2.931,1.893l1.051-1.712c-0.959-0.589-1.918-1.209-2.854-1.843L66.755,181.359z"/>
	<path d="M177.965,66.744c-0.551-1.017-1.135-2.035-1.734-3.028l-1.72,1.038c0.584,0.967,1.151,1.958,1.688,2.948L177.965,66.744z"
		/>
	<path d="M123.033,27.72c-1.142-0.183-2.305-0.342-3.457-0.473l-0.227,1.996c1.121,0.127,2.255,0.282,3.366,0.46L123.033,27.72z"/>
	<path d="M39.217,78.822c0.366-1.064,0.763-2.136,1.179-3.185l-1.867-0.741c-0.428,1.079-0.835,2.179-1.211,3.273L39.217,78.822z"/>
	<path d="M102.368,29.096l-0.188-2c-1.152,0.109-2.318,0.246-3.465,0.407l0.28,1.989C100.111,29.335,101.246,29.202,102.368,29.096"
		/>
	<path d="M89.032,31.598l-0.55-1.932c-1.111,0.317-2.232,0.664-3.332,1.033l0.639,1.904C86.859,32.244,87.95,31.906,89.032,31.598"
		/>
	<path d="M46.542,63.542l-1.699-1.071c-0.618,0.98-1.222,1.987-1.792,2.993l1.746,0.992C45.353,65.478,45.939,64.498,46.542,63.542"
		/>
	<path d="M43.188,69.448l-1.79-0.91c-0.525,1.032-1.033,2.091-1.509,3.146l1.831,0.826C42.184,71.483,42.678,70.453,43.188,69.448"
		/>
	<path d="M55.985,172.521c0.825,0.812,1.68,1.616,2.539,2.39l1.344-1.493c-0.838-0.754-1.67-1.537-2.474-2.328L55.985,172.521z"/>
	<path d="M129.865,29.137c-1.121-0.287-2.265-0.552-3.4-0.787l-0.408,1.967c1.106,0.229,2.22,0.487,3.31,0.766L129.865,29.137z"/>
	<path d="M136.536,31.177c-1.089-0.389-2.203-0.758-3.313-1.097l-0.586,1.921c1.079,0.33,2.164,0.689,3.224,1.068L136.536,31.177z"
		/>
	<path d="M50.423,57.97l-1.594-1.222c-0.705,0.919-1.397,1.866-2.059,2.816l1.647,1.148C49.063,59.787,49.737,58.865,50.423,57.97"
		/>
	<path d="M109.151,28.762l-0.009-2.009c-1.157,0.006-2.33,0.037-3.485,0.093l0.099,2.007
		C106.882,28.798,108.024,28.767,109.151,28.762"/>
	<path d="M116.103,26.932c-1.155-0.079-2.328-0.132-3.485-0.159l-0.046,2.009c1.127,0.025,2.27,0.077,3.395,0.154L116.103,26.932z"
		/>
	<path d="M64.85,43.65l-1.21-1.603c-0.923,0.696-1.844,1.425-2.736,2.165l1.281,1.546C63.055,45.039,63.951,44.33,64.85,43.65"/>
	<path d="M155.029,40.846c-0.944-0.674-1.915-1.333-2.885-1.961l-1.091,1.687c0.944,0.61,1.89,1.253,2.81,1.909L155.029,40.846z"/>
	<path d="M160.516,45.152c-0.88-0.757-1.786-1.502-2.694-2.215l-1.241,1.58c0.886,0.694,1.768,1.42,2.625,2.157L160.516,45.152z"/>
	<path d="M149.173,37.059c-0.998-0.583-2.025-1.151-3.054-1.688l-0.931,1.78c1,0.523,2,1.075,2.972,1.643L149.173,37.059z"/>
	<path d="M170.221,55.155c-0.727-0.897-1.485-1.793-2.256-2.662l-1.502,1.333c0.75,0.846,1.488,1.719,2.195,2.593L170.221,55.155z"
		/>
	<path d="M164.15,51.335l1.441-1.398c-0.271-0.28-0.545-0.559-0.821-0.835c-0.547-0.547-1.107-1.09-1.665-1.616l-1.377,1.462
		c0.543,0.512,1.089,1.042,1.622,1.575C163.619,50.792,163.886,51.063,164.15,51.335"/>
	<path d="M142.991,33.825c-1.049-0.488-2.124-0.959-3.197-1.399l-0.762,1.858c1.044,0.429,2.091,0.887,3.111,1.362L142.991,33.825z"
		/>
	<path d="M70.453,39.811l-1.059-1.707c-0.985,0.611-1.969,1.252-2.923,1.906l1.136,1.656C68.536,41.029,69.493,40.405,70.453,39.811
		"/>
	<path d="M82.595,33.757l-0.726-1.873c-1.079,0.418-2.164,0.868-3.224,1.336l0.813,1.838C80.489,34.603,81.545,34.164,82.595,33.757
		"/>
	<path d="M174.359,60.771c-0.645-0.962-1.318-1.923-2.006-2.855l-1.616,1.191c0.669,0.908,1.326,1.844,1.951,2.78L174.359,60.771z"
		/>
	<path d="M59.618,47.985l-1.351-1.487c-0.857,0.778-1.708,1.586-2.53,2.402l1.415,1.425C57.953,49.53,58.783,48.744,59.618,47.985"
		/>
	<path d="M76.385,36.503l-0.896-1.798c-1.037,0.517-2.075,1.065-3.086,1.629l0.979,1.754C74.365,37.539,75.376,37.006,76.385,36.503
		"/>
	<path d="M54.795,52.773l-1.479-1.361c-0.785,0.853-1.56,1.734-2.304,2.617l1.537,1.293C53.273,54.461,54.029,53.604,54.795,52.773"
		/>
	<path d="M95.643,30.042l-0.369-1.974c-1.138,0.213-2.286,0.455-3.413,0.721l0.46,1.955C93.417,30.485,94.535,30.25,95.643,30.042"
		/>
	<path d="M51.235,167.41c0.748,0.881,1.527,1.759,2.317,2.608l1.472-1.368c-0.769-0.827-1.529-1.683-2.258-2.54L51.235,167.41z"/>
	<path d="M41.857,148.968l-1.827,0.834c0.481,1.053,0.993,2.109,1.523,3.14l1.786-0.918
		C42.824,151.021,42.325,149.992,41.857,148.968"/>
	<path d="M43.22,156.008c0.576,1.005,1.185,2.009,1.806,2.985l1.694-1.079c-0.605-0.95-1.197-1.928-1.759-2.906L43.22,156.008z"/>
	<path d="M39.325,142.667l-1.896,0.661c0.381,1.093,0.794,2.191,1.226,3.268l1.864-0.749
		C40.098,144.8,39.696,143.729,39.325,142.667"/>
	<path d="M46.967,161.893c0.668,0.949,1.364,1.895,2.071,2.808l1.589-1.229c-0.688-0.89-1.367-1.809-2.018-2.733L46.967,161.893z"/>
	<path d="M26.898,141.97c3.968,13.812,11.386,26.47,21.827,36.912c16.231,16.231,37.812,25.17,60.766,25.17h1.323
		c22.953,0,44.533-8.938,60.766-25.17c10.441-10.442,17.859-23.101,21.826-36.912h20.159l-6.525-31.053l6.516-31.71h-20.149
		c-3.967-13.812-11.385-26.47-21.826-36.912c-16.232-16.231-37.813-25.17-60.766-25.17h-1.323c-22.954,0-44.534,8.939-60.766,25.17
		c-10.441,10.442-17.859,23.1-21.827,36.912H6.665l7.534,30.595L6.691,141.97H26.898z M17.74,109.779l-4.961-20.141h11.818h1.749
		H28.1h6.274h2.038h155.793h1.753h1.75h12.188l-4.374,21.286l4.136,19.678h-11.808h-1.746h-1.738H36.249H34.21h-6.271h-1.737h-1.746
		H12.88L17.74,109.779z M109.491,20.567h1.323c22.034,0,42.749,8.581,58.33,24.161c9.782,9.783,16.801,21.591,20.673,34.478h-6.49
		c-0.322-0.985-0.661-1.974-1.024-2.944l-1.881,0.704c0.276,0.738,0.526,1.49,0.779,2.24H30.487
		c3.872-12.887,10.892-24.695,20.675-34.478C66.741,29.148,87.457,20.567,109.491,20.567 M29.537,82.649h6.412h2.079h152.74h1.763
		h1.787h15.015l-1.023,4.981h-12.938h-1.76h-1.754H28.447h-1.754h-1.759H12.285l-1.228-4.981h14.929h1.788H29.537z M110.814,200.608
		h-1.323c-22.034,0-42.75-8.581-58.329-24.161c-9.783-9.783-16.803-21.591-20.675-34.478h159.33
		c-3.872,12.887-10.891,24.694-20.673,34.478C153.563,192.027,132.849,200.608,110.814,200.608 M190.769,138.526h-6.404h-2.093
		H38.033h-2.082h-6.414h-1.763h-1.788H11.03l1.382-5.915H24.77h1.755h1.763h6.276h2.039h147.085h2.046h6.286h1.761h1.755h12.545
		l1.243,5.915h-15.005h-1.787H190.769z"/>
	<path d="M97.734,71.133c8.879-0.954,10.627-3.395,12.418-5.272c1.792,1.877,3.539,4.318,12.419,5.272
		c21.019,2.257,15.644-22.721,15.644-22.721c-0.187,4.284-8.194,8.008-15.644,0.931c-4.733-4.497-9.542-3.278-12.419-1.793
		c-2.877-1.485-7.685-2.704-12.418,1.793c-7.45,7.077-15.458,3.353-15.645-0.931C82.09,48.412,76.715,73.39,97.734,71.133"/>
</g>
</svg>
