<?xml version="1.0" encoding="utf-8"?>
<!-- Generator: Adobe Illustrator 15.0.0, SVG Export Plug-In . SVG Version: 6.00 Build 0)  -->
<!DOCTYPE svg PUBLIC "-//W3C//DTD SVG 1.1 Basic//EN" "http://www.w3.org/Graphics/SVG/1.1/DTD/svg11-basic.dtd">
<svg version="1.1" baseProfile="basic" id="Шар_1"
	 xmlns="http://www.w3.org/2000/svg" xmlns:xlink="http://www.w3.org/1999/xlink" x="0px" y="0px" width="220px" height="220px"
	 viewBox="0 0 220 220" xml:space="preserve">
<g>
	<path d="M68.18,173.204c1.022,0.437,2.035,0.93,3.01,1.462l0.963-1.763c-1.032-0.563-2.102-1.083-3.182-1.546L68.18,173.204z"/>
	<path d="M79.201,180.664c0.786,0.788,1.541,1.621,2.245,2.479l1.552-1.274c-0.745-0.908-1.544-1.791-2.376-2.624L79.201,180.664z"
		/>
	<path d="M50.134,156.757l-1.958,0.448c0.248,1.085,0.445,2.192,0.585,3.292l1.993-0.254
		C50.605,159.078,50.397,157.905,50.134,156.757"/>
	<path d="M38.47,139.938c0.794,0.772,1.562,1.595,2.282,2.445l1.533-1.299c-0.762-0.898-1.574-1.77-2.415-2.586L38.47,139.938z"/>
	<path d="M44.439,143.89l-1.649,1.146c0.634,0.913,1.232,1.868,1.776,2.837l1.751-0.984
		C45.743,145.863,45.109,144.854,44.439,143.89"/>
	<path d="M61.813,171.175c1.084,0.233,2.171,0.523,3.232,0.861l0.61-1.914c-1.122-0.357-2.272-0.664-3.419-0.911L61.813,171.175z"/>
	<path d="M83.799,185.855c0.939,0.842,2.006,1.519,3.172,2.013l0.784-1.85c-0.962-0.407-1.842-0.966-2.616-1.659L83.799,185.855z"/>
	<path d="M47.903,150.05l-1.836,0.813c0.45,1.018,0.856,2.067,1.207,3.121l1.906-0.635C48.809,152.235,48.38,151.125,47.903,150.05"
		/>
	<path d="M54.906,169.445c1.112,0.583,2.313,0.978,3.567,1.174l0.31-1.984c-1.037-0.162-2.028-0.488-2.945-0.969L54.906,169.445z"/>
	<path d="M74.047,176.407c0.922,0.624,1.824,1.299,2.679,2.005l1.279-1.549c-0.904-0.747-1.857-1.46-2.832-2.119L74.047,176.407z"/>
	<path d="M171.112,156.521l-1.948-0.487c-0.285,1.142-0.519,2.31-0.691,3.471l1.986,0.296
		C170.622,158.703,170.842,157.6,171.112,156.521"/>
	<path d="M147.629,172.554l0.928,1.781c0.986-0.513,2.008-0.984,3.039-1.401l-0.754-1.861
		C149.752,171.513,148.672,172.011,147.629,172.554"/>
	<path d="M160.986,168.511l0.443,1.959c1.235-0.279,2.406-0.757,3.479-1.418l-1.054-1.71
		C162.971,167.887,162.006,168.28,160.986,168.511"/>
	<path d="M154.182,169.903l0.572,1.926c1.064-0.316,2.158-0.584,3.248-0.796l-0.383-1.972
		C156.466,169.285,155.309,169.568,154.182,169.903"/>
	<path d="M167.784,162.641c-0.374,0.966-0.905,1.863-1.58,2.667l1.539,1.29c0.815-0.973,1.46-2.06,1.914-3.231L167.784,162.641z"/>
	<path d="M183.886,137.163c0.948-0.718,1.774-1.566,2.453-2.521l-1.638-1.165c-0.56,0.788-1.242,1.489-2.027,2.083l-0.18,0.137
		l1.224,1.594L183.886,137.163z"/>
	<path d="M181.164,139.452l-1.371-1.468c-0.856,0.801-1.687,1.654-2.465,2.537l1.504,1.329
		C179.57,141.016,180.354,140.209,181.164,139.452"/>
	<path d="M176.742,144.463l-1.626-1.179c-0.688,0.95-1.341,1.945-1.938,2.959l1.731,1.02
		C175.473,146.304,176.09,145.362,176.742,144.463"/>
	<path d="M173.35,150.224l-1.82-0.851c-0.496,1.065-0.949,2.167-1.343,3.273l1.894,0.673
		C172.453,152.272,172.879,151.23,173.35,150.224"/>
	<path d="M127.593,186.793h-0.005c-1.042,0-2.071-0.171-3.059-0.507l-0.646,1.902c1.195,0.406,2.441,0.613,3.705,0.613h0.005
		c0.565,0,1.142-0.043,1.709-0.129l-0.298-1.986C128.533,186.757,128.06,186.793,127.593,186.793"/>
	<path d="M141.698,176.396l1.248,1.574c0.871-0.69,1.786-1.347,2.718-1.951l-1.092-1.687
		C143.586,174.972,142.619,175.666,141.698,176.396"/>
	<path d="M110.825,185.175c1.115,0.04,2.237,0.133,3.334,0.278l0.263-1.991c-1.16-0.153-2.347-0.253-3.525-0.295L110.825,185.175z"
		/>
	<path d="M117.45,186.051c1.081,0.251,2.163,0.56,3.217,0.915l0.642-1.903c-1.114-0.377-2.26-0.702-3.403-0.968L117.45,186.051z"/>
	<path d="M96.995,185.35l0.687,1.888c1.045-0.38,2.12-0.714,3.195-0.99l-0.502-1.945C99.238,184.595,98.101,184.947,96.995,185.35"
		/>
	<path d="M103.842,183.586l0.31,1.984c1.096-0.172,2.215-0.291,3.327-0.356l-0.118-2.005
		C106.185,183.278,105.001,183.405,103.842,183.586"/>
	<path d="M136.605,181.298l1.525,1.306c0.722-0.842,1.494-1.66,2.295-2.433l-1.393-1.447
		C138.186,179.54,137.369,180.406,136.605,181.298"/>
	<path d="M91.54,186.793h-0.003c-0.253,0-0.51-0.011-0.763-0.031l-0.163,2.002c0.307,0.025,0.619,0.038,0.926,0.038h0.003
		c0.951,0,1.898-0.118,2.815-0.351l-0.494-1.947C93.105,186.695,92.325,186.793,91.54,186.793"/>
	<path d="M131.965,185.743l0.909,1.791c1.126-0.571,2.144-1.321,3.024-2.228l-1.439-1.4
		C133.732,184.653,132.893,185.271,131.965,185.743"/>
	<path d="M49.781,164.097c0.532,1.133,1.249,2.172,2.13,3.09l1.449-1.391c-0.729-0.76-1.322-1.619-1.761-2.553L49.781,164.097z"/>
	<path d="M144.45,42.925c-0.908-0.645-1.794-1.338-2.634-2.063l-1.313,1.521c0.887,0.767,1.824,1.501,2.785,2.182L144.45,42.925z"/>
	<path d="M130.705,33.493c0.994,0.338,1.914,0.829,2.735,1.46l1.224-1.593c-0.996-0.764-2.109-1.36-3.313-1.769L130.705,33.493z"/>
	<path d="M159.855,49.039l-0.273,1.99c0.151,0.021,0.305,0.041,0.459,0.061c0.904,0.112,1.781,0.35,2.605,0.705l0.795-1.845
		c-0.998-0.431-2.059-0.718-3.15-0.854C160.146,49.078,160,49.061,159.855,49.039"/>
	<path d="M150.247,46.255c-1.013-0.46-2.013-0.974-2.978-1.527l-1,1.741c1.019,0.586,2.078,1.129,3.147,1.614L150.247,46.255z"/>
	<path d="M156.568,48.423c-1.078-0.257-2.16-0.57-3.211-0.933l-0.654,1.9c1.115,0.382,2.258,0.714,3.4,0.986L156.568,48.423z"/>
	<path d="M139.393,38.557c-0.77-0.805-1.506-1.656-2.189-2.528l-1.581,1.239c0.724,0.924,1.503,1.824,2.317,2.676L139.393,38.557z"
		/>
	<path d="M127.588,32.973l0.046,0.001l0.028-2.009l-0.074-0.001c-1.241,0-2.466,0.2-3.643,0.594l0.637,1.905
		C125.553,33.138,126.564,32.973,127.588,32.973"/>
	<path d="M114.484,36.296l-0.267-1.991c-1.098,0.147-2.22,0.242-3.334,0.284l0.075,2.007
		C112.136,36.552,113.322,36.451,114.484,36.296"/>
	<path d="M107.537,34.556c-1.113-0.063-2.232-0.182-3.327-0.352l-0.306,1.985c1.157,0.18,2.341,0.304,3.518,0.371L107.537,34.556z"
		/>
	<path d="M121.368,34.684l-0.646-1.902c-1.055,0.357-2.137,0.667-3.215,0.92l0.457,1.956
		C119.108,35.39,120.254,35.062,121.368,34.684"/>
	<path d="M170.35,59.157c-0.03-0.244-0.068-0.487-0.113-0.724l-1.975,0.371c0.037,0.197,0.068,0.399,0.094,0.602
		c0.117,0.938,0.273,1.884,0.464,2.813l1.968-0.404C170.607,60.938,170.459,60.043,170.35,59.157"/>
	<path d="M167.043,52.404c-0.145-0.146-0.293-0.286-0.443-0.423l-1.347,1.492c0.125,0.112,0.248,0.229,0.369,0.35
		c0.623,0.623,1.153,1.32,1.579,2.07l1.748-0.989C168.436,53.996,167.793,53.154,167.043,52.404"/>
	<path d="M182.572,81.559l-1.289,1.54c0.454,0.38,0.922,0.752,1.391,1.106c0.416,0.313,0.806,0.661,1.16,1.032l1.451-1.388
		c-0.428-0.448-0.898-0.868-1.4-1.247C183.442,82.269,183,81.917,182.572,81.559"/>
	<path d="M171.618,65.055l-1.919,0.593c0.346,1.122,0.752,2.241,1.204,3.326l1.854-0.772
		C172.328,67.174,171.946,66.115,171.618,65.055"/>
	<path d="M176.325,78.061c0.741,0.913,1.534,1.801,2.356,2.639l1.433-1.41c-0.778-0.791-1.528-1.63-2.228-2.494L176.325,78.061z"/>
	<path d="M100.933,33.534c-1.073-0.274-2.148-0.606-3.196-0.985l-0.684,1.889c1.109,0.401,2.246,0.752,3.382,1.042L100.933,33.534z"
		/>
	<path d="M172.419,72.17c0.554,1.037,1.164,2.059,1.813,3.038l1.674-1.11c-0.614-0.926-1.191-1.893-1.715-2.874L172.419,72.17z"/>
	<path d="M31.044,88.844c-0.016,0.058-0.022,0.117-0.037,0.176h2.088c0.064-0.207,0.123-0.417,0.2-0.617l-1.877-0.716
		C31.275,88.062,31.149,88.451,31.044,88.844"/>
	<path d="M42.825,74.68l1.651,1.144c0.669-0.966,1.3-1.976,1.873-3.001l-1.752-0.981C44.054,72.811,43.458,73.767,42.825,74.68"/>
	<path d="M46.091,68.847l1.838,0.811c0.475-1.075,0.902-2.187,1.271-3.302l-1.907-0.631C46.944,66.779,46.54,67.829,46.091,68.847"
		/>
	<path d="M48.189,62.502l1.959,0.444c0.26-1.148,0.467-2.321,0.614-3.485l-1.993-0.252C48.63,60.31,48.436,61.417,48.189,62.502"/>
	<path d="M38.512,79.787l1.403,1.437c0.839-0.819,1.65-1.69,2.41-2.591l-1.534-1.296C40.072,78.188,39.305,79.013,38.512,79.787"/>
	<path d="M35.239,82.603c-0.715,0.541-1.363,1.159-1.928,1.84l1.544,1.283c0.467-0.562,1.004-1.073,1.595-1.521
		c0.275-0.208,0.547-0.419,0.815-0.635l-1.256-1.566C35.755,82.206,35.499,82.407,35.239,82.603"/>
	<path d="M49.809,55.608l1.813,0.866c0.444-0.933,1.042-1.788,1.776-2.544l-1.441-1.399C51.071,53.444,50.348,54.48,49.809,55.608"
		/>
	<path d="M93.914,33.276l0.505-1.944c-1.214-0.315-2.492-0.429-3.742-0.335L90.828,33C91.861,32.923,92.914,33.017,93.914,33.276"/>
	<path d="M54.965,50.29l0.922,1.784c0.92-0.476,1.912-0.795,2.95-0.951l-0.298-1.986C57.283,49.325,56.08,49.713,54.965,50.29"/>
	<path d="M72.208,46.833l-0.965-1.762c-0.977,0.535-1.989,1.029-3.008,1.468l0.793,1.845C70.105,47.92,71.175,47.398,72.208,46.833"
		/>
	<path d="M78.054,42.862l-1.282-1.547c-0.855,0.709-1.755,1.385-2.675,2.01l1.128,1.662C76.198,44.326,77.15,43.611,78.054,42.862"
		/>
	<path d="M83.848,33.866l1.332,1.504c0.777-0.689,1.66-1.242,2.625-1.645l-0.773-1.854C85.863,32.359,84.791,33.03,83.848,33.866"/>
	<path d="M83.038,37.849l-1.555-1.271c-0.702,0.859-1.456,1.694-2.24,2.483l1.424,1.416C81.497,39.642,82.293,38.758,83.038,37.849"
		/>
	<path d="M65.714,49.625l-0.613-1.913c-1.061,0.341-2.148,0.632-3.231,0.867l0.426,1.963C63.442,50.293,64.592,49.984,65.714,49.625
		"/>
	<path d="M205.094,113.531c0.198-1.194,0.299-2.412,0.299-3.648c0-0.626-0.027-1.247-0.078-1.862
		c1.637-6.199,3.272-12.392,4.908-18.56l0.504-1.901l-1.951-0.248c-4.322-0.547-8.652-0.98-12.986-1.327
		c-0.779-3.268-0.969-6.676-0.502-10.042c0.678-4.872-0.268-9.704-2.733-13.975c-2.465-4.27-6.177-7.505-10.735-9.355
		c-6.773-2.75-12.235-8.212-14.985-14.985c-1.851-4.558-5.085-8.271-9.354-10.734c-4.271-2.467-9.104-3.411-13.976-2.735
		c-7.242,1.006-14.702-0.994-20.472-5.485c-3.881-3.021-8.539-4.619-13.468-4.619c-4.931,0-9.589,1.598-13.47,4.619
		c-5.769,4.492-13.23,6.492-20.47,5.485c-4.872-0.676-9.705,0.269-13.975,2.735c-4.27,2.464-7.506,6.177-9.356,10.734
		c-2.75,6.773-8.212,12.235-14.985,14.985c-4.558,1.851-8.271,5.086-10.736,9.355c-2.465,4.271-3.411,9.103-2.734,13.975
		c0.59,4.253,0.137,8.579-1.242,12.596c-3.944-0.328-7.883-0.729-11.813-1.227l-2.347-0.297l0.44,2.325
		c1.345,7.108,2.69,14.207,4.035,21.296c-1.343,6.599-2.687,13.188-4.03,19.767l-0.372,1.819l1.842,0.232
		c4.322,0.547,8.651,0.975,12.984,1.32c0.78,3.27,0.97,6.682,0.503,10.049c-0.677,4.872,0.269,9.705,2.734,13.975
		c2.465,4.271,6.178,7.505,10.736,9.355c6.773,2.75,12.235,8.212,14.985,14.985c1.85,4.559,5.086,8.271,9.356,10.736
		c4.27,2.465,9.102,3.409,13.975,2.734c7.24-1.007,14.701,0.992,20.47,5.484c3.881,3.022,8.539,4.62,13.47,4.62
		c4.929,0,9.587-1.598,13.468-4.62c5.77-4.491,13.23-6.491,20.472-5.484c4.872,0.675,9.705-0.27,13.976-2.734
		c4.27-2.466,7.504-6.178,9.354-10.736c2.75-6.773,8.212-12.235,14.985-14.985c4.559-1.851,8.271-5.085,10.735-9.355
		c2.466-4.27,3.411-9.103,2.733-13.975c-0.59-4.253-0.135-8.579,1.242-12.596c3.944,0.328,7.883,0.729,11.813,1.227l2.639,0.334
		l-0.775-2.544C208.502,124.655,206.798,119.088,205.094,113.531 M176.236,166.118c0.711-1.671,1.203-3.441,1.434-5.291
		c0.857-6.891,4.525-13.245,10.066-17.434c1.485-1.124,2.772-2.436,3.864-3.887c-0.032,1.596,0.056,3.197,0.277,4.79
		c0.569,4.106-0.228,8.18-2.306,11.779c-2.078,3.601-5.209,6.327-9.049,7.887C179.033,164.568,177.602,165.293,176.236,166.118
		 M143.976,192.198c-1.592-0.221-3.194-0.309-4.79-0.276c1.451-1.092,2.764-2.379,3.889-3.866
		c4.188-5.538,10.541-9.207,17.433-10.064c1.851-0.23,3.62-0.723,5.292-1.433c-0.827,1.364-1.551,2.795-2.156,4.285
		c-1.56,3.842-4.287,6.971-7.887,9.05C152.156,191.971,148.083,192.769,143.976,192.198 M109.563,202.271
		c-4.158,0-8.084-1.347-11.355-3.894c-1.269-0.988-2.613-1.865-4.011-2.635c1.804-0.22,3.583-0.679,5.301-1.404
		c6.396-2.702,13.732-2.702,20.13,0c1.717,0.726,3.497,1.184,5.3,1.404c-1.398,0.77-2.742,1.646-4.011,2.635
		C117.646,200.924,113.72,202.271,109.563,202.271 M79.315,191.911c-1.389,0-2.781,0.095-4.166,0.287
		c-4.106,0.57-8.18-0.228-11.78-2.305c-3.6-2.079-6.327-5.208-7.886-9.05c-0.605-1.49-1.33-2.921-2.156-4.285
		c1.672,0.71,3.442,1.202,5.292,1.433c6.89,0.857,13.244,4.526,17.433,10.064c1.125,1.488,2.438,2.775,3.891,3.868
		C79.733,191.92,79.525,191.911,79.315,191.911 M38.602,163.963c-3.842-1.56-6.97-4.286-9.049-7.887
		c-2.078-3.6-2.876-7.673-2.305-11.779c0.22-1.593,0.309-3.194,0.276-4.79c1.092,1.451,2.379,2.763,3.866,3.887
		c5.538,4.188,9.207,10.543,10.065,17.434c0.23,1.85,0.722,3.62,1.433,5.291C41.523,165.293,40.092,164.568,38.602,163.963
		 M15.051,117.374c0.253-1.247,0.507-2.491,0.762-3.739c0.179-0.882,0.359-1.762,0.538-2.644l0.068-0.332l-0.063-0.333
		c-0.221-1.161-0.441-2.327-0.661-3.489c-0.26-1.366-0.519-2.735-0.778-4.104c-0.74-3.905-1.481-7.809-2.221-11.72
		c2.835,0.333,5.673,0.606,8.514,0.853c0.611,0.054,1.222,0.106,1.833,0.156c0.17,0.014,0.339,0.029,0.508,0.043
		c0.337,0.026,0.673,0.061,1.009,0.086c0.101,0.008,0.202,0.019,0.303,0.025c0.234,0.018,0.468,0.029,0.701,0.046
		c28.19,2.046,56.546,0.258,84.107-1.485c9.919-0.627,19.94-1.26,30.017-1.718c15.361-0.698,30.846-0.975,46.279-0.209
		c0.023,0.069,0.044,0.139,0.066,0.209h2.088c-0.008-0.036-0.016-0.072-0.024-0.108c0.558,0.031,1.114,0.074,1.67,0.108
		c1.122,0.068,2.243,0.141,3.364,0.222c0.063,0.004,0.126,0.008,0.189,0.013c0.34,0.024,0.682,0.042,1.021,0.068
		c0.217,0.017,0.436,0.039,0.652,0.056c0.125,0.01,0.25,0.022,0.375,0.032c0.508,0.04,1.015,0.088,1.522,0.131
		c3.171,0.269,6.336,0.571,9.496,0.947c-0.937,3.533-1.873,7.086-2.81,10.63c-0.26,0.979-0.519,1.958-0.777,2.938
		c-0.327,1.241-0.654,2.478-0.982,3.72c-0.281,1.063-0.562,2.119-0.842,3.184l-0.125,0.475l0.145,0.469
		c0.182,0.596,0.365,1.198,0.548,1.793c0.31,1.011,0.62,2.027,0.93,3.038c0.263,0.855,0.524,1.714,0.786,2.57
		c0.96,3.137,1.92,6.267,2.88,9.414c-2.737-0.319-5.481-0.582-8.224-0.82c-0.611-0.053-1.223-0.104-1.834-0.154
		c-0.17-0.014-0.34-0.029-0.508-0.043c-0.336-0.026-0.672-0.058-1.01-0.084c-0.101-0.008-0.203-0.019-0.305-0.026
		c-0.232-0.017-0.466-0.031-0.699-0.05c-28.189-2.044-56.546-0.255-84.106,1.487c-9.917,0.627-19.938,1.261-30.012,1.718
		c-0.001,0-0.001,0.001-0.002,0.001H33.094v-0.001h-2.087v0.001H29.35c0,0,0-0.001-0.001-0.001
		c-1.118-0.068-2.236-0.142-3.355-0.222c-0.063-0.005-0.126-0.007-0.189-0.013c-0.34-0.024-0.681-0.042-1.022-0.067
		c-0.217-0.017-0.434-0.038-0.651-0.056c-0.125-0.01-0.25-0.022-0.376-0.032c-0.508-0.04-1.015-0.088-1.523-0.131
		c-3.206-0.271-6.41-0.579-9.607-0.961C13.434,125.307,14.242,121.339,15.051,117.374 M42.888,53.647
		c-0.711,1.672-1.203,3.441-1.433,5.291c-0.858,6.891-4.526,13.246-10.065,17.434c-1.487,1.124-2.774,2.437-3.866,3.887
		c0.032-1.596-0.056-3.197-0.276-4.79c-0.571-4.105,0.227-8.179,2.305-11.779c2.079-3.6,5.207-6.327,9.049-7.887
		C40.092,55.198,41.523,54.474,42.888,53.647 M75.149,27.567c1.593,0.222,3.194,0.31,4.79,0.276
		c-1.451,1.093-2.763,2.38-3.888,3.866c-4.188,5.539-10.542,9.208-17.433,10.065c-1.849,0.229-3.619,0.723-5.291,1.434
		c0.826-1.365,1.551-2.797,2.155-4.287c1.56-3.841,4.287-6.97,7.887-9.049C66.969,27.795,71.043,26.998,75.149,27.567
		 M109.563,17.496c4.157,0,8.083,1.346,11.354,3.894c1.269,0.987,2.612,1.864,4.01,2.634c-1.803,0.221-3.582,0.679-5.299,1.404
		c-6.397,2.702-13.734,2.702-20.13,0c-1.718-0.726-3.497-1.184-5.3-1.404c1.398-0.77,2.742-1.646,4.01-2.634
		C101.479,18.842,105.405,17.496,109.563,17.496 M155.756,29.873c3.6,2.079,6.327,5.208,7.887,9.049
		c0.605,1.49,1.329,2.921,2.155,4.287c-1.671-0.711-3.44-1.204-5.291-1.434c-6.892-0.857-13.245-4.526-17.435-10.065
		c-1.123-1.486-2.435-2.773-3.887-3.865c1.596,0.032,3.198-0.056,4.79-0.277C148.083,26.998,152.156,27.795,155.756,29.873
		 M180.523,55.803c3.84,1.56,6.971,4.287,9.049,7.887c2.078,3.601,2.875,7.674,2.306,11.779c-0.222,1.593-0.31,3.194-0.277,4.79
		c-1.092-1.45-2.379-2.763-3.864-3.887c-5.541-4.188-9.209-10.543-10.066-17.434c-0.23-1.85-0.723-3.619-1.434-5.291
		C177.602,54.474,179.033,55.198,180.523,55.803 M109.453,87.301c-9.927,0.628-19.96,1.261-30.045,1.719
		c-15.394,0.699-30.912,0.975-46.378,0.201c-0.681-0.034-1.362-0.067-2.043-0.105c-0.599-0.034-1.198-0.059-1.797-0.096
		c-1.02-0.063-2.038-0.146-3.057-0.218c-0.082-0.006-0.163-0.012-0.245-0.018c0.081-0.416,0.17-0.832,0.281-1.246
		c0.231-0.863,0.53-1.694,0.879-2.499c1.206-2.787,3.089-5.201,5.553-7.064c5.97-4.514,9.923-11.361,10.847-18.788
		c0.382-3.065,1.531-5.903,3.342-8.342c0.522-0.702,1.092-1.379,1.724-2.011c0.632-0.632,1.307-1.201,2.01-1.724
		c2.439-1.811,5.277-2.96,8.343-3.342c7.426-0.924,14.273-4.878,18.787-10.847c1.864-2.465,4.278-4.348,7.067-5.555
		c0.803-0.348,1.634-0.647,2.496-0.878c0.863-0.231,1.733-0.388,2.603-0.488c3.018-0.349,6.05,0.074,8.896,1.277
		c6.893,2.912,14.8,2.913,21.692,0c2.848-1.203,5.879-1.626,8.896-1.277c0.871,0.101,1.74,0.257,2.604,0.488s1.693,0.53,2.496,0.879
		c2.789,1.206,5.203,3.089,7.066,5.554c4.514,5.969,11.362,9.923,18.788,10.847c3.065,0.382,5.903,1.531,8.342,3.342
		c0.703,0.522,1.38,1.092,2.011,1.724s1.201,1.309,1.725,2.011c1.811,2.438,2.96,5.276,3.341,8.342
		c0.924,7.427,4.878,14.274,10.847,18.788c2.465,1.863,4.348,4.277,5.553,7.064c0.101,0.23,0.195,0.465,0.285,0.701
		c-0.052-0.004-0.103-0.008-0.152-0.011C164.465,83.837,136.574,85.586,109.453,87.301 M160.259,175.997
		c-7.426,0.925-14.274,4.878-18.788,10.847c-1.863,2.467-4.279,4.349-7.068,5.556c-0.803,0.347-1.633,0.646-2.494,0.878
		c-0.862,0.23-1.731,0.387-2.602,0.487c-3.018,0.35-6.051-0.074-8.898-1.276c-3.445-1.457-7.146-2.185-10.845-2.185
		c-3.7,0-7.4,0.728-10.847,2.185c-2.845,1.201-5.874,1.625-8.891,1.277c-0.872-0.101-1.743-0.257-2.608-0.488
		c-0.866-0.232-1.701-0.533-2.508-0.884c-2.783-1.206-5.194-3.088-7.055-5.55c-4.514-5.969-11.361-9.922-18.787-10.847
		c-3.066-0.381-5.903-1.53-8.342-3.341c-0.704-0.522-1.379-1.093-2.011-1.725c-0.632-0.632-1.202-1.307-1.724-2.011
		c-1.811-2.438-2.96-5.276-3.342-8.342c-0.924-7.426-4.878-14.274-10.847-18.787c-2.464-1.864-4.347-4.277-5.553-7.065
		c-0.099-0.228-0.19-0.458-0.28-0.69c0.05,0.003,0.1,0.006,0.15,0.009c2.446,0.167,4.893,0.302,7.341,0.414l-0.99,0.813
		c0.575,0.7,1.238,1.337,1.97,1.89c0.244,0.185,0.485,0.372,0.724,0.563l1.253-1.569c-0.252-0.201-0.507-0.399-0.765-0.596
		c-0.42-0.317-0.799-0.677-1.158-1.054c5.712,0.246,11.427,0.36,17.136,0.36c19.247,0,38.431-1.213,57.243-2.402
		c9.927-0.628,19.959-1.261,30.043-1.718h46.537l1.732,0.521c0.033-0.115,0.065-0.229,0.096-0.346
		c0.017-0.058,0.021-0.117,0.035-0.175h1.822c1.018,0.063,2.036,0.146,3.055,0.217c0.082,0.006,0.162,0.013,0.244,0.018
		c-0.08,0.417-0.168,0.833-0.279,1.247c-0.232,0.863-0.531,1.694-0.881,2.498c-1.205,2.788-3.088,5.201-5.553,7.065
		c-5.969,4.513-9.923,11.361-10.847,18.787c-0.381,3.066-1.53,5.903-3.342,8.343c-0.522,0.703-1.093,1.378-1.724,2.01
		s-1.308,1.201-2.011,1.724C166.162,174.467,163.324,175.616,160.259,175.997"/>
	<path d="M128.054,49.704c-1.267,0-2.293,1.027-2.293,2.294c0,0.388,0.096,0.753,0.267,1.073l-7.293,7.655l-0.064-6.033
		c0.748-0.27,1.283-0.985,1.283-1.826c0-1.072-0.869-1.94-1.94-1.94s-1.94,0.868-1.94,1.94c0,0.403,0.123,0.778,0.336,1.089
		l-3.074,5.143l-2.147-8.706c0.988-0.559,1.655-1.617,1.655-2.833c0-1.797-1.457-3.253-3.254-3.253
		c-1.797,0-3.253,1.456-3.253,3.253c0,1.197,0.647,2.242,1.61,2.808l-2.154,8.731l-3.073-5.143c0.211-0.311,0.335-0.686,0.335-1.089
		c0-1.072-0.869-1.94-1.94-1.94c-1.072,0-1.941,0.868-1.941,1.94c0,0.841,0.535,1.557,1.283,1.826l-0.064,6.033l-7.293-7.655
		c0.17-0.32,0.267-0.686,0.267-1.073c0-1.267-1.027-2.294-2.294-2.294s-2.293,1.027-2.293,2.294c0,1.222,0.955,2.22,2.159,2.289
		l4.121,17.756h13.025h2.96h13.025l4.12-17.756c1.204-0.069,2.159-1.067,2.159-2.289C130.348,50.731,129.32,49.704,128.054,49.704"
		/>
	<polygon points="94.333,78.924 124.511,78.924 125.842,73.819 92.891,73.819 	"/>
	<path d="M61.627,64.45v2.673c7.417,3.048,14.835-3.047,22.252,0V64.45C76.462,61.402,69.044,67.498,61.627,64.45"/>
	<path d="M72.614,72.406v2.673c3.755-0.771,7.51-1.571,11.265-0.027v-2.674C80.125,70.835,76.369,71.636,72.614,72.406"/>
	<path d="M135.245,64.45v2.673c7.417-3.047,14.835,3.048,22.252,0V64.45C150.08,67.498,142.662,61.402,135.245,64.45"/>
	<path d="M135.245,72.378v2.673c3.755-1.543,7.51-0.742,11.267,0.028v-2.673C142.755,71.635,139,70.835,135.245,72.378"/>
</g>
</svg>
