<?xml version="1.0" encoding="utf-8"?>
<!-- Generator: Adobe Illustrator 15.0.0, SVG Export Plug-In . SVG Version: 6.00 Build 0)  -->
<!DOCTYPE svg PUBLIC "-//W3C//DTD SVG 1.1 Basic//EN" "http://www.w3.org/Graphics/SVG/1.1/DTD/svg11-basic.dtd">
<svg version="1.1" baseProfile="basic" id="Шар_1"
	 xmlns="http://www.w3.org/2000/svg" xmlns:xlink="http://www.w3.org/1999/xlink" x="0px" y="0px" width="220px" height="220px"
	 viewBox="0 0 220 220" xml:space="preserve">
<g>
	<path d="M68.621,27.67h75.213c6.081,0,11.748,3.271,14.787,8.538l26.916,46.618c0.073-0.048,0.142-0.104,0.214-0.151
		c0.417-0.271,0.833-0.521,1.249-0.76c0.508-0.291,1.016-0.563,1.522-0.806l-26.918-46.623c-3.653-6.328-10.463-10.26-17.771-10.26
		H68.621c-7.308,0-14.117,3.932-17.77,10.26L19.823,88.228c0.857-0.355,1.703-0.674,2.533-0.943
		c0.804-0.261,1.594-0.479,2.368-0.658l29.109-50.418C56.873,30.941,62.54,27.67,68.621,27.67"/>
	<path d="M198.636,117.247c-0.764,0.446-1.574,0.825-2.406,1.173v0.001l-37.607,65.137c-3.04,5.267-8.707,8.538-14.788,8.538H68.621
		c-6.081,0-11.748-3.271-14.788-8.538l-22.547-39.051c-0.312,0.309-0.62,0.607-0.92,0.888c-0.122,0.114-0.245,0.217-0.367,0.325
		c-0.45,0.396-0.907,0.753-1.37,1.07l22.222,38.489c3.653,6.329,10.462,10.26,17.77,10.26h75.213c7.308,0,14.117-3.931,17.771-10.26
		l37.607-65.136c0.824-1.43,1.453-2.938,1.905-4.488c-0.739,0.521-1.526,1.024-2.351,1.512
		C198.722,117.193,198.681,117.221,198.636,117.247"/>
	<path d="M68.621,184.535h75.213c3.389,0,6.547-1.823,8.241-4.758l34.44-59.653c-0.373-0.021-0.741-0.052-1.104-0.096
		c-0.297-0.035-0.595-0.067-0.885-0.117c-0.063-0.011-0.122-0.027-0.185-0.038l-34.006,58.9c-1.337,2.315-3.828,3.753-6.502,3.753
		H68.621c-2.673,0-5.165-1.438-6.501-3.753l-24.03-41.622c-0.237,0.266-0.471,0.53-0.704,0.789
		c-0.239,0.266-0.473,0.525-0.707,0.785l23.701,41.052C62.075,182.712,65.231,184.535,68.621,184.535"/>
	<path d="M150.336,40.993l26.528,45.948c0.034,0.012,0.073,0.018,0.108,0.03c0.518,0.182,1,0.414,1.459,0.677
		c0.366,0.209,0.721,0.434,1.048,0.692c0.101-0.121,0.209-0.229,0.311-0.349l-27.715-48.004c-1.694-2.934-4.853-4.758-8.241-4.758
		H68.621c-3.389,0-6.546,1.824-8.241,4.758l-26.945,46.67c0.334,0.096,0.653,0.211,0.971,0.327c0.321,0.118,0.631,0.25,0.935,0.389
		L62.12,40.992c1.337-2.314,3.827-3.753,6.501-3.753h75.213C146.508,37.239,148.999,38.678,150.336,40.993"/>
	<polygon points="83.051,165.932 81.137,162.055 79.224,165.932 74.945,166.553 78.041,169.571 77.31,173.833 81.137,171.82 
		84.965,173.833 84.234,169.571 87.33,166.553 	"/>
	<polygon points="107.169,165.693 105.029,161.357 102.889,165.693 98.104,166.389 101.566,169.764 100.749,174.529 
		105.029,172.279 109.309,174.529 108.491,169.764 111.953,166.389 	"/>
	<polygon points="129.661,165.932 127.747,162.055 125.834,165.932 121.555,166.553 124.651,169.571 123.92,173.833 127.747,171.82 
		131.574,173.833 130.844,169.571 133.939,166.553 	"/>
	<path d="M97.73,69.288l-1.324-2.479c-0.774-1.449-1.168-3.083-1.137-4.723c0.027-1.521,0.42-3.031,1.137-4.369l1.392-2.604
		c0.173-0.34,0.448-0.75,0.825-1.154c-5.235-3.381-14.194-8.134-18.166-7.68c-6.115,0.696-4.852,33.179-1.939,33.24
		c5.476,0.115,14.608-5.357,20.173-8.946C98.244,70.133,97.923,69.668,97.73,69.288"/>
	<path d="M133.187,46.28c-3.962-0.454-12.884,4.271-18.125,7.652c0.391,0.414,0.676,0.832,0.852,1.182l1.324,2.479
		c0.774,1.445,1.168,3.082,1.137,4.721c-0.026,1.518-0.42,3.032-1.137,4.369l-1.392,2.604c-0.19,0.373-0.499,0.825-0.934,1.264
		c5.561,3.588,14.724,9.084,20.212,8.969C138.038,79.459,139.301,46.977,133.187,46.28"/>
	<path d="M113.737,68.194l1.405-2.631c0.544-1.012,0.836-2.142,0.855-3.293c0.024-1.239-0.271-2.465-0.855-3.558l-1.341-2.506
		c0,0-0.23-0.472-0.754-0.909c-0.447-0.377-1.12-0.73-2.05-0.73h-0.635h-7.014h-0.635c-0.951,0-1.63,0.37-2.081,0.757
		c-0.506,0.429-0.727,0.883-0.727,0.883l-1.405,2.632c-0.543,1.011-0.835,2.142-0.856,3.293v0.139c0,1.191,0.292,2.366,0.856,3.419
		l1.341,2.505c0,0,0.275,0.567,0.91,1.036c0.444,0.325,1.066,0.604,1.894,0.604h0.635h7.014h0.635c0.849,0,1.477-0.291,1.925-0.628
		C113.47,68.741,113.737,68.194,113.737,68.194"/>
</g>
</svg>
