<?xml version="1.0" encoding="utf-8"?>
<!-- Generator: Adobe Illustrator 15.0.0, SVG Export Plug-In . SVG Version: 6.00 Build 0)  -->
<!DOCTYPE svg PUBLIC "-//W3C//DTD SVG 1.1 Basic//EN" "http://www.w3.org/Graphics/SVG/1.1/DTD/svg11-basic.dtd">
<svg version="1.1" baseProfile="basic" id="Шар_1"
	 xmlns="http://www.w3.org/2000/svg" xmlns:xlink="http://www.w3.org/1999/xlink" x="0px" y="0px" width="220px" height="220px"
	 viewBox="0 0 220 220" xml:space="preserve">
<path d="M194.128,78.566V61.399l-83.114-47.986l-0.861-0.497L26.177,61.399v17.167c-5.327,0.422-10.652,0.869-15.969,1.372
	L8.494,80.1l5.684,60.144l1.715-0.162c3.426-0.324,6.854-0.622,10.284-0.911v19.196l83.115,47.986l0.86,0.497l83.976-48.483V139.17
	c3.431,0.289,6.859,0.587,10.284,0.911l1.714,0.162l5.685-60.144l-1.715-0.161C204.78,79.436,199.456,78.988,194.128,78.566
	 M38.271,68.382l71.881-41.501l71.881,41.501v9.295c-47.806-3.235-95.956-3.235-143.762,0V68.382z M110.654,24.852l-0.502-0.289
	l-73.891,42.66v10.584c-2.215,0.154-4.428,0.328-6.642,0.495V63.387l80.532-46.494l80.532,46.494v14.915
	c-2.214-0.167-4.427-0.341-6.643-0.495V67.223L110.654,24.852z M190.685,156.378l-80.532,46.496L29.62,156.378v-17.489
	c2.213-0.178,4.428-0.345,6.642-0.509v14.163l73.389,42.371l0.502,0.29l73.89-42.661V138.38c2.215,0.164,4.429,0.331,6.643,0.509
	V156.378z M183.038,138.366h-1.005v13.018l-71.881,41.501l-71.881-41.501v-13.018h-1.005h-0.829c0.276-0.02,0.553-0.043,0.829-0.064
	c0.335-0.023,0.67-0.052,1.005-0.075c47.791-3.433,95.971-3.433,143.762,0c0.335,0.023,0.67,0.052,1.005,0.075
	c0.276,0.021,0.553,0.045,0.83,0.064H183.038z M204.574,120.073l-1.553,16.419c-2.962-0.275-5.928-0.524-8.894-0.773
	c-0.575-0.048-1.147-0.103-1.722-0.149c-0.573-0.047-1.147-0.095-1.722-0.142c-2.214-0.177-4.428-0.336-6.643-0.498
	c-0.335-0.025-0.669-0.052-1.004-0.076s-0.67-0.052-1.005-0.075c-23.896-1.71-47.887-2.575-71.881-2.575
	c-23.993,0-47.984,0.865-71.881,2.575c-0.335,0.023-0.67,0.051-1.005,0.075s-0.669,0.051-1.005,0.076
	c-2.214,0.162-4.429,0.321-6.642,0.498c-0.574,0.047-1.147,0.095-1.722,0.142s-1.147,0.102-1.722,0.149
	c-2.966,0.249-5.932,0.498-8.894,0.773l-1.552-16.419l-3.485-36.867c1.161-0.108,2.324-0.199,3.485-0.304
	c3.479-0.312,6.961-0.611,10.445-0.888c0.573-0.046,1.148-0.085,1.722-0.13c0.574-0.045,1.147-0.086,1.722-0.13
	c1.575-0.12,3.149-0.244,4.726-0.355c0.64-0.046,1.277-0.1,1.916-0.145v0.145h1.005h1.005v-0.276
	c47.804-3.246,95.958-3.246,143.762,0v0.276h1.005h1.004v-0.145c0.64,0.045,1.278,0.099,1.917,0.145
	c1.576,0.111,3.151,0.235,4.726,0.355c0.574,0.044,1.148,0.085,1.722,0.13c0.574,0.045,1.148,0.084,1.722,0.13
	c3.484,0.276,6.966,0.576,10.446,0.888c1.161,0.104,2.324,0.195,3.484,0.304L204.574,120.073z"/>
<polygon points="129.434,61.939 112.092,36.884 110.152,34.082 108.213,36.884 90.871,61.939 94.466,71.316 125.839,71.316 "/>
<polygon points="77.144,60.534 75.272,56.743 73.401,60.534 69.218,61.143 72.246,64.093 71.531,68.26 75.272,66.293 79.015,68.26 
	78.3,64.093 81.327,61.143 "/>
<polygon points="141.29,68.26 145.032,66.293 148.773,68.26 148.06,64.093 151.087,61.143 146.903,60.534 145.032,56.743 
	143.161,60.534 138.977,61.143 142.005,64.093 "/>
<polygon points="30.752,103.301 29.62,104.433 27.898,106.155 26.177,107.876 24.737,109.315 26.177,110.756 27.898,112.478 
	29.62,114.199 30.752,115.331 36.263,109.819 36.767,109.315 36.263,108.812 "/>
<polygon points="192.406,107.02 190.685,105.298 188.688,103.301 184.042,107.947 183.038,108.951 182.673,109.315 183.038,109.681 
	184.042,110.685 188.688,115.331 190.685,113.334 192.406,111.612 194.128,109.891 194.703,109.315 194.128,108.741 "/>
</svg>
