<?xml version="1.0" encoding="utf-8"?>
<!-- Generator: Adobe Illustrator 19.2.1, SVG Export Plug-In . SVG Version: 6.00 Build 0)  -->
<svg version="1.1" id="Layer_1" xmlns="http://www.w3.org/2000/svg" xmlns:xlink="http://www.w3.org/1999/xlink" x="0px" y="0px"
	 width="590px" height="530px" viewBox="0 0 590 530" enable-background="new 0 0 590 530" xml:space="preserve">
<path fill="#222420" d="M75.8,519c0.3,0.1,34.5,5.7,104,5.7s103.7-5.7,104-5.7h0.2c0.6-0.1,1.1-0.4,1.4-0.9s0.4-1.1,0.3-1.7v-0.2
	c-0.1-0.3-7.1-30.7-9.9-63.5c-2.1-25.1-11.7-66.3-18-93.5c-2.1-9.2-3.8-16.5-4.7-21c-3.5-17.6-2.1-48.5-0.7-63.9
	c1.3-13.8,1.1-29.7,1.1-33.2c4.1-6.4,5.2-14.9,5.3-21.8c0.2-0.3,0.4-0.7,0.4-1.1c0-0.6,0-1.2-0.1-1.8l-0.4-7c0-0.4-0.2-0.8-0.4-1.2
	c0,0-0.1-0.1-0.1-0.2c0-0.2-0.1-0.5-0.1-0.6c0.1-0.4,0.1-1.2,0.2-2.3c0.9-5.8,2.9-20.7,3.1-35.9c0.1-10.4-0.6-19-2.2-25.7
	c-2-8.2-5.3-13.6-9.9-16.1c-0.3-0.4-0.8-0.6-1.3-0.7h-0.1c-0.2-0.1-0.4-0.1-0.6-0.1h-0.1l-16.8-2.1c-0.1,0-0.3-0.1-0.4-0.1l-5.1-0.6
	c-9-3.3-27.8-3.8-38.2-3.8c-3.7,0-6.4,0.1-6.9,0.1s-3.1-0.1-6.9-0.1c-10.5,0-29.5,0.5-38.4,3.9l-22.2,2.7c-0.1,0-0.1,0-0.2,0
	c-0.3,0-0.5,0-0.8,0.1s-0.6,0.2-0.8,0.4c-4.8,2.4-8.3,7.9-10.3,16.4c-1.6,6.7-2.3,15.3-2.2,25.7c0.2,17.7,2.9,34.9,3.5,38.2l0,0
	c0,0.3-0.1,0.9-0.2,1.6c0,0.1,0,0.2,0,0.3v0.1c-0.2,1.7-0.4,4.3-0.5,7.5c0,0.4,0,0.8,0,1.2c0,0.1,0,0.1,0,0.2c0,6.7,1,15.9,5.3,22.8
	c-0.1,3.5-0.2,19.4,1.1,33.2c1.4,15.5,2.8,46.3-0.7,63.9c-0.9,4.5-2.6,11.8-4.7,21l0,0c-6.3,27.3-15.9,68.5-18,93.5"/>
<path fill="#222420" d="M513.8,516.4v-0.2c-0.1-0.3-7.1-30.7-9.9-63.5c-2.1-25.1-11.7-66.3-18-93.5c-2.1-9.2-3.8-16.5-4.7-21
	c-3.5-17.6-2.1-48.5-0.7-63.9c1.3-13.8,1.1-29.7,1.1-33.2c7.5-11.8,5.1-30.7,4.6-33.7c0.1-0.5,0.1-1.2,0.2-2.4
	c1-6.6,3.3-23.4,3.1-39.8c-0.1-10.4-1.1-18.9-3.1-25.2s-5-10.6-8.9-12.8c-0.3-0.4-0.8-0.6-1.3-0.7l-22.9-2.8
	c-2-0.7-12.6-3.8-45.3-3.8s-43.3,3.1-45.3,3.8l-22.8,2.8c-0.1,0-0.2,0-0.3,0.1l0,0c-0.1,0-0.2,0.1-0.3,0.1
	c-5.1,2.3-8.8,7.9-10.9,16.7c-1.6,6.7-2.3,15.4-2.2,25.8c0.3,17.7,2.9,34.8,3.5,38.1l0,0c-0.4,2.9-2.8,21.8,4.6,33.7
	c-0.1,3.5-0.2,19.4,1.1,33.2c1.4,15.5,2.8,46.3-0.7,63.9c-0.9,4.5-2.6,11.7-4.7,21l0,0c-6.3,27.3-15.9,68.5-18,93.5
	c-2.8,32.9-9.8,63.2-9.9,63.6v0.2c-0.1,0.6,0,1.2,0.3,1.7s0.8,0.8,1.4,0.9h0.2c0.3,0.1,34.4,5.7,104,5.7c69.7,0,103.7-5.7,104-5.7
	h0.2c0.6-0.1,1.1-0.4,1.4-0.9C513.9,517.6,514,517,513.8,516.4z"/>
<path fill="#222420" d="M133,63.2c0.3,1.4,0.8,3.6,2.7,4.6c0.5,0.5,1.4,1.2,2.5,1.5c0.4,0.1,0.9,0.2,1.3,0.2c1.4,0,3-0.6,4.7-1.6
	c2.2-1.4,16.5-8.6,31.8-8.6c0.5,0,1.1,0,1.6,0c0,0,0,0,0.1,0c0,0,0,0,0.1,0c0.5,0,1.1,0,1.6,0c15.3,0,29.6,7.2,31.8,8.6
	c1.7,1.1,3.3,1.6,4.7,1.6c0.5,0,0.9-0.1,1.3-0.2c1.1-0.3,2-1,2.5-1.5c1.9-1,2.4-3.2,2.7-4.6c0.7-3.2-1.9-13.7-2.4-15.1
	c-0.4-1.3-0.9-2.3-1.2-3.1c0.1-0.1,0.2-0.2,0.2-0.3c0.2-0.2,0.3-0.5,0.4-0.8c0.2-0.3,0.3-0.7,0.4-0.9c0.1-0.2,0.2-0.4,0.2-0.6
	c0.4-0.8,0.7-2.1,0.2-8.4c-0.3-3.2-0.6-6.3-0.6-6.5v-0.2c-0.1-0.6-0.4-1.1-0.9-1.5c-0.3-0.2-0.7-0.4-1.1-0.4
	c-1.4-1.7-4.5-5.2-9.5-8.7c-6.2-4.4-16.5-9.6-30.5-9.6s-24.3,5.2-30.5,9.6c-4.9,3.5-8.1,7-9.4,8.7h-0.1c-0.5,0-0.9,0.1-1.3,0.4
	c-0.5,0.4-0.8,0.9-0.9,1.5v0.2c0,0.3-0.4,3.3-0.6,6.5c-0.5,6.3-0.2,7.6,0.2,8.4c0.1,0.2,0.2,0.4,0.2,0.6c0.3,0.7,0.6,1.5,1.2,2.2
	c-0.4,0.8-0.8,1.7-1.2,2.9C134.9,49.5,132.3,60,133,63.2z"/>
<path fill="#222420" d="M317.9,45.9c2.8,4.7,9.2,5.5,11.7,5.6c1.7,1.2,3.3,2.3,5,3.5c7.4,5,16,6,21.8,6c3.4,0,5.9-0.4,6.4-0.4
	s0.9-0.1,1.3-0.2c15.5-2.1,37.6-11.3,41.4-12.9c3.6,0.5,7.6,0.9,11.5,1.3l0,0c5.9,0.7,11.4,1.3,13.6,1.7c4,0.8,12.8,3.1,14.2,3.5
	c0.1,0,0.3,0.1,0.4,0.2c0.8,0.3,1.7,0.6,2.8,0.6c1.3,0,3.6-0.5,4.5-4.1c0.8-3.5,2.3-9.3,2.3-9.3v-0.1c0.3-1.2-0.4-2.3-1.6-2.6h-0.1
	c-0.1,0-12.5-3.1-25.4-7.1c-23.7-7.4-26-10.7-26.2-11.1l0,0c-0.1-0.4-0.4-0.8-0.7-1.1l0,0c-0.2-0.1-15.4-13.1-30-14.5
	c-0.5-0.1-1-0.1-1.5-0.1c-2.9,0-4.5,0.9-6.6,2.1l-0.6,0.3c-0.4,0.2-0.7,0.5-0.9,1l0,0c-1.2,2.4-6.6,13.7-8,18.7l-34.8,12.9
	c-0.6,0.2-1.1,0.7-1.3,1.3c-0.1,0.2-0.2,0.5-0.3,0.7c-0.3,1.1-0.1,2.3,0.6,3.6C317.6,45.5,317.7,45.8,317.9,45.9z"/>
<path id="la_x7C_Body_Color_x7C_bg_3_" fill="#FFFFFF" stroke="#222420" stroke-width="0.306" stroke-miterlimit="10" d="M76,516.8
	c0,0,33.4,5.7,103.7,5.7s103.7-5.7,103.7-5.7s-7.1-30.5-9.9-63.9s-19.2-96.5-22.7-114.3c-3.5-17.7-2.1-49-0.7-64.6s1-33.6,1-33.6
	c8.2-12.1,4.6-33,4.6-33s1.8-7.8-4.3-36.5c-6-28.7-3.9-41.9-3.9-41.9l-23.1-2.8l3.9,2.5c2.8,3.9,7.1,28.7,7.1,28.7
	c-20.6,23.1-55.7,22.7-55.7,22.7s-35.1,0.4-55.7-22.7c0,0,4.3-24.8,7.1-28.7l3.9-2.5l-23.1,2.8c0,0,2.1,13.1-3.9,41.9
	c-6,28.7-4.3,36.5-4.3,36.5s-3.5,20.9,4.6,33c0,0-0.4,18,1,33.6s2.8,46.8-0.7,64.6c-3.5,17.7-19.9,80.9-22.7,114.3"/>
<path fill="#818786" stroke="#222420" stroke-width="0.306" stroke-miterlimit="10" d="M179.7,180.1c36.6,0,55.7-22.7,55.7-22.7
	c-3.3-21-7.1-28.7-7.1-28.7l-3.9-2.5c-11.9-4.7-44.7-3.8-44.7-3.8s-32.8-1-44.7,3.8l-3.9,2.5c0,0-3.8,7.8-7.1,28.7
	C123.9,157.4,143.1,180.1,179.7,180.1z"/>
<path fill="#818786" stroke="#222420" stroke-width="0.306" stroke-miterlimit="10" d="M111.9,129c0,0,2,15.1-2.7,35.8
	c-4.5,19.9-6.6,36.2-5.5,42.6C103.7,207.4,91.7,138,111.9,129z"/>
<path fill="#818786" stroke="#222420" stroke-width="0.306" stroke-miterlimit="10" d="M247.3,129c0,0-2,15.1,2.7,35.8
	c4.5,19.9,6.6,36.2,5.5,42.6C255.4,207.4,267.4,138,247.3,129z"/>
<path fill="#6D7271" stroke="#222420" stroke-width="0.306" stroke-miterlimit="10" d="M134.9,126.2c0,0,8.6-3.8,44.7-3.8
	s44.7,3.8,44.7,3.8l3.9,2.5c0,0-14.1-3.1-48.6-3.1s-48.6,3.1-48.6,3.1L134.9,126.2z"/>
<path fill="#5A5E5D" stroke="#222420" stroke-width="0.306" stroke-miterlimit="10" d="M134.9,126.2l-3.9,2.5c0,0-4.8,14.7-7.1,28.7
	c0,0-4.1,25.6-7,35.1c-2.8,9.5-14.4,18.5-14,25.5l0.5-8.5c0,0,10.2-13.7,11.2-18.5s6.6-28.6,7.1-34.8s4.2-27.6,8.5-29.5L134.9,126.2
	z"/>
<path fill="#5A5E5D" stroke="#222420" stroke-width="0.306" stroke-miterlimit="10" d="M224.8,126.2l3.9,2.5c0,0,4.8,14.7,7.1,28.7
	c0,0,4.1,25.6,7,35.1c2.8,9.5,14.4,18.5,14,25.5l-0.5-8.5c0,0-10.2-13.7-11.2-18.5c-0.9-4.7-6.6-28.6-7.1-34.8s-4.2-27.6-8.5-29.5
	L224.8,126.2z"/>
<path fill="none" stroke="#222420" stroke-width="0.306" stroke-miterlimit="10" d="M117,192.5c0.2,0.6,25.3,34.6,24.4,75.5
	c-1,42.6-12.8,210.8-19.9,253"/>
<path fill="none" stroke="#222420" stroke-width="0.306" stroke-miterlimit="10" d="M242.4,192.5c0,0-24.8,32.9-24.4,75.5
	c0.5,42.6,12.8,210.8,19.9,253"/>
<path fill="none" stroke="#222420" stroke-width="0.306" stroke-miterlimit="10" d="M77.4,510.5c0,0,23.3,5.5,102.3,5.5
	s102.3-5.5,102.3-5.5"/>
<path fill="none" stroke="#222420" stroke-width="0.306" stroke-miterlimit="10" d="M78.1,507.7c0,0,22.6,5.5,101.6,5.5
	s101.6-5.5,101.6-5.5"/>
<path id="la_x7C_Body_Color_x7C_bg_2_" fill="#FFFFFF" stroke="#222420" stroke-width="0.306" stroke-miterlimit="10" d="
	M501.4,452.9c-2.8-33.4-19.2-96.5-22.7-114.3s-2.1-49-0.7-64.6s1-33.6,1-33.6c8.2-12.1,4.6-33,4.6-33s0.2-0.7,0.2-2.6
	c1.9-12.6,9.2-67.5-8.4-75.8c0-0.1,0-0.1,0-0.1l-23.1-2.8c0,0-8.6-3.8-44.7-3.8s-44.7,3.8-44.7,3.8l-23.1,2.8l0,0
	c-19.3,8.6-9.1,72.8-8.2,78.1c0,0.2,0.1,0.3,0.1,0.3s-3.5,20.9,4.6,33c0,0-0.4,18,1,33.6s2.8,46.8-0.7,64.6s-19.9,80.9-22.7,114.3
	s-9.9,63.9-9.9,63.9s33.4,5.7,103.7,5.7s103.7-5.7,103.7-5.7S504.3,486.2,501.4,452.9z"/>
<path fill="none" stroke="#222420" stroke-width="0.306" stroke-miterlimit="10" d="M329.5,190.5c0,0,14.3,36.6,27.6,77
	c23.7,71.9-0.6,211.3-7.7,253.5"/>
<path fill="none" stroke="#222420" stroke-width="0.306" stroke-miterlimit="10" d="M485.3,190.5c0,0-14.3,36.6-27.6,77
	c-23.7,71.9,0.6,211.3,7.7,253.5"/>
<path fill="none" stroke="#222420" stroke-width="0.306" stroke-miterlimit="10" d="M305.4,510.5c0,0,23.3,5.5,102.3,5.5
	s102.3-5.5,102.3-5.5"/>
<path fill="none" stroke="#222420" stroke-width="0.306" stroke-miterlimit="10" d="M306.1,507.7c0,0,22.6,5.5,101.6,5.5
	s101.6-5.5,101.6-5.5"/>
<path fill="#5A5E5D" stroke="#222420" stroke-width="0.306" stroke-miterlimit="10" d="M363,126.2c0,0,11.1-3.8,44.7-3.8
	s44.7,3.8,44.7,3.8s-20.5,0-44.7,0C383.4,126.2,363,126.2,363,126.2z"/>
<path fill="none" stroke="#222420" stroke-width="0.306" stroke-miterlimit="10" d="M357.2,126.9c0,0,5.2,27.5,47.5,27.5
	s51.8-27.5,51.8-27.5"/>
<line fill="none" stroke="#222420" stroke-width="0.306" stroke-miterlimit="10" x1="407.7" y1="154.4" x2="407.7" y2="522.4"/>
<g>
	<g id="la_x7C_Cap_Accent_x7C_cap_2_">
		<path id="_x3C_Path_x3E_" fill="#D1D4D4" stroke="#222420" stroke-width="0.306" stroke-miterlimit="10" d="M177.5,54.7
			c18-0.2,33.8,7.9,37.6,10.2c3.8,2.3,4.4,0,4.9-2.2s-1.6-11.5-2.3-13.9c-0.8-2.4-1.8-4-1.8-4c-0.5,0.3-1.9,0-1.9,0
			c-14.6-4.5-36.4-4.9-36.4-4.9s-21.8,0.4-36.4,4.9c0,0-1.3,0.3-1.9,0c0,0-1,1.6-1.8,4s-2.8,11.7-2.3,13.9c0.5,2.2,1.1,4.6,4.9,2.2
			C143.7,62.6,159.5,54.5,177.5,54.7z"/>
		<path fill="#FFFFFF" stroke="#222420" stroke-width="0.306" stroke-miterlimit="10" d="M177.5,56.9c17.2-0.6,33.1,7.9,34.8,8.9
			s3.1,1.5,4.1,1.2s1.8-1.2,1.8-1.2s-2.1,0.2-6.7-2.8c-4.6-3-21.5-8.5-34-8.3c-12.5-0.2-29.4,5.3-34,8.3c-4.6,3-6.7,2.8-6.7,2.8
			s0.8,1,1.8,1.2c1,0.3,2.5-0.1,4.1-1.2C144.4,64.8,160.4,56.3,177.5,56.9z"/>
	</g>
	<g>
		<path fill="none" stroke="#222420" stroke-width="0.306" stroke-miterlimit="10" d="M202.2,42.1l-0.6,2.7c0,0,0.2,2.2-3.9,1.4
			c-4.1-0.8-14.7-2.9-20.2-2.8c-5.5-0.1-16.2,2-20.2,2.8c-4.1,0.8-3.9-1.4-3.9-1.4l-0.6-2.7"/>
		<path fill="none" stroke="#222420" stroke-width="0.306" stroke-miterlimit="10" d="M204.6,42.6c0,0,0.4,3.9,0,4.7
			c-0.4,0.9-1,1.8-3.9,1.1s-19.2-3.6-23.2-3.5c-3.9-0.2-20.2,2.8-23.2,3.5c-2.9,0.7-3.5-0.2-3.9-1.1c-0.4-0.9,0-4.7,0-4.7"/>
		<path fill="none" stroke="#222420" stroke-width="0.306" stroke-miterlimit="10" d="M207.1,43.1c0,0,0.4,4.4,0,5.5s-1.9,2.9-4.9,2
			s-19.6-4.3-24.7-4.1c-5.1-0.2-21.7,3.2-24.7,4.1c-3,0.9-4.5-0.9-4.9-2s0-5.5,0-5.5"/>
		<path fill="none" stroke="#222420" stroke-width="0.306" stroke-miterlimit="10" d="M209,43.5c0,0,0.9,5.2,0,7.9s-5.1,0.7-8.3,0
			s-19.4-3.4-23.3-3.3c-3.8-0.2-20.1,2.6-23.3,3.3s-7.4,2.7-8.3,0c-0.9-2.7,0-7.9,0-7.9"/>
		<path fill="none" stroke="#222420" stroke-width="0.306" stroke-miterlimit="10" d="M211.1,44.3c0,0,0.9,6.9,0.7,8.6
			s-1.6,3.5-7,1.4c-5.4-2-23.1-4.7-27.3-4.5c-4.2-0.2-21.9,2.5-27.3,4.5c-5.4,2-6.8,0.3-7-1.4s0.7-8.6,0.7-8.6"/>
		<path fill="none" stroke="#222420" stroke-width="0.306" stroke-miterlimit="10" d="M215.4,44.9c0,0,6,14.5,3.3,18.8
			c0,0-0.3,2.1-3.3,0.8c-3-1.4-17.7-10.5-37.9-10.4c-20.2-0.1-34.8,9-37.9,10.4c-3,1.4-3.3-0.8-3.3-0.8c-2.7-4.4,3.3-18.8,3.3-18.8"
			/>
	</g>
	<g id="la_x7C_Cap_Band_x7C_band">
		<path id="_x3C_Path_x3E__1_" fill="#FFFFFF" stroke="#222420" stroke-width="0.306" stroke-miterlimit="10" d="M138.7,27.8
			c0,0,1.1,15.1,2.4,16.9c0,0,15.2-4.7,36.4-4.9s36.4,4.9,36.4,4.9s2.4-11.9,2.4-16.9c0,0-12.9-18.3-38.9-18.3
			S138.7,27.8,138.7,27.8z"/>
		<path fill="#FFFFFF" stroke="#222420" stroke-width="0.306" stroke-miterlimit="10" d="M138.7,27.8c0,0-0.6,0.1-1.1,0
			c0,0-1.4,11.9-0.6,13.6c0.8,1.7,1.3,3.8,4.1,3.4C141.1,44.8,138.8,35.9,138.7,27.8z"/>
		<path fill="#FFFFFF" stroke="#222420" stroke-width="0.306" stroke-miterlimit="10" d="M216.1,27.8c0,0,0.6,0.1,1.1,0
			c0,0,1.4,11.9,0.6,13.6c-0.8,1.7-1.3,3.8-4.1,3.4C213.7,44.8,216,35.9,216.1,27.8z"/>
	</g>
	<path fill="none" stroke="#222420" stroke-width="0.306" stroke-miterlimit="10" d="M217.2,43.1c0,0-2.1,0.6-6.1-0.5
		s-14.7-4.5-33.6-4.3c-18.9-0.2-29.7,3.2-33.6,4.3c-4,1.1-6.1,0.5-6.1,0.5"/>
	<path fill="none" stroke="#222420" stroke-width="0.306" stroke-miterlimit="10" d="M137.5,29.4h1.2c0,0,12.5-18,38.8-18
		S216.1,29,216.1,29h1.2"/>
</g>
<g>
	<path id="la_x7C_Cap_Band_x7C_band_1_" fill="#FFFFFF" stroke="#222420" stroke-width="0.306" stroke-miterlimit="10" d="
		M363.2,9.1c0,0-7.6,15.8-8.1,19.4c0,0,15.7,5.5,20.2,7.4c4.4,1.9,15.3,5.6,17.7,5.7c0,0,2.9,2.2,12,3.4c9.2,1.2,22.1,2.4,25.9,3.2
		s12.7,3,14.4,3.6s3.9,1.7,4.7-1.7c0.8-3.5,2.3-9.3,2.3-9.3S401,28,399.1,21c0,0-14.7-12.7-28.7-14C367,6.8,365.7,7.7,363.2,9.1z"/>
	<path fill="none" stroke="#222420" stroke-width="0.306" stroke-miterlimit="10" d="M355.5,27.2c0,0,11.6,2.4,17.4,5.6
		c5.8,3.1,27.3,9.9,36.3,10.8"/>
	<g id="la_x7C_Cap_Accent_x7C_cap">
		<path id="_x3C_Path_x3E__2_" fill="#D1D4D4" stroke="#222420" stroke-width="0.306" stroke-miterlimit="10" d="M355,28.6
			l-35.5,13.1c0,0,3.5,0.6,9.4,5.4s17.8,13.3,34.6,11c16.8-2.3,41.4-13,41.4-13s-11.2-1.5-12-3.4c0,0-12.3-3.1-17.7-5.7
			C369.7,33.3,359.7,29.6,355,28.6z"/>
		<path fill="#FFFFFF" stroke="#222420" stroke-width="0.306" stroke-miterlimit="10" d="M319.6,44.6c0,0-1.7-2.3,0-3
			c1.7-0.6,11.6,7,16.6,10.5s14,6.6,26.1,6.1c0,0-15,2.6-26.6-5.2s-14.2-10.7-16.1-10.2C318.7,43.1,319.6,44.6,319.6,44.6z"/>
	</g>
	<path fill="#818786" stroke="#222420" stroke-width="0.306" stroke-miterlimit="10" d="M330.1,49.2c0,0-7.9,0-10.5-4.6
		c0,0-1.3-1.6,0.5-1.8C321.8,42.6,329.5,48.8,330.1,49.2z"/>
	<path fill="none" stroke="#222420" stroke-width="0.306" stroke-miterlimit="10" d="M334.4,36.2c0,0,2.8-0.3,5.1,1.5
		c2.3,1.8,9.9,6.8,17.5,5.8s23.6-5.2,23.6-5.2"/>
	<path fill="none" stroke="#222420" stroke-width="0.306" stroke-miterlimit="10" d="M332.5,36.9c0,0,3.3,0,5.9,2
		c1.4,1.1,9.8,8.8,19.9,7.1s25.2-6.6,25.2-6.6"/>
	<path fill="none" stroke="#222420" stroke-width="0.306" stroke-miterlimit="10" d="M330.1,37.8c0,0,2.2,0.4,4.7,2.1
		c2.5,1.8,11.6,6.4,14.1,7.5s8.9,1.2,14.5,0s24.1-7.1,24.1-7.1"/>
	<path fill="none" stroke="#222420" stroke-width="0.306" stroke-miterlimit="10" d="M392.9,41.7c0,0-14.2,4.1-22.5,7.2
		s-19.7,1.8-22.9,0.7c-3.2-1.1-13-7.2-14.8-8.7c-1.8-1.4-5.1-2.2-5.1-2.2"/>
	<line fill="none" stroke="#222420" stroke-width="0.306" stroke-miterlimit="10" x1="399.1" y1="21.1" x2="392.9" y2="41.7"/>
	<line fill="none" stroke="#222420" stroke-width="0.306" stroke-miterlimit="10" x1="396.6" y1="19.1" x2="391.3" y2="39.4"/>
	<line fill="none" stroke="#222420" stroke-width="0.306" stroke-miterlimit="10" x1="400.9" y1="23.2" x2="395.7" y2="40.9"/>
</g>
</svg>
