<?xml version="1.0" encoding="utf-8"?>
<!-- Generator: Adobe Illustrator 19.2.1, SVG Export Plug-In . SVG Version: 6.00 Build 0)  -->
<svg version="1.1" id="Layer_1" xmlns="http://www.w3.org/2000/svg" xmlns:xlink="http://www.w3.org/1999/xlink" x="0px" y="0px"
	 width="590px" height="530px" viewBox="0 0 590 530" enable-background="new 0 0 590 530" xml:space="preserve">
<path fill="#222420" d="M278.4,68.8c-3.8-8.4-7.8-14.8-9.3-16.9c-0.1-0.5-0.5-1-1-1.3c-0.2-0.2-0.5-0.4-0.8-0.4
	c-6.3-3.3-31-14.9-37.5-17.2c-4.4-1.5-16.2-9.4-25-15.7c-0.1-0.1-0.3-0.3-0.4-0.4l-8.6-7.3c-0.4-0.3-0.9-0.5-1.4-0.5
	c-0.2,0-0.4,0-0.6,0.1C189.2,7.9,176.5,5,155.1,5c-21.3,0-34.1,2.9-38.6,4.2c-0.2-0.1-0.4-0.1-0.6-0.1c-0.5,0-1,0.2-1.4,0.5
	l-8.5,7.3c-0.2,0.1-0.3,0.2-0.4,0.4C96.8,23.6,85,31.5,80.6,33C74,35.3,49.7,46.8,43.2,50.1c-0.5,0.1-1,0.4-1.3,0.8
	c-0.2,0.2-0.4,0.5-0.5,0.7c-1.1,1.7-5.5,8.3-9.5,17.2c-2.2,5-4,10-5.3,14.8c-2.4,8.7-3.1,16.3-2,22.9v11.4c0,0.8,0.4,1.5,1.2,1.9
	l43.3,22.1l0.6,3.1c1.7,9.3,4.3,23.7,6,32.8c1.1,6.2,0.3,24.8-2.3,48.7c-2.4,22.7-5.8,45.5-8.6,58c0,0.1,0,0.2,0,0.3l-0.3,3.6
	c-0.2,0.5-0.3,1-0.1,1.5l-0.5,5.3l-0.1,0.1c-0.7,0.7-0.8,1.9-0.2,2.7l0.4,0.5c0.1,0.2,0.2,0.3,0.4,0.5c1.1,1.4,7,8.3,20.1,15.2
	c8.3,4.4,17.8,7.8,28.3,10.3c13,3.1,27.6,4.7,43.4,4.7c15.7,0,30.3-1.6,43.2-4.7c10.4-2.5,19.8-6,28-10.3
	c12.8-6.9,18.5-13.8,19.6-15.2c0.1-0.1,0.3-0.3,0.4-0.5l0.3-0.5c0.6-0.8,0.5-2-0.2-2.7c0,0,0,0-0.1,0l-0.5-5.4
	c0.1-0.5,0.1-1.1-0.1-1.6l-0.3-3.7c0-0.1,0-0.2,0-0.3c-2.8-12.5-6.2-35.2-8.6-57.9c-2.5-23.8-3.4-42.5-2.3-48.7
	c1.8-9.9,4.7-26,6.4-35l0.2-0.9l43.1-22c0.7-0.4,1.2-1.1,1.2-1.9v-11.4c1.1-6.5,0.4-14.2-2-22.8C282.4,78.8,280.6,73.8,278.4,68.8z"
	/>
<path fill="#222420" d="M558.3,68.8c-3.8-8.4-7.8-14.8-9.3-16.9c-0.1-0.5-0.5-1-1-1.3c-0.2-0.2-0.5-0.4-0.9-0.4
	c-6.3-3.3-31-14.9-37.5-17.2c-4.8-1.7-17.9-10.6-25-15.7c-0.1-0.1-0.3-0.3-0.4-0.4l-7.9-6.7c-0.1-0.1-0.2-0.2-0.3-0.2l0,0
	c-0.1-0.1-0.2-0.1-0.3-0.2c-0.1,0-13.4-4.8-40.6-4.8s-40.5,4.7-40.6,4.8c-0.2,0.1-0.5,0.2-0.6,0.4l-7.9,6.7
	c-0.2,0.1-0.3,0.2-0.4,0.4c-7.1,5.1-20.3,14.1-25,15.7c-6.6,2.3-30.9,13.8-37.4,17.1c-0.5,0.1-1,0.4-1.3,0.8
	c-0.2,0.2-0.4,0.5-0.5,0.7c-1.1,1.7-5.5,8.3-9.5,17.2c-2.2,5-4,10-5.3,14.8c-2.4,8.7-3.1,16.3-2,22.9v11.4c0,0.8,0.4,1.5,1.2,1.9
	l43.3,22.1c1.6,8.8,4.7,25.7,6.6,35.9c1.1,6.2,0.3,24.8-2.3,48.7c-2.4,22.7-5.8,45.5-8.6,58c0,0.1,0,0.2,0,0.3l-0.3,3.5
	c-0.1,0.2-0.2,0.4-0.2,0.6c-0.1,0.4,0,0.7,0.1,1l-0.7,7.3c-0.1,0.5,0.1,1,0.4,1.5l0,0c0.1,0.1,5.9,7.9,20.2,15.4
	c8.3,4.4,17.8,7.8,28.3,10.3c13,3.1,27.6,4.7,43.4,4.7c15.7,0,30.3-1.6,43.2-4.7c10.4-2.5,19.8-6,28-10.3
	c14.1-7.5,19.7-15.3,19.7-15.4l0,0c0.3-0.4,0.4-0.9,0.4-1.4l-0.7-7.3c0.2-0.6,0.1-1.2-0.2-1.7l-0.3-3.6c0-0.1,0-0.2,0-0.3
	c-2.8-12.5-6.2-35.2-8.6-57.9c-2.5-23.8-3.4-42.5-2.3-48.7c1.9-10.3,5-27.2,6.6-36l43.1-22c0.7-0.4,1.2-1.1,1.2-1.9v-11.4
	c1.1-6.5,0.4-14.2-2-22.8C562.3,78.8,560.5,73.8,558.3,68.8z"/>
<linearGradient id="SVGID_1_" gradientUnits="userSpaceOnUse" x1="106.6911" y1="498.3" x2="203.1962" y2="498.3" gradientTransform="matrix(1 0 0 -1 0 530)">
	<stop  offset="0" style="stop-color:#222420"/>
	<stop  offset="1" style="stop-color:#818786"/>
</linearGradient>
<path fill="url(#SVGID_1_)" stroke="#222420" stroke-width="0.2998" stroke-miterlimit="10" d="M107.1,18.7c0,0,11.3-3.8,48.1-3.8
	s47.6,3.8,47.6,3.8s8,29.8-47.9,29.8S107.1,18.7,107.1,18.7z"/>
<path id="la_x7C_Collar_x7C_colar" fill="#D1D4D4" stroke="#222420" stroke-width="0.2998" stroke-miterlimit="10" d="M202.8,18.7
	l-8-6.8c0,0-12.7-4.6-39.8-4.6s-39.8,4.6-39.8,4.6l-8,6.8c0,0,21.9-3.8,48.1-3.8S202.8,18.7,202.8,18.7z"/>
<path fill="#222420" d="M240.6,408.5c-5-19.9-9.7-33.1-9.8-33.3v-0.1c0,0,0-0.1-0.1-0.1l-2.8-15.6c0-0.5-0.1-1.3-0.9-2.2
	c-5.5-5.6-42.3-6.8-72.2-6.8s-66.8,1.2-72.3,6.8c-0.9,0.9-1,1.8-1,2.2l-2.8,16c-0.5,1.5-4,11.4-7.8,26c-0.3,1.1-0.6,2.3-0.9,3.5
	c-0.2,0.6-0.3,1.2-0.5,1.8c-0.2,0.6-0.3,1.2-0.5,1.8c-4.6,18.2-10.2,45.7-11.3,73.2v0.1v32.1c0,1,0.6,1.9,1.6,2.2h0.1
	c0.1,0,5.6,1.9,14.6,3.9h0.1c0.1,0,0.2,0,0.3,0c10.6,2.3,27,5.1,45.1,5.1c11.9,0,23.2-1.2,33.6-3.4h0.1c0.7-0.1,1.2-0.6,1.5-1.2
	c0.3,0.6,0.9,1,1.5,1.2h0.1c10.4,2.3,21.7,3.4,33.6,3.4c18.1,0,34.4-2.7,45.1-5c0.1,0,0.2,0,0.4-0.1h0.1c9-2,14.6-3.8,14.6-3.9h0.1
	c0.9-0.3,1.6-1.2,1.6-2.2v-32.1v-0.1C250.9,454.1,245.2,426.7,240.6,408.5z"/>
<path fill="#222420" d="M523.6,408.5c-5-19.9-9.7-33.1-9.8-33.3v-0.1c0-0.1,0-0.1-0.1-0.2l-2.8-16c-0.1-0.4-0.2-0.9-0.6-1.4
	c-0.3-0.7-0.9-1.3-1.7-1.5c-0.3-0.3-0.8-0.5-1.2-0.5c-0.4-0.3-0.8-0.4-1.3-0.4c-0.1,0-0.2-0.1-0.4-0.1c-0.3-0.2-0.7-0.3-1.1-0.3
	c-0.2-0.1-0.5-0.1-0.7-0.2c-0.3-0.1-0.5-0.2-0.8-0.2c-0.2,0-0.4-0.1-0.6-0.1c-0.4-0.3-0.9-0.5-1.4-0.5H501h-0.3c-0.1,0-0.2,0-0.3,0
	c0,0,0,0-0.1,0c-4.1-0.8-9.4-1.4-15.8-1.9c-0.1,0-0.1,0-0.2,0c-4.9-0.4-10.5-0.7-16.7-0.9c-0.2-0.1-0.4-0.1-0.7-0.1h-0.3
	c-0.1,0-0.3,0-0.4,0c-8.3-0.3-17.9-0.4-28.3-0.4c-10.3,0-19.7,0.1-28,0.4c-0.1,0-0.2,0-0.4,0h-0.3c-0.2,0-0.4,0-0.6,0.1
	c-14.6,0.5-25.7,1.5-33.1,2.8h-0.4H375c-0.5,0-0.9,0.1-1.2,0.4c-5.6,1.2-7.3,2.4-8.1,3.2c-0.6,0.6-0.9,1.3-0.9,1.8l-2.9,16.4
	c-0.4,1.2-2.8,8.2-5.9,18.8l0,0c-0.2,0.6-0.3,1.2-0.5,1.7c-0.2,0.6-0.3,1.2-0.5,1.8l-0.2,0.6c-0.6,2.3-1.3,4.7-1.9,7
	c-0.1,0.3-0.2,0.6-0.2,0.9c-0.2,0.7-0.4,1.4-0.5,2.1c-4.6,18.2-10.2,45.7-11.3,73.2v0.1v32.1c0,1,0.6,1.9,1.6,2.2h0.1
	c0.1,0,5.6,1.9,14.6,3.9h0.1c0.1,0,0.2,0,0.3,0c10.6,2.3,27,5.1,45.1,5.1c11.9,0,23.2-1.2,33.6-3.4h0.1c0.7-0.1,1.2-0.6,1.5-1.2
	c0.3,0.6,0.9,1,1.5,1.2h0.1c10.4,2.3,21.7,3.4,33.6,3.4c18.1,0,34.4-2.7,45.1-5c0.1,0,0.2,0,0.4-0.1h0.1c9-2,14.6-3.8,14.6-3.9h0.1
	c0.9-0.3,1.6-1.2,1.6-2.2v-32.1v-0.1C533.9,454.1,528.2,426.7,523.6,408.5z"/>
<g>
	
		<linearGradient id="SVGID_2_" gradientUnits="userSpaceOnUse" x1="154.7" y1="159.2" x2="154.7" y2="177.1311" gradientTransform="matrix(1 0 0 -1 0 530)">
		<stop  offset="0" style="stop-color:#222420"/>
		<stop  offset="1" style="stop-color:#818786"/>
	</linearGradient>
	<path fill="url(#SVGID_2_)" stroke="#222420" stroke-width="0.2998" stroke-miterlimit="10" d="M84,359.4c0,0,22.6,11.4,70.7,11.4
		s70.7-11.4,70.7-11.4s0.2-6.5-70.7-6.5S84,359.4,84,359.4z"/>
	<g id="la_x7C_Bottom_Color_x7C_bottom_1_">
		<path fill="#FFFFFF" stroke="#222420" stroke-width="0.2998" stroke-miterlimit="10" d="M154.8,384.9c42.2,0,73.7-8.8,73.7-8.8
			l-3-16.7c-35.3,11.8-70.7,9.5-70.7,9.5s-35.4,2.3-70.7-9.5l-3,16.7C81.1,376,112.6,384.9,154.8,384.9z"/>
		<path fill="#FFFFFF" stroke="#222420" stroke-width="0.2998" stroke-miterlimit="10" d="M154.8,384.9c0,0,36.4-0.1,73.7-8.8
			c0,0,18.8,52.9,20.9,105.7v32c0,0-46.6,15.5-92.5,5.5c0,0,0.6-23.9-2.2-23.9s-2.2,23.9-2.2,23.9c-45.9,10-92.5-5.5-92.5-5.5v-32
			C62.2,428.9,81.1,376,81.1,376C118.4,384.7,154.8,384.9,154.8,384.9z"/>
	</g>
	<line fill="none" stroke="#222420" stroke-width="0.2998" stroke-miterlimit="10" x1="154.8" y1="384.9" x2="154.8" y2="494.9"/>
	<path fill="none" stroke="#0D0F0F" stroke-width="0.2317" stroke-miterlimit="10" d="M60.2,507.9c0,0,36.5,13.6,92.3,6.2"/>
	<path fill="none" stroke="#0D0F0F" stroke-width="0.2317" stroke-miterlimit="10" d="M60.2,505.4c0,0,36.5,13.6,92.3,6.2"/>
	<path fill="none" stroke="#0D0F0F" stroke-width="0.2317" stroke-miterlimit="10" d="M249.4,507.9c0,0-36.5,13.6-92.3,6.2"/>
	<path fill="none" stroke="#0D0F0F" stroke-width="0.2317" stroke-miterlimit="10" d="M249.4,505.4c0,0-36.5,13.6-92.3,6.2"/>
	<path fill="none" stroke="#222420" stroke-width="0.2998" stroke-miterlimit="10" d="M84,360.4c0,0,21.1,9.7,70.7,9.7
		s71-9.3,71-9.3"/>
	<path fill="none" stroke="#222420" stroke-width="0.2998" stroke-miterlimit="10" d="M81.3,374.9c0,0,36.2,8.7,73.5,8.7
		s73.5-8.7,73.5-8.7"/>
	<path fill="none" stroke="#222420" stroke-width="0.2998" stroke-miterlimit="10" d="M83.2,364.1c0,0,22.7,10.1,71.7,10.1
		s71.4-10.1,71.4-10.1"/>
	<path fill="none" stroke="#222420" stroke-width="0.2998" stroke-miterlimit="10" d="M82.2,369.7c0,0,23.7,9.6,72.7,9.6
		s72.4-9.5,72.4-9.5"/>
	<g>
		<line fill="none" stroke="#222420" stroke-width="0.2998" stroke-miterlimit="10" x1="152.5" y1="368.9" x2="152.6" y2="384.8"/>
		<line fill="none" stroke="#222420" stroke-width="0.2998" stroke-miterlimit="10" x1="148.2" y1="369.1" x2="148.1" y2="384.7"/>
		<line fill="none" stroke="#222420" stroke-width="0.2998" stroke-miterlimit="10" x1="143.4" y1="369.1" x2="143.6" y2="384.6"/>
		<line fill="none" stroke="#222420" stroke-width="0.2998" stroke-miterlimit="10" x1="138.8" y1="369.1" x2="138.5" y2="384.2"/>
		<line fill="none" stroke="#222420" stroke-width="0.2998" stroke-miterlimit="10" x1="134.5" y1="368.6" x2="134.2" y2="383.9"/>
		<line fill="none" stroke="#222420" stroke-width="0.2998" stroke-miterlimit="10" x1="130.3" y1="368.2" x2="130" y2="383.5"/>
		<line fill="none" stroke="#222420" stroke-width="0.2998" stroke-miterlimit="10" x1="126.2" y1="368.1" x2="125" y2="383.1"/>
		<line fill="none" stroke="#222420" stroke-width="0.2998" stroke-miterlimit="10" x1="122.3" y1="367.6" x2="121" y2="382.7"/>
		<line fill="none" stroke="#222420" stroke-width="0.2998" stroke-miterlimit="10" x1="119" y1="367.2" x2="117.9" y2="382.3"/>
		<line fill="none" stroke="#222420" stroke-width="0.2998" stroke-miterlimit="10" x1="116.9" y1="366.9" x2="115.2" y2="382"/>
		<line fill="none" stroke="#222420" stroke-width="0.2998" stroke-miterlimit="10" x1="114.7" y1="366.5" x2="113.1" y2="381.7"/>
		<line fill="none" stroke="#222420" stroke-width="0.2998" stroke-miterlimit="10" x1="112.5" y1="366.2" x2="111.1" y2="381.5"/>
		<line fill="none" stroke="#222420" stroke-width="0.2998" stroke-miterlimit="10" x1="110.4" y1="365.8" x2="108.8" y2="381.1"/>
		<line fill="none" stroke="#222420" stroke-width="0.2998" stroke-miterlimit="10" x1="108.3" y1="365.5" x2="106.6" y2="380.8"/>
		<line fill="none" stroke="#222420" stroke-width="0.2998" stroke-miterlimit="10" x1="106.1" y1="365.2" x2="104.3" y2="380.5"/>
		<line fill="none" stroke="#222420" stroke-width="0.2998" stroke-miterlimit="10" x1="103.5" y1="364.7" x2="101.5" y2="380"/>
		<line fill="none" stroke="#222420" stroke-width="0.2998" stroke-miterlimit="10" x1="101.7" y1="364.4" x2="99.9" y2="379.8"/>
		<line fill="none" stroke="#222420" stroke-width="0.2998" stroke-miterlimit="10" x1="100.3" y1="363.9" x2="98.2" y2="379.2"/>
		<line fill="none" stroke="#222420" stroke-width="0.2998" stroke-miterlimit="10" x1="98.9" y1="363.5" x2="96.4" y2="379.2"/>
		<line fill="none" stroke="#222420" stroke-width="0.2998" stroke-miterlimit="10" x1="97.1" y1="363.1" x2="94.5" y2="378.8"/>
		<line fill="none" stroke="#222420" stroke-width="0.2998" stroke-miterlimit="10" x1="95.8" y1="362.8" x2="93" y2="378.5"/>
		<line fill="none" stroke="#222420" stroke-width="0.2998" stroke-miterlimit="10" x1="93.8" y1="362.4" x2="91.4" y2="378.2"/>
		<line fill="none" stroke="#222420" stroke-width="0.2998" stroke-miterlimit="10" x1="92.1" y1="361.8" x2="89.7" y2="377.8"/>
		<line fill="none" stroke="#222420" stroke-width="0.2998" stroke-miterlimit="10" x1="90.5" y1="361.4" x2="88" y2="377.4"/>
		<line fill="none" stroke="#222420" stroke-width="0.2998" stroke-miterlimit="10" x1="89.2" y1="361" x2="86.2" y2="377.2"/>
		<line fill="none" stroke="#222420" stroke-width="0.2998" stroke-miterlimit="10" x1="87.7" y1="360.4" x2="84.8" y2="376.7"/>
		<line fill="none" stroke="#222420" stroke-width="0.2998" stroke-miterlimit="10" x1="86.4" y1="360.2" x2="83.2" y2="376.6"/>
		<line fill="none" stroke="#222420" stroke-width="0.2998" stroke-miterlimit="10" x1="85.2" y1="359.9" x2="82" y2="376.3"/>
	</g>
	<g>
		<line fill="none" stroke="#222420" stroke-width="0.2998" stroke-miterlimit="10" x1="157.1" y1="368.9" x2="157.1" y2="384.8"/>
		<line fill="none" stroke="#222420" stroke-width="0.2998" stroke-miterlimit="10" x1="161.5" y1="369.1" x2="161.6" y2="384.7"/>
		<line fill="none" stroke="#222420" stroke-width="0.2998" stroke-miterlimit="10" x1="166.3" y1="369.1" x2="166.1" y2="384.6"/>
		<line fill="none" stroke="#222420" stroke-width="0.2998" stroke-miterlimit="10" x1="170.9" y1="369.1" x2="171.1" y2="384.2"/>
		<line fill="none" stroke="#222420" stroke-width="0.2998" stroke-miterlimit="10" x1="175.1" y1="368.6" x2="175.5" y2="383.9"/>
		<line fill="none" stroke="#222420" stroke-width="0.2998" stroke-miterlimit="10" x1="179.4" y1="368.2" x2="179.7" y2="383.5"/>
		<line fill="none" stroke="#222420" stroke-width="0.2998" stroke-miterlimit="10" x1="183.5" y1="368.1" x2="184.7" y2="383.1"/>
		<line fill="none" stroke="#222420" stroke-width="0.2998" stroke-miterlimit="10" x1="187.3" y1="367.6" x2="188.7" y2="382.7"/>
		<line fill="none" stroke="#222420" stroke-width="0.2998" stroke-miterlimit="10" x1="190.7" y1="367.2" x2="191.8" y2="382.3"/>
		<line fill="none" stroke="#222420" stroke-width="0.2998" stroke-miterlimit="10" x1="192.8" y1="366.9" x2="194.5" y2="382"/>
		<line fill="none" stroke="#222420" stroke-width="0.2998" stroke-miterlimit="10" x1="195" y1="366.5" x2="196.6" y2="381.7"/>
		<line fill="none" stroke="#222420" stroke-width="0.2998" stroke-miterlimit="10" x1="197.2" y1="366.2" x2="198.5" y2="381.5"/>
		<line fill="none" stroke="#222420" stroke-width="0.2998" stroke-miterlimit="10" x1="199.3" y1="365.8" x2="200.9" y2="381.1"/>
		<line fill="none" stroke="#222420" stroke-width="0.2998" stroke-miterlimit="10" x1="201.4" y1="365.5" x2="203.1" y2="380.8"/>
		<line fill="none" stroke="#222420" stroke-width="0.2998" stroke-miterlimit="10" x1="203.6" y1="365.2" x2="205.4" y2="380.5"/>
		<line fill="none" stroke="#222420" stroke-width="0.2998" stroke-miterlimit="10" x1="206.2" y1="364.7" x2="208.2" y2="380"/>
		<line fill="none" stroke="#222420" stroke-width="0.2998" stroke-miterlimit="10" x1="208" y1="364.4" x2="209.8" y2="379.8"/>
		<line fill="none" stroke="#222420" stroke-width="0.2998" stroke-miterlimit="10" x1="209.4" y1="363.9" x2="211.5" y2="379.2"/>
		<line fill="none" stroke="#222420" stroke-width="0.2998" stroke-miterlimit="10" x1="210.8" y1="363.5" x2="213.3" y2="379.2"/>
		<line fill="none" stroke="#222420" stroke-width="0.2998" stroke-miterlimit="10" x1="212.6" y1="363.1" x2="215.2" y2="378.8"/>
		<line fill="none" stroke="#222420" stroke-width="0.2998" stroke-miterlimit="10" x1="213.9" y1="362.8" x2="216.7" y2="378.5"/>
		<line fill="none" stroke="#222420" stroke-width="0.2998" stroke-miterlimit="10" x1="215.9" y1="362.4" x2="218.3" y2="378.2"/>
		<line fill="none" stroke="#222420" stroke-width="0.2998" stroke-miterlimit="10" x1="217.5" y1="361.8" x2="219.9" y2="377.8"/>
		<line fill="none" stroke="#222420" stroke-width="0.2998" stroke-miterlimit="10" x1="219.2" y1="361.4" x2="221.7" y2="377.4"/>
		<line fill="none" stroke="#222420" stroke-width="0.2998" stroke-miterlimit="10" x1="220.5" y1="361" x2="223.5" y2="377.2"/>
		<line fill="none" stroke="#222420" stroke-width="0.2998" stroke-miterlimit="10" x1="222" y1="360.4" x2="224.9" y2="376.7"/>
		<line fill="none" stroke="#222420" stroke-width="0.2998" stroke-miterlimit="10" x1="223.3" y1="360.2" x2="226.5" y2="376.6"/>
		<line fill="none" stroke="#222420" stroke-width="0.2998" stroke-miterlimit="10" x1="224.4" y1="359.9" x2="227.7" y2="376.3"/>
	</g>
	<g id="folds" opacity="0.1">
		<path d="M86.5,420c2-3.7,2.5-8,3.1-12.1c0.9-5.9,2.4-11.7,4.3-17.3c0.9-2.7,2-5.6,1.4-8.4c-3.2,8.1-5.9,16.3-8,24.8
			C86.2,411.2,85.3,415.7,86.5,420z"/>
		<path d="M102.8,443.9c-3.3-19.8-2.2-40.4,3.2-59.8c-2.4,2.8-3.4,6.5-4.2,10.1c-2,8.2-3.7,16.6-3.9,25
			C97.6,427.7,99,436.3,102.8,443.9z"/>
		<path d="M121.5,406.2c-1.4-7-5.2-13.4-10.6-18c7.1,23,6.9,48.2-0.5,71.1c-0.7,2.3-1.5,4.6-1.4,6.9c2.7-2.7,4.4-6.3,5.8-9.8
			c5.2-13.2,7.7-27.3,7.4-41.5C122.2,412,122.1,409.1,121.5,406.2z"/>
		<path d="M128.8,406c-0.2-1.7-0.4-3.5-0.6-5.2c-0.4-3.8-0.8-7.5-1.2-11.3c0-0.3-0.1-0.7-0.3-1c-0.2-0.3-0.7-0.4-0.9-0.1
			c-0.3,7.6-0.5,15.2,1,22.6c0.4,2.2,1,4.4,2.4,6.1C129.6,413.4,129.2,409.6,128.8,406z"/>
		<path d="M134.6,418.8c-0.1,2.1-0.1,4.4,1.1,6.1c2.2-10.8,2.1-22.1-0.2-32.9c-0.2-0.8-0.4-1.6-0.8-2.2c-0.5-0.6-1.3-1-2.1-0.8
			C134.2,398.8,134.9,408.8,134.6,418.8z"/>
		<path d="M145.9,427.5c0.9-12.9,2.4-25.8,4.5-38.6C145,400.8,145.2,414.5,145.9,427.5z"/>
		<path d="M145.5,485.6c-5.3,6.2-10.7,12.4-15.7,18.8c-1.4,1.8-2.8,3.6-3.5,5.8c12.1-6.6,21.5-18,25.7-31.1
			C149.6,480.8,147.5,483.2,145.5,485.6z"/>
		<path d="M151.7,486.6c-3,4.4-5.2,9.3-6.4,14.4c2.1-2.7,3.9-5.6,5.2-8.7C151.4,490.6,152.1,488.6,151.7,486.6z"/>
		<path d="M169.3,510c-0.5-2.5-2.5-4.4-3.9-6.6c-2.6-3.9-3.4-8.8-6.4-12.4c-0.6-0.7-1.5-1.5-2.4-1.4c2.3,6.3,5.2,12.4,9.2,17.8
			C166.6,508.6,167.7,509.9,169.3,510z"/>
		<path d="M167.4,493.7c3.8,4.5,8.9,7.6,13.9,10.7c-0.7-2.5-2.9-4.2-4.7-6c-6.6-6.3-11.4-14.7-19.3-19.3
			C161.1,483.7,163.6,489.2,167.4,493.7z"/>
		<path d="M163.6,405.4c-0.8-3.7-1.1-7.6-2.2-11.3c-0.2-0.8-0.8-1.7-1.5-1.5c1.2,10.8,4,21.7,10.1,30.7
			C167.4,417.5,164.9,411.6,163.6,405.4z"/>
		<path d="M173.6,400.1c-0.3-1.6-0.7-3.2-1.7-4.6c-0.8-1.2-2.1-2.1-3.6-2.4c4.8,14.7,7.7,30,8.9,45.5
			C179.6,425.9,176.4,412.8,173.6,400.1z"/>
		<path d="M183.7,388.6c-0.7-0.1-1.4,0.4-1.6,1s-0.3,1.4-0.2,2c0.3,10.6,0.7,21.1,1,31.7c3-6.5,4-13.9,4.2-21.1
			c0.1-4.3,0-8.7-2.1-12.5C184.6,389.2,184.3,388.7,183.7,388.6z"/>
		<path d="M196.6,389.7c-0.9-1-1.9-2-3.1-2.5c7.9,17.6,7.4,37.8,12.3,56.5c2.4-4.5,1.7-10,0.8-15c-1.1-6.8-2.2-13.5-3.3-20.3
			C202.2,401.7,201,394.7,196.6,389.7z"/>
		<path d="M215.2,403.5c-0.7-1.2-1.2-2.4-1.7-3.7c-1.6-3.8-3.1-7.6-4.7-11.4c-0.3-0.8-0.7-1.6-1.3-2.2s-1.6-0.9-2.3-0.5
			c3.3,9.2,6.9,18.8,14.3,25.1C219,408.1,216.7,406,215.2,403.5z"/>
	</g>
</g>
<g id="la_x7C_Bottom_Color_x7C_bottom">
	<path id="_x3C_Path_x3E__1_" fill="#FFFFFF" stroke="#222420" stroke-width="0.2998" stroke-miterlimit="10" d="M508.5,359.4
		c0,0,0.2-6.5-70.7-6.5s-70.7,6.5-70.7,6.5l-3,16.7c0,0,31.5-7.2,73.7-7.2s73.7,7.2,73.7,7.2L508.5,359.4z"/>
	<path id="_x3C_Path_x3E_" fill="#FFFFFF" stroke="#222420" stroke-width="0.2998" stroke-miterlimit="10" d="M437.8,368.9
		c0,0,32.9-0.6,73.7,7.2c0,0,18.8,52.9,20.9,105.7v32c0,0-46.6,15.5-92.5,5.5c0,0,0.6-23.9-2.2-23.9s-2.2,23.9-2.2,23.9
		c-45.9,10-92.5-5.5-92.5-5.5v-32c2.1-52.8,20.9-105.7,20.9-105.7C397.8,368.6,437.8,368.9,437.8,368.9z"/>
</g>
<g>
	<line fill="none" stroke="#222420" stroke-width="0.2998" stroke-miterlimit="10" x1="436.8" y1="368.9" x2="437.8" y2="494.9"/>
	<path fill="none" stroke="#0D0F0F" stroke-width="0.2317" stroke-miterlimit="10" d="M343.2,507.9c0,0,36.5,13.6,92.3,6.2"/>
	<path fill="none" stroke="#0D0F0F" stroke-width="0.2317" stroke-miterlimit="10" d="M343.2,505.4c0,0,36.5,13.6,92.3,6.2"/>
	<path fill="none" stroke="#0D0F0F" stroke-width="0.2317" stroke-miterlimit="10" d="M532.4,507.9c0,0-36.5,13.6-92.3,6.2"/>
	<path fill="none" stroke="#0D0F0F" stroke-width="0.2317" stroke-miterlimit="10" d="M532.4,505.4c0,0-36.5,13.6-92.3,6.2"/>
	<path fill="none" stroke="#222420" stroke-width="0.2998" stroke-miterlimit="10" d="M367,360.4c0,0,20.1-6.3,69.7-6.3
		s72,6.7,72,6.7"/>
	<path fill="none" stroke="#222420" stroke-width="0.2998" stroke-miterlimit="10" d="M364.3,374.9c0,0,35.2-7.3,72.5-7.3
		s74.5,7.3,74.5,7.3"/>
	<path fill="none" stroke="#222420" stroke-width="0.2998" stroke-miterlimit="10" d="M366.2,364.1c0,0,21.7-5.9,70.7-5.9
		s72.4,5.9,72.4,5.9"/>
	<path fill="none" stroke="#222420" stroke-width="0.2998" stroke-miterlimit="10" d="M365.2,369.7c0,0,22.7-6.4,71.7-6.4
		s73.4,6.5,73.4,6.5"/>
	<g id="folds_1_" opacity="0.1">
		<path d="M373.2,412.1c2-3.7,2.5-8,3.1-12.1c0.9-5.9,2.4-11.7,4.3-17.3c0.9-2.7,2-5.6,1.4-8.4c-3.2,8.1-5.9,16.3-8,24.8
			C372.9,403.3,372,407.8,373.2,412.1z"/>
		<path d="M385.8,434c-3.3-19.8-2.2-40.4,3.2-59.8c-2.4,2.8-3.4,6.5-4.2,10.1c-2,8.2-3.7,16.6-3.9,25
			C380.6,417.8,382,426.4,385.8,434z"/>
		<path d="M400.1,390.5c-0.2-1.7-0.4-3.5-0.6-5.2c-0.4-3.8-0.8-7.5-1.2-11.3c0-0.3-0.1-0.7-0.3-1c-0.2-0.3-0.7-0.4-0.9-0.1
			c-0.3,7.6-0.5,15.2,1,22.6c0.4,2.2,1,4.4,2.4,6.1C400.9,397.9,400.5,394.2,400.1,390.5z"/>
		<path d="M412.8,400.8c-0.1,2.1-0.1,4.4,1.1,6.1c2.2-10.8,2.1-22.1-0.2-32.9c-0.2-0.8-0.4-1.6-0.8-2.2c-0.5-0.6-1.3-1-2.1-0.8
			C412.5,380.8,413.1,390.8,412.8,400.8z"/>
		<path d="M426.3,409.8c0.9-12.9,2.4-25.8,4.5-38.6C425.3,383.1,425.5,396.8,426.3,409.8z"/>
		<path d="M434.7,486.6c-3,4.4-5.2,9.3-6.4,14.4c2.1-2.7,3.9-5.6,5.2-8.7C434.4,490.6,435.1,488.6,434.7,486.6z"/>
		<path d="M452.2,510c-0.5-2.5-2.5-4.4-3.9-6.6c-2.6-3.9-3.4-8.8-6.4-12.4c-0.6-0.7-1.5-1.5-2.4-1.4c2.3,6.3,5.2,12.4,9.2,17.8
			C449.6,508.6,450.7,509.9,452.2,510z"/>
		<path d="M444.6,383c-0.8-3.7-1.1-7.6-2.2-11.3c-0.2-0.8-0.8-1.7-1.5-1.5c1.2,10.8,4,21.7,10.1,30.7
			C448.4,395.1,445.9,389.2,444.6,383z"/>
		<path d="M456.1,378.2c-0.3-1.6-0.7-3.2-1.7-4.6c-0.8-1.2-2.1-2.1-3.6-2.4c4.8,14.7,7.7,30,8.9,45.5
			C462.1,403.9,458.9,390.9,456.1,378.2z"/>
		<path d="M466.7,373.2c-0.7-0.1-1.4,0.4-1.6,1c-0.3,0.6-0.3,1.4-0.2,2c0.3,10.6,0.7,21.1,1,31.7c3-6.5,4-13.9,4.2-21.1
			c0.1-4.3,0-8.7-2.1-12.5C467.6,373.9,467.2,373.3,466.7,373.2z"/>
		<path d="M477.3,375.8c-0.9-1-1.9-2-3.1-2.5c7.9,17.6,7.4,37.8,12.3,56.5c2.4-4.5,1.7-10,0.8-15c-1.1-6.8-2.2-13.5-3.3-20.3
			C482.9,387.9,481.7,380.9,477.3,375.8z"/>
		<path d="M498.2,392.4c-0.7-1.2-1.2-2.4-1.7-3.7c-1.6-3.8-3.1-7.6-4.7-11.4c-0.3-0.8-0.7-1.6-1.3-2.2s-1.6-0.9-2.3-0.5
			c3.3,9.2,6.9,18.8,14.3,25.1C501.9,397,499.6,394.9,498.2,392.4z"/>
	</g>
	<g>
		<line fill="none" stroke="#222420" stroke-width="0.2998" stroke-miterlimit="10" x1="433" y1="352.9" x2="433" y2="368.8"/>
		<line fill="none" stroke="#222420" stroke-width="0.2998" stroke-miterlimit="10" x1="427.2" y1="352.9" x2="427.3" y2="368.9"/>
		<line fill="none" stroke="#222420" stroke-width="0.2998" stroke-miterlimit="10" x1="421.4" y1="353" x2="421.5" y2="369.2"/>
		<line fill="none" stroke="#222420" stroke-width="0.2998" stroke-miterlimit="10" x1="414.8" y1="353.1" x2="415" y2="369.2"/>
		<line fill="none" stroke="#222420" stroke-width="0.2998" stroke-miterlimit="10" x1="409.2" y1="353.1" x2="409.1" y2="369.7"/>
		<line fill="none" stroke="#222420" stroke-width="0.2998" stroke-miterlimit="10" x1="404.5" y1="353.5" x2="405.1" y2="370.2"/>
		<line fill="none" stroke="#222420" stroke-width="0.2998" stroke-miterlimit="10" x1="399.7" y1="353.7" x2="399.9" y2="370.7"/>
		<line fill="none" stroke="#222420" stroke-width="0.2998" stroke-miterlimit="10" x1="395.3" y1="354" x2="395.3" y2="370.9"/>
		<line fill="none" stroke="#222420" stroke-width="0.2998" stroke-miterlimit="10" x1="392" y1="354.1" x2="392.1" y2="371.5"/>
		<line fill="none" stroke="#222420" stroke-width="0.2998" stroke-miterlimit="10" x1="388" y1="354.5" x2="388.1" y2="372"/>
		<line fill="none" stroke="#222420" stroke-width="0.2998" stroke-miterlimit="10" x1="384.9" y1="354.9" x2="384.9" y2="372.4"/>
		<line fill="none" stroke="#222420" stroke-width="0.2998" stroke-miterlimit="10" x1="381.3" y1="355.3" x2="381.4" y2="372.9"/>
		<line fill="none" stroke="#222420" stroke-width="0.2998" stroke-miterlimit="10" x1="378.3" y1="355.7" x2="378.6" y2="373.3"/>
		<line fill="none" stroke="#222420" stroke-width="0.2998" stroke-miterlimit="10" x1="376.2" y1="356" x2="376" y2="373.8"/>
		<line fill="none" stroke="#222420" stroke-width="0.2998" stroke-miterlimit="10" x1="375.1" y1="356" x2="374.1" y2="373.8"/>
		<line fill="none" stroke="#222420" stroke-width="0.2998" stroke-miterlimit="10" x1="373.2" y1="356.7" x2="372.2" y2="374.2"/>
		<line fill="none" stroke="#222420" stroke-width="0.2998" stroke-miterlimit="10" x1="371.5" y1="357.1" x2="370" y2="374.9"/>
		<line fill="none" stroke="#222420" stroke-width="0.2998" stroke-miterlimit="10" x1="370.1" y1="357.5" x2="368.5" y2="375.1"/>
		<line fill="none" stroke="#222420" stroke-width="0.2998" stroke-miterlimit="10" x1="369" y1="357.9" x2="367" y2="375.4"/>
		<line fill="none" stroke="#222420" stroke-width="0.2998" stroke-miterlimit="10" x1="368" y1="358.4" x2="365.6" y2="375.4"/>
	</g>
	<g>
		<line fill="none" stroke="#222420" stroke-width="0.2998" stroke-miterlimit="10" x1="442.9" y1="352.9" x2="442.9" y2="368.8"/>
		<line fill="none" stroke="#222420" stroke-width="0.2998" stroke-miterlimit="10" x1="448.7" y1="352.9" x2="448.6" y2="368.9"/>
		<line fill="none" stroke="#222420" stroke-width="0.2998" stroke-miterlimit="10" x1="454.5" y1="353" x2="454.4" y2="369.2"/>
		<line fill="none" stroke="#222420" stroke-width="0.2998" stroke-miterlimit="10" x1="461.1" y1="353.1" x2="460.9" y2="369.2"/>
		<line fill="none" stroke="#222420" stroke-width="0.2998" stroke-miterlimit="10" x1="466.7" y1="353.1" x2="466.8" y2="369.7"/>
		<line fill="none" stroke="#222420" stroke-width="0.2998" stroke-miterlimit="10" x1="471.4" y1="353.5" x2="470.8" y2="370.2"/>
		<line fill="none" stroke="#222420" stroke-width="0.2998" stroke-miterlimit="10" x1="476.2" y1="353.7" x2="476.1" y2="370.7"/>
		<line fill="none" stroke="#222420" stroke-width="0.2998" stroke-miterlimit="10" x1="480.6" y1="354" x2="480.6" y2="370.9"/>
		<line fill="none" stroke="#222420" stroke-width="0.2998" stroke-miterlimit="10" x1="484" y1="354.1" x2="483.8" y2="371.5"/>
		<line fill="none" stroke="#222420" stroke-width="0.2998" stroke-miterlimit="10" x1="487.9" y1="354.5" x2="487.9" y2="372"/>
		<line fill="none" stroke="#222420" stroke-width="0.2998" stroke-miterlimit="10" x1="491" y1="354.9" x2="491" y2="372.4"/>
		<line fill="none" stroke="#222420" stroke-width="0.2998" stroke-miterlimit="10" x1="494.6" y1="355.3" x2="494.5" y2="372.9"/>
		<line fill="none" stroke="#222420" stroke-width="0.2998" stroke-miterlimit="10" x1="497.7" y1="355.7" x2="497.3" y2="373.3"/>
		<line fill="none" stroke="#222420" stroke-width="0.2998" stroke-miterlimit="10" x1="499.7" y1="356" x2="499.9" y2="373.8"/>
		<line fill="none" stroke="#222420" stroke-width="0.2998" stroke-miterlimit="10" x1="500.9" y1="356" x2="501.8" y2="373.8"/>
		<line fill="none" stroke="#222420" stroke-width="0.2998" stroke-miterlimit="10" x1="502.8" y1="356.7" x2="503.8" y2="374.2"/>
		<line fill="none" stroke="#222420" stroke-width="0.2998" stroke-miterlimit="10" x1="504.4" y1="357.1" x2="505.9" y2="374.9"/>
		<line fill="none" stroke="#222420" stroke-width="0.2998" stroke-miterlimit="10" x1="505.8" y1="357.5" x2="507.4" y2="375.1"/>
		<line fill="none" stroke="#222420" stroke-width="0.2998" stroke-miterlimit="10" x1="506.9" y1="357.9" x2="508.9" y2="375.4"/>
		<line fill="none" stroke="#222420" stroke-width="0.2998" stroke-miterlimit="10" x1="507.9" y1="358.4" x2="510.3" y2="375.4"/>
	</g>
</g>
<path id="la_x7C_Collar_x7C_colar_2_" fill="#FFFFFF" stroke="#222420" stroke-width="0.2998" stroke-miterlimit="10" d="M155,48.5
	c55.9-2.8,47.9-29.8,47.9-29.8l-8-6.8c0,0,16.1,26.6-39.8,28.2c-55.9-1.6-39.8-28.2-39.8-28.2l-8,6.8C107.1,18.7,99,45.7,155,48.5z"
	/>
<path id="la_x7C_Top_Color_x7C_top_5_" fill="#FFFFFF" stroke="#222420" stroke-width="0.2998" stroke-miterlimit="10" d="
	M155,317.1c63.8,0,89.6-19.7,89.6-19.7l-1.2-12.5c-6-26.2-13.6-93.2-10.9-107.5c2.6-14.4,7.6-41.7,7.6-41.7s-1.4-6.5,3.3-24.3
	s23.3-58.9,23.3-58.9c-4.8-2.5-31.2-15.1-37.8-17.4c-6.7-2.3-26-16.3-26-16.3c3.2,26.5-37.5,29.8-47.8,29.8s-50.5-3.6-47.8-29.8
	c0,0-19.4,14-26,16.3C74.4,37.4,48,49.9,43.2,52.5c0,0,18.6,41,23.3,58.9c4.8,17.8,3.3,24.3,3.3,24.3s5,27.3,7.6,41.7
	s-5,81.3-10.9,107.5l-1.2,12.5C65.4,297.4,91.2,317.1,155,317.1z"/>
<g id="la_x7C_Top_Color_x7C_top_4_">
	<path fill="#FFFFFF" stroke="#222420" stroke-width="0.2998" stroke-miterlimit="10" d="M43.2,52.5c0,0-19.9,28.2-16.7,53.8
		c0,0,33.4,21,43.3,29.4C69.9,135.7,72.4,108.8,43.2,52.5z"/>
	<path fill="#FFFFFF" stroke="#222420" stroke-width="0.2998" stroke-miterlimit="10" d="M26.6,106.3v11.5l44.2,22.5l-0.9-4.7
		C69.9,135.7,43.7,115.2,26.6,106.3z"/>
</g>
<path id="la_x7C_Decoration_x7C_decor_4_" fill="#95999B" stroke="#222420" stroke-width="0.2998" stroke-miterlimit="10" d="
	M43.2,52.5c0,0-20.6,30.7-16.7,53.8l10.1,5.8c0,0-0.7-22.2,13.8-44.9L43.2,52.5z"/>
<g id="la_x7C_Top_Color_x7C_top_3_">
	<path fill="#FFFFFF" stroke="#222420" stroke-width="0.2998" stroke-miterlimit="10" d="M266.6,52.5c0,0,19.9,28.2,16.7,53.8
		c0,0-33.4,21-43.3,29.4C239.9,135.7,237.4,108.8,266.6,52.5z"/>
	<path fill="#FFFFFF" stroke="#222420" stroke-width="0.2998" stroke-miterlimit="10" d="M283.2,106.3v11.5L239,140.3l0.9-4.7
		C239.9,135.7,266.1,115.2,283.2,106.3z"/>
</g>
<path id="la_x7C_Decoration_x7C_decor_3_" fill="#95999B" stroke="#222420" stroke-width="0.2998" stroke-miterlimit="10" d="
	M266.6,52.5c0,0,20.6,30.7,16.7,53.8l-10.1,5.8c0,0,0.7-22.2-13.8-44.9L266.6,52.5z"/>
<path id="la_x7C_Decoration_x7C_decor_2_" fill="#95999B" stroke="#222420" stroke-width="0.2998" stroke-miterlimit="10" d="
	M71.6,144.7c0,0,22.4-24.8,83.6-24.8s83.6,22.5,83.6,22.5l1.2-6.8c0,0-14.8-28.3-85.1-28.3s-85.1,28.3-85.1,28.3L71.6,144.7z"/>
<path fill="none" stroke="#222420" stroke-width="0.2998" stroke-miterlimit="10" d="M66,291.4c0,0,20.9,17.8,89,17.8
	s89-17.8,89-17.8"/>
<path fill="none" stroke="#222420" stroke-width="0.2998" stroke-miterlimit="10" d="M66,289.2c0,0,20.9,17.8,89,17.8
	s89-17.8,89-17.8"/>
<linearGradient id="SVGID_3_" gradientUnits="userSpaceOnUse" x1="155" y1="203.1615" x2="155" y2="232.5929" gradientTransform="matrix(1 0 0 -1 0 530)">
	<stop  offset="0" style="stop-color:#222420"/>
	<stop  offset="1" style="stop-color:#818786"/>
</linearGradient>
<path fill="url(#SVGID_3_)" stroke="#222420" stroke-width="0.2998" stroke-miterlimit="10" d="M65.4,297.4c0,0,28.2,19.7,89.6,19.7
	s89.6-19.7,89.6-19.7s-20.9,29.4-89.1,29.4S65.4,297.4,65.4,297.4z"/>
<path id="la_x7C_Collar_x7C_colar_1_" fill="#D1D4D4" stroke="#222420" stroke-width="0.2998" stroke-miterlimit="10" d="
	M482.8,18.7l-8-6.8c0,0-12.7-4.6-39.8-4.6s-40,4.6-40,4.6l-8,6.8c0,0,21.9-3.8,48.1-3.8C461.3,14.9,482.8,18.7,482.8,18.7z"/>
<g id="la_x7C_Top_Color_x7C_top_2_">
	<path fill="#FFFFFF" stroke="#222420" stroke-width="0.2998" stroke-miterlimit="10" d="M323.2,52.5c0,0-19.9,28.2-16.7,53.8
		c0,0,33.4,21,43.3,29.4C349.8,135.7,352.3,108.8,323.2,52.5z"/>
	<path fill="#FFFFFF" stroke="#222420" stroke-width="0.2998" stroke-miterlimit="10" d="M306.5,106.3v11.5l44.2,22.5l-0.9-4.7
		C349.8,135.7,323.6,115.2,306.5,106.3z"/>
</g>
<path id="la_x7C_Decoration_x7C_decor_1_" fill="#95999B" stroke="#222420" stroke-width="0.2998" stroke-miterlimit="10" d="
	M323.2,52.5c0,0-20.6,30.7-16.7,53.8l10.1,5.8c0,0-0.7-22.2,13.8-44.9L323.2,52.5z"/>
<g id="la_x7C_Top_Color_x7C_top_1_">
	<path fill="#FFFFFF" stroke="#222420" stroke-width="0.2998" stroke-miterlimit="10" d="M546.5,52.5c0,0,19.9,28.2,16.7,53.8
		c0,0-33.4,21-43.3,29.4C519.8,135.7,517.3,108.8,546.5,52.5z"/>
	<path fill="#FFFFFF" stroke="#222420" stroke-width="0.2998" stroke-miterlimit="10" d="M563.1,106.3v11.5L519,140.3l0.9-4.7
		C519.8,135.7,546,115.2,563.1,106.3z"/>
</g>
<path id="la_x7C_Decoration_x7C_decor" fill="#95999B" stroke="#222420" stroke-width="0.2998" stroke-miterlimit="10" d="
	M546.5,52.5c0,0,20.6,30.7,16.7,53.8l-10.1,5.8c0,0,0.7-22.2-13.8-44.9L546.5,52.5z"/>
<path id="la_x7C_Top_Color_x7C_top" fill="#FFFFFF" stroke="#222420" stroke-width="0.2998" stroke-miterlimit="10" d="M524.4,297.4
	l-1.2-12.5c-6-26.2-13.6-93.2-10.9-107.5c2.6-14.4,7.6-41.7,7.6-41.7s-1.4-6.5,3.3-24.3c4.8-17.8,23.3-58.9,23.3-58.9
	c-4.8-2.5-31.2-15.1-37.8-17.4c-6.4-2.2-24.8-15.4-26-16.3l0,0c0,0-10.8-3.8-47.6-3.8S387,18.7,387,18.7l0,0
	c-1.2,0.9-19.5,14-26,16.3c-6.7,2.3-33.1,14.8-37.8,17.4c0,0,18.6,41,23.3,58.9s3.3,24.3,3.3,24.3s5,27.3,7.6,41.7
	s-5,81.3-10.9,107.5l-1.2,12.5c0,0,21.9,29.4,90.1,29.4C503.6,326.8,524.4,297.4,524.4,297.4L524.4,297.4L524.4,297.4z M434.9,317.1
	L434.9,317.1L434.9,317.1L434.9,317.1z"/>
<path fill="none" stroke="#222420" stroke-width="0.2998" stroke-miterlimit="10" d="M345.9,291.4c0,0,20.9,30.3,89,30.3
	s89-30.3,89-30.3"/>
<path fill="none" stroke="#222420" stroke-width="0.2998" stroke-miterlimit="10" d="M345.9,289.2c0,0,20.9,30.3,89,30.3
	s89-30.3,89-30.3"/>
</svg>
