<?xml version="1.0" encoding="utf-8"?>
<!-- Generator: Adobe Illustrator 16.0.4, SVG Export Plug-In . SVG Version: 6.00 Build 0)  -->
<!DOCTYPE svg PUBLIC "-//W3C//DTD SVG 1.1//EN" "http://www.w3.org/Graphics/SVG/1.1/DTD/svg11.dtd">
<svg version="1.1" id="Layer_1" xmlns="http://www.w3.org/2000/svg" xmlns:xlink="http://www.w3.org/1999/xlink" x="0px" y="0px"
	 width="112.467px" height="110.167px" viewBox="0 0 112.467 110.167" enable-background="new 0 0 112.467 110.167"
	 xml:space="preserve">
<path d="M56,7.5c7.731,0,14,6.268,14,14s-6.269,14-14,14s-14-6.268-14-14S48.269,7.5,56,7.5z M31.733,30.834H35
	c1.399,0,2.333-0.933,2.333-2.333V16.834h-1.1C38.599,7.728,46.552,1,56,1s17.401,6.727,19.767,15.833h-1.101V28.5
	c0,1.4,0.935,2.333,2.334,2.333h3.267c1.866,0,3.733-1.867,3.733-3.733v-6.533c0-1.867-1.867-3.733-3.733-3.733h-3.443
	C74.433,7.166,66.003,0,56,0C45.998,0,37.567,7.165,35.179,16.833h-3.445c-1.867,0-3.733,1.867-3.733,3.733v6.534
	C28,28.967,29.867,30.834,31.733,30.834z M27.533,82.167C29.399,78.9,33.601,70.968,37.8,63.968V87.3l5.6,3.734
	c0,0.467,0,0.467,0.468,0.467h24.266c0.468,0,0.468,0,0.935-0.467l5.6-3.734V63.968c3.734,7,8.4,14.934,10.268,18.199
	c0.467,0,0.935,0,1.4,0h13.064L80.267,47.634c-3.733-5.6-8.399-7.467-24.267-7.467s-20.533,1.867-23.8,7.467L13.067,82.167h13.065
	C26.601,82.167,27.067,82.167,27.533,82.167z M108.267,87.3H86.334c-1.399,0-2.801,0-3.733,0.934l-10.732,7
	c-1.4,0.469-2.334,0.936-3.734,0.936H43.868c-1.4,0-2.333-0.467-3.268-1.4l-10.732-7c-0.934-0.467-2.333-0.934-3.733-0.934H4.2
	c-2.333,0-4.2,1.867-4.2,4.201v19.131h112h0.467V91.501C112.467,89.167,110.601,87.3,108.267,87.3z"/>
</svg>
