<?xml version="1.0" encoding="utf-8"?>
<!-- Generator: Adobe Illustrator 16.0.4, SVG Export Plug-In . SVG Version: 6.00 Build 0)  -->
<!DOCTYPE svg PUBLIC "-//W3C//DTD SVG 1.1//EN" "http://www.w3.org/Graphics/SVG/1.1/DTD/svg11.dtd">
<svg version="1.1" id="Layer_1" xmlns="http://www.w3.org/2000/svg" xmlns:xlink="http://www.w3.org/1999/xlink" x="0px" y="0px"
	 width="90.07px" height="107.709px" viewBox="0 0 90.07 107.709" enable-background="new 0 0 90.07 107.709" xml:space="preserve">
<path d="M66.737,0C53.67,0,43.404,10.267,43.404,23.333c0,0.459,0.016,0.915,0.041,1.367C36.044,35.309,20.283,57.308,8.87,69.065
	l12.6,12.6c11.073-11.764,33.166-27.625,43.855-35.043c0.467,0.027,0.937,0.044,1.411,0.044
	c13.067,0.001,23.335-10.266,23.335-23.333C90.071,10.267,79.803,0,66.737,0z M49.938,47.132l-6.534,6.533
	c-1.867,1.867-4.667,1.867-6.534,0L36.404,53.2c-1.867-1.867-1.867-4.667,0-6.534l6.533-6.533c1.866-1.867,4.667-1.867,6.533,0
	l0.468,0.467C51.803,42.466,51.803,45.267,49.938,47.132z M73.792,38.308L51.763,16.278C54.349,10.75,60.124,7,66.737,7
	c9.334,0,16.334,7.467,16.334,16.333C83.071,29.945,79.321,35.721,73.792,38.308z M76.905,78.655
	c1.253,4.674-0.284,9.475-4.327,13.518l-13.533,13.533l-1.414-1.414l13.533-13.533c3.517-3.516,4.869-7.631,3.81-11.586
	c-1.049-3.912-4.356-7.145-8.431-8.236c-4.166-1.117-8.322,0.127-11.698,3.504L30.578,98.708c-6.424,6.424-12.61,9-17.729,9.002
	c-3.768,0-6.958-1.396-9.241-3.682c-4.487-4.486-5.561-12.951,1.29-19.801l4.199-4.201l1.414,1.414l-4.199,4.201
	c-2.721,2.719-4.212,5.895-4.312,9.184c-0.092,2.982,0.981,5.75,3.021,7.789c2.423,2.424,5.869,3.473,9.716,2.965
	c4.636-0.619,9.625-3.482,14.427-8.285l24.266-24.268c3.847-3.846,8.818-5.314,13.63-4.021
	C71.811,70.276,75.674,74.065,76.905,78.655z"/>
</svg>
