<?xml version="1.0" encoding="utf-8"?>
<!-- Generator: Adobe Illustrator 16.0.4, SVG Export Plug-In . SVG Version: 6.00 Build 0)  -->
<!DOCTYPE svg PUBLIC "-//W3C//DTD SVG 1.1//EN" "http://www.w3.org/Graphics/SVG/1.1/DTD/svg11.dtd">
<svg version="1.1" id="Layer_1" xmlns="http://www.w3.org/2000/svg" xmlns:xlink="http://www.w3.org/1999/xlink" x="0px" y="0px"
	 width="74.666px" height="112px" viewBox="0 0 74.666 112" enable-background="new 0 0 74.666 112" xml:space="preserve">
<path d="M51.335,56V37.333c7.465-4.666,18.666-11.2,18.666-22.4C70.001,4.667,64.399,0,56.001,0c-8.4,0-14,7.933-14,23.333v9.333
	c0,0-42,10.267-42,32.667c0,16.799,15.399,23.332,42,23.332v6.066c0,7.934-2.334,12.602-7,12.602c-4.2,0-7-2.334-7-9.334
	c0-2.334-2.333-4.666-4.667-4.666c-2.333,0-4.667,2.332-4.667,4.666c0,5.6,4.2,14,16.333,14c9.333,0,16.333-6.533,16.333-16.334v-7
	c13.066,0,23.332-7.467,23.332-16.332C74.667,56.934,56.001,56,51.335,56z M51.335,23.333c0-7.934,0.932-18.667,6.533-18.667
	c4.666,0,7.467,3.733,7.467,8.4c0,10.267-14,16.333-14,16.333V23.333z M42.001,56c-8.4,0-18.667,3.732-18.667,12.132
	c0,3.268,2.333,6.533,4.667,6.533c6.533,0,0.467-9.332,14-9.332V84c-11.667,0-28-2.334-28-18.666c0-14.934,28-23.8,28-23.8V56z
	 M51.335,84V65.334c11.666,0,18.666,2.332,18.666,7C70.001,77,64.868,84,51.335,84z"/>
</svg>
