<?xml version="1.0" encoding="utf-8"?>
<!-- Generator: Adobe Illustrator 16.0.0, SVG Export Plug-In . SVG Version: 6.00 Build 0)  -->
<!DOCTYPE svg PUBLIC "-//W3C//DTD SVG 1.1//EN" "http://www.w3.org/Graphics/SVG/1.1/DTD/svg11.dtd">
<svg version="1.1" id="Layer_1_copy" xmlns="http://www.w3.org/2000/svg" xmlns:xlink="http://www.w3.org/1999/xlink" x="0px"
	 y="0px" width="126px" height="126px" viewBox="0 0 126 126" enable-background="new 0 0 126 126" xml:space="preserve">
<path stroke="#6D6E70" stroke-width="0" stroke-linecap="round" stroke-linejoin="round" d="M85.61,81
	c0,1.921-1.558,3.478-3.479,3.478H43.873c-1.921,0-3.479-1.557-3.479-3.478s1.558-3.478,3.479-3.478h38.259
	C84.052,77.522,85.61,79.079,85.61,81z M87.644,41.689c1.229,1.229,1.229,3.222-0.001,4.451l-9.455,9.456
	c-1.229,1.229-3.223,1.229-4.451,0c-1.229-1.229-1.229-3.222,0-4.451l9.456-9.455C84.422,40.46,86.415,40.46,87.644,41.689z
	 M87.849,57.97c0,2.254-1.827,4.081-4.079,4.081c-2.252,0-4.079-1.827-4.079-4.081c0-2.252,1.827-4.08,4.079-4.08
	C86.021,53.89,87.849,55.717,87.849,57.97z M38.356,46.14c-1.229-1.229-1.229-3.222-0.001-4.451c1.229-1.229,3.222-1.229,4.451,0
	l9.456,9.455c1.229,1.229,1.229,3.222,0,4.451c-1.229,1.229-3.223,1.229-4.451,0L38.356,46.14z M42.229,62.051
	c-2.251,0-4.079-1.827-4.079-4.081c0-2.252,1.827-4.08,4.079-4.08c2.252,0,4.079,1.827,4.079,4.08
	C46.308,60.224,44.481,62.051,42.229,62.051z"/>
</svg>
