<?xml version="1.0" encoding="utf-8"?>
<!-- Generator: Adobe Illustrator 16.0.0, SVG Export Plug-In . SVG Version: 6.00 Build 0)  -->
<!DOCTYPE svg PUBLIC "-//W3C//DTD SVG 1.1//EN" "http://www.w3.org/Graphics/SVG/1.1/DTD/svg11.dtd">
<svg version="1.1" id="Layer_1_copy_2" xmlns="http://www.w3.org/2000/svg" xmlns:xlink="http://www.w3.org/1999/xlink" x="0px"
	 y="0px" width="126px" height="126px" viewBox="0 0 126 126" enable-background="new 0 0 126 126" xml:space="preserve">
<path d="M85.988,74.039c-3.843,8.887-12.843,14.629-22.928,14.629c-10.301,0-19.354-5.771-23.064-14.703
	c-0.636-1.529,0.089-3.285,1.62-3.922c0.376-0.156,0.766-0.23,1.15-0.23c1.176,0.002,2.292,0.697,2.771,1.852
	c2.777,6.684,9.655,11.004,17.523,11.004c7.69,0,14.528-4.322,17.421-11.012c0.658-1.52,2.424-2.221,3.944-1.563
	S86.645,72.518,85.988,74.039z M114.848,29.383v67.234c0,10.053-8.178,18.23-18.23,18.23H29.382c-10.052,0-18.23-8.178-18.23-18.23
	V29.383c0-10.053,8.178-18.23,18.23-18.23h67.235C106.67,11.152,114.848,19.33,114.848,29.383z M19.731,29.383V38.3l14.381,6.636
	c1.605-5.461,6.654-9.461,12.626-9.461c6.281,0,11.541,4.424,12.847,10.316h6.677c1.293-5.912,6.563-10.354,12.856-10.354
	c5.947,0,10.98,3.965,12.608,9.389l14.542-7.009v-8.435c0-5.322-4.33-9.652-9.651-9.652H29.382
	C24.061,19.73,19.731,24.061,19.731,29.383z M106.269,96.617V41.469l-14.004,6.727c0.004,0.137,0.021,0.271,0.021,0.408
	c0,7.262-5.907,13.168-13.167,13.168c-7.098,0-12.887-5.65-13.142-12.688h-6.095c-0.236,7.055-6.034,12.725-13.144,12.725
	c-7.259,0-13.166-5.906-13.166-13.168c0-0.111,0.014-0.219,0.017-0.33l-13.857-6.387v54.693c0,5.322,4.33,9.652,9.651,9.652h67.235
	C101.939,106.27,106.269,101.939,106.269,96.617z"/>
</svg>
