<?xml version="1.0" encoding="utf-8"?>
<!-- Generator: Adobe Illustrator 16.0.0, SVG Export Plug-In . SVG Version: 6.00 Build 0)  -->
<!DOCTYPE svg PUBLIC "-//W3C//DTD SVG 1.1//EN" "http://www.w3.org/Graphics/SVG/1.1/DTD/svg11.dtd">
<svg version="1.1" id="Layer_1_copy_3" xmlns="http://www.w3.org/2000/svg" xmlns:xlink="http://www.w3.org/1999/xlink" x="0px"
	 y="0px" width="126px" height="126px" viewBox="0 0 126 126" enable-background="new 0 0 126 126" xml:space="preserve">
<g>
	<path d="M63,8.818C33.076,8.818,8.818,33.076,8.818,63S33.076,117.182,63,117.182S117.182,92.924,117.182,63S92.924,8.818,63,8.818
		z M49.412,42.439c3.423,0,6.2,2.777,6.2,6.201c0,3.426-2.777,6.203-6.2,6.203c-3.423,0-6.201-2.777-6.201-6.203
		C43.211,45.217,45.988,42.439,49.412,42.439z M63.06,88.668c-9.08,4.867-19.354-5.771-23.064-14.703
		c-0.636-1.529,0.089-3.285,1.62-3.922c0.376-0.156,0.766-0.23,1.15-0.23c1.176,0.002,2.292,0.697,2.771,1.852
		c2.777,6.684,7.463,7.92,18.523,10.004C64.06,81.668,73.25,83.207,63.06,88.668z M77.531,54.844c-3.423,0-6.203-2.777-6.203-6.203
		c0-3.424,2.78-6.201,6.203-6.201c3.423,0,6.201,2.777,6.201,6.201C83.731,52.066,80.954,54.844,77.531,54.844z"/>
</g>
</svg>
