<?xml version="1.0" encoding="utf-8"?>
<!-- Generator: Adobe Illustrator 16.0.0, SVG Export Plug-In . SVG Version: 6.00 Build 0)  -->
<!DOCTYPE svg PUBLIC "-//W3C//DTD SVG 1.1//EN" "http://www.w3.org/Graphics/SVG/1.1/DTD/svg11.dtd">
<svg version="1.1" id="Layer_1_copy_2" xmlns="http://www.w3.org/2000/svg" xmlns:xlink="http://www.w3.org/1999/xlink" x="0px"
	 y="0px" width="126px" height="126px" viewBox="0 0 126 126" enable-background="new 0 0 126 126" xml:space="preserve">
<path stroke="#6D6E70" stroke-width="0" stroke-linecap="round" stroke-linejoin="round" d="M61.955,83
	c0-2.482,1.305-4.496,2.912-4.496h24.27c1.607,0,2.911,2.014,2.911,4.496s-1.304,4.496-2.911,4.496h-24.27
	C63.26,87.496,61.955,85.482,61.955,83z M41.711,40.641c0-4.113,3.12-7.451,6.965-7.451c3.846,0,6.966,3.338,6.966,7.451
	c0,4.117-3.12,7.453-6.966,7.453C44.831,48.094,41.711,44.758,41.711,40.641z M71.297,40.641c0-4.113,3.123-7.451,6.969-7.451
	c3.845,0,6.965,3.338,6.965,7.451c0,4.117-3.12,7.453-6.965,7.453C74.42,48.094,71.297,44.758,71.297,40.641z M96.617,114.848
	H29.383c-10.053,0-18.23-8.178-18.23-18.23V29.383c0-10.053,8.178-18.23,18.23-18.23h67.234c10.053,0,18.23,8.178,18.23,18.23
	v67.234C114.848,106.67,106.67,114.848,96.617,114.848z M29.383,19.73c-5.322,0-9.652,4.33-9.652,9.652v67.234
	c0,5.322,4.33,9.652,9.652,9.652h67.234c5.322,0,9.652-4.33,9.652-9.652V29.383c0-5.322-4.33-9.652-9.652-9.652H29.383z"/>
</svg>
