<?xml version="1.0" encoding="utf-8"?>
<!-- Generator: Adobe Illustrator 16.0.0, SVG Export Plug-In . SVG Version: 6.00 Build 0)  -->
<!DOCTYPE svg PUBLIC "-//W3C//DTD SVG 1.1//EN" "http://www.w3.org/Graphics/SVG/1.1/DTD/svg11.dtd">
<svg version="1.1" id="Layer_1" xmlns="http://www.w3.org/2000/svg" xmlns:xlink="http://www.w3.org/1999/xlink" x="0px" y="0px"
	 width="126px" height="126px" viewBox="0 0 126 126" enable-background="new 0 0 126 126" xml:space="preserve">
<path stroke="#6D6E70" stroke-width="0" stroke-linecap="round" stroke-linejoin="round" d="M100.515,100.513
	c20.686-20.684,20.684-54.341,0.002-75.024C79.829,4.8,46.17,4.8,25.486,25.483C4.798,46.17,4.8,79.829,25.488,100.517
	C46.17,121.201,79.829,121.201,100.515,100.513z M31.273,31.271c17.494-17.493,45.959-17.495,63.457,0.002
	c17.494,17.494,17.492,45.963-0.002,63.455c-17.494,17.494-45.961,17.496-63.455,0.003C13.775,77.233,13.777,48.765,31.273,31.271z
	 M36.97,79.836c0,0-2.958-11.438,6.705-8.874c0,0,17.144,9.295,38.651,0c9.663-2.563,6.705,8.874,6.705,8.874
	C83.509,96.795,63,95.415,63,95.415S42.491,96.795,36.97,79.836z M43.211,48.642c0-3.424,2.777-6.201,6.201-6.201
	c3.423,0,6.2,2.777,6.2,6.201c0,3.426-2.777,6.203-6.2,6.203C45.988,54.845,43.211,52.067,43.211,48.642z M71.328,48.642
	c0-3.424,2.78-6.201,6.203-6.201c3.423,0,6.201,2.777,6.201,6.201c0,3.426-2.777,6.203-6.201,6.203
	C74.108,54.845,71.328,52.067,71.328,48.642z"/>
</svg>
