<?xml version="1.0" encoding="utf-8"?>
<!-- Generator: Adobe Illustrator 16.0.0, SVG Export Plug-In . SVG Version: 6.00 Build 0)  -->
<!DOCTYPE svg PUBLIC "-//W3C//DTD SVG 1.1//EN" "http://www.w3.org/Graphics/SVG/1.1/DTD/svg11.dtd">
<svg version="1.1" id="Layer_1" xmlns="http://www.w3.org/2000/svg" xmlns:xlink="http://www.w3.org/1999/xlink" x="0px" y="0px"
	 width="126px" height="126px" viewBox="0 0 126 126" enable-background="new 0 0 126 126" xml:space="preserve">
<path stroke="#6D6E70" stroke-width="0" stroke-linecap="round" stroke-linejoin="round" d="M25.487,25.483
	C4.798,46.169,4.8,79.829,25.489,100.517c20.682,20.684,54.34,20.684,75.026-0.004c20.686-20.684,20.684-54.341,0.002-75.024
	C79.829,4.799,46.17,4.799,25.487,25.483z M94.728,94.728c-17.493,17.494-45.962,17.496-63.455,0.002
	c-17.498-17.497-17.495-45.966,0-63.46c17.493-17.493,45.96-17.495,63.457,0.002C112.224,48.766,112.222,77.235,94.728,94.728z
	 M88.517,71.036c0.265,0.403,0.31,0.913,0.118,1.356c-4.285,9.904-14.318,16.304-25.563,16.304c-11.486,0-21.58-6.431-25.714-16.382
	c-0.185-0.443-0.135-0.949,0.131-1.347c0.267-0.398,0.714-0.637,1.192-0.637c0.001,0,0.001,0,0.002,0l48.638,0.06
	C87.803,70.39,88.252,70.633,88.517,71.036z M43.093,46.979c0-1.025,0.365-2.114,1.002-2.988c0.729-1,1.684-1.551,2.691-1.551
	c1,0,1.942,0.437,2.625,1.173c0.684-0.736,1.626-1.173,2.626-1.173c1.006,0,1.961,0.551,2.688,1.551
	c0.637,0.874,1.002,1.963,1.002,2.988c0,1.628-1.006,3.473-2.991,5.485c-1.414,1.434-2.812,2.425-2.87,2.466
	c-0.137,0.097-0.296,0.145-0.455,0.145c-0.156,0-0.313-0.046-0.446-0.138C48.725,54.772,43.093,50.869,43.093,46.979z
	 M71.212,46.979c0-1.025,0.365-2.114,1.002-2.988c0.729-1,1.684-1.551,2.691-1.551c1,0,1.942,0.437,2.625,1.173
	c0.684-0.736,1.626-1.173,2.626-1.173c1.006,0,1.961,0.551,2.688,1.551c0.637,0.874,1.002,1.963,1.002,2.988
	c0,1.628-1.006,3.473-2.991,5.485c-1.414,1.434-2.812,2.425-2.87,2.466c-0.137,0.097-0.296,0.145-0.455,0.145
	c-0.156,0-0.313-0.046-0.446-0.138C76.844,54.772,71.212,50.869,71.212,46.979z"/>
</svg>
