<?xml version="1.0" encoding="utf-8"?>
<!-- Generator: Adobe Illustrator 16.0.0, SVG Export Plug-In . SVG Version: 6.00 Build 0)  -->
<!DOCTYPE svg PUBLIC "-//W3C//DTD SVG 1.1//EN" "http://www.w3.org/Graphics/SVG/1.1/DTD/svg11.dtd">
<svg version="1.1" id="Layer_1_copy" xmlns="http://www.w3.org/2000/svg" xmlns:xlink="http://www.w3.org/1999/xlink" x="0px"
	 y="0px" width="126px" height="126px" viewBox="0 0 126 126" enable-background="new 0 0 126 126" xml:space="preserve">
<g>
	<path d="M81.404,75.344c-0.119,0-0.23,0.028-0.346,0.038c-0.127-0.016-0.25-0.038-0.379-0.038H46.033
		c-0.213,0-0.42,0.022-0.621,0.063c-0.188-0.025-0.371-0.063-0.566-0.063c-2.559,0-4.643,2.28-4.643,5.083v5.609
		c0,2.803,2.084,5.083,4.643,5.083c2.182,0,4.002-1.66,4.498-3.882c0.494,2.222,2.316,3.882,4.496,3.882
		c2.561,0,4.643-2.28,4.643-5.083c0,2.803,2.082,5.083,4.643,5.083c2.182,0,4.002-1.66,4.498-3.882
		c0.494,2.222,2.316,3.882,4.496,3.882c2.561,0,4.643-2.28,4.643-5.083c0,2.803,2.082,5.083,4.643,5.083
		c2.559,0,4.643-2.28,4.643-5.083v-5.609C86.047,77.624,83.963,75.344,81.404,75.344z"/>
	<path d="M103.845,46.97c-0.148-0.389-0.743-1.911-1.299-3.026l-10.819,4.884c-1.627-5.424-6.662-9.389-12.607-9.389
		c-6.293,0-11.564,4.441-12.857,10.354h-6.676c-1.307-5.894-6.568-10.316-12.848-10.316c-5.92,0-10.938,3.928-12.59,9.314
		l-10.604-4.956c-0.585,1.123-1.242,2.755-1.418,3.202l11.458,5.354c-0.002,0.084-0.012,0.167-0.012,0.252
		c0,7.261,5.906,13.167,13.166,13.167c7.109,0,12.908-5.67,13.145-12.725h6.094c0.256,7.038,6.045,12.688,13.143,12.688
		c7.26,0,13.166-5.906,13.166-13.167c0-0.138-0.016-0.271-0.02-0.408L103.845,46.97z M46.738,61.73c-5.012,0-9.09-4.077-9.09-9.089
		s4.078-9.089,9.09-9.089c5.01,0,9.088,4.077,9.088,9.089S51.748,61.73,46.738,61.73z M79.119,61.693
		c-5.012,0-9.09-4.077-9.09-9.089s4.078-9.089,9.09-9.089c5.01,0,9.088,4.077,9.088,9.089S84.129,61.693,79.119,61.693z"/>
	<circle cx="46.738" cy="52.643" r="3.204"/>
	<circle cx="78.949" cy="52.643" r="3.204"/>
</g>
</svg>
