<?xml version="1.0" encoding="utf-8"?>
<!-- Generator: Adobe Illustrator 16.0.0, SVG Export Plug-In . SVG Version: 6.00 Build 0)  -->
<!DOCTYPE svg PUBLIC "-//W3C//DTD SVG 1.1//EN" "http://www.w3.org/Graphics/SVG/1.1/DTD/svg11.dtd">
<svg version="1.1" id="Layer_1" xmlns="http://www.w3.org/2000/svg" xmlns:xlink="http://www.w3.org/1999/xlink" x="0px" y="0px"
	 width="126px" height="126px" viewBox="0 0 126 126" enable-background="new 0 0 126 126" xml:space="preserve">
<path stroke="#6D6E70" stroke-width="0" stroke-linecap="round" stroke-linejoin="round" d="M25.486,25.483
	C4.798,46.17,4.8,79.829,25.488,100.517c20.682,20.685,54.34,20.685,75.027-0.004c20.686-20.684,20.684-54.341,0.002-75.024
	C79.829,4.8,46.17,4.8,25.486,25.483z M94.728,94.728c-17.493,17.494-45.961,17.496-63.455,0.003
	c-13.87-13.869-16.732-34.627-8.615-51.353l10.931,4.934c-0.002,0.11-0.017,0.219-0.017,0.33c0,7.261,5.907,13.167,13.166,13.167
	c7.11,0,12.908-5.67,13.144-12.725h6.095c0.255,7.038,6.044,12.688,13.142,12.688c7.26,0,13.167-5.906,13.167-13.167
	c0-0.138-0.017-0.271-0.021-0.408l11.005-4.968C111.476,59.98,108.636,80.821,94.728,94.728z M37.649,48.642
	c0-5.012,4.078-9.089,9.088-9.089c5.011,0,9.089,4.077,9.089,9.089s-4.078,9.089-9.089,9.089
	C41.727,57.73,37.649,53.653,37.649,48.642z M70.03,48.604c0-5.012,4.078-9.089,9.088-9.089c5.011,0,9.089,4.077,9.089,9.089
	s-4.078,9.089-9.089,9.089C74.108,57.693,70.03,53.616,70.03,48.604z M94.73,31.272c2.769,2.769,5.096,5.813,6.988,9.045
	l-9.992,4.51c-1.628-5.424-6.661-9.389-12.608-9.389c-6.293,0-11.563,4.441-12.856,10.354h-6.678
	c-1.307-5.894-6.566-10.316-12.847-10.316c-5.972,0-11.021,4-12.626,9.46l-9.91-4.474c1.907-3.285,4.26-6.381,7.071-9.191
	C48.767,13.777,77.233,13.775,94.73,31.272z M46.738,51.847c-1.769,0-3.203-1.435-3.203-3.205c0-1.769,1.435-3.203,3.203-3.203
	s3.204,1.435,3.204,3.203C49.941,50.412,48.506,51.847,46.738,51.847z M78.949,51.847c-1.769,0-3.203-1.435-3.203-3.205
	c0-1.769,1.435-3.203,3.203-3.203s3.204,1.435,3.204,3.203C82.152,50.412,80.717,51.847,78.949,51.847z M85.988,74.04
	c-3.843,8.887-12.843,14.629-22.928,14.629c-10.301,0-19.354-5.771-23.064-14.703c-0.636-1.529,0.089-3.285,1.62-3.922
	c0.376-0.156,0.766-0.23,1.15-0.23c1.176,0.001,2.292,0.697,2.771,1.851c2.777,6.685,9.655,11.005,17.523,11.005
	c7.69,0,14.528-4.322,17.421-11.012c0.658-1.521,2.424-2.222,3.944-1.563C85.946,70.753,86.645,72.519,85.988,74.04z"/>
</svg>
