<?xml version="1.0" encoding="utf-8"?>
<!-- Generator: Adobe Illustrator 16.0.0, SVG Export Plug-In . SVG Version: 6.00 Build 0)  -->
<!DOCTYPE svg PUBLIC "-//W3C//DTD SVG 1.1//EN" "http://www.w3.org/Graphics/SVG/1.1/DTD/svg11.dtd">
<svg version="1.1" id="Layer_1_copy_3" xmlns="http://www.w3.org/2000/svg" xmlns:xlink="http://www.w3.org/1999/xlink" x="0px"
	 y="0px" width="126px" height="126px" viewBox="0 0 126 126" enable-background="new 0 0 126 126" xml:space="preserve">
<g>
	<path d="M63,8.818C33.076,8.818,8.818,33.076,8.818,63S33.076,117.182,63,117.182S117.182,92.924,117.182,63S92.924,8.818,63,8.818
		z M77.531,42.44c3.423,0,6.201,2.777,6.201,6.201c0,3.426-2.777,6.203-6.201,6.203c-3.423,0-6.203-2.777-6.203-6.203
		C71.328,45.217,74.108,42.44,77.531,42.44z M49.412,42.44c3.423,0,6.2,2.777,6.2,6.201c0,3.426-2.777,6.203-6.2,6.203
		c-3.423,0-6.201-2.777-6.201-6.203C43.211,45.217,45.988,42.44,49.412,42.44z M85.425,87.916c-1.521,0.66-3.286-0.042-3.944-1.563
		c-2.893-6.689-9.731-11.011-17.421-11.011c-7.868,0-14.747,4.319-17.523,11.004c-0.479,1.154-1.596,1.85-2.771,1.85
		c-0.384,0-0.773-0.074-1.15-0.23c-1.53-0.636-2.255-2.392-1.62-3.921c3.71-8.932,12.764-14.703,23.064-14.703
		c10.084,0,19.084,5.742,22.928,14.629C87.646,85.492,86.946,87.258,85.425,87.916z"/>
</g>
</svg>
