<?xml version="1.0" encoding="utf-8"?>
<!-- Generator: Adobe Illustrator 16.0.0, SVG Export Plug-In . SVG Version: 6.00 Build 0)  -->
<!DOCTYPE svg PUBLIC "-//W3C//DTD SVG 1.1//EN" "http://www.w3.org/Graphics/SVG/1.1/DTD/svg11.dtd">
<svg version="1.1" id="Layer_1" xmlns="http://www.w3.org/2000/svg" xmlns:xlink="http://www.w3.org/1999/xlink" x="0px" y="0px"
	 width="126px" height="126px" viewBox="0 0 126 126" enable-background="new 0 0 126 126" xml:space="preserve">
<path stroke="#6D6E70" stroke-width="0" stroke-linecap="round" stroke-linejoin="round" d="M63,9.971
	c-13.587,0-27.173,5.17-37.515,15.512C4.798,46.17,4.8,79.828,25.487,100.516C35.828,110.859,49.414,116.029,63,116.029
	s27.172-5.172,37.516-15.518c20.686-20.684,20.684-54.34,0.002-75.023C90.173,15.143,76.586,9.971,63,9.971z M94.728,94.727
	C85.98,103.475,74.49,107.848,63,107.85c-11.49,0-22.98-4.373-31.728-13.119c-2.188-2.188-4.101-4.547-5.741-7.033
	c-11.482-17.41-9.567-41.119,5.741-56.428C40.02,22.523,51.51,18.15,63,18.15s22.98,4.373,31.729,13.121
	C112.224,48.766,112.222,77.234,94.728,94.727z M34.659,62.283c-1.212-1.133-1.274-3.033-0.142-4.246
	c1.132-1.213,3.018-1.291,4.247-0.143c3.251,3.053,6.589,0.242,6.959-0.088c1.105-0.99,2.741-1.012,3.867-0.119
	c0.133,0.104,0.259,0.223,0.376,0.354c1.106,1.236,1.001,3.135-0.235,4.242C47.067,64.668,40.523,67.768,34.659,62.283z
	 M91.472,58.006c1.106,1.236,1.001,3.135-0.235,4.242c-2.664,2.385-9.208,5.484-15.072,0c-1.212-1.133-1.274-3.033-0.142-4.246
	c1.132-1.213,3.018-1.291,4.247-0.143c3.251,3.053,6.589,0.242,6.959-0.088c1.105-0.99,2.741-1.012,3.867-0.119
	C91.229,57.756,91.354,57.875,91.472,58.006z M86.987,89.303c0.658,1.521-0.041,3.287-1.563,3.945
	c-1.52,0.66-3.285-0.041-3.943-1.563c-2.894-6.689-9.731-11.012-17.422-11.012c-7.867,0-14.746,4.32-17.523,11.006
	c-0.479,1.152-1.596,1.85-2.771,1.85c-0.383,0-0.773-0.074-1.149-0.23c-1.53-0.637-2.255-2.393-1.62-3.922
	c3.711-8.932,12.764-14.703,23.064-14.703C74.145,74.674,83.145,80.416,86.987,89.303z"/>
</svg>
