<?xml version="1.0" encoding="utf-8"?>
<!-- Generator: Adobe Illustrator 16.0.0, SVG Export Plug-In . SVG Version: 6.00 Build 0)  -->
<!DOCTYPE svg PUBLIC "-//W3C//DTD SVG 1.1//EN" "http://www.w3.org/Graphics/SVG/1.1/DTD/svg11.dtd">
<svg version="1.1" id="Layer_1" xmlns="http://www.w3.org/2000/svg" xmlns:xlink="http://www.w3.org/1999/xlink" x="0px" y="0px"
	 width="126px" height="126px" viewBox="0 0 126 126" enable-background="new 0 0 126 126" xml:space="preserve">
<path stroke="#6D6E70" stroke-width="0" stroke-linecap="round" stroke-linejoin="round" d="M100.515,100.512
	c20.686-20.684,20.684-54.341,0.002-75.024C79.829,4.799,46.169,4.799,25.486,25.483C4.798,46.169,4.8,79.829,25.488,100.517
	C46.169,121.201,79.829,121.201,100.515,100.512z M31.273,31.27c17.493-17.493,45.959-17.495,63.457,0.002
	c17.494,17.494,17.492,45.962-0.002,63.455c-17.494,17.494-45.962,17.496-63.455,0.002C13.775,77.233,13.777,48.764,31.273,31.27z
	 M35.475,48.642c0-1.738,1.409-3.147,3.147-3.147h13.372c1.738,0,3.147,1.409,3.147,3.147s-1.409,3.147-3.147,3.147H38.623
	C36.884,51.789,35.475,50.38,35.475,48.642z M70.857,48.643c0-1.738,1.41-3.147,3.147-3.147h13.372c1.738,0,3.147,1.409,3.147,3.147
	s-1.409,3.147-3.147,3.147H74.004C72.267,51.79,70.857,50.38,70.857,48.643z M63,64.774c9.023,0,16.363,7.341,16.363,16.365
	c0,9.027-7.34,16.371-16.363,16.371s-16.363-7.344-16.363-16.371C46.636,72.115,53.976,64.774,63,64.774z"/>
</svg>
