<?xml version="1.0" encoding="utf-8"?>
<!-- Generator: Adobe Illustrator 16.0.0, SVG Export Plug-In . SVG Version: 6.00 Build 0)  -->
<!DOCTYPE svg PUBLIC "-//W3C//DTD SVG 1.1//EN" "http://www.w3.org/Graphics/SVG/1.1/DTD/svg11.dtd">
<svg version="1.1" id="Layer_1_copy_3" xmlns="http://www.w3.org/2000/svg" xmlns:xlink="http://www.w3.org/1999/xlink" x="0px"
	 y="0px" width="126px" height="126px" viewBox="0 0 126 126" enable-background="new 0 0 126 126" xml:space="preserve">
<g>
	<path d="M63,8.818C33.076,8.818,8.818,33.076,8.818,63S33.076,117.182,63,117.182S117.182,92.924,117.182,63S92.924,8.818,63,8.818
		z M69.663,46.718c0.084-0.25,0.301-0.432,0.561-0.472l4.604-0.703l2.065-4.4c0.116-0.247,0.364-0.404,0.637-0.404
		s0.521,0.157,0.637,0.404l2.065,4.4l4.604,0.703c0.26,0.04,0.477,0.222,0.561,0.472c0.084,0.25,0.021,0.525-0.164,0.714
		L81.88,50.87l0.794,4.857c0.043,0.266-0.068,0.533-0.289,0.688c-0.121,0.085-0.263,0.128-0.405,0.128
		c-0.117,0-0.234-0.029-0.34-0.087l-4.11-2.271l-4.108,2.271c-0.234,0.131-0.524,0.115-0.745-0.041
		c-0.22-0.155-0.332-0.422-0.289-0.688l0.791-4.857l-3.351-3.437C69.643,47.244,69.579,46.968,69.663,46.718z M41.545,46.718
		c0.084-0.25,0.301-0.432,0.561-0.472l4.604-0.703l2.065-4.4c0.116-0.247,0.364-0.404,0.637-0.404s0.521,0.157,0.637,0.404
		l2.065,4.4l4.604,0.703c0.26,0.04,0.477,0.222,0.561,0.472c0.084,0.25,0.021,0.525-0.164,0.714l-3.352,3.437l0.794,4.857
		c0.043,0.266-0.068,0.533-0.289,0.688c-0.121,0.085-0.263,0.128-0.405,0.128c-0.117,0-0.234-0.029-0.34-0.087l-4.11-2.271
		l-4.108,2.271c-0.234,0.131-0.524,0.115-0.745-0.041c-0.22-0.155-0.332-0.422-0.289-0.688l0.791-4.857l-3.351-3.437
		C41.524,47.244,41.461,46.968,41.545,46.718z M88.635,72.392c-4.285,9.904-14.318,16.304-25.563,16.304
		c-11.486,0-21.58-6.431-25.714-16.382c-0.185-0.443-0.135-0.949,0.131-1.347c0.267-0.398,0.714-0.637,1.192-0.637
		c0.001,0,0.001,0,0.002,0l48.638,0.06c0.482,0,0.932,0.244,1.196,0.647S88.826,71.949,88.635,72.392z"/>
</g>
</svg>
