<?xml version="1.0" encoding="utf-8"?>
<!-- Generator: Adobe Illustrator 16.0.0, SVG Export Plug-In . SVG Version: 6.00 Build 0)  -->
<!DOCTYPE svg PUBLIC "-//W3C//DTD SVG 1.1//EN" "http://www.w3.org/Graphics/SVG/1.1/DTD/svg11.dtd">
<svg version="1.1" id="Layer_1_copy_2" xmlns="http://www.w3.org/2000/svg" xmlns:xlink="http://www.w3.org/1999/xlink" x="0px"
	 y="0px" width="126px" height="126px" viewBox="0 0 126 126" enable-background="new 0 0 126 126" xml:space="preserve">
<path stroke="#6D6E70" stroke-width="0" stroke-linecap="round" stroke-linejoin="round" d="M63.06,82.669
	c7.69,0,14.528-4.322,17.421-11.012c0.658-1.521,2.424-2.222,3.944-1.563c1.521,0.658,2.22,2.424,1.563,3.945
	c-3.843,8.887-12.843,14.629-22.928,14.629c-10.301,0-19.354-5.771-23.064-14.703c-0.636-1.529,0.089-3.285,1.62-3.922
	c0.376-0.156,0.766-0.23,1.15-0.23c1.176,0.001,2.292,0.697,2.771,1.851C48.313,78.349,55.192,82.669,63.06,82.669z M38.151,41.317
	c0.073-1.101,1.01-1.938,2.125-1.863c0.087,0.006,8.679,0.498,11.91-3.958c0.648-0.896,1.9-1.092,2.793-0.445
	c0.894,0.648,1.093,1.899,0.445,2.793c-3.717,5.125-11.401,5.632-14.292,5.632c-0.636,0-1.039-0.024-1.119-0.03
	C38.912,43.372,38.078,42.419,38.151,41.317z M44.401,54.283c-0.744-1.023-1.189-2.279-1.189-3.643c0-3.424,2.777-6.201,6.2-6.201
	c3.424,0,6.2,2.777,6.2,6.201c0,1.315-0.412,2.533-1.11,3.537c-1.127-1.549-2.949-2.561-5.011-2.561
	C47.382,51.617,45.521,52.674,44.401,54.283z M71.528,37.807c-0.648-0.894-0.449-2.145,0.445-2.793
	c0.894-0.646,2.145-0.45,2.793,0.445c3.231,4.456,11.823,3.964,11.91,3.958c1.116-0.074,2.052,0.763,2.125,1.863
	c0.073,1.102-0.761,2.055-1.863,2.128c-0.08,0.006-0.483,0.03-1.119,0.03C82.929,43.438,75.245,42.932,71.528,37.807z
	 M77.542,44.402c3.423,0,6.2,2.777,6.2,6.201c0,1.363-0.445,2.619-1.189,3.643c-1.12-1.609-2.981-2.666-5.09-2.666
	c-2.062,0-3.884,1.012-5.011,2.561c-0.698-1.004-1.11-2.222-1.11-3.537C71.341,47.18,74.118,44.402,77.542,44.402z M96.618,114.848
	H29.382c-10.052,0-18.23-8.178-18.23-18.23V29.383c0-10.053,8.178-18.23,18.23-18.23h67.235c10.052,0,18.23,8.178,18.23,18.23
	v67.234C114.848,106.67,106.67,114.848,96.618,114.848z M29.382,19.73c-5.321,0-9.651,4.33-9.651,9.652v67.234
	c0,5.322,4.33,9.652,9.651,9.652h67.235c5.321,0,9.651-4.33,9.651-9.652V29.383c0-5.322-4.33-9.652-9.651-9.652H29.382z"/>
</svg>
