<?xml version="1.0" encoding="utf-8"?>
<!-- Generator: Adobe Illustrator 16.0.0, SVG Export Plug-In . SVG Version: 6.00 Build 0)  -->
<!DOCTYPE svg PUBLIC "-//W3C//DTD SVG 1.1//EN" "http://www.w3.org/Graphics/SVG/1.1/DTD/svg11.dtd">
<svg version="1.1" id="Layer_1" xmlns="http://www.w3.org/2000/svg" xmlns:xlink="http://www.w3.org/1999/xlink" x="0px" y="0px"
	 width="126px" height="126px" viewBox="0 0 126 126" enable-background="new 0 0 126 126" xml:space="preserve">
<path stroke="#6D6E70" stroke-width="0" stroke-linecap="round" stroke-linejoin="round" d="M100.517,25.488
	C79.829,4.799,46.17,4.799,25.486,25.483C4.798,46.169,4.8,79.829,25.488,100.517c20.682,20.684,54.341,20.684,75.027-0.004
	C121.201,79.829,121.199,46.171,100.517,25.488z M94.728,94.728c-17.494,17.494-45.961,17.496-63.455,0.002
	c-17.498-17.497-17.496-45.966,0-63.46c17.494-17.493,45.959-17.495,63.457,0.002C112.224,48.766,112.222,77.235,94.728,94.728z
	 M43.211,48.641c0-3.423,2.777-6.201,6.201-6.201c3.423,0,6.2,2.777,6.2,6.201c0,3.426-2.777,6.203-6.2,6.203
	C45.988,54.844,43.211,52.067,43.211,48.641z M71.328,48.641c0-3.423,2.78-6.201,6.203-6.201c3.423,0,6.201,2.777,6.201,6.201
	c0,3.426-2.777,6.203-6.201,6.203C74.108,54.844,71.328,52.067,71.328,48.641z M85.988,74.039
	c-3.843,8.887-12.843,14.629-22.928,14.629c-10.301,0-19.354-5.771-23.064-14.703c-0.636-1.53,0.089-3.286,1.62-3.921
	c0.376-0.156,0.766-0.23,1.15-0.23c1.176,0,2.292,0.696,2.771,1.85c2.777,6.685,9.655,11.004,17.523,11.004
	c7.69,0,14.528-4.322,17.421-11.011c0.658-1.521,2.424-2.222,3.944-1.563C85.946,70.752,86.646,72.518,85.988,74.039z"/>
</svg>
