<?xml version="1.0" encoding="utf-8"?>
<!-- Generator: Adobe Illustrator 16.0.0, SVG Export Plug-In . SVG Version: 6.00 Build 0)  -->
<!DOCTYPE svg PUBLIC "-//W3C//DTD SVG 1.1//EN" "http://www.w3.org/Graphics/SVG/1.1/DTD/svg11.dtd">
<svg version="1.1" id="Layer_1_copy_3" xmlns="http://www.w3.org/2000/svg" xmlns:xlink="http://www.w3.org/1999/xlink" x="0px"
	 y="0px" width="126px" height="126px" viewBox="0 0 126 126" enable-background="new 0 0 126 126" xml:space="preserve">
<g>
	<path d="M63,8.818C33.076,8.818,8.818,33.076,8.818,63S33.076,117.182,63,117.182S117.182,92.924,117.182,63S92.924,8.818,63,8.818
		z M77.059,42.439c3.424,0,6.2,2.777,6.2,6.201c0,1.315-0.412,2.533-1.11,3.537c-1.127-1.549-2.949-2.561-5.011-2.561
		c-2.108,0-3.97,1.057-5.09,2.666c-0.744-1.023-1.189-2.279-1.189-3.643C70.858,45.217,73.636,42.439,77.059,42.439z M48.94,42.439
		c3.424,0,6.2,2.777,6.2,6.201c0,1.315-0.412,2.533-1.11,3.537c-1.127-1.549-2.949-2.561-5.011-2.561
		c-2.108,0-3.97,1.057-5.09,2.666c-0.744-1.023-1.189-2.279-1.189-3.643C42.74,45.217,45.518,42.439,48.94,42.439z M88.635,72.392
		c-4.285,9.904-14.318,16.304-25.563,16.304c-11.486,0-21.58-6.431-25.714-16.382c-0.185-0.443-0.135-0.948,0.131-1.347
		c0.267-0.398,0.714-0.638,1.192-0.638c0,0,0.001,0,0.002,0l48.638,0.06c0.482,0,0.932,0.244,1.196,0.646
		C88.781,71.44,88.826,71.95,88.635,72.392z"/>
</g>
</svg>
