<?xml version="1.0" encoding="utf-8"?>
<!-- Generator: Adobe Illustrator 16.0.0, SVG Export Plug-In . SVG Version: 6.00 Build 0)  -->
<!DOCTYPE svg PUBLIC "-//W3C//DTD SVG 1.1//EN" "http://www.w3.org/Graphics/SVG/1.1/DTD/svg11.dtd">
<svg version="1.1" id="Layer_1_copy_3" xmlns="http://www.w3.org/2000/svg" xmlns:xlink="http://www.w3.org/1999/xlink" x="0px"
	 y="0px" width="126px" height="126px" viewBox="0 0 126 126" enable-background="new 0 0 126 126" xml:space="preserve">
<g>
	<path d="M63,8.818C33.076,8.818,8.818,33.076,8.818,63S33.076,117.182,63,117.182S117.182,92.924,117.182,63S92.924,8.818,63,8.818
		z M77.531,42.44c3.423,0,6.201,2.777,6.201,6.201c0,3.426-2.777,6.203-6.201,6.203c-3.423,0-6.203-2.777-6.203-6.203
		C71.328,45.217,74.108,42.44,77.531,42.44z M49.412,42.44c3.423,0,6.2,2.777,6.2,6.201c0,3.426-2.777,6.203-6.2,6.203
		c-3.423,0-6.201-2.777-6.201-6.203C43.211,45.217,45.988,42.44,49.412,42.44z M85.988,74.039
		c-3.843,8.887-12.843,14.629-22.928,14.629c-10.301,0-19.354-5.771-23.064-14.703c-0.636-1.53,0.089-3.286,1.62-3.921
		c0.376-0.156,0.766-0.23,1.15-0.23c1.176,0,2.292,0.696,2.771,1.85c2.777,6.685,9.655,11.004,17.523,11.004
		c7.69,0,14.528-4.322,17.421-11.011c0.658-1.521,2.424-2.222,3.944-1.563C85.946,70.752,86.646,72.518,85.988,74.039z"/>
</g>
</svg>
