<?xml version="1.0" encoding="utf-8"?>
<!-- Generator: Adobe Illustrator 16.0.0, SVG Export Plug-In . SVG Version: 6.00 Build 0)  -->
<!DOCTYPE svg PUBLIC "-//W3C//DTD SVG 1.1//EN" "http://www.w3.org/Graphics/SVG/1.1/DTD/svg11.dtd">
<svg version="1.1" id="Layer_1" xmlns="http://www.w3.org/2000/svg" xmlns:xlink="http://www.w3.org/1999/xlink" x="0px" y="0px"
	 width="126px" height="126px" viewBox="0 0 126 126" enable-background="new 0 0 126 126" xml:space="preserve">
<path stroke="#6D6E70" stroke-width="0" stroke-linecap="round" stroke-linejoin="round" d="M25.486,25.483
	C4.798,46.169,4.8,79.829,25.488,100.517c20.682,20.684,54.34,20.684,75.026-0.004c20.686-20.684,20.684-54.341,0.002-75.024
	C79.828,4.799,46.17,4.799,25.486,25.483z M94.728,94.728c-17.493,17.494-45.962,17.496-63.455,0.002
	c-17.498-17.497-17.495-45.966,0-63.46c17.493-17.493,45.96-17.495,63.457,0.002C112.224,48.766,112.222,77.235,94.728,94.728z
	 M49.411,55.844c-2.258,0-4.09-2.777-4.09-6.203c0-3.423,1.832-6.201,4.09-6.201s4.09,2.777,4.09,6.201
	C53.501,53.067,51.669,55.844,49.411,55.844z M44.714,42.865c-0.21,1.217-1.267,2.076-2.461,2.076c-0.141,0-0.284-0.012-0.428-0.037
	c-1.36-0.235-2.273-1.528-2.039-2.889c0.506-2.931,3.173-8.333,9.83-7.786c1.376,0.113,2.399,1.32,2.286,2.696
	c-0.112,1.376-1.301,2.4-2.696,2.287C45.51,38.901,44.784,42.459,44.714,42.865z M81.619,49.641c0,3.426-1.832,6.203-4.09,6.203
	s-4.09-2.777-4.09-6.203c0-3.423,1.832-6.201,4.09-6.201S81.619,46.217,81.619,49.641z M87.154,42.015
	c0.234,1.361-0.679,2.654-2.039,2.889c-0.144,0.024-0.287,0.037-0.428,0.037c-1.194,0-2.251-0.859-2.461-2.076
	c-0.07-0.406-0.796-3.963-4.492-3.652c-1.396,0.113-2.584-0.911-2.696-2.287c-0.113-1.376,0.91-2.583,2.286-2.696
	C83.981,33.683,86.648,39.084,87.154,42.015z M75.833,81.14c0,8.183-5.755,14.84-12.833,14.84s-12.833-6.657-12.833-14.84
	c0-8.181,5.755-14.835,12.833-14.835S75.833,72.959,75.833,81.14z"/>
</svg>
