<?xml version="1.0" encoding="utf-8"?>
<!-- Generator: Adobe Illustrator 16.0.0, SVG Export Plug-In . SVG Version: 6.00 Build 0)  -->
<!DOCTYPE svg PUBLIC "-//W3C//DTD SVG 1.1//EN" "http://www.w3.org/Graphics/SVG/1.1/DTD/svg11.dtd">
<svg version="1.1" id="Layer_1_copy" xmlns="http://www.w3.org/2000/svg" xmlns:xlink="http://www.w3.org/1999/xlink" x="0px"
	 y="0px" width="126px" height="126px" viewBox="0 0 126 126" enable-background="new 0 0 126 126" xml:space="preserve">
<path stroke="#6D6E70" stroke-width="0" stroke-linecap="round" stroke-linejoin="round" d="M71.328,48.642
	c0-1.198,2.78-2.17,6.203-2.17c3.423,0,6.201,0.972,6.201,2.17c0,1.199-2.777,2.171-6.201,2.171
	C74.108,50.813,71.328,49.841,71.328,48.642z M85.988,74.039c-3.843,8.887-12.843,14.629-22.928,14.629
	c-10.301,0-19.354-5.771-23.064-14.703c-0.636-1.53,0.089-3.286,1.62-3.921c0.376-0.156,0.766-0.23,1.15-0.23
	c1.176,0,2.292,0.696,2.771,1.85c2.777,6.685,9.655,11.004,17.523,11.004c7.69,0,14.528-4.322,17.421-11.011
	c0.658-1.521,2.424-2.222,3.944-1.563C85.946,70.752,86.646,72.518,85.988,74.039z M43.211,48.641c0-3.423,2.777-6.201,6.201-6.201
	c3.423,0,6.2,2.777,6.2,6.201c0,3.426-2.777,6.203-6.2,6.203C45.988,54.844,43.211,52.067,43.211,48.641z"/>
</svg>
