<?xml version="1.0" encoding="utf-8"?>
<!-- Generator: Adobe Illustrator 16.0.0, SVG Export Plug-In . SVG Version: 6.00 Build 0)  -->
<!DOCTYPE svg PUBLIC "-//W3C//DTD SVG 1.1//EN" "http://www.w3.org/Graphics/SVG/1.1/DTD/svg11.dtd">
<svg version="1.1" id="Layer_1" xmlns="http://www.w3.org/2000/svg" xmlns:xlink="http://www.w3.org/1999/xlink" x="0px" y="0px"
	 width="126px" height="126px" viewBox="0 0 126 126" enable-background="new 0 0 126 126" xml:space="preserve">
<path stroke="#6D6E70" stroke-width="0" stroke-linecap="round" stroke-linejoin="round" d="M100.516,100.513
	c20.686-20.684,20.684-54.341,0.002-75.024C79.828,4.8,46.17,4.8,25.486,25.483C4.799,46.17,4.801,79.829,25.488,100.517
	C46.17,121.201,79.828,121.201,100.516,100.513z M63.004,106.334c-5.986-2.165-9.529-6.355-10.531-12.457
	c-0.188-1.142-0.281-2.36-0.279-3.621c0.004-2.584,0.406-4.77,0.693-5.997c0.377-0.064,0.805-0.097,1.273-0.097
	c3.557,0,8.074,1.8,8.113,1.816c0.01,0.004,0.092,0.035,0.104,0.038c0.438,0.151,0.916,0.141,1.357-0.038
	c0.043-0.018,4.551-1.816,8.113-1.816c0.469,0,0.896,0.032,1.275,0.098c0.289,1.223,0.695,3.402,0.705,5.989
	c0.004,1.256-0.088,2.474-0.275,3.62C72.559,99.969,69.01,104.162,63.004,106.334z M50.525,80.801
	c-0.543,0.227-0.955,0.683-1.129,1.251c-0.008,0.026-0.75,2.521-0.99,6.021c-3.48-2.145-5.908-5.182-7.186-9.028
	c-0.369-1.54-0.41-3.828,0.088-4.468c0.068-0.086,0.338-0.122,0.547-0.127c0.326,0.007,0.871,0.054,1.361,0.164
	c2.055,1.013,9.283,4.167,19.539,4.167c6.785,0,13.502-1.399,19.887-4.135c0.996-0.244,1.912-0.244,2.047-0.071
	c0.5,0.643,0.459,2.929,0.102,4.427c-1.287,3.884-3.715,6.922-7.191,9.066c-0.242-3.542-0.984-5.995-0.99-6.014
	c-0.174-0.569-0.584-1.025-1.129-1.253c-1.008-0.421-2.23-0.635-3.633-0.635c-3.389,0-7.195,1.228-8.844,1.823
	c-1.645-0.596-5.445-1.823-8.844-1.823C52.756,80.166,51.533,80.38,50.525,80.801z M31.273,31.271
	c17.492-17.493,45.959-17.495,63.457,0.002c17.494,17.494,17.492,45.963-0.002,63.455c-7.061,7.06-15.906,11.267-25.098,12.629
	c5.533-3.918,7.402-9.565,7.889-14.196c5.98-2.702,10.02-7.126,11.996-13.199c0.057-0.219,1.363-5.4-0.789-8.181
	c-0.871-1.123-2.164-1.692-3.848-1.692c-0.805,0-1.707,0.132-2.752,0.415c-6.279,2.714-12.801,4.09-19.381,4.09
	c-11.178,0-18.76-4.03-18.834-4.07c-0.035-0.019-0.072-0.033-0.109-0.044c-0.848-0.226-1.82-0.365-2.67-0.384v0.002
	c-0.021-0.003-0.041-0.004-0.063-0.004l-0.133-0.005c-0.047,0-0.094,0.008-0.139,0.021c-1.547,0.073-2.742,0.657-3.555,1.738
	c-2.098,2.789-0.814,7.896-0.75,8.144c1.969,6.048,6.01,10.473,11.992,13.173c0.486,4.63,2.357,10.276,7.893,14.194
	c-9.193-1.359-18.045-5.566-25.105-12.628C13.775,77.233,13.777,48.765,31.273,31.271z M43.211,48.642
	c0-3.424,2.777-6.201,6.201-6.201c3.422,0,6.199,2.777,6.199,6.201c0,3.426-2.777,6.203-6.199,6.203
	C45.988,54.845,43.211,52.067,43.211,48.642z M71.326,48.485c0-1.197,2.779-2.17,6.203-2.17s6.201,0.973,6.201,2.17
	c0,1.199-2.777,2.172-6.201,2.172S71.326,49.685,71.326,48.485z"/>
</svg>
