<?xml version="1.0" encoding="utf-8"?>
<!-- Generator: Adobe Illustrator 16.2.0, SVG Export Plug-In . SVG Version: 6.00 Build 0)  -->
<!DOCTYPE svg PUBLIC "-//W3C//DTD SVG 1.1//EN" "http://www.w3.org/Graphics/SVG/1.1/DTD/svg11.dtd">
<svg version="1.1" id="Layer_1" xmlns="http://www.w3.org/2000/svg" xmlns:xlink="http://www.w3.org/1999/xlink" x="0px" y="0px"
	 width="587px" height="543px" viewBox="0 0 587 543" enable-background="new 0 0 587 543" xml:space="preserve">
<style type="text/css">
	<![CDATA[
	 .strip{fill:#F5EC36;}
	]]>
</style>
<path fill-rule="evenodd" clip-rule="evenodd" fill="#9F9F9F" d="M313.514,536.5c-15.941,0-31.884,0-47.827,0
	c-2.279-2.219-5.349-0.047-7.784-1.403c-5.227-2.747-10.964-2.118-16.549-2.503c-9.079-0.096-17.576-3.513-26.463-4.635
	c-5.727-0.724-10.78-2.604-14.874-6.761c1.375-5.162,2.855-10.298,4.102-15.49c7.415-30.896,13.599-62.07,20.678-93.036
	c4.93-21.564,5.677-42.986,2.925-64.792c-2.357-18.676-4.077-37.431-6.214-56.134c-2.1-18.381-4.347-36.744-6.572-55.11
	c-1.698-14.017-4.497-27.995-3.756-42.155c0.805-15.397,2.276-30.773,3.924-46.109c2.495-23.228,5.732-46.365,9.464-69.431
	c1.819-11.25,3.589-22.548,10.551-32.024c7.62-10.373,16.834-17.876,30.949-16.199c8.88,1.055,17.829,1.126,26.779,1.064
	c16.427-0.114,32.854,0.032,49.281-0.094c2.952-0.023,5.302,0.775,7.601,2.535c9.661,7.403,15.002,17.528,17.374,29.079
	c3.492,16.999,5.737,34.224,8.075,51.422c2.625,19.305,4.604,38.678,6.425,58.069c1.371,14.59,1.79,29.126-0.211,43.751
	c-3.011,22.02-5.551,44.107-8.122,66.186c-2.628,22.568-5.216,45.145-7.501,67.749c-1.373,13.571-2.723,27.243-0.071,40.806
	c6.934,35.482,14.779,70.771,22.783,106.026c1.865,8.218,5.251,16.03,6.256,24.454c-0.718,0.355-1.414,0.766-2.157,1.061
	c-19.003,7.521-39.512,6.759-59.172,10.694C326.841,534.836,320.149,535.525,313.514,536.5z"/>
<path fill-rule="evenodd" clip-rule="evenodd" class="strip" d="M288.136,6.5c5.214,1.964,10.697,1.129,16.049,1.384
	c9.376,0.445,18.772,0.488,28.162,0.626c2.31,0.033,4.42,0.597,6.583,1.365c14.186,5.042,27.486,11.758,39.792,20.461
	c1.806,1.277,4.001,2.004,6.016,2.986c0.383,1.727,1.729,2.703,2.97,3.732c12.055,10,22.592,21.383,31.455,34.311
	c16.069,23.438,27.18,49.385,37.886,75.492c11.862,28.923,23.271,58.033,34.875,87.061c-12.146,9.167-25.221,16.142-40.769,17.288
	c-4.589-16.629-9.013-33.304-13.797-49.877c-9.929-34.394-19.009-69.079-34.116-101.744c-4.823-10.427-10.228-20.509-17.056-29.893
	c9.977,40.78,15.896,82.07,18.33,123.875c-0.002,8.03-0.004,16.061-0.006,24.092c0.02,8.419-1.833,16.758-1.185,25.198
	c1.334,17.382,2.738,34.758,4.114,52.138c-0.005,7.802-0.009,15.604-0.014,23.405c-0.391,10.702-1.093,21.404-1.114,32.109
	c-0.058,30.478-0.542,60.958,2.716,91.367c1.377,12.846,2.999,25.642,4.666,38.446c1.379,10.59,5.552,21.046,2.146,31.972
	c-6.655,4.003-14.061,6.335-21.104,9.469c-1.004-8.424-4.39-16.236-6.255-24.454c-8.004-35.255-15.85-70.544-22.783-106.026
	c-2.651-13.563-1.302-27.234,0.071-40.806c2.285-22.604,4.873-45.181,7.501-67.749c2.571-22.079,5.111-44.166,8.122-66.186
	c2.001-14.625,1.582-29.162,0.211-43.751c-1.821-19.391-3.8-38.764-6.425-58.069c-2.338-17.198-4.583-34.423-8.075-51.422
	c-2.372-11.551-7.713-21.676-17.374-29.079c-2.299-1.76-4.648-2.558-7.601-2.535c-16.427,0.126-32.854-0.02-49.281,0.094
	c-8.951,0.062-17.899-0.009-26.779-1.064c-14.115-1.677-23.329,5.826-30.949,16.199c-6.961,9.476-8.731,20.774-10.551,32.024
	c-3.731,23.066-6.969,46.203-9.464,69.431c-1.647,15.336-3.119,30.712-3.924,46.109c-0.74,14.161,2.059,28.138,3.756,42.155
	c2.225,18.366,4.473,36.729,6.572,55.11c2.137,18.703,3.857,37.458,6.214,56.134c2.752,21.806,2.005,43.228-2.925,64.792
	c-7.08,30.966-13.263,62.14-20.678,93.036c-1.247,5.192-2.727,10.328-4.102,15.49c-0.434,0.17-1.027,0.615-1.274,0.47
	c-7.353-4.332-14.671-8.722-21.995-13.103c0.097-2.755-0.196-5.59,0.351-8.252c6.513-31.69,8.81-63.839,10.627-96.044
	c1.122-1.787,0.634-3.787,0.642-5.682c0.057-14.247,0.075-28.496-0.003-42.743c-0.015-2.707,0.54-5.493-0.603-8.131
	c-0.122-2.746-0.177-5.497-0.377-8.237c-0.88-12.073-2.298-24.18-1.493-36.257c1.167-17.486,3.167-34.917,4.813-52.372
	c0.996-5.476,1.117-10.949-0.039-16.419c-0.64-3.504-1.09-6.997-1.179-10.596c-0.603-24.34,0.329-48.597,4.051-72.676
	c2.243-14.505,3.726-29.118,6.583-43.541c2.227-11.239,5.791-22.186,7.213-33.593c0.426-0.43,0.899-0.852,0.217-1.449
	c-0.19,0.381-0.381,0.762-0.571,1.143c-3.708,4.164-6.117,9.14-8.722,13.987c-17.397,32.359-27.589,67.409-37.898,102.379
	c-6.26,21.234-11.802,42.681-17.667,64.032c-14.914-1.702-28.651-6.62-41.097-15.056c0.089-0.479,0.1-0.99,0.278-1.433
	c16.712-41.678,32.105-83.906,51.156-124.615c11.059-23.632,24.271-45.867,43.278-64.234c5.961-5.76,12.682-10.579,18.672-16.265
	c8.61-4.13,17.989-8.22,24.524-14.383c7.107-6.702,15.424-8.029,23.252-11.628C271.218,6.5,279.677,6.5,288.136,6.5z"/>
<path fill-rule="evenodd" clip-rule="evenodd" fill="#5A5A5A" d="M257.903,535.097c-5.475-1.104-11.191-0.616-16.549-2.503
	C246.939,532.979,252.677,532.35,257.903,535.097z"/>
<path fill-rule="evenodd" clip-rule="evenodd" fill="#040404" d="M190.707,250.848c-1.645,17.454-3.645,34.885-4.813,52.372
	c-0.806,12.077,0.613,24.184,1.493,36.257c0.2,2.74,0.256,5.491,0.377,8.231c-0.012,18.85-0.024,37.706-0.036,56.562
	c-1.817,32.205-4.115,64.354-10.627,96.044c-0.547,2.662-0.254,5.497-0.351,8.252c-3.202-1.099-5.427-3.479-7.587-5.896
	c-2.224-2.49-4.183-4.945-7.407-6.647c-3.613-1.908-4.321-6.429-4.125-10.359c0.684-13.695,4.223-26.896,8.892-39.63
	c1.576-4.3,0.505-7.409-0.187-11.07c0.237-0.74,0.73-1.502,0.671-2.219c-0.446-5.45,1.236-10.052,4.755-14.255
	c2.598-3.102,4.09-6.929,5.346-10.788c0.496-1.526,1.366-3.14-0.996-3.939c0.138-1.644,0.021-3.288-0.967-4.639
	c-4.703-6.435-4.718-13.753-4.427-21.262c0.229-5.934-0.127-11.891-0.223-17.836c1.171-0.325,1.254-1.312,1.434-2.28
	c1.234-6.661,2.948-13.271,3.631-19.986c1.008-9.919,2.107-19.96-1.662-29.661c-0.676-11.905,0.967-23.627,2.464-35.396
	c1.299-10.208-1.546-20.214-2.451-30.448c-1.813,10.227-10.188,10.671-17.625,12.019c-4.444,0.806-9.066,0.612-13.589-0.157
	c5.865-21.351,11.407-42.798,17.667-64.032c10.309-34.97,20.501-70.02,37.898-102.379c2.605-4.847,5.014-9.824,8.722-13.987
	l0.356,0.309c-1.425,11.405-4.989,22.351-7.216,33.59c-2.858,14.423-4.341,29.036-6.583,43.541
	c-3.722,24.08-4.654,48.336-4.051,72.676c0.089,3.599,0.539,7.092,1.179,10.591C190.68,239.896,190.693,245.372,190.707,250.848z"/>
<path fill-rule="evenodd" clip-rule="evenodd" fill="#040404" d="M214.982,32.511c-5.99,5.686-12.711,10.505-18.672,16.265
	c-19.007,18.367-32.219,40.602-43.278,64.234c-19.051,40.709-34.443,82.937-51.156,124.615c-0.178,0.443-0.189,0.953-0.278,1.433
	c-7.261-5.031-15.994-7.552-22.627-13.805c-2.282-2.15-6.38-1.99-9.196-4.088c-2.457-1.83-3.644-3.188-1.677-6.624
	c4.473-7.815,5.662-16.86,7.935-25.445c6.917-26.133,18.497-50.474,28.632-75.356c3.492-8.573,9.066-16.12,15.999-22.442
	c1.328-1.21,1.875-2.648,2.178-4.206c0.963-4.96,3.739-8.792,7.948-11.188c22.799-12.986,44.297-28.246,68.318-39.106
	C204.192,34.498,209.409,32.897,214.982,32.511z"/>
<path fill-rule="evenodd" clip-rule="evenodd" fill="#5A5A5A" d="M173.896,308.098c3.77,9.701,2.67,19.742,1.662,29.661
	c-0.683,6.715-2.396,13.325-3.631,19.986c-0.18,0.969-0.262,1.955-1.434,2.28c0.649-11.664,1.124-23.34,2.024-34.983
	C172.955,319.396,172.407,313.657,173.896,308.098z"/>
<path fill-rule="evenodd" clip-rule="evenodd" fill="#5A5A5A" d="M176.111,403.762c2.362,0.8,1.492,2.413,0.996,3.939
	c-1.255,3.859-2.748,7.687-5.346,10.788c-3.519,4.203-5.201,8.805-4.755,14.255c0.059,0.717-0.434,1.479-0.671,2.219
	c-2.115-2.558-1.58-5.654-0.989-8.338C167.191,418.235,170.567,410.461,176.111,403.762z"/>
<path fill-rule="evenodd" clip-rule="evenodd" fill="#040404" d="M404.517,193.569c-2.434-41.806-8.354-83.096-18.33-123.875
	c6.828,9.384,12.232,19.466,17.056,29.893c15.107,32.665,24.188,67.35,34.116,101.744c4.784,16.573,9.208,33.248,13.797,49.877
	c-9.202,0.926-18.063-0.856-27.378-3.711c1.222,13.231,1.168,26.16,1.662,39.08c1.153,30.195,3.026,60.353,4.167,90.545
	c0.331,8.763,0.593,17.533,1.191,26.279c0.844,12.346,0.746,24.657,0.038,37.012c-0.888,15.465,1.01,30.743,4.047,45.905
	c0.567,2.834,0.545,5.813,0.558,8.726c0.019,4.219-1.857,7.481-5.494,9.683c-4.57,2.767-9.108,5.594-14.104,7.571
	c3.404-10.925-0.769-21.381-2.147-31.971c-1.667-12.805-3.289-25.601-4.666-38.446c-3.258-30.409-2.773-60.89-2.716-91.367
	c0.021-10.705,0.724-21.407,1.113-32.105c1.124-7.799,1.089-15.604,0.015-23.409c-1.376-17.38-2.78-34.756-4.114-52.138
	c-0.648-8.44,1.204-16.779,1.183-25.192C405.508,209.64,405.563,201.604,404.517,193.569z"/>
<path fill-rule="evenodd" clip-rule="evenodd" fill="#040404" d="M491.924,233.919c-11.604-29.028-23.013-58.138-34.875-87.061
	c-10.706-26.106-21.816-52.054-37.886-75.492c-8.863-12.928-19.4-24.311-31.455-34.311c-1.241-1.029-2.587-2.005-2.97-3.732
	c15.442,7.133,30.949,14.133,46.297,21.465c6.415,3.065,13.532,4.592,19.357,8.942c6.72,5.016,12.336,10.99,16.699,18.188
	c7.818,12.899,15.595,25.821,22.667,39.148c6.391,12.044,8.304,25.521,12.09,38.393c2.194,7.461,4.033,15.026,6.065,22.535
	c1.96,7.24,4.663,14.067,9.252,20.19c4.673,6.234,4.287,6.921-2.457,10.307c-5.646,2.834-10.095,7.007-13.694,12.162
	C498.507,228.242,495.853,231.712,491.924,233.919z"/>
<path fill-rule="evenodd" clip-rule="evenodd" fill="#5A5A5A" d="M187.728,404.27c0.012-18.855,0.023-37.712,0.036-56.562
	c1.143,2.644,0.588,5.43,0.603,8.137c0.078,14.247,0.06,28.496,0.003,42.743C188.362,400.482,188.85,402.482,187.728,404.27z"/>
<path fill-rule="evenodd" clip-rule="evenodd" fill="#5A5A5A" d="M404.517,193.569c1.046,8.035,0.991,16.071-0.008,24.098
	C404.513,209.63,404.515,201.599,404.517,193.569z"/>
<path fill-rule="evenodd" clip-rule="evenodd" fill="#5A5A5A" d="M407.44,294.997c1.074,7.805,1.109,15.61-0.015,23.409
	C407.432,310.601,407.436,302.799,407.44,294.997z"/>
<path fill-rule="evenodd" clip-rule="evenodd" fill="#5A5A5A" d="M190.707,250.848c-0.013-5.477-0.026-10.953-0.039-16.424
	C191.823,239.899,191.702,245.372,190.707,250.848z"/>
<path fill-rule="evenodd" clip-rule="evenodd" fill="#040404" d="M206.983,73.716c0.19-0.381,0.381-0.761,0.571-1.143
	c0.682,0.597,0.209,1.019-0.217,1.449C207.339,74.025,206.983,73.716,206.983,73.716z"/>
</svg>
