<?xml version="1.0" encoding="utf-8"?>
<!-- Generator: Adobe Illustrator 16.2.0, SVG Export Plug-In . SVG Version: 6.00 Build 0)  -->
<!DOCTYPE svg PUBLIC "-//W3C//DTD SVG 1.1//EN" "http://www.w3.org/Graphics/SVG/1.1/DTD/svg11.dtd">
<svg version="1.1" id="Layer_1" xmlns="http://www.w3.org/2000/svg" xmlns:xlink="http://www.w3.org/1999/xlink" x="0px" y="0px"
	 width="587px" height="543px" viewBox="0 0 587 543" enable-background="new 0 0 587 543" xml:space="preserve">
<path fill-rule="evenodd" clip-rule="evenodd" fill="#010101" d="M290.999,11.621c58.887,0.001,111.434,2.819,162.292,19.064
	c28.645,9.149,56.977,19.128,83.966,32.638c6.145,3.075,8.063,5.937,5.859,12.952c-38.397,122.247-76.556,244.569-114.697,366.896
	c-7.862,25.213-15.644,50.452-23.025,75.808c-1.71,5.874-4.658,7.738-10.413,7.67c-18.155-0.221-36.342,0.528-54.461-0.289
	c-12.479-0.564-23.499,6.543-36.064,5.057c-7.74-0.916-15.683-0.155-23.534-0.092c-4.232,0.034-8.31-0.505-12.026-2.705
	c-3.806-2.253-8.033-1.943-12.186-1.952c-22.328-0.054-44.658-0.237-66.983,0.013c-5.864,0.066-8.564-1.857-10.32-7.604
	c-37.081-121.362-74.397-242.65-111.587-363.979c-8.17-26.655-15.865-53.457-24.165-80.07c-1.765-5.661-0.503-8.243,4.677-10.874
	C100.809,37.5,156.17,20.883,214.703,14.174C242.146,11.03,269.572,12.025,290.999,11.621z"/>
</svg>
