<?xml version="1.0" encoding="utf-8"?>
<!-- Generator: Adobe Illustrator 21.0.0, SVG Export Plug-In . SVG Version: 6.00 Build 0)  -->
<svg version="1.1" id="Layer_1" xmlns="http://www.w3.org/2000/svg" xmlns:xlink="http://www.w3.org/1999/xlink" x="0px" y="0px"
	 width="590px" height="530px" viewBox="0 0 590 530" enable-background="new 0 0 590 530" xml:space="preserve">
<g id="la_x7C_Main_Color_x7C_main">
	<path fill="#040404" d="M195.3,245c-1.6,16.9-3.5,33.8-4.7,50.8c-0.8,11.7,0.6,23.5,1.4,35.2c0.2,2.7,0.2,5.3,0.4,8
		c0,18.3,0,36.6,0,54.9c-1.8,31.2-4,62.4-10.3,93.2c-0.5,2.6-0.2,5.3-0.3,8c-3.1-1.1-5.3-3.4-7.4-5.7c-2.2-2.4-4.1-4.8-7.2-6.4
		c-3.5-1.9-4.2-6.2-4-10c0.7-13.3,4.1-26.1,8.6-38.4c1.5-4.2,0.5-7.2-0.2-10.7c0.2-0.7,0.7-1.5,0.7-2.2c-0.4-5.3,1.2-9.8,4.6-13.8
		c2.5-3,4-6.7,5.2-10.5c0.5-1.5,1.3-3-1-3.8c0.1-1.6,0-3.2-0.9-4.5c-4.6-6.2-4.6-13.3-4.3-20.6c0.2-5.8-0.1-11.5-0.2-17.3
		c1.1-0.3,1.2-1.3,1.4-2.2c1.2-6.5,2.9-12.9,3.5-19.4c1-9.6,2-19.4-1.6-28.8c-0.7-11.5,0.9-22.9,2.4-34.3c1.3-9.9-1.5-19.6-2.4-29.5
		c-1.8,9.9-9.9,10.4-17.1,11.7c-4.3,0.8-8.8,0.6-13.2-0.2c5.7-20.7,11.1-41.5,17.1-62.1c10-33.9,19.9-67.9,36.8-99.3
		c2.5-4.7,4.9-9.5,8.5-13.6l0.3,0.3c-1.4,11.1-4.8,21.7-7,32.6c-2.8,14-4.2,28.2-6.4,42.2c-3.6,23.4-4.5,46.9-3.9,70.5
		c0.1,3.5,0.5,6.9,1.1,10.3C195.3,234.3,195.3,239.7,195.3,245z"/>
	<path fill="#040404" d="M218.8,33.2c-5.8,5.5-12.3,10.2-18.1,15.8c-18.4,17.8-31.3,39.4-42,62.3c-18.5,39.5-33.4,80.4-49.6,120.9
		c-0.2,0.4-0.2,0.9-0.3,1.4c-7-4.9-15.5-7.3-21.9-13.4c-2.2-2.1-6.2-1.9-8.9-4c-2.4-1.8-3.5-3.1-1.6-6.4c4.3-7.6,5.5-16.4,7.7-24.7
		c6.7-25.3,17.9-49,27.8-73.1c3.4-8.3,8.8-15.6,15.5-21.8c1.3-1.2,1.8-2.6,2.1-4.1c0.9-4.8,3.6-8.5,7.7-10.9
		c22.1-12.6,43-27.4,66.3-37.9C208.4,35.1,213.4,33.6,218.8,33.2z"/>
	<path fill="#040404" d="M402.7,189.4c-2.4-40.6-8.1-80.6-17.8-120.2c6.6,9.1,11.9,18.9,16.5,29c14.7,31.7,23.5,65.3,33.1,98.7
		c4.6,16.1,8.9,32.3,13.4,48.4c-8.9,0.9-17.5-0.8-26.6-3.6c1.2,12.8,1.1,25.4,1.6,37.9c1.1,29.3,2.9,58.5,4,87.8
		c0.3,8.5,0.6,17,1.2,25.5c0.8,12,0.7,23.9,0,35.9c-0.9,15,1,29.8,3.9,44.5c0.5,2.7,0.5,5.6,0.5,8.5c0,4.1-1.8,7.3-5.3,9.4
		c-4.4,2.7-8.8,5.4-13.7,7.3c3.3-10.6-0.7-20.7-2.1-31c-1.6-12.4-3.2-24.8-4.5-37.3c-3.2-29.5-2.7-59.1-2.6-88.6
		c0-10.4,0.7-20.8,1.1-31.1c1.1-7.6,1.1-15.1,0-22.7c-1.3-16.9-2.7-33.7-4-50.6c-0.6-8.2,1.2-16.3,1.1-24.4
		C403.7,205,403.7,197.2,402.7,189.4z"/>
	<path fill="#040404" d="M487.5,228.5c-11.3-28.2-22.3-56.4-33.8-84.4c-10.4-25.3-21.2-50.5-36.7-73.2
		c-8.6-12.5-18.8-23.6-30.5-33.3c-1.2-1-2.5-1.9-2.9-3.6c15,6.9,30,13.7,44.9,20.8c6.2,3,13.1,4.5,18.8,8.7
		c6.5,4.9,12,10.7,16.2,17.6c7.6,12.5,15.1,25,22,38c6.2,11.7,8.1,24.8,11.7,37.2c2.1,7.2,3.9,14.6,5.9,21.9c1.9,7,4.5,13.6,9,19.6
		c4.5,6,4.2,6.7-2.4,10c-5.5,2.7-9.8,6.8-13.3,11.8C493.9,223,491.3,226.4,487.5,228.5z"/>
</g>
<path id="la_x7C_Secondary_Color_x7C_second" fill="#F5EC36" d="M289.8,7.9c5.1,1.9,10.4,1.1,15.6,1.3c9.1,0.4,18.2,0.5,27.3,0.6
	c2.2,0,4.3,0.6,6.4,1.3c13.8,4.9,26.7,11.4,38.6,19.8c1.8,1.2,3.9,1.9,5.8,2.9c0.4,1.7,1.7,2.6,2.9,3.6
	c11.7,9.7,21.9,20.7,30.5,33.3c15.6,22.7,26.4,47.9,36.7,73.2c11.5,28.1,22.6,56.3,33.8,84.4c-11.8,8.9-24.5,15.7-39.5,16.8
	c-4.5-16.1-8.7-32.3-13.4-48.4c-9.6-33.4-18.4-67-33.1-98.7c-4.7-10.1-9.9-19.9-16.5-29c9.7,39.6,15.4,79.6,17.8,120.2
	c0,7.8,0,15.6,0,23.4c0,8.2-1.8,16.3-1.2,24.4c1.3,16.9,2.7,33.7,4,50.6c0,7.6,0,15.1,0,22.7c-0.4,10.4-1.1,20.8-1.1,31.1
	c-0.1,29.6-0.5,59.1,2.6,88.6c1.3,12.5,2.9,24.9,4.5,37.3c1.3,10.3,5.4,20.4,2.1,31c-6.5,3.9-13.6,6.1-20.5,9.2
	c-1-8.2-4.3-15.7-6.1-23.7c-7.8-34.2-15.4-68.4-22.1-102.8c-2.6-13.2-1.3-26.4,0.1-39.6c2.2-21.9,4.7-43.8,7.3-65.7
	c2.5-21.4,5-42.8,7.9-64.2c1.9-14.2,1.5-28.3,0.2-42.4c-1.8-18.8-3.7-37.6-6.2-56.3c-2.3-16.7-4.4-33.4-7.8-49.9
	c-2.3-11.2-7.5-21-16.9-28.2c-2.2-1.7-4.5-2.5-7.4-2.5c-15.9,0.1-31.9,0-47.8,0.1c-8.7,0.1-17.4,0-26-1c-13.7-1.6-22.6,5.7-30,15.7
	c-6.8,9.2-8.5,20.2-10.2,31.1c-3.6,22.4-6.8,44.8-9.2,67.3c-1.6,14.9-3,29.8-3.8,44.7c-0.7,13.7,2,27.3,3.6,40.9
	c2.2,17.8,4.3,35.6,6.4,53.5c2.1,18.1,3.7,36.3,6,54.4c2.7,21.2,1.9,41.9-2.8,62.8c-6.9,30-12.9,60.3-20.1,90.2c-1.2,5-2.6,10-4,15
	c-0.4,0.2-1,0.6-1.2,0.5c-7.1-4.2-14.2-8.5-21.3-12.7c0.1-2.7-0.2-5.4,0.3-8c6.3-30.7,8.5-61.9,10.3-93.2c1.1-1.7,0.6-3.7,0.6-5.5
	c0.1-13.8,0.1-27.6,0-41.5c0-2.6,0.5-5.3-0.6-7.9c-0.1-2.7-0.2-5.3-0.4-8c-0.9-11.7-2.2-23.5-1.4-35.2c1.1-17,3.1-33.9,4.7-50.8
	c1-5.3,1.1-10.6,0-15.9c-0.6-3.4-1.1-6.8-1.1-10.3c-0.6-23.6,0.3-47.1,3.9-70.5c2.2-14.1,3.6-28.2,6.4-42.2
	c2.2-10.9,5.6-21.5,7-32.6c0.4-0.4,0.9-0.8,0.2-1.4c-0.2,0.4-0.4,0.7-0.6,1.1c-3.6,4-5.9,8.9-8.5,13.6
	c-16.9,31.4-26.8,65.4-36.8,99.3c-6.1,20.6-11.4,41.4-17.1,62.1c-14.5-1.7-27.8-6.4-39.9-14.6c0.1-0.5,0.1-1,0.3-1.4
	c16.2-40.4,31.1-81.4,49.6-120.9c10.7-22.9,23.5-44.5,42-62.3c5.8-5.6,12.3-10.3,18.1-15.8c8.4-4,17.4-8,23.8-14
	c6.9-6.5,15-7.8,22.6-11.3C273.4,7.9,281.6,7.9,289.8,7.9z"/>
<path id="la_x7C_Third_Color_x7C_third" fill="#9F9F9F" d="M314.4,522c-15.5,0-30.9,0-46.4,0c-2.2-2.2-5.2,0-7.6-1.4
	c-5.1-2.7-10.6-2.1-16.1-2.4c-8.8-0.1-17-3.4-25.7-4.5c-5.6-0.7-10.5-2.5-14.4-6.6c1.3-5,2.8-10,4-15c7.2-30,13.2-60.2,20.1-90.2
	c4.8-20.9,5.5-41.7,2.8-62.8c-2.3-18.1-4-36.3-6-54.4c-2-17.8-4.2-35.6-6.4-53.5c-1.6-13.6-4.4-27.2-3.6-40.9
	c0.8-14.9,2.2-29.8,3.8-44.7c2.4-22.5,5.6-45,9.2-67.3c1.8-10.9,3.5-21.9,10.2-31.1c7.4-10.1,16.3-17.3,30-15.7c8.6,1,17.3,1.1,26,1
	c15.9-0.1,31.9,0,47.8-0.1c2.9,0,5.1,0.8,7.4,2.5c9.4,7.2,14.6,17,16.9,28.2c3.4,16.5,5.6,33.2,7.8,49.9c2.5,18.7,4.5,37.5,6.2,56.3
	c1.3,14.2,1.7,28.3-0.2,42.4c-2.9,21.4-5.4,42.8-7.9,64.2c-2.5,21.9-5.1,43.8-7.3,65.7c-1.3,13.2-2.6,26.4-0.1,39.6
	c6.7,34.4,14.3,68.6,22.1,102.8c1.8,8,5.1,15.5,6.1,23.7c-0.7,0.3-1.4,0.7-2.1,1c-18.4,7.3-38.3,6.6-57.4,10.4
	C327.3,520.4,320.9,521.1,314.4,522z"/>
<path fill="#5A5A5A" d="M260.5,520.7c-5.3-1.1-10.9-0.6-16.1-2.4C249.8,518.6,255.4,518,260.5,520.7z"/>
<path fill="#5A5A5A" d="M179,300.5c3.7,9.4,2.6,19.1,1.6,28.8c-0.7,6.5-2.3,12.9-3.5,19.4c-0.2,0.9-0.3,1.9-1.4,2.2
	c0.6-11.3,1.1-22.6,2-33.9C178.1,311.5,177.5,305.9,179,300.5z"/>
<path fill="#5A5A5A" d="M181.1,393.3c2.3,0.8,1.4,2.3,1,3.8c-1.2,3.7-2.7,7.5-5.2,10.5c-3.4,4.1-5,8.5-4.6,13.8
	c0.1,0.7-0.4,1.4-0.7,2.2c-2.1-2.5-1.5-5.5-1-8.1C172.5,407.3,175.8,399.8,181.1,393.3z"/>
<path fill="#5A5A5A" d="M192.4,393.8c0-18.3,0-36.6,0-54.9c1.1,2.6,0.6,5.3,0.6,7.9c0.1,13.8,0.1,27.6,0,41.5
	C193,390.1,193.5,392.1,192.4,393.8z"/>
<path fill="#5A5A5A" d="M402.7,189.4c1,7.8,1,15.6,0,23.4C402.7,205,402.7,197.2,402.7,189.4z"/>
<path fill="#5A5A5A" d="M405.5,287.8c1,7.6,1.1,15.1,0,22.7C405.5,302.9,405.5,295.4,405.5,287.8z"/>
<path fill="#5A5A5A" d="M195.3,245c0-5.3,0-10.6,0-15.9C196.4,234.3,196.3,239.7,195.3,245z"/>
</svg>
