<?xml version="1.0" encoding="utf-8"?>
<!-- Generator: Adobe Illustrator 21.0.0, SVG Export Plug-In . SVG Version: 6.00 Build 0)  -->
<svg version="1.1" id="Layer_1" xmlns="http://www.w3.org/2000/svg" xmlns:xlink="http://www.w3.org/1999/xlink" x="0px" y="0px"
	 width="590px" height="530px" viewBox="0 0 590 530" enable-background="new 0 0 590 530" xml:space="preserve">
<path id="la_x7C_Main_Color_x7C_main" fill="#010101" d="M292.6,12.9c57.1,0,108.1,2.7,157.4,18.5c27.8,8.9,55.3,18.6,81.4,31.7
	c6,3,7.8,5.8,5.7,12.6c-37.2,118.6-74.3,237.2-111.3,355.9c-7.6,24.5-15.2,48.9-22.3,73.5c-1.7,5.7-4.5,7.5-10.1,7.4
	c-17.6-0.2-35.3,0.5-52.8-0.3c-12.1-0.5-22.8,6.3-35,4.9c-7.5-0.9-15.2-0.2-22.8-0.1c-4.1,0-8.1-0.5-11.7-2.6
	c-3.7-2.2-7.8-1.9-11.8-1.9c-21.7-0.1-43.3-0.2-65,0c-5.7,0.1-8.3-1.8-10-7.4c-36-117.7-72.2-235.4-108.2-353.1
	c-7.9-25.9-15.4-51.9-23.4-77.7c-1.7-5.5-0.5-8,4.5-10.5c50.9-25.9,104.6-42,161.4-48.5C245.2,12.3,271.8,13.3,292.6,12.9z"/>
</svg>
