<?xml version="1.0" encoding="utf-8"?>
<!-- Generator: Adobe Illustrator 16.2.0, SVG Export Plug-In . SVG Version: 6.00 Build 0)  -->
<!DOCTYPE svg PUBLIC "-//W3C//DTD SVG 1.1//EN" "http://www.w3.org/Graphics/SVG/1.1/DTD/svg11.dtd">
<svg version="1.1" id="Layer_1" xmlns="http://www.w3.org/2000/svg" xmlns:xlink="http://www.w3.org/1999/xlink" x="0px" y="0px"
	 width="587px" height="543px" viewBox="0 0 587 543" enable-background="new 0 0 587 543" xml:space="preserve">
<style type="text/css">
	<![CDATA[
	 .strip{fill:#F5EC36;}
	]]>
</style>
<path fill-rule="evenodd" clip-rule="evenodd" fill="#9F9F9F" d="M325.232,536.5c-13.664,0-27.329,0-40.994,0
	c-0.547-0.292-1.082-0.813-1.643-0.843c-19.663-1.052-38.849-5.294-58.157-8.698c-10.999-1.94-21.961-4.078-32.94-6.127
	c-0.917-1.423-0.305-2.863,0.068-4.231c8.85-32.459,14.389-65.628,21.088-98.546c2.554-12.55,5.139-25.101,4.58-38.104
	c-0.832-19.345-3.246-38.525-5.252-57.75c-2.428-23.264-5.031-46.509-7.544-69.764c-1.465-13.559-3.794-27.064-2.839-40.788
	c2.247-32.262,6.153-64.337,10.291-96.407c2.75-21.316,7.869-40.906,27.439-53.332c13.023,4.098,26.065,7.56,39.983,7.379
	c22.375-0.291,42.779-6.41,61.419-18.664c14.982,5.816,24.495,16.567,28.149,32.153c3.736,15.938,6.416,32.097,9.052,48.251
	c2.737,16.781,4.963,33.632,7.193,50.489c2.246,16.973,3.667,33.905,1.396,50.925c-2.535,19-3.809,38.113-5.549,57.185
	c-1.978,21.68-3.729,43.382-5.447,65.086c-1.353,17.066-1.279,33.965,2.954,50.839c9.755,38.885,18.289,78.083,30.569,116.303
	c-1.812-0.339-3.517,0.12-5.263,0.566c-21.822,5.575-43.573,11.452-66.236,12.794C333.462,535.459,329.161,534.479,325.232,536.5z"
	/>
<path fill-rule="evenodd" clip-rule="evenodd" fill="#3E3E3E" d="M301.808,6.5c4.605,1.882,9.636,1.694,14.377,2.955
	c9.056,2.41,18.198,4.578,25.624,10.831c1.54,6.887-1.751,11.472-6.701,15.85c-8.333,7.372-18.414,10.537-28.812,12.947
	c-21.35,4.949-42.604,6.634-63.485-2.489c-10.068-4.399-13.093-9.749-10.645-20.218c0.06-0.258-0.211-0.593-0.327-0.893
	c0,0,0.278-0.263,0.277-0.257c0.184,0.163,0.368,0.32,0.552,0.477c-0.065-0.225-0.13-0.45-0.195-0.676
	c9.545-9.846,21.833-13.896,34.803-16.589c2.736-0.568,5.761-0.017,8.178-1.938C284.238,6.5,293.023,6.5,301.808,6.5z
	 M300.131,23.337C300.127,23.495,300.135,23.179,300.131,23.337c4.25,0,8.9,0,13.151,0c0.136-0.158-0.137,0.158,0,0"/>
<path fill-rule="evenodd" clip-rule="evenodd" class="strip" d="M424.718,516.011c-4.34,2.297-8.699,4.56-13.011,6.91
	c-1.442,0.786-2.379,0.817-2.657-1.063c-12.28-38.221-20.814-77.419-30.569-116.304c-4.233-16.874-4.307-33.772-2.954-50.839
	c1.719-21.704,3.47-43.406,5.447-65.086c1.74-19.072,3.014-38.184,5.549-57.185c2.271-17.02,0.851-33.952-1.396-50.925
	c-2.23-16.857-4.456-33.708-7.193-50.489c-2.636-16.154-5.315-32.313-9.052-48.251c-3.654-15.585-13.167-26.336-28.148-32.153
	c2.563-3.339,5.925-6.055,7.856-9.876c1.393-2.757,3.085-2.969,5.898-1.75c16.717,7.248,32.049,16.832,44.825,29.681
	c17.421,17.522,32.812,36.583,42.345,59.981c8.997,22.082,19.448,43.566,28.96,65.444c3.019,6.942,7.098,13.548,8.023,21.302
	c-10.058,5.096-20.749,8.507-31.472,11.828c-1.796-1.648-2.06-4.013-2.757-6.135c-8.971-27.282-17.4-54.743-28.346-81.348
	c-7.054-17.142-14.396-34.107-24.71-49.602c-1.302-1.956-2.115-4.6-5.606-5.414c4.108,10.455,6.581,20.688,8.728,30.941
	c5.11,24.406,10.43,48.777,13.141,73.634c1.581,14.505,3.523,28.883,1.859,43.577c-0.813,7.184-0.676,14.549,0.188,21.866
	c2.063,17.506,5.446,34.849,6.528,52.476c-0.019,25.978-0.04,51.956-0.04,77.934c0,1.267-0.246,2.63,0.791,3.693
	c0.413,7.863,0.826,15.727,1.238,23.591c-0.016,5.627,0.724,11.175,1.753,16.692c0.191,9.046,1.718,17.959,3.007,26.872
	c1.729,11.949,3.27,23.964,6.727,35.599c-0.025,1.246,0.049,2.464,0.979,3.437c1.146,6.259,0.625,12.352-1.823,18.252
	c0,0,0.072-0.165,0.072-0.164c-0.392,0.334-0.784,0.669-1.176,1.003l0.081-0.062c-0.979-0.062-1.615,0.419-2.012,1.276l0.001-0.276
	c0,0,0.276,0.012,0.277,0.014C425.619,515.399,425.168,515.704,424.718,516.011z"/>
<path fill-rule="evenodd" clip-rule="evenodd" fill="#040404" d="M478.642,215.407c-0.926-7.753-5.005-14.36-8.023-21.302
	c-9.512-21.877-19.963-43.362-28.96-65.444c-9.533-23.398-24.924-42.458-42.345-59.981C386.537,55.831,371.205,46.248,354.488,39
	c-2.813-1.219-4.506-1.006-5.898,1.75c-1.932,3.822-5.294,6.538-7.856,9.876c-18.642,12.253-39.045,18.373-61.42,18.664
	c-13.918,0.18-26.96-3.282-39.983-7.379c-3.302-2.021-7.285-2.867-10.125-5.653c-1.958-1.922-3.575-1.744-5.974-0.446
	c-26.592,14.38-45.782,35.808-59.728,62.272c-4.135,7.848-8.108,15.781-12.155,23.675c-0.194-3.179-1.14-6.032-3.458-8.724
	c-0.828,4.693,0.199,8.775,0.857,12.886c-0.029,2.626-0.734,5.044-1.735,7.494c-3.246,7.943-6.253,15.983-9.4,23.967
	c-0.582,1.478-0.972,3.144-2.608,3.953c-4.605-7.506-9.211-15.013-13.815-22.521c0.041-1.099,0.227-2.244-0.962-2.941
	c-0.085-0.43-0.17-0.86-0.254-1.291c-0.161,0.134-0.323,0.266-0.484,0.399c0.27,0.275,0.541,0.552,0.81,0.828
	c-0.065,1.108-0.132,2.217,0.964,2.945c2.271,9.247,7.055,17.085,13.451,24.023c0.309,1.711-0.521,3.194-1.065,4.688
	c-5.439,14.933-10.778,29.905-16.518,44.722c-1.725,4.454-1.954,9.394-4.633,13.489c-9.648-6.373-19.981-11.353-30.99-14.852
	c-3.366-1.069-4.54-2.16-3.389-6.122c7.092-24.409,13.522-49.085,22.915-72.685c6.351-15.956,10.944-32.447,17.091-48.425
	c1.354-3.52,3.219-5.937,6.917-7.451c6.525-2.672,11.988-7.225,16.905-12.151c10.083-10.103,21.852-17.952,34.058-24.94
	c15.119-8.656,28.856-19.785,45.728-25.462c3.844-1.294,6.767-5.324,10.11-8.099c0.113,0.294,0.384,0.629,0.324,0.888
	c-2.448,10.469,0.577,15.819,10.645,20.218c20.881,9.123,42.136,7.438,63.485,2.489c10.397-2.411,20.479-5.575,28.812-12.947
	c4.95-4.378,8.241-8.962,6.701-15.85c4.599,2.496,8.734,5.81,13.653,7.74c0.628,2.521,2.273,3.779,4.651,4.54
	c0.549-2.385-1.161-3.14-1.631-4.482c4.891,0.808,8.921,3.675,13.242,5.756c15.785,7.605,32.198,13.591,48.72,19.297
	c3.915,1.353,7.238,3.293,10.375,6c5.979,5.156,11.65,10.933,19.909,12.533c1.636,0.316,2.119,1.912,2.961,3.051
	c14.183,19.188,24.283,40.57,32.383,62.813c7.149,19.631,14.211,39.259,23.3,58.086c1.415,2.929,1.203,4.441-1.925,5.892
	C497.776,205.995,488.233,210.755,478.642,215.407z M130.012,118.773c-0.088-0.051-0.176-0.103-0.265-0.155
	c0.104,0.035,0.207,0.07,0.311,0.106c1.019,6.782,4.41,12.781,6.367,19.259c1.612,5.337,3.522,10.583,5.3,15.87
	C142.033,140.683,139.049,128.67,130.012,118.773z M480.487,139.015c-3.182,12.858-2.708,31.202,0.564,35.472
	C483.002,162.618,482.896,150.817,480.487,139.015z"/>
<path fill-rule="evenodd" clip-rule="evenodd" class="strip" d="M135.004,181.333c1.636-0.809,2.026-2.475,2.608-3.953
	c3.147-7.984,6.154-16.024,9.4-23.967c1.001-2.45,1.707-4.868,1.735-7.494c0.867-1.387,1.734-2.774,2.601-4.162
	c4.047-7.894,8.02-15.827,12.155-23.675c13.945-26.464,33.135-47.893,59.728-62.272c2.399-1.297,4.017-1.476,5.974,0.446
	c2.84,2.787,6.823,3.632,10.125,5.653c-19.57,12.426-24.688,32.016-27.439,53.332c-4.138,32.07-8.044,64.146-10.291,96.407
	c-0.956,13.724,1.374,27.229,2.839,40.788c2.513,23.255,5.116,46.5,7.544,69.764c2.006,19.225,4.42,38.405,5.252,57.75
	c0.559,13.003-2.026,25.554-4.58,38.104c-6.699,32.918-12.239,66.087-21.088,98.546c-0.373,1.368-0.984,2.809-0.068,4.231
	c-0.716,1.932-1.879,1.158-3.017,0.492c-4.503-2.638-9.004-5.278-13.506-7.919c-0.452-0.386-0.903-0.771-1.355-1.155
	c0,0-0.045,0.306-0.045,0.305c-1.405-5.814-2.142-11.55-1.063-17.638c4.558-25.71,7.37-51.664,8.085-77.744
	c0.952-34.753-0.376-69.518-0.624-104.277c-0.158-22.127,5.232-44.063,2.837-66.383c-1.28-11.929-0.172-23.961-0.188-35.947
	c0.038-1.639,0.076-3.276,0.113-4.915c0.929-8.494,1.858-16.989,2.788-25.483c0.054-1.376,0.108-2.754,0.163-4.13
	c0.303-1.082,0.735-2.145,0.888-3.247c1.688-12.188,3.167-24.406,5.051-36.562c1.124-7.244,2.868-14.391,4.333-21.582
	c-5.073,7.121-9.002,14.658-12.209,22.571c-6.096,15.04-11.854,30.194-15.655,46.014c-2.237,5.731-3.945,11.616-5.084,17.664
	c-1.187,3.354-2.585,6.653-2.752,10.28c-0.081,0.385-0.162,0.77-0.243,1.153c-2.117,4.41-3.03,9.193-4.101,13.895
	c-2.652,11.642-6.709,22.939-8.437,34.802c-1.134,0.632-2.147,0.226-3.225-0.259c-10.035-4.521-20.088-9.001-30.124-13.52
	c-0.691-0.312-1.56-0.56-1.632-1.569c2.679-4.096,2.908-9.035,4.633-13.489c5.74-14.816,11.078-29.789,16.518-44.722
	c0.544-1.495,1.374-2.978,1.066-4.687C134.812,182.298,134.908,181.816,135.004,181.333z"/>
<path fill-rule="evenodd" clip-rule="evenodd" fill="#040404" d="M182.624,210.565c0.016,11.986-1.092,24.018,0.188,35.947
	c2.395,22.321-2.995,44.256-2.837,66.383c0.247,34.76,1.576,69.524,0.624,104.277c-0.715,26.08-3.527,52.034-8.085,77.744
	c-1.079,6.088-0.343,11.823,1.063,17.638c-12.115-6.075-13.948-16.58-12.075-28.513c1.282-8.167,2.606-16.373,6.968-23.65
	c0.513-0.856,1.081-1.738,0.668-2.723c-4.193-10.018-0.428-20.251-0.866-30.367c0.781,1.298,1.205,3.924,3.205,0.951
	c1.164-1.729,2.845-3.448,3.128-5.345c0.328-2.201,2.335-5.667-2.193-6.475c0.422-1.913,0.75-3.843,0.175-5.771
	c-2.912-9.764-1.426-19.62-0.612-29.455c0.092-1.11,0.35-2.29,0.858-3.267c2.305-4.427,2.831-8.645,0.368-13.387
	c-1.487-2.863-1.042-6.557-0.054-9.589c4.469-13.71,4.103-27.347,2.132-41.563c-2.425-17.499-1.115-35.328-1.426-53.014
	c0.596-1.658,2.088-3.645,1.624-4.916c-1.563-4.283-3.73-8.292-0.793-12.838c0.212-0.328-0.551-1.438-1.04-2.038
	c-1.822-2.235-1.897-4.689-1.229-7.346c1.765-7.017,1.69-13.685-3.152-19.746c-2.086-2.61-2.684-5.932-1.985-9.258
	c0.795-3.785,1.713-7.552,2.78-11.269c1.182-4.117,2.592-8.167,3.939-12.359c-3.028-0.585-4.126,1.699-5.899,2.614
	c3.8-15.821,9.559-30.975,15.654-46.015c3.207-7.913,7.137-15.45,12.209-22.571c-1.465,7.191-3.209,14.338-4.333,21.582
	c-1.885,12.155-3.363,24.374-5.051,36.562c-0.153,1.102-0.585,2.165-0.889,3.247c-6.995,3.454-11.434,9.02-12.592,16.684
	c-0.333,2.21-1.894,6.526,2.066,6.808c3.198,0.228,3.238-3.819,3.675-6.408c0.854-5.064,2.351-9.722,6.689-12.954
	c-0.93,8.495-1.859,16.99-2.789,25.483c-3.401,0.58-6.617,1.621-9.096,4.152c-0.849,0.867-2.067,1.83-1.151,3.333
	c0.924,1.516,2.485,1.688,3.853,1.044C178.52,213.154,180.538,211.788,182.624,210.565z"/>
<path fill-rule="evenodd" clip-rule="evenodd" fill="#040404" d="M147.479,261.024c1.728-11.862,5.785-23.16,8.437-34.802
	c1.071-4.702,1.984-9.485,4.102-13.892c0.208,0.603,0.499,1.109,1.244,1.101l-0.012-0.016c-0.212,0.936-0.065,1.693,0.996,1.991
	l-0.041-0.053c0.114,0.571,0.219,1.152,1.029,1.02l-0.046-0.052c-0.513,2.148,1.083,3.608,1.763,5.363
	c1.521,3.923,3.14,7.813,1.183,12.094c-1.539,3.368-1.315,6.581,1.107,9.511c0.796,0.964,1.282,2.454,0.381,3.074
	c-3.874,2.67-1.782,6.143-1.248,9.167c0.523,2.965,0.604,5.743-0.272,8.582C159.659,264.493,153.602,262.558,147.479,261.024z"/>
<path fill-rule="evenodd" clip-rule="evenodd" fill="#575858" d="M166.1,264.114c0.876-2.838,0.795-5.616,0.272-8.582
	c-0.534-3.024-2.626-6.497,1.248-9.167c0.901-0.621,0.416-2.11-0.381-3.074c-2.422-2.93-2.646-6.143-1.107-9.511
	c1.957-4.281,0.339-8.171-1.183-12.094c-0.681-1.755-2.276-3.215-1.764-5.363c3.043,1.51,3.146,5.801,7.501,7.623
	c-1.697-8.581-7.305-15.025-7.675-23.05c1.139-6.048,2.848-11.932,5.084-17.664c1.773-0.914,2.872-3.198,5.899-2.613
	c-1.347,4.191-2.758,8.242-3.939,12.359c-1.067,3.717-1.985,7.484-2.78,11.269c-0.699,3.327-0.101,6.648,1.985,9.258
	c4.842,6.062,4.917,12.729,3.152,19.746c-0.667,2.657-0.593,5.111,1.229,7.346c0.489,0.601,1.251,1.71,1.04,2.038
	c-2.937,4.547-0.771,8.556,0.793,12.838c0.464,1.271-1.028,3.257-1.624,4.916c-0.789-0.411-1.852-0.481-1.919,0.458
	C171.632,265.04,168.767,264.335,166.1,264.114z"/>
<path fill-rule="evenodd" clip-rule="evenodd" fill="#575858" d="M172.41,416.434c4.528,0.808,2.521,4.273,2.193,6.475
	c-0.283,1.896-1.964,3.615-3.128,5.345c-2,2.973-2.424,0.347-3.205-0.951C168.684,423.311,170.735,419.944,172.41,416.434z"/>
<path fill-rule="evenodd" clip-rule="evenodd" fill="#040404" d="M232.473,25.027c0.065,0.226,0.13,0.451,0.195,0.676
	c-0.184-0.156-0.368-0.313-0.552-0.477C232.116,25.221,232.473,25.027,232.473,25.027z"/>
<path fill-rule="evenodd" clip-rule="evenodd" fill="#040404" d="M173.62,512.25c0.452,0.385,0.903,0.77,1.355,1.155
	C174.372,513.198,173.684,513.09,173.62,512.25z"/>
<path fill-rule="evenodd" clip-rule="evenodd" fill="#040404" d="M418.186,412.448c-0.414-7.863-0.827-15.727-1.24-23.587
	c0.017-25.48,0.046-50.965,0.029-76.448c-0.001-1.741,0.41-3.597-0.78-5.182c-1.082-17.627-4.466-34.97-6.528-52.476
	c-0.863-7.316-1-14.682-0.188-21.866c1.664-14.693-0.278-29.071-1.859-43.577c-2.711-24.857-8.03-49.228-13.141-73.634
	c-2.146-10.253-4.619-20.487-8.728-30.941c3.491,0.814,4.305,3.458,5.606,5.414c10.314,15.494,17.656,32.459,24.71,49.602
	c10.945,26.604,19.375,54.065,28.346,81.348c0.697,2.122,0.961,4.486,2.757,6.135c-0.135,0.581,0.259,1.41-0.597,1.664
	c-7.879,2.339-15.338,6.122-23.678,6.866c-0.012-2.652,1.273-5.106,0.134-7.995c-2.402-6.084-2.064-6.382,4.295-8.256
	c0.906-0.267,1.82-0.509,2.73-0.764c0.369-0.33,1.367-0.399,0.847-1.117c-0.384-0.531-1.087-0.149-1.512,0.361
	c-0.939,0.056-1.881,0.112-4.07,0.243c4.342-2.214,6.708-4.81,8.688-7.779c0.9-1.351,1.043-2.999-0.079-4.065
	c-1.513-1.438-2.158,0.606-3.006,1.308c-2.5,2.066-4.874,4.285-7.337,6.397c-0.842,0.721-1.765,1.692-3.001,0.925
	c-0.968-0.6-0.604-1.739-0.644-2.669c-0.214-5.05,0.858-9.962,1.635-14.904c0.374-2.375,0.203-5.123,2.262-6.745
	c3.8-2.996,2.239-5.586-0.114-8.798c-3.409,4.14-4.319,8.696-4.691,13.339c-0.181,2.269-0.524,4.258-2.657,5.327
	c-2.892,1.448-3.114,4.079-1.886,6.186c3.465,5.94-0.6,11.942,0.529,18.123c0.739,4.04-1.341,8.882,0.638,13.514
	c0.919,2.152,0.957,4.77,0.443,7.217c-2.517,11.996-0.5,24.023,1.276,35.704c3.271,21.498,5.335,42.994,5.515,64.714
	c0.037,4.531,0.309,9.104,1.02,13.57c0.364,2.281,0.443,5.255,3.543,6.205c0.573,10.637,0.619,21.27-0.207,31.896
	c-1.556,0.21-1.295,1.487-1.569,2.529C424.41,405.048,422.734,409.636,418.186,412.448z M408.526,178.219
	c-0.006,5.64,2.422,9.712,5.113,13.639c0.653,0.954,1.6,2.32,3.132,1.211c1.175-0.85,1.451-2.203,0.889-3.469
	C415.714,185.218,413.341,181.141,408.526,178.219z"/>
<path fill-rule="evenodd" clip-rule="evenodd" fill="#575858" d="M430.056,218.752c-0.911,0.252-1.825,0.495-2.731,0.762
	c-6.359,1.875-6.697,2.172-4.295,8.256c1.14,2.889-0.146,5.343-0.134,7.995c-2.647,0.075-3.545,1.266-3.3,4.024
	c2.626,29.56,5.234,59.123,7.634,88.701c1.008,12.415,2.469,24.866,0.224,37.317c-3.1-0.95-3.179-3.924-3.543-6.205
	c-0.711-4.467-0.982-9.039-1.02-13.57c-0.18-21.72-2.244-43.216-5.515-64.714c-1.776-11.681-3.793-23.708-1.276-35.704
	c0.514-2.448,0.476-5.065-0.443-7.217c-1.979-4.632,0.102-9.475-0.638-13.514c-1.129-6.181,2.936-12.183-0.529-18.123
	c-1.229-2.107-1.006-4.738,1.886-6.186c2.133-1.068,2.477-3.058,2.657-5.327c0.372-4.644,1.282-9.2,4.691-13.339
	c2.354,3.212,3.914,5.802,0.114,8.798c-2.059,1.622-1.888,4.37-2.262,6.745c-0.776,4.941-1.849,9.854-1.635,14.904
	c0.039,0.93-0.324,2.069,0.644,2.669c1.236,0.767,2.159-0.204,3.001-0.925c2.463-2.112,4.837-4.331,7.337-6.397
	c0.848-0.702,1.493-2.745,3.006-1.308c1.122,1.066,0.979,2.714,0.079,4.065c-1.98,2.969-4.347,5.565-8.688,7.779
	c2.189-0.131,3.131-0.187,4.07-0.243C429.612,218.247,429.834,218.499,430.056,218.752z"/>
<path fill-rule="evenodd" clip-rule="evenodd" fill="#040404" d="M428.826,513.301c2.448-5.9,2.969-11.993,1.823-18.253
	c1.833-2.028,4.431-3.712,3.431-7.424c-2.351,0.704-2.648,3.178-4.41,3.988c-3.457-11.635-4.997-23.649-6.727-35.599
	c-1.289-8.913-2.815-17.826-3.007-26.872c2.279,2.051,3.942,2.928,4.063-1.489c0.047-1.774,1.079-3.524,1.663-5.284
	c7.059,11.966,7.299,25.337,7.638,38.591c0.292,11.396,1.647,22.693,3.657,33.821C438.513,503.392,435.275,508.771,428.826,513.301z
	"/>
<path fill-rule="evenodd" clip-rule="evenodd" fill="#575858" d="M425.662,422.368c-0.584,1.76-1.616,3.51-1.663,5.284
	c-0.12,4.417-1.783,3.54-4.063,1.489c-1.029-5.518-1.769-11.065-1.753-16.692c4.551-2.813,6.227-7.401,7.493-12.217
	c0.274-1.042,0.014-2.319,1.569-2.529c1.034,5.951-0.477,11.715-1.223,17.544C425.723,417.598,425.772,419.992,425.662,422.368z"/>
<path fill-rule="evenodd" clip-rule="evenodd" fill="#575858" d="M358.482,28.084c0.47,1.342,2.18,2.097,1.631,4.482
	c-2.378-0.761-4.023-2.019-4.651-4.54C356.469,28.045,357.476,28.064,358.482,28.084z"/>
<path fill-rule="evenodd" clip-rule="evenodd" fill="#040404" d="M425.792,515.354c0.396-0.857,1.032-1.338,2.012-1.276
	C427.446,514.998,426.645,515.219,425.792,515.354z"/>
<path fill-rule="evenodd" clip-rule="evenodd" fill="#040404" d="M427.723,514.14c0.392-0.334,0.784-0.669,1.176-1.003
	C428.809,513.824,428.361,514.095,427.723,514.14z"/>
<path fill-rule="evenodd" clip-rule="evenodd" fill="#040404" d="M424.718,516.011c0.45-0.307,0.901-0.611,1.353-0.919
	C425.92,515.839,425.369,516,424.718,516.011z"/>
<path fill-rule="evenodd" clip-rule="evenodd" fill="#3E3E3E" d="M416.194,307.231c1.19,1.585,0.779,3.44,0.78,5.182
	c0.017,25.483-0.013,50.968-0.029,76.448c-1.037-1.066-0.791-2.43-0.791-3.696C416.154,359.188,416.176,333.209,416.194,307.231z"/>
<path fill-rule="evenodd" clip-rule="evenodd" fill="#575858" d="M429.67,491.612c1.762-0.811,2.06-3.284,4.41-3.988
	c1,3.712-1.598,5.396-3.431,7.424C429.719,494.076,429.645,492.858,429.67,491.612z"/>
<path fill-rule="evenodd" clip-rule="evenodd" fill="#575858" d="M480.487,139.015c2.409,11.802,2.515,23.603,0.564,35.472
	C477.779,170.217,477.306,151.874,480.487,139.015z"/>
<path fill-rule="evenodd" clip-rule="evenodd" fill="#575858" d="M130.013,118.773c9.036,9.897,12.02,21.91,11.712,35.079
	c-1.778-5.287-3.688-10.533-5.3-15.87c-1.957-6.478-5.348-12.477-6.367-19.259L130.013,118.773z"/>
<path fill-rule="evenodd" clip-rule="evenodd" fill="#575858" d="M135.004,181.333c-0.096,0.482-0.192,0.965-0.29,1.445
	c-6.396-6.939-11.181-14.778-13.452-24.025l-0.075,0.06C125.793,166.32,130.398,173.827,135.004,181.333z"/>
<path fill-rule="evenodd" clip-rule="evenodd" fill="#575858" d="M151.348,141.758c-0.867,1.387-1.734,2.775-2.601,4.162
	c-0.658-4.111-1.685-8.192-0.857-12.886C150.208,135.727,151.154,138.58,151.348,141.758z"/>
<path fill-rule="evenodd" clip-rule="evenodd" fill="#575858" d="M120.227,155.872c1.188,0.697,1.003,1.842,0.962,2.941
	c0,0.001,0.074-0.059,0.074-0.059c-1.097-0.729-1.029-1.837-0.964-2.945L120.227,155.872z"/>
<path fill-rule="evenodd" clip-rule="evenodd" fill="#575858" d="M120.298,155.809c-0.27-0.275-0.54-0.552-0.81-0.828
	c0.161-0.133,0.323-0.266,0.484-0.399c0.084,0.43,0.169,0.861,0.254,1.291L120.298,155.809z"/>
<path fill-rule="evenodd" clip-rule="evenodd" fill="#575858" d="M130.058,118.724c-0.104-0.036-0.207-0.071-0.311-0.106
	c0.088,0.052,0.177,0.104,0.265,0.155C130.013,118.773,130.058,118.724,130.058,118.724z"/>
<path fill-rule="evenodd" clip-rule="evenodd" fill="#575858" d="M185.525,180.167c-4.338,3.231-5.835,7.89-6.689,12.954
	c-0.437,2.589-0.477,6.636-3.675,6.408c-3.96-0.282-2.4-4.597-2.066-6.808c1.158-7.664,5.598-13.23,12.592-16.684
	C185.633,177.413,185.579,178.791,185.525,180.167z"/>
<path fill-rule="evenodd" clip-rule="evenodd" fill="#040404" d="M163.011,200.895c0.371,8.025,5.978,14.469,7.675,23.05
	c-4.354-1.822-4.458-6.113-7.501-7.623c0,0,0.047,0.052,0.047,0.052c-0.084-0.601-0.202-1.167-1.029-1.02l0.041,0.053
	c0.418-1.039,0.255-1.787-0.996-1.991l0.012,0.016c0.45-1.1-0.131-1.742-1.001-2.257
	C160.426,207.548,161.825,204.249,163.011,200.895z"/>
<path fill-rule="evenodd" clip-rule="evenodd" fill="#575858" d="M182.624,210.565c-2.086,1.223-4.104,2.589-6.282,3.615
	c-1.367,0.644-2.929,0.471-3.853-1.044c-0.916-1.503,0.302-2.467,1.151-3.333c2.479-2.531,5.695-3.572,9.096-4.152
	C182.699,207.289,182.661,208.926,182.624,210.565z"/>
<path fill-rule="evenodd" clip-rule="evenodd" fill="#575858" d="M160.259,211.175c0.871,0.515,1.451,1.157,1.001,2.257
	c-0.745,0.008-1.036-0.499-1.244-1.101C160.097,211.944,160.178,211.56,160.259,211.175z"/>
<path fill-rule="evenodd" clip-rule="evenodd" fill="#575858" d="M161.249,213.416c1.251,0.204,1.414,0.952,0.996,1.991
	C161.183,215.109,161.036,214.352,161.249,213.416z"/>
<path fill-rule="evenodd" clip-rule="evenodd" fill="#575858" d="M162.204,215.354c0.827-0.147,0.944,0.419,1.029,1.02
	C162.422,216.506,162.318,215.926,162.204,215.354z"/>
<path fill-rule="evenodd" clip-rule="evenodd" fill="#575858" d="M408.526,178.219c4.814,2.922,7.188,6.999,9.134,11.382
	c0.563,1.266,0.286,2.619-0.889,3.469c-1.532,1.108-2.479-0.257-3.132-1.211C410.948,187.931,408.521,183.859,408.526,178.219z"/>
<path fill-rule="evenodd" clip-rule="evenodd" fill="#575858" d="M429.39,217.994c0.425-0.511,1.128-0.892,1.512-0.361
	c0.521,0.718-0.478,0.787-0.847,1.117C429.834,218.499,429.612,218.247,429.39,217.994z"/>
</svg>
