<?xml version="1.0" encoding="utf-8"?>
<!-- Generator: Adobe Illustrator 21.0.0, SVG Export Plug-In . SVG Version: 6.00 Build 0)  -->
<svg version="1.1" id="Layer_1" xmlns="http://www.w3.org/2000/svg" xmlns:xlink="http://www.w3.org/1999/xlink" x="0px" y="0px"
	 width="590px" height="530px" viewBox="0 0 590 530" enable-background="new 0 0 590 530" xml:space="preserve">
<g id="la_x7C_Main_Color_x7C_main">
	<path fill="#040404" d="M474.6,210.6c-0.9-7.5-4.9-13.9-7.8-20.7c-9.2-21.2-19.4-42.1-28.1-63.5c-9.2-22.7-24.2-41.2-41.1-58.2
		c-12.4-12.5-27.3-21.8-43.5-28.8c-2.7-1.2-4.4-1-5.7,1.7c-1.9,3.7-5.1,6.3-7.6,9.6c-18.1,11.9-37.9,17.8-59.6,18.1
		c-13.5,0.2-26.2-3.2-38.8-7.2c-3.2-2-7.1-2.8-9.8-5.5c-1.9-1.9-3.5-1.7-5.8-0.4c-25.8,13.9-44.4,34.7-57.9,60.4
		c-4,7.6-7.9,15.3-11.8,23c-0.2-3.1-1.1-5.9-3.4-8.5c-0.8,4.6,0.2,8.5,0.8,12.5c0,2.5-0.7,4.9-1.7,7.3c-3.1,7.7-6.1,15.5-9.1,23.2
		c-0.6,1.4-0.9,3-2.5,3.8c-4.5-7.3-8.9-14.6-13.4-21.8c0-1.1,0.2-2.2-0.9-2.9c-0.1-0.4-0.2-0.8-0.2-1.3c-0.2,0.1-0.3,0.3-0.5,0.4
		c0.3,0.3,0.5,0.5,0.8,0.8c-0.1,1.1-0.1,2.2,0.9,2.9c2.2,9,6.8,16.6,13,23.3c0.3,1.7-0.5,3.1-1,4.5c-5.3,14.5-10.5,29-16,43.4
		c-1.7,4.3-1.9,9.1-4.5,13.1c-9.4-6.2-19.4-11-30.1-14.4c-3.3-1-4.4-2.1-3.3-5.9c6.9-23.7,13.1-47.6,22.2-70.5
		c6.2-15.5,10.6-31.5,16.6-47c1.3-3.4,3.1-5.8,6.7-7.2c6.3-2.6,11.6-7,16.4-11.8c9.8-9.8,21.2-17.4,33-24.2
		c14.7-8.4,28-19.2,44.4-24.7c3.7-1.3,6.6-5.2,9.8-7.9c0.1,0.3,0.4,0.6,0.3,0.9c-2.4,10.2,0.6,15.3,10.3,19.6
		c20.3,8.8,40.9,7.2,61.6,2.4c10.1-2.3,19.9-5.4,27.9-12.6c4.8-4.2,8-8.7,6.5-15.4c4.5,2.4,8.5,5.6,13.2,7.5
		c0.6,2.4,2.2,3.7,4.5,4.4c0.5-2.3-1.1-3-1.6-4.3c4.7,0.8,8.7,3.6,12.8,5.6c15.3,7.4,31.2,13.2,47.3,18.7c3.8,1.3,7,3.2,10.1,5.8
		c5.8,5,11.3,10.6,19.3,12.2c1.6,0.3,2.1,1.9,2.9,3c13.8,18.6,23.6,39.4,31.4,60.9c6.9,19,13.8,38.1,22.6,56.3
		c1.4,2.8,1.2,4.3-1.9,5.7C493.2,201.5,483.9,206.1,474.6,210.6z"/>
	<path fill="#040404" d="M187.5,205.9c0,11.6-1.1,23.3,0.2,34.9c2.3,21.7-2.9,42.9-2.8,64.4c0.2,33.7,1.5,67.4,0.6,101.1
		c-0.7,25.3-3.4,50.5-7.8,75.4c-1,5.9-0.3,11.5,1,17.1c-11.8-5.9-13.5-16.1-11.7-27.7c1.2-7.9,2.5-15.9,6.8-22.9
		c0.5-0.8,1-1.7,0.6-2.6c-4.1-9.7-0.4-19.6-0.8-29.5c0.8,1.3,1.2,3.8,3.1,0.9c1.1-1.7,2.8-3.3,3-5.2c0.3-2.1,2.3-5.5-2.1-6.3
		c0.4-1.9,0.7-3.7,0.2-5.6c-2.8-9.5-1.4-19-0.6-28.6c0.1-1.1,0.3-2.2,0.8-3.2c2.2-4.3,2.7-8.4,0.4-13c-1.4-2.8-1-6.4-0.1-9.3
		c4.3-13.3,4-26.5,2.1-40.3c-2.4-17-1.1-34.3-1.4-51.4c0.6-1.6,2-3.5,1.6-4.8c-1.5-4.2-3.6-8-0.8-12.5c0.2-0.3-0.5-1.4-1-2
		c-1.8-2.2-1.8-4.5-1.2-7.1c1.7-6.8,1.6-13.3-3.1-19.2c-2-2.5-2.6-5.8-1.9-9c0.8-3.7,1.7-7.3,2.7-10.9c1.1-4,2.5-7.9,3.8-12
		c-2.9-0.6-4,1.6-5.7,2.5c3.7-15.3,9.3-30,15.2-44.6c3.1-7.7,6.9-15,11.8-21.9c-1.4,7-3.1,13.9-4.2,20.9
		c-1.8,11.8-3.3,23.6-4.9,35.5c-0.1,1.1-0.6,2.1-0.9,3.1c-6.8,3.4-11.1,8.7-12.2,16.2c-0.3,2.1-1.8,6.3,2,6.6
		c3.1,0.2,3.1-3.7,3.6-6.2c0.8-4.9,2.3-9.4,6.5-12.6c-0.9,8.2-1.8,16.5-2.7,24.7c-3.3,0.6-6.4,1.6-8.8,4c-0.8,0.8-2,1.8-1.1,3.2
		c0.9,1.5,2.4,1.6,3.7,1C183.5,208.4,185.4,207.1,187.5,205.9z"/>
	<path fill="#040404" d="M416,401.7c-0.4-7.6-0.8-15.3-1.2-22.9c0-24.7,0-49.4,0-74.2c0-1.7,0.4-3.5-0.8-5
		c-1-17.1-4.3-33.9-6.3-50.9c-0.8-7.1-1-14.2-0.2-21.2c1.6-14.3-0.3-28.2-1.8-42.3c-2.6-24.1-7.8-47.8-12.7-71.4
		c-2.1-9.9-4.5-19.9-8.5-30c3.4,0.8,4.2,3.4,5.4,5.3c10,15,17.1,31.5,24,48.1c10.6,25.8,18.8,52.4,27.5,78.9c0.7,2.1,0.9,4.4,2.7,6
		c-0.1,0.6,0.3,1.4-0.6,1.6c-7.6,2.3-14.9,5.9-23,6.7c0-2.6,1.2-5,0.1-7.8c-2.3-5.9-2-6.2,4.2-8c0.9-0.3,1.8-0.5,2.6-0.7
		c0.4-0.3,1.3-0.4,0.8-1.1c-0.4-0.5-1.1-0.1-1.5,0.4c-0.9,0.1-1.8,0.1-3.9,0.2c4.2-2.1,6.5-4.7,8.4-7.5c0.9-1.3,1-2.9-0.1-3.9
		c-1.5-1.4-2.1,0.6-2.9,1.3c-2.4,2-4.7,4.2-7.1,6.2c-0.8,0.7-1.7,1.6-2.9,0.9c-0.9-0.6-0.6-1.7-0.6-2.6c-0.2-4.9,0.8-9.7,1.6-14.5
		c0.4-2.3,0.2-5,2.2-6.5c3.7-2.9,2.2-5.4-0.1-8.5c-3.3,4-4.2,8.4-4.6,12.9c-0.2,2.2-0.5,4.1-2.6,5.2c-2.8,1.4-3,4-1.8,6
		c3.4,5.8-0.6,11.6,0.5,17.6c0.7,3.9-1.3,8.6,0.6,13.1c0.9,2.1,0.9,4.6,0.4,7c-2.4,11.6-0.5,23.3,1.2,34.6
		c3.2,20.9,5.2,41.7,5.3,62.8c0,4.4,0.3,8.8,1,13.2c0.4,2.2,0.4,5.1,3.4,6c0.6,10.3,0.6,20.6-0.2,30.9c-1.5,0.2-1.3,1.4-1.5,2.5
		C422,394.5,420.4,399,416,401.7z"/>
	<path fill="#040404" d="M168.4,196.5c0.4,7.8,5.8,14,7.4,22.4c-4.2-1.8-4.3-5.9-7.3-7.4v0.1c-0.1-0.6-0.2-1.1-1-1v0.1
		c0.4-1,0.2-1.7-1-1.9l0,0c0.4-1.1-0.1-1.7-1-2.2C165.9,203,167.3,199.8,168.4,196.5z"/>
	<path fill="#040404" d="M153.4,254.8c1.7-11.5,5.6-22.5,8.2-33.8c1-4.6,1.9-9.2,4-13.5c0.2,0.6,0.5,1.1,1.2,1.1l0,0
		c-0.2,0.9-0.1,1.6,1,1.9v-0.1c0.1,0.6,0.2,1.1,1,1v-0.1c-0.5,2.1,1.1,3.5,1.7,5.2c1.5,3.8,3,7.6,1.1,11.7c-1.5,3.3-1.3,6.4,1.1,9.2
		c0.8,0.9,1.2,2.4,0.4,3c-3.8,2.6-1.7,6-1.2,8.9s0.6,5.6-0.3,8.3C165.2,258.2,159.3,256.3,153.4,254.8z"/>
</g>
<g id="la_x7C_Secondary_Color_x7C_second">
	<path fill="#F5EC36" d="M422.3,502.2c-4.2,2.2-8.4,4.4-12.6,6.7c-1.4,0.8-2.3,0.8-2.6-1c-11.9-37.1-20.2-75.1-29.7-112.8
		c-4.1-16.4-4.2-32.8-2.9-49.3c1.7-21.1,3.4-42.1,5.3-63.1c1.7-18.5,2.9-37,5.4-55.5c2.2-16.5,0.8-32.9-1.4-49.4
		c-2.2-16.4-4.3-32.7-7-49c-2.6-15.7-5.2-31.3-8.8-46.8c-3.5-15.1-12.8-25.5-27.3-31.2c2.5-3.2,5.7-5.9,7.6-9.6
		c1.4-2.7,3-2.9,5.7-1.7c16.2,7,31.1,16.3,43.5,28.8c16.9,17,31.8,35.5,41.1,58.2c8.7,21.4,18.9,42.3,28.1,63.5
		c2.9,6.7,6.9,13.1,7.8,20.7c-9.8,4.9-20.1,8.3-30.5,11.5c-1.7-1.6-2-3.9-2.7-6c-8.7-26.5-16.9-53.1-27.5-78.9
		c-6.8-16.6-14-33.1-24-48.1c-1.3-1.9-2.1-4.5-5.4-5.3c4,10.1,6.4,20.1,8.5,30c5,23.7,10.1,47.3,12.7,71.4c1.5,14.1,3.4,28,1.8,42.3
		c-0.8,7-0.7,14.1,0.2,21.2c2,17,5.3,33.8,6.3,50.9c0,25.2,0,50.4,0,75.6c0,1.2-0.2,2.6,0.8,3.6c0.4,7.6,0.8,15.3,1.2,22.9
		c0,5.5,0.7,10.8,1.7,16.2c0.2,8.8,1.7,17.4,2.9,26.1c1.7,11.6,3.2,23.2,6.5,34.5c0,1.2,0,2.4,0.9,3.3c1.1,6.1,0.6,12-1.8,17.7
		l0.1-0.2c-0.4,0.3-0.8,0.6-1.1,1l0.1-0.1c-0.9-0.1-1.6,0.4-2,1.2v-0.3h0.3C423.2,501.6,422.7,501.9,422.3,502.2z"/>
	<path fill="#F5EC36" d="M141.3,177.5c1.6-0.8,2-2.4,2.5-3.8c3.1-7.7,6-15.5,9.1-23.2c1-2.4,1.7-4.7,1.7-7.3c0.8-1.3,1.7-2.7,2.5-4
		c3.9-7.7,7.8-15.4,11.8-23c13.5-25.7,32.1-46.5,57.9-60.4c2.3-1.3,3.9-1.4,5.8,0.4c2.8,2.7,6.6,3.5,9.8,5.5
		c-19,12.1-23.9,31.1-26.6,51.7c-4,31.1-7.8,62.2-10,93.5c-0.9,13.3,1.3,26.4,2.8,39.6c2.4,22.6,5,45.1,7.3,67.7
		c1.9,18.6,4.3,37.3,5.1,56c0.5,12.6-2,24.8-4.4,37c-6.5,31.9-11.9,64.1-20.5,95.6c-0.4,1.3-1,2.7-0.1,4.1c-0.7,1.9-1.8,1.1-2.9,0.5
		c-4.4-2.6-8.7-5.1-13.1-7.7c-0.4-0.4-0.9-0.7-1.3-1.1v0.3c-1.4-5.6-2.1-11.2-1-17.1c4.4-24.9,7.1-50.1,7.8-75.4
		c0.9-33.7-0.4-67.4-0.6-101.1c-0.2-21.5,5.1-42.7,2.8-64.4c-1.2-11.6-0.2-23.2-0.2-34.9c0-1.6,0.1-3.2,0.1-4.8
		c0.9-8.2,1.8-16.5,2.7-24.7c0.1-1.3,0.1-2.7,0.2-4c0.3-1,0.7-2.1,0.9-3.1c1.6-11.8,3.1-23.7,4.9-35.5c1.1-7,2.8-14,4.2-20.9
		c-4.9,6.9-8.7,14.2-11.8,21.9c-5.9,14.6-11.5,29.3-15.2,44.6c-2.2,5.6-3.8,11.3-4.9,17.1c-1.2,3.3-2.5,6.5-2.7,10
		c-0.1,0.4-0.2,0.7-0.2,1.1c-2.1,4.3-2.9,8.9-4,13.5c-2.6,11.3-6.5,22.3-8.2,33.8c-1.1,0.6-2.1,0.2-3.1-0.3
		c-9.7-4.4-19.5-8.7-29.2-13.1c-0.7-0.3-1.5-0.5-1.6-1.5c2.6-4,2.8-8.8,4.5-13.1c5.6-14.4,10.7-28.9,16-43.4c0.5-1.5,1.3-2.9,1-4.5
		C141.1,178.5,141.2,178,141.3,177.5z"/>
</g>
<path id="la_x7C_Third_Color_x7C_third" fill="#9F9F9F" d="M325.8,522c-13.3,0-26.5,0-39.8,0c-0.5-0.3-1-0.8-1.6-0.8
	c-19.1-1-37.7-5.1-56.4-8.4c-10.7-1.9-21.3-4-32-5.9c-0.9-1.4-0.3-2.8,0.1-4.1c8.6-31.5,14-63.7,20.5-95.6c2.5-12.2,5-24.3,4.4-37
	c-0.8-18.8-3.1-37.4-5.1-56c-2.4-22.6-4.9-45.1-7.3-67.7c-1.4-13.2-3.7-26.3-2.8-39.6c2.2-31.3,6-62.4,10-93.5
	c2.7-20.7,7.6-39.7,26.6-51.7c12.6,4,25.3,7.3,38.8,7.2c21.7-0.3,41.5-6.2,59.6-18.1c14.5,5.6,23.8,16.1,27.3,31.2
	c3.6,15.5,6.2,31.1,8.8,46.8c2.7,16.3,4.8,32.6,7,49c2.2,16.5,3.6,32.9,1.4,49.4c-2.5,18.4-3.7,37-5.4,55.5
	c-1.9,21-3.6,42.1-5.3,63.1c-1.3,16.6-1.2,32.9,2.9,49.3c9.5,37.7,17.7,75.7,29.7,112.8c-1.8-0.3-3.4,0.1-5.1,0.5
	c-21.2,5.4-42.3,11.1-64.2,12.4C333.8,521,329.6,520.1,325.8,522z"/>
<path fill="#3E3E3E" d="M303.1,7.9c4.5,1.8,9.3,1.6,13.9,2.9c8.8,2.3,17.7,4.4,24.9,10.5c1.5,6.7-1.7,11.1-6.5,15.4
	c-8.1,7.2-17.9,10.2-27.9,12.6c-20.7,4.8-41.3,6.4-61.6-2.4c-9.8-4.3-12.7-9.5-10.3-19.6c0.1-0.3-0.2-0.6-0.3-0.9
	c0,0,0.3-0.3,0.3-0.2c0.2,0.2,0.4,0.3,0.5,0.5c-0.1-0.2-0.1-0.4-0.2-0.7c9.3-9.6,21.2-13.5,33.8-16.1c2.7-0.6,5.6,0,7.9-1.9
	C286,7.9,294.6,7.9,303.1,7.9z M301.4,24.3C301.4,24.4,301.4,24.1,301.4,24.3c4.1,0,8.6,0,12.8,0c0.1-0.2-0.1,0.2,0,0"/>
<path fill="#575858" d="M171.4,257.8c0.8-2.8,0.8-5.4,0.3-8.3c-0.5-2.9-2.5-6.3,1.2-8.9c0.9-0.6,0.4-2-0.4-3c-2.3-2.8-2.6-6-1.1-9.2
	c1.9-4.2,0.3-7.9-1.1-11.7c-0.7-1.7-2.2-3.1-1.7-5.2c3,1.5,3.1,5.6,7.3,7.4c-1.6-8.3-7.1-14.6-7.4-22.4c1.1-5.9,2.8-11.6,4.9-17.1
	c1.7-0.9,2.8-3.1,5.7-2.5c-1.3,4.1-2.7,8-3.8,12c-1,3.6-1.9,7.3-2.7,10.9c-0.7,3.2-0.1,6.4,1.9,9c4.7,5.9,4.8,12.3,3.1,19.2
	c-0.6,2.6-0.6,5,1.2,7.1c0.5,0.6,1.2,1.7,1,2c-2.8,4.4-0.7,8.3,0.8,12.5c0.5,1.2-1,3.2-1.6,4.8c-0.8-0.4-1.8-0.5-1.9,0.4
	C176.8,258.7,174,258,171.4,257.8z"/>
<path fill="#575858" d="M177.6,405.6c4.4,0.8,2.4,4.1,2.1,6.3c-0.3,1.8-1.9,3.5-3,5.2c-1.9,2.9-2.4,0.3-3.1-0.9
	C173.9,412.3,175.9,409,177.6,405.6z"/>
<path fill="#575858" d="M427.5,213.8c-0.9,0.2-1.8,0.5-2.6,0.7c-6.2,1.8-6.5,2.1-4.2,8c1.1,2.8-0.1,5.2-0.1,7.8
	c-2.6,0.1-3.4,1.2-3.2,3.9c2.5,28.7,5.1,57.3,7.4,86c1,12,2.4,24.1,0.2,36.2c-3-0.9-3.1-3.8-3.4-6c-0.7-4.3-1-8.8-1-13.2
	c-0.2-21.1-2.2-41.9-5.3-62.8c-1.7-11.3-3.7-23-1.2-34.6c0.5-2.4,0.5-4.9-0.4-7c-1.9-4.5,0.1-9.2-0.6-13.1c-1.1-6,2.8-11.8-0.5-17.6
	c-1.2-2-1-4.6,1.8-6c2.1-1,2.4-3,2.6-5.2c0.4-4.5,1.2-8.9,4.5-12.9c2.3,3.1,3.8,5.6,0.1,8.5c-2,1.6-1.8,4.2-2.2,6.5
	c-0.8,4.8-1.8,9.6-1.6,14.5c0,0.9-0.3,2,0.6,2.6c1.2,0.7,2.1-0.2,2.9-0.9c2.4-2,4.7-4.2,7.1-6.2c0.8-0.7,1.4-2.7,2.9-1.3
	c1.1,1,0.9,2.6,0.1,3.9c-1.9,2.9-4.2,5.4-8.4,7.5c2.1-0.1,3-0.2,3.9-0.2C427,213.3,427.3,213.6,427.5,213.8z"/>
<path fill="#040404" d="M426.3,499.5c2.4-5.7,2.9-11.6,1.8-17.7c1.8-2,4.3-3.6,3.3-7.2c-2.3,0.7-2.6,3.1-4.3,3.9
	c-3.4-11.3-4.8-22.9-6.5-34.5c-1.3-8.6-2.7-17.3-2.9-26.1c2.2,2,3.8,2.8,3.9-1.4c0-1.7,1-3.4,1.6-5.1c6.8,11.6,7.1,24.6,7.4,37.4
	c0.3,11.1,1.6,22,3.5,32.8C435.7,489.9,432.5,495.2,426.3,499.5z"/>
<path fill="#575858" d="M423.2,411.3c-0.6,1.7-1.6,3.4-1.6,5.1c-0.1,4.3-1.7,3.4-3.9,1.4c-1-5.4-1.7-10.7-1.7-16.2
	c4.4-2.7,6-7.2,7.3-11.9c0.3-1,0-2.2,1.5-2.5c1,5.8-0.5,11.4-1.2,17C423.3,406.7,423.3,409,423.2,411.3z"/>
<path fill="#575858" d="M358,28.9c0.5,1.3,2.1,2,1.6,4.3c-2.3-0.7-3.9-2-4.5-4.4C356.1,28.8,357.1,28.9,358,28.9z"/>
<path fill="#3E3E3E" d="M414,299.7c1.2,1.5,0.8,3.3,0.8,5c0,24.7,0,49.4,0,74.2c-1-1-0.8-2.4-0.8-3.6C414,350.1,414,324.9,414,299.7
	z"/>
<path fill="#575858" d="M427.1,478.5c1.7-0.8,2-3.2,4.3-3.9c1,3.6-1.6,5.2-3.3,7.2C427.1,480.9,427.1,479.7,427.1,478.5z"/>
<path fill="#575858" d="M476.4,136.5c2.3,11.4,2.4,22.9,0.5,34.4C473.8,166.8,473.3,149,476.4,136.5z"/>
<path fill="#575858" d="M136.4,116.9c8.8,9.6,11.7,21.3,11.4,34c-1.7-5.1-3.6-10.2-5.1-15.4C140.8,129.2,137.5,123.4,136.4,116.9
	L136.4,116.9z"/>
<path fill="#575858" d="M141.3,177.5c-0.1,0.5-0.2,0.9-0.3,1.4c-6.2-6.7-10.8-14.3-13-23.3l-0.1,0.1
	C132.3,163,136.8,170.3,141.3,177.5z"/>
<path fill="#575858" d="M157.1,139.2c-0.8,1.3-1.7,2.7-2.5,4c-0.6-4-1.6-7.9-0.8-12.5C156,133.3,156.9,136.1,157.1,139.2z"/>
<path fill="#575858" d="M126.9,152.8c1.2,0.7,1,1.8,0.9,2.9l0.1-0.1C126.9,154.9,126.9,153.9,126.9,152.8L126.9,152.8z"/>
<path fill="#575858" d="M127,152.8c-0.3-0.3-0.5-0.5-0.8-0.8c0.2-0.1,0.3-0.3,0.5-0.4C126.8,152,126.9,152.4,127,152.8L127,152.8z"
	/>
<path fill="#575858" d="M136.5,116.8c-0.1,0-0.2-0.1-0.3-0.1C136.3,116.8,136.3,116.8,136.5,116.8
	C136.4,116.9,136.5,116.8,136.5,116.8z"/>
<path fill="#575858" d="M190.3,176.4c-4.2,3.1-5.7,7.7-6.5,12.6c-0.4,2.5-0.5,6.4-3.6,6.2c-3.8-0.3-2.3-4.5-2-6.6
	c1.1-7.4,5.4-12.8,12.2-16.2C190.4,173.7,190.3,175.1,190.3,176.4z"/>
<path fill="#575858" d="M187.5,205.9c-2,1.2-4,2.5-6.1,3.5c-1.3,0.6-2.8,0.5-3.7-1s0.3-2.4,1.1-3.2c2.4-2.5,5.5-3.5,8.8-4
	C187.5,202.7,187.5,204.3,187.5,205.9z"/>
<path fill="#575858" d="M165.8,206.5c0.8,0.5,1.4,1.1,1,2.2c-0.7,0-1-0.5-1.2-1.1C165.6,207.2,165.7,206.9,165.8,206.5z"/>
<path fill="#575858" d="M166.7,208.7c1.2,0.2,1.4,0.9,1,1.9C166.7,210.3,166.5,209.6,166.7,208.7z"/>
<path fill="#575858" d="M167.7,210.5c0.8-0.1,0.9,0.4,1,1C167.9,211.7,167.8,211.1,167.7,210.5z"/>
<path fill="#575858" d="M406.6,174.5c4.7,2.8,7,6.8,8.9,11c0.5,1.2,0.3,2.5-0.9,3.4c-1.5,1.1-2.4-0.2-3-1.2
	C408.9,183.9,406.6,180,406.6,174.5z"/>
<path fill="#575858" d="M426.8,213.1c0.4-0.5,1.1-0.9,1.5-0.4c0.5,0.7-0.5,0.8-0.8,1.1C427.3,213.6,427,213.3,426.8,213.1z"/>
</svg>
