<?xml version="1.0" encoding="utf-8"?>
<!-- Generator: Adobe Illustrator 21.0.0, SVG Export Plug-In . SVG Version: 6.00 Build 0)  -->
<svg version="1.1" id="Layer_1" xmlns="http://www.w3.org/2000/svg" xmlns:xlink="http://www.w3.org/1999/xlink" x="0px" y="0px"
	 width="590px" height="530px" viewBox="0 0 590 530" enable-background="new 0 0 590 530" xml:space="preserve">
<g id="la_x7C_Main_Color_x7C_main">
	<path fill="#020202" d="M324.8,522c-13.9,0-27.8,0-41.7,0c-3.5-2-11.3-2-11.3-2l-28.5-4.6c0,0-18.8-2.6-28-4.9
		c-1.4-8.8-2.9-17.7-4-26.5c-2.6-20.9-4.3-41.9-5.2-63c-1.4-32.7,0.4-65.2,3.5-97.7c2.1-21.6,5.2-43,9.3-64.3
		c2.5-13.2,4.5-26.5,8.4-39.4c1.8,3.1,3.6,6.2,5.3,9.3c0.5-0.2,0.9-0.3,1.4-0.5c-0.2-6.3-4-11.7-4.9-17.8c-1.7-7.1-2.8-8.2-2.8-8.2
		s-0.6-4.7-2.7-8.8c-1.3-4.2-2.7-8.4-3.8-12.6c-6.7-24.1-11.1-48.7-12.1-73.7c-0.6-13.6-0.3-27.2,1.6-40.8
		c1.3-9.3,3.3-18.4,4.9-27.6c2.3-1.2,5.1-2.1,7-3.8c5.7-5.2,11.8-9.8,18.5-13.6c0.4,3-2.2,4.7-3.3,7.1c-1.2,2.6-2.7,5.4-0.4,7.9
		c3.1,3.3,6.5,6.2,10.6,8.5c6.9,3.8,14.5,4.6,21.9,5.1c22.1,1.7,43.2-2.4,62.6-13.7c4.3-2.5,7-6.2,7.2-11.5c0.1-1.9,0.2-3.8,2-5
		c3.9,3.7,10.8,2.5,13.5,8.2c0.2,0.3,1.1,0.4,1.7,0.4c5.4,0.1,9.5,3.5,14,5.8c-1.6,1,12.1,59.9,10.9,76.1
		c-0.5,21.9-14.6,59.4-14.6,59.4s-0.6,4.6-2.9,11.3c-3.7,16.3-9.6,32-14,48.2c7.8-10.9,13.1-22.9,18.3-35
		c6.7,21.2,12.6,42.6,17.9,64.1c7.7,31.4,13.5,63.1,17.4,95.2c2.5,20.2,3.9,40.4,4.6,60.7c0.7,21.1,0.1,42.2-1.3,63.3
		c-0.7,9.7-2.4,19.3-2.2,29.1c-0.4,1.1-1.4,1.2-2.3,1.4c-10.6,2.6-31.7,7.7-31.7,7.7l-28.6,4.1C340.9,520.1,330,520,324.8,522z
		 M252.2,119.4c1,0.6,1.7,0.2,2.2-0.5C263.8,105,270.5,90,271,72.8c0.1-1.7-0.5-2.3-2.4-2.6c-6.9-1-6.8-1.1-6.4,5.6
		c0,0.5,0,0.9,0,1.4C263.3,92.4,259.1,106.2,252.2,119.4z M328.3,113.8c-7.6-16.3-12.7-33.1-8.9-51.7c-2.2,0.6-3.7,1.3-5.2,1.4
		c-4.1,0.3-5.1,2.5-4.6,6.3C311.8,86.2,318.1,100.7,328.3,113.8z"/>
	<path fill="#020202" d="M183.6,57.2c1.8,9.5,1.5,19.3,2.8,28.9c2.2,15.9,5.3,31.7,9.3,47.2c6.4,24.5,14.8,48.2,24.3,71.6
		c-5.9,20.7-12.2,41.4-17.4,62.3c-7.7,30.9-14.2,61.9-19.1,93.4c-5.6,36.8-8.8,73.7-9.2,110.9c-0.1,8.7,0.7,17.3,1.8,25.9
		c-6.4-3.4-10.5-8.3-10.5-15.9c-0.1-11.6,1.6-22.9,7.2-33.3c0.5-1,0.8-1.9,0.5-3.1c-3-13.2-2.3-26.1,2.7-38.7
		c0.8-2.1,1.4-4.2,0.7-6.4c-2.7-9-2-18.2-0.5-27.2c1.2-7,2.8-13.5,0.9-20.9c-1.6-6.2,1.6-12.7,3.2-18.9c1.6-5.8,1.9-11.5,0.2-17.2
		c-2.1-7-2.4-14.2-2.3-21.5c0.2-13.4-1.2-26.7-0.4-40.1c0-0.2-0.3-0.4-0.9-1c-2.1,8.1-8.3,4.9-12.8,4.2c-14.1-2-27.3-7.2-39.7-14.3
		c-12.2-6.9-24.2-14.1-37.7-18.2c-2.1-0.6-2.9-1.5-2-3.7c0.9-2.3,1.6-4.7,2.4-7.1c17.7,4,32.3,14.1,46.7,24.5
		c-11.7-12.2-25.1-21.9-40.5-28.9c-1.5-0.7-3.2-1.5-5-0.8c0.5-2.2,1.1-4.5,1.6-6.7c1.6-0.5,3,0.1,4.5,0.5
		c14.3,4.4,26.7,12.1,38.5,21c0.3,0.3,0.6,0.5,0.9,0.8c0.4,0.2,0.7,0.4,1.1,0.7c0.3,0.4,0.6,1,1.3,0.3c-0.3-0.2-0.6-0.5-0.8-0.7
		c0-0.6-0.3-0.9-0.9-1c-0.3-0.3-0.6-0.6-0.9-1c-11.2-11.1-24.2-19.6-38.7-25.8c-1-0.4-2.1-0.4-3.2-0.5c5-15.7,9.2-31.8,15.4-47
		c6.4-15.6,10.7-31.8,16.7-47.5c1.3-3.3,3.1-5.4,6.4-6.9c8-3.6,14.2-9.8,20.7-15.5C161,70.7,171.8,63.2,183.6,57.2z"/>
	<path fill="#020202" d="M371.7,183.1c4.1-12.9,8.4-25.7,12.2-38.6c5.9-19.8,10.2-40,12.7-60.5c1.5-12.3,2.7-24.7,2.1-37.1
		c7.7,2.7,15.4,5.2,23.1,8c3.3,1.2,5.4,4.3,8.1,6.4c5.1,4,9.8,8.5,16.4,9.7c1.6,0.3,2.1,1.7,3,2.8c9.5,11.5,15.3,25.2,22,38.3
		c9,17.4,13.6,36.4,21.1,54.4c0.2,0.4,0,0.9,0,1.4c-13.1,4.8-23.4,13.8-34.9,23c1.4-0.2,1.8-0.1,2.1-0.3c0.8-0.4,1.7-0.7,2.4-1.3
		c9-6.6,18.6-12.2,29.1-16.1c1.1-0.4,2.5-0.7,2.2-2.4c3.4,2.2,3.2,6.2,4.7,9.3c-2.4,1.2-4.8,2.3-7,3.8c-7.3,4.8-15.1,8.9-20.7,15.9
		c-1.8,0.3-3.2,1-3.9,3.2c2.2-0.2,3.3-1.4,4.3-2.7c9.5-6.3,19.4-11.8,29.7-16.6c2.5,2.9,1.8,7,3.9,10.2c1,1.5-0.7,2.1-1.8,2.6
		c-25.7,13.4-51.8,25.7-79.8,33.6c-6.5,1.8-6.7,1.7-6.1,8.4c2.3,27.6,4.9,55.2,7.2,82.8c0.7,9.1,0.8,18.2,1.2,27.4
		c-3.6-8.3-4.7-17.4-7-26.1C405.6,275.1,390.7,228.4,371.7,183.1z"/>
</g>
<path fill="#E3E3E3" d="M302.1,7.9c3.6,1.9,7.7,1.5,11.6,2.4c9.3,2,18.3,4.9,26.5,9.8c-1.9,1.2-2,3.1-2,5c-0.1,5.2-2.9,9-7.2,11.5
	c-19.4,11.3-40.5,15.4-62.6,13.7c-7.3-0.6-15-1.4-21.9-5.1c-4.1-2.2-7.5-5.1-10.6-8.5c-2.3-2.5-0.8-5.3,0.4-7.9
	c1.1-2.4,3.6-4.1,3.3-7.1C250,14,262.1,10.7,274.7,9c1-0.1,2.3,0.4,2.9-1C285.7,7.9,293.9,7.9,302.1,7.9z"/>
<g id="la_x7C_Secondary_Color_x7C_second">
	<path fill="#E7E7E7" d="M215.3,510.6c-12.7-2-25.3-4.6-36.8-11c-1-0.5-1.9-1-2.4-2.2c-1.1-8.6-1.9-17.2-1.8-25.9
		c0.4-37.2,3.5-74.1,9.2-110.9c4.8-31.5,11.3-62.5,19.1-93.4c5.2-20.9,11.5-41.6,17.4-62.3c1.2,2,16.6-57.7,24.4-53.9
		c3.5,1.7-18.3,65.7-17.3,68.7c-3.8,12.9-5.9,26.2-8.4,39.4c-4,21.3-7.2,42.7-9.3,64.3c-3.1,32.5-5,65-3.5,97.7
		c0.9,21.1,2.6,42.1,5.2,63C212.4,492.9,213.9,501.7,215.3,510.6z"/>
	<path fill="#E7E7E7" d="M425.1,348.6c-1.8,13.8-0.5,27.6-0.9,41.4c-0.1,3.3,0.2,6.6-0.9,9.8c-3,8.3,0.7,15.7,3.5,23.1
		c1.4,3.7,2.1,7.5,2.2,11.5c0.3,16.8,1.5,33.4,4.6,49.9c1.3,6.9-2.9,11.2-7.3,14.7c-6.5,5.3-14.5,7.2-22.8,7.8
		c-0.2-9.8,1.5-19.4,2.2-29.1c1.4-21.1,2-42.2,1.3-63.3c-0.7-20.3-2.1-40.6-4.6-60.7c-4-32.1-9.8-63.8-17.4-95.2
		c-5.3-21.6-11.2-43-17.9-64.1c0.7-2.2-17.4-41.2-14.8-44.4c4.7-5.7,18.3,34.5,19.4,33c19.1,45.3,34,91.9,46.4,139.4
		C420.4,331.2,421.4,340.3,425.1,348.6z"/>
	<path fill="#E7E7E7" d="M252.2,119.4c6.9-13.2,11.2-27,10.2-42.1c0-0.5,0-0.9,0-1.4c-0.5-6.8-0.5-6.6,6.4-5.6
		c1.9,0.3,2.4,0.9,2.4,2.6c-0.6,17.2-7.2,32.2-16.7,46.1C253.9,119.5,253.2,120,252.2,119.4z"/>
	<path fill="#E7E7E7" d="M328.3,113.8c-10.2-13-16.6-27.6-18.7-44c-0.5-3.8,0.5-5.9,4.6-6.3c1.5-0.1,3-0.8,5.2-1.4
		C315.6,80.7,320.8,97.4,328.3,113.8z"/>
	<path fill="#E7E7E7" d="M91.9,196.4c1.1,0.2,2.2,0.1,3.2,0.5c14.5,6.2,27.5,14.7,38.7,25.8c-0.2,0.3-0.4,0.6-0.6,0.9
		c-11.8-8.9-24.3-16.6-38.5-21c-1.5-0.5-2.9-1.1-4.5-0.5C90.6,200.2,90.5,198.1,91.9,196.4z"/>
	<path fill="#E7E7E7" d="M493.3,170.8c0.3,1.7-1.1,2-2.2,2.4c-10.5,4-20,9.6-29.1,16.1c-0.7,0.5-1.6,0.9-2.4,1.3
		c-0.3,0.1-0.7,0.1-2.1,0.3c11.4-9.2,21.8-18.2,34.9-23C493.5,168.6,493.3,169.8,493.3,170.8z"/>
</g>
<g id="la_x7C_Third_Color_x7C_third">
	<path fill="#157F3F" d="M371.7,183.1c-2.5,3.4-3.4,7.4-4.6,11.3c-5.1,12.2-10.5,24.2-18.3,35c4.4-16.2,10.3-31.9,14-48.2
		c1.9-3.5,2.6-7.3,2.9-11.3c5.4-21.2,8.8-42.7,9.3-64.7c1.3-6.2,1.3-12.5,0-18.7c-0.2-16.3-2.7-32.2-7-47.9
		c-0.6-2.2-0.2-3.2,1.4-4.2c9.8,4.1,19.5,8.2,29.3,12.4c0.7,12.5-0.5,24.8-2.1,37.1c-2.6,20.5-6.9,40.7-12.7,60.5
		C380,157.5,375.7,170.3,371.7,183.1z"/>
	<path fill="#157F3F" d="M369.5,516c-9.4,2.5-18.9,3.7-28.6,4.1c-1.9-66.8,17.6-128.4,46.5-187.6c0.6-1.2,1.3-2.6,3.2-2.3
		c0.9,2-0.5,3.6-1.1,5.3c-7.4,20.8-14.1,41.9-18.6,63.6c-3.2,15.5-5.6,31.1-6.7,46.9c-0.6,8.2-1,16.3-0.6,24.5
		c0.6,14.1,1.7,28.1,5.3,41.8C369.4,513.4,369.3,514.7,369.5,516z"/>
	<path fill="#157F3F" d="M270.3,519.9c-9.1-1-18.1-2.1-27-4.5c1.5-10.6,3-21.3,4.5-31.9c0.2-1.4,0.2-2.8,0.3-4.2
		c1.4-9.4,1.4-18.7,0-28.1c-1.6-22.5-5.2-44.6-10.9-66.4c-4.5-17.5-10.1-34.6-16.1-51.6c2.3-1.3,3.1,0.2,4,1.8
		c11.6,21.7,20.2,44.6,27.6,68c5.1,16.2,9.4,32.7,12.7,49.4c2.7,14,5,28,5.5,42.3C270.4,503.1,271.9,511.6,270.3,519.9z"/>
	<path fill="#157F3F" d="M227.2,219.7c-1.8-5.2-4.3-10.1-7.1-14.8c-9.5-23.4-17.9-47.2-24.3-71.6c-4-15.5-7.2-31.3-9.3-47.2
		c-1.3-9.6-0.9-19.4-2.8-28.9c10.2-6,19.4-13.6,30.4-18.1c-1.6,9.2-3.6,18.3-4.9,27.6c-1.9,13.6-2.2,27.2-1.6,40.8
		c1,25,5.4,49.6,12.1,73.7c1.2,4.2,2.5,8.4,3.8,12.6c1.1,5.9,2.6,11.6,5.5,16.9c0.9,6.1,4.7,11.6,4.9,17.8c-0.5,0.2-0.9,0.3-1.4,0.5
		C230.7,226,229,222.8,227.2,219.7z"/>
	<path fill="#157F3F" d="M88.4,208.9c1.8-0.7,3.5,0.1,5,0.8c15.4,6.9,28.8,16.7,40.5,28.9c-14.4-10.5-29-20.5-46.7-24.5
		C85.2,211.7,88.7,210.8,88.4,208.9z"/>
	<path fill="#157F3F" d="M470.3,199.8c5.6-7,13.4-11.1,20.7-15.9c2.2-1.5,4.7-2.5,7-3.8c1.3,0.8,1.7,2.2,2.4,3.5
		c-10.3,4.9-20.2,10.4-29.7,16.6C470.6,200.1,470.5,200,470.3,199.8z"/>
	<path fill="#157F3F" d="M470.7,200.3c-1,1.4-2.1,2.6-4.3,2.7c0.8-2.1,2.2-2.8,3.9-3.2C470.5,200,470.6,200.1,470.7,200.3z"/>
</g>
</svg>
