<?xml version="1.0" encoding="utf-8"?>
<!-- Generator: Adobe Illustrator 16.2.0, SVG Export Plug-In . SVG Version: 6.00 Build 0)  -->
<!DOCTYPE svg PUBLIC "-//W3C//DTD SVG 1.1//EN" "http://www.w3.org/Graphics/SVG/1.1/DTD/svg11.dtd">
<svg version="1.1" id="Layer_1" xmlns="http://www.w3.org/2000/svg" xmlns:xlink="http://www.w3.org/1999/xlink" x="0px" y="0px"
	 width="587px" height="543px" viewBox="0 0 587 543" enable-background="new 0 0 587 543" xml:space="preserve">
<style type="text/css">
	<![CDATA[
	 .strip{fill:#157F3F;}
	 .bg{fill:#020202;}
	]]>
</style>
<path fill-rule="evenodd" clip-rule="evenodd" class="bg" d="M324.234,536.5c-14.315,0-28.631,0-42.946,0
	c-3.653-2.043-7.837-1.073-11.678-2.054c0.009-1.949,0.129-3.905,0.006-5.847c-0.43-6.753,1.027-13.586-0.855-20.275
	c-0.57-14.7-2.892-29.163-5.715-43.573c-3.379-17.245-7.773-34.223-13.08-50.961c-7.643-24.106-16.553-47.71-28.477-70.083
	c-0.891-1.672-1.795-3.204-4.13-1.884c6.236,17.512,11.985,35.152,16.616,53.156c5.788,22.504,9.5,45.328,11.199,68.49
	c-0.003,9.656-0.006,19.313-0.008,28.969c-0.086,1.451-0.073,2.917-0.273,4.353c-1.528,10.966-3.097,21.925-4.652,32.885
	c-9.687-1.365-19.387-2.658-28.899-5.02c-1.405-9.113-3.017-18.198-4.174-27.342c-2.729-21.568-4.413-43.215-5.375-64.951
	c-1.492-33.682,0.43-67.213,3.617-100.684c2.116-22.224,5.372-44.332,9.54-66.276c2.581-13.583,4.669-27.28,8.638-40.571
	c1.836,3.212,3.674,6.424,5.511,9.636c0.473-0.171,0.946-0.343,1.419-0.514c-0.155-6.473-4.12-12.102-5.051-18.402
	c4.399-20.687,10.316-40.993,15.91-61.584c-3.841,0.333-4.895,2.8-5.947,5.425c-5.176,12.916-10.419,25.802-15.639,38.699
	c-1.32-4.32-2.733-8.615-3.943-12.965c-6.931-24.887-11.419-50.22-12.5-76.03c-0.588-14.028-0.311-28.083,1.639-42.106
	c1.332-9.577,3.404-18.98,5.057-28.476c2.416-1.275,5.208-2.132,7.175-3.905c5.909-5.326,12.152-10.12,19.108-13.98
	c0.393,3.139-2.255,4.889-3.369,7.341c-1.227,2.7-2.766,5.571-0.387,8.168c3.151,3.442,6.704,6.42,10.905,8.725
	c7.072,3.88,14.973,4.695,22.539,5.276c22.777,1.749,44.547-2.493,64.52-14.125c4.444-2.589,7.247-6.413,7.395-11.815
	c0.054-1.958,0.198-3.928,2.107-5.149c4.049,3.77,11.089,2.62,13.931,8.457c0.176,0.36,1.179,0.431,1.801,0.443
	c5.599,0.117,9.776,3.637,14.446,5.972c-1.623,1.073-2.063,2.117-1.449,4.345c4.445,16.136,7.036,32.579,7.253,49.353
	c0.001,6.435,0.003,12.869,0.004,19.304c-0.563,22.598-4.078,44.77-9.604,66.652c-2.695-5.474-5.419-10.934-8.07-16.429
	c-1.147-2.38-2.405-4.457-5.812-4.113c3.699,10.918,7.295,21.532,10.892,32.148c-3.805,16.843-9.921,33.01-14.475,49.739
	c7.991-11.205,13.545-23.594,18.821-36.13c6.905,21.823,13.016,43.867,18.448,66.103c7.909,32.367,13.886,65.092,17.963,98.148
	c2.563,20.777,4.009,41.668,4.717,62.589c0.735,21.765,0.141,43.508-1.315,65.251c-0.671,10.009-2.466,19.936-2.227,30.007
	c-0.382,1.122-1.466,1.21-2.341,1.424c-10.902,2.677-21.817,5.302-32.729,7.94c-0.139-1.289-0.117-2.619-0.438-3.861
	c-3.658-14.138-4.815-28.61-5.447-43.106c-0.365-8.395,0.071-16.799,0.646-25.229c1.113-16.309,3.548-32.362,6.869-48.324
	c4.651-22.358,11.523-44.064,19.14-65.559c0.612-1.727,2.002-3.408,1.085-5.486c-1.964-0.317-2.717,1.138-3.318,2.37
	c-29.778,61.046-49.886,124.497-47.974,193.406C335.427,536.084,329.595,534.358,324.234,536.5z M249.356,121.348
	c1.018,0.62,1.769,0.189,2.221-0.471c9.804-14.365,16.636-29.814,17.236-47.524c0.06-1.748-0.501-2.358-2.43-2.64
	c-7.079-1.03-7.058-1.164-6.581,5.819c0.034,0.484-0.004,0.974,0.029,1.459C260.869,93.536,256.494,107.79,249.356,121.348z
	 M327.888,115.603c-7.796-16.843-13.099-34.079-9.182-53.25c-2.251,0.622-3.773,1.298-5.341,1.425
	c-4.202,0.338-5.252,2.571-4.746,6.468C310.809,87.131,317.348,102.157,327.888,115.603z"/>
<path fill-rule="evenodd" clip-rule="evenodd" fill="#3E3E3E" d="M300.81,6.5c3.749,1.923,7.975,1.57,11.95,2.433
	c9.6,2.083,18.815,5.038,27.274,10.117c-1.909,1.221-2.054,3.191-2.107,5.149c-0.147,5.403-2.95,9.227-7.395,11.815
	c-19.973,11.632-41.743,15.874-64.52,14.125c-7.565-0.581-15.466-1.396-22.539-5.276c-4.201-2.305-7.753-5.283-10.905-8.725
	c-2.379-2.597-0.84-5.468,0.387-8.168c1.113-2.452,3.761-4.202,3.369-7.341c10.741-7.979,23.147-11.36,36.147-13.124
	c1.025-0.139,2.355,0.438,2.959-1.005C283.891,6.5,292.35,6.5,300.81,6.5z"/>
<path fill-rule="evenodd" clip-rule="evenodd" fill="#F4F4F4" d="M211.341,524.656c-13.143-2.103-26.116-4.757-37.919-11.348
	c-1.015-0.567-2.006-1.076-2.445-2.235c-1.129-8.866-1.909-17.772-1.813-26.704c0.415-38.326,3.632-76.41,9.454-114.313
	c4.98-32.429,11.693-64.466,19.651-96.275c5.4-21.582,11.859-42.859,17.953-64.242c2.942,4.864,5.552,9.886,7.365,15.293
	c-3.969,13.292-6.058,26.989-8.638,40.571c-4.168,21.944-7.424,44.053-9.54,66.276c-3.187,33.471-5.108,67.002-3.617,100.684
	c0.962,21.736,2.646,43.383,5.375,64.951C208.324,506.458,209.936,515.543,211.341,524.656z"/>
<path fill-rule="evenodd" clip-rule="evenodd" fill="#F4F4F4" d="M427.617,357.697c-1.865,14.205-0.48,28.479-0.882,42.715
	c-0.097,3.394,0.216,6.815-0.954,10.099c-3.061,8.581,0.701,16.166,3.617,23.808c1.471,3.852,2.168,7.699,2.244,11.81
	c0.317,17.271,1.593,34.473,4.732,51.48c1.308,7.076-2.944,11.5-7.521,15.203c-6.709,5.427-14.97,7.388-23.496,8.077
	c-0.239-10.071,1.556-19.998,2.227-30.007c1.456-21.743,2.051-43.486,1.315-65.251c-0.708-20.921-2.153-41.812-4.717-62.589
	c-4.077-33.057-10.054-65.781-17.963-98.148c-5.433-22.236-11.543-44.279-18.447-66.102c1.233-4.042,2.215-8.188,4.771-11.69
	c19.649,46.667,35.004,94.763,47.879,143.693C422.785,339.77,423.875,349.092,427.617,357.697z"/>
<path fill-rule="evenodd" clip-rule="evenodd" class="strip" d="M372.544,187.102c-2.556,3.503-3.537,7.649-4.771,11.69
	c-5.277,12.535-10.831,24.924-18.822,36.129c4.554-16.729,10.67-32.896,14.474-49.741c1.909-3.633,2.707-7.553,2.991-11.604
	c5.525-21.882,9.04-44.054,9.603-66.651c1.386-6.434,1.39-12.87-0.003-19.305c-0.217-16.774-2.808-33.217-7.253-49.353
	c-0.614-2.229-0.174-3.272,1.449-4.345c10.057,4.252,20.111,8.503,30.167,12.754c0.672,12.838-0.53,25.61-2.122,38.288
	c-2.651,21.123-7.094,41.934-13.13,62.355C381.185,160.654,376.755,173.846,372.544,187.102z"/>
<path fill-rule="evenodd" clip-rule="evenodd" class="strip" d="M370.289,530.253c-9.646,2.577-19.488,3.772-29.438,4.211
	c-1.912-68.909,18.195-132.36,47.974-193.406c0.602-1.232,1.354-2.688,3.318-2.37c0.917,2.078-0.473,3.76-1.085,5.486
	c-7.616,21.494-14.488,43.2-19.14,65.559c-3.321,15.962-5.756,32.016-6.869,48.324c-0.574,8.43-1.011,16.834-0.646,25.229
	c0.632,14.496,1.789,28.969,5.447,43.106C370.172,527.634,370.15,528.964,370.289,530.253z"/>
<path fill-rule="evenodd" clip-rule="evenodd" class="strip" d="M268.026,534.33c-9.355-0.994-18.675-2.199-27.786-4.654
	c1.556-10.96,3.125-21.919,4.652-32.885c0.2-1.436,0.187-2.901,0.273-4.351c1.48-9.655,1.452-19.313,0.008-28.971
	c-1.699-23.162-5.411-45.986-11.199-68.49c-4.631-18.004-10.38-35.645-16.616-53.156c2.335-1.32,3.239,0.212,4.13,1.884
	c11.924,22.373,20.834,45.977,28.477,70.083c5.307,16.738,9.701,33.716,13.08,50.961c2.823,14.41,5.146,28.873,5.714,43.571
	C268.199,516.98,269.651,525.698,268.026,534.33z"/>
<path fill-rule="evenodd" clip-rule="evenodd" class="strip" d="M223.586,224.832c-1.813-5.407-4.423-10.43-7.366-15.292
	c-9.809-24.113-18.464-48.625-25.023-73.836c-4.171-16.03-7.375-32.237-9.636-48.676c-1.365-9.922-0.977-19.966-2.879-29.803
	c10.474-6.201,19.964-14.048,31.358-18.709c-1.652,9.495-3.724,18.898-5.056,28.475c-1.949,14.022-2.227,28.078-1.639,42.106
	c1.081,25.81,5.569,51.143,12.5,76.03c1.21,4.35,2.624,8.646,3.943,12.965c1.114,6.073,2.681,11.999,5.676,17.46
	c0.931,6.301,4.896,11.929,5.051,18.402c-0.473,0.171-0.946,0.342-1.419,0.514C227.261,231.256,225.423,228.044,223.586,224.832z"/>
<path fill-rule="evenodd" clip-rule="evenodd" fill="#F4F4F4" d="M225.466,215.552c-2.996-5.461-4.562-11.387-5.676-17.46
	c5.22-12.897,10.463-25.784,15.639-38.699c1.052-2.625,2.105-5.091,5.947-5.425C235.782,174.559,229.865,194.865,225.466,215.552z"
	/>
<path fill-rule="evenodd" clip-rule="evenodd" fill="#F4F4F4" d="M249.356,121.348c7.137-13.558,11.513-27.812,10.475-43.356
	c-0.033-0.485,0.005-0.975-0.029-1.459c-0.477-6.983-0.498-6.85,6.581-5.819c1.928,0.281,2.49,0.892,2.43,2.64
	c-0.6,17.71-7.432,33.159-17.236,47.524C251.125,121.538,250.375,121.968,249.356,121.348z"/>
<path fill-rule="evenodd" clip-rule="evenodd" fill="#F4F4F4" d="M327.888,115.603c-10.54-13.446-17.079-28.472-19.269-45.357
	c-0.506-3.897,0.544-6.13,4.746-6.468c1.567-0.127,3.09-0.804,5.341-1.425C314.789,81.524,320.092,98.76,327.888,115.603z"/>
<path fill-rule="evenodd" clip-rule="evenodd" fill="#F4F4F4" d="M366.416,173.576c-0.284,4.051-1.082,7.971-2.991,11.604
	c-3.596-10.614-7.191-21.228-10.891-32.146c3.406-0.344,4.664,1.733,5.812,4.113C360.997,162.642,363.721,168.102,366.416,173.576z"
	/>
<path fill-rule="evenodd" clip-rule="evenodd" fill="#3E3E3E" d="M245.174,463.47c1.443,9.658,1.472,19.315-0.008,28.971
	C245.168,482.782,245.171,473.126,245.174,463.47z"/>
<path fill-rule="evenodd" clip-rule="evenodd" fill="#3E3E3E" d="M268.026,534.33c1.625-8.632,0.172-17.35,0.734-26.008
	c1.883,6.691,0.426,13.524,0.856,20.277c0.123,1.941,0.003,3.897-0.006,5.847C269.082,534.407,268.555,534.369,268.026,534.33z"/>
<path fill-rule="evenodd" clip-rule="evenodd" fill="#3E3E3E" d="M376.016,87.62c1.393,6.435,1.389,12.871,0.003,19.305
	C376.019,100.489,376.017,94.055,376.016,87.62z"/>
<path fill-rule="evenodd" clip-rule="evenodd" class="bg" d="M178.683,57.225c1.902,9.837,1.514,19.881,2.879,29.803
	c2.261,16.439,5.464,32.646,9.636,48.676c6.559,25.21,15.214,49.723,25.023,73.836c-6.093,21.381-12.552,42.658-17.952,64.24
	c-7.958,31.81-14.67,63.847-19.651,96.275c-5.822,37.903-9.039,75.987-9.454,114.313c-0.096,8.932,0.684,17.838,1.813,26.704
	c-6.563-3.512-10.774-8.541-10.842-16.39c-0.106-12.003,1.621-23.6,7.375-34.328c0.565-1.055,0.789-1.98,0.504-3.209
	c-3.142-13.578-2.327-26.907,2.823-39.894c0.871-2.195,1.423-4.339,0.729-6.621c-2.821-9.278-2.085-18.781-0.547-27.992
	c1.211-7.254,2.905-13.921,0.901-21.557c-1.666-6.351,1.622-13.068,3.339-19.462c1.607-5.985,1.943-11.856,0.209-17.747
	c-2.138-7.259-2.51-14.681-2.389-22.143c0.222-13.793-1.224-27.569-0.372-41.366c0.014-0.208-0.348-0.44-0.883-1.075
	c-2.187,8.363-8.535,5.015-13.171,4.346c-14.574-2.101-28.163-7.426-40.929-14.718c-12.528-7.154-24.955-14.491-38.857-18.771
	c-2.135-0.658-3.008-1.589-2.109-3.859c0.947-2.39,1.669-4.868,2.488-7.305c18.28,4.13,33.33,14.485,48.184,25.264
	c-12.054-12.608-25.888-22.618-41.72-29.781c-1.585-0.717-3.281-1.53-5.153-0.829c0.551-2.317,1.101-4.634,1.652-6.953
	c1.647-0.53,3.106,0.071,4.678,0.555c14.708,4.531,27.54,12.478,39.742,21.601c0.308,0.275,0.615,0.551,0.923,0.827
	c0.378,0.227,0.756,0.453,1.135,0.678c0.341,0.455,0.638,1.077,1.289,0.333c-0.287-0.25-0.574-0.499-0.861-0.749
	c0.01-0.631-0.332-0.942-0.928-1.025c-0.318-0.332-0.637-0.664-0.956-0.996c-11.548-11.484-24.927-20.236-39.878-26.611
	c-0.983-0.419-2.164-0.378-3.251-0.552c5.201-16.191,9.466-32.765,15.864-48.469c6.547-16.073,11.037-32.786,17.25-48.925
	c1.295-3.365,3.19-5.589,6.621-7.128c8.262-3.702,14.595-10.094,21.292-16.025C155.327,71.162,166.514,63.446,178.683,57.225z
	 M174.129,281.184c0.149,0.142,0.299,0.285,0.448,0.427c0-4.113,0-8.226,0-12.339c-0.148-0.001-0.298-0.002-0.448-0.004
	C174.129,273.239,174.129,277.212,174.129,281.184z"/>
<path fill-rule="evenodd" clip-rule="evenodd" class="strip" d="M80.556,213.636c1.872-0.701,3.568,0.112,5.153,0.829
	c15.832,7.163,29.666,17.173,41.72,29.781c-14.854-10.779-29.903-21.134-48.184-25.264
	C77.242,216.601,80.854,215.598,80.556,213.636z"/>
<path fill-rule="evenodd" clip-rule="evenodd" fill="#F4F4F4" d="M84.099,200.744c1.088,0.174,2.268,0.133,3.251,0.552
	c14.952,6.375,28.331,15.127,39.878,26.611c-0.2,0.311-0.401,0.622-0.602,0.933c-12.202-9.124-25.034-17.071-39.742-21.602
	c-1.571-0.483-3.03-1.084-4.678-0.555C82.789,204.688,82.733,202.491,84.099,200.744z"/>
<path fill-rule="evenodd" clip-rule="evenodd" class="bg" d="M372.544,187.102c4.211-13.256,8.641-26.447,12.583-39.782
	c6.036-20.422,10.479-41.233,13.13-62.355c1.592-12.678,2.794-25.45,2.122-38.288c7.93,2.736,15.898,5.363,23.771,8.259
	c3.411,1.254,5.544,4.414,8.344,6.601c5.223,4.08,10.06,8.782,16.935,10.043c1.69,0.311,2.181,1.787,3.087,2.878
	c9.841,11.858,15.728,25.996,22.721,39.487c9.272,17.892,14.004,37.567,21.75,56.063c0.174,0.415,0.024,0.965,0.026,1.452
	c-13.491,4.993-24.169,14.189-35.945,23.707c1.458-0.18,1.849-0.142,2.159-0.283c0.859-0.388,1.756-0.751,2.51-1.299
	c9.311-6.766,19.156-12.557,29.956-16.64c1.162-0.439,2.553-0.757,2.293-2.525c3.546,2.227,3.347,6.356,4.88,9.606
	c-2.424,1.277-4.981,2.356-7.249,3.868c-7.477,4.986-15.586,9.171-21.33,16.415c-1.807,0.334-3.272,1.08-4.057,3.256
	c2.278-0.157,3.406-1.395,4.433-2.791c9.804-6.446,20.021-12.151,30.633-17.155c2.595,2.999,1.881,7.259,4.047,10.49
	c1.039,1.55-0.729,2.139-1.851,2.724c-26.451,13.803-53.356,26.539-82.221,34.588c-6.684,1.864-6.918,1.715-6.327,8.659
	c2.421,28.473,5.067,56.926,7.407,85.405c0.771,9.376,0.864,18.808,1.268,28.214c-3.742-8.605-4.832-17.928-7.194-26.902
	C407.548,281.864,392.193,233.769,372.544,187.102z"/>
<path fill-rule="evenodd" clip-rule="evenodd" fill="#F4F4F4" d="M497.984,174.418c0.26,1.768-1.131,2.085-2.293,2.525
	c-10.8,4.083-20.646,9.874-29.956,16.64c-0.754,0.548-1.65,0.911-2.51,1.299c-0.311,0.141-0.701,0.103-2.159,0.283
	c11.776-9.518,22.454-18.714,35.945-23.707C498.204,172.16,497.913,173.349,497.984,174.418z"/>
<path fill-rule="evenodd" clip-rule="evenodd" class="strip" d="M474.282,204.303c5.747-7.239,13.856-11.424,21.333-16.41
	c2.268-1.512,4.825-2.591,7.249-3.868c1.297,0.865,1.74,2.308,2.427,3.591c-10.608,5.006-20.826,10.711-30.63,17.157
	C474.527,204.621,474.402,204.464,474.282,204.303z"/>
<path fill-rule="evenodd" clip-rule="evenodd" fill="#3E3E3E" d="M174.129,281.184c0-3.972,0-7.944,0-11.916
	c0.149,0.002,0.299,0.003,0.448,0.004c0,4.113,0,8.226,0,12.339C174.429,281.469,174.279,281.325,174.129,281.184z"/>
<path fill-rule="evenodd" clip-rule="evenodd" fill="#F4F4F4" d="M127.229,227.907c0.319,0.333,0.638,0.664,0.956,0.996
	c-0.211,0.254-0.423,0.509-0.635,0.763c-0.308-0.276-0.615-0.551-0.923-0.827C126.828,228.529,127.029,228.218,127.229,227.907z"/>
<path fill-rule="evenodd" clip-rule="evenodd" fill="#F4F4F4" d="M128.185,228.903c0.597,0.083,0.938,0.395,0.928,1.025
	c-0.142,0.14-0.285,0.278-0.429,0.417c-0.378-0.227-0.756-0.453-1.134-0.679C127.762,229.412,127.974,229.158,128.185,228.903z"/>
<path fill-rule="evenodd" clip-rule="evenodd" fill="#F4F4F4" d="M129.113,229.929c0.287,0.25,0.574,0.499,0.861,0.749
	c-0.651,0.744-0.947,0.122-1.289-0.333C128.829,230.207,128.971,230.069,129.113,229.929z"/>
<path fill-rule="evenodd" clip-rule="evenodd" class="strip" d="M474.661,204.772c-1.026,1.396-2.154,2.634-4.433,2.791
	c0.784-2.176,2.25-2.922,4.057-3.256C474.402,204.464,474.527,204.621,474.661,204.772z"/>
</svg>
