<?xml version="1.0" encoding="utf-8"?>
<!-- Generator: Adobe Illustrator 21.0.0, SVG Export Plug-In . SVG Version: 6.00 Build 0)  -->
<svg version="1.1" id="Layer_1" xmlns="http://www.w3.org/2000/svg" xmlns:xlink="http://www.w3.org/1999/xlink" x="0px" y="0px"
	 width="590px" height="530px" viewBox="0 0 590 530" enable-background="new 0 0 590 530" xml:space="preserve">
<path id="la_x7C_Main_Color_x7C_main" fill="#020202" d="M512,200.2c-0.7-1.2-1.3-2.6-2.6-3.2c-14.1,5.2-26.5,13.3-38.4,22.3
	c10.2-11.1,22-20.1,35.6-26.8c-0.6-2.2-1.4-4.3-2.8-6c-12.8,4.5-23.9,11.8-34.9,19.5c-0.5,0.5-1.1,1-1.6,1.5
	c-0.3,0.3-0.6,0.5-0.9,0.8c-0.4,0.2-0.8,1-1.3,0.2c0-0.1,0.5-0.5,0.7-0.8c0.3-0.3,0.6-0.7,0.9-1c0.4-0.5,0.8-0.9,1.2-1.4
	c10.1-9.4,21-17.6,33.7-23.2c1.7-2.6-0.3-4.8-0.8-7.1c-6.9-30.5-16.4-59.8-34-86.2c-9.3-13.9-19-25.8-35.5-31.4
	c-9.6-3.2-18.6-8.2-27.9-12.4c0.1,10.8-0.5,21.6-1.7,32.4c-0.9,8-11.3,14.6-22.1,21.1c0-2.1,0.1-4.3,0.1-6.4
	c0.1-18.7-2.4-37.1-7-55.2c-0.4-1.7-0.7-3.3-0.3-5.1c-0.2-0.3-0.3-0.7-0.5-0.7c-9.5-1.9-16-9.2-24.4-13.2c-0.6-0.3-1.3-0.4-1.7-0.8
	c-7.5-8.5-17.7-7.5-27.5-7.8C310.9,9,303.5,9.2,296.2,9c-1.2,0-2.8,0.9-3.6-0.9c-4.4,0-8.8,0-13.3,0c-5,1.4-10.1,1.2-15.1,0
	c-0.6,0-1.3,0-1.9,0c-3,2.5-7.1,1.6-10.4,3.2c-3.4,1.7-7,2.3-9.3,6.6c-1.9,3.5-7,5.4-10.7,7.9c-2.1,1.4-4.3,2.5-5.7,4.7
	c-9.9,7.1-36.1,15.2-36.2,15c-18.7,9-35.5,21.4-53.6,31.5c-3.8,2.1-6.1,5.8-7.1,10.2c-0.3,1.5-0.7,2.9-2,4.1
	c-8.3,7.8-14.1,17.2-18.4,27.7c-4.6,11.2-9.1,22.4-13.6,33.6c-4,10-8,20.1-10.1,30.8c1.9-1.2,3.8-0.8,5.7,0.1
	c13.6,6.2,26,14.4,36.9,24.7c1.2,1,2.6,1.7,3,3.3c0.3,0.2,0.6,0.5,0.9,0.7c-0.1,0.1-0.3,0.3-0.3,0.3c-0.3-0.2-0.6-0.4-0.9-0.7
	c-1.6-0.5-2.7-1.7-3.7-2.9c-11.4-7.8-22.9-15.3-36.2-19.5c-2.3-0.7-4.6-2.1-7.2-1.6c0.3,1.4-1.4,2.4-0.6,3.9
	c13.7,5.4,25.5,13.7,36.6,23.1c0.9,0.8,2,1.6,2.3,2.9c1.9,0.6,2.9,2.2,4.8,4.2c-3-0.5-4-2.2-5.3-3.6c-8.1-5.2-15.9-11-24.8-15
	c-5-2.2-9.9-4.7-15.4-5.4c-1.4,4.8-2.5,9.8-5.2,14.1c-0.8,1.2-1.1,2.2,0.1,3.3c2.6,2.4,5.5,4.1,9,4.9c3,0.6,2.1,3,6.2,4.7
	c9.3,3.9,17.3,10.3,26.3,14.7c13.2,6.5,27,10.8,41.8,9.7c8.2-0.6,17.2-1,19.6-12.9c1.6,9.1,2.2,17.1,2.6,25.1
	c0.2,4.3-0.5,8.5-1.1,12.7c-1.4,8.7-2,17.5-1.3,26.3c3.9,7.9,3.5,16.5,2.7,24.8c-0.9,9.3-3,18.5-4.6,27.7c-0.1,0.8-0.6,1.4-1.5,1.6
	c0.6,3.6,0.5,7.3-0.1,10.9c1.9,1.1,1.5-0.6,1.8-1.5c12.7-52.6,29.8-103.8,49.4-154.2c-2.2-5.1-1-11.7,1.8-19.1
	c0.7,2.7,1.5,5.3,2.7,7.8c6.4-13.3,12.9-26.6,19.3-40c1.3-2.8,2.8-5.1,7.1-6.2c-7.3,21.8-15,42.6-21,64c1,5.7,3.5,10.9,5,16.5
	c0.3,1.1,1.6,3-0.1,3.8c-2.2,1-2.3-1.4-3.1-2.6c-1.7-2.5-2.1-5.9-4.8-7.8c-10.3,34.7-18.7,69.8-24.7,105.4
	c-4.7,27.6-7.4,55.4-8.7,83.4c0,0.6,0.1,1.2,0.2,1.9c4.6,1.2,7.5,4.3,9.9,8.1c1.7,2.7,0.8,3.5-2.2,3.5c-2.7-0.1-5.1-1.5-7.9-1
	c-0.7,25.2,0.8,50.3,4.4,75.3c0.2,1.7,0.2,3.5,0.3,5.2c2.8,2.8,6.4,4.1,10,4.9c7.3,1.7,14.8,2.9,22.2,4.4c1.5-10,3.7-19.9,4.2-30.1
	c0.1-1.7,0.4-3.4,0.6-5.1c0-10.2,0-20.4,0-30.6c-2.1-28.3-7.4-56.1-15.5-83.3c-3.4-11.4-7.4-22.7-11.2-34c-0.4-1.2-1.1-2.3-0.4-3.6
	c2.4,0.1,3,2.1,3.9,3.7c15,28.2,25.4,58.1,33.8,88.8c4.8,17.4,8.7,35,11.1,52.8c1.9,14.9,3.2,29.9,2.1,45c0.6,0.4,1.8,0,1.9,1.2
	c15.5,0,30.9,0,46.4,0c5.7-2.1,11.8-1.6,17.7-2.8c14-2.8,28.3-3.6,42.3-6c-4.9-2.2-3.3-7-4-10.7c-1-5.8-0.9-11.8-1.3-17.7
	c-1.2-10.9-1.2-21.7,0-32.6c2.1-44.7,10.8-88.2,25.9-130.3c0.4-1.2,0.8-2.4,1.3-3.5c0.5-1,1-2.2,2.4-1.6c1.2,0.6,0.3,1.6,0.1,2.4
	c-2.1,10.6-4.1,21.2-6.2,31.8c-2.2,10.9-3.2,22-4.6,33c-1.9,14.9-2.1,29.8-1.7,44.7c0.6,24.4,4.1,48.3,12.2,71.5
	c0.6,1.6,1.3,3.2,0.8,5c6-1.9,11.7-4.7,17.2-7.8c0.8-16.6,2.5-33.1,2.1-49.7c-0.1-5.5-0.3-11-0.4-16.5c-3-0.2-6.2,0.7-9.1-1.1
	c-3.1-2-3.1-4,0.1-5.8c2.7-1.5,5.7-2.1,8.7-2.8c-4-72.4-22.1-141.8-46.6-209.6c-0.9-2.5-1.8-5-2.8-7.5c-5.1,6.5-7.4,14.4-11.5,21.4
	c-1.1,1.8-1.6,4.2-4.7,4.3c4-12.4,8-24.7,12-37c-4.5-11.4-9-22.8-13.7-34.6c3.6-0.5,4.9,1.7,6.2,4c3.7,6.5,6.6,13.4,10.9,19.6
	c0.8-4.6,1.9-9.1,3-13.7c3.1,8.3,4.7,16.3,1.9,23.7c0.4,0.7,0.8,1.4,1.1,2.1c19.1,37.9,34,77.6,48.2,117.5c0.5,1.4,0,3.4,2.2,3.8
	c-0.8-22.8-1.6-45.6-2.5-68.4c-0.2-3.6-0.2-4.8,4.2-3.6c25.7,7.4,54.9-2.8,71-24.4c3.5-4.8,7.9-8.5,13.3-11.1
	C515,205.6,515.1,205.3,512,200.2z M227.8,426.5c0.3-0.1,0.6-0.1,0.9-0.1c3,0,7.1,0,7.4,3.2c0.3,2.4-4.1,2.3-6.3,2.4
	c-6.1,0.2-12,1.8-19.1,2.8C216.5,430.2,222,428,227.8,426.5z M364,493.7c0.3,0,0.7,0.3,0.7,0.4c-0.2,0.7-0.8,0.7-1.4,0.6
	c-0.2,0-0.4-0.3-0.8-0.6C363.2,493.8,363.6,493.7,364,493.7z M361.2,494.8c-13.5,4.1-27.6,5.4-41.6,7.4
	C333.1,497.7,346.8,494.1,361.2,494.8z"/>
<path fill="#565656" d="M279.4,8c-5,1.4-10.1,1.2-15.1,0C269.3,8,274.3,8,279.4,8z"/>
<path fill="#565656" d="M210.7,434.8c5.8-4.6,11.2-6.8,17-8.3c0.3-0.1,0.6-0.1,0.9-0.1c3,0,7.1,0,7.4,3.2c0.3,2.4-4.1,2.3-6.3,2.4
	C223.7,432.2,217.8,433.7,210.7,434.8z"/>
<path fill="#565656" d="M319.7,502.2c13.5-4.5,27.1-8.1,41.6-7.4C347.7,498.9,333.6,500.2,319.7,502.2z"/>
<path fill="#565656" d="M417.3,421.6c0.1,3.2,0.1,6.4,0.2,9.7c-3-0.2-6.2,0.7-9.1-1.1c-3.1-2-3.1-4,0.1-5.8
	C411.2,422.8,414.3,422.2,417.3,421.6z"/>
<path fill="#565656" d="M199.9,427.4c0-3.5,0.1-7,0.1-10.6c4.6,1.2,7.5,4.3,9.9,8.1c1.7,2.7,0.8,3.5-2.2,3.5
	C205.1,428.3,202.6,426.9,199.9,427.4z"/>
<path fill="#565656" d="M368.2,452.3c0,10.9,0,21.7,0,32.6C367,474,367,463.2,368.2,452.3z"/>
<path fill="#565656" d="M241.5,451.3c1.2,10.2,1.2,20.4,0,30.6C241.6,471.7,241.5,461.5,241.5,451.3z"/>
<path fill="#565656" d="M362.6,494c0.6-0.2,1-0.3,1.4-0.3c0.3,0,0.7,0.3,0.7,0.4c-0.2,0.7-0.8,0.7-1.4,0.6
	C363.1,494.5,363,494.3,362.6,494z"/>
<path fill="#565656" d="M178.9,300.5c3.9,7.9,3.5,16.5,2.7,24.8c-0.9,9.3-3,18.5-4.6,27.7c-0.1,0.8-0.6,1.4-1.5,1.6
	c-0.8-2.1-0.3-4.4-0.2-6.5c0.9-15.1,1.9-30.3,2.9-45.4C178.3,301.9,178.6,301.2,178.9,300.5z"/>
<g id="la_x7C_Third_Color_x7C_third">
	<path fill="#157F3F" d="M233.3,226.2c1.4-2.4-0.5-4.2-1.4-6c-1.8-3.5-2.9-7.3-5.3-10.4c-8.4-19.8-15-40.2-21-60.8
		c-5.3-18.3-9.4-36.8-12.1-55.7c-1.5-10.5-2-21.1-2.9-31.7c1.5-5.2,0.3-10.5,0.7-15.8c0.1-0.4,0.1-0.7,0.2-1.1l-0.1,0.1
		c1.1-0.1,1.1-0.1,2.8-1.3l-0.2,0.1c3.4-0.3,6.4-1.3,8.5-4.3c3.8-2.2,7.7-4,12.1-4.5c4.3-0.5,8.2-2.1,11.7-4.6
		c-2.6,11.4-6.4,22.6-7.8,34.2c-0.9,7.9-2.2,15.8-2.3,23.8c-0.3,13.5-0.6,27,0.9,40.5c2,18.2,4.9,36.2,9.5,53.9
		c1.4,5.3,2.1,10.7,4.5,15.7c0.7,6.3,2,12.3,5.4,17.8c1,5.7,3.5,10.9,5,16.5c0.3,1.1,1.6,2.9-0.1,3.8c-2.2,1-2.3-1.4-3.1-2.6
		C236.4,231.5,236.1,228.1,233.3,226.2z"/>
	<path fill="#157F3F" d="M372.1,192.3c-1.8,3.9-4.7,7.4-4.1,12.1c-5.1,6.5-7.4,14.4-11.5,21.4c-1.1,1.8-1.6,4.2-4.7,4.3
		c4-12.4,8-24.7,12-37c1.9-3.4,2.4-7.2,3.4-10.9c2-11.1,5.3-21.8,7.2-32.9c2-11.9,3.5-23.7,4.6-35.7c0.6-7.2,0.7-14.4,0.8-21.6
		c0.1-18.7-2.4-37.1-7-55.2c-0.4-1.7-0.7-3.3-0.3-5.1c0.6-0.1,1.3-0.4,1.8-0.2c9.4,3.9,18.8,7.9,28.1,11.9c0.5,0.2,0.7,1,1,1.5
		c0.1,10.8-0.5,21.6-1.7,32.4c-1.7,16.2-4.9,32.1-8.6,47.9C387.9,148.1,380.3,170.3,372.1,192.3z"/>
	<path fill="#157F3F" d="M398.5,505.3c-8.2,3.2-16.5,5.9-25.1,8c-4.9-2.2-3.3-7-4-10.7c-1-5.8-0.9-11.8-1.3-17.7
		c0-10.9,0-21.7,0-32.6c2.1-44.7,10.8-88.2,25.9-130.3c0.4-1.2,0.8-2.4,1.3-3.5c0.5-1,1-2.2,2.4-1.6c1.2,0.6,0.3,1.6,0.1,2.4
		c-2.1,10.6-4.1,21.2-6.2,31.8c-2.2,10.9-3.2,22-4.6,33c-1.9,14.9-2.1,29.8-1.7,44.7c0.6,24.4,4.1,48.3,12.2,71.5
		C398.3,501.9,399,503.5,398.5,505.3z"/>
	<path fill="#157F3F" d="M265.1,520.9c-9.5-0.8-19-1.6-28.4-3.7c1.5-10,3.7-19.9,4.2-30.1c0.1-1.7,0.4-3.4,0.6-5.1
		c1.2-10.2,1.2-20.4,0-30.6c-2.1-28.3-7.4-56.1-15.5-83.3c-3.4-11.4-7.4-22.7-11.2-34c-0.4-1.2-1.1-2.3-0.4-3.6
		c2.4,0.1,3,2.1,3.9,3.7c15,28.2,25.4,58.1,33.8,88.8c4.8,17.4,8.7,35,11.1,52.8C265,490.7,266.3,505.8,265.1,520.9z"/>
	<path fill="#157F3F" d="M82.7,191.7c13.7,5.4,25.5,13.7,36.6,23.1c0.9,0.8,2,1.6,2.3,2.9c-0.2,0.2-0.3,0.4-0.5,0.6
		c-8.1-5.2-15.9-11-24.8-15c-5-2.2-9.9-4.7-15.4-5.4C81.5,195.8,82.1,193.7,82.7,191.7z"/>
	<path fill="#157F3F" d="M509.4,197c-14.1,5.2-26.5,13.3-38.4,22.3c10.2-11.1,22-20.1,35.6-26.8C507.9,193.8,508.9,195.2,509.4,197z
		"/>
	<path fill="#157F3F" d="M121.6,217.7c1.9,0.6,2.9,2.2,4.8,4.2c-3-0.5-4-2.2-5.3-3.6C121.3,218.1,121.4,217.9,121.6,217.7z"/>
</g>
<g id="la_x7C_Secondary_Color_x7C_second">
	<path fill="#E7E7E7" d="M204.6,507.8c-11.8-6.3-24.8-10.8-33.3-22.1c-0.9-1.1-2.1-1.2-3.1-1.9c-5-3.3-6-8.4-5.1-13.8
		c2.2-12.9,4.3-25.9,9.8-38c0.6-1.2,0.7-2.5,0-3.6c-4.7-8.1-2-15.8,1.3-23.4c1.3-3,2.8-6,4.8-8.6c2.2-2.8,2.4-5.7,0.5-8.2
		c-5-7-4.6-14.8-4.1-22.7c1.9,1.1,1.5-0.6,1.8-1.5c12.7-52.6,29.8-103.8,49.4-154.2c2.4,3.1,3.5,6.9,5.3,10.4c0.9,1.8,2.8,3.6,1.4,6
		c-10.3,34.7-18.7,69.8-24.7,105.4c-4.7,27.6-7.4,55.4-8.7,83.4c0,0.6,0.1,1.2,0.2,1.9c0,3.5-0.1,7-0.1,10.6
		c-0.7,25.2,0.8,50.3,4.4,75.3C204.6,504.4,204.5,506.1,204.6,507.8z"/>
	<path fill="#E7E7E7" d="M423.6,315.7c0.2,0.6,0.7,1.2,0.6,1.7c-0.7,9.9,1,19.8,1.1,29.7c0.2,14.6,0.5,29.2,1.9,43.8
		c1.6,16.6-0.6,33,0,49.5c0.4,10.2,0.5,20.7,3.6,30.6c1.4,4.3,0.9,8.7,0.8,13.1c0,3.1-2.3,5.2-4.5,6.9c-3.5,2.6-7.4,4.7-11.4,6.4
		c0.8-16.6,2.5-33.1,2.1-49.7c-0.1-5.5-0.3-11-0.4-16.5c-0.1-3.2-0.1-6.4-0.2-9.7c-4-72.4-22.1-141.8-46.6-209.6
		c-0.9-2.5-1.8-5-2.8-7.5c-0.6-4.7,2.3-8.2,4.1-12.1c0.4,0.7,0.8,1.4,1.1,2.1c19.1,37.9,34,77.6,48.2,117.5
		C421.8,313.3,421.4,315.3,423.6,315.7z"/>
	<path fill="#E7E7E7" d="M236.4,216.3c-3.4-5.4-4.7-11.5-5.4-17.8c6.4-13.3,12.9-26.6,19.3-40c1.3-2.8,2.8-5.1,7.1-6.2
		C250.2,174.2,242.4,195,236.4,216.3z"/>
	<path fill="#E7E7E7" d="M322.9,27.6c2,0.3,4.4-0.5,3.8,3.3C324,48,329,63.5,336.6,78.4c0.2,0.4,0.2,0.8,0.4,1.5
		c-1.5,0.1-1.9-1.1-2.4-1.9c-9.8-14-16.3-29.2-17.4-46.5c-0.1-2-0.5-4.3,2.8-3.9C321,27.6,322,27.6,322.9,27.6z"/>
	<path fill="#E7E7E7" d="M280.3,27.6c2.7-0.3,2.9,1.3,2.9,3.4c-0.2,11-3.6,21.2-8.2,31.1c-3,6.5-6.3,13-11.4,18.4
		c-0.6-2,0.8-3.1,1.4-4.5c5-10.2,8.4-20.9,9.4-32.3c0.4-4.1,0.2-8.2-0.7-12.2c-0.7-3.3,0.4-4.6,3.7-4.2
		C278.4,27.4,279.4,27.5,280.3,27.6z"/>
	<path fill="#E7E7E7" d="M367.2,182.3c-1,3.7-1.5,7.5-3.4,10.9c-4.5-11.4-9.1-22.8-13.7-34.6c3.6-0.5,4.9,1.7,6.2,4
		C360,169.2,363,176.1,367.2,182.3z"/>
	<path fill="#E7E7E7" d="M126.8,208.8c-11.4-7.8-22.9-15.3-36.2-19.5c-2.3-0.7-4.6-2.1-7.2-1.6c-0.6-2,1.7-2.8,1.9-4.5
		c1.9-1.2,3.8-0.8,5.7,0.1c13.6,6.2,26,14.4,36.9,24.7C127.4,208.4,127.1,208.6,126.8,208.8z"/>
	<path fill="#E7E7E7" d="M503.8,186.5c-12.8,4.5-23.9,11.8-34.9,19.5c-0.3-0.2-0.6-0.5-0.9-0.7c10.1-9.4,21-17.6,33.7-23.2
		C503.2,183.1,503.7,184.7,503.8,186.5z"/>
	<path fill="#E7E7E7" d="M130.5,211.8c-1.6-0.5-2.7-1.7-3.7-2.9c0.3-0.2,0.7-0.5,1-0.7c1.2,1,2.6,1.7,3,3.3L130.5,211.8z"/>
	<path fill="#E7E7E7" d="M130.8,211.4c0.3,0.2,0.6,0.5,0.9,0.7c-0.1,0.1-0.3,0.3-0.3,0.3c-0.3-0.2-0.6-0.4-0.9-0.7
		C130.5,211.8,130.8,211.4,130.8,211.4z"/>
	<path fill="#E7E7E7" d="M466.7,206.7c0.4-0.5,0.8-0.9,1.2-1.4c0.3,0.2,0.6,0.5,0.9,0.7c-0.5,0.5-1.1,1-1.6,1.5
		C467.1,207.2,466.9,206.9,466.7,206.7z"/>
	<path fill="#E7E7E7" d="M465.8,207.7c0.3-0.3,0.6-0.7,0.9-1c0.2,0.3,0.4,0.5,0.6,0.8c-0.3,0.3-0.6,0.5-0.9,0.8
		C466.2,208,466,207.8,465.8,207.7z"/>
	<path fill="#E7E7E7" d="M466.3,208.2c-0.4,0.2-0.8,1-1.3,0.2c0-0.1,0.5-0.5,0.7-0.8C466,207.8,466.2,208,466.3,208.2z"/>
</g>
</svg>
