<?xml version="1.0" encoding="utf-8"?>
<!-- Generator: Adobe Illustrator 16.2.0, SVG Export Plug-In . SVG Version: 6.00 Build 0)  -->
<!DOCTYPE svg PUBLIC "-//W3C//DTD SVG 1.1//EN" "http://www.w3.org/Graphics/SVG/1.1/DTD/svg11.dtd">
<svg version="1.1" id="Layer_1" xmlns="http://www.w3.org/2000/svg" xmlns:xlink="http://www.w3.org/1999/xlink" x="0px" y="0px"
	 width="587px" height="543px" viewBox="0 0 587 543" enable-background="new 0 0 587 543" xml:space="preserve">
<style type="text/css">
	<![CDATA[
	 .strip{fill:#157F3F;}
	 .bg{fill:#020202;}
	]]>
</style>
<path fill-rule="evenodd" clip-rule="evenodd" class="bg" d="M313,543c-16.333,0-32.667,0-49,0
	c-0.141-1.294-1.359-0.839-2.04-1.258c1.227-15.944-0.131-31.82-2.189-47.567c-2.464-18.857-6.625-37.423-11.672-55.789
	c-8.907-32.407-19.851-64.017-35.708-93.767c-0.919-1.726-1.503-3.79-4.07-3.934c-0.655,1.373,0.042,2.53,0.465,3.79
	c4.005,11.943,8.249,23.817,11.865,35.878c8.61,28.719,14.15,58.042,16.419,87.96c0.001,10.779,0.002,21.559,0.004,32.338
	c-0.224,1.799-0.562,3.592-0.654,5.398c-0.544,10.729-2.837,21.211-4.45,31.789c-7.806-1.517-15.652-2.856-23.4-4.624
	c-3.841-0.877-7.648-2.249-10.559-5.215c-0.084-1.823-0.013-3.669-0.275-5.467c-3.842-26.363-5.359-52.86-4.655-79.489
	c2.884-0.558,5.498,0.98,8.322,1.061c3.086,0.088,4.102-0.809,2.29-3.652c-2.551-4.001-5.652-7.325-10.464-8.56
	c-0.066-0.66-0.218-1.324-0.187-1.979c1.401-29.525,4.305-58.906,9.238-88.048c6.372-37.645,15.207-74.732,26.076-111.333
	c2.947,1.976,3.292,5.562,5.115,8.228c0.82,1.199,0.926,3.78,3.248,2.706c1.855-0.858,0.464-2.801,0.154-3.974
	c-1.547-5.855-4.199-11.387-5.238-17.408c6.342-22.545,14.524-44.511,22.216-67.547c-4.57,1.161-6.147,3.663-7.537,6.569
	c-6.741,14.093-13.575,28.14-20.376,42.203c-2.537-5.25-3.356-11.007-4.799-16.569c-4.856-18.723-7.912-37.778-10.057-56.98
	c-1.589-14.224-1.256-28.528-0.95-42.789c0.18-8.388,1.463-16.763,2.463-25.118c1.476-12.335,5.464-24.115,8.243-36.163
	c1.488-2.295,3.849-3.496,6.043-4.948c3.956-2.618,9.332-4.572,11.325-8.297c2.451-4.579,6.257-5.207,9.852-7.022
	C251.505,1.681,255.806,2.602,259,0c0.667,0,1.333,0,2,0c5.333,1.293,10.667,1.448,16,0c4.667,0,9.333,0,14,0
	c0.828,1.983,2.563,0.974,3.833,1c7.796,0.164,15.604-0.021,23.394,0.271c10.302,0.386,21.118-0.75,29.009,8.268
	c0.399,0.457,1.159,0.601,1.755,0.882c8.846,4.166,15.786,11.869,25.787,13.908c0.229,0.046,0.37,0.519,0.55,0.79
	c-0.502,1.816-0.178,3.511,0.285,5.349c4.819,19.13,7.436,38.556,7.344,58.308c-0.035,7.617-0.148,15.208-0.798,22.839
	c-1.076,12.667-2.718,25.214-4.807,37.743c-1.956,11.732-5.451,23.106-7.555,34.791c-4.491-6.533-7.569-13.852-11.491-20.702
	c-1.41-2.463-2.824-4.749-6.585-4.246c4.923,12.407,9.702,24.45,14.481,36.494c-4.2,12.976-8.4,25.952-12.653,39.093
	c3.232-0.183,3.805-2.648,4.918-4.593c4.253-7.431,6.722-15.815,12.096-22.646c0.976,2.629,1.972,5.251,2.924,7.889
	c25.886,71.698,44.954,144.91,49.186,221.419c-3.181,0.66-6.37,1.319-9.242,2.926c-3.397,1.899-3.406,4.032-0.124,6.131
	c3.019,1.93,6.359,0.958,9.572,1.153c0.141,5.799,0.282,11.597,0.423,17.396c0.424,17.564-1.389,35.032-2.257,52.541
	c-5.805,3.316-11.796,6.221-18.179,8.267c0.534-1.901-0.24-3.573-0.848-5.308c-8.559-24.428-12.333-49.713-12.927-75.475
	c-0.363-15.751-0.178-31.502,1.81-47.211c1.473-11.636,2.572-23.312,4.853-34.836c2.213-11.182,4.333-22.383,6.499-33.575
	c0.173-0.894,1.163-1.987-0.154-2.585c-1.446-0.656-2.078,0.603-2.553,1.675c-0.536,1.212-0.954,2.477-1.401,3.726
	c-15.949,44.525-25.091,90.403-27.346,137.648c-1.257,11.471-1.271,22.94,0.007,34.411c0.401,6.243,0.285,12.58,1.394,18.695
	c0.695,3.836-0.953,8.973,4.203,11.278c-14.843,2.499-29.926,3.301-44.695,6.303C325.51,541.275,319.047,540.828,313,543z
	 M274.993,20.527c-3.489-0.478-4.673,0.962-3.921,4.399c0.93,4.248,1.155,8.57,0.751,12.911c-1.117,12.007-4.643,23.307-9.94,34.102
	c-0.687,1.398-2.165,2.592-1.484,4.726c5.41-5.769,8.834-12.556,12.015-19.448c4.813-10.431,8.425-21.206,8.623-32.879
	c0.038-2.262-0.157-3.971-3.033-3.628C277.135,18.408,276.137,18.265,274.993,20.527z M323.002,20.733
	c-0.991-2.37-1.992-2.376-3.004-0.014c-3.478-0.389-3.112,2.035-2.975,4.167c1.172,18.222,8.066,34.312,18.408,49.095
	c0.553,0.79,0.922,2.054,2.542,1.963c-0.18-0.662-0.226-1.145-0.432-1.545c-8.094-15.772-13.315-32.178-10.492-50.188
	C327.68,20.194,325.064,21.045,323.002,20.733z M204.533,450.858c7.499-1.138,13.711-2.741,20.173-3.001
	c2.304-0.093,6.877,0.064,6.609-2.496c-0.355-3.384-4.632-3.385-7.814-3.388c-0.33,0-0.671,0.027-0.989,0.111
	C216.409,443.709,210.629,446.014,204.533,450.858z M319.563,522.08c14.745-2.178,29.59-3.548,43.899-7.841
	C348.229,513.52,333.784,517.318,319.563,522.08z M283.339,20.139c-0.069,0.167-0.138,0.334-0.207,0.501c10.516,0,21.031,0,31.548,0
	c-0.003-0.167-0.005-0.334-0.007-0.501C304.229,20.139,293.783,20.139,283.339,20.139z M341.905,9.681
	c-4.297-0.115-8.741-1.288-12.979,0.663C333.255,10.54,337.593,11.38,341.905,9.681z M345.906,20.774
	c0-0.159-0.001-0.318-0.002-0.479c-5.24,0-10.481,0-15.722,0c0.001,0.16,0.002,0.319,0.003,0.479
	C335.426,20.774,340.666,20.774,345.906,20.774z M324.893,18.119c0.033,0.218,0.065,0.437,0.099,0.654
	c0.454,0.137,0.906,0.277,1.361,0.41c1.357,0.395,2.011-0.115,1.139-1.302C327.226,17.52,325.792,18.017,324.893,18.119z
	 M270.08,18.338c1.123,0.559,1.975,1.021,3.077-0.046C272.188,18.541,271.513,16.988,270.08,18.338z M268.245,20.331
	c-0.582-0.118-1.025-0.271-1.469-0.274c-0.276-0.002-0.807,0.297-0.795,0.336c0.236,0.814,0.924,0.555,1.472,0.514
	C267.679,20.89,267.885,20.604,268.245,20.331z M364.935,513.368c0.371,0.309,0.558,0.586,0.794,0.638
	c0.596,0.132,1.22,0.138,1.477-0.582c0.017-0.049-0.496-0.411-0.76-0.407C366.008,513.022,365.573,513.207,364.935,513.368z"/>
<path fill-rule="evenodd" clip-rule="evenodd" fill="#565656" d="M277,0c-5.333,1.448-10.667,1.293-16,0C266.333,0,271.667,0,277,0z
	"/>
<path fill-rule="evenodd" clip-rule="evenodd" fill="#F4F4F4" d="M198.011,528c-12.461-6.695-26.234-11.43-35.179-23.386
	c-0.902-1.206-2.26-1.284-3.315-1.994c-5.242-3.526-6.342-8.918-5.396-14.545c2.3-13.67,4.555-27.393,10.336-40.18
	c0.596-1.317,0.735-2.612,0.03-3.821c-4.991-8.56-2.109-16.695,1.411-24.714c1.395-3.177,3-6.366,5.096-9.101
	c2.287-2.984,2.502-6.023,0.578-8.703c-5.293-7.37-4.843-15.607-4.38-23.929c2.042,1.156,1.616-0.592,1.851-1.569
	c13.398-55.567,31.49-109.63,52.173-162.863c2.579,3.292,3.748,7.316,5.625,10.972c0.991,1.93,2.948,3.795,1.514,6.365
	c-10.869,36.601-19.704,73.688-26.076,111.333c-4.933,29.142-7.836,58.522-9.238,88.048c-0.031,0.655,0.121,1.319,0.187,1.979
	c-0.049,3.717-0.098,7.435-0.147,11.151c-0.704,26.629,0.813,53.126,4.655,79.489C197.998,524.331,197.927,526.177,198.011,528z"/>
<path fill-rule="evenodd" clip-rule="evenodd" fill="#F4F4F4" d="M429.328,325.062c0.232,0.606,0.704,1.229,0.663,1.815
	c-0.724,10.493,1.006,20.894,1.132,31.367c0.185,15.418,0.571,30.887,2.044,46.222c1.679,17.481-0.608,34.862,0.051,52.243
	c0.41,10.803,0.479,21.842,3.819,32.368c1.453,4.575,0.953,9.237,0.888,13.867c-0.046,3.292-2.393,5.489-4.803,7.26
	c-3.731,2.74-7.783,5.01-12.078,6.798c0.868-17.509,2.681-34.977,2.257-52.541c-0.141-5.799-0.282-11.597-0.423-17.396
	c-0.068-3.403-0.138-6.807-0.206-10.21c-4.231-76.509-23.3-149.721-49.186-221.419c-0.952-2.638-1.948-5.26-2.921-7.883
	c-0.656-4.986,2.446-8.702,4.359-12.822c0.396,0.727,0.814,1.441,1.186,2.18c20.129,40.083,35.941,81.934,50.878,124.145
	C427.495,322.486,427.021,324.632,429.328,325.062z"/>
<path fill-rule="evenodd" clip-rule="evenodd" class="strip" d="M228.355,230.532c1.434-2.57-0.523-4.436-1.514-6.365
	c-1.877-3.655-3.046-7.68-5.625-10.972c-8.885-20.887-15.838-42.446-22.201-64.202c-5.643-19.294-9.915-38.92-12.76-58.804
	c-1.585-11.07-2.109-22.293-3.112-33.446c1.549-5.49,0.283-11.099,0.688-16.639c0.054-0.39,0.108-0.78,0.162-1.17l-0.063,0.054
	c1.149-0.103,2.504,0.257,2.992-1.332c0,0-0.166,0.131-0.165,0.132c3.567-0.359,6.792-1.399,8.973-4.514
	c3.99-2.286,8.148-4.18,12.758-4.726c4.567-0.541,8.645-2.192,12.349-4.859c-2.779,12.048-6.767,23.828-8.243,36.163
	c-1,8.355-2.283,16.73-2.463,25.118c-0.306,14.261-0.639,28.565,0.95,42.789c2.145,19.202,5.201,38.258,10.057,56.98
	c1.443,5.563,2.262,11.319,4.802,16.567c0.745,6.607,2.064,13.042,5.695,18.776c1.039,6.021,3.691,11.553,5.238,17.408
	c0.31,1.173,1.701,3.115-0.154,3.974c-2.322,1.074-2.428-1.507-3.248-2.706C231.647,236.094,231.302,232.508,228.355,230.532z"/>
<path fill-rule="evenodd" clip-rule="evenodd" class="strip" d="M374.925,194.731c-1.913,4.12-5.016,7.836-4.359,12.822
	c-5.377,6.825-7.846,15.21-12.099,22.641c-1.113,1.944-1.686,4.41-4.918,4.593c4.253-13.141,8.453-26.117,12.653-39.093
	c1.97-3.608,2.551-7.649,3.595-11.546c2.104-11.685,5.599-23.059,7.555-34.791c2.089-12.529,3.73-25.076,4.807-37.743
	c0.649-7.631,0.763-15.222,0.798-22.839c0.092-19.752-2.524-39.178-7.344-58.308c-0.463-1.838-0.787-3.532-0.285-5.349
	c0.655-0.073,1.416-0.406,1.945-0.186c9.916,4.127,19.811,8.305,29.681,12.541c0.496,0.213,0.726,1.046,1.079,1.59
	c0.098,11.433-0.556,22.785-1.775,34.188c-1.83,17.115-5.162,33.897-9.031,50.605C391.622,148.052,383.645,171.512,374.925,194.731z
	"/>
<path fill-rule="evenodd" clip-rule="evenodd" class="strip" d="M402.865,525.269c-8.65,3.36-17.442,6.281-26.47,8.445
	c-5.15-2.307-3.502-7.443-4.197-11.279c-1.108-6.115-0.992-12.452-1.393-18.692c-0.002-11.469-0.005-22.941-0.008-34.414
	c2.255-47.245,11.396-93.123,27.346-137.648c0.447-1.249,0.865-2.514,1.401-3.726c0.475-1.072,1.106-2.331,2.553-1.675
	c1.317,0.598,0.327,1.691,0.154,2.585c-2.166,11.192-4.286,22.394-6.499,33.575c-2.28,11.524-3.38,23.2-4.853,34.836
	c-1.987,15.709-2.173,31.46-1.81,47.211c0.594,25.762,4.368,51.047,12.927,75.475C402.625,521.695,403.399,523.367,402.865,525.269z
	"/>
<path fill-rule="evenodd" clip-rule="evenodd" class="strip" d="M261.96,541.742c-10.053-0.864-20.107-1.729-29.99-3.903
	c1.613-10.578,3.906-21.06,4.45-31.789c0.092-1.807,0.43-3.6,0.654-5.395c1.302-10.778,1.313-21.56-0.004-32.342
	c-2.269-29.918-7.809-59.241-16.419-87.96c-3.616-12.061-7.859-23.935-11.865-35.878c-0.423-1.26-1.12-2.417-0.465-3.79
	c2.567,0.144,3.15,2.208,4.07,3.934c15.857,29.75,26.801,61.359,35.708,93.767c5.048,18.366,9.208,36.932,11.672,55.789
	C261.829,509.922,263.187,525.798,261.96,541.742z"/>
<path fill-rule="evenodd" clip-rule="evenodd" fill="#F4F4F4" d="M231.634,220.084c-3.631-5.734-4.95-12.169-5.695-18.776
	c6.799-14.062,13.633-28.108,20.374-42.201c1.39-2.906,2.967-5.408,7.537-6.569C246.158,175.573,237.976,197.539,231.634,220.084z"
	/>
<path fill-rule="evenodd" clip-rule="evenodd" fill="#F4F4F4" d="M323.002,20.733c2.063,0.312,4.678-0.539,4.048,3.479
	c-2.823,18.01,2.398,34.415,10.492,50.188c0.206,0.4,0.252,0.883,0.432,1.545c-1.62,0.091-1.989-1.173-2.542-1.963
	c-10.342-14.783-17.236-30.873-18.408-49.095c-0.138-2.132-0.503-4.556,2.975-4.167C320.999,20.725,322,20.729,323.002,20.733z"/>
<path fill-rule="evenodd" clip-rule="evenodd" fill="#F4F4F4" d="M278.002,20.71c2.876-0.343,3.071,1.366,3.033,3.628
	c-0.198,11.673-3.81,22.448-8.623,32.879c-3.181,6.893-6.605,13.68-12.015,19.448c-0.681-2.134,0.797-3.327,1.484-4.726
	c5.297-10.795,8.823-22.095,9.94-34.102c0.404-4.341,0.179-8.663-0.751-12.911c-0.752-3.438,0.432-4.877,3.921-4.399
	C275.996,20.588,276.999,20.649,278.002,20.71z"/>
<path fill-rule="evenodd" clip-rule="evenodd" fill="#F4F4F4" d="M369.797,184.148c-1.044,3.896-1.625,7.938-3.595,11.546
	c-4.779-12.044-9.559-24.087-14.481-36.494c3.761-0.503,5.175,1.783,6.585,4.246C362.228,170.297,365.306,177.615,369.797,184.148z"
	/>
<path fill-rule="evenodd" clip-rule="evenodd" fill="#565656" d="M204.533,450.858c6.096-4.845,11.875-7.149,17.979-8.773
	c0.317-0.084,0.659-0.111,0.989-0.111c3.182,0.003,7.458,0.004,7.814,3.388c0.269,2.561-4.305,2.403-6.609,2.496
	C218.245,448.117,212.032,449.721,204.533,450.858z"/>
<path fill-rule="evenodd" clip-rule="evenodd" fill="#565656" d="M319.563,522.08c14.222-4.762,28.667-8.561,43.899-7.841
	C349.152,518.532,334.308,519.902,319.563,522.08z"/>
<path fill-rule="evenodd" clip-rule="evenodd" fill="#565656" d="M422.672,436.855c0.068,3.403,0.138,6.807,0.206,10.21
	c-3.213-0.195-6.554,0.776-9.572-1.153c-3.282-2.099-3.273-4.231,0.124-6.131C416.302,438.175,419.491,437.516,422.672,436.855z"/>
<path fill-rule="evenodd" clip-rule="evenodd" fill="#565656" d="M193.081,443.044c0.049-3.717,0.098-7.435,0.147-11.151
	c4.813,1.234,7.914,4.559,10.464,8.56c1.813,2.844,0.796,3.74-2.29,3.652C198.578,444.024,195.965,442.486,193.081,443.044z"/>
<path fill-rule="evenodd" clip-rule="evenodd" fill="#565656" d="M370.798,469.328c0.003,11.473,0.006,22.945,0.008,34.414
	C369.526,492.269,369.541,480.799,370.798,469.328z"/>
<path fill-rule="evenodd" clip-rule="evenodd" class="bg" d="M283.339,20.139c10.444,0,20.89,0,31.334,0
	c0.002,0.167,0.004,0.334,0.007,0.501c-10.517,0-21.032,0-31.548,0C283.201,20.473,283.27,20.306,283.339,20.139z"/>
<path fill-rule="evenodd" clip-rule="evenodd" fill="#565656" d="M237.07,468.313c1.317,10.782,1.306,21.563,0.004,32.342
	C237.072,489.872,237.071,479.093,237.07,468.313z"/>
<path fill-rule="evenodd" clip-rule="evenodd" fill="#565656" d="M341.905,9.681c-4.313,1.699-8.65,0.859-12.979,0.663
	C333.164,8.393,337.608,9.565,341.905,9.681z"/>
<path fill-rule="evenodd" clip-rule="evenodd" class="bg" d="M345.906,20.774c-5.24,0-10.48,0-15.721,0
	c-0.001-0.159-0.002-0.318-0.003-0.479c5.24,0,10.481,0,15.722,0C345.905,20.456,345.906,20.615,345.906,20.774z"/>
<path fill-rule="evenodd" clip-rule="evenodd" class="bg" d="M324.893,18.119c0.899-0.103,2.333-0.6,2.599-0.237
	c0.872,1.187,0.219,1.696-1.139,1.302c-0.455-0.133-0.907-0.273-1.361-0.41C324.958,18.556,324.926,18.337,324.893,18.119z"/>
<path fill-rule="evenodd" clip-rule="evenodd" class="bg" d="M323.002,20.733c-1.002-0.004-2.003-0.009-3.004-0.014
	C321.01,18.357,322.011,18.363,323.002,20.733z"/>
<path fill-rule="evenodd" clip-rule="evenodd" class="bg" d="M278.002,20.71c-1.003-0.061-2.006-0.122-3.01-0.183
	C276.137,18.265,277.135,18.408,278.002,20.71z"/>
<path fill-rule="evenodd" clip-rule="evenodd" class="bg" d="M270.08,18.338c1.433-1.35,2.108,0.203,3.077-0.046
	C272.055,19.359,271.202,18.896,270.08,18.338z"/>
<path fill-rule="evenodd" clip-rule="evenodd" class="bg" d="M268.245,20.331c-0.36,0.272-0.566,0.559-0.792,0.575
	c-0.547,0.041-1.235,0.301-1.472-0.514c-0.012-0.039,0.519-0.338,0.795-0.336C267.22,20.06,267.663,20.213,268.245,20.331z"/>
<path fill-rule="evenodd" clip-rule="evenodd" fill="#565656" d="M364.935,513.368c0.639-0.161,1.073-0.346,1.511-0.352
	c0.264-0.004,0.776,0.358,0.76,0.407c-0.257,0.72-0.881,0.714-1.477,0.582C365.492,513.954,365.306,513.677,364.935,513.368z"/>
<path fill-rule="evenodd" clip-rule="evenodd" class="bg" d="M183.143,56.742c1.002,11.154,1.527,22.377,3.112,33.447
	c2.846,19.884,7.118,39.51,12.76,58.804c6.363,21.756,13.315,43.315,22.201,64.202c-20.683,53.233-38.775,107.296-52.173,162.863
	c-0.235,0.978,0.19,2.726-1.851,1.569c0.687-3.821,0.819-7.65,0.145-11.488c0.904-0.231,1.381-0.839,1.534-1.734
	c1.657-9.751,3.848-19.449,4.811-29.268c0.86-8.773,1.251-17.78-2.819-26.152c-0.728-9.337-0.058-18.619,1.411-27.83
	c0.71-4.45,1.413-8.892,1.198-13.382c-0.406-8.462-1.031-16.914-2.713-26.508c-2.53,12.598-12.076,12.99-20.701,13.602
	c-15.64,1.108-30.236-3.407-44.146-10.263c-9.533-4.697-17.935-11.411-27.786-15.575c-4.345-1.836-1.569-5.837-2.264-8.774
	c-2.609-0.06-1.169,4.474-4.302,3.797c-3.664-0.791-6.792-2.573-9.526-5.135c-1.275-1.195-0.94-2.231-0.132-3.488
	c2.922-4.549,4.032-9.785,5.521-14.868c5.826,0.749,10.992,3.389,16.241,5.752c9.369,4.218,17.598,10.335,26.169,15.879
	c1.328,1.439,2.431,3.215,5.58,3.781c-2.016-2.126-3.057-3.804-5.057-4.419c-0.303-1.402-1.386-2.242-2.378-3.081
	c-11.754-9.943-24.257-18.711-38.678-24.439c-0.76-1.531,1.009-2.648,0.674-4.111c2.776-0.562,5.128,0.873,7.606,1.652
	c14.064,4.422,26.25,12.342,38.246,20.608c1.06,1.331,2.197,2.563,3.902,3.075c0.313,0.24,0.619,0.489,0.945,0.707
	c0.021,0.014,0.197-0.205,0.302-0.315c-0.301-0.239-0.603-0.479-0.904-0.718c-0.461-1.713-1.939-2.507-3.179-3.517
	c-11.524-10.882-24.554-19.513-38.953-26.109c-2.012-0.921-3.971-1.345-5.996-0.12c2.208-11.283,6.449-21.902,10.695-32.511
	c4.743-11.851,9.55-23.676,14.405-35.48c4.53-11.016,10.621-21.037,19.388-29.233c1.36-1.272,1.755-2.783,2.107-4.364
	c1.029-4.629,3.429-8.519,7.461-10.774c19.102-10.684,36.776-23.79,56.577-33.275c0.126,0.146,0.258,0.286,0.395,0.42
	C183.027,45.559,183.085,51.15,183.143,56.742z"/>
<path fill-rule="evenodd" clip-rule="evenodd" fill="#F4F4F4" d="M115.825,212.183c-11.997-8.267-24.182-16.187-38.246-20.608
	c-2.479-0.779-4.831-2.214-7.606-1.652c-0.663-2.128,1.8-2.955,1.97-4.736c2.025-1.225,3.984-0.801,5.996,0.12
	c14.399,6.597,27.429,15.228,38.953,26.109C116.536,211.671,116.18,211.927,115.825,212.183z"/>
<path fill-rule="evenodd" clip-rule="evenodd" fill="#565656" d="M170.862,308.985c4.07,8.372,3.68,17.379,2.819,26.152
	c-0.963,9.818-3.154,19.517-4.811,29.268c-0.152,0.896-0.63,1.503-1.534,1.734c-0.823-2.266-0.357-4.595-0.218-6.875
	c0.971-15.999,2.012-31.993,3.067-47.986C170.237,310.502,170.628,309.749,170.862,308.985z"/>
<path fill-rule="evenodd" clip-rule="evenodd" class="strip" d="M69.298,194.033c14.42,5.729,26.923,14.496,38.678,24.439
	c0.992,0.839,2.075,1.679,2.378,3.081c-0.169,0.218-0.343,0.431-0.523,0.639c-8.57-5.545-16.799-11.662-26.168-15.88
	c-5.249-2.363-10.415-5.003-16.241-5.752C68.049,198.381,68.673,196.207,69.298,194.033z"/>
<path fill-rule="evenodd" clip-rule="evenodd" class="bg" d="M195.729,33.274c-2.181,3.114-5.406,4.154-8.973,4.514
	C189.296,35.389,192.357,34.022,195.729,33.274z"/>
<path fill-rule="evenodd" clip-rule="evenodd" class="bg" d="M186.921,37.656c-0.488,1.589-1.843,1.229-2.992,1.332
	C184.707,38.051,185.611,37.399,186.921,37.656z"/>
<path fill-rule="evenodd" clip-rule="evenodd" class="bg" d="M183.993,38.935c-0.054,0.39-0.108,0.78-0.16,1.17
	c-0.287-0.04-0.575-0.086-0.863-0.138c-0.137-0.134-0.269-0.273-0.395-0.42C183.047,39.342,183.52,39.139,183.993,38.935z"/>
<path fill-rule="evenodd" clip-rule="evenodd" class="bg" d="M374.925,194.731c8.72-23.22,16.697-46.68,22.301-70.874
	c3.869-16.708,7.201-33.49,9.031-50.605c1.22-11.402,1.873-22.755,1.775-34.188c9.798,4.438,19.313,9.715,29.457,13.128
	c17.414,5.858,27.716,18.478,37.519,33.145c18.66,27.916,28.709,58.874,35.964,91.095c0.548,2.431,2.641,4.77,0.838,7.487
	c-13.428,5.917-24.997,14.538-35.647,24.496c-0.429,0.488-0.857,0.976-1.286,1.464c-0.313,0.354-0.626,0.707-0.939,1.062
	c-0.277,0.273-0.835,0.713-0.787,0.794c0.538,0.908,0.909,0.073,1.341-0.188c0.328-0.268,0.656-0.536,0.984-0.804
	c0.559-0.528,1.117-1.057,1.677-1.585c11.587-8.113,23.39-15.84,36.868-20.563c1.557,1.862,2.344,4.087,3.007,6.371
	c-14.288,7.066-26.743,16.555-37.553,28.273c12.565-9.537,25.61-18.163,40.52-23.604c1.448,0.707,2.04,2.159,2.78,3.41
	c3.221,5.441,3.093,5.762-2.737,8.503c-5.692,2.678-10.28,6.644-14.024,11.688c-16.949,22.832-47.839,33.58-74.974,25.767
	c-4.563-1.313-4.556-0.003-4.393,3.793c1.031,24.083,1.816,48.176,2.683,72.266c-2.307-0.43-1.833-2.575-2.34-4.006
	c-14.937-42.211-30.749-84.062-50.878-124.145C375.739,196.173,375.321,195.458,374.925,194.731z"/>
<path fill-rule="evenodd" clip-rule="evenodd" class="strip" d="M519.993,199.636c-14.909,5.44-27.954,14.066-40.52,23.604
	c10.81-11.719,23.265-21.207,37.553-28.273C518.403,196.276,519.417,197.817,519.993,199.636z"/>
<path fill-rule="evenodd" clip-rule="evenodd" fill="#F4F4F4" d="M514.02,188.595c-13.479,4.723-25.281,12.449-36.868,20.563
	c-0.33-0.247-0.66-0.495-0.989-0.742c10.65-9.958,22.22-18.579,35.647-24.496C513.462,185.045,513.99,186.701,514.02,188.595z"/>
<path fill-rule="evenodd" clip-rule="evenodd" fill="#565656" d="M182.97,39.967c0.288,0.052,0.576,0.098,0.863,0.138
	c-0.407,5.54,0.859,11.148-0.69,16.639C183.085,51.15,183.027,45.559,182.97,39.967z"/>
<path fill-rule="evenodd" clip-rule="evenodd" fill="#F4F4F4" d="M119.726,215.259c-1.704-0.514-2.842-1.745-3.901-3.076
	c0.355-0.256,0.711-0.512,1.066-0.768c1.239,1.01,2.718,1.804,3.179,3.517L119.726,215.259z"/>
<path fill-rule="evenodd" clip-rule="evenodd" class="strip" d="M110.354,221.554c2,0.615,3.042,2.293,5.057,4.419
	c-3.149-0.566-4.252-2.342-5.58-3.781C110.011,221.984,110.186,221.771,110.354,221.554z"/>
<path fill-rule="evenodd" clip-rule="evenodd" fill="#F4F4F4" d="M120.07,214.932c0.301,0.239,0.603,0.479,0.904,0.718
	c-0.104,0.11-0.281,0.329-0.302,0.315c-0.327-0.218-0.633-0.467-0.945-0.707C119.726,215.259,120.07,214.932,120.07,214.932z"/>
<path fill-rule="evenodd" clip-rule="evenodd" fill="#F4F4F4" d="M474.876,209.879c0.429-0.488,0.857-0.976,1.286-1.464
	c0.329,0.247,0.659,0.495,0.989,0.742c-0.56,0.528-1.118,1.057-1.677,1.585C475.275,210.454,475.076,210.167,474.876,209.879z"/>
<path fill-rule="evenodd" clip-rule="evenodd" fill="#F4F4F4" d="M473.937,210.94c0.313-0.354,0.626-0.708,0.939-1.062
	c0.2,0.288,0.399,0.575,0.599,0.863c-0.328,0.268-0.656,0.536-0.984,0.804C474.314,211.336,474.129,211.135,473.937,210.94z"/>
<path fill-rule="evenodd" clip-rule="evenodd" fill="#F4F4F4" d="M474.49,211.546c-0.432,0.262-0.803,1.097-1.341,0.188
	c-0.048-0.081,0.51-0.521,0.787-0.794C474.129,211.135,474.314,211.336,474.49,211.546z"/>
</svg>
