<?xml version="1.0" encoding="utf-8"?>
<!-- Generator: Adobe Illustrator 16.2.0, SVG Export Plug-In . SVG Version: 6.00 Build 0)  -->
<!DOCTYPE svg PUBLIC "-//W3C//DTD SVG 1.1//EN" "http://www.w3.org/Graphics/SVG/1.1/DTD/svg11.dtd">
<svg version="1.1" id="Layer_1" xmlns="http://www.w3.org/2000/svg" xmlns:xlink="http://www.w3.org/1999/xlink" x="0px" y="0px"
	 width="587px" height="543px" viewBox="0 0 587 543" enable-background="new 0 0 587 543" xml:space="preserve">
<style type="text/css">
	<![CDATA[
	 .strip{fill:#157F3F;}
	 .bg{fill:#020202;}
	]]>
</style>
<path fill-rule="evenodd" clip-rule="evenodd" class="bg" d="M126.576,374.094c-14.094-43.334-28.269-86.641-42.262-130.007
	C66.369,188.479,48.712,132.776,30.541,77.241c-2.52-7.703-1.115-11.181,6.313-14.662c71.83-33.665,147.14-51.566,226.62-51.481
	c45.123,0.046,90.262-0.336,135.134,5.495c35.995,4.677,70.72,14.571,104.769,26.806c16.959,6.094,33.979,12.122,50.076,20.467
	c5.126,2.658,6.367,5.076,4.504,10.704c-29.443,88.854-58.662,177.782-87.933,266.695c-1.177,0.195-2.674-0.002-3.48,0.651
	c-10.269,8.338-20.852,11.459-33.121,3.738c-3.678-2.315-8.268-4.201-13.048-1.724c-1.418,0.736-3.221,0.771-4.065-0.765
	c-1.12-2.042-0.048-3.469,2.086-4.066c1.711-0.48,2.395-1.728,2.666-3.33c9.339-0.053,18.171,4.178,27.612,3.258
	c1.267,2.204,3.469,1.85,5.484,2.01c0.669,0.433,1.333,0.875,2.024,1.268c0.03,0.018,0.316-0.414,0.483-0.636
	c-0.773-0.286-1.546-0.572-2.319-0.858c-0.448-3.714-3.145-3.627-5.878-3.478c-34.644-9.686-69.947-14.943-105.855-17.131
	c-20.089-1.224-40.011,1.817-60.089,0.41c-32.256-2.264-64.363,0.434-96.113,6.183c-16.568,2.999-33.543,4.859-49.053,12.283
	c-1.565,0.04-2.972,0.414-3.889,1.83c-0.759,0.318-1.519,0.635-2.278,0.953c0.766,0.312,1.53,0.623,2.295,0.935
	c1.752,8.659-2.721,17.179-0.191,26.061C134.445,372.896,130.323,374.196,126.576,374.094z"/>
<path fill-rule="evenodd" clip-rule="evenodd" class="bg" d="M451.127,398.026c-10.271,31.673-20.542,63.344-30.813,95.017
	c-2.452,7.563-5.508,14.993-7.185,22.723c-1.801,8.297-6.324,10.848-14.284,10.085c-5.776-0.554-11.699,0.41-17.464-0.194
	c-32.249-3.373-64.069,8.904-95.804,4.459c-35.098-4.916-70.076-3.725-105.136-4.463c-5.04-0.105-5.691-3.398-6.855-6.99
	c-13.001-40.123-26.088-80.219-39.15-120.321c46.305-10.053,92.939-14.188,140.182-8.016c7.551,0.988,15.414,2.994,22.721,1.864
	c32.222-4.982,64.502-6.429,96.89-3.142C413.326,390.985,432.51,392.841,451.127,398.026z"/>
<path fill-rule="evenodd" clip-rule="evenodd" class="bg" d="M126.576,374.094c3.674-2.469,5.756-2.575,4.614-5.469
	c-3.389-8.591,0.185-17.17-1.565-25.829c-0.004-0.63,2.821-2.416,2.813-3.046c0.917-1.416,3.354-0.632,4.919-0.672
	c3.354-0.108,6.79,0.222,10.051-0.389c42.485-7.942,85.167-10.023,128.205-5.376c7.816,0.844,15.383,3.395,23.615,2.078
	c40.597-6.499,81.239-6.01,121.832,0.378c-0.271,1.603-0.955,2.85-2.666,3.33c-2.134,0.598-0.765,1.858,0.355,3.9
	c0.845,1.535,1.582,0.042,3-0.694c4.78-2.478,9.822-0.496,13.5,1.819c14,1,19.079-3.761,32.875-6.845
	c1.013-0.227,0.722,4.18,1.898,3.984c-5.86,17.813-11.719,35.627-17.577,53.438c-21.243-5.817-42.723-10.51-64.55-13.54
	c-3.188-18.025-6.8-20.298-25.281-16.845c-4.452,0.831-9.146,0.647-13.716,0.513c-16.806-0.502-33.094,0.241-49.899,0.169
	c-14.311-0.06-29.136-2.758-43.483-0.347c-11.145,1.873-22.34-2.431-33.721-1.756c-7.362,0.435-11.582,4.063-14.546,10.353
	c-2.584,5.482-8.109,5.103-12.875,5.25c-21.958,0.681-43.625,0.89-65.942,1.121C127.814,377.779,127.195,375.937,126.576,374.094z"
	/>
<path fill-rule="evenodd" clip-rule="evenodd" class="bg" d="M128.433,379.621c21.871-3.774,43.923-1.081,65.881-1.762
	c4.766-0.147,8.193-0.264,10.778-5.746c2.964-6.289,9.42-12.054,16.783-12.488c11.381-0.675,23.48,1.248,34.625-0.625
	c14.347-2.411,27.677,4.107,41.988,4.167c16.806,0.072,33.456-1.544,50.262-1.042c4.569,0.135,9.173,0.706,13.625-0.125
	c18.481-3.453,32.125,4.375,25.521,19.163c-30.545-3.874-61.108-7.166-91.931-3.307c-1.36,0.002-2.72,0.002-4.081,0.003
	c-53.997-4.545-106.647,2.678-158.362,18.096C131.827,390.511,130.13,385.066,128.433,379.621z"/>
<path fill-rule="evenodd" clip-rule="evenodd" class="strip" d="M133.523,395.955c51.715-15.418,104.365-22.641,158.364-18.096
	c0.452,1.264,0.511,3.164,2.44,2.694c0.722-0.177,1.103-1.758,1.639-2.697c30.822-3.859,61.386-0.567,91.931,3.307
	c21.827,3.03,43.307,7.723,64.55,13.54c0.438,1.461,0.674,2.837-1.321,3.325c-18.615-5.188-37.799-7.043-56.896-8.98
	c-32.388-3.287-64.668-1.841-96.89,3.142c-7.307,1.13-15.17-0.876-22.721-1.864c-47.243-6.173-93.877-2.037-140.182,8.016
	c-0.666-0.404-0.283-0.938-0.948-1.341C133.849,396.608,133.162,396.346,133.523,395.955z"/>
<path fill-rule="evenodd" clip-rule="evenodd" fill="#E7E7E7" d="M421.061,335.77c-40.593-6.388-81.235-6.877-121.832-0.378
	c-8.232,1.316-15.799-1.234-23.615-2.078c-43.039-4.647-85.72-2.566-128.205,5.376c-3.261,0.61-6.697,0.28-10.051,0.389
	c15.51-7.424,32.485-9.284,49.053-12.283c31.75-5.749,63.856-8.446,96.113-6.183c20.078,1.407,40-1.634,60.089-0.41
	c35.908,2.188,71.212,7.445,105.855,17.131c0.182,0.551,0.25,1.115,0.205,1.694C439.231,339.947,430.399,335.717,421.061,335.77z"/>
<path fill-rule="evenodd" clip-rule="evenodd" class="bg" d="M448.673,339.027c0.045-0.579-0.023-1.144-0.205-1.694
	c2.733-0.149,8.459-0.236,8.907,3.478l-3.218,0.227C454.157,342.306,448.468,341.558,448.673,339.027z"/>
<path fill-rule="evenodd" clip-rule="evenodd" class="bg" d="M131.19,341.861c0.759-0.318,1.519-0.635,2.278-0.953
	c0.007,0.63,0.015,1.258,0.019,1.888"/>
<path fill-rule="evenodd" clip-rule="evenodd" class="bg" d="M456.665,341.669c-0.167,0.222-0.453,0.653-0.483,0.636
	c-0.691-0.393-1.355-0.835-2.024-1.268l0.188-0.227"/>
<path fill-rule="evenodd" clip-rule="evenodd" class="bg" d="M295.966,377.856c-0.536,0.939-0.917,2.521-1.639,2.697
	c-1.929,0.47-1.988-1.431-2.44-2.694C293.246,377.858,294.605,377.858,295.966,377.856z"/>
</svg>
