<?xml version="1.0" encoding="utf-8"?>
<!-- Generator: Adobe Illustrator 21.0.0, SVG Export Plug-In . SVG Version: 6.00 Build 0)  -->
<svg version="1.1" id="Layer_1" xmlns="http://www.w3.org/2000/svg" xmlns:xlink="http://www.w3.org/1999/xlink" x="0px" y="0px"
	 width="590px" height="530px" viewBox="0 0 590 530" enable-background="new 0 0 590 530" xml:space="preserve">
<path id="la_x7C_Main_Color_x7C_main" fill="#020202" d="M547.2,63.6c-15.6-8.1-32.1-13.9-48.6-19.9c-33-11.9-66.7-21.5-101.6-26
	c-43.5-5.7-87.3-5.3-131.1-5.3c-77.1-0.1-150.1,17.3-219.8,49.9c-7.2,3.4-8.6,6.8-6.1,14.2c17.6,53.9,34.8,107.9,52.2,161.8
	c13.6,42.1,27.3,84.1,41,126.1c0.6,1.8,1.2,3.6,1.8,5.4l0,0l0,0c1.6,5.3,3.3,10.6,4.9,15.8c47.5-14.2,95.9-21.2,145.4-18.1
	c-2.6,7-5.3,13.1-8.5,12.7c-45.8-6-91.1-2-136,7.8c12.7,38.9,25.4,77.8,38,116.7c1.1,3.5,1.8,6.7,6.6,6.8c34,0.7,67.9-0.4,102,4.3
	c30.8,4.3,61.6-7.6,92.9-4.3c5.6,0.6,11.3-0.3,16.9,0.2c7.7,0.7,12.1-1.7,13.9-9.8c1.6-7.5,4.6-14.7,7-22
	c10-30.7,19.9-61.4,29.9-92.2c-18.1-5-36.7-6.8-55.2-8.7c-10.5-1.1-21.4-5.5-32.4-10.7c8.8,0.8,17.5,1.9,26.3,3l0,0
	c21.2,2.9,42,7.5,62.6,13.1c5.7-17.3,11.4-34.6,17-51.8l0,0C494.6,246.4,523,160.2,551.5,74C553.3,68.5,552.1,66.2,547.2,63.6z
	 M418.8,327.3c-0.3,1.6-0.9,2.8-2.6,3.2c-0.1,0-0.3,0.1-0.4,0.1c0.1-0.1,0.2-0.1,0.4-0.1C417.8,330.1,418.5,328.9,418.8,327.3
	c-39.4-6.2-78.8-6.7-118.2-0.4c-8,1.3-15.3-1.2-22.9-2c-41.7-4.5-83.1-2.5-124.4,5.2c-3.2,0.6-6.5,0.3-9.7,0.4
	c15-7.2,31.5-9,47.6-11.9c30.8-5.6,61.9-8.2,93.2-6c19.5,1.4,38.8-1.6,58.3-0.4c34.8,2.1,69.1,7.2,102.7,16.6
	c0.2,0.5,0.2,1.1,0.2,1.6C436.4,331.4,427.8,327.3,418.8,327.3z"/>
<path id="la_x7C_Third_Color_x7C_third" fill="#157F3F" d="M139.8,385.7c50.2-15,101.2-22,153.6-17.6c0.4,1.2,0.5,3.1,2.4,2.6
	c0.7-0.2,1.1-1.7,1.6-2.6c29.9-3.7,59.5-0.5,89.2,3.2c21.2,2.9,42,7.5,62.6,13.1c0.4,1.4,0.7,2.8-1.3,3.2c-18.1-5-36.7-6.8-55.2-8.7
	c-31.4-3.2-62.7-1.8-94,3c-7.1,1.1-14.7-0.8-22-1.8c-45.8-6-91.1-2-136,7.8c-0.6-0.4-0.3-0.9-0.9-1.3
	C140.2,386.3,139.5,386.1,139.8,385.7z"/>
<path id="la_x7C_Secondary_Color_x7C_second" fill="#E7E7E7" d="M418.8,327.3c-39.4-6.2-78.8-6.7-118.2-0.4c-8,1.3-15.3-1.2-22.9-2
	c-41.7-4.5-83.1-2.5-124.4,5.2c-3.2,0.6-6.5,0.3-9.7,0.4c15-7.2,31.5-9,47.6-11.9c30.8-5.6,61.9-8.2,93.2-6
	c19.5,1.4,38.8-1.6,58.3-0.4c34.8,2.1,69.1,7.2,102.7,16.6c0.2,0.5,0.2,1.1,0.2,1.6C436.4,331.4,427.8,327.3,418.8,327.3z"/>
</svg>
