<?xml version="1.0" encoding="utf-8"?>
<!-- Generator: Adobe Illustrator 15.0.0, SVG Export Plug-In . SVG Version: 6.00 Build 0)  -->
<!DOCTYPE svg PUBLIC "-//W3C//DTD SVG 1.1 Basic//EN" "http://www.w3.org/Graphics/SVG/1.1/DTD/svg11-basic.dtd">
<svg version="1.1" baseProfile="basic" id="Шар_1"
	 xmlns="http://www.w3.org/2000/svg" xmlns:xlink="http://www.w3.org/1999/xlink" x="0px" y="0px" width="200px" height="200px"
	 viewBox="0 0 200 200" xml:space="preserve">
<path fill="#140800" d="M86.507,74.801c1.109,0.076,1.536-0.665,1.536-0.665c0.799-5.693,1.67-10.77,2.651-15.194
	c1.37-6.187,2.962-11.103,4.818-14.645c1.236-2.364,2.58-4.106,4.015-5.269c0.822-0.666,1.675-1.148,2.584-1.467
	c1.039-0.363,2.159-0.514,3.408-0.436h0.001c0.075,0.005,0.15,0.011,0.226,0.017c2.124,0.174,3.762,0.792,5.122,1.85
	c1.356,1.061,2.473,2.602,3.4,4.773c0.616,1.445,1.141,3.163,1.577,5.157c0.584,2.659,1.012,5.807,1.318,9.443
	c0.391,4.617,0.587,10.031,0.688,16.239c0,0,0.089,0.991,1.307,1.054c1.218,0.062,1.574-1.008,1.574-1.008
	c-0.115-7.286-0.362-13.52-0.904-18.774c-0.566-5.446-1.44-9.847-2.886-13.31c-0.963-2.305-2.198-4.201-3.779-5.618
	c-0.9-0.809-1.911-1.456-3.017-1.932c-1.264-0.545-2.649-0.867-4.15-0.987c-0.089-0.007-0.179-0.014-0.27-0.019l0.059,0.004
	l-0.061-0.004h0.001c-1.76-0.113-3.436,0.144-4.987,0.78c-1.551,0.634-2.964,1.641-4.229,2.961c-2.533,2.649-4.505,6.509-6.179,11.5
	c-1.114,3.33-2.089,7.172-2.97,11.522c-0.811,4.007-1.539,8.456-2.215,13.318C85.146,74.09,85.398,74.724,86.507,74.801z"/>
<polygon fill="#454545" points="134.745,67.307 138.715,64.985 148.271,161.829 "/>
<polygon fill="#454545" points="63.559,63.55 80.525,65.599 67.462,166.864 57.648,154.526 49.673,144.898 "/>
<polygon fill="#787878" points="49.673,144.898 67.462,166.864 64.25,149.969 "/>
<polygon fill="#262626" points="138.715,64.985 135.549,67.894 149.624,69.436 74.807,67.616 75.008,64.964 63.559,63.55 "/>
<polygon fill="#262626" points="64.25,149.969 75.008,64.964 72.054,157.647 67.435,166.804 "/>
<polygon fill="#FBE691" points="67.462,166.864 148.819,162.332 150.058,69.412 75.24,67.592 "/>
<g>
	
		<ellipse transform="matrix(0.0801 -0.9968 0.9968 0.0801 12.9917 164.4392)" fill="#4E3B1C" cx="95.583" cy="75.181" rx="2.568" ry="2.881"/>
	
		<radialGradient id="SVGID_1_" cx="222.6953" cy="26.7764" r="1.9787" gradientTransform="matrix(0.9968 0.08 0.0713 -0.8882 -128.3085 81.1479)" gradientUnits="userSpaceOnUse">
		<stop  offset="0" style="stop-color:#B99F7F"/>
		<stop  offset="1" style="stop-color:#664D2A"/>
	</radialGradient>
	<path fill="url(#SVGID_1_)" d="M97.558,75.338c-0.078,0.972-1.025,1.688-2.115,1.601c-1.09-0.087-1.912-0.946-1.833-1.917
		c0.078-0.971,1.025-1.688,2.116-1.601C96.815,73.508,97.636,74.367,97.558,75.338z"/>
</g>
<g>
	
		<ellipse transform="matrix(0.0801 -0.9968 0.9968 0.0801 41.9048 197.7029)" fill="#4E3B1C" cx="128.062" cy="76.149" rx="2.568" ry="2.881"/>
	
		<radialGradient id="SVGID_2_" cx="255.1475" cy="28.6123" r="1.978" gradientTransform="matrix(0.9968 0.08 0.0713 -0.8882 -128.3085 81.1479)" gradientUnits="userSpaceOnUse">
		<stop  offset="0" style="stop-color:#B99F7F"/>
		<stop  offset="1" style="stop-color:#664D2A"/>
	</radialGradient>
	<path fill="url(#SVGID_2_)" d="M130.037,76.304c-0.078,0.972-1.024,1.688-2.114,1.601c-1.091-0.087-1.912-0.946-1.834-1.917
		c0.078-0.972,1.025-1.688,2.115-1.601C129.294,74.474,130.115,75.333,130.037,76.304z"/>
</g>
<path fill="#020203" d="M95.501,76.471c1.109,0.076,1.537-0.665,1.537-0.665c0.798-5.693,1.67-10.77,2.65-15.194
	c1.37-6.186,2.963-11.103,4.819-14.645c1.235-2.364,2.579-4.107,4.015-5.27c0.822-0.666,1.675-1.148,2.583-1.467
	c1.04-0.363,2.16-0.514,3.409-0.436l0,0c0.076,0.005,0.151,0.011,0.227,0.017c2.125,0.174,3.762,0.792,5.123,1.85
	c1.356,1.06,2.472,2.602,3.399,4.773c0.616,1.444,1.141,3.162,1.578,5.156c0.583,2.659,1.011,5.807,1.317,9.443
	c0.391,4.617,0.588,10.032,0.688,16.239c0,0,0.089,0.991,1.307,1.053c1.219,0.063,1.574-1.008,1.574-1.008
	c-0.115-7.285-0.362-13.52-0.904-18.774c-0.566-5.446-1.439-9.847-2.885-13.31c-0.964-2.305-2.198-4.201-3.779-5.618
	c-0.901-0.809-1.911-1.456-3.018-1.932c-1.264-0.544-2.649-0.867-4.15-0.987c-0.089-0.007-0.179-0.014-0.27-0.019l0.06,0.003
	l-0.062-0.004l0.002,0c-1.76-0.114-3.437,0.144-4.986,0.779c-1.553,0.634-2.966,1.641-4.23,2.961
	c-2.533,2.649-4.505,6.51-6.179,11.5c-1.113,3.33-2.089,7.172-2.97,11.522c-0.811,4.007-1.539,8.456-2.215,13.318
	C94.141,75.761,94.393,76.395,95.501,76.471z"/>
</svg>
