<?xml version="1.0" encoding="utf-8"?>
<!-- Generator: Adobe Illustrator 21.0.0, SVG Export Plug-In . SVG Version: 6.00 Build 0)  -->
<svg version="1.1" id="Layer_1" xmlns="http://www.w3.org/2000/svg" xmlns:xlink="http://www.w3.org/1999/xlink" x="0px" y="0px"
	 width="590px" height="530px" viewBox="0 0 590 530" enable-background="new 0 0 590 530" xml:space="preserve">
<path fill="#140800" d="M235.7,162.8c4.3,0.3,5.9-2.6,5.9-2.6c3.1-22,6.5-41.7,10.3-58.8c5.3-23.9,11.5-43,18.6-56.7
	c4.8-9.1,10-15.9,15.5-20.4c3.2-2.6,6.5-4.4,10-5.7c4-1.4,8.4-2,13.2-1.7h0c0.3,0,0.6,0,0.9,0.1c8.2,0.7,14.6,3.1,19.8,7.2
	c5.2,4.1,9.6,10.1,13.2,18.5c2.4,5.6,4.4,12.2,6.1,19.9c2.3,10.3,3.9,22.5,5.1,36.5c1.5,17.9,2.3,38.8,2.7,62.8c0,0,0.3,3.8,5.1,4.1
	c4.7,0.2,6.1-3.9,6.1-3.9c-0.4-28.2-1.4-52.3-3.5-72.6c-2.2-21.1-5.6-38.1-11.2-51.5c-3.7-8.9-8.5-16.3-14.6-21.7
	c-3.5-3.1-7.4-5.6-11.7-7.5c-4.9-2.1-10.3-3.4-16.1-3.8c-0.3,0-0.7-0.1-1-0.1l0.2,0L310,5h0c-6.8-0.4-13.3,0.6-19.3,3
	c-6,2.5-11.5,6.3-16.4,11.5c-9.8,10.2-17.4,25.2-23.9,44.5c-4.3,12.9-8.1,27.7-11.5,44.6c-3.1,15.5-6,32.7-8.6,51.5
	C230.4,160,231.4,162.5,235.7,162.8z"/>
<polygon fill="#454545" points="422.3,133.8 437.7,124.8 474.6,499.5 "/>
<polygon fill="#454545" points="146.9,119.3 212.5,127.2 162,519 124,471.2 93.2,434 "/>
<polygon fill="#787878" points="93.2,434 162,519 149.6,453.6 "/>
<polygon fill="#262626" points="437.7,124.8 425.4,136.1 479.9,142 190.4,135 191.2,124.7 146.9,119.3 "/>
<polygon fill="#262626" points="149.6,453.6 191.2,124.7 179.8,483.3 161.9,518.7 "/>
<polygon id="la_x7C_Main_Side" fill="#FBE691" points="162,519 476.8,501.4 481.6,141.9 192.1,134.9 "/>
<g>
	
		<ellipse transform="matrix(7.999959e-02 -0.9968 0.9968 7.999959e-02 85.3989 421.0525)" fill="#4E3B1C" cx="270.8" cy="164.3" rx="9.9" ry="11.1"/>
	
		<radialGradient id="SVGID_1_" cx="402.8923" cy="545.5417" r="7.6541" gradientTransform="matrix(0.9968 8.000000e-02 -7.130000e-02 0.8882 -91.9052 -352.5216)" gradientUnits="userSpaceOnUse">
		<stop  offset="0" style="stop-color:#B99F7F"/>
		<stop  offset="1" style="stop-color:#664D2A"/>
	</radialGradient>
	<path fill="url(#SVGID_1_)" d="M278.4,164.9c-0.3,3.8-4,6.5-8.2,6.2c-4.2-0.3-7.4-3.7-7.1-7.4c0.3-3.8,4-6.5,8.2-6.2
		C275.6,157.8,278.7,161.1,278.4,164.9z"/>
</g>
<g>
	
		<ellipse transform="matrix(7.999959e-02 -0.9968 0.9968 7.999959e-02 197.2713 549.7479)" fill="#4E3B1C" cx="396.5" cy="168" rx="9.9" ry="11.1"/>
	
		<radialGradient id="SVGID_2_" cx="528.4449" cy="538.4388" r="7.6531" gradientTransform="matrix(0.9968 8.000000e-02 -7.130000e-02 0.8882 -91.9052 -352.5216)" gradientUnits="userSpaceOnUse">
		<stop  offset="0" style="stop-color:#B99F7F"/>
		<stop  offset="1" style="stop-color:#664D2A"/>
	</radialGradient>
	<path fill="url(#SVGID_2_)" d="M404.1,168.6c-0.3,3.8-4,6.5-8.2,6.2c-4.2-0.3-7.4-3.7-7.1-7.4c0.3-3.8,4-6.5,8.2-6.2
		C401.2,161.5,404.4,164.8,404.1,168.6z"/>
</g>
<path fill="#020203" d="M270.5,169.3c4.3,0.3,5.9-2.6,5.9-2.6c3.1-22,6.5-41.7,10.3-58.8c5.3-23.9,11.5-43,18.6-56.7
	c4.8-9.1,10-15.9,15.5-20.4c3.2-2.6,6.5-4.4,10-5.7c4-1.4,8.4-2,13.2-1.7h0c0.3,0,0.6,0,0.9,0.1c8.2,0.7,14.6,3.1,19.8,7.2
	c5.2,4.1,9.6,10.1,13.2,18.5c2.4,5.6,4.4,12.2,6.1,19.9c2.3,10.3,3.9,22.5,5.1,36.5c1.5,17.9,2.3,38.8,2.7,62.8c0,0,0.3,3.8,5.1,4.1
	c4.7,0.2,6.1-3.9,6.1-3.9c-0.4-28.2-1.4-52.3-3.5-72.6c-2.2-21.1-5.6-38.1-11.2-51.5c-3.7-8.9-8.5-16.3-14.6-21.7
	c-3.5-3.1-7.4-5.6-11.7-7.5c-4.9-2.1-10.2-3.4-16.1-3.8c-0.3,0-0.7-0.1-1-0.1l0.2,0l-0.2,0l0,0c-6.8-0.4-13.3,0.6-19.3,3
	c-6,2.5-11.5,6.3-16.4,11.5c-9.8,10.2-17.4,25.2-23.9,44.5c-4.3,12.9-8.1,27.7-11.5,44.6c-3.1,15.5-6,32.7-8.6,51.5
	C265.2,166.5,266.2,169,270.5,169.3z"/>
</svg>
