<?xml version="1.0" encoding="utf-8"?>
<!-- Generator: Adobe Illustrator 16.2.0, SVG Export Plug-In . SVG Version: 6.00 Build 0)  -->
<!DOCTYPE svg PUBLIC "-//W3C//DTD SVG 1.1//EN" "http://www.w3.org/Graphics/SVG/1.1/DTD/svg11.dtd">
<svg version="1.1" id="Layer_1" xmlns="http://www.w3.org/2000/svg" xmlns:xlink="http://www.w3.org/1999/xlink" x="0px" y="0px"
	 width="587px" height="543px" viewBox="0 0 587 543" enable-background="new 0 0 587 543" xml:space="preserve">
<style type="text/css">
	<![CDATA[
	 .bg {fill:#FBE691}
	]]>
</style>
<path fill="#140800" d="M232.587,166.226c4.423,0.304,6.128-2.652,6.128-2.652c3.186-22.706,6.659-42.956,10.573-60.603
	c5.463-24.674,11.817-44.282,19.22-58.411c4.931-9.43,10.288-16.379,16.012-21.016c3.277-2.656,6.68-4.58,10.306-5.852
	c4.146-1.448,8.616-2.051,13.594-1.736h0.004c0.301,0.019,0.601,0.041,0.9,0.065c8.472,0.693,15.006,3.161,20.432,7.378
	c5.41,4.229,9.861,10.378,13.56,19.039c2.458,5.763,4.551,12.615,6.291,20.567c2.328,10.604,4.035,23.16,5.258,37.666
	c1.558,18.415,2.343,40.008,2.743,64.768c0,0,0.353,3.953,5.212,4.201c4.858,0.249,6.28-4.021,6.28-4.021
	c-0.463-29.058-1.446-53.925-3.61-74.879c-2.259-21.723-5.743-39.276-11.508-53.088c-3.842-9.193-8.767-16.755-15.073-22.407
	c-3.594-3.228-7.623-5.807-12.032-7.706c-5.043-2.172-10.568-3.456-16.557-3.936c-0.354-0.028-0.71-0.055-1.073-0.076l0.235,0.014
	l-0.243-0.014h0.004c-7.02-0.452-13.704,0.572-19.889,3.109c-6.186,2.529-11.824,6.544-16.869,11.811
	c-10.102,10.566-17.967,25.964-24.643,45.87c-4.442,13.281-8.333,28.605-11.846,45.958c-3.233,15.983-6.138,33.728-8.836,53.119
	C227.16,163.394,228.164,165.921,232.587,166.226z"/>
<polygon fill="#454545" points="424.983,136.339 440.818,127.078 478.933,513.339 "/>
<polygon fill="#454545" points="141.055,121.355 208.726,129.526 156.625,533.424 117.484,484.211 85.673,445.813 "/>
<polygon fill="#787878" points="85.673,445.813 156.625,533.424 143.813,466.035 "/>
<polygon fill="#262626" points="440.818,127.078 428.19,138.68 484.328,144.829 185.92,137.571 186.722,126.994 141.055,121.355 "/>
<polygon fill="#262626" points="143.813,466.035 186.722,126.994 174.938,496.66 156.517,533.183 "/>
<polygon class="bg" points="156.625,533.424 481.117,515.345 486.058,144.735 187.649,137.476 "/>
<g>
	
		<ellipse transform="matrix(0.9968 0.08 -0.08 0.9968 14.2773 -20.961)" fill="#4E3B1C" cx="268.789" cy="167.739" rx="11.492" ry="10.241"/>
	
		<radialGradient id="SVGID_1_" cx="260.5771" cy="171.002" r="7.8997" gradientTransform="matrix(0.9968 0.08 -0.0713 0.8882 21.2303 -4.9806)" gradientUnits="userSpaceOnUse">
		<stop  offset="0" style="stop-color:#B99F7F"/>
		<stop  offset="1" style="stop-color:#664D2A"/>
	</radialGradient>
	<path fill="url(#SVGID_1_)" d="M276.663,168.371c-0.312,3.875-4.089,6.734-8.437,6.385c-4.349-0.349-7.623-3.773-7.312-7.649
		c0.311-3.874,4.088-6.733,8.438-6.384C273.699,161.072,276.974,164.496,276.663,168.371z"/>
</g>
<g>
	
		<ellipse transform="matrix(0.9968 0.08 -0.08 0.9968 14.9974 -31.3045)" fill="#4E3B1C" cx="398.333" cy="171.59" rx="11.491" ry="10.241"/>
	
		<radialGradient id="SVGID_2_" cx="390.0156" cy="163.6836" r="7.8992" gradientTransform="matrix(0.9968 0.08 -0.0713 0.8882 21.2303 -4.9806)" gradientUnits="userSpaceOnUse">
		<stop  offset="0" style="stop-color:#B99F7F"/>
		<stop  offset="1" style="stop-color:#664D2A"/>
	</radialGradient>
	<path fill="url(#SVGID_2_)" d="M406.206,172.222c-0.312,3.875-4.088,6.734-8.435,6.385c-4.349-0.348-7.624-3.774-7.312-7.648
		c0.31-3.875,4.088-6.733,8.437-6.385C403.243,164.924,406.517,168.347,406.206,172.222z"/>
</g>
<path fill="#020203" d="M268.46,172.888c4.424,0.304,6.129-2.651,6.129-2.651c3.185-22.707,6.66-42.955,10.572-60.603
	c5.462-24.673,11.818-44.283,19.221-58.41c4.929-9.43,10.285-16.38,16.013-21.017c3.278-2.655,6.678-4.579,10.303-5.853
	c4.148-1.447,8.616-2.05,13.596-1.736h0.002c0.301,0.02,0.603,0.042,0.903,0.065c8.473,0.694,15.004,3.162,20.431,7.379
	c5.411,4.228,9.861,10.379,13.56,19.039c2.458,5.762,4.551,12.614,6.293,20.567c2.326,10.604,4.033,23.16,5.256,37.665
	c1.558,18.415,2.343,40.011,2.743,64.77c0,0,0.354,3.951,5.211,4.201c4.859,0.248,6.28-4.022,6.28-4.022
	c-0.462-29.057-1.445-53.924-3.609-74.88c-2.261-21.721-5.743-39.274-11.506-53.087c-3.844-9.194-8.769-16.755-15.073-22.407
	c-3.596-3.226-7.625-5.807-12.034-7.706c-5.042-2.171-10.567-3.457-16.557-3.935c-0.354-0.029-0.711-0.056-1.074-0.077l0.238,0.014
	l-0.245-0.015l0.006,0.001c-7.02-0.453-13.704,0.572-19.889,3.109c-6.189,2.529-11.826,6.545-16.871,11.812
	c-10.103,10.567-17.967,25.963-24.643,45.869c-4.441,13.281-8.332,28.606-11.845,45.958c-3.233,15.982-6.139,33.727-8.836,53.118
	C263.034,170.057,264.038,172.584,268.46,172.888z"/>
</svg>
