<?xml version="1.0" encoding="utf-8"?>
<!-- Generator: Adobe Illustrator 15.0.2, SVG Export Plug-In . SVG Version: 6.00 Build 0)  -->
<!DOCTYPE svg PUBLIC "-//W3C//DTD SVG 1.1 Tiny//EN" "http://www.w3.org/Graphics/SVG/1.1/DTD/svg11-tiny.dtd">
<svg version="1.1" baseProfile="tiny" id="Selected_Items"
	 xmlns="http://www.w3.org/2000/svg" xmlns:xlink="http://www.w3.org/1999/xlink" x="0px" y="0px" width="250px" height="150px"
	 viewBox="0 0 250 150" xml:space="preserve">
<path fill-rule="evenodd" d="M224.45,102.4l-0.101-0.2v0.2l-0.3,2.149l-6.2,1.851l-8.35-1.051L203,98.7l-4.8,3.05l-6.95-4.3l-4.05,7
	c-3.533,2.434-7.084,4.833-10.65,7.2l6.65,0.85l14.85,3.7l2.2,10l-9.75,6.35l-13.8,6.05l-1.7,5.15l-10.05,4.6l-8.851-2.85v-2.8
	l8.45-0.851l5.101-2.75l-0.25-3.149l-1.301-3.25l6.9-4.25l4.8-1.2l0.55-4.3l-14.199-1.2l-4.851-2.85l-15.2,5.5l-27.75-1.301
	L95.8,118l-17.15,1.55l-2.05,3.25l1.95-0.5l5.8,6l8.2-1.7l4.2-0.149l2.3,3.05l-10.9,6.2l-10.4,1.05l-11.5-7.05l-1.65-3.351
	l2.3-3.399l-0.2-0.05l-1.9-3.051l1.75-8.399l13.5-0.5l-18.5-10l-1.3,2.05H52.6l-17.85,4.55l-4-3.6l6.9,0.2l3.85-3.25l6.05,0.449
	l5.85-2l3-1.649L52.2,95.1l-3.75-0.55L47.1,94.7l-9.7,2.95l-7.75-1.4l-3.05,2.7l-1.85-3.601h0.1l4.2-2.6l10.9,1.4l1.6-0.75
	l-0.8-0.15l2.85-3l4.15-2.9l-0.6-3.899l2.3-3.9l4.75-2.45l2.7-2.35l-0.8-4.4l2.1-2.4l6.25-1.15l-0.9-3.35l2.2-3.7l8.35,0.9
	l-8.2-6.85l-15.65-1.35l-6.15-2.8L33.2,49.2l-0.5,3.7l-6.75,1.8l-1.05,7.45l-2.35,4.25l6.75,6.25l6.5,1.3l10.95,5.6l-16.4-1.399
	L21.9,72.05l-3.65-4.2l0.5-3.25l-5.5-0.55l-8.4-7.15l-2.5-4.4L3,47.3l-2.75-2.4L0,39.05l3.15-3.75L12,34.1l0.4-3.5l3.6-6.35l6.8-6.8
	l11.45-2.9l15.2-5.65l0.45-3.7l2.7-2.7l6.65-0.95L64.7,5.1l30.9,1.25l9.95,2.35l0.2,4.05h-5.5l-4.2,2.6l-6.7-1.55l-3.55,4.35
	l-9.2-1.5l-5.35,3.7L69.55,18l-6.4,4l-1.8-3.1l-1.45,6.6l3.35,3.3l10.55-0.7L90.4,24l12.75-7.7l-9.5,9.2L68.1,31.8l-4.55-0.55
	L63,34.1l-10.1,5.25l-13.3,1.8l15.25-8.35l1.25-4.3l-0.5-6.4l4.45-10.75l-3.4-3.25L57,5.45h-2.7l-2.1,4.85l-6.65,6.65l-20.8,4.25
	L16.8,31.55l-0.55,1.95l2.35-0.3l13.6,1.05l2.45,5.1l-0.5,4.15l-4.6-6.4l-9.9-1l-5.85,2.35L5.5,38.7l-1.3,2.2l3.75,3.25l-1.3,4
	l5.05,11.6l7.45,3.95l1.95-4.15l0.4-3.4l1.8-3.5l5.2-1.95l1.2-3.7l8.6-1l13.3,3.2l12.95,2.1l12.4,4.6l2.2,3.9l2.35-1.95l-1.15-3.8
	l6.75-4.95l10.8-0.75l2.75,0.5l-2.6-2l6.65-1.1l4.8-5.4l3.1-5.85l6.25-1.45l5.9,1.7L126,37l-1.3,1.8l-1,3.25l5.6,3.9l6-1.05
	l1.4-4.55l-3.15-2.95l2.8-2.5l3-1.95l8.45,2.85l11.05,11.05l4.551,0.85l7.149,3l1.95,5.4l3.65,2.25l9.149-1.6l5.55,1.7l-1.3,7.15
	l4.351-0.85l8.949,0.85l1.45,2.9l-2.25,3.5l9.8,1.35l4.2,2.3l1.5,2.5l2.851-1.301l1.05-6l5.5-4.2l-0.9-4.55l-3.8-2.2l0.25-4.8
	l-8.55-0.7l-4.45-3.35l-0.5,0.1l-3.7-2.8l0.55-0.05l-1-0.75l-7.35,3.9l-6.75-0.05l-7.65,4.05l0.851-4l6.399-2.65l5.851-0.6l7.3-2.85
	l4-0.8l3.05,2.9l3.8-0.7l5.051-5.2l-8.301-8.9l-5.149,2.25l-7.15-1.2l-6.2,1.2l-7.1-3.25H178l0.4-1.7l-4.801,0.1l-25.85-7.25
	l-5.4-3.5l10.601,3.2l18.399,3.8l6.101-0.95l2-8.4l-0.05,6.2l0.699,4.1l2.801,0.9l5.75,0.5l5.25,3.75l14.699-2.6l3.9-2.95l3.5,7
	l4,3.95l4.75,1l2.1-0.75l8.801,1.7l0.8-1.1l-0.101-4.55L229,21.75l-9.25-2.6l-6.2-0.25l-11.7-8.6l-6.949-2l-6,0.55l-6.101-3.8
	l-0.1,6.05l-2.2-3.05l-9.7-3.6L156.4,6.65l-9.7,3.5l-3.25,3.4l4.45,0.55l3-1.95l4.3,0.9l2.6-1.05l3,2.55l4.95-1.5l2.75,2.55l3.1-1.8
	l4.051,3.65l-1.051,3l-3.55-2.6l-2.95,1.8l-2.85-2.1l-6.05,0.95l-2.55-3.55l-1.801,2.9l-3.699-2.9l-2.351,2.8l-5.85-0.8l-4.8-2.35
	l4.449-4.85L151,6l22.85-3.9l5.851,2.1l0.649,1l1.4-5.2l2.75,0.75l3,3.15l10.9,1.7l17.449,9.55l16.65,4.25l5.75,11.5l3.25,9.05
	l-2.95,2.25l2.2,2.85l1.3,6.35l-7,6.3l-1.75,7.4l-3.5,0.3l-0.35,2.6l-3.95,3.35l-0.65,5.4l-3.25,4.1l-2.5-0.199l0.95,1.649L220,85.2
	l-9.5-0.7l-14.55,4.7l-0.75,1.3l10.649-2.2l2.101,4.45l11.55,0.85l2.2,2.25l0.2,0.25l0.1-0.25l0.55-1.649l3.101-1.95l15.899,6.6
	l5.851,0.801l0.8,4.25l-1.05,3.399l2.05-0.149l0.8,9.3l-4.55,11.2L239.85,131l-0.3-2.75l2.65-10.1l0.399-5.851l-7.949-4.75
	l-9.4-1.149L224.45,102.4z M218.9,46.25l-1.851,3.25l-3.149,0.65L217.35,52l9.7,0.25l-0.8,4.3l3.8,4.7l0.45-0.8l1.15-5.9l6.85-2.6
	l-1.25-6.1l-9.5-4.65l-6.25,4.1L218.9,46.25z M221.7,96.75l-8.2-0.5l-2.4,2.1l-0.449,3.4l7.149,0.9l6.8-2.601l-0.1,0.75l3.1,2.75
	l5.601-0.3l7.7,4.45l4.25,4.3l0.85-4.7h0.95l-4.4-4.899l-3.1-0.4l-11.95-5.65l-6,0.65L221.7,96.75z M171.35,90.15l-0.399-5
	L181,80.35l10.25-0.5l-12.5,5.601L177.45,96l-13.101,8.85L138.4,111l-38.3-2.15L76.6,95.6L62.75,90l17.95,0.55l4.75,5.8l13.4,5
	l21.45,6.2l26.8-3.2l19.15-5.899L171.35,90.15z M186.3,67.2l1.05-5.05l-1.25-2.2l-10.449,2.4l-7.801-4.15l-2-6.4l-4.55-1.95
	L141.55,49l9.851-3.65l1.55,0.35l-1.75-1.15l-6.05-6.75l-4.551-2.65l-2.35,1.3l2.4,4.2l0.5,1.65c0.5-0.233,0.966-0.483,1.399-0.75
	l0.3-2.65l1.9,1.85l0.8,3.25l-1.25,2.1h-3.8l-2.85,0.65v2.65l-8.9-1.6l-8.85-0.35l0.95-2.25l-2.2-0.9l-2,0.1l-2.1-2.05L115,38.9
	l3.25-1.65l-1.3,2.2l2.3,2.1l2.9-4.85l-2.5-2.2l-4.55,2.2l-5.3,11.9l-3.3,1.25l0.5,0.05l-3.45,2.05l-11.9-0.25l-6.4,4.05l-0.1,5.75
	l-2.7,2.7l-8.15-1.05l-6.2,0.25l0.8,3.25v3.4l-8.05,0.65l0.25,4.2l-0.65,3.75l-7.55,3.5l1.95,3.399l-7.2,4.851l9.65,1.85l14.45,10.9
	L95.2,114.2l16.35,2.75l23.101,0.95l20.199-3.15l17.65-6l7.8-5.45l8.2-10.6l3.45-6.101l12.35-4.949h7.95L212,77.5l-1.75-1.85
	l-7.95-0.4l-4.649-3.1L200.55,68l-3.399-0.4l-8.65,0.55L186.3,67.2z M186.2,115.4l-11.75-2.351l-3.351,2.101l4.7,4.3l6.75-0.4
	l6.5,4.05l-5.2,1.95l0.4,3.2l-9.4,3.65l-0.1,3l8.2-2.7l13.899-6.8l-0.899-6.351L186.2,115.4z M81.1,8.6L67.45,7.55l-3.95,1.6v0.2
	l-1.9,8.6l2.95-0.5l4.85-3.5l3.55,1.9L75.8,13l4.5,2.35l4.75-3.2l4.8-2.1l5.5,2.85l4.25-3.25L90.9,7.8L81.1,8.6z M102.45,65.6
	l6.15-5.45L121.1,59l13.9,5.05l13.15-2.15l13.149,6.85l-11-1.45l-11.649-0.5l-8.301,3.95l-1.55-6.25l-13.15-2.35L102.45,65.6z
	 M118.1,73.75l9.6,4.55l18.35,0.15l9.15-2.101l10.85,1.95l-18.95,5.45L136.2,81.1l-21.85,4.551l6.75-5.851l-7.3-2.7l-10.55-0.8
	l-9.6,0.95l13.9-4.95L118.1,73.75z M7.05,96l14.45-0.05l-7.15,4.2L8.7,99.1l-1.65,7.351l4.4,2.55l-1.05,2.65l5.45,3.6l5.65,0.65
	l-3.15-3.801L16.7,106l5.8,1.05l3.65-4.3l3.95,0.55l-2.1,2.75l-5.9,3.45l6.3,1.75l3.6,7l8.9,0.25l3.2-3.4l2.75,0.301l-1.7,5.3
	l-15.35,3.95L4.55,111.9l-1.15-9.4L7.05,96z M78.15,60.45l-0.95,0.1L75,60.7l2.7,0.25l0.65-0.5H78.15z M78.8,126.2l-3.55-2.25
	l-7.55-0.9l0.8,4.95l9.65,5.65l4.55-2.9L78.8,126.2z"/>
<path fill-rule="evenodd" fill="#FFFFFF" d="M222,95.85l-0.1,0.25l-0.2-0.25H222z M224.35,102.4v-0.2l0.101,0.2H224.35z M77.2,60.55
	l0.3,0.25l0.65-0.35h0.2l-0.65,0.5L75,60.7L77.2,60.55z"/>
</svg>
