<?xml version="1.0" encoding="UTF-8" standalone="no"?>
<!-- Created with Inkscape (http://www.inkscape.org/) -->
<svg xmlns:dc="http://purl.org/dc/elements/1.1/" xmlns:cc="http://creativecommons.org/ns#" xmlns:rdf="http://www.w3.org/1999/02/22-rdf-syntax-ns#" xmlns:svg="http://www.w3.org/2000/svg" xmlns="http://www.w3.org/2000/svg" xmlns:sodipodi="http://sodipodi.sourceforge.net/DTD/sodipodi-0.dtd" xmlns:inkscape="http://www.inkscape.org/namespaces/inkscape" width="252.79259" height="252.09103" id="svg2" version="1.0">
  <defs id="defs4">
  </defs>
  <g inkscape:label="Ebene 1" inkscape:groupmode="layer" id="layer1" transform="translate(-105.41882,-305.24503)">
    <path d="M 325.35687,372.79266 C 329.20111,382.58153 330.2,393.86274 332.90157,403.79665 C 336.19762,415.23063 342.93127,426.20582 346.15805,437.98597 C 348.66951,446.69313 352.10707,456.83563 353.55905,466.4934 C 356.47136,480.72805 358.68674,495.39323 357.80641,509.75811 C 358.29496,528.13575 349.30991,549.99351 329.8982,555.56059 C 317.16689,559.31086 302.29348,556.84869 291.52534,549.08158 C 277.00746,540.39488 264.03192,529.43585 252.39015,517.28 C 247.99911,511.06504 243.03531,505.20225 238.82682,499.05185 C 234.88578,493.77998 232.08873,487.9229 228.50954,482.34643 C 225.20685,477.50469 224.46579,466.7704 217.66401,467.29596 C 214.85636,468.74527 209.6583,467.55225 209.6727,470.38379 C 209.16484,473.24029 213.11643,474.84396 214.20694,477.74728 C 218.2458,484.36237 215.90933,492.76746 221.56704,498.69884 C 224.09415,503.12503 233.75183,515.96963 229.74772,516.37673 C 225.45639,508.18742 219.93027,500.74955 215.62637,492.65625 C 206.43858,494.52164 203.60977,509.08738 209.34014,516.91056 C 215.27633,527.96994 221.23126,539.26086 222.52749,551.9682 C 217.09209,543.89157 215.87021,532.02391 209.83533,523.43904 C 205.1555,519.54457 201.14104,498.81937 203.38962,515.78249 C 205.1448,519.7776 208.1182,537.70696 203.76581,534.99857 C 203.41853,527.58191 202.14023,517.01259 198.86913,511.88545 C 197.98334,518.22532 190.64243,522.72848 195.17896,512.57002 C 196.88894,506.0188 204.73396,487.55926 191.80573,497.08889 C 188.54495,492.16339 213.16801,487.14551 198.68805,481.87958 C 192.48639,476.02806 180.46734,470.23957 183.2438,460.47889 C 189.64237,452.94611 200.83445,451.95588 209.96519,449.50426 C 213.2407,444.89773 205.14941,438.60867 202.75633,434.41401 C 196.22817,425.87999 193.65306,415.95473 189.3761,406.40813 C 188.15864,401.36371 185.74273,395.42457 182.71554,392.47808 C 176.7508,386.22102 172.1293,378.59479 167.88828,370.92264 C 165.13647,364.49869 157.05675,378.34314 152.03501,380.48277 C 141.9422,382.67573 132.68904,372.54101 122.62744,378.97416 C 118.34902,381.40706 110.41285,381.83657 118.98422,378.29106 C 125.74851,376.78679 131.97161,372.45567 120.98185,372.51559 C 115.30359,373.03111 97.890131,370.8707 112.32891,369.60006 C 116.43213,368.87699 122.11522,370.67487 124.73594,368.38179 C 123.27899,369.31721 118.08108,363.44898 114.24465,361.93482 C 110.62303,355.48192 121.50179,363.04361 124.37652,363.96772 C 131.14508,366.84431 116.41172,351.05005 126.58328,357.44937 C 128.83091,361.30312 137.31479,368.01317 133.52195,358.68654 C 136.01583,358.16461 137.17759,363.07208 137.88607,364.67244 C 139.41796,368.93933 142.32577,367.75156 147.41125,369.04388 C 149.8418,369.96393 154.48835,365.21798 157.86346,361.65305 C 160.98301,357.92765 153.18172,354.92553 151.59268,351.51258 C 142.85048,353.17534 136.28727,344.40511 129.1502,344.58753 C 122.51731,344.36586 120.07853,333.46545 112.6928,333.21939 C 111.29473,325.81395 98.826684,317.09595 112.03895,312.82323 C 119.79655,308.38596 127.23385,308.19215 135.42871,306.17009 C 138.37832,304.92036 143.71116,306.97868 147.85478,308.4976 C 152.27628,312.05599 160.64503,312.96927 164.093,317.32827 C 167.85107,319.31742 170.03574,322.85311 173.55945,325.73804 C 180.05078,326.89341 179.35575,333.78353 186.09398,331.92068 C 190.24774,330.73215 196.33955,323.12702 203.00422,319.52189 C 208.79255,317.10544 214.94219,315.32206 220.3695,313.92574 C 225.76652,312.7275 234.11853,309.44652 241.17357,309.92849 C 247.80854,308.2673 265.41213,309.81457 251.55527,314.07261 C 245.08447,314.21308 238.89847,315.55307 247.68374,318.54646 C 244.88296,321.80126 231.85956,320.07019 225.39667,323.63402 C 220.11379,324.62011 217.51598,324.88421 214.37078,330.1615 C 207.46952,332.046 200.84674,333.73634 196.94607,339.4977 C 194.35638,344.00088 198.21678,343.88943 202.38636,346.22524 C 209.65093,349.12182 215.22138,354.94966 216.90777,362.36623 C 219.32793,365.82127 220.64324,370.25119 222.40794,372.51179 C 224.66437,376.48908 226.34331,381.21823 228.6647,384.5978 C 229.85322,386.13577 232.67247,391.11878 233.77054,394.50109 C 236.50187,398.69514 234.8373,397.63778 236.49393,401.41634 C 238.33516,404.47094 238.96024,408.41212 240.16963,412.79333 C 241.37131,417.49262 241.69412,426.87335 242.96121,433.34213 C 243.60741,440.61925 252.72589,435.57861 256.78404,436.45312 C 264.26096,435.67381 279.81006,433.42981 279.04962,444.85019 C 280.79046,451.49065 277.9389,461.45369 279.16499,466.03161 C 281.53606,468.78642 300.8566,464.80448 296.69765,470.44768 C 291.29716,472.18656 311.43365,473.94479 307.82797,476.71352 C 295.62137,476.39335 313.88024,482.09098 316.03064,486.39265 C 317.10995,493.0972 297.88984,475.45958 308.26905,487.30765 C 311.78527,491.97319 318.00095,492.07907 321.96307,496.11326 C 318.64971,498.69383 310.67346,492.66808 306.74319,489.7539 C 299.92958,481.63231 289.1279,476.60022 278.33454,477.62737 C 270.43242,476.0965 283.09276,487.01766 284.66381,488.0742 C 286.53769,489.7114 295.00472,496.53333 287.86453,493.76696 C 281.78161,489.12656 277.4598,484.81702 272.7915,479.08731 C 267.76976,476.5765 264.54833,469.21043 264.34025,463.11201 C 264.66316,456.32326 267.58624,446.5979 258.78172,454.34927 C 254.73416,456.42755 243.81807,455.73991 248.5984,463.20173 C 250.51272,467.65166 252.44003,471.35559 254.12173,475.70327 C 256.18037,482.12314 260.46684,488.40863 262.32152,492.83065 C 266.35545,500.80002 271.71509,508.33425 278.26152,514.47603 C 282.58351,518.21496 286.15381,522.83041 291.30966,525.98259 C 298.80226,530.90587 307.16435,534.18076 315.47225,536.72944 C 324.00127,539.08955 334.09247,536.10165 338.36621,528.18091 C 341.85536,522.80709 343.86463,515.43816 345.18996,509.03144 C 345.10534,508.58304 345.85457,504.43135 346.16749,501.07454 C 346.56641,493.49911 346.83436,485.97309 346.1529,478.38176 C 345.84057,475.58302 345.66407,470.76626 345.10867,466.29758 C 343.37387,456.22827 342.15755,446.25437 338.9359,436.50968 C 337.45095,429.86888 334.22471,422.74403 332.27894,416.05807 C 329.40712,410.90532 327.95024,403.35761 327.69528,398.60231 C 326.07047,395.64781 327.20463,393.36767 326.00633,390.15058 C 326.47547,385.89955 322.10169,374.81767 325.35687,372.79266 z M 242.02811,315.82706 C 239.65534,315.38492 243.04596,316.79262 242.02811,315.82706 z M 327.66522,403.13876 C 326.70989,404.05809 327.79051,401.63799 327.66522,403.13876 z M 343.40314,516.15399 C 342.34005,516.02137 343.8309,515.21991 343.40314,516.15399 z M 295.729,470.89386 C 296.67211,470.38021 295.95897,471.37644 295.729,470.89386 z M 263.98224,461.26086 C 264.20649,460.22241 264.26788,461.92222 263.98224,461.26086 z M 263.96643,451.59836 C 264.6477,450.82159 264.61482,452.11114 263.96643,451.59836 z M 236.69418,400.84402 C 237.26179,399.07099 237.18737,402.23083 236.69418,400.84402 z M 212.55309,353.29477 C 213.27642,352.46223 213.10526,354.25361 212.55309,353.29477 z" id="path2745"/>
  </g>
</svg>