<?xml version="1.0" encoding="utf-8"?>
<!-- Generator: Adobe Illustrator 15.0.0, SVG Export Plug-In . SVG Version: 6.00 Build 0)  -->
<!DOCTYPE svg PUBLIC "-//W3C//DTD SVG 1.1//EN" "http://www.w3.org/Graphics/SVG/1.1/DTD/svg11.dtd">
<svg version="1.1"
	 id="orca" xmlns:cc="http://creativecommons.org/ns#" xmlns:rdf="http://www.w3.org/1999/02/22-rdf-syntax-ns#" xmlns:svg="http://www.w3.org/2000/svg" 
	 xmlns="http://www.w3.org/2000/svg" xmlns:xlink="http://www.w3.org/1999/xlink" x="0px" y="0px" width="516px" height="279px"
	 viewBox="20.5 5.5 516 279" enable-background="new 20.5 5.5 516 279" xml:space="preserve">

<g id="layer">
	<path id="path2404" d="M482.572,133.429
		c-1.812-1.812-1.929-4.167-0.513-10.312c1.243-5.392,0.245-6.73-8.774-11.775c-3.447-1.927-7.194-4.706-8.328-6.173
		c-5.549-7.186-12.394-16.219-13.888-16.219c-0.918,0-2.097-0.403-2.619-0.895c-0.522-0.492-2.479-1.217-4.35-1.612
		c-2.665-0.563-3.28,1.627-2.846,2.695c0.305,0.749,0.839,2.068,1.188,2.932c0.941,2.332-8.707,6.763-15.537,7.136
		c-5.273,0.288-5.413,0.226-5.729-2.538c-0.303-2.646-0.105-2.817,3-2.592c4.575,0.332,10.829-2.856,10.81-5.51
		c-0.009-1.154-0.34-1.609-0.75-1.03C431.755,91.025,427.488,93,422.424,93c-2.919,0-5.584,0.45-5.924,1
		c-1.012,1.636-4.356,1.137-5.396-0.804c-1.524-2.85-0.063-3.844,6.659-4.53c7.339-0.749,10.034-2.267,12.646-7.125
		c2.175-4.043,1.855-4.641-3.242-6.067c-2.964-0.83-3.73-1.563-3.991-3.819c-0.223-1.92,0.372-3.396,1.902-4.724
		c3.126-2.71,6.392-2.427,8.711,0.756c1.939,2.663,1.962,2.667,2.65,0.5c0.825-2.601,3.791-2.842,9.289-0.757
		c2.073,0.787,6.347,2.146,9.496,3.021c5.826,1.619,8.24,3.967,7.559,7.352c-0.188,0.934,0.651,2.493,1.866,3.465
		c1.214,0.972,3.656,4.909,5.427,8.75L473.296,97l9.602,0.015c5.281,0.009,10.105,0.346,10.721,0.75
		c0.615,0.404,2.278,3.033,3.694,5.842c1.417,2.809,3.727,6.474,5.132,8.145c2.941,3.496,3.133,4.248,1.078,4.248
		c-0.813,0-2.214,1.125-3.115,2.5c-0.9,1.375-2.222,2.5-2.936,2.5s-2.526-3.263-4.028-7.25s-3.171-7.813-3.71-8.5
		c-0.623-0.795-3.57-1.242-8.106-1.229l-7.127,0.021l6.913,4.479c3.803,2.463,7.232,4.479,7.621,4.479s0.668,2.813,0.62,6.25
		s0.297,8.388,0.766,11l0.852,4.75h-3.564C485.746,135,483.436,134.293,482.572,133.429z"/>
	<path id="path2457" d="M495.539,250.549
		c-17.009-4.332-28.775-21.971-46.24-22.708c-39.121-2.802-75.152-21.509-114.545-22.72c-43.142-3.791-85.878,5.369-128.964,5.653
		c-10.966,1.621-21.702,1.229-32.423-1.493c-24.884-4.652-50.161-7.815-73.89-17.16c-18.846-7.243-41.438-7.997-57.031-21.726
		c-13.162-18.694,14.634-38.267,30.127-45.037c34.958-11.575,72.141-14.889,108.648-18.024c19.95-2.228,45.786,2.79,58.944-16.129
		c12.258-24.442,20.224-52.751,41.245-71.517c15.978-2.673-0.442,25.313,1.63,35.098c0.955,18.727-8.607,44.524,7.123,58.398
		c24.504,11.166,51.824,15.311,76.163,27.244c32.95,15.449,66.601,34.281,88.479,64.208c10.229-2.837,30.643-5.439,34.863,3.237
		c-20.157,10.602,4.727,31.518,13.978,41.402C509.898,253.873,496.592,251.271,495.539,250.549z M494.602,245.024
		c-3.266-9.065-36.88-23.671-36.825-29.256c3.507-7.092,29.09-4.147,13.772-1.06c-9.91-1.191-4.249,16.375,13.239,22.956
		c1.5,10.476-45.803-19.272-50.851-28.244c-19.546-0.667-20.642-5.627-37.886-12.524c-32.517-10.084-84.199-9.426-112.076-32.904
		c-20.022-10.631-27.065-8.517-25.377-27.459c-2.442-9.945,3.423-6.338,1.916-1.622c-2.836,6,25.481,23.324,22.668,22.931
		c-7.252,1.938,12.59-0.222,5.814,3.356c14.668-12.282,7.632,43.237,0.783,25.396c-8.025-4.53-63.021-20.816-73.077-29.28
		c-31.63-9.943-63.565,4.945-94.888,8.897c-25.033,0.541-33.165-0.445-57.357-2.603c-10.463,3.782-30.145,6.132-10.987-0.556
		c6.322-2.184,37.095,1.495,15.559,2.141c-4.607,0.971,25.064-5.344,38.496-0.396c19.152-3.597,1.809-24.638,15.564-17.31
		c7.495-4.037,7.397,14.636,5.726,16.398c26.656-19.419,63.233-24.256,94.813-15.385c20.937,6.126,80.453,16.19,97.251,27.908
		c13.221,9.883-1.825-2.398,15.714-0.451c24.049,0.686,43.149,15.516,66.577,23.129c17.976,3.807,39.067,8.746,48.372,26.459
		c-0.897-2.334-20.802-20.35-8.084-12.183c46.38,5.538,47.649,26.94,54.786,35.626l-0.938-1.165L494.602,245.024L494.602,245.024z
		 M84.262,158.352C84.729,149.922,94.721,162.035,84.262,158.352z"/>
	
		<path id="path2461" fill="#FFFFFF" stroke="#000000" stroke-width="0.9985" stroke-linejoin="round" d="
		M44.381,172.359c-1.246-2.985,2.394-3.51,10.79-4.883c3.467-0.566,27.104-2.617,27.853-2.56c2.839,0.222,6.661,1.464,10.929,2.891
		c7.885,2.636,11.974,4.979,18.691,8.788c6.717,3.809,9.054,6.151,12.851,8.202c2.446,1.321,12.292,5.076,20.392,8.362
		c4.468,1.814,8.405,3.485,10.274,4.527c5.257,2.929,15.771,4.101,20.444,6.444c4.673,2.343,12.266,2.05,15.187,2.05
		s44.393-2.343,54.031-3.808c9.638-1.465,28.329-3.808,43.517-2.93c15.187,0.879,47.313-0.292,59.871,2.051
		c12.559,2.344,37.384,7.909,42.349,8.495s50.407,14.354,53.328,14.354s5.22-3.121,5.22-3.121l1.536,0.656l8.76,8.48
		c0,0-39.845-5.772-45.771-7.773c-5.917-1.996-25.701-6.736-35.631-9.08s-28.914-6.445-36.799-6.738
		c-7.886-0.293-43.225-2.344-54.323-0.879c-11.098,1.465-31.25,3.809-36.507,3.809s-61.624,3.223-63.669,3.223
		c-2.044,0-48.189-7.031-51.986-8.203c-3.797-1.171-8.47-2.929-15.771-5.564c-7.302-2.637-41.241-11.338-46.146-12.743
		c-5.111-1.465-20.444-6.444-25.409-9.813C45.82,174.851,45.257,173.824,44.381,172.359z"/>
	<path id="path2459" stroke="#000000" stroke-linejoin="round" d="M124.187,184.298c3.223,3.808,5.566,9.667,7.323,14.354
		c1.758,4.687,3.223,7.323,6.737,13.768c3.516,6.444,9.374,14.354,16.404,19.919c7.03,5.566,16.404,11.132,21.091,13.475
		c4.688,2.344,11.132,4.395,13.475,2.93c2.344-1.465,6.151-5.565,6.151-8.201c0-2.637-2.636-16.404-4.394-22.264
		c-1.758-5.858-11.424-20.212-13.768-23.434c-2.344-3.223-16.697-12.01-18.747-12.889c-2.051-0.879-6.152-2.637-6.152-2.637"/>
	<path id="path3234" fill="#FFFFFF" d="M268.443,204.189c-5.799-5.385-11.658-7.871-8.758-19.885
		c2.899-12.014,31.543-18.642,44.799-16.57c13.257,2.071,51.369,6.214,55.512,11.6c4.143,5.385-3.729,7.871-9.528,7.871
		s-19.471,1.656-22.784,2.899c-3.314,1.243,2.485,14.085,2.485,14.085H268.443z"/>
	
		<path id="path3236" fill="#FFFFFF" d="
		M122.258,152.118c0.006,4.629-8.088,9.44-18.077,10.746c-9.99,1.306-18.094-1.388-18.1-6.017c0-0.004,0-0.007,0-0.01
		c-0.006-4.629,8.087-9.44,18.077-10.746c9.99-1.307,18.094,1.388,18.1,6.016C122.258,152.111,122.258,152.115,122.258,152.118z"/>
	
		<radialGradient id="path3238_1_" cx="109.8889" cy="-76.5625" r="2.7449" gradientTransform="matrix(0.7065 0 0 -0.6198 6.4632 115.7296)" gradientUnits="userSpaceOnUse">
		<stop  offset="0" style="stop-color:#707070"/>
		<stop  offset="1" style="stop-color:#000000"/>
	</radialGradient>
	
		<path id="path3238" fill="url(#path3238_1_)" d="
		M86.037,163.181c0,0.939-0.868,1.701-1.939,1.701c-1.07,0-1.938-0.762-1.938-1.701s0.868-1.701,1.938-1.701
		C85.169,161.479,86.037,162.241,86.037,163.181z"/>
	
		<radialGradient id="path3248_1_" cx="183.5862" cy="-848.5693" r="2.7439" gradientTransform="matrix(0.2262 0 0 -0.2295 42.7106 -31.5235)" gradientUnits="userSpaceOnUse">
		<stop  offset="0" style="stop-color:#000000"/>
		<stop  offset="0.0927" style="stop-color:#000000"/>
		<stop  offset="0.8019" style="stop-color:#FFFFFF"/>
		<stop  offset="1" style="stop-color:#FFFFFF"/>
	</radialGradient>
	
		<path id="path3248" fill="url(#path3248_1_)" d="
		M84.856,163.24c0,0.348-0.277,0.63-0.62,0.63s-0.621-0.282-0.621-0.63s0.278-0.63,0.621-0.63S84.856,162.893,84.856,163.24z"/>
	<path id="path3262" fill="#EEEF2B" d="M490.111,112.898c0.32,2.589,0.252,6.471,0.2,7.61
		c-0.053,1.139-0.528,4.35-0.204,6.835c0.325,2.485,1.802,8.303,1.802,8.303s-4.924-0.018-6.141,0.189
		c-1.216,0.207-3.888-1.346-4.408-1.968c-0.52-0.621-1.045-3.521-0.893-4.453s1.182-4.246,1.211-4.868
		c0.028-0.622,0.677-2.796,0.719-3.729c0.043-0.932-0.225-2.278-0.425-2.692c-0.2-0.415,1.145-1.036,2.165-1.761
		s1.839-1.811,1.991-2.743s0.149-1.768-0.115-2.278c-0.639-1.232-1.054-0.932-1.054-0.932L490.111,112.898z"/>
	
		<path id="path3266" stroke="#F1E933" d="
		M428.339,69.725c0.741,0.695,0.614,2.528-0.284,4.093c-0.899,1.565-2.229,2.271-2.971,1.576c-0.001-0.001-0.002-0.002-0.004-0.003
		c-0.741-0.695-0.613-2.527,0.285-4.093c0.898-1.566,2.229-2.271,2.97-1.577C428.336,69.723,428.338,69.724,428.339,69.725z"/>
	
		<radialGradient id="path3284_1_" cx="-17.7815" cy="-1092.8247" r="2.7433" gradientTransform="matrix(0.1705 -0.0247 -0.0275 -0.1898 399.1432 -134.5121)" gradientUnits="userSpaceOnUse">
		<stop  offset="0" style="stop-color:#000000"/>
		<stop  offset="0.0927" style="stop-color:#000000"/>
		<stop  offset="0.8019" style="stop-color:#FFFFFF"/>
		<stop  offset="1" style="stop-color:#FFFFFF"/>
	</radialGradient>
	
		<path id="path3284" fill="url(#path3284_1_)" d="
		M426.586,73.311c0.041,0.288-0.135,0.551-0.393,0.588c-0.259,0.038-0.502-0.166-0.544-0.453c-0.041-0.288,0.135-0.551,0.393-0.589
		C426.301,72.82,426.544,73.023,426.586,73.311z"/>
	
		<radialGradient id="path3288_1_" cx="-17.7849" cy="-1092.8242" r="2.7441" gradientTransform="matrix(0.1705 -0.0247 -0.0275 -0.1898 400.1608 -136.56)" gradientUnits="userSpaceOnUse">
		<stop  offset="0" style="stop-color:#000000"/>
		<stop  offset="0.0927" style="stop-color:#000000"/>
		<stop  offset="0.8019" style="stop-color:#FFFFFF"/>
		<stop  offset="1" style="stop-color:#FFFFFF"/>
	</radialGradient>
	
		<path id="path3288" fill="url(#path3288_1_)" d="
		M427.603,71.264c0.042,0.288-0.134,0.551-0.393,0.589c-0.258,0.037-0.502-0.166-0.543-0.453c-0.042-0.288,0.134-0.552,0.393-0.589
		C427.319,70.773,427.562,70.976,427.603,71.264z"/>
	
		<linearGradient id="path3268_1_" gradientUnits="userSpaceOnUse" x1="82.3464" y1="222.9961" x2="92.5994" y2="222.9961" gradientTransform="matrix(0.2586 -0.5302 -0.4707 -0.3362 508.9686 193.8857)">
		<stop  offset="0" style="stop-color:#FFFFFF"/>
		<stop  offset="1" style="stop-color:#000000;stop-opacity:0"/>
	</linearGradient>
	
		<path id="path3268" fill="url(#path3268_1_)" d="
		M427.958,69.814c0.753,0.535,0.771,2.187,0.039,3.688c-0.73,1.502-1.934,2.286-2.687,1.75c-0.002-0.001-0.003-0.001-0.004-0.002
		c-0.753-0.535-0.771-2.187-0.04-3.688c0.731-1.502,1.935-2.286,2.688-1.75C427.955,69.813,427.957,69.813,427.958,69.814z"/>
	
		<path id="path3292" fill="#E2DF2C" d="
		M436.376,65.497c4.021-1.597,13.387-0.462,20.917,2.535c7.531,2.996,10.375,6.719,6.354,8.315s-13.386,0.461-20.916-2.535
		c-4.281-1.703-7.239-3.733-7.99-5.483"/>
	
		<path id="path3298" fill="#363636" d="
		M428.605,73.542c1.252-0.563,2.79-0.128,3.436,0.972s0.153,2.45-1.1,3.013c-1.252,0.564-2.79,0.129-3.436-0.972
		S427.352,74.106,428.605,73.542z"/>
	
		<path id="path3294" fill="#DBDBDB" d="
		M430.34,73.393c0.85-0.339,1.934-0.176,2.421,0.363c0.487,0.539,0.193,1.251-0.656,1.59s-1.933,0.176-2.42-0.363
		C429.198,74.444,429.491,73.732,430.34,73.393z"/>
	
		<path id="path3296" fill="#777777" d="
		M430.583,73.526c0.63-0.231,1.403-0.053,1.728,0.398c0.324,0.452,0.077,1.005-0.553,1.237c-0.629,0.231-1.402,0.053-1.727-0.399
		S429.954,73.757,430.583,73.526z"/>
	<path id="path3302" fill="none" stroke="#FFFB0E" d="M489.935,99.909c0,0-11.978,0.458-15.261,0.232
		c-2.31-0.158-6.11-3.051-7.429-5.248s-2.645-4.119-3.539-6.616c-0.817-2.281-2.93-4.394-2.93-4.394"/>
	<path id="path3306" stroke="#000000" d="M435.732,69.97c0,0,2.782-1.318,4.247-1.318s9.374,2.636,10.399,2.929
		s10.838,6.151,11.131,6.737s0,2.197-2.05,2.637c-2.051,0.439-16.99-4.101-18.748-5.273s-5.565-3.808-5.565-3.808L435.732,69.97z"/>
	<path id="path3308" fill="none" stroke="#FFFB0E" d="M460.722,83.902
		c0.321-0.966-11.857-12.101-19.498-11.735c-2.313,0.111-4.564,6.353-3.808,9.813c1.196,5.472,3.808,9.228-1.318,12.01
		c-2.536,1.376-9.228,2.343-9.228,2.343"/>
	<path id="path3304" fill="none" stroke="#979797" d="M452.973,90.209l0.514,0.595l3.267-3.026
		c0,0,3.601-3.351,4.316-4.479c0.555-0.875,2.361-3.885,2.361-3.885"/>
	<path id="path3310" fill="none" stroke="#383838" d="M431.923,72.899c1.318-1.904,2.637-3.076,3.809-3.222
		c1.172-0.146,4.979,0.146,5.712-0.439c0.732-0.586,2.783-1.172,1.318-2.344c-1.465-1.171-1.758-2.49-3.955-2.197
		c-2.196,0.293-3.808,3.076-3.808,3.076"/>
	<path id="path3312" fill="none" stroke="#000000" stroke-width="0.1573" d="M483.793,123.481l-0.584,5.022l-0.045-0.147"/>
	<path id="path3314" fill="none" stroke="#000000" stroke-width="0.1238" d="M485.911,123.162l0.071,4.634l-0.043-0.132"/>
	<path id="path3264" fill="#EEEF2B" d="M493.301,97.069c1.677,2.021,3.716,5.326,4.287,6.312
		c0.57,0.986,1.894,3.93,3.519,5.861c1.625,1.931,5.636,6.67,5.636,6.67s-3.859,1.875-4.8,2.658
		c-0.94,0.784-3.946,3.596-4.732,3.333c-0.786-0.263-2.955-5.226-3.327-6.088c-0.371-0.861-1.272-4.169-1.583-4.708
		c-0.312-0.538-0.927-2.695-1.394-3.501s-1.236-1.917-1.634-2.166s0.241-1.336,0.732-2.458s0.173-2.081-0.199-2.942
		c-0.372-0.861-0.899-1.93-1.404-2.228c-1.219-0.718-0.465-0.843-0.465-0.843L493.301,97.069z"/>
	<path id="path3316" fill="none" stroke="#000000" stroke-width="0.1573" d="M493.449,107.34l2.343,4.48l-0.12-0.097"/>
	<path id="path3318" fill="none" stroke="#000000" stroke-width="0.1238" d="M495.022,105.884l2.665,3.791l-0.11-0.084"/>
</g>
</svg>
