<?xml version="1.0" encoding="utf-8"?>
<!-- Generator: Adobe Illustrator 15.0.0, SVG Export Plug-In . SVG Version: 6.00 Build 0)  -->
<!DOCTYPE svg PUBLIC "-//W3C//DTD SVG 1.1//EN" "http://www.w3.org/Graphics/SVG/1.1/DTD/svg11.dtd">
<svg version="1.1"
	 id="svg2" xmlns:inkscape="http://www.inkscape.org/namespaces/inkscape" xmlns:sodipodi="http://sodipodi.sourceforge.net/DTD/sodipodi-0.dtd" xmlns:dc="http://purl.org/dc/elements/1.1/" xmlns:cc="http://web.resource.org/cc/" xmlns:rdf="http://www.w3.org/1999/02/22-rdf-syntax-ns#" xmlns:svg="http://www.w3.org/2000/svg"
	 xmlns="http://www.w3.org/2000/svg" xmlns:xlink="http://www.w3.org/1999/xlink" x="0px" y="0px" width="468.08px"
	 height="828.554px" viewBox="0 0 468.08 828.554" enable-background="new 0 0 468.08 828.554" xml:space="preserve">
<g id="layer6" transform="translate(-93.31832,-104.42901)">
	<path id="path12015" stroke="#000000" stroke-width="0.9193" d="M245.514,820.555l-1.784,28.943
		c-1.039,18.443-54.425,55.271-48.102,75.145c14.544,18.936,31.811-2.541,38.563,0.041c25.142,9.879,32.349,4.02,43.974-7.039
		c12.259-8.977,42.347,22.758,50.346-2.35c4.363-14.018-51.593-46.896-53.462-69.029l-1.348-25.957L245.514,820.555z"/>
	<path id="path12017" stroke="#000000" stroke-width="0.9193" d="M415.708,812.159l2.285,43.281
		c2.286,13.033,44.689,38.123,44.671,50.658c-1.455,17.951-39.684,8.361-39.684,8.361c-8.312,9.59-34.067,7.875-38.229-1.969
		c-6.441,10.576-37.397,11.869-40.931,0c-3.324-15,29.088-26.066,41.554-63.938l-0.831-39.838L415.708,812.159z"/>
</g>
<g id="layer5" transform="translate(-93.31832,-104.42901)" >
	<path id="path10070" stroke="#000000" stroke-width="0.9193" d="M211.807,337.512c-17.92,32.881-31.953,70.042-44.44,99.511
		c-19.382,54.363-62.462,102.214-69.075,161.361c-14.328,73.295,7.575,150.396,35.99,146.109
		c39.076-6.23,16.199-69.178,21.335-91.322c3.918-8.871,7.604-17.898,11.275-26.91c-0.125-29.646,1.159-61.953,3.775-96.666
		C180.717,429.14,197.706,373.542,211.807,337.512z M429.728,397.612c15.453,33.368,31.838,75.334,41.958,128.451
		c7.815,41.021,11.143,88.26,9.743,133.42c12.072,18.906,18.902,31.563,20.016,33.566c6.592,15.471-0.837,54.777,37.759,57.1
		c34.878-3.91,19.836-98.307,9.189-136.545c-15.214-59.803-34.569-78.777-65.775-126.576
		C482.617,487.028,458.996,445.356,429.728,397.612z"/>
</g>
<g id="layer2" transform="translate(-93.31832,-104.42901)">
	<path id="path2255" stroke="#000000" stroke-width="0.9193" d="M503.355,145.13
		c-8.548-26.12-41.687-17.208-41.687-17.208c-7.334,4.405-30.576,9.569-37.305,4.198c-81.697-68.807-183.118-1.367-188.696,136.52
		c-1.118,40.614-45.786,68.791-65.01,260.949c-14.181,188.178,11.134,305.947,84.297,309.764
		c51.068,0.619,41.663-18.979,76.203-21.246c28.325-1.873,33.994,27.826,80.667,21.246c65.889-6.287,83.624-188.555,59.86-313.285
		c-23.764-124.729-82.082-188.186-81.72-222.423c-1.997-16.327,13.38-34.77,25.942-59.403s9.108-34.38,21.206-48.547
		c8.68-14.196,46.377-20.691,46.377-20.691S503.462,171.694,503.355,145.13z"/>
</g>
<g id="layer4" transform="translate(-93.31832,-104.42901)">
	<path id="path8117" fill="#FFFFFF" stroke="#000000" stroke-width="0.9193" d="M350.908,366.296
		c-104.663,1.186-168.252,196.361-170.207,297.437c14.017-101.91,86.615-251.776,170.207-254.776
		c63.701,0.465,100.217,63.059,118.533,105.979c-7.238-34.003-16.965-63.249-27.145-88.446c-0.008-0.012-0.02-0.02-0.026-0.031
		C422.341,394.504,393.569,367.157,350.908,366.296z M351.437,422.959c-82.438,3.57-171.132,176.192-172.848,324.659
		c13.375,57.146,38.439,89.75,76.363,91.729c51.068,0.619,41.665-18.984,76.205-21.252c28.325-1.873,33.995,27.832,80.668,21.252
		c54.674-5.219,76.173-131.605,68.336-245.744C458.009,475.922,401.385,424.664,351.437,422.959z"/>
</g>
<g id="layer3" transform="translate(-93.31832,-104.42901)">
	<path id="path3241" fill="#FFFFFF" stroke="#000000" stroke-width="0.9193" d="
		M381.38,108.488l0.105,0.688c-13.413,16.284-56.439,28.8-67.412,38.285c-58.813,48.037-49.809,195.445-9.269,197.427
		c37.242,1.514,66.445-57.339,86.715-54.225c4.141-13.159,15.044-28.069,24.398-46.411c10.714-21.009,9.77-31.206,16.767-42.536
		c-0.852,0.243-1.45,0.432-2.35,0.688c-35.77,10.177-59.162,76.119-91.837,67.57c-43.645-20.4-20.975-124.336,39.212-135.796
		c8.089-1.54,14.597,6.207,23.737,1.469c3.099-1.606,10.325-11.001,10.325-11.001l1.135-1.188
		C402.539,116.442,391.972,111.501,381.38,108.488z"/>
	
		<path id="path4237" opacity="0.99" fill="#FFFFFF" stroke="#000000" stroke-width="2" stroke-linecap="round" enable-background="new    " d="
		M385.484,149.805c0,4.148-2.841,7.511-6.346,7.511s-6.346-3.363-6.346-7.511s2.841-7.511,6.346-7.511
		S385.484,145.657,385.484,149.805z"/>
</g>
</svg>
