<?xml version="1.0" encoding="utf-8"?>
<!-- Generator: Adobe Illustrator 15.0.0, SVG Export Plug-In . SVG Version: 6.00 Build 0)  -->
<!DOCTYPE svg PUBLIC "-//W3C//DTD SVG 1.1//EN" "http://www.w3.org/Graphics/SVG/1.1/DTD/svg11.dtd">
<svg version="1.1" id="Layer_3" xmlns="http://www.w3.org/2000/svg" xmlns:xlink="http://www.w3.org/1999/xlink" x="0px" y="0px"
	 width="587px" height="543px" viewBox="0 0 587 543" enable-background="new 0 0 587 543" xml:space="preserve">
<style type="text/css">
	<![CDATA[
	 .main{fill:#FF0081}
	 .base{fill:#54565A}
	 .stripe{fill:#FFFFFF}
	]]>
</style>
<g id="pink2" class="main">
	<path d="M383.475,495.507c-28.318-14.615-64.125-6.942-42.568-69.97c7.802-22.808,11.875-41.652,15.164-61.566
		c3.289-19.911,7.49-46.402,7.673-63.758c0.184-17.356-0.394-47.539-1.278-58.825c-6.03-85.132-10.962-127.88-12.424-173.919
		c-0.321-10.136-2.375-3.472-2.192-25.027c0.053-6.193,3.48-6.2,5.663-6.396c65.584-5.846,123.68,8.038,151.266,28.317
		c2.758,2.027,4.027,3.853,3.288,10.962c-1.826,17.537-3.71,9.207-6.028,21.374c-11.144,58.46-37.999,155.832-46.585,206.62
		c-3.489,20.633-7.146,62.367-2.193,84.036c4.954,21.667,33.255,85.063,49.143,88.969c32.703,8.038,45.856,31.604,27.951,45.489
		c-18.059,14.005-39.275,14.615-53.525,14.798c-18.573,0.238-47.404-3.052-58.645-7.308
		C399.368,522.179,407.585,507.95,383.475,495.507z"/>
	<path d="M275.872,434.272c30.293-18.088,44.116-22.271,27.84-77.948c-6.82-23.33-10.997-48.673-12.421-68.956
		c-1.713-24.413-0.415-45.912,0-63.389c0.429-17.987,8.093-62.299,8.994-73.667c4.712-41.116,9.737-56.078,13.707-102.361
		c0.642-7.496,3.066-5.746,3.855-13.063c1.498-13.92,3.967-18.467-2.785-20.772c-24.455-8.352-134.432,7.014-154.989,13.116
		c-4.919,1.462-3.694,4.658-1.606,18.471c1.078,7.133,2.944,3.32,4.658,12.528c10.97,58.949,30.516,155.899,34.371,202.155
		c1.888,22.656,3.426,59.533-17.132,92.511c-15.778,25.312-41.291,77.029-80.948,103.647C68.15,477.53,46.307,483.955,50.59,506.227
		c2.613,13.59,37.74,11.38,52.251,11.564c18.915,0.239,74.522-5.569,88.228-7.281C234.863,505.037,216.34,469.821,275.872,434.272z"
		/>
</g>
<g id="gray" class="base">
	<g>
		<path d="M538.385,506.526c0.007,0.188,0.007,0.38,0.007,0.569c0,0.263-0.007,0.52-0.021,0.775
			c-0.007,0.24-0.022,0.481-0.043,0.716c-0.03,0.329-0.073,0.664-0.125,0.994c-0.029,0.211-0.066,0.416-0.109,0.629
			c-0.059,0.306-0.125,0.605-0.213,0.912c-0.05,0.206-0.102,0.409-0.166,0.614c-0.126,0.417-0.265,0.825-0.425,1.235
			c-0.03,0.094-0.066,0.183-0.109,0.276c-0.09,0.228-0.184,0.446-0.286,0.673c-0.015,0.031-0.028,0.052-0.036,0.074
			c-0.109,0.239-0.227,0.474-0.352,0.716c-0.263,0.496-0.548,0.985-0.862,1.468c-0.109,0.176-0.226,0.351-0.342,0.52
			c-0.213,0.3-0.432,0.606-0.664,0.898c-0.185,0.233-0.368,0.461-0.564,0.694c-0.197,0.227-0.396,0.453-0.605,0.681
			c0.773-8.179,2.738-30.663-26.133-41.274c1.731,0.542,3.404,1.133,5.006,1.761c0.306,0.119,0.613,0.242,0.913,0.366
			c0.605,0.249,1.206,0.498,1.79,0.761c0.242,0.102,0.481,0.21,0.725,0.32c2.93,1.338,5.604,2.82,8.001,4.414
			c0.476,0.315,0.934,0.629,1.381,0.951c0.227,0.159,0.453,0.321,0.674,0.48c0.218,0.17,0.438,0.329,0.649,0.498
			c0.233,0.177,0.461,0.351,0.687,0.533c0.337,0.271,0.657,0.533,0.979,0.804c0.469,0.395,0.913,0.789,1.345,1.191
			c0.184,0.176,0.374,0.344,0.549,0.52c0.183,0.175,0.364,0.35,0.54,0.526c0.702,0.7,1.367,1.418,1.981,2.147
			c0.276,0.337,0.555,0.673,0.817,1.008c0.016,0.03,0.037,0.052,0.052,0.072c0.284,0.367,0.549,0.726,0.804,1.091
			c0.146,0.204,0.293,0.416,0.431,0.628c0.11,0.168,0.22,0.336,0.322,0.504c0.117,0.183,0.234,0.373,0.35,0.563
			c0.197,0.328,0.381,0.658,0.563,0.994c0.052,0.088,0.103,0.184,0.147,0.277c0.152,0.299,0.307,0.6,0.444,0.899
			c0.373,0.789,0.687,1.579,0.95,2.375c0.066,0.189,0.125,0.38,0.183,0.569c0.058,0.205,0.117,0.41,0.169,0.614
			c0.088,0.329,0.168,0.657,0.233,0.979c0.029,0.125,0.05,0.249,0.073,0.373c0.021,0.11,0.043,0.211,0.059,0.329
			c0.029,0.176,0.058,0.357,0.078,0.541c0.045,0.292,0.081,0.591,0.103,0.892C538.356,505.963,538.371,506.241,538.385,506.526z"/>
		<path d="M538.23,504.787c-0.021-0.184-0.049-0.365-0.078-0.541C538.182,504.429,538.21,504.604,538.23,504.787z"/>
		<path d="M538.021,503.544c-0.065-0.321-0.146-0.649-0.233-0.979C537.875,502.895,537.955,503.216,538.021,503.544z
			"/>
		<path d="M537.618,501.951c-0.058-0.189-0.116-0.38-0.183-0.569C537.502,501.571,537.561,501.762,537.618,501.951z"
			/>
		<path d="M536.041,498.107c0.158,0.299,0.307,0.6,0.444,0.899C536.348,498.707,536.193,498.406,536.041,498.107z"/>
		<path d="M535.894,497.83c-0.183-0.336-0.366-0.666-0.563-0.994C535.527,497.164,535.72,497.502,535.894,497.83z"/>
		<path d="M535.33,496.836c-0.115-0.189-0.232-0.38-0.35-0.563C535.105,496.463,535.222,496.646,535.33,496.836z"/>
		<path d="M534.98,496.273c-0.103-0.168-0.212-0.336-0.322-0.504C534.769,495.938,534.878,496.105,534.98,496.273z"
			/>
		<path d="M534.228,495.142c-0.255-0.365-0.52-0.724-0.804-1.091C533.708,494.409,533.973,494.776,534.228,495.142z"
			/>
		<path d="M533.372,493.979c-0.263-0.335-0.541-0.671-0.817-1.008C532.831,493.301,533.109,493.635,533.372,493.979z
			"/>
		<path d="M530.573,490.823c-0.176-0.177-0.357-0.352-0.54-0.526C530.216,490.472,530.397,490.646,530.573,490.823z"
			/>
		<path d="M530.033,490.297c-0.175-0.176-0.365-0.344-0.549-0.52C529.675,489.945,529.858,490.121,530.033,490.297z"
			/>
		<path d="M528.14,488.586c-0.321-0.271-0.642-0.533-0.979-0.804C527.498,488.046,527.826,488.315,528.14,488.586z"
			/>
		<path d="M526.475,487.249c-0.212-0.169-0.432-0.328-0.649-0.498C526.043,486.912,526.263,487.08,526.475,487.249z"
			/>
		<path d="M525.151,486.271c-0.447-0.322-0.905-0.636-1.381-0.951C524.237,485.627,524.704,485.948,525.151,486.271z
			"/>
		<path d="M515.77,480.905c-0.243-0.11-0.482-0.219-0.725-0.32C515.287,480.687,515.526,480.795,515.77,480.905z"/>
		<path d="M513.255,479.824c-0.3-0.124-0.607-0.247-0.913-0.366C512.647,479.577,512.955,479.7,513.255,479.824z"/>
		<path d="M458.192,462.439c9.865,13.885,10.596,20.278,24.846,35.26c-1.643,14.79-50.136,37.107-81.274,14.826
			h-0.006c-0.147-0.263-0.301-0.526-0.461-0.789c-0.029-0.065-0.072-0.132-0.109-0.189c-0.279-0.469-0.563-0.937-0.871-1.403
			c-0.32-0.505-0.664-1.017-1.021-1.527c-0.228-0.321-0.46-0.644-0.701-0.957c-0.182-0.249-0.381-0.504-0.585-0.753
			c-0.168-0.227-0.351-0.445-0.54-0.672c-0.666-0.798-1.39-1.601-2.186-2.397c-0.205-0.198-0.409-0.402-0.621-0.6
			c-0.206-0.204-0.425-0.4-0.643-0.6c-0.438-0.401-0.9-0.803-1.381-1.197c-0.242-0.204-0.49-0.401-0.745-0.6
			c-0.205-0.168-0.417-0.335-0.637-0.497c-0.357-0.271-0.73-0.54-1.109-0.818C429.964,502.931,449.482,497.809,458.192,462.439z"/>
		<path d="M433.406,215.14c9.5,6.825,23.932,24.457,25.824,31.18c-9.018,50.183-14.863,59.192-11.729,122.585
			c0.584,11.771-3.653,23.843-7.578,63.758c-1.001,1.826-1.461,3.011-2.558,5.297c-0.913,25.556,14.958,58.958-56.1,56.459
			c-27.922-13.175-61.36-7.483-40.359-68.881c7.798-22.807,11.875-41.652,15.164-61.566c3.289-19.911,7.49-46.402,7.673-63.758
			c0.184-17.356-0.395-47.535-1.278-58.825c-6.03-85.132-10.962-127.88-12.424-173.919c-0.321-10.135-2.375-3.472-2.192-25.027
			c0.051-6.197,3.478-6.197,5.663-6.396c33.301-2.966,64.671-0.848,91.097,4.611C439.998,80.754,438.2,166.537,433.406,215.14z"/>
		<path d="M401.758,512.525c-0.155-0.263-0.309-0.526-0.461-0.789C401.457,511.999,401.61,512.263,401.758,512.525z"
			/>
		<path d="M401.188,511.547c-0.286-0.469-0.57-0.937-0.871-1.403C400.625,510.61,400.908,511.078,401.188,511.547z"
			/>
		<path d="M400.316,510.144c-0.328-0.512-0.664-1.017-1.021-1.527C399.652,509.127,399.996,509.639,400.316,510.144z
			"/>
		<path d="M398.594,507.659c-0.189-0.249-0.381-0.504-0.585-0.753C398.213,507.155,398.412,507.41,398.594,507.659z"
			/>
		<path d="M398.009,506.906c-0.176-0.227-0.358-0.445-0.54-0.672C397.658,506.461,397.841,506.68,398.009,506.906z"
			/>
	</g>
	<g>
		<path d="M303.715,356.324c13.021,44.553,6.777,56.136-11.757,68.247c3.057-14.142-3.187-27.773-13.838-54.113
			c7.067-69.063-3.213-99.258,4.175-180.526c0,0,7.086-4.452,15.304-19.14c-2.564,17.789-6.026,41.272-6.309,53.189
			c-0.412,17.475-1.71,38.977,0,63.389C292.715,307.652,296.891,332.998,303.715,356.324z"/>
		<path d="M264.949,395.513c14.892,17.165,14.911,29.373,11.113,38.643c-0.063,0.04-0.126,0.078-0.191,0.116
			c-17.089,10.208-27.748,20.385-35.296,29.842c0.694-7.1-0.751-16.711-5.821-21.06C238.288,439.199,259.81,404.828,264.949,395.513
			z"/>
		<path d="M77.677,470.229c36.78-0.397,94.94,26.475,75.661,44.246c-19.273,1.806-40.262,3.448-50.496,3.315
			c-14.513-0.181-49.641,2.03-52.25-11.564C47.398,489.618,58.732,481.826,77.677,470.229z"/>
	</g>
</g>
<g id="pink1" class="main">
	<path d="M416.649,36.376c-5.063,39.63-4.64,129.497-11.984,210.312l-38.241-3.533
		c1.892-45.285-8.081-164.643-8.512-207.466C378.535,34.11,398.36,34.482,416.649,36.376z"/>
	<path d="M365.205,253.141l38.853,3.776c0,0-2.072,21.45-2.072,22.531c0,0-35.079-2.071-37.27-3.897
		C364.84,270.07,365.205,253.141,365.205,253.141z"/>
	<path d="M401.621,289.923c0,5.107-1.041,21.193-1.041,21.193s-25.521-1.244-35.862-4.021
		c0.139-2.412,0.1-5.031,0.122-7.187c0.044-4.077,0.28-8.189,0.243-13.275C370.32,287.729,383.962,290.167,401.621,289.923z"/>
	<path d="M399.941,322.174c0,0-0.354-2.442-1.594,20.306l-36.065-4.815c1.218-8.403,1.824-14.005,2.314-19.852
		C370.6,319.728,389.778,321.482,399.941,322.174z"/>
</g>
<g id="white" class="stripe">
	<path d="M459.12,246.172c-1.892-6.724-16.323-24.356-25.823-31.182c4.794-48.602,6.591-134.384,11.202-174.481
		l7.127,1.636c-4.611,40.097-6.475,121.393-11.27,169.995c9.499,6.825,25.004,27.724,26.896,34.447l-0.104,0.957
		c-6.06,31.043-17.648,62.193-15.948,122.686l-3.809-1.475C444.258,305.361,450.104,296.353,459.12,246.172z"/>
	<path d="M270.575,370.44c7.067-69.061-3.242-100.42,4.146-181.689c0,0,14.671-11.693,24.664-30.725l-1.786,12.766
		c-8.218,14.688-15.304,19.14-15.304,19.14c-7.389,81.269,2.892,111.464-4.175,180.525L270.575,370.44z"/>
</g>
<g>
	<path fill="none" stroke="#111820" stroke-linecap="round" stroke-linejoin="round" stroke-miterlimit="10" d="M315.917,16.364
		c21.564,6.92-177.986,19.662-155.324,12.438"/>
	<path fill="none" stroke="#111820" stroke-linecap="round" stroke-linejoin="round" stroke-miterlimit="10" d="M312.568,42.676
		c-9.355,2.553-33.17,7.018-60.385,8.506"/>
	<path fill="none" stroke="#111820" stroke-linecap="round" stroke-linejoin="round" stroke-miterlimit="10" d="M501.52,89.05
		c-10.073-7.194-40.286-20.144-70.983-23.979"/>
	<path fill="none" stroke="#111820" stroke-linecap="round" stroke-linejoin="round" stroke-miterlimit="10" d="M83.585,466.664
		c19.525-1.123,51.581,10.188,61.343,18.604"/>
	<path fill="none" stroke="#111820" stroke-linecap="round" stroke-miterlimit="10" d="M502.32,476.397
		c5.934,2.278,20.445,9.137,25.388,20.458"/>
</g>
<path fill="none" stroke="#000000" stroke-miterlimit="10" d="M383.475,495.507c-28.318-14.615-64.125-6.942-42.568-69.97
	c7.802-22.808,11.875-41.652,15.164-61.566c3.289-19.911,7.49-46.402,7.673-63.758c0.184-17.356-0.394-47.539-1.278-58.825
	c-6.03-85.132-10.962-127.88-12.424-173.919c-0.321-10.136-2.375-3.472-2.192-25.027c0.053-6.193,3.48-6.2,5.663-6.396
	c65.584-5.846,123.68,8.038,151.266,28.317c2.758,2.027,4.027,3.853,3.288,10.962c-1.826,17.537-3.71,9.207-6.028,21.374
	c-11.144,58.46-37.999,155.832-46.585,206.62c-3.489,20.633-7.146,62.367-2.193,84.036c4.954,21.667,33.255,85.063,49.143,88.969
	c32.703,8.038,45.856,31.604,27.951,45.489c-18.059,14.005-39.275,14.615-53.525,14.798c-18.573,0.238-47.404-3.052-58.645-7.308
	C399.368,522.179,407.585,507.95,383.475,495.507z"/>
<path fill="none" stroke="#000000" stroke-miterlimit="10" d="M275.872,434.272c30.293-18.088,44.116-22.271,27.84-77.948
	c-6.82-23.33-10.997-48.673-12.421-68.956c-1.713-24.413-0.415-45.912,0-63.389c0.429-17.987,8.093-62.299,8.994-73.667
	c4.712-41.116,9.737-56.078,13.707-102.361c0.642-7.496,3.066-5.746,3.855-13.063c1.498-13.92,3.967-18.467-2.785-20.772
	c-24.455-8.352-134.432,7.014-154.989,13.116c-4.919,1.462-3.694,4.658-1.606,18.471c1.078,7.133,2.944,3.32,4.658,12.528
	c10.97,58.949,30.516,155.899,34.371,202.155c1.888,22.656,3.426,59.533-17.132,92.511c-15.778,25.312-41.291,77.029-80.948,103.647
	C68.15,477.53,46.307,483.955,50.59,506.227c2.613,13.59,37.74,11.38,52.251,11.564c18.915,0.239,74.522-5.569,88.228-7.281
	C234.863,505.037,216.34,469.821,275.872,434.272z"/>
</svg>
