<?xml version="1.0" encoding="utf-8"?>
<!-- Generator: Adobe Illustrator 21.0.0, SVG Export Plug-In . SVG Version: 6.00 Build 0)  -->
<svg version="1.1" id="Layer_1" xmlns="http://www.w3.org/2000/svg" xmlns:xlink="http://www.w3.org/1999/xlink" x="0px" y="0px"
	 width="590px" height="530px" viewBox="0 0 590 530" enable-background="new 0 0 590 530" xml:space="preserve">
<path id="la-product-mask" d="M363.6,272.9c0-0.2-0.2-0.4-0.2-0.6v-28.6c0-0.2,0.2-0.4,0.2-0.5
		c0-0.2-0.2-0.4-0.2-0.5v-29.2c-2.9,3.6-32.1,6.1-68,6.1c-37.6,0-68.2-3.5-68.2-7.4h0.4v30.4v0.5v29v0.8v28.9v0.5v29.1h-0.4
		c0,4.9,30.5,7.3,68.2,7.3c37.6,0,68.2-3,68.2-6.9c0-0.2-0.1-0.2-0.1-0.4v-28.6c0-0.2,0.2-0.4,0.2-0.5c0-0.2-0.2-0.4-0.2-0.5v-28.5
		C363.4,273.2,363.6,273,363.6,272.9z"/>
<g id="wine_2">
	<path fill="#333333" d="M363.4,207.5c0-2.3,0.3-4.7,0.3-7.1c0-2.4-0.3-4.8-0.3-7.1v-0.6h-0.1c-2.8-27.2-19.3-49.3-43.5-58.5V16.5
		c0-4.5-3.9-8-8.3-8H279c-4.5,0-7.7,3.6-7.7,8v117.7c-24.3,9.2-41.3,31.4-44.2,58.5h0.5v0.1c0,2.5-0.4,5-0.4,7.5
		c0,2.5,0.4,5,0.4,7.5V503c0,11,30,19.9,67.5,19.9c37.6,0,68.3-8.9,68.3-19.9l0,0V207.5z"/>
	<path opacity="0.8" fill="#FFFFFF" enable-background="new    " d="M262.3,498.7c-0.8-62.3,0-290.8,0-290.8c-0.4-2.5-0.3-5-0.3-7.5
		c0-2.5-0.5-5,0.5-7.5v-0.1H262c2.8-27.2,3.5-41,20-58.5V32.7h-6.8v101.5c-27.2,15.6-33.4,31.4-36.3,58.5h0.4v0.1
		c0,2.5-0.4,5-0.4,7.5c0,2.5,0.4,5,0.4,7.5v284.9C239.2,503.8,262.5,510.9,262.3,498.7z"/>
	<path id="la_x7C_Background" fill="#FEE161" d="M363.6,272.9c0-0.2-0.2-0.4-0.2-0.6v-28.6c0-0.2,0.2-0.4,0.2-0.5
		c0-0.2-0.2-0.4-0.2-0.5v-29.2c-2.9,3.6-32.1,6.1-68,6.1c-37.6,0-68.2-3.5-68.2-7.4h0.4v30.4v0.5v29v0.8v28.9v0.5v29.1h-0.4
		c0,4.9,30.5,7.3,68.2,7.3c37.6,0,68.2-3,68.2-6.9c0-0.2-0.1-0.2-0.1-0.4v-28.6c0-0.2,0.2-0.4,0.2-0.5c0-0.2-0.2-0.4-0.2-0.5v-28.5
		C363.4,273.2,363.6,273,363.6,272.9z"/>
	<path fill="#971B1E" d="M319.7,110.3V16.5c0-4.5-3.9-8-8.3-8H279c-4.5,0-7.7,3.6-7.7,8v93.8H319.7z"/>
	<path fill="#AC2232" d="M323.6,38.3c0,2.2-1.8,4.1-4.1,4.1h-47.2c-2.2,0-4.1-1.8-4.1-4.1V27.1c0-2.2,1.8-4.1,4.1-4.1h47.2
		c2.2,0,4.1,1.8,4.1,4.1V38.3z"/>
</g>
</svg>
