<?xml version="1.0" encoding="utf-8"?>
<!-- Generator: Adobe Illustrator 16.2.0, SVG Export Plug-In . SVG Version: 6.00 Build 0)  -->
<!DOCTYPE svg PUBLIC "-//W3C//DTD SVG 1.1//EN" "http://www.w3.org/Graphics/SVG/1.1/DTD/svg11.dtd">
<svg version="1.1" id="Layer_1" xmlns="http://www.w3.org/2000/svg" xmlns:xlink="http://www.w3.org/1999/xlink" x="0px" y="0px"
	 width="587px" height="543px" viewBox="0 0 587 543" enable-background="new 0 0 587 543" xml:space="preserve">
<style type="text/css">
	<![CDATA[
	 .bg {fill:#FEE161}
	]]>
</style>
<g id="wine_2">
	<path fill="#333333" d="M364,212.167c0-2.4,0.351-4.835,0.351-7.297c0-2.463-0.351-4.897-0.351-7.297V197h-0.115
		C360.949,169,344,146.221,319,136.675V15.287C319,10.686,315.024,7,310.423,7h-33.463C272.358,7,269,10.686,269,15.287v121.371
		C244,146.192,226.39,169,223.452,197H224v0.13c0,2.543-0.396,5.125-0.396,7.739s0.396,5.196,0.396,7.739v304.208
		c0,11.323,30.877,20.496,69.62,20.496c38.742,0,70.38-9.173,70.38-20.496l0,0V212.167z"/>
	<path opacity="0.8" fill="#FFFFFF" d="M259.796,512.424c-0.837-64.208-0.024-299.815-0.024-299.815
		c-0.418-2.543-0.282-5.125-0.282-7.739s-0.49-5.196,0.51-7.739V197h-0.575c2.938-28,3.575-42.266,20.575-60.342V32h-7v104.658
		C245,152.695,238.521,169,235.583,197H236v0.13c0,2.543-0.396,5.125-0.396,7.739s0.396,5.196,0.396,7.739v293.75
		C236,517.682,259.96,525.023,259.796,512.424z"/>
	<path class="bg" d="M364.203,279.583c0-0.188-0.203-0.396-0.203-0.582v-29.488c0-0.183,0.203-0.369,0.203-0.555
		c0-0.188-0.203-0.362-0.203-0.547v-30.086c-3,3.738-33.139,6.302-70.112,6.302c-38.807,0-70.322-3.627-70.322-7.627H224v31.354
		v0.561v29.896v0.837v29.777v0.561V340h-0.434c0,5,31.46,7.563,70.268,7.563c38.807,0,70.32-3.085,70.32-7.087
		c0-0.189-0.154-0.219-0.154-0.404v-29.488c0-0.184,0.203-0.368,0.203-0.555c0-0.189-0.203-0.361-0.203-0.548v-29.342
		C364,279.955,364.203,279.771,364.203,279.583z"/>
	<path fill="#971B1E" d="M319,112V15.287C319,10.686,315.024,7,310.423,7h-33.463C272.358,7,269,10.686,269,15.287V112H319z"/>
	<path fill="#AC2232" d="M323,37.817c0,2.31-1.873,4.183-4.184,4.183h-48.633c-2.311,0-4.184-1.873-4.184-4.183V26.183
		c0-2.31,1.873-4.183,4.184-4.183h48.633c2.311,0,4.184,1.873,4.184,4.183V37.817z"/>
</g>
</svg>
