<?xml version="1.0" encoding="utf-8"?>
<!-- Generator: Adobe Illustrator 16.0.4, SVG Export Plug-In . SVG Version: 6.00 Build 0)  -->
<!DOCTYPE svg PUBLIC "-//W3C//DTD SVG 1.1//EN" "http://www.w3.org/Graphics/SVG/1.1/DTD/svg11.dtd">
<svg version="1.1" id="Layer_1" xmlns="http://www.w3.org/2000/svg" xmlns:xlink="http://www.w3.org/1999/xlink" x="0px" y="0px"
	 width="93.333px" height="102.667px" viewBox="0 0 93.333 102.667" enable-background="new 0 0 93.333 102.667"
	 xml:space="preserve">
<path d="M88.667,37.333h-1.715c-1.332-8.943-2.951-18.667-2.951-18.667c-0.416-3.911-2.783-11.657-18.668-13.099V4.667
	C65.333,2.09,63.244,0,60.667,0h-28C30.091,0,28,2.089,28,4.667v0.896C12.087,7.004,9.699,14.755,9.333,18.667
	c0,0-1.621,9.724-2.951,18.667H4.667C2.091,37.333,0,39.424,0,42v9.333c0,2.576,2.09,4.667,4.668,4.667c0,9.408,0,28,0,28
	c0,3.453,1.879,6.461,4.666,8.074v7.297c0,1.82,1.476,3.295,3.295,3.295h12.078c1.819,0,3.295-1.475,3.295-3.295v-6.039h37.332
	v6.039c0,1.82,1.476,3.295,3.295,3.295h12.078c1.82,0,3.295-1.475,3.295-3.295v-7.297c2.787-1.615,4.666-4.621,4.666-8.074
	c0,0,0-18.592,0-28c2.576,0,4.666-2.092,4.666-4.667V42C93.333,39.423,91.244,37.333,88.667,37.333z M72.333,79.332
	c-3.863,0-7-3.135-7-7c0-3.861,3.137-7,7-7c3.865,0,7,3.139,7,7C79.333,76.197,76.199,79.332,72.333,79.332z M35,4.667h23.334
	c1.289,0,2.334,1.045,2.334,2.333s-1.045,2.333-2.334,2.333H35c-1.287,0-2.332-1.045-2.332-2.333S33.712,4.667,35,4.667z
	 M16.796,26.853c0.615-3.883,4.713-8.26,29.871-8.26s29.026,3.78,29.871,8.27c0.844,4.489,2.403,19.819,2.403,19.819
	c0.214,2.562-1.709,4.652-4.274,4.652l-56,0.01c-2.567,0-4.489-2.09-4.275-4.648C14.392,46.694,16.18,30.734,16.796,26.853z
	 M21,79.332c-3.863,0-7-3.135-7-7c0-3.861,3.137-7,7-7c3.864,0,7,3.139,7,7C28,76.197,24.864,79.332,21,79.332z"/>
</svg>
