<?xml version="1.0" encoding="utf-8"?>
<!-- Generator: Adobe Illustrator 16.0.4, SVG Export Plug-In . SVG Version: 6.00 Build 0)  -->
<!DOCTYPE svg PUBLIC "-//W3C//DTD SVG 1.1//EN" "http://www.w3.org/Graphics/SVG/1.1/DTD/svg11.dtd">
<svg version="1.1" id="Layer_1" xmlns="http://www.w3.org/2000/svg" xmlns:xlink="http://www.w3.org/1999/xlink" x="0px" y="0px"
	 width="112px" height="112px" viewBox="0 0 112 112" enable-background="new 0 0 112 112" xml:space="preserve">
<path d="M93.334,50.416c-3.18,0-6.17,0.8-8.79,2.201l-8.655-14.756c1.654,0.563,3.562,0.889,5.592,0.889
	c5.908,0,6.018,0,6.018-7.005c0-6.995-0.159-6.995-6.018-6.995c-4.181,0-7.826,1.369-9.834,3.404
	c-2.662-0.978-10.653-3.881-11.821-3.903c-3.841-0.079-3.822,5.222-0.175,5.74c2.354,0.333,7.971,1.173,10.369,1.534
	C70.016,31.6,70,31.674,70,31.75c-18.812,0-28,14-28,14s0.257-2.641-4.303-2.646c-13.533,0-19.992-5.229-20.281,2.895
	c-12.917,0-16.464,7.816-14.061,10.447c0.541,0,1.062,0.013,1.582,0.021C1.881,59.791,0,64.213,0,69.084
	C0,79.393,8.357,87.75,18.667,87.75c9.201,0,16.83-6.663,18.367-15.424c2.166,0.839,4.816,1.424,7.905,1.424h14.023
	c4.267,0,10.179-1.493,11.91-9.133l4.157-21.709c0-0.606,0.147-1.842,0.154-3.279l8.068,13.758c-5.162,3.32-8.59,9.104-8.59,15.697
	c0,10.309,8.357,18.666,18.668,18.666S112,79.393,112,69.084C112,58.772,103.643,50.416,93.334,50.416z M29.665,65.229
	c0.346,0.982,0.562,2.022,0.63,3.104H20.247l5.549-6.796C27.785,62.876,28.979,64.223,29.665,65.229z M18.667,80.75
	C12.236,80.75,7,75.514,7,69.084c0-5.577,3.938-10.249,9.177-11.396c3.582,0.795,6.292,1.893,8.333,3.053l-6.425,7.867
	c-0.022,0.026-0.028,0.062-0.047,0.091c-0.026,0.044-0.054,0.086-0.071,0.135c-0.018,0.051-0.023,0.102-0.031,0.151
	c-0.004,0.033-0.02,0.062-0.02,0.099c0,0.014,0.007,0.022,0.007,0.036c0.002,0.054,0.019,0.104,0.031,0.154
	c0.012,0.043,0.021,0.086,0.038,0.127c0.02,0.041,0.05,0.076,0.078,0.115c0.029,0.041,0.058,0.082,0.096,0.116
	c0.01,0.011,0.014,0.021,0.023,0.029c0.037,0.027,0.078,0.043,0.117,0.062c0.029,0.019,0.055,0.037,0.088,0.049
	c0.086,0.035,0.178,0.058,0.27,0.058l0,0l0,0h11.629C29.904,75.914,24.844,80.75,18.667,80.75z M93.334,80.75
	c-6.432,0-11.668-5.236-11.668-11.666c0-4.013,2.038-7.56,5.133-9.659l5.889,10.039c0.143,0.237,0.393,0.37,0.647,0.37
	c0.129,0,0.261-0.033,0.379-0.104c0.356-0.209,0.478-0.67,0.267-1.025l-5.885-10.031c1.578-0.797,3.354-1.257,5.238-1.257
	c6.43,0,11.666,5.235,11.666,11.668C105,75.514,99.764,80.75,93.334,80.75z"/>
</svg>
