<?xml version="1.0" encoding="utf-8"?>
<!-- Generator: Adobe Illustrator 16.0.4, SVG Export Plug-In . SVG Version: 6.00 Build 0)  -->
<!DOCTYPE svg PUBLIC "-//W3C//DTD SVG 1.1//EN" "http://www.w3.org/Graphics/SVG/1.1/DTD/svg11.dtd">
<svg version="1.1" id="Layer_1" xmlns="http://www.w3.org/2000/svg" xmlns:xlink="http://www.w3.org/1999/xlink" x="0px" y="0px"
	 width="112px" height="112px" viewBox="0 0 112 112" enable-background="new 0 0 112 112" xml:space="preserve">
<path d="M88.891,47.795c-9.053-8.562-15.744-14.979-20.127-18.994c-3.104-2.842-5.156-3.135-6.227-3.135c-1.012,0-26.97,0-29.994,0
	c-3.02,0-4.682,0.563-6.227,3.135c-1.539,2.568-10.01,12.643-11.908,16.021C1.841,47.437,0,49.831,0,53.568
	C0,55.686,0,69.67,0,69.67C0,71.691,5.067,77,7,77h3.146c1.924,5.436,7.092,9.334,13.188,9.334c6.094,0,11.264-3.898,13.188-9.334
	h43.627c1.922,5.436,7.092,9.334,13.186,9.334c6.381,0,11.752-4.271,13.441-10.105c2.258-1.545,5.225-5.012,5.225-6.559
	c0,0,0-11.037,0-13.154C112,52.938,104.637,50.895,88.891,47.795z M23.021,44.916c1.806-2.506,6.07-8.021,7.074-9.418
	c1.303-1.811,2.143-2.412,4.443-2.412c0.962,0,5.811,0,11.128,0v15.912c-10.754,0-20.369,0-21.582,0
	C21.957,48.999,20.953,47.782,23.021,44.916z M23.333,79.333c-3.858,0-7-3.142-7-7s3.142-7,7-7s7,3.142,7,7
	S27.192,79.333,23.333,79.333z M47.667,48.999V33.086c6.824,0,13.718,0,13.718,0c1.797,0,3.725,0.816,5.004,1.955
	c1.787,1.592,8.939,8.334,11.74,11.037c2.516,2.416,1.357,2.92-0.494,2.92C77.635,48.999,62.043,48.999,47.667,48.999z
	 M93.334,79.333c-3.859,0-7-3.142-7-7s3.141-7,7-7s7,3.142,7,7S97.193,79.333,93.334,79.333z"/>
</svg>
