<?xml version="1.0" encoding="utf-8"?>
<!-- Generator: Adobe Illustrator 16.0.4, SVG Export Plug-In . SVG Version: 6.00 Build 0)  -->
<!DOCTYPE svg PUBLIC "-//W3C//DTD SVG 1.1//EN" "http://www.w3.org/Graphics/SVG/1.1/DTD/svg11.dtd">
<svg version="1.1" id="Layer_1" xmlns="http://www.w3.org/2000/svg" xmlns:xlink="http://www.w3.org/1999/xlink" x="0px" y="0px"
	 width="79.334px" height="112px" viewBox="0 0 79.334 112" enable-background="new 0 0 79.334 112" xml:space="preserve">
<path d="M79.334,50.167c0-1.979-1.567-3.5-3.5-3.5h-10.5V33.714c6.2-5.443,14-13.879,14-16.214c0-1.979-1.567-3.5-3.5-3.5h-10.5
	v-1.573c0-1.708-1.271-3.094-2.834-3.094h-2.254c-0.84,0-1.593-0.448-2.123-1.153C54.429,3.304,47.576,0,39.667,0
	S24.906,3.304,21.21,8.181c-0.531,0.705-1.283,1.153-2.124,1.153h-2.254c-1.563,0-2.833,1.386-2.833,3.094V14H3.5
	C1.567,14,0,15.521,0,17.5c0,2.334,7.799,10.771,13.999,16.214v12.953H3.5c-1.933,0-3.5,1.521-3.5,3.5
	c0,2.334,7.799,10.771,13.999,16.214v12.953H3.5c-1.933,0-3.5,1.52-3.5,3.5c0,2.334,7.799,10.771,13.999,16.213v9.863
	c0,1.703,1.27,3.09,2.833,3.09h45.664c1.567,0,2.838-1.388,2.838-3.094v-9.859c6.2-5.442,14-13.879,14-16.213
	c0-1.98-1.567-3.5-3.5-3.5h-10.5V66.381C71.534,60.938,79.334,52.502,79.334,50.167z M39.667,102.667
	C33.222,102.667,28,97.445,28,91c0-6.445,5.222-11.666,11.667-11.666c6.443,0,11.667,5.221,11.667,11.666
	C51.334,97.445,46.11,102.667,39.667,102.667z M39.667,70C33.222,70,28,64.777,28,58.334c0-6.445,5.222-11.667,11.667-11.667
	c6.443,0,11.667,5.222,11.667,11.667C51.334,64.777,46.11,70,39.667,70z M39.667,37.333C33.224,37.333,28,32.111,28,25.666
	C28,19.222,33.222,14,39.667,14c6.443,0,11.667,5.222,11.667,11.667C51.334,32.111,46.11,37.333,39.667,37.333z"/>
</svg>
