<?xml version="1.0" encoding="utf-8"?>
<!-- Generator: Adobe Illustrator 16.0.4, SVG Export Plug-In . SVG Version: 6.00 Build 0)  -->
<!DOCTYPE svg PUBLIC "-//W3C//DTD SVG 1.1//EN" "http://www.w3.org/Graphics/SVG/1.1/DTD/svg11.dtd">
<svg version="1.1" id="Layer_1" xmlns="http://www.w3.org/2000/svg" xmlns:xlink="http://www.w3.org/1999/xlink" x="0px" y="0px"
	 width="74.667px" height="108.084px" viewBox="0 0 74.667 108.084" enable-background="new 0 0 74.667 108.084"
	 xml:space="preserve">
<path d="M65.126,4.667H51.333c0-2.578-2.09-4.667-4.668-4.667S42,2.089,42,4.667h-9.334C32.666,2.089,30.578,0,28,0
	s-4.668,2.089-4.668,4.667H9.539C4.269,4.667,0,8.937,0,14.206v74.261c0,5.267,4.27,9.534,9.539,9.534h5.113l-5.943,8.917
	c-0.23,0.345-0.138,0.812,0.207,1.04c0.129,0.085,0.272,0.126,0.416,0.126c0.242,0,0.48-0.117,0.625-0.334l6.5-9.749h41.752
	l6.5,9.749c0.146,0.217,0.383,0.334,0.625,0.334c0.144,0,0.287-0.041,0.416-0.126c0.345-0.229,0.438-0.695,0.207-1.04l-5.944-8.917
	h5.12c5.266,0,9.535-4.271,9.535-9.539V14.205C74.666,8.937,70.394,4.667,65.126,4.667z M44.632,9.333
	c1.125,0,2.035,0.91,2.035,2.035v0.597c0,1.125-0.91,2.035-2.035,2.035H30.035C28.91,14,28,13.09,28,11.965v-0.597
	c0-1.125,0.91-2.035,2.035-2.035H44.632z M16.332,88.666c-3.863,0-7-3.135-7-7c0-3.862,3.137-7,7-7c3.864,0,7,3.138,7,7
	C23.332,85.531,20.196,88.666,16.332,88.666z M58.332,88.666c-3.862,0-7-3.135-7-7c0-3.862,3.138-7,7-7c3.863,0,7,3.138,7,7
	C65.332,85.531,62.195,88.666,58.332,88.666z M65.332,56.64c0,2.228-1.801,4.026-4.026,4.026H13.36
	c-2.226,0-4.026-1.801-4.026-4.026V32.027c0-2.226,1.801-4.027,4.026-4.027h47.945c2.228,0,4.026,1.801,4.026,4.027V56.64z"/>
</svg>
