<?xml version="1.0" encoding="utf-8"?>
<!-- Generator: Adobe Illustrator 16.0.0, SVG Export Plug-In . SVG Version: 6.00 Build 0)  -->
<!DOCTYPE svg PUBLIC "-//W3C//DTD SVG 1.1//EN" "http://www.w3.org/Graphics/SVG/1.1/DTD/svg11.dtd">
<svg version="1.1" id="Layer_1" xmlns="http://www.w3.org/2000/svg" xmlns:xlink="http://www.w3.org/1999/xlink" x="0px" y="0px"
	 width="50px" height="50px" viewBox="0 0 50 50" enable-background="new 0 0 50 50" xml:space="preserve">
<path d="M27.158,35.159l-7.349-1.443c0.106-0.816,0.184-1.604,0.227-2.359l5.038-3.383C25.943,30.395,26.627,32.854,27.158,35.159z
	 M21.124,19.808l-2.485,1.668c0.227,0.572,0.442,1.175,0.626,1.829l4.242,0.833c-0.679-1.456-1.437-2.854-2.289-4.141
	C21.204,19.972,21.168,19.901,21.124,19.808z M24.836,27.319c-0.305-0.818-0.635-1.628-0.987-2.426l-4.404-0.865
	c0.451,1.843,0.705,3.991,0.63,6.487L24.836,27.319z M12.158,15.858c-0.083,0.225-0.135,0.464-0.135,0.719
	c0,0.809,0.462,1.503,1.134,1.856c-0.071,0.24-0.121,0.489-0.121,0.75c0,1.479,1.199,2.68,2.679,2.68
	c1.073,0,1.991-0.635,2.418-1.544c0.082,0.17,0.166,0.339,0.245,0.52l2.464-1.657c-0.054-0.121-0.098-0.219-0.115-0.253
	c-0.158-0.323-0.289-0.647-0.402-0.972c0.307,0.175,0.657,0.284,1.036,0.284c1.16,0,2.1-0.941,2.1-2.1c0-1.158-0.94-2.1-2.1-2.1
	c-0.584,0-1.112,0.24-1.493,0.625c0.227-3.068,2.264-5.823,5.435-7.37c2.932-1.428,6.241-1.167,8.841,0.397
	c-2.582-3.604-7.457-4.938-11.58-2.926c-2.413,1.176-4.078,3.264-4.799,5.647c-0.01-1.783,0.478-3.339,1.85-4.787
	c0.216-0.225,0.444-0.445,0.686-0.652c2.473-2.127,5.744-2.713,8.656-1.858c-3.415-2.833-8.469-2.884-11.946,0.107
	c-2,1.716-3.079,4.103-3.207,6.541c-1.642-2.459-4.688-3.769-7.731-3.041c-3.498,0.835-5.789,4.071-5.557,7.542
	c0.796-2.243,2.671-4.052,5.16-4.646c3.017-0.72,6.035,0.558,7.686,2.975c-2.344-0.919-5.049-0.895-7.484,0.309
	c-4.112,2.031-6.041,6.7-4.769,10.95c0.354-3.013,2.172-5.793,5.096-7.236C8.126,15.674,10.211,15.459,12.158,15.858z
	 M30.644,41.127l3.408-0.67c-0.05-0.379-0.086-0.744-0.106-1.094l-2.337-1.569C31.206,38.917,30.891,40.058,30.644,41.127z
	 M34.597,34.777l-1.154-0.774c-0.021,0.043-0.036,0.075-0.044,0.087c-0.395,0.599-0.749,1.246-1.063,1.922l1.967-0.388
	C34.39,35.323,34.488,35.044,34.597,34.777z M32.177,36.365c-0.163,0.369-0.314,0.747-0.457,1.127l2.208,1.481
	c-0.035-1.158,0.081-2.153,0.293-3.011L32.177,36.365z M29.808,26.263c1.351-0.396,2.87-0.124,4.017,0.861
	c0.112,0.098,0.219,0.198,0.318,0.305C34.778,28.1,35.005,28.82,35,29.647c-0.335-1.104-1.107-2.074-2.227-2.62
	c-1.911-0.934-4.174-0.313-5.375,1.358c1.208-0.726,2.744-0.846,4.104-0.184c1.472,0.717,2.418,1.996,2.521,3.419
	c-0.175-0.179-0.422-0.291-0.693-0.291c-0.538,0-0.975,0.437-0.975,0.975s0.437,0.975,0.975,0.975c0.175,0,0.337-0.05,0.479-0.13
	c-0.052,0.15-0.112,0.301-0.186,0.451c-0.006,0.016-0.026,0.062-0.054,0.118l1.145,0.767c0.036-0.081,0.075-0.161,0.113-0.24
	c0.197,0.421,0.624,0.715,1.123,0.715c0.687,0,1.241-0.554,1.241-1.241c0-0.12-0.022-0.238-0.055-0.349
	c0.313-0.164,0.527-0.484,0.527-0.86c0-0.119-0.024-0.229-0.063-0.334c0.903-0.185,1.871-0.085,2.763,0.354
	c1.355,0.67,2.199,1.96,2.364,3.355c0.591-1.971-0.306-4.136-2.213-5.079c-1.131-0.559-2.386-0.57-3.473-0.143
	c0.765-1.122,2.168-1.714,3.565-1.383c1.154,0.276,2.025,1.118,2.393,2.156c0.107-1.61-0.954-3.111-2.58-3.499
	c-1.412-0.337-2.823,0.269-3.586,1.411c-0.059-1.134-0.559-2.24-1.486-3.035C33.738,24.924,31.394,24.946,29.808,26.263z
	 M35.147,44.805c-0.532-1.491-0.875-2.838-1.055-4.036l-3.524,0.694c-0.08,0.359-0.151,0.703-0.216,1.038l3.358,2.256
	c-0.192-0.006-0.39-0.01-0.584-0.016l-2.837-1.907c-0.127,0.7-0.221,1.323-0.292,1.85c-0.403-0.006-0.813-0.006-1.22-0.008
	c-0.149-1.342-0.414-3.398-0.859-5.834l-8.944,6.007c-0.443,0.02-0.874,0.041-1.302,0.063l10.11-6.788
	c-0.138-0.722-0.29-1.471-0.46-2.242l-7.601-1.493c-0.462,3.082-1.405,6.598-2.973,10.573c-6.554,0.375-10.978,1.076-10.978,1.88
	c0,1.199,9.79,2.172,21.865,2.172c12.076,0,21.864-0.973,21.864-2.172C49.5,45.904,43.516,45.107,35.147,44.805z"/>
</svg>
