<?xml version="1.0" encoding="utf-8"?>
<!-- Generator: Adobe Illustrator 15.0.0, SVG Export Plug-In . SVG Version: 6.00 Build 0)  -->
<!DOCTYPE svg PUBLIC "-//W3C//DTD SVG 1.1//EN" "http://www.w3.org/Graphics/SVG/1.1/DTD/svg11.dtd">
<svg version="1.1" id="Шар_1" xmlns="http://www.w3.org/2000/svg" xmlns:xlink="http://www.w3.org/1999/xlink" x="0px" y="0px"
	 width="100px" height="72.759px" viewBox="0 0 100 72.759" enable-background="new 0 0 100 72.759" xml:space="preserve">
<g>
	<path d="M99.24,24.012l-2.808-2.808c-0.484-0.481-1.147-0.76-1.831-0.76H54.318v-1.747l2.031,0.008c0.687,0,1.342-0.271,1.831-0.76
		c0.484-0.495,0.758-1.145,0.758-1.832V2.589c0-0.687-0.273-1.344-0.758-1.829C57.691,0.271,57.036,0,56.35,0H43.815
		c-0.684,0-1.349,0.282-1.83,0.76c-0.485,0.477-0.756,1.147-0.756,1.829v2.023L40.851,4.62c-0.686,0-1.359,0.271-1.838,0.761
		c-0.478,0.481-0.752,1.142-0.752,1.829v1.694h-9.287c-0.678,0-1.351,0.281-1.83,0.76c-0.481,0.479-0.759,1.15-0.759,1.832v1.7
		h-5.651c-0.688,0-1.353,0.271-1.836,0.76c-0.482,0.481-0.754,1.142-0.754,1.831v1.695h-5.657c-0.689,0-1.352,0.281-1.838,0.76
		c-0.481,0.476-0.752,1.147-0.752,1.829v1.366H2.589c-0.684,0-1.348,0.279-1.83,0.757C0.273,22.675,0,23.349,0,24.027V61.6
		c0,1.086,0.673,2.047,1.694,2.428l8.558,3.16c0.321,0.555,0.846,0.981,1.492,1.176l10.781,3.223
		c0.096,0.15,0.207,0.292,0.334,0.418c0.479,0.481,1.142,0.752,1.831,0.752h27.288l0.863-0.142l8.326-2.944
		c0.54-0.192,0.992-0.553,1.308-1.031l3.081-4.733c0.311,0.124,0.64,0.189,0.968,0.189c0.663,0,1.324-0.258,1.829-0.763l3.133-3.128
		c0.487-0.498,0.761-1.142,0.761-1.836v-5.978c0.105,0.013,0.205,0.061,0.31,0.061c0.666,0,1.329-0.25,1.837-0.758l3.378-3.386
		c0.484-0.487,0.755-1.129,0.755-1.829v-6.588h15.826c0.689,0,1.342-0.271,1.832-0.758l3.055-3.055
		c0.487-0.484,0.76-1.134,0.76-1.826V25.84C100,25.154,99.727,24.499,99.24,24.012z M94.812,33.179l-1.526,1.537H54.697
		c-1.431,0-2.592,1.155-2.592,2.586c0,1.431,1.161,2.589,2.592,2.589h18.657V45.4l-1.818,1.818c-0.021-0.024-0.026-0.055-0.05-0.076
		c-0.487-0.49-1.142-0.761-1.829-0.761H57.286c-1.429,0-2.591,1.161-2.591,2.589s1.163,2.597,2.591,2.597h9.777v5.723l-1.129,1.131
		c-0.397-0.242-0.86-0.379-1.344-0.379H50.083c-1.431,0-2.59,1.161-2.59,2.589c0,1.431,1.159,2.592,2.59,2.592h9.734l-1.205,1.85
		l-7.081,2.513H26.385c-0.271-0.234-0.593-0.421-0.952-0.529l-10.789-3.229c-0.296-0.453-0.731-0.811-1.263-1.005l-8.201-3.028
		V26.617h7.307c0.688,0,1.341-0.271,1.83-0.761c0.488-0.487,0.752-1.137,0.752-1.829v-1.371h5.665c0.689,0,1.342-0.271,1.83-0.755
		c0.489-0.489,0.753-1.142,0.753-1.831v-1.694h5.657c0.689,0,1.342-0.271,1.83-0.771c0.49-0.484,0.761-1.134,0.761-1.818v-1.705
		h9.287c0.688,0,1.334-0.271,1.83-0.758c0.488-0.49,0.753-1.134,0.753-1.829V9.801h0.381c0.689,0,1.346-0.271,1.834-0.771
		c0.485-0.487,0.756-1.134,0.756-1.821V5.181h7.355v8.343h-2.029c-0.689,0-1.353,0.271-1.834,0.758
		c-0.485,0.481-0.756,1.145-0.756,1.831v4.331H38.871c-0.689,0-1.353,0.279-1.83,0.76c-0.489,0.49-0.76,1.153-0.76,1.832
		c0,0.694,0.264,1.342,0.76,1.829c0.484,0.489,1.134,0.76,1.83,0.76h12.861h41.793l1.287,1.284V33.179z"/>
</g>
</svg>
