<?xml version="1.0" encoding="utf-8"?>
<!-- Generator: Adobe Illustrator 15.0.0, SVG Export Plug-In . SVG Version: 6.00 Build 0)  -->
<!DOCTYPE svg PUBLIC "-//W3C//DTD SVG 1.1//EN" "http://www.w3.org/Graphics/SVG/1.1/DTD/svg11.dtd">
<svg version="1.1" id="Шар_1" xmlns="http://www.w3.org/2000/svg" xmlns:xlink="http://www.w3.org/1999/xlink" x="0px" y="0px"
	 width="200px" height="166.204px" viewBox="0 0 200 166.204" enable-background="new 0 0 200 166.204" xml:space="preserve">
<path d="M197.527,91.222c0.201-0.302,0.403-0.604,0.584-0.927c0.192-0.342,0.358-0.685,0.524-1.038
	c0.091-0.192,0.201-0.373,0.282-0.564c0.04-0.111,0.061-0.222,0.105-0.322c0.146-0.373,0.263-0.756,0.378-1.139
	c0.091-0.312,0.187-0.625,0.257-0.937c0.086-0.373,0.137-0.756,0.197-1.139c0.04-0.322,0.09-0.645,0.12-0.967
	c0.03-0.393,0.025-0.786,0.021-1.174c0-0.313,0.005-0.625-0.021-0.938c-0.024-0.403-0.085-0.801-0.146-1.204
	c-0.046-0.302-0.086-0.6-0.156-0.902c-0.081-0.393-0.201-0.781-0.322-1.169c-0.091-0.302-0.182-0.6-0.293-0.892
	c-0.05-0.136-0.08-0.277-0.131-0.408c-0.101-0.242-0.241-0.458-0.353-0.69c-0.141-0.297-0.282-0.584-0.443-0.872
	c-0.191-0.348-0.413-0.685-0.635-1.013c-0.182-0.262-0.353-0.524-0.549-0.771c-0.257-0.333-0.539-0.645-0.821-0.952
	c-0.131-0.146-0.242-0.302-0.383-0.443L127.271,4.289c-5.719-5.718-14.975-5.718-20.684,0c-5.708,5.704-5.708,14.975,0,20.678
	l43.518,43.507H14.637c-5.054,0-9.508,2.554-12.133,6.449C0.927,77.255,0,80.072,0,83.105c0,4.036,1.643,7.694,4.288,10.334
	c2.646,2.65,6.303,4.293,10.349,4.293v-0.01h135.459l-43.513,43.512c-5.703,5.704-5.713,14.965,0,20.678
	c2.857,2.862,6.605,4.293,10.35,4.293c3.743,0,7.487-1.421,10.339-4.272l68.478-68.493c0.146-0.151,0.257-0.313,0.397-0.463
	c0.272-0.292,0.539-0.595,0.786-0.917C197.145,91.787,197.336,91.504,197.527,91.222z"/>
</svg>
