<?xml version="1.0" encoding="utf-8"?>
<!-- Generator: Adobe Illustrator 15.0.0, SVG Export Plug-In . SVG Version: 6.00 Build 0)  -->
<!DOCTYPE svg PUBLIC "-//W3C//DTD SVG 1.1//EN" "http://www.w3.org/Graphics/SVG/1.1/DTD/svg11.dtd">
<svg version="1.1" id="Шар_1" xmlns="http://www.w3.org/2000/svg" xmlns:xlink="http://www.w3.org/1999/xlink" x="0px" y="0px"
	 width="200px" height="102.109px" viewBox="0 0 200 102.109" enable-background="new 0 0 200 102.109" xml:space="preserve">
<path d="M3.098,54.157h186.326l-42.666,42.669c-1.213,1.206-1.213,3.174,0,4.38c1.206,1.205,3.175,1.205,4.381,0L199.1,53.249
	c0.021-0.027,0.045-0.061,0.076-0.092c0.061-0.065,0.121-0.133,0.176-0.206c0.037-0.053,0.084-0.107,0.113-0.16
	c0.047-0.072,0.092-0.141,0.139-0.217c0.037-0.061,0.068-0.126,0.098-0.191c0.023-0.046,0.047-0.088,0.07-0.141
	c0.006-0.023,0.014-0.054,0.021-0.08c0.031-0.065,0.047-0.138,0.068-0.206c0.023-0.077,0.047-0.153,0.07-0.229
	c0.014-0.069,0.021-0.141,0.029-0.214c0.016-0.076,0.023-0.152,0.031-0.232C200,51.208,200,51.135,200,51.059
	c0-0.076,0-0.148-0.008-0.225c-0.008-0.076-0.016-0.156-0.031-0.232c-0.008-0.069-0.016-0.141-0.029-0.21
	c-0.023-0.08-0.047-0.156-0.07-0.24c-0.021-0.065-0.037-0.13-0.061-0.191c-0.016-0.031-0.023-0.061-0.029-0.088
	c-0.023-0.049-0.047-0.099-0.078-0.149c-0.029-0.061-0.053-0.122-0.09-0.179c-0.047-0.076-0.084-0.149-0.139-0.217
	c-0.029-0.054-0.076-0.111-0.113-0.164c-0.055-0.069-0.107-0.134-0.168-0.195c-0.031-0.034-0.055-0.068-0.084-0.103L151.139,0.908
	C150.536,0.305,149.743,0,148.949,0s-1.587,0.305-2.19,0.908c-1.213,1.209-1.213,3.174,0,4.38v0.004l42.666,42.668H3.098
	C1.381,47.96,0,49.346,0,51.059C0,52.768,1.381,54.157,3.098,54.157z"/>
</svg>
