<?xml version="1.0" encoding="utf-8"?>
<!-- Generator: Adobe Illustrator 15.0.0, SVG Export Plug-In . SVG Version: 6.00 Build 0)  -->
<!DOCTYPE svg PUBLIC "-//W3C//DTD SVG 1.1//EN" "http://www.w3.org/Graphics/SVG/1.1/DTD/svg11.dtd">
<svg version="1.1" id="Шар_1" xmlns="http://www.w3.org/2000/svg" xmlns:xlink="http://www.w3.org/1999/xlink" x="0px" y="0px"
	 width="200px" height="87.664px" viewBox="0 0 200 87.664" enable-background="new 0 0 200 87.664" xml:space="preserve">
<path d="M5.755,49.586h146.189c-11.521,5.919-24.523,14.833-37.925,28.254c-2.249,2.249-2.249,5.888,0,8.137s5.888,2.249,8.137,0
	c32.998-32.937,62.142-36.075,69.798-36.381c0.45,0.01,0.869,0.021,1.207,0.021c0.838,0,1.339-0.031,1.451-0.041
	c0.041,0,0.082-0.01,0.123-0.01c0.081-0.01,0.153-0.021,0.234-0.031c0.113-0.01,0.226-0.02,0.327-0.041
	c0.082-0.021,0.153-0.041,0.226-0.051c0.112-0.031,0.225-0.051,0.327-0.082c0.071-0.021,0.133-0.041,0.204-0.072
	c0.103-0.031,0.215-0.072,0.327-0.112c0.062-0.021,0.112-0.051,0.174-0.072c0.112-0.051,0.225-0.102,0.337-0.164
	c0.041-0.021,0.093-0.051,0.144-0.082c0.103-0.062,0.225-0.123,0.327-0.194c0.041-0.021,0.082-0.062,0.133-0.082
	c0.103-0.074,0.204-0.15,0.307-0.227c0.041-0.036,0.082-0.072,0.123-0.107c0.102-0.077,0.193-0.159,0.286-0.25
	c0.041-0.036,0.081-0.077,0.122-0.118c0.082-0.087,0.164-0.174,0.245-0.266c0.041-0.051,0.082-0.097,0.123-0.148
	c0.071-0.087,0.144-0.179,0.215-0.271c0.041-0.056,0.082-0.117,0.112-0.179c0.062-0.087,0.123-0.179,0.174-0.271
	c0.041-0.066,0.082-0.133,0.112-0.204c0.051-0.087,0.103-0.184,0.144-0.276c0.03-0.071,0.062-0.148,0.092-0.225
	c0.041-0.092,0.082-0.184,0.112-0.281c0.03-0.082,0.051-0.158,0.082-0.235c0.03-0.097,0.062-0.2,0.082-0.297
	c0.02-0.082,0.04-0.164,0.051-0.245c0.021-0.102,0.041-0.205,0.062-0.307c0.01-0.082,0.021-0.169,0.021-0.25
	c0.021-0.107,0.021-0.209,0.03-0.317c0-0.031,0.01-0.066,0.01-0.097c0-0.061-0.01-0.118-0.01-0.174c0-0.066,0.01-0.127,0.01-0.189
	c0-0.036-0.01-0.072-0.01-0.107c-0.01-0.097-0.021-0.199-0.03-0.296c0-0.092-0.011-0.179-0.031-0.271
	c-0.01-0.097-0.03-0.189-0.051-0.286c-0.011-0.087-0.031-0.179-0.062-0.271c-0.021-0.082-0.041-0.168-0.071-0.255
	c-0.031-0.097-0.052-0.189-0.092-0.281c-0.021-0.077-0.052-0.148-0.082-0.225c-0.041-0.097-0.082-0.194-0.123-0.287
	c-0.03-0.066-0.071-0.133-0.102-0.194c-0.052-0.103-0.103-0.2-0.164-0.292c-0.03-0.062-0.071-0.118-0.103-0.174
	c-0.071-0.097-0.133-0.189-0.204-0.286c-0.03-0.051-0.071-0.097-0.112-0.148c-0.071-0.092-0.144-0.184-0.225-0.271
	c-0.041-0.046-0.082-0.092-0.123-0.138c-0.092-0.082-0.174-0.169-0.256-0.25c-0.051-0.041-0.092-0.082-0.143-0.123
	c-0.092-0.077-0.174-0.153-0.276-0.225c-0.041-0.041-0.103-0.077-0.143-0.112c-0.103-0.072-0.194-0.138-0.297-0.199
	c-0.062-0.036-0.112-0.066-0.163-0.097c-0.103-0.062-0.205-0.118-0.317-0.169c-0.051-0.031-0.112-0.056-0.174-0.082
	c-0.103-0.051-0.215-0.097-0.327-0.143c-0.062-0.026-0.122-0.046-0.184-0.066c-0.112-0.036-0.226-0.077-0.338-0.107
	c-0.071-0.016-0.133-0.036-0.194-0.051c-0.122-0.025-0.234-0.051-0.357-0.071c-0.071-0.016-0.144-0.026-0.204-0.036
	c-0.123-0.015-0.235-0.025-0.358-0.036c-0.03-0.005-0.061-0.01-0.092-0.01c-0.103-0.01-0.593-0.036-1.431-0.036
	c-0.062,0-0.133,0-0.205,0c-0.307,0-0.644,0.005-1.022,0.015c-7.687-0.301-36.811-3.47-69.777-36.381
	C121.033,0.562,119.56,0,118.088,0s-2.944,0.562-4.068,1.687c-2.249,2.249-2.249,5.894,0,8.137
	c13.401,13.422,26.404,22.336,37.925,28.25H5.755C2.576,38.073,0,40.654,0,43.833S2.576,49.586,5.755,49.586z"/>
</svg>
