<?xml version="1.0" encoding="utf-8"?>
<!-- Generator: Adobe Illustrator 21.0.0, SVG Export Plug-In . SVG Version: 6.00 Build 0)  -->
<svg version="1.1" id="Layer_2" xmlns="http://www.w3.org/2000/svg" xmlns:xlink="http://www.w3.org/1999/xlink" x="0px" y="0px"
	 width="590px" height="530px" viewBox="0 0 590 530" enable-background="new 0 0 590 530" xml:space="preserve">
<g>
	<path id="la_x7C_Bottom_Color_x7C_short-bg" fill="#FFFFFF" stroke="#000000" stroke-width="0.5" stroke-miterlimit="10" d="
		M369.8,329.5c5.1,1.4,7,12.4,6.3,16.5c-0.7,4.1,9.8,34.8,9.8,56.7c0,22-0.7,99.4-0.7,106.9c0,4.1-33.1,9.6-40.8,10.3
		c-7.7,0.7-35.3-2.4-38.8-3.8c-2.1-4.8-7.7-33-7.7-38.5c0,0-4.2,34.3-5.6,38.5c-4.9,3.4-37.9,4.1-44.9,2.7c-7-1.4-31.6-8.2-35.8-13
		c-1.4-8.2,0.4-101.7,1.1-112.7c1.4-22.5,9.5-40.9,12.6-52.2c0-6.2,1.4-8.9,7.7-11c6.3-2.1,20.2-1.4,27.2-1.4c7,0,35.6-2.1,44.7-2.1
		C314,326.5,362.1,327.4,369.8,329.5z"/>
	<g id="la_x7C_Bottom_Line_x7C_short-line">
		<path fill="#CF3232" d="M294.3,504.7c-0.8,5.5-1.6,10.1-2,11.4c-4.9,3.4-37.9,4.1-44.9,2.7c-7-1.4-31.6-8.2-35.8-13
			c-0.3-1.6-0.4-6.7-0.5-13.8C236.4,510.2,274.1,513,294.3,504.7z"/>
		<path fill="#CF3232" d="M302.7,505.4L302.7,505.4c49.5,15.7,82.6-8.3,82.6-8.3c0,6.4-0.1,10.9-0.1,12.4c0,4.1-33.1,9.6-40.8,10.3
			c-7.7,0.7-35.3-2.4-38.8-3.8C304.9,514.5,303.8,510.4,302.7,505.4z"/>
	</g>
	<g>
		<path opacity="0.2" fill="#01001A" d="M368.6,454.3c0,0-11.3,55.7-58.9,30.7c0,0,18.5,16.7,40.7,6.7
			C362.5,486.2,366.1,476.1,368.6,454.3z"/>
		<path opacity="0.2" fill="#01001A" d="M298.5,470.4c0,0-16.4,18-53.6,4.1c0,0,41.9,4.2,49.2-13.8c0,0-12.4,9.7-35.8,0
			c0,0,27.7-2.2,37.4-12.2c0,0-29.7,13-56.7-11c0,0,51.5,18,62.6-0.9c0,0,29.5,20.5,67-8.1c0,0-17.3,33.7-64.8,19.7
			c0,0,15.1,11.9,41,10.4c-19.8,11-36.9,6.2-38.2,3.6c5.4,10.8,32.8,13,32.8,13S321.8,484.8,298.5,470.4z"/>
		<path opacity="0.2" fill="#01001A" d="M212.1,411.8c-0.4,15.2-0.8,36.7-0.9,55.3c24.2,31.9,65.3,27.6,65.3,27.6
			C215.7,494.7,212.1,411.9,212.1,411.8z"/>
		<path opacity="0.2" fill="#01001A" d="M245.5,337.3c-1.6-1-4.5,0-4.5,0l-6.8-1.4l-7.1-1c0,0-0.3-0.1-0.7-0.3
			c0.7-1.3,1.7-2.3,3.3-3.2c0.4,0.2,0.6,0.3,0.6,0.3c0-0.2,0-0.5,0.1-0.7c0.5-0.2,1-0.5,1.5-0.7c0.5,3.3,4,2.9,4,2.9
			c-0.4-1.4-0.7-2.7-0.8-3.8c0.3-0.1,0.6-0.1,0.9-0.2c0.5,4.1,3.5,4.8,3.5,4.8c-0.3-2.4,1.8-2.9,1.8-2.9c-0.3,2.9,3.1,2.6,3.1,2.6
			c-0.3-1.8,2.1-2.6,2.1-2.6c0.5,2.9,5.8,2.9,5.8,2.9c-0.3-2.1,2.1-2.6,2.1-2.6c0.3,3.7,6.5,2.4,6.5,2.4c-0.7-1.9-1-3.7-1-5.2
			c0.1,0,0.2,0,0.3,0c0.2,0,0.5,0,0.8,0c0.4,7.1,6.3,6.8,6.3,6.8c-1.3-4.5,0-6,0-6c0.5,8.4,7.9,5.8,10,5.5c6.2-0.8,7.9-2.1,7.9-2.1
			c2.6,4.5,11.3,2.1,11.3,2.1c-0.6-3.2-0.7-5.9-0.4-8c0.6,0,1.1-0.1,1.6-0.1c0.1,4.4,2.7,7.8,2.7,7.8c2.9,3.1,11,0,11,0
			c-0.3-3.9,2.1-6.6,2.1-6.6c-1.3,12.4,9.7,6,9.7,6c5.8,3.9,10.5,1.6,10.5,1.6c-3-4.7-2.3-7.6-2-8.6c0,0,0,0,0,0
			c-1.5,5.1,9.6,8.6,9.6,8.6c3.9,4.8,5.6-2.2,6-4.1c-1.2,7,5.6,4.3,5.6,4.3c0.3,2.8,4.4,0,4.4,0c-1.1-1.8-0.9-5.2-0.5-7.7
			c0.2,0,0.4,0,0.6,0c0.6,9.7,6.8,7.5,6.8,7.5c-1-2.4,1.3-5.2,1.3-5.2c-0.3,7.6,4.4,3.7,4.4,3.7c-0.5-1.9-0.7-3.5-0.7-4.8
			c0.3,0.1,0.5,0.1,0.7,0.2c0,0,0,0,0.1,0c0.4,6,3.2,6.4,4.9,6c0.3,0.7,0.5,1.5,0.7,2.3c-0.6,0.3-1.2,0.5-1.8,0.8
			c-5.2,2.1-12.3,0.3-16.5,1.3c-4.2,1-10.2-0.2-15.7,0c-5.5,0.2-7.9-1.5-13.1-1.3c-5.2,0.3-10.5,0.3-15.2,1c-4.7,0.8-7.3-0.8-13-1.8
			c-5.6-1-11.4,1.8-15.4,1.8c-3.9,0-5.5-0.8-8.1-1.9s-4.2-0.2-8.4-0.4C263.9,337.1,247.1,338.3,245.5,337.3z"/>
	</g>
</g>
<g>
	<linearGradient id="la_x7C_Top_Color_x7C_shirt-bg_1_" gradientUnits="userSpaceOnUse" x1="295" y1="320.3663" x2="295" y2="10">
		<stop  offset="0.2" style="stop-color:#FFFFFF"/>
		<stop  offset="1" style="stop-color:#45A0FF"/>
	</linearGradient>
	
		<path id="la_x7C_Top_Color_x7C_shirt-bg" fill="url(#la_x7C_Top_Color_x7C_shirt-bg_1_)" stroke="#000000" stroke-width="0.5" stroke-miterlimit="10" d="
		M295,10c11.7,0,21.7,3,23.9,5.8c2.2,2.8,5.7,7.8,5.7,7.8s57.4,19.4,68.2,26.2c4.5,2.8,7.3,5.6,8.4,9.5c1.1,3.9,41.4,79.3,41.4,79.3
		s-1.1,10.1-26.3,21.8c-15.6,7.3-25.7,4.5-25.7,4.5l-14.6-28.3c0,0-1.3,20-3.6,23.3c-2.2,3.3-0.4,29.1-0.6,36.3
		c-0.7,22.8,0.9,32.4,0,72.7c-0.3,15.4,14.7,39.3,1.3,42.7c-6.2,1.6-41.5,8.7-78.2,8.7c-19.6,0-69.3-2.2-71.7-8.1
		c-1.5-3.6,4.9-18.3,4.6-33.7c-0.9-40.1-3.8-46.5-4.6-70.3c-0.2-7.3-3.5-42.6-5.7-45.9c-2.2-3.4-3.7-25.9-3.7-25.9l-14.6,28.3
		c0,0-10.1,2.8-25.7-4.5c-25.1-11.7-26.3-21.8-26.3-21.8s40.3-75.4,41.4-79.3c1.1-3.9,3.9-6.7,8.4-9.5c10.8-6.8,68.2-26.2,68.2-26.2
		s3.4-5,5.7-7.8C273.3,13,283.3,10,295,10z"/>
	<path id="la_x7C_Top_Line_x7C_shirt-line" fill="#CF3232" d="M401.2,59.3c-1.1-3.9-3.9-6.7-8.4-9.5c-10.8-6.8-68.2-26.2-68.2-26.2
		s-3.4-5-5.7-7.8C316.7,13,306.7,10,295,10c-11.7,0-21.7,3-23.9,5.8c-2.2,2.8-5.7,7.8-5.7,7.8S208,43.1,197.2,49.8
		c-4.5,2.8-7.3,5.6-8.4,9.5c-0.6,2-11.9,23.7-22.6,43.9c11.9,5.3,19.6-39.5,33.1-49.8c13.4-10.3,55.4-27.3,94.8-26.9
		s96.1,18,105.7,38.6s20.8,56.6,31.5,52.3l0,0C419.3,94.7,401.9,61.9,401.2,59.3z"/>
	<path id="la_x7C_Collar_x7C_collar" fill="#CF3232" d="M324.6,23.6c0,0-3.4-5-5.7-7.8C316.7,13,306.7,10,295,10
		c-11.7,0-21.7,3-23.9,5.8c-2.2,2.8-5.7,7.8-5.7,7.8C265.4,23.6,302.3,15.9,324.6,23.6z"/>
	<g>
		<path opacity="0.2" fill-rule="evenodd" clip-rule="evenodd" fill="#01001A" d="M376.1,136.6l14.6,28.3c0,0,10.1,2.8,25.7-4.5
			c25.1-11.7,26.3-21.8,26.3-21.8s-0.4-0.7-1.1-2c-16.2,12.3-34.2,22.5-45.4,18.8c-24.9-8.3-10.2-57.4-31.2-10.2
			S349.5,230,274.3,246s29.4,16.6,54.3-3.2c24.8-19.8,42-5.1,34.4,20.4c-5.8,19.5,0.2,33,10.5,17c-1-4-1.7-7.8-1.6-11.3
			c0.9-40.3-0.7-49.9,0-72.7c0.2-7.3-1.6-33,0.6-36.3C374.8,156.5,376.1,136.6,376.1,136.6z"/>
		<path opacity="0.2" fill-rule="evenodd" clip-rule="evenodd" fill="#01001A" d="M373.2,311.7c4.1-1,5.5-4,5.6-8
			c-12,1.5-28.3,3-50.2,4.4c-123,7.9-88.7-64-95-82.2c-6.4-18.2-4.5-21.6-4.5-21.6c17.2,23.3,65,29,30,11
			c-35.1-17.9-26.8-49.7-29.3-66.5s-13.4-25.2-13.4-25.2s-3.2,8.9-23,25.2c-12.9,10.6-31.1-4.8-42.3-16.9c-2.2,4.2-3.6,6.8-3.6,6.8
			s1.1,10.1,26.3,21.8c15.6,7.3,25.7,4.5,25.7,4.5l14.6-28.3c0,0,1.4,22.5,3.7,25.9c2.2,3.3,5.5,38.6,5.7,45.9
			c0.8,23.7,3.7,30.1,4.6,70.3c0.3,15.4-6.1,30.1-4.6,33.7c2.4,5.9,52.1,8.1,71.7,8.1C331.7,320.4,367,313.2,373.2,311.7z"/>
	</g>
</g>
</svg>
