<?xml version="1.0" encoding="utf-8"?>
<!-- Generator: Adobe Illustrator 21.0.0, SVG Export Plug-In . SVG Version: 6.00 Build 0)  -->
<svg version="1.1" id="Layer_1" xmlns="http://www.w3.org/2000/svg" xmlns:xlink="http://www.w3.org/1999/xlink" x="0px" y="0px"
	 width="590px" height="530px" viewBox="0 0 590 530" enable-background="new 0 0 590 530" xml:space="preserve">
<g>
	<path id="la_x7C_Bottom_Color_x7C_short-bg" fill="#FFFFFF" stroke="#000000" stroke-width="0.5" stroke-miterlimit="10" d="
		M224.6,328.8c-5.1,1.4-7,12.4-6.3,16.5s-9.9,34.9-9.9,56.9c0,22.1,0.7,99.7,0.7,107.3c0,4.1,33.2,9.6,40.9,10.3
		c7.7,0.7,35.5-2.4,39-3.8c2.1-4.8,7.7-33.1,7.7-38.6c0,0,4.2,34.5,5.6,38.6c4.9,3.5,38.1,4.1,45.1,2.7c7-1.4,31.8-8.2,36-13.1
		c1.4-8.3-0.4-102.1-1.1-113.1c-1.4-22.6-9.6-41.1-12.7-52.3c0-6.2-1.4-9-7.7-11c-6.3-2.1-20.3-1.4-27.3-1.4s-35.7-2.1-44.8-2.1
		C280.7,325.9,232.3,326.7,224.6,328.8z"/>
	<g id="la_x7C_Bottom_Line_x7C_short-line">
		<path fill="#CF3232" d="M300.5,505.3c0,0,0.5,6.6,1.9,10.8c4.9,3.5,38.1,4.1,45.1,2.7c7-1.4,31.8-8.2,36-13.1
			c0.2-1.6,0.4-6.4,0.4-6.4C375,508.9,310.3,514.6,300.5,505.3z"/>
		<path fill="#CF3232" d="M291.9,505.4L291.9,505.4c-49.7,15.8-82.9-8.3-82.9-8.3c0,6.4,0.1,10.9,0.1,12.5c0,4.1,33.2,9.6,40.9,10.3
			c7.7,0.7,35.5-2.4,39-3.8C289.8,514.5,290.8,510.4,291.9,505.4z"/>
	</g>
	<g>
		<path opacity="0.2" fill="#01001A" enable-background="new    " d="M349.4,336.6c1.6-1,4.5,0,4.5,0l6.8-1.4l7.1-1.1
			c0,0,0.3-0.1,0.7-0.3c-0.7-1.3-1.7-2.3-3.3-3.2c-0.4,0.2-0.6,0.3-0.6,0.3c0-0.2,0-0.5-0.1-0.7c-0.5-0.2-1-0.5-1.5-0.7
			c-0.5,3.3-4,2.9-4,2.9c0.4-1.4,0.7-2.7,0.8-3.8c-0.3-0.1-0.6-0.1-0.9-0.2c-0.5,4.1-3.5,4.8-3.5,4.8c0.3-2.4-1.8-2.9-1.8-2.9
			c0.3,2.9-3.2,2.6-3.2,2.6c0.3-1.8-2.1-2.6-2.1-2.6c-0.5,2.9-5.8,2.9-5.8,2.9c0.3-2.1-2.1-2.6-2.1-2.6c-0.3,3.7-6.6,2.4-6.6,2.4
			c0.7-2,1-3.7,1.1-5.2c-0.1,0-0.2,0-0.3,0c-0.2,0-0.5,0-0.8,0c-0.4,7.1-6.3,6.8-6.3,6.8c1.3-4.5,0-6.1,0-6.1
			c-0.5,8.4-7.9,5.8-10,5.5c-6.2-0.8-7.9-2.1-7.9-2.1c-2.6,4.5-11.3,2.1-11.3,2.1c0.6-3.2,0.7-5.9,0.4-8c-0.6,0-1.1-0.1-1.7-0.1
			c-0.1,4.4-2.7,7.9-2.7,7.9c-2.9,3.2-11.1,0-11.1,0c0.3-4-2.1-6.6-2.1-6.6c1.3,12.4-9.7,6.1-9.7,6.1c-5.8,4-10.5,1.6-10.5,1.6
			c3-4.7,2.3-7.7,2-8.6l0,0c1.5,5.1-9.6,8.6-9.6,8.6c-3.9,4.8-5.6-2.3-6-4.1c1.2,7-5.6,4.3-5.6,4.3c-0.3,2.8-4.5,0-4.5,0
			c1.1-1.8,0.9-5.2,0.5-7.7c-0.2,0-0.4,0-0.6,0c-0.6,9.7-6.8,7.5-6.8,7.5c1.1-2.4-1.3-5.2-1.3-5.2c0.3,7.6-4.4,3.7-4.4,3.7
			c0.5-1.9,0.7-3.5,0.7-4.8c-0.3,0.1-0.5,0.1-0.7,0.2c0,0,0,0-0.1,0c-0.4,6-3.2,6.4-4.9,6c-0.3,0.7-0.5,1.5-0.7,2.3
			c0.6,0.3,1.2,0.5,1.9,0.8c5.3,2.1,12.4,0.3,16.6,1.3c4.2,1,10.3-0.2,15.8,0s7.9-1.5,13.2-1.3c5.3,0.3,10.5,0.3,15.3,1.1
			c4.7,0.8,7.4-0.8,13-1.8c5.7-1.1,11.5,1.8,15.4,1.8c4,0,5.5-0.8,8.2-1.9c2.6-1.1,4.2-0.2,8.4-0.4
			C330.9,336.5,347.8,337.6,349.4,336.6z"/>
		<path opacity="0.2" fill="#01001A" enable-background="new    " d="M347.5,518.8c7-1.4,31.8-8.2,36-13.1c0.3-1.8,0.4-7.4,0.5-15.2
			c-2.4,22.7-18.7,18.8-45.1,24.7c-26.5,5.9-38.8-5.5-35.6-28c1.8-12.9,0.5-26.9,0.5-26.9s-2.7,12.9-5.5,14.2
			c-8.3,3.8-11.1-18.2-11.1-5.9c0,25.5,8.6,17.7-1.9,38.1c-10.6,20.4-76-2.6-76-2.6c0,2.6,0,4.5,0,5.4c0,4.1,33.2,9.6,40.9,10.3
			c7.7,0.7,35.5-2.4,39-3.8c2.1-4.8,7.7-33.1,7.7-38.6c0,0,4.2,34.5,5.6,38.6C307.3,519.5,340.4,520.2,347.5,518.8z"/>
		<g opacity="0.2">
			<path fill="#01001A" d="M383.9,473.7c-40.8,0.7-62.4-33.5-68.3-44.4c12.6,40.4,61.5,70.2,68.3,63.4l0,0
				C383.9,487.4,383.9,480.9,383.9,473.7z"/>
		</g>
		<path opacity="0.2" fill="#01001A" enable-background="new    " d="M224.3,392.4c0,0,40.3,32.4,100.3-37.1c0,0-2.2,22-31.4,40.1
			c-25.4,15.7-29.5,65.8-64.2,44.5c0,0,21.7-5.3,21.5-16.9C250.3,411.4,230.3,413.2,224.3,392.4z"/>
		<path opacity="0.2" fill="#01001A" enable-background="new    " d="M225.8,454c0,0,11.3,55.9,59.1,30.8
			C284.9,484.8,233.5,521.1,225.8,454z"/>
		<path opacity="0.2" fill="#01001A" enable-background="new    " d="M349.8,351.3c0,0-30.3,44.7,0,71.6c10.7,9.5,24.6,6.4,24.6,6.4
			S324.6,408.4,349.8,351.3z"/>
	</g>
</g>
<g>
	
		<linearGradient id="la_x7C_Top_Color_x7C_shirt-bg_1_" gradientUnits="userSpaceOnUse" x1="294.95" y1="208.8" x2="294.95" y2="379.3755" gradientTransform="matrix(1 0 0 -1 0 530)">
		<stop  offset="0.1" style="stop-color:#FFFFFF"/>
		<stop  offset="1" style="stop-color:#45A0FF"/>
	</linearGradient>
	
		<path id="la_x7C_Top_Color_x7C_shirt-bg" fill="url(#la_x7C_Top_Color_x7C_shirt-bg_1_)" stroke="#000000" stroke-width="0.5" stroke-miterlimit="10" d="
		M401.6,59.5c-1.1-3.9-3.9-6.7-8.4-9.5c-10.9-6.8-68.5-26.3-68.5-26.3s-3.5-5-5.7-7.8S306.8,10,295,10s-21.8,3.1-24,5.9
		s-5.7,7.8-5.7,7.8S207.7,43.2,196.9,50c-4.5,2.8-7.3,5.6-8.4,9.5c-1.1,3.9-41.6,79.6-41.6,79.6s1.1,10.1,26.3,21.9
		c15.7,7.3,25.8,4.5,25.8,4.5l14.6-28.4c0,0,1.3,20,3.6,23.4c2.2,3.4,0.4,29.2,0.6,36.5c0.7,22.9-0.9,32.5,0,73
		c0.3,15.5-14.7,39.5-1.3,42.9c6.2,1.6,34.4,8.3,89,8.3c42.5,0,74.6-9.3,77-15.2c1.5-3.6-12.3-24.1-11.9-39.5
		c0.9-40.3-4.3-37.8-3.5-61.6c0.2-7.3,3.3-38.3,5.5-41.7s3.7-26,3.7-26l14.6,28.4c0,0,10.1,2.8,25.8-4.5
		c25.2-11.8,26.3-21.9,26.3-21.9S402.7,63.4,401.6,59.5z"/>
	<g id="la_x7C_Top_Line_x7C_shirt-line">
		<path fill="#CF3232" d="M265.3,23.7c0,0,0.3-0.4,0.7-1C265.5,23.3,265.3,23.7,265.3,23.7S207.7,43.2,196.9,50
			c-4.5,2.8-7.3,5.6-8.4,9.5c-0.7,2.4-15.5,30.6-27.3,52.8c0,0,5.1,12.6,13.9-4.2s16.3-49.9,31.4-54c12.6-3.4,23.1-16.8,62.6-21.8
			C266.4,28.2,265.3,23.7,265.3,23.7z"/>
		<path fill="#CF3232" d="M401.6,59.5c-1.1-3.9-3.9-6.7-8.4-9.5c-10.9-6.8-68.5-26.3-68.5-26.3s-0.4,5.5-2.5,9.4
			c19.7,3.1,46.8,9.9,68,24.4c0,0,21.7,52.4,33.2,44.5C412.9,82.1,402.1,61.5,401.6,59.5z"/>
	</g>
	<path id="la_x7C_Collar_x7C_collar" fill="#CF3232" d="M319,15.9c-2.2-2.8-12.2-5.9-24-5.9s-21.8,3.1-24,5.9s-5.7,7.8-5.7,7.8
		s1.7,7.4,6.1,11.6s4.1,11.2,10.7,15.4h1c-3-2.9-5.4-6.8-5.7-11.8c-0.3-4.5-6.4-8.6-7-12.3c-0.9-5.5,2.6-9.4,2.6-9.4
		s3.2-5.9,22.5-5.9c2,0,16.5,0.1,21.3,3.8c4.7,3.7,5.9,7.5,5.3,11.5c-1.3,8.6-7.7,7.4-7.2,12.7c0.4,4.7-2.1,8.5-5.5,11.4h0.5
		c6.7-4.2,6.3-11.2,10.7-15.4c3.6-3.5,4.2-11.6,4.2-11.6S321.3,18.7,319,15.9z"/>
	<path opacity="0.4" enable-background="new    " d="M295.5,11.3c-19.4,0-22.5,5.9-22.5,5.9s-3.6,3.9-2.6,9.4
		c0.6,3.7,6.7,7.8,7,12.3c0.9,12.9,15.7,18.5,18,18.5c3,0,20.5-6.4,19.5-18.2c-0.4-5.3,5.9-4.1,7.2-12.7c0.6-4-0.5-7.8-5.3-11.5
		C312,11.3,297.5,11.3,295.5,11.3z"/>
	<g>
		<path opacity="0.2" fill="#01001A" enable-background="new    " d="M382.2,302.5c-80.5,15.9-83,7-120.1,8.5
			c-12.1-4.2-32.6-10.4-32.8-19c-0.4-14.2,45.2-71.1,35.6-112.1c0,0-6,43.3-38.6,84.5c-1.1-5.8-17.6-86.4,34.9-90.4
			c14.3-1.1,23.7-7.6,23.7-7.6c-14.1,5.4-26.1,3.4-42,3.3c-0.7-0.3-1.9-0.3-3.9-0.2l0,0c-1.7-0.1-3.3-0.3-4.9-0.6
			c-13.4-4.6-17.3-39.5-19-45.9c-11.2,21.3-11.9,36.2-38.7,33.1c-10.7-1.2-23.2-12.8-28.6-18.6c-0.5,0.9-0.8,1.5-0.8,1.5
			s1.1,10.1,26.3,21.9c15.7,7.3,25.8,4.5,25.8,4.5l14.6-28.4c0,0,1.3,20,3.6,23.4c0.4,0.6,0.7,1.9,0.9,3.8l0,0
			c0.8,8.3-0.4,26.7-0.2,32.7c0.7,22.9-0.9,32.5,0,73c0.1,4.4-1,9.4-2.4,14.5l0,0c-0.4,1.5-0.8,3-1.3,4.5c-0.5,1.6-0.9,3.2-1.3,4.8
			l0,0l0,0c-2.5,9.3-3.6,17.2,3.7,19c6.2,1.6,34.4,8.3,89,8.3c42.5,0,74.6-9.3,77-15.2C382.9,305.2,382.7,304,382.2,302.5z"/>
		<path opacity="0.2" fill="#01001A" enable-background="new    " d="M370.7,266.3c0.1-6.5,0.1-11.9,0-16.4
			c-17.7,6.8-43.5-4.7-80.5-60.3c0,0,23.5,66.4,70.3,78.6c10.4,2.7,14.6,23.8,14.6,23.8s0.9-0.1,2.5-0.4
			C374.2,283.9,370.5,274.4,370.7,266.3z"/>
		<path opacity="0.2" fill="#01001A" enable-background="new    " d="M443.1,139.1c0,0-1.7-3.2-4.5-8.4
			c-18.7,29.8-43.5,24.5-47.2,19.5c-2.8-3.8-11.5-17.7-15.5-31.2c-1.7,1.3-3.2,6.4-4.1,17.8c-3.8,45.6-67.3,28.7-67.3,28.7
			c15.1,9.4,54.4,4,57.6,19.8c3.2,15.9,5.1,23.8,5.1,23.8l0,0c0-1.4,0-2.9,0.1-4.5c0.2-7.3,3.3-38.3,5.5-41.7s3.7-26,3.7-26
			l14.6,28.4c0,0,10.1,2.8,25.8-4.5C442,149.2,443.1,139.1,443.1,139.1z"/>
	</g>
</g>
</svg>
