<?xml version="1.0" encoding="utf-8"?>
<!-- Generator: Adobe Illustrator 21.0.0, SVG Export Plug-In . SVG Version: 6.00 Build 0)  -->
<svg version="1.1" id="Layer_1" xmlns="http://www.w3.org/2000/svg" xmlns:xlink="http://www.w3.org/1999/xlink" x="0px" y="0px"
	 width="590px" height="530px" viewBox="0 0 590 530" enable-background="new 0 0 590 530" xml:space="preserve">
<g id="la_x7C_Socks_Color">
	<path fill="#45A0FF" stroke="#000000" stroke-width="0.5" stroke-miterlimit="10" d="M364.4,117.6c0,0,11.4,131.9,14.3,234.4
		c0.9,32.6-62.2,82.8-75.5,91c-24.1,15,1.5,58.4,51,33.5c37.8-19,89.7-62.7,96.9-77.9c11.5-24.3,1.1-31.1-4.9-47.8
		c-6.3-17.6,32.5-175.6,18.1-239.8c-3.3-14.6-12.6-33.4-12.6-33.4s-4-19-5.4-25.3c-1.4-6.4-53-13.6-64.4-14
		c-11.5-0.4-8.9,32.3-12.4,39.7C365.8,85.4,364.7,111.4,364.4,117.6z"/>
	<path fill="#45A0FF" stroke="#000000" stroke-width="0.5" stroke-miterlimit="10" d="M174.3,116c0,0,15.2,132.2,21.1,234.9
		c1.9,32.7-59.7,81.5-72.8,89.4c-23.7,14.4,3.2,58.4,51.9,34.6c37.3-18.2,87.9-60.8,94.6-75.9c10.8-24.1,0.2-31-6.3-48
		c-6.8-17.7,27.4-175,11.1-239.7c-3.7-14.6-13.5-33.7-13.5-33.7s-4.6-19.1-6.2-25.5s-53.4-14.8-64.8-15.4
		c-11.5-0.6-7.9,32.2-11.3,39.5C174.7,83.9,174.3,109.8,174.3,116z"/>
</g>
<g id="la_x7C_Socks_Line">
	<path fill="#FFFFFF" d="M435,112.3c-0.6-5.6-1.4-11.3-2.1-17.2c-0.8-5.8-1.5-11.6-2.2-17.5c-1.6-14.2-1-25.3-0.1-32.1
		c-3.4-1.1-24.9-5-28.5-5.2c-1.3,8-2.7,21.5-0.9,37.7c0.7,5.9,1.4,11.8,2.2,17.7c0.6,4.5,1.2,8.9,1.7,13.3
		C408.9,109.4,431.3,111.9,435,112.3z"/>
	<path fill="#FFFFFF" d="M244.6,112.2c-0.8-5.6-1.7-11.4-2.6-17.2c-0.9-5.8-1.9-11.7-2.7-17.6c-2-14.2-1.7-25.3-1.1-32.1
		c-3.4-1-17.3-3.9-17.4-3.8c0,0-7.7-1.4-11.3-2c-1.1,8-2.1,21.5,0.2,37.8c0.8,6,1.8,11.9,2.7,17.7c0.7,4.5,1.4,9,2.1,13.3
		C218.4,108.8,240.8,111.7,244.6,112.2z"/>
</g>
<g>
	<g>
		<path opacity="0.2" fill-rule="evenodd" clip-rule="evenodd" fill="#01001A" d="M463.2,211.2c-2.2,21.6-23.9,107.1-24.2,119.8
			c-0.3,12.7-8.1,19.4,2.1,37.9c10.1,18.4-10.3,24.6-15.1,37.5s-37.2,7.1-68.2,42c-30.9,34.9-62.3,3.6-62.4,3.4
			c-7.5,18.1,17.2,45.5,58.8,24.6c37.8-19,89.7-62.7,96.9-77.9c11.5-24.3,1.1-31.1-4.9-47.8c-4.6-12.9,15.1-101.5,20.2-173.1
			C461.7,178.8,464.4,199.4,463.2,211.2z"/>
		<path opacity="0.2" fill-rule="evenodd" clip-rule="evenodd" fill="#01001A" d="M426.8,73.8c5.4-1.2,6.4,1.3,7.4,4.3
			c1.1,2.9,5.5,0.8,5.5-0.5c0-1.3,3.9-0.5,3.9-0.5c0.6,2.5,1.8,1.2,5.3,0.8c2.5-0.2,3,0.4,3.5,0.9c-0.4-0.8-0.6-1.3-0.6-1.3
			s-0.3-1.2-0.7-3.1c-0.7,2.4-3.8-4.5-3.8-4.5c0,1.3,1.5,2.3-2.5,3.5c-4,1.2-4.6-4-4.6-4c0.3,1.5-0.9,4.2-3.7,3.8
			c-2.8-0.4-3.6-5.7-3.6-5.7c-0.1,2.4-1.2,2.9-5.6,3.6c-4.4,0.7-3.9-5-3.9-5c-1.1,3-2.5,4-7.5,4.3c-4.9,0.3-4.7-11.3-5.4-6
			c-0.7,5.3-7.4,4.3-8.4,1.6s-3-2.1-5.8-0.3c-2.8,1.8-4.8-2.3-8-4c-3.2-1.7-3.2,5.1-7,4.7c-3.8-0.4-4-8.7-4.4-5.3
			c-0.1,1.2-2.5,2.4-5.4,3.5c-0.4,3.7-0.7,7.2-1.2,9.8c2.1,1.4,4.8,2.3,4.7-1.9c-0.1-6.9,7-4.5,9.5-5.1c2.5-0.6,3.8-1.9,4.5-1.5
			c0.7,0.4,2.7,3.9,5.9,3.6c3.2-0.2,4.8-2.3,5.1-1.3c0.3,1,1.4,2.7,5.6,2.2c4.2-0.6,5,0.7,7.9,1.7c2.9,1,5.6-1.2,8.4-1
			C424.9,71.3,421.4,75,426.8,73.8z"/>
	</g>
	<g>
		<path opacity="0.2" fill-rule="evenodd" clip-rule="evenodd" fill="#01001A" d="M277.9,140.9c0,41-24.4,151.7-21.9,180.7
			c2.7,31.9-32.8,15.3-29.1,32.1c3.7,16.7,17.9,0,33.4,13.9c15.5,13.8-3.3,27.6-24.9,51.4c-21.6,23.8-44.9,18.3-61.7,42.4
			c-16.1,23.1-56.3-2-59.7-4.2c1.5,16.9,25.3,35.1,60.6,17.9c37.3-18.2,87.9-60.8,94.6-75.9c10.8-24.1,0.2-31-6.3-48
			C256.9,335.7,282,214.6,277.9,140.9z"/>
		<path opacity="0.2" fill-rule="evenodd" clip-rule="evenodd" fill="#01001A" d="M179.3,71.3c1.7-3,6.7-1.9,8.7-2.5
			c2.4-0.8,3.6-2.1,4.4-1.7c0.8,0.4,2.9,3.7,6.1,3.3c3.2-0.4,4.6-2.5,5-1.5s1.5,2.7,5.7,1.9s5,0.4,8,1.2s5.5-1.5,8.3-1.5
			c2.8,0-0.4,3.9,4.9,2.4c5.3-1.5,6.4,0.9,7.6,3.8c1.2,2.9,5.5,0.5,5.4-0.8c-0.1-1.3,3.9-0.7,3.9-0.7c0.8,2.4,1.8,1.1,5.3,0.6
			s3.1,0.9,4.3,1.3c1.2,0.4,3.1-0.3,3.5,1.1c-0.1-0.2-0.2-0.3-0.2-0.3s-0.8-3.3-1.8-7.6l0,0c0.6,2.6-3.9,1.8-3.9,1.8
			c-0.4,3-4.1-4.1-4.1-4.1c0.1,1.3,1.6,2.2-2.3,3.6c-3.9,1.5-4.8-3.7-4.8-3.7c0.4,1.5-0.6,4.2-3.5,4c-2.8-0.2-3.9-5.5-3.9-5.5
			c0,2.4-1,2.9-5.4,3.9c-4.3,1-4.2-4.8-4.2-4.8c-1,3-2.3,4.2-7.2,4.7c-4.9,0.5-5.3-11-5.7-5.7s-7.1,4.7-8.3,2
			c-1.2-2.6-3.1-1.9-5.8,0c-2.7,1.9-4.9-2.1-8.2-3.5c-3.3-1.5-2.9,5.2-6.7,5.1c-3.8-0.2-4.4-8.5-4.7-5.1l0,0
			C179.7,66,179.6,68.9,179.3,71.3z"/>
	</g>
</g>
</svg>
