<?xml version="1.0" encoding="utf-8"?>
<!-- Generator: Adobe Illustrator 16.2.0, SVG Export Plug-In . SVG Version: 6.00 Build 0)  -->
<!DOCTYPE svg PUBLIC "-//W3C//DTD SVG 1.1//EN" "http://www.w3.org/Graphics/SVG/1.1/DTD/svg11.dtd">
<svg version="1.1" id="Layer_1" xmlns="http://www.w3.org/2000/svg" xmlns:xlink="http://www.w3.org/1999/xlink" x="0px" y="0px"
	 width="150px" height="120px" viewBox="0 0 150 120" enable-background="new 0 0 150 120" xml:space="preserve">
<style type="text/css">
	<![CDATA[
	 .top_left{fill:#72BF44;}
	 .top_right{fill:#F04C4B;}
	 .bottom_left{fill:#F5ED57;}
	 .bottom_right{fill:#82D1DF;}
	]]>
</style>
<path fill="#010101" d="M130.563,10.682c-2.017-0.055-4.013,0.152-5.922,0.554c-1.914,0.399-3.759,0.957-5.488,1.674
	c-1.73,0.723-3.402,1.517-4.943,2.474c-1.541,0.942-3.013,1.959-4.41,3.025c-2.804,2.123-5.313,4.496-7.607,6.988
	c-2.328,2.48-4.46,5.07-6.468,7.722c-2,2.666-3.902,5.369-5.738,8.097c-1.812,2.74-3.55,5.523-5.279,8.302l-2.541,4.181L79.664,57.9
	c-1.139,1.976-2.278,3.95-3.392,5.938c-0.187-2.371-0.399-4.368-0.551-5.657c1.549-0.377,2.705-1.767,2.705-3.425
	c0-1.709-1.214-3.135-2.822-3.467c0.978-4.423,3.313-9.493,4.724-10.3c0.619-0.356,1.177-0.449,1.664-0.277
	c0.865,0.308,1.386,1.441,1.558,1.81c0.099,0.213,0.106,0.429,0.029,0.638c-0.197,0.521-0.824,0.928-1.316,1.113
	c-0.746,0.289-0.959,0.217-1.315-0.445c-0.103-0.185-0.11-0.336-0.037-0.5c0.156-0.357,0.64-0.613,0.931-0.658l-0.164-0.684
	c-0.496,0.088-1.151,0.469-1.405,1.024c-0.156,0.353-0.132,0.738,0.065,1.103c0.623,1.138,1.315,1.146,2.222,0.793
	c0.635-0.248,1.409-0.761,1.672-1.474c0.14-0.381,0.123-0.789-0.058-1.166c-0.205-0.441-0.828-1.793-2-2.208
	c-0.685-0.244-1.435-0.135-2.222,0.314c-1.599,0.912-4.086,6.179-5.072,10.841c-0.084,0-0.151,0.019-0.231,0.023
	c-0.281-4.48-1.338-9.815-3.08-10.809c-0.789-0.445-1.517-0.562-2.158-0.34c-0.986,0.34-1.498,1.357-1.801,2.095
	c-0.088,0.223-0.121,0.444-0.101,0.672c0.019,0.15,0.056,0.301,0.119,0.453c0.293,0.688,1.065,1.201,1.69,1.453
	c0.894,0.352,1.554,0.352,2.09-0.736c0.172-0.353,0.172-0.717,0-1.066c-0.268-0.533-0.932-0.92-1.41-1.008l-0.119,0.656
	c0.279,0.056,0.76,0.306,0.937,0.65c0.08,0.16,0.08,0.307-0.004,0.471c-0.31,0.633-0.512,0.701-1.25,0.406
	c-0.476-0.188-1.109-0.586-1.322-1.09c-0.088-0.209-0.092-0.412-0.008-0.613c0.137-0.352,0.582-1.437,1.397-1.717
	c0.453-0.154,0.994-0.063,1.611,0.289c1.41,0.803,2.459,5.943,2.74,10.339c-1.515,0.397-2.64,1.767-2.64,3.412
	c0,1.57,1.033,2.888,2.451,3.353c-0.193,0.84-0.453,2.15-0.67,3.892c-0.924-1.625-1.861-3.24-2.795-4.861l-2.498-4.205l-2.543-4.177
	c-1.726-2.773-3.463-5.552-5.279-8.298c-1.84-2.724-3.744-5.435-5.738-8.1c-2.01-2.654-4.144-5.242-6.463-7.724
	c-2.308-2.492-4.81-4.863-7.614-6.988c-1.394-1.065-2.859-2.08-4.408-3.025c-1.539-0.949-3.201-1.75-4.935-2.474
	c-1.734-0.721-3.572-1.274-5.486-1.674c-1.91-0.397-3.906-0.604-5.925-0.549L7.846,10.21l8.025,8.751
	c2.148,2.347,4.486,4.521,6.64,6.548c1.057,1.017,2.111,1.961,2.928,2.863c0.857,0.898,1.449,1.717,1.886,2.443
	c0.416,0.734,0.676,1.482,0.822,2.451c0.176,0.961,0.192,2.135,0.113,3.396c-0.092,1.254-0.226,2.606-0.457,3.978l-0.012,0.063
	l-0.068,0.34l-0.004,0.033l-0.012,0.144L27.682,41.5l-0.063,0.568l-0.108,1.137c-0.064,0.772-0.088,1.758-0.123,2.623
	c-0.025,1.75,0.08,3.441,0.287,5.171c0.256,1.726,0.57,3.445,1.15,5.119c0.517,1.681,1.313,3.295,2.166,4.824
	c0.902,1.514,1.963,2.92,3.14,4.188c2.392,2.512,5.25,4.406,8.239,5.705c0.541,0.242,1.086,0.447,1.631,0.66
	c-2.236,0.922-4.55,2.15-6.761,4.156c-1.611,1.441-3.193,3.393-4.172,5.861c-0.49,1.232-0.81,2.564-0.93,3.918l-0.039,0.5
	l-0.017,0.254l-0.004,0.064l0.004,0.219l-0.004,0.078l0.004,0.646l0.008,1.32c0.127,2.291,0.379,4.373,1.053,6.574
	c0.664,2.186,1.754,4.432,3.279,6.381c1.539,1.951,3.48,3.555,5.494,4.723c2.019,1.172,4.105,1.898,6.093,2.436l0.752,0.199
	l0.324,0.074l0.08,0.018l0.158,0.031l0.344,0.066c0.463,0.082,0.978,0.127,1.406,0.143c0.396,0,0.789,0.01,1.172-0.023
	c1.547-0.107,2.988-0.533,4.209-1.096c2.443-1.135,4.129-2.664,5.511-4.131c1.39-1.484,2.484-3.004,3.388-4.533
	c0.918-1.508,1.687-3.012,2.388-4.467c1.426-2.895,2.375-5.73,3.215-8.334c0.856-2.59,1.418-5.025,1.892-7.168
	c0.172-0.746,0.315-1.443,0.44-2.123c0.644,5.18,1.601,9.41,1.601,9.41s0.99-5.221,1.478-10.715
	c0.196,1.256,0.437,2.656,0.791,4.182c0.471,2.148,1.041,4.582,1.89,7.164c0.836,2.604,1.791,5.443,3.217,8.342
	c0.705,1.459,1.476,2.947,2.386,4.463c0.91,1.529,2,3.051,3.394,4.529c1.378,1.488,3.063,3.004,5.509,4.141
	c1.222,0.557,2.664,0.979,4.21,1.09c0.389,0.037,0.782,0.02,1.172,0.02c0.431-0.012,0.947-0.064,1.406-0.139l0.344-0.064l0.16-0.029
	l0.078-0.018l0.323-0.076l0.75-0.201c2.001-0.537,4.074-1.268,6.096-2.432c2.012-1.164,3.955-2.77,5.496-4.713
	c1.524-1.963,2.615-4.197,3.279-6.387c0.672-2.209,0.926-4.287,1.049-6.582l0.008-1.313l0.009-0.643l-0.009-0.086l0.009-0.213
	l-0.009-0.07l-0.016-0.25l-0.037-0.508c-0.119-1.332-0.438-2.682-0.927-3.902c-0.983-2.492-2.565-4.439-4.177-5.877
	c-2.213-2.004-4.524-3.238-6.763-4.156c0.55-0.209,1.091-0.418,1.632-0.656c2.992-1.303,5.853-3.193,8.238-5.705
	c1.181-1.264,2.238-2.672,3.14-4.188c0.86-1.531,1.656-3.144,2.172-4.822c0.591-1.666,0.898-3.396,1.148-5.119
	c0.209-1.734,0.303-3.422,0.278-5.177c-0.033-0.861-0.058-1.842-0.114-2.623l-0.107-1.133l-0.065-0.566l-0.032-0.281l-0.009-0.139
	l-0.008-0.033l-0.065-0.336l-0.013-0.072c-0.233-1.373-0.364-2.719-0.455-3.978c-0.082-1.256-0.065-2.435,0.111-3.392
	c0.143-0.974,0.413-1.718,0.823-2.456c0.435-0.728,1.024-1.541,1.877-2.443c0.816-0.904,1.869-1.842,2.927-2.863
	c2.156-2.023,4.492-4.206,6.641-6.552l8.033-8.743L130.563,10.682z"/>
<g id="XMLID_1_">
	<path class="bottom_right" d="M77.729,74.016c-0.508-1.385-0.883-2.52-1.14-3.275c0-0.039,0-0.086,0-0.162
		c0.714-0.256,1.509-0.383,2.268-0.424c0.086,0,0.168,0,0.258,0c0.455,0.086,1,0.119,1.549,0.209
		c3.063,0.418,7.387,1.092,12.469,2.391c2.517,0.668,5.247,1.471,8.018,2.648c2.722,1.135,5.574,2.643,7.845,4.824
		c1.172,1.135,2.099,2.475,2.647,3.941c0.25,0.756,0.419,1.555,0.455,2.354c0.046,0.754-0.041,1.721-0.086,2.559
		c-0.123,1.639-0.377,3.359-0.877,4.951c-0.549,1.639-1.308,3.146-2.356,4.455c-2.054,2.684-5.202,4.365-8.436,5.287l-0.627,0.168
		l-0.591,0.123c-0.377,0.045-0.754,0.09-1.131,0.09c-0.799-0.045-1.558-0.213-2.312-0.549c-1.472-0.59-2.771-1.596-3.906-2.73
		c-2.267-2.262-4.029-4.951-5.537-7.508c-1.509-2.604-2.771-5.16-3.82-7.559C80.246,81.025,78.738,76.906,77.729,74.016z"/>
	<path class="top_right" d="M76.722,69.273c-0.084-1.43-0.127-2.816-0.252-4.115c2.896-5.076,6.043-9.986,9.359-14.771
		c3.738-5.29,7.763-10.409,12.132-15.194c4.361-4.742,9.148-9.148,14.567-12.675c2.685-1.763,5.533-3.273,8.559-4.322
		c2.558-0.881,5.246-1.385,7.972-1.428c-1.84,1.765-3.692,3.484-5.582,5.246c-1.136,1.008-2.226,2.058-3.275,3.232
		c-1,1.133-2.008,2.394-2.722,3.82c-0.713,1.426-1.14,2.98-1.263,4.533c-0.213,1.553-0.086,3.148,0.087,4.658
		c0.168,1.51,0.463,3.023,0.84,4.533l0.377,2.183c0.127,0.756,0.168,1.469,0.254,2.224c0.123,1.469,0.123,2.982,0.087,4.449
		c-0.087,1.512-0.291,2.98-0.628,4.408c-0.291,1.469-0.885,2.853-1.471,4.197c-0.628,1.341-1.427,2.601-2.349,3.777
		c-1.849,2.309-4.197,4.197-6.8,5.664c-1.136,0.59-2.308,1.137-3.529,1.6h-0.05c-3.147-1.096-6.123-1.6-8.853-1.977
		c-2.726-0.377-5.247-0.5-7.469-0.545c-2.188-0.086-4.114,0-5.705,0.086c-1.558,0.086-2.812,0.254-3.656,0.336
		C77.099,69.225,76.89,69.273,76.722,69.273z"/>
	<path class="bottom_left" d="M72.733,69.65c0,0.672,0,1.387,0.043,2.1c-0.127,0.459-0.295,0.959-0.504,1.508
		c-1.008,2.895-2.519,7.01-4.702,11.797c-1.049,2.389-2.308,4.951-3.82,7.557c-1.51,2.559-3.273,5.203-5.54,7.51
		c-1.133,1.135-2.435,2.141-3.904,2.73c-0.754,0.287-1.51,0.5-2.308,0.545c-0.377,0-0.797-0.045-1.133-0.086l-0.629-0.127
		l-0.588-0.168c-3.232-0.959-6.379-2.6-8.435-5.289c-1.049-1.34-1.849-2.852-2.351-4.451c-0.504-1.639-0.756-3.314-0.924-4.992
		c0-0.84-0.084-1.762-0.041-2.52c0.041-0.799,0.209-1.596,0.461-2.354c0.545-1.508,1.47-2.816,2.644-3.943
		c2.267-2.225,5.121-3.691,7.849-4.865c2.728-1.135,5.455-1.975,8.017-2.605c5.078-1.301,9.4-2.01,12.464-2.391
		c0.545-0.086,1.049-0.168,1.553-0.209c0.084,0,0.168,0,0.209,0C71.684,69.438,72.188,69.482,72.733,69.65z"/>
	<path class="top_left" d="M72.985,63.102c-0.125,1.471-0.252,3.234-0.252,5.16c-0.84-0.086-2.056-0.258-3.609-0.336
		c-1.595-0.086-3.527-0.168-5.708-0.127c-2.226,0.09-4.745,0.172-7.472,0.59c-2.728,0.381-5.708,0.885-8.855,1.975c0,0,0,0-0.043,0
		c-1.217-0.459-2.392-1.008-3.525-1.639c-2.603-1.426-4.954-3.316-6.8-5.664c-0.922-1.137-1.72-2.396-2.351-3.739
		c-0.629-1.342-1.174-2.728-1.468-4.197c-0.379-1.426-0.547-2.896-0.631-4.406c-0.041-1.469-0.041-2.98,0.084-4.449
		c0.084-0.756,0.127-1.469,0.252-2.226l0.379-2.224c0.377-1.469,0.67-2.98,0.838-4.492c0.168-1.551,0.252-3.105,0.084-4.658
		c-0.125-1.595-0.545-3.148-1.258-4.574c-0.756-1.386-1.721-2.644-2.729-3.777c-1.049-1.176-2.14-2.226-3.273-3.275
		c-1.89-1.719-3.736-3.441-5.54-5.246c2.685,0.084,5.372,0.588,7.931,1.469c3.023,1.049,5.877,2.56,8.563,4.322
		c5.414,3.527,10.2,7.933,14.565,12.677c4.365,4.783,8.394,9.905,12.13,15.192C67.362,53.871,70.299,58.445,72.985,63.102z"/>
</g>
</svg>
