<?xml version="1.0" encoding="utf-8"?>
<!-- Generator: Adobe Illustrator 21.0.0, SVG Export Plug-In . SVG Version: 6.00 Build 0)  -->
<svg version="1.1" id="Layer_1" xmlns="http://www.w3.org/2000/svg" xmlns:xlink="http://www.w3.org/1999/xlink" x="0px" y="0px"
	 width="150px" height="120px" viewBox="0 0 150 120" enable-background="new 0 0 150 120" xml:space="preserve">
<path fill="#010101" d="M130.6,10.7c-2-0.1-4,0.2-5.9,0.6c-1.9,0.4-3.8,1-5.5,1.7s-3.4,1.5-4.9,2.5c-1.5,0.9-3,2-4.4,3
	c-2.8,2.1-5.3,4.5-7.6,7c-2.3,2.5-4.5,5.1-6.5,7.7c-2,2.7-3.9,5.4-5.7,8.1c-1.8,2.7-3.6,5.5-5.3,8.3l-2.5,4.2L79.8,58
	c-1.1,2-2.3,4-3.4,5.9c-0.2-2.4-0.4-4.4-0.6-5.7c1.5-0.4,2.7-1.8,2.7-3.4c0-1.7-1.2-3.1-2.8-3.5c1-4.4,3.3-9.5,4.7-10.3
	c0.6-0.4,1.2-0.4,1.7-0.3c0.9,0.3,1.4,1.4,1.6,1.8c0.1,0.2,0.1,0.4,0,0.6c-0.2,0.5-0.8,0.9-1.3,1.1c-0.7,0.3-1,0.2-1.3-0.4
	c-0.1-0.2-0.1-0.3,0-0.5c0.2-0.4,0.6-0.6,0.9-0.7L81.7,42c-0.5,0.1-1.2,0.5-1.4,1c-0.2,0.4-0.1,0.7,0.1,1.1c0.6,1.1,1.3,1.1,2.2,0.8
	c0.6-0.2,1.4-0.8,1.7-1.5c0.1-0.4,0.1-0.8-0.1-1.2s-0.8-1.8-2-2.2c-0.7-0.2-1.4-0.1-2.2,0.3c-1.6,0.9-4.1,6.2-5.1,10.8
	c-0.1,0-0.2,0-0.2,0c-0.3-4.5-1.3-9.8-3.1-10.8c-0.8-0.4-1.5-0.6-2.2-0.3c-1,0.3-1.5,1.4-1.8,2.1c-0.1,0.2-0.1,0.4-0.1,0.7
	c0,0.2,0.1,0.3,0.1,0.5c0.3,0.7,1.1,1.2,1.7,1.5c0.9,0.4,1.6,0.4,2.1-0.7c0.2-0.4,0.2-0.7,0-1.1c-0.3-0.5-0.9-0.9-1.4-1l-0.1,0.7
	c0.3,0.1,0.8,0.3,0.9,0.7c0.1,0.2,0.1,0.3,0,0.5c-0.3,0.6-0.5,0.7-1.3,0.4c-0.5-0.2-1.1-0.6-1.3-1.1c-0.1-0.2-0.1-0.4,0-0.6
	c0.1-0.4,0.6-1.4,1.4-1.7c0.5-0.2,1-0.1,1.6,0.3c1.4,0.8,2.5,5.9,2.7,10.3c-1.5,0.4-2.6,1.8-2.6,3.4c0,1.6,1,2.9,2.5,3.4
	c-0.2,0.8-0.5,2.2-0.7,3.9c-0.9-1.6-1.9-3.2-2.8-4.9l-2.5-4.2l-2.5-4.2c-1.7-2.8-3.5-5.6-5.3-8.3s-3.7-5.4-5.7-8.1s-4.1-5.2-6.5-7.7
	c-2.3-2.5-4.8-4.9-7.6-7c-1.4-1.1-2.9-2.1-4.4-3s-3.2-1.8-4.9-2.5c-1.7-0.7-3.6-1.3-5.5-1.7s-3.9-0.6-5.9-0.5L7.8,10.2l8,8.8
	c2.1,2.3,4.5,4.5,6.6,6.5c1.1,1,2.1,2,2.9,2.9c0.9,0.9,1.4,1.7,1.9,2.4c0.4,0.7,0.7,1.5,0.8,2.5c0.2,1,0.2,2.1,0.1,3.4
	c-0.1,1.3-0.2,2.6-0.5,4v0.1l0.1,0.2l0,0v0.1v0.3L27.6,42l-0.1,1.1c-0.1,0.8-0.1,1.8-0.1,2.6c0,1.8,0.1,3.4,0.3,5.2
	c0.3,1.7,0.6,3.4,1.1,5.1c0.5,1.7,1.3,3.3,2.2,4.8c0.9,1.5,2,2.9,3.1,4.2c2.4,2.5,5.3,4.4,8.2,5.7c0.5,0.2,1.1,0.4,1.6,0.7
	c-2.2,0.9-4.5,2.2-6.8,4.2c-1.6,1.4-3.2,3.4-4.2,5.9c-0.5,1.2-0.8,2.6-0.9,3.9v0.5v0.3v0.1v0.2v0.1v0.6v1.3c0.1,2.3,0.4,4.4,1.1,6.6
	s1.8,4.4,3.3,6.4s3.5,3.6,5.5,4.7c2,1.2,4.1,1.9,6.1,2.4l0.8,0.2l0.3,0.1h0.1h0.2l0.3,0.1c0.5,0.1,1,0.1,1.4,0.1s0.8,0,1.2,0
	c1.5-0.1,3-0.5,4.2-1.1c2.4-1.1,4.1-2.7,5.5-4.1c1.4-1.5,2.5-3,3.4-4.5c0.9-1.5,1.7-3,2.4-4.5c1.4-2.9,2.4-5.7,3.2-8.3
	c0.9-2.6,1.4-5,1.9-7.2c0.2-0.7,0.3-1.4,0.4-2.1c0.6,5.2,1.6,9.4,1.6,9.4s1-5.2,1.5-10.7c0.2,1.3,0.4,2.7,0.8,4.2
	c0.5,2.1,1,4.6,1.9,7.2c0.8,2.6,1.8,5.4,3.2,8.3c0.7,1.5,1.5,2.9,2.4,4.5c0.9,1.5,2,3.1,3.4,4.5c1.4,1.5,3.1,3,5.5,4.1
	c1.2,0.6,2.7,1,4.2,1.1c0.4,0,0.8,0,1.2,0c0.4,0,0.9-0.1,1.4-0.1l0.3-0.1h0.2h0.1l0.3-0.1l0.8-0.2c2-0.5,4.1-1.3,6.1-2.4
	c2-1.2,4-2.8,5.5-4.7c1.5-2,2.6-4.2,3.3-6.4c0.7-2.2,0.9-4.3,1-6.6V88v-0.6v-0.1v-0.2V87v-0.3v-0.5c-0.1-1.3-0.4-2.7-0.9-3.9
	c-1-2.5-2.6-4.4-4.2-5.9c-2.2-2-4.5-3.2-6.8-4.2c0.6-0.2,1.1-0.4,1.6-0.7c3-1.3,5.9-3.2,8.2-5.7c1.2-1.3,2.2-2.7,3.1-4.2
	s1.7-3.1,2.2-4.8c0.6-1.7,0.9-3.4,1.1-5.1c0.2-1.7,0.3-3.4,0.3-5.2c0-0.9-0.1-1.8-0.1-2.6l-0.1-1.1l-0.1-0.6v-0.3v-0.1l0,0l-0.1-0.3
	v-0.1c-0.2-1.4-0.4-2.7-0.5-4s-0.1-2.4,0.1-3.4c0.1-1,0.4-1.7,0.8-2.5c0.4-0.7,1-1.5,1.9-2.4c0.8-0.9,1.9-1.8,2.9-2.9
	c2.2-2,4.5-4.2,6.6-6.6l8-8.7L130.6,10.7z"/>
<path id="la_x7C_Bottom_Right" fill="#82D1DF" d="M77.7,74c-0.5-1.4-0.9-2.5-1.1-3.3c0,0,0-0.1,0-0.2c0.7-0.3,1.5-0.4,2.3-0.4
	c0.1,0,0.2,0,0.3,0c0.5,0.1,1,0.1,1.5,0.2c3.1,0.4,7.4,1.1,12.5,2.4c2.5,0.7,5.2,1.5,8,2.6c2.7,1.1,5.6,2.6,7.8,4.8
	c1.2,1.1,2.1,2.5,2.6,3.9c0.3,0.8,0.4,1.6,0.5,2.4c0,0.8,0,1.7-0.1,2.6c-0.1,1.6-0.4,3.4-0.9,5s-1.3,3.1-2.4,4.5
	c-2.1,2.7-5.2,4.4-8.4,5.3l-0.6,0.2l-0.6,0.1c-0.4,0-0.8,0.1-1.1,0.1c-0.8,0-1.6-0.2-2.3-0.5c-1.5-0.6-2.8-1.6-3.9-2.7
	c-2.3-2.3-4-5-5.5-7.5c-1.5-2.6-2.8-5.2-3.8-7.6C80.2,81,78.7,76.9,77.7,74z"/>
<path id="la_x7C_Top_Right" fill="#F04C4B" d="M76.7,69.3c-0.1-1.4-0.1-2.8-0.3-4.1c2.9-5.1,6-10,9.4-14.8
	C89.6,45.1,93.6,40,98,35.2c4.4-4.7,9.1-9.1,14.6-12.7c2.7-1.8,5.5-3.3,8.6-4.3c2.6-0.9,5.2-1.4,8-1.4c-1.8,1.8-3.7,3.5-5.6,5.2
	c-1.1,1-2.2,2.1-3.3,3.2c-1,1.1-2,2.4-2.7,3.8s-1.1,3-1.3,4.5c-0.2,1.6-0.1,3.1,0.1,4.7c0.2,1.5,0.5,3,0.8,4.5l0.4,2.2
	c0.1,0.8,0.2,1.5,0.3,2.2c0.1,1.5,0.1,3,0.1,4.4c-0.1,1.5-0.3,3-0.6,4.4c-0.3,1.5-0.9,2.9-1.5,4.2s-1.4,2.6-2.3,3.8
	c-1.8,2.3-4.2,4.2-6.8,5.7c-1.1,0.6-2.3,1.1-3.5,1.6H103c-3.1-1.1-6.1-1.6-8.9-2c-2.7-0.4-5.2-0.5-7.5-0.5c-2.2-0.1-4.1,0-5.7,0.1
	s-2.8,0.3-3.7,0.3C77.1,69.2,76.9,69.3,76.7,69.3z"/>
<path id="la_x7C_Bottom_Left" fill="#F5ED57" d="M72.7,69.7c0,0.7,0,1.4,0,2.1c-0.1,0.5-0.3,1-0.5,1.5c-1,2.9-2.5,7-4.7,11.8
	c-1,2.4-2.3,5-3.8,7.6c-1.5,2.6-3.3,5.2-5.5,7.5c-1.1,1.1-2.4,2.1-3.9,2.7c-0.8,0.3-1.5,0.5-2.3,0.5c-0.4,0-0.8,0-1.1-0.1l-0.6-0.1
	l-0.6-0.2c-3.2-1-6.4-2.6-8.4-5.3c-1-1.3-1.8-2.9-2.4-4.5c-0.5-1.6-0.8-3.3-0.9-5c0-0.8-0.1-1.8,0-2.5c0-0.8,0.2-1.6,0.5-2.4
	c0.5-1.5,1.5-2.8,2.6-3.9c2.3-2.2,5.1-3.7,7.8-4.9c2.7-1.1,5.5-2,8-2.6c5.1-1.3,9.4-2,12.5-2.4c0.5-0.1,1-0.2,1.6-0.2
	c0.1,0,0.2,0,0.2,0C71.7,69.4,72.2,69.5,72.7,69.7z"/>
<path id="la_x7C_Top_Left" fill="#72BF44" d="M73,63.1c-0.1,1.5-0.3,3.2-0.3,5.2c-0.8-0.1-2.1-0.3-3.6-0.3c-1.6-0.1-3.5-0.2-5.7-0.1
	s-4.7,0.2-7.5,0.6c-2.7,0.4-5.7,0.9-8.9,2l0,0c-1.2-0.5-2.4-1-3.5-1.6c-2.6-1.4-5-3.3-6.8-5.7c-0.9-1.1-1.7-2.4-2.4-3.7
	c-0.6-1.3-1.2-2.7-1.5-4.2c-0.4-1.4-0.5-2.9-0.6-4.4c0-1.5,0-3,0.1-4.4c0.1-0.8,0.1-1.5,0.3-2.2l0.4-2.2c0.4-1.5,0.7-3,0.8-4.5
	c0.2-1.6,0.3-3.1,0.1-4.7c-0.1-1.6-0.5-3.1-1.3-4.6c-0.8-1.4-1.7-2.6-2.7-3.8c-1-1.2-2.1-2.2-3.3-3.3c-1.9-1.7-3.7-3.4-5.5-5.2
	c2.7,0.1,5.4,0.6,7.9,1.5c3,1,5.9,2.6,8.6,4.3c5.4,3.5,10.2,7.9,14.6,12.7s8.4,9.9,12.1,15.2C67.4,53.9,70.3,58.4,73,63.1z"/>
</svg>
