<?xml version="1.0" encoding="utf-8"?>
<!-- Generator: Adobe Illustrator 21.0.0, SVG Export Plug-In . SVG Version: 6.00 Build 0)  -->
<svg version="1.1" id="Layer_1" xmlns="http://www.w3.org/2000/svg" xmlns:xlink="http://www.w3.org/1999/xlink" x="0px" y="0px"
	 width="150px" height="120px" viewBox="0 0 150 120" enable-background="new 0 0 150 120" xml:space="preserve">
<path fill="#010101" d="M34.1,35.8c-2.6,5.9-3.8,12.8-3.3,20.6l0.2,2.8l3.8-0.9c0,2.3,0.2,5.7,0.8,9.5c0.7,4.1,1.9,8,3.6,11.4
	c2.1,4.4,4.9,8.1,8.3,11l2.2,1.9l1.3-2.5c1.1,1.6,2.6,3.6,4.4,5.7c3.9,4.6,10.3,10.6,18.3,13.7l0.8,0.3l0.8-0.3
	c8-3.1,14.4-9.2,18.3-13.7c1.8-2.1,3.3-4.1,4.4-5.7l1.3,2.5l2.2-1.9c3.4-3,6.2-6.7,8.3-11c1.6-3.4,2.8-7.3,3.6-11.4
	c0.7-3.8,0.8-7.2,0.8-9.5l3.8,0.9l0.2-2.8c0.4-7.8-0.7-14.7-3.3-20.6c-2.1-4.8-5.2-8.9-9.3-12.2c-2.8-2.3-5.7-3.9-8.1-5l6.6-2.9
	l-3.7-2.3c-4.1-2.6-9.2-3.9-15.1-3.9c-5,0-9.2,0.9-10.8,1.4c-1.6-0.4-5.7-1.4-10.8-1.4c-5.9,0-11,1.3-15.1,3.9l-3.7,2.3l6.6,2.9
	c-2.4,1.1-5.3,2.7-8.1,5C39.4,27,36.3,31,34.1,35.8z"/>
<g id="la_x7C_Muzzle">
	<path fill="#FFE0B2" d="M98.8,53.6l-8,8.8c-1.7-2.7-3.4-4.4-3.5-4.6L84,61.1c0,0,1.5,1.5,2.9,3.8c1.3,2,2.8,5.1,2.6,8.3
		c-0.1,2.3-1.1,4.3-2.9,6.1l-1.1-0.4L75,74.9c0.2-1.5,0.6-3.4,1.6-4.1c1.8-1.2,4.8-3.2,0-3.5c0,0-1.1,0.6-2.4,0.6s-2.4-0.6-2.4-0.6
		c-4.8,0.3-1.8,2.3,0,3.5c1,0.7,1.4,2.6,1.6,4.1l-10.6,3.9l-1.1,0.4c-1.8-1.8-2.8-3.8-2.9-6c-0.3-6,5.4-11.9,5.5-12.1h0l0,0
		l-1.2-1.2l-0.4-0.4l-1.7-1.6c-0.1,0.1-1.9,1.9-3.5,4.6l-8-8.8c0.2-2.8,1.3-11.7,7.4-16.6c4.1-3.3,9.7-4.3,16.8-2.9l0.5,0.1l0.5-0.1
		c7.1-1.4,12.8-0.4,16.8,2.9C97.5,41.9,98.6,50.8,98.8,53.6z"/>
	<path fill="#FFE0B2" d="M81.6,82.6c0.2,1.3,0.2,2.6-0.1,2.9c-0.1,0-0.1,0.1-0.4,0.1c-0.3,0-0.6-0.1-1-0.1c-0.4-0.1-0.8-0.2-1.2-0.3
		c-1.3-0.4-2.9-0.8-4.7-0.8s-3.4,0.5-4.7,0.8c-0.9,0.2-1.7,0.5-2.2,0.5c-0.2,0-0.3,0-0.4-0.1c-0.2-0.3-0.3-1.6-0.1-2.9l7.4-2.7
		L81.6,82.6z"/>
</g>
<path fill="#010101" d="M85.8,51.8c2.1-0.3,3.7-1.8,3.5-3.5c-0.1-0.8-0.6-1.6-1.4-2c2.1-2,3.1-3,3.1-3h-6.7c-2.5,0-4.5,2-4.5,4.5
	v6.5c1.1-1.1,2.1-2.1,3-3C83.7,51.7,84.7,52,85.8,51.8z"/>
<path fill="#010101" d="M59.7,48.3c-0.2,1.7,1.4,3.3,3.5,3.5c1.1,0.1,2.1-0.1,2.9-0.6c0.9,0.9,1.9,1.9,3,3v-6.5c0-2.5-2-4.5-4.5-4.5
	H58c0,0,1,1,3.1,3C60.3,46.7,59.8,47.4,59.7,48.3z"/>
<g id="la_x7C_Mane">
	<path fill="#F57C00" d="M112.6,43.9c0.7,2.9,1,6.1,1,9.5l-4.4-1.1l0.3,3.3c0,0,0.3,3.7-0.3,8.8c-2.2-2.8-4.6-4.3-6.6-5.2
		c-0.5-0.2-1-0.4-1.5-0.5l2.7-2.9l0-0.9c0-0.2,0-2.7-0.7-6.1C103.5,47.9,106,43.6,112.6,43.9z"/>
	<path fill="#F57C00" d="M110.6,37.7c0.2,0.5,0.4,1,0.6,1.5c-4.1,0.2-7,1.7-8.8,3.2c-0.3,0.3-0.7,0.6-1,0.9
		c-1.3-3.4-3.4-6.9-6.7-9.6c-0.1-0.1-0.2-0.2-0.3-0.2c0.5-1.9,2.1-5.3,7.1-7.1c0.4,0.3,0.7,0.5,1.1,0.8
		C106.1,30.1,108.8,33.6,110.6,37.7z"/>
	<path fill="#F57C00" d="M107.9,71.3c-0.6,2.1-1.3,4.1-2.2,6c-1.3,2.8-3,5.2-4.9,7.4l-2.3-4.4L96.3,84c0,0-2.3,4-6.2,8.5
		c-3.4,4-8.9,9.2-15.6,12c-6.7-2.8-12.2-8-15.6-12C55,87.9,52.7,84,52.7,84l-2.1-3.8l-2.3,4.4c-1.9-2.1-3.6-4.6-4.9-7.4
		c-0.9-1.9-1.6-3.9-2.2-6c2.9-7.4,8.3-8.5,10.4-8.7l4.1,4.5c-0.8,2-1.2,4.2-1.1,6.5c0.2,4,2.1,7.4,5.6,10.3l1,0.8l1.2-0.4
		c0,1.9,0.5,3.8,2.2,5c0.9,0.6,1.9,0.9,3,0.9c1.2,0,2.3-0.3,3.5-0.6c1.1-0.3,2.3-0.7,3.5-0.7c1.2,0,2.3,0.3,3.5,0.7
		c1.1,0.3,2.3,0.6,3.5,0.6c0.6,0,1.1-0.1,1.6-0.2c0.5-0.2,1-0.4,1.4-0.7c1.7-1.1,2.2-3.1,2.2-5l1.2,0.4l1-0.8
		c3.5-2.9,5.4-6.3,5.6-10.3c0.1-2.3-0.4-4.5-1.1-6.5l4.1-4.5c0.8,0.1,2,0.2,3.4,0.8C104,64.8,106.3,67.4,107.9,71.3z"/>
	<path fill="#F57C00" d="M93.5,15.3l-10.2,4.5l7.4,1.4c0,0,2.7,0.5,6.2,2.3c-3,1.7-4.7,3.9-5.7,5.7c-0.3,0.6-0.6,1.3-0.8,1.8
		c-4.4-2-9.7-2.4-15.8-1.2C68.4,28.6,63.1,29,58.7,31c-0.2-0.6-0.5-1.2-0.8-1.8c-1-1.8-2.7-4-5.6-5.7c3.5-1.7,6.1-2.3,6.2-2.3
		l7.4-1.4l-10.2-4.5c2.4-0.8,5.2-1.1,8.2-1.1c5.6,0,10,1.3,10.1,1.4l0.7,0.2l0.7-0.2c0,0,4.5-1.4,10.1-1.4
		C88.3,14.2,91,14.5,93.5,15.3z"/>
	<path fill="#F57C00" d="M54.6,33.5c-0.1,0.1-0.2,0.2-0.3,0.2c-3.3,2.7-5.4,6.2-6.7,9.6c-0.3-0.3-0.6-0.6-1-0.9
		c-1.8-1.5-4.7-3-8.8-3.2c0.2-0.5,0.4-0.9,0.6-1.4c1.8-4.1,4.5-7.6,7.9-10.5c0.4-0.3,0.8-0.7,1.2-1c2.9,1,5,2.6,6.2,4.8
		C54.1,32,54.4,32.8,54.6,33.5z"/>
	<path fill="#F57C00" d="M45.2,55.7l2.7,2.9c-0.5,0.1-1,0.3-1.5,0.5c-2,0.8-4.5,2.4-6.6,5.2c-0.6-5.1-0.3-8.8-0.3-8.8l0.3-3.3
		l-4.4,1.1c0-3.4,0.3-6.5,1-9.5c2.8-0.1,5.2,0.6,7.1,2.1c1.4,1.1,2.2,2.4,2.4,2.8c-0.7,3.3-0.7,5.8-0.7,6.1L45.2,55.7z"/>
</g>
</svg>
