<?xml version="1.0" encoding="utf-8"?>
<!-- Generator: Adobe Illustrator 16.2.0, SVG Export Plug-In . SVG Version: 6.00 Build 0)  -->
<!DOCTYPE svg PUBLIC "-//W3C//DTD SVG 1.1//EN" "http://www.w3.org/Graphics/SVG/1.1/DTD/svg11.dtd">
<svg version="1.1" id="Layer_1" xmlns="http://www.w3.org/2000/svg" xmlns:xlink="http://www.w3.org/1999/xlink" x="0px" y="0px"
	 width="150px" height="120px" viewBox="0 0 150 120" enable-background="new 0 0 150 120" xml:space="preserve">
<style type="text/css">
	<![CDATA[
	 .muzzle{fill:#FFE0B2;}
	 .mane{fill:#F57C00;}
	]]>
</style>
<path fill="#010101" d="M34.12,35.82c-2.632,5.892-3.752,12.813-3.328,20.571l0.152,2.792l3.756-0.902
	c-0.003,2.306,0.153,5.671,0.834,9.503c0.738,4.149,1.944,7.999,3.583,11.441c2.076,4.357,4.853,8.069,8.255,11.031l2.231,1.943
	l1.281-2.461c1.1,1.586,2.589,3.582,4.436,5.72c3.935,4.557,10.311,10.634,18.343,13.721l0.835,0.32l0.836-0.32
	c8.03-3.086,14.406-9.164,18.342-13.721c1.846-2.138,3.336-4.134,4.435-5.72l1.281,2.461l2.231-1.943
	c3.402-2.962,6.18-6.673,8.255-11.031c1.64-3.442,2.846-7.292,3.583-11.441c0.682-3.832,0.838-7.198,0.835-9.503l3.757,0.902
	l0.153-2.792c0.424-7.758-0.695-14.68-3.328-20.572c-2.133-4.772-5.247-8.866-9.256-12.167c-2.845-2.343-5.726-3.944-8.138-5.02
	l6.618-2.926l-3.724-2.331c-4.107-2.57-9.194-3.875-15.12-3.875c-5.009,0-9.176,0.947-10.761,1.363
	C72.915,10.447,68.748,9.5,63.739,9.5c-5.925,0-11.013,1.304-15.12,3.875l-3.723,2.331l6.618,2.926
	c-2.412,1.075-5.293,2.676-8.137,5.02C39.366,26.954,36.252,31.047,34.12,35.82z"/>
<g id="XMLID_2_">
	<path class="muzzle" d="M98.842,53.623l-7.974,8.763c-1.684-2.683-3.396-4.427-3.54-4.573l-3.305,3.29
		c0.015,0.015,1.498,1.53,2.918,3.795c1.282,2.044,2.775,5.137,2.619,8.25c-0.112,2.264-1.063,4.257-2.895,6.06l-1.111-0.409
		l-10.554-3.89c0.193-1.528,0.628-3.401,1.605-4.092c1.763-1.243,4.767-3.21,0-3.521c0,0-1.138,0.623-2.381,0.623
		s-2.383-0.623-2.383-0.623c-4.764,0.312-1.76,2.278,0,3.521c0.978,0.69,1.413,2.563,1.606,4.092l-10.553,3.888l-1.11,0.411
		c-1.827-1.8-2.777-3.787-2.895-6.043c-0.31-6.002,5.357-11.878,5.536-12.063h0.002l0.002-0.004l-1.243-1.231l-0.413-0.409
		l-1.65-1.645c-0.144,0.146-1.856,1.89-3.54,4.572l-7.976-8.762c0.197-2.806,1.296-11.712,7.352-16.642
		c4.061-3.308,9.716-4.269,16.812-2.862l0.453,0.09l0.453-0.09c7.094-1.407,12.751-0.445,16.812,2.862
		C97.548,41.913,98.645,50.82,98.842,53.623z"/>
	<path class="muzzle" d="M81.619,82.642c0.195,1.269,0.179,2.567-0.085,2.938c-0.056,0.035-0.149,0.073-0.372,0.073
		c-0.267,0-0.602-0.057-0.976-0.144c-0.374-0.088-0.789-0.204-1.214-0.326c-1.301-0.368-2.921-0.826-4.748-0.826
		c-1.827,0-3.448,0.458-4.748,0.826c-0.853,0.241-1.658,0.47-2.19,0.47c-0.223,0-0.317-0.038-0.372-0.073
		c-0.245-0.347-0.293-1.604-0.085-2.938l7.394-2.724L81.619,82.642z"/>
</g>
<path fill="#010101" d="M85.813,51.836c2.149-0.258,3.727-1.844,3.522-3.544c-0.103-0.848-0.629-1.563-1.397-2.035
	c2.08-2.034,3.098-3.006,3.098-3.006h-6.719c-2.467,0-4.468,2-4.468,4.468v6.549c1.1-1.098,2.114-2.11,3.048-3.037
	C83.675,51.726,84.712,51.968,85.813,51.836z"/>
<path fill="#010101" d="M59.67,48.292c-0.204,1.699,1.373,3.285,3.523,3.544c1.101,0.132,2.138-0.109,2.916-0.605
	c0.934,0.927,1.948,1.939,3.047,3.037V47.72c0-2.467-2-4.468-4.468-4.468H57.97c0,0,1.019,0.971,3.098,3.006
	C60.299,46.729,59.772,47.445,59.67,48.292z"/>
<g id="XMLID_1_">
	<g>
		<path class="mane" d="M112.646,43.854c0.665,2.938,0.994,6.104,0.989,9.475l-4.416-1.057l0.314,3.254
			c0.006,0.042,0.349,3.746-0.267,8.809c-2.166-2.813-4.632-4.345-6.636-5.179c-0.51-0.212-1.007-0.387-1.484-0.531l2.68-2.945
			l-0.005-0.908c0-0.236-0.031-2.72-0.733-6.063C103.516,47.867,105.997,43.645,112.646,43.854z"/>
		<path class="mane" d="M110.625,37.722c0.217,0.486,0.421,0.981,0.615,1.482c-4.145,0.201-7.012,1.742-8.818,3.197
			c-0.35,0.28-0.668,0.567-0.961,0.851c-1.339-3.372-3.438-6.871-6.729-9.56c-0.098-0.081-0.199-0.159-0.298-0.236
			c0.499-1.919,2.09-5.289,7.148-7.051c0.359,0.269,0.719,0.55,1.077,0.845C106.109,30.09,108.789,33.613,110.625,37.722z"/>
		<path class="mane" d="M107.877,71.321c-0.603,2.116-1.348,4.114-2.236,5.969c-1.329,2.775-2.979,5.239-4.924,7.355l-2.312-4.435
			l-2.112,3.742c-0.021,0.038-2.267,3.987-6.21,8.537c-3.433,3.96-8.873,9.179-15.583,12c-6.71-2.821-12.151-8.04-15.583-12
			c-3.943-4.55-6.188-8.499-6.208-8.537l-2.11-3.752l-2.315,4.444c-1.945-2.116-3.593-4.582-4.922-7.357
			c-0.89-1.853-1.636-3.851-2.236-5.967c2.936-7.425,8.265-8.536,10.396-8.67l4.1,4.507c-0.75,2.007-1.225,4.229-1.11,6.528
			c0.199,3.963,2.07,7.429,5.562,10.296l1.031,0.848l1.208-0.444c0.039,1.852,0.538,3.85,2.219,4.998
			c0.88,0.603,1.9,0.908,3.033,0.908c1.182,0,2.341-0.329,3.462-0.646c1.129-0.32,2.296-0.651,3.475-0.651
			c1.18,0,2.348,0.331,3.477,0.651c1.121,0.317,2.281,0.646,3.462,0.646c0.567,0,1.105-0.077,1.611-0.229
			c0.507-0.15,0.982-0.379,1.422-0.679c1.682-1.149,2.179-3.147,2.22-4.998l1.206,0.443l1.033-0.848
			c3.491-2.867,5.362-6.333,5.562-10.296c0.114-2.3-0.361-4.521-1.112-6.528l4.096-4.501c0.78,0.056,2.007,0.235,3.366,0.801
			C103.969,64.76,106.334,67.404,107.877,71.321z"/>
		<path class="mane" d="M93.472,15.311l-10.217,4.518l7.392,1.383c0.039,0.007,2.686,0.521,6.172,2.26
			c-2.961,1.71-4.672,3.889-5.65,5.685c-0.344,0.637-0.617,1.254-0.83,1.834c-4.407-1.958-9.711-2.37-15.838-1.223
			c-6.129-1.147-11.433-0.734-15.84,1.223c-0.213-0.58-0.486-1.197-0.831-1.834c-0.976-1.793-2.687-3.97-5.643-5.681
			c3.473-1.726,6.129-2.256,6.164-2.263l7.393-1.383l-10.215-4.518c2.437-0.762,5.182-1.149,8.211-1.149
			c5.551,0,10.039,1.337,10.081,1.35l0.68,0.204l0.676-0.204c0.046-0.013,4.534-1.35,10.085-1.35
			C88.29,14.162,91.035,14.549,93.472,15.311z"/>
		<path class="mane" d="M54.556,33.462c-0.096,0.078-0.194,0.151-0.29,0.23c-3.291,2.688-5.388,6.186-6.727,9.56
			c-0.295-0.285-0.613-0.569-0.963-0.851c-1.805-1.455-4.672-2.997-8.814-3.197c0.177-0.46,0.361-0.915,0.558-1.361
			c1.811-4.098,4.455-7.617,7.864-10.464c0.411-0.343,0.823-0.667,1.233-0.976c2.871,0.993,4.958,2.6,6.214,4.795
			C54.108,32.029,54.39,32.825,54.556,33.462z"/>
		<path class="mane" d="M45.174,55.681l2.679,2.945c-0.477,0.144-0.974,0.319-1.484,0.531c-2.006,0.834-4.47,2.368-6.635,5.179
			c-0.615-5.063-0.273-8.766-0.269-8.807l0.324-3.262l-4.424,1.063c-0.007-3.375,0.328-6.541,0.993-9.479
			c2.834-0.098,5.227,0.589,7.131,2.053c1.449,1.112,2.193,2.372,2.421,2.813c-0.7,3.338-0.731,5.821-0.731,6.057L45.174,55.681z"/>
	</g>
</g>
</svg>
