<?xml version="1.0" encoding="utf-8"?>
<!-- Generator: Adobe Illustrator 19.2.1, SVG Export Plug-In . SVG Version: 6.00 Build 0)  -->
<svg version="1.1" id="Layer_1" xmlns="http://www.w3.org/2000/svg" xmlns:xlink="http://www.w3.org/1999/xlink" x="0px" y="0px"
	 viewBox="0 0 32 32" style="enable-background:new 0 0 32 32;" xml:space="preserve">
<path id="_x35_._Add_x5F_image" d="M24.2,5H6.8C5.3,5,4,6.3,4,7.8v17.5c0,1.5,1.3,2.8,2.8,2.8h17.5
	c1.5,0,2.8-1.2,2.8-2.8V7.8C27,6.3,25.8,5,24.2,5z M10.5,8.7c1.5,0,2.8,1.2,2.8,2.8c0,1.5-1.2,2.8-2.8,2.8c-1.5,0-2.8-1.2-2.8-2.8
	C7.7,10,8.9,8.7,10.5,8.7z M6.8,25l3.9-6.3l3.5,4.2l4.9-6.3l5.3,8.4H6.8z"/>
</svg>
