<?xml version="1.0" encoding="utf-8"?>
<!-- Generator: Adobe Illustrator 15.0.0, SVG Export Plug-In . SVG Version: 6.00 Build 0)  -->
<!DOCTYPE svg PUBLIC "-//W3C//DTD SVG 1.1 Basic//EN" "http://www.w3.org/Graphics/SVG/1.1/DTD/svg11-basic.dtd">
<svg version="1.1" baseProfile="basic" id="Шар_1"
	 xmlns="http://www.w3.org/2000/svg" xmlns:xlink="http://www.w3.org/1999/xlink" x="0px" y="0px" width="32px" height="32px"
	 viewBox="0 0 32 32" xml:space="preserve">
<path d="M20.5,26.104v1.134c0,0.904-0.675,1.654-1.551,1.782l-0.284,1.03c-0.154,0.56-0.667,0.95-1.26,0.95h-2.814
	c-0.593,0-1.104-0.391-1.258-0.95l-0.275-1.03c-0.885-0.137-1.558-0.878-1.558-1.788v-1.136c0-0.606,0.494-1.096,1.11-1.096h6.777
	C20.003,25.008,20.5,25.496,20.5,26.104z"/>
<path d="M15.937,2c-5.285,0.04-9.491,4.287-9.436,9.537c0.023,2.499,1.032,4.77,2.651,6.439c1.253,1.285,2.071,2.955,2.348,4.715
	C11.612,23.449,12.279,24,13.049,24h5.897c0.776,0,1.436-0.562,1.554-1.317c0.27-1.757,1.08-3.406,2.335-4.697
	c1.65-1.694,2.665-4.004,2.665-6.55C25.5,6.202,21.215,1.961,15.937,2z M16,6.785c-2.594,0-4.713,2.097-4.713,4.682
	c0,0.591-0.483,1.063-1.071,1.063c-0.596,0-1.071-0.48-1.071-1.063c0-3.759,3.079-6.81,6.856-6.81c0.596,0,1.072,0.481,1.072,1.064
	C17.072,6.312,16.596,6.785,16,6.785z"/>
</svg>
