<?xml version="1.0" encoding="utf-8"?>
<!-- Generator: Adobe Illustrator 19.2.1, SVG Export Plug-In . SVG Version: 6.00 Build 0)  -->
<svg version="1.1" id="Layer_1" xmlns="http://www.w3.org/2000/svg" xmlns:xlink="http://www.w3.org/1999/xlink" x="0px" y="0px"
	 viewBox="0 0 32 32" style="enable-background:new 0 0 32 32;" xml:space="preserve">
<path d="M31.9,6.5c-0.2-0.5-0.5-1-1-1.2L23,1.2C22.7,1.1,22.4,1,22.1,1h-2.6c-1.1,0-2,0.9-2,2.1c0,0.9-0.7,1.6-1.6,1.6
	c-0.9,0-1.6-0.7-1.6-1.6c0-1.1-0.9-2.1-2.1-2.1H9.9C9.6,1,9.3,1.1,9,1.2L1.1,5.3C0.6,5.6,0.2,6,0.1,6.6C-0.1,7.1,0,7.7,0.3,8.2
	L4,15.8l0,0.1l0,0.1c0.3,0.4,0.7,0.7,1.2,0.9v12.1c0,2.3,2.6,2.6,4.3,2.8c1.7,0.2,4,0.3,6.4,0.3c2.4,0,4.7-0.1,6.4-0.3
	c1.7-0.2,4.4-0.5,4.4-2.8v-12c0,0,0.1,0,0.1,0c0.8,0,1.4-0.4,1.8-1.1l0-0.1l0-0.1l3.1-7.6C32,7.6,32.1,7,31.9,6.5z M6.9,13.1
	l-0.6,0.3L3.4,7.6l6.8-3.5h1c0.5,2.1,2.3,3.7,4.6,3.7s4.1-1.6,4.6-3.7h1.5l6.9,3.6l-2.4,5.9L25,13.1l-1.3-0.5V14v14.4
	C22.8,28.6,20.1,29,16,29c-4.1,0-6.8-0.3-7.7-0.6V14v-1.6L6.9,13.1z"/>
<g>
	<path d="M17.5,19.3h-3l-0.6,2.4h-2.2l3.2-11.4h2.3l3.2,11.4h-2.2L17.5,19.3z M15,17.5h2.1l-1-4h0L15,17.5z"/>
</g>
</svg>
