<?xml version="1.0" encoding="utf-8"?>
<!-- Generator: Adobe Illustrator 19.2.1, SVG Export Plug-In . SVG Version: 6.00 Build 0)  -->
<svg version="1.1" id="Layer_1" xmlns="http://www.w3.org/2000/svg" xmlns:xlink="http://www.w3.org/1999/xlink" x="0px" y="0px"
	 viewBox="0 0 197 19" style="enable-background:new 0 0 197 19;" xml:space="preserve">
<style type="text/css">
	.st0{fill:#212121;}
</style>
<path id="logo" class="st0" d="M41.7,0H37l-4.5,12L28,0h-4.7l7.6,18h3.2L41.7,0z M45,18h11v-4h-7v-3h6V7h-6V4h7V0H45L45,18L45,18z
	 M58.8,18H63l1.7-4h7.1l1.7,4H78L70.4,0h-4L58.8,18z M68.4,5.1l2.4,4.8h-4.6L68.4,5.1z M0,18h12v-4H4V0H0V18z M16,18h4V0h-4V18z
	 M85,18v-6h1.7l4.4,6h5l-5.3-7c2-1,3.2-3,3.1-5.3c0-3.4-1.8-5.8-6.7-5.8C86.7-0.1,82,0,81,0v18C81,18,85,18,85,18z M87,4
	c2,0,2.5,0.8,2.5,1.9c0,1.5-1.2,2.1-2.8,2.1H85V4C85.9,4,86.3,4,87,4L87,4z M98,4h5v14h4V4h5V0H98V4z M128,18h2V0h-2v8h-10V0h-2v18
	h2v-8h10V18z M133,2h6v16h2V2h6V0h-14V2z M150,18h2V3.6l6.3,9h0.3l6.4-9V18h2V0h-1.9l-6.6,9.3L152,0h-2V18z M172,18h11v-2h-9V0h-2
	V18z M186.4,9.3c1-0.3,2-0.5,3.1-0.5c2.7,0,4.4,1.1,4.4,3.3c0.1,2-1.4,3.7-3.5,3.8c-0.1,0-0.1,0-0.2,0c-1.6,0-3.2-0.8-4.1-2.2
	l-1.2,1.5c1.1,1.8,3.1,2.8,5.2,2.8c3.2,0.1,5.8-2.4,5.9-5.5c0-0.2,0-0.3,0-0.5c0-3.5-2.4-5.4-5.7-5.4c-0.5,0-1,0.1-1.5,0.2l1.2-4.9
	h5.9V0h-7.7L186.4,9.3z"/>
</svg>
