<?xml version="1.0" encoding="utf-8"?>
<!-- Generator: Adobe Illustrator 19.2.1, SVG Export Plug-In . SVG Version: 6.00 Build 0)  -->
<svg version="1.1" id="Layer_1" xmlns="http://www.w3.org/2000/svg" xmlns:xlink="http://www.w3.org/1999/xlink" x="0px" y="0px"
	 viewBox="0 0 32 32" style="enable-background:new 0 0 32 32;" xml:space="preserve">
<g id="_x34_._Names_x5F_numbers">
	<path id="XMLID_10_" d="M14,22H6v-4h4c2.2,0,4-1.8,4-4v-4c0-2.2-1.8-4-4-4H2v4h8v4H6c-2.2,0-4,1.8-4,4v8h12V22z"/>
	<path id="XMLID_11_" d="M29,22v-3c0-1.7-1.3-3-3-3c1.7,0,3-1.3,3-3v-3c0-2.2-1.8-4-4-4h-8v4h8v4h-4v4h4v4h-8v4h8
		C27.2,26,29,24.2,29,22z"/>
</g>
</svg>
