<?xml version="1.0" encoding="utf-8"?>
<!-- Generator: Adobe Illustrator 15.0.0, SVG Export Plug-In . SVG Version: 6.00 Build 0)  -->
<!DOCTYPE svg PUBLIC "-//W3C//DTD SVG 1.1//EN" "http://www.w3.org/Graphics/SVG/1.1/DTD/svg11.dtd">
<svg version="1.1" id="Layer_1" xmlns="http://www.w3.org/2000/svg" xmlns:xlink="http://www.w3.org/1999/xlink" x="0px" y="0px"
	 width="64px" height="64px" viewBox="0 0 64 64" enable-background="new 0 0 64 64" xml:space="preserve">
<path d="M31.999,64C14.354,64,0,49.645,0,32C0,14.355,14.354,0,31.999,0C49.645,0,64,14.355,64,32C64,49.645,49.645,64,31.999,64z
	 M31.999,4C16.561,4,4,16.561,4,32c0,15.44,12.561,28,27.999,28C47.438,60,60,47.439,60,32C60,16.561,47.438,4,31.999,4z"/>
<g>
	<path d="M20.73,45.896v-4.004h2.002v-4.004h-10.01v-4.004l10.01-16.016h4.004v16.016h2.002v4.004h-2.002v4.004h2.002v4.004H20.73z
		 M17.767,33.885h4.965v-8.008L17.767,33.885z"/>
	<path d="M32.742,45.896V33.084l3.204-3.204h8.809v-8.008h-8.008v2.002h-4.004v-2.803l3.204-3.203h9.609l3.203,3.203v9.609
		l-3.203,3.204h-8.809v8.008h8.008v-2.002h4.004v6.006H32.742z"/>
</g>
</svg>
