<?xml version="1.0" encoding="utf-8"?>
<!-- Generator: Adobe Illustrator 19.2.1, SVG Export Plug-In . SVG Version: 6.00 Build 0)  -->
<svg version="1.1" id="Layer_1" xmlns="http://www.w3.org/2000/svg" xmlns:xlink="http://www.w3.org/1999/xlink" x="0px" y="0px"
	 viewBox="0 0 32 32" style="enable-background:new 0 0 32 32;" xml:space="preserve">
<path id="_x37_._Save_x5F_Share" d="M28.2,4.4C27.6,4.6,3.3,15.8,2.7,16c-0.5,0.2-0.6,0.6,0,0.8
	c0.7,0.3,6.7,2.4,6.7,2.4l2.6,8.1c0,0.4,0.2,0.5,0.5,0.2s4.1-5.1,4.1-5.1s6.4,3.4,6.8,3.6c0.5,0.3,1.1,0,1.2-0.5
	c0.2-0.7,4.3-20,4.4-20.4C29.1,4.5,28.7,4.2,28.2,4.4z M22.2,11.9c-0.2,0.2-8.6,9-8.6,9s-0.3,1.3-0.7,2.6c-0.3,1-0.6,1.1-0.8,0.3
	c-0.5-1.9-1.2-4.8-1.2-4.8s10.6-7.1,10.8-7.3C22.1,11.4,22.4,11.7,22.2,11.9z"/>
</svg>
