<?xml version="1.0" encoding="utf-8"?>
<!-- Generator: Adobe Illustrator 15.0.0, SVG Export Plug-In . SVG Version: 6.00 Build 0)  -->
<!DOCTYPE svg PUBLIC "-//W3C//DTD SVG 1.1//EN" "http://www.w3.org/Graphics/SVG/1.1/DTD/svg11.dtd">
<svg version="1.1" id="Layer_1" xmlns="http://www.w3.org/2000/svg" xmlns:xlink="http://www.w3.org/1999/xlink" x="0px" y="0px"
	 width="32px" height="32px" viewBox="0 0 32 32" enable-background="new 0 0 32 32" xml:space="preserve">
<path d="M31.907,6.527c-0.155-0.517-0.527-0.964-1.017-1.217l-7.895-4.082C22.699,1.078,22.376,1,22.054,1H19.42
	c-1.13,0-2.05,0.922-2.05,2.055c0,0.903-0.733,1.638-1.634,1.638c-0.899,0-1.63-0.735-1.63-1.638C14.106,1.922,13.186,1,12.053,1
	H9.947C9.623,1,9.298,1.078,9.01,1.226L1.111,5.31c-0.513,0.263-0.894,0.737-1.043,1.3c-0.143,0.54-0.059,1.114,0.228,1.587
	l3.683,7.634l0.029,0.06l0.036,0.055c0.288,0.438,0.724,0.743,1.218,0.866v12.101c0,2.258,2.617,2.576,4.349,2.787
	c1.73,0.208,4,0.323,6.39,0.323c2.391,0,4.66-0.115,6.387-0.323c1.732-0.211,4.35-0.528,4.35-2.787V16.87
	c0.04,0.002,0.081,0.003,0.121,0.003c0.751,0,1.442-0.41,1.804-1.07l0.028-0.052l0.022-0.056l3.067-7.636
	C32.019,7.586,32.065,7.032,31.907,6.527z M6.86,13.135l-0.643,0.328L3.376,7.577l6.814-3.521h0.97
	c0.458,2.109,2.336,3.694,4.576,3.694c2.24,0,4.118-1.585,4.576-3.694h1.498l6.87,3.55l-2.389,5.942l-1.265-0.46l-1.343-0.489v1.429
	v14.351c-0.93,0.251-3.571,0.591-7.684,0.591c-4.114,0-6.756-0.34-7.686-0.591V14.026v-1.632L6.86,13.135z"/>
</svg>
