<?xml version="1.0" encoding="utf-8"?>
<!-- Generator: Adobe Illustrator 15.0.0, SVG Export Plug-In . SVG Version: 6.00 Build 0)  -->
<!DOCTYPE svg PUBLIC "-//W3C//DTD SVG 1.1//EN" "http://www.w3.org/Graphics/SVG/1.1/DTD/svg11.dtd">
<svg version="1.1"
	 id="svg2" inkscape:output_extension="org.inkscape.output.svg.inkscape" sodipodi:docname="AimophilaRuficeps.svg" xmlns:dc="http://purl.org/dc/elements/1.1/" xmlns:cc="http://creativecommons.org/ns#" xmlns:rdf="http://www.w3.org/1999/02/22-rdf-syntax-ns#" xmlns:svg="http://www.w3.org/2000/svg" xmlns:sodipodi="http://sodipodi.sourceforge.net/DTD/sodipodi-0.dtd" xmlns:inkscape="http://www.inkscape.org/namespaces/inkscape"
	 xmlns="http://www.w3.org/2000/svg" xmlns:xlink="http://www.w3.org/1999/xlink" x="0px" y="0px" width="889.571px"
	 height="583.586px" viewBox="0 0 889.571 583.586" enable-background="new 0 0 889.571 583.586" xml:space="preserve">
<defs>
</defs>
<g id="layer1" transform="translate(516.78637,-162.02367)" inkscape:label="Layer 1" inkscape:groupmode="layer">
	<g id="g2575" transform="translate(-2.827091,-1.1308364)">
		
			<linearGradient id="path3239_1_" gradientUnits="userSpaceOnUse" x1="-583.5274" y1="681.677" x2="-522.8328" y2="1198.5634" gradientTransform="matrix(1 0 0 -1 529.6992 1170.1294)">
			<stop  offset="0" style="stop-color:#B6A693"/>
			<stop  offset="1" style="stop-color:#B6A693;stop-opacity:0"/>
		</linearGradient>
		<path id="path3239" sodipodi:nodetypes="ccsccscsszzscs" fill="url(#path3239_1_)" d="M-272.543,200.833
			c50.604,30.918,65.86,53.782,102.476,78.495c19.609,13.833,76.76,58.503,99.116,78.495
			c49.284,44.072,171.353,158.66,171.353,158.66L353.91,699.366c0,0-21.99,16.473-29.207,11.984
			C256.685,669.04,70.164,559.906,70.164,559.906s-59.689-1.299-126.61,17.031c-44.203,12.108-138.423,9.077-178.138-6.036
			c-85.348-32.479-126.319-89.86-149.326-140.404c-22.157-48.677-19.438-75.187-42.934-113.848
			c-23.497-38.661-31.324-34.549-33.18-45.951c-1.854-11.401,6.888-16.422,6.888-16.422
			C-432.61,169.566-327.737,167.111-272.543,200.833z"/>
		<path id="path3421" sodipodi:nodetypes="czcscssc" fill="#9D713D" fill-opacity="0.6494" d="M100.219,519.239
			c0,0-10.727,5.458-20.863,4.659c-10.139-0.799-33.264-14.615-33.264-14.615l26.67,32.96c8.879,10.972,11.137,24.703,11.137,24.703
			s179.186,107.985,245.775,144.988c6.449,3.584,27.316-9.87,21.309-14.168C289.441,653.743,100.219,519.239,100.219,519.239z"/>
		
			<linearGradient id="path3337_1_" gradientUnits="userSpaceOnUse" x1="-853.0455" y1="930.6067" x2="-868.3863" y2="991.8346" gradientTransform="matrix(1 0 0 -1 513.9395 1162.2495)">
			<stop  offset="0" style="stop-color:#BA7562"/>
			<stop  offset="1" style="stop-color:#803300"/>
		</linearGradient>
		<linearGradient id="path3337_2_" gradientUnits="userSpaceOnUse" x1="-638.3067" y1="763.7551" x2="-589.3634" y2="699.2006">
			<stop  offset="0" style="stop-color:#000000"/>
			<stop  offset="1" style="stop-color:#000000;stop-opacity:0"/>
		</linearGradient>
		
			<path id="path3337" sodipodi:nodetypes="cccscccssccsc" fill="url(#path3337_1_)" stroke="url(#path3337_2_)" stroke-width="1.8" stroke-linecap="round" stroke-linejoin="round" d="
			M-345.849,179.359c-28.313-0.042-57.355,5.336-77.586,25.997l-2.541,4.153c0,0-5.979,9.02-8.892,14.159
			c-4.738,8.363-5.044,14.178-5.044,14.178l14.25-5.003l14.287-9.161c16.286-8.431,30.289-11.438,46.198-13.366
			c11.265-1.366,28.804,0.603,41.148,0.831c14.87,0.274,57.127,7.511,57.127,7.511l28.259,5.412
			c-6.801-4.809-27.707-18.39-36.251-23.61C-295.59,187.813-318.247,179.401-345.849,179.359z"/>
		<path id="path3330" sodipodi:nodetypes="csccssccccccs" d="M-443.757,249.129c-2.105,0.125-1.374-2.339,0.796-5.976
			c2.187-3.665,6.559-8.813,11.296-8.708c3.744-0.489,7.08-3.139,10.156-5.257c12.962-7.496,19.401-10.885,33.55-15.332
			c8.275-2.601,16.222-3.907,24.95-3.801c9.692,0.118,24.124-0.166,33.811,0.636c-16.047,1.236-32.09,2.691-48.172,3.338
			c-4.439,1.113-8.765,2.709-13.081,4.234c-9.177,3.832-14.992,6.725-23.5,11.851c-3.222,2.583-8.919,7.938-13.27,8.605
			c-3.704,1.337-8.551,0.927-9.913,5.374C-437.835,245.206-442.704,249.066-443.757,249.129z"/>
		<path id="path3328" sodipodi:nodetypes="ccccssc" fill="#E6E6E6" d="M-423.782,205.863c-11.957,7.785-24.855,31.626-28.937,47.505
			c0,0-1.76,1.038-3.537,3.192l2.327,2.499c0,0,9.158-9.927,11.728-15.037c2.57-5.109,1.57-9.965,4.232-15.027
			C-434.454,222.314-423.612,208.302-423.782,205.863z"/>
		
			<linearGradient id="path3279_1_" gradientUnits="userSpaceOnUse" x1="-939.8082" y1="1083.4788" x2="-896.5411" y2="1083.4788" gradientTransform="matrix(1.4892 0 0 -1.4805 1011.4643 1836.3218)">
			<stop  offset="0" style="stop-color:#ECECEC"/>
			<stop  offset="1" style="stop-color:#D1C7BB"/>
		</linearGradient>
		<path id="path3279" sodipodi:nodetypes="csszszzsss" fill="url(#path3279_1_)" d="M-436.714,244.927
			c0-6.722,9.732-4.295,15.119-8.351c16.21-12.201,27.635-18.654,44.519-22.546c20.853-4.808,117.286-4.006,135.234,16.701
			c17.133,19.766-21.17,0.591-80.637,0.835c0,0-7.614,0.022-13.439,1.67c-5.824,1.647-11.838-1.945-26.039,1.67
			c-14.381,3.662-20.634-7.488-36.118-4.175c-12.642,2.705-11.419,5.618-31.919,21.711
			C-432.377,254.312-436.714,249.409-436.714,244.927z"/>
		
			<radialGradient id="path3293_1_" cx="-784.7462" cy="990.3225" r="65.6041" gradientTransform="matrix(1.3648 0 0 -0.7405 741.2111 1015.6406)" gradientUnits="userSpaceOnUse">
			<stop  offset="0" style="stop-color:#A48E7D"/>
			<stop  offset="1" style="stop-color:#A48E7D;stop-opacity:0"/>
		</radialGradient>
		<path id="path3293" sodipodi:nodetypes="cccczscc" fill="url(#path3293_1_)" d="M-369.61,242.669
			c26.974-3.076,76.531,6.943,106.649,8.23c9.863,4.303,3.539,31.435-2.52,39.537c-23.081,39.072-70.247,35.124-109.233,23.139
			c-3.893-3.419-5.122-14.681-11.499-20.042c-5.896-4.958-14.938-12.407-5.988-19.48c4.521-3.573,13.666-12.941,17.806-18.063
			C-371.601,252.888-368.6,250.076-369.61,242.669z"/>
		<path id="path3273" sodipodi:nodetypes="ccscccc" opacity="0.4088" fill="#F8F8F8" enable-background="new    " d="
			M-435.305,275.938l-18.841,4.821c5.098,6.951,18.159,26.876,28.497,43.887c1.536,2.527,2.944,5.035,4.282,7.542
			c0,0,25.079,10.441,40.899,1.538c17.96-16.418-7.422-43.567-20.283-51.69C-408.154,278.202-435.305,275.938-435.305,275.938z"/>
		
			<linearGradient id="path3268_1_" gradientUnits="userSpaceOnUse" x1="-957.5298" y1="1042.0383" x2="-926.7584" y2="1004.8122" gradientTransform="matrix(1.4892 0 0 -1.4805 1011.4643 1836.3218)">
			<stop  offset="0" style="stop-color:#333333"/>
			<stop  offset="1" style="stop-color:#333333;stop-opacity:0"/>
		</linearGradient>
		<path id="path3268" sodipodi:nodetypes="cssssc" fill="url(#path3268_1_)" d="M-442.163,280.085c0,0,21.992,13.378,29.248,21.475
			c4.756,5.308,8.123,22.583,16.609,25.355c5.624,1.837,11.46-1.364,13.293-7.886c3.658-13.016-20.777-24.234-29.633-28.447
			C-421.501,286.371-442.163,280.085-442.163,280.085z"/>
		<path id="path3275" sodipodi:nodetypes="cszzssccc" opacity="0.893" fill="#666666" enable-background="new    " d="
			M-434.195,252.443c0,0,9.376-6.477,13.439-9.186c6.502-4.334,20.247-14.901,32.759-12.525c12.562,2.384,11.114,3.733,15.678,8.397
			s3.624,12.908,1.977,19.02c-1.647,6.112-10.828,11.426-18.462,13.422c-9.462,2.473-7.592,11.769-7.592,11.769l-23.52-6.681
			L-434.195,252.443z"/>
		<g id="g3246" transform="matrix(1.2479278,0,0,1.0651618,335.71666,280.54425)">
			<path id="path3228" sodipodi:nodetypes="cscsccc" fill="#808080" d="M-602.458-6.621c0,0-17.697-1.146-33.292,0
				c-9.284,0.682-34.962,2.461-34.962,2.461s4.815,4.16,24.724,6.415c20.145,2.282,42.214,7.22,42.214,7.22l-11.352-8.119
				L-602.458-6.621z"/>
			
				<linearGradient id="path2440_1_" gradientUnits="userSpaceOnUse" x1="128.582" y1="914.4735" x2="118.7093" y2="1016.7288" gradientTransform="matrix(1.566 0 0 -0.9745 -830.9082 908.2497)">
				<stop  offset="0" style="stop-color:#B8B8B8"/>
				<stop  offset="1" style="stop-color:#525252;stop-opacity:0.9823"/>
			</linearGradient>
			<path id="path2440" sodipodi:nodetypes="cscsscsc" fill="url(#path2440_1_)" d="M-670.955-4.146c0,0,10.869-11.484,22.958-18.962
				c7.178-4.439,20.962-10.634,20.962-10.634s-1.301,10.34,2.766,7.756c3.529-2.243,8.557-0.069,13.984,10.923
				c4.159,8.423,16.38,9.782,16.38,9.782s-16.376-2.029-45.09-0.075C-650.579-4.567-670.955-4.146-670.955-4.146z"/>
			<path id="path3230" sodipodi:nodetypes="cccc" d="M-621.224-31.348l-8.031,5.171l13.486-0.385L-621.224-31.348z"/>
		</g>
		<g id="g3263" transform="matrix(0.5517763,0,0,0.4754336,158.76554,281.16194)">
			
				<path id="path3259" sodipodi:ry="38.287884" sodipodi:rx="37.490219" sodipodi:cy="387.1102" sodipodi:cx="-860.67969" sodipodi:type="arc" fill="#CCCCCC" d="
				M-962.988-62.775c0,21.145-16.784,38.287-37.489,38.287s-37.491-17.142-37.491-38.287c0-21.146,16.785-38.288,37.491-38.288
				S-962.988-83.921-962.988-62.775z"/>
			
				<path id="path3257" sodipodi:ry="40.680878" sodipodi:rx="39.883213" sodipodi:cy="84.795464" sodipodi:cx="-781.71094" sodipodi:type="arc" d="
				M-967.774-64.371c0,17.622-14.642,31.906-32.703,31.906c-18.063,0-32.705-14.285-32.705-31.906s14.642-31.906,32.705-31.906
				C-982.416-96.277-967.774-81.992-967.774-64.371z"/>
			
				<path id="path3261" sodipodi:ry="10.369635" sodipodi:rx="10.369635" sodipodi:cy="236.35167" sodipodi:cx="-855.89374" sodipodi:type="arc" fill="#CCCCCC" d="
				M-975.751-82.716c0.007,5.727-4.632,10.374-10.359,10.38c-5.725,0.006-10.373-4.632-10.38-10.359c0-0.007,0-0.014,0-0.022
				c-0.005-5.728,4.632-10.375,10.359-10.381c5.727-0.005,10.375,4.632,10.38,10.36C-975.751-82.731-975.751-82.724-975.751-82.716z
				"/>
		</g>
		<path id="path3277" sodipodi:nodetypes="cssszcc" fill="#C2826C" d="M-374.243,236.495c0,0,25.128-6.669,39.646-7.772
			c25.342-1.926,70.198-9.1,84.551,7.949c12.329,14.645-17.469,16.88-40.29,12.292c-15.747-3.166-26.461-3.869-35.883-5.245
			c-9.487-1.385-44.6-2.303-44.6-2.303L-374.243,236.495z"/>
		<path id="path3343" sodipodi:nodetypes="csssc" fill="#746960" fill-opacity="0.7792" d="M-372.85,266.373
			c0,0,11.045,1.144,13.366,4.167c0.893,1.163,1.84,3.965,0.686,4.861c-1.243,0.965-3.501-1.194-4.798-2.083
			C-366.246,271.501-372.85,266.373-372.85,266.373z"/>
		<path id="path3345" sodipodi:nodetypes="csssc" fill="#746960" fill-opacity="0.7792" d="M-360.377,261.65
			c0,0,11.046,0.779,13.366,2.84c0.893,0.792,1.84,2.702,0.686,3.313c-1.243,0.658-3.501-0.814-4.798-1.42
			C-353.773,265.144-360.377,261.65-360.377,261.65z"/>
		<path id="path3347" sodipodi:nodetypes="csssc" fill="#746960" fill-opacity="0.7792" d="M-353.844,271.097
			c0,0,9.696,1.507,11.733,5.493c0.784,1.533,1.615,5.228,0.603,6.409c-1.092,1.272-3.074-1.574-4.213-2.747
			C-348.046,277.858-353.844,271.097-353.844,271.097z"/>
		
			<path id="path3349" inkscape:transform-center-x="2.5007507" inkscape:transform-center-y="3.851731" sodipodi:nodetypes="csssc" fill="#746960" fill-opacity="0.7792" d="
			M-361.537,278.404c0,0,12.006,6.32,13.364,10.939c0.521,1.777,0.419,5.517-1.261,6.058c-1.81,0.582-3.458-2.987-4.552-4.622
			C-356.218,287.439-361.537,278.404-361.537,278.404z"/>
		<path id="path3351" sodipodi:nodetypes="csssc" fill="#746960" fill-opacity="0.7792" d="M-379.345,269.703
			c0,0,11.448,7.03,12.563,11.771c0.429,1.824,0.155,5.598-1.512,6.054c-1.796,0.492-3.244-3.204-4.237-4.915
			C-374.561,279.118-379.345,269.703-379.345,269.703z"/>
		<path id="path3353" sodipodi:nodetypes="csssc" fill="#746960" fill-opacity="0.7792" d="M-346.34,258.378
			c0,0,11.301-1.253,14.278,1.144c1.146,0.922,2.7,3.399,1.739,4.501c-1.035,1.187-3.763-0.397-5.253-0.972
			C-338.62,261.876-346.34,258.378-346.34,258.378z"/>
		<path id="path3355" sodipodi:nodetypes="csssc" fill="#746960" fill-opacity="0.7792" d="M-366.561,253.789
			c0,0,11.174-2.102,14.616-0.848c1.324,0.482,3.345,1.951,2.577,2.789c-0.827,0.903-3.869,0.16-5.479-0.054
			C-358.132,255.24-366.561,253.789-366.561,253.789z"/>
		<path id="path3357" sodipodi:nodetypes="csssc" fill="#746960" fill-opacity="0.7792" d="M-336.62,275.821
			c0,0,19.142,1.944,23.164,7.086c1.547,1.977,3.188,6.743,1.188,8.267c-2.154,1.641-6.067-2.03-8.315-3.543
			C-325.173,284.541-336.62,275.821-336.62,275.821z"/>
		<path id="path3359" sodipodi:nodetypes="csssc" fill="#746960" fill-opacity="0.7792" d="M-344.678,284.796
			c0,0,15.646,11.133,16.571,17.582c0.356,2.48-0.599,7.427-3.096,7.763c-2.689,0.362-4.254-4.757-5.449-7.179
			C-339.095,298.013-344.678,284.796-344.678,284.796z"/>
		<path id="path3361" sodipodi:nodetypes="csssc" fill="#746960" fill-opacity="0.7792" d="M-363.364,285.88
			c0,0,8.832,9.864,8.393,14.281c-0.169,1.699-1.643,4.823-3.402,4.647c-1.896-0.188-2.114-3.827-2.528-5.622
			C-361.748,295.522-363.364,285.88-363.364,285.88z"/>
		<path id="path3363" sodipodi:nodetypes="csssc" fill="#746960" fill-opacity="0.7792" d="M-329.712,286.241
			c0,0,16.046,10.556,17.208,16.966c0.447,2.465-0.325,7.443-2.808,7.87c-2.675,0.459-4.427-4.599-5.711-6.976
			C-323.646,299.247-329.712,286.241-329.712,286.241z"/>
		<path id="path3365" sodipodi:nodetypes="csssc" fill="#746960" fill-opacity="0.7792" d="M-321.771,260.469
			c0,0,19.142,1.944,23.164,7.085c1.547,1.978,3.188,6.743,1.188,8.267c-2.154,1.641-6.067-2.03-8.314-3.542
			C-310.325,269.189-321.771,260.469-321.771,260.469z"/>
		<path id="path3341" sodipodi:nodetypes="csssc" fill="#746960" fill-opacity="0.7792" d="M-340.465,267.661
			c0,0,19.085-2.427,24.177,1.672c1.958,1.577,4.645,5.847,3.045,7.782c-1.723,2.085-6.373-0.607-8.907-1.573
			C-327.328,273.569-340.465,267.661-340.465,267.661z"/>
		<path id="path3395" sodipodi:nodetypes="csssc" fill="#746960" fill-opacity="0.7792" d="M-310.841,276.324
			c0,0,14.338,6.577,15.657,11.081c0.508,1.732,0.091,5.329-2.025,5.78c-2.279,0.487-4.039-3.017-5.263-4.637
			C-304.972,285.241-310.841,276.324-310.841,276.324z"/>
		<g id="g2525" transform="translate(14.629313,-5.6899621)">
			<path id="path3399" fill="#D3AAAA" fill-opacity="0.9416" d="M-155.957,685.325L-155.957,685.325z"/>
			<g id="g2520">
				<path id="path3397" sodipodi:nodetypes="ccszcsccccsssccc" fill="#D3AAAA" fill-opacity="0.9416" d="M-83.649,585.719
					l-93.33,58.21c0,0-20.405-1.592-28.302,3.101c-7.307,4.341-12.486,8.449-14.598,17.927s1.266,10.959,1.266,10.959
					s6.33,2.304,11.606-3.481c3.332-3.652,0.838-10.603,0.838-10.603l10.028-5.562l15.42,0.571l6.896,10.241
					c0,0-2.151,10.31,0.577,13.175c2.206,2.318,6.188,5.16,10.62,0.99c4.482-4.217,1.141-12.063-2.312-17.787
					c-3.747-6.213-2.641-10.589-2.641-10.589l121.052-76.76L-83.649,585.719z"/>
				<path id="path3401" sodipodi:nodetypes="ccscsc" fill="#B3B3B3" fill-opacity="0.9416" d="M-212.553,676.435l-6.626-1.65
					c0,0-3.386,5.514-2.62,7.887c1.572,4.866,13.774,9.836,13.774,9.836s-8.205-6.279-8.396-10.275
					C-216.521,680.135-212.553,676.435-212.553,676.435z"/>
				<path id="path3403" sodipodi:nodetypes="cscscc" fill="#B3B3B3" fill-opacity="0.9416" d="M-160.55,678.987
					c0,0,0.345,5.565-0.425,8.255c-1.733,6.056-11.761,8.633-11.761,8.633s7.358-4.423,8.491-8.914
					c0.646-2.56-1.77-8.624-1.77-8.624L-160.55,678.987z"/>
			</g>
		</g>
		<path id="path3433" sodipodi:nodetypes="cccc" opacity="0.613" fill-opacity="0.7403" enable-background="new    " d="
			M81.67,557.418l252.137,155.457l3.564-2.361L81.67,557.418z"/>
		<g id="g2528" transform="translate(4.4517859,-1.1666166)">
			<path id="path3534" sodipodi:nodetypes="ccsscscscsc" fill="#A6835B" fill-opacity="0.6558" d="M-213.998,251.102
				c-4.59,24.166-29.065,43.819-70.921,58.948c67.982-2.958,120.783,20.533,169.673,57.258s93.868,85.09,101.535,93.588
				c15.67,17.369,52.262,57.832,52.262,57.832s17.635,8.373,25.377,10.249c18.064,4.378,37.313-6.149,37.313-6.149
				s-11.314-10.346-15.15-13.536c-10.385-8.636-26.852-25.203-26.852-25.203S-1.53,426.852-61.474,371.155
				C-112.222,324.003-180.027,277.12-213.998,251.102z"/>
			
				<linearGradient id="path3429_1_" gradientUnits="userSpaceOnUse" x1="-500.4508" y1="541.4491" x2="-683.9139" y2="640.0982" gradientTransform="matrix(1 0 0 -1 518.3906 1163.4158)">
				<stop  offset="0" style="stop-color:#D89D56"/>
				<stop  offset="1" style="stop-color:#C37F2D;stop-opacity:0"/>
			</linearGradient>
			<path id="path3429" sodipodi:nodetypes="cssccsc" fill="url(#path3429_1_)" d="M-134.995,522.434
				c1.188,8.267,5.809,17.554,3.563,24.8c-2.329,7.517-17.402,13.808-16.631,20.076c0.592,4.801,3.004,13.956,19.36,16.328
				c40.057,0.991,80.134-6.018,117.534-20.271c-29.342-6.952-53.271-21.987-82.42-29.706
				C-107.413,530.001-121.193,526.177-134.995,522.434z"/>
			
				<linearGradient id="path3339_1_" gradientUnits="userSpaceOnUse" x1="-689.0387" y1="840.4501" x2="-823.9729" y2="1017.1151" gradientTransform="matrix(1.4892 0 0 -1.4805 1002.3335 1830.1708)">
				<stop  offset="0" style="stop-color:#A68165"/>
				<stop  offset="1" style="stop-color:#AC9482"/>
			</linearGradient>
			<path id="path3339" sodipodi:nodetypes="csssscss" fill="url(#path3339_1_)" d="M-207.457,305.141
				c-24.594-3.836-51.351-7.112-74.837,8.267c-16.846,11.03-33.104,32.746-10.691,75.581
				c30.607,58.493,76.778,99.306,133.044,125.18c69.72,32.063,164.351,57.671,226.888,60.229
				c52.926,2.126-96.22-129.904-96.22-129.904s-57.049-63.939-90.279-90.933C-141.63,335.626-175.397,310.141-207.457,305.141z"/>
			<path id="path3437" inkscape:transform-center-y="7.930625" fill="#6A4531" fill-opacity="0.526" d="M-283.544,316.5l9.114,1.638
				l4.503,4.132l8.143,1.765l6.693,5.734l5.829-0.766l5.845,6.791l0.956-7.684l-8.883-7.336l-6.076-1.091l-5.598-4.934l-4.858,0.638
				l-5.352-3.076L-283.544,316.5z"/>
			<path id="path3439" inkscape:transform-center-y="7.9306223" fill="#6A4531" fill-opacity="0.526" d="M-246.72,325.948
				l9.114,1.637l4.503,4.132l8.144,1.765l6.692,5.734l5.83-0.766l5.845,6.791l0.956-7.684l-8.883-7.336l-6.076-1.092l-5.599-4.933
				l-4.857,0.638l-5.352-3.076L-246.72,325.948z"/>
			<path id="path3441" inkscape:transform-center-y="7.9306202" fill="#6A4531" fill-opacity="0.526" d="M-202.768,346.024
				l9.114,1.637l4.503,4.132l8.143,1.765l6.693,5.734l5.83-0.766l5.845,6.791l0.956-7.684l-8.883-7.336l-6.076-1.092l-5.599-4.933
				l-4.857,0.638l-5.352-3.076L-202.768,346.024z"/>
			<path id="path3443" inkscape:transform-center-y="7.930625" fill="#6A4531" fill-opacity="0.526" d="M-250.726,305.488
				l9.115,1.638l4.503,4.132l8.143,1.765l6.693,5.734l5.829-0.766l5.845,6.79l0.956-7.684l-8.883-7.336l-6.076-1.091l-5.599-4.934
				l-4.857,0.638l-5.352-3.076L-250.726,305.488z"/>
			<path id="path3445" inkscape:transform-center-y="7.930622" fill="#6A4531" fill-opacity="0.526" d="M-215.106,315.257
				l9.114,1.638l4.503,4.132l8.143,1.765l6.693,5.734l5.829-0.766l5.846,6.791l0.956-7.684l-8.884-7.336l-6.076-1.091l-5.598-4.934
				l-4.858,0.638l-5.351-3.076L-215.106,315.257z"/>
			
				<path id="path3447" inkscape:transform-center-x="0.713415" inkscape:transform-center-y="8.2183673" fill="#6A4531" fill-opacity="0.526" d="
				M-176.591,327.723l8.889,2.586l4.039,4.583l7.909,2.61l6.046,6.405l5.879-0.149l5.09,7.367l1.768-7.54l-8.054-8.229l-5.926-1.724
				l-5.042-5.494l-4.899,0.124l-4.994-3.621L-176.591,327.723z"/>
			<path id="path3449" inkscape:transform-center-y="7.930625" fill="#6A4531" fill-opacity="0.526" d="M-220.586,286.976
				l9.114,1.637l4.503,4.132l8.143,1.765l6.693,5.734l5.83-0.766l5.845,6.791l0.956-7.684l-8.883-7.336l-6.077-1.092l-5.598-4.933
				l-4.857,0.638l-5.352-3.076L-220.586,286.976z"/>
			
				<path id="path3435" inkscape:transform-center-x="1.718385" inkscape:transform-center-y="8.469435" fill="#6A4531" fill-opacity="0.526" d="
				M-140.205,344.966l8.395,3.89l3.297,5.136l7.423,3.768l5.004,7.239l5.834,0.735l3.913,8.045l2.893-7.188l-6.712-9.342
				l-5.597-2.593l-4.15-6.188l-4.861-0.612l-4.388-4.329L-140.205,344.966z"/>
			<path id="path3460" sodipodi:nodetypes="cscccsccccc" fill="#908B85" fill-opacity="0.25" d="M-286.251,321.214
				c-14.16,11.962-23.493,33.077-4.142,71.527c1.146,2.275,2.348,4.537,3.536,6.755l1.257,0.323c0,0,67.231,41.299,84.333,44.88
				c42.089,12.111,77.399,19.849,108.074,0.008c10.722-6.936-19.007-53.123-19.007-53.123l-62.966-29.563l-70.086-23.595
				l-32.064-15.36L-286.251,321.214z"/>
			<path id="path3464" sodipodi:nodetypes="cscscc" fill="#6A4531" fill-opacity="0.526" d="M-288.234,331.121
				c0,0,1.741,6.273,3.563,8.267c3.009,3.292,13.066,7.086,13.066,7.086s-4.025-8.06-4.751-11.81c-0.404-2.087,0-7.085,0-7.085
				L-288.234,331.121z"/>
			<path id="path3466" sodipodi:nodetypes="czczc" fill="#6A4531" fill-opacity="0.526" d="M-262.1,352.379
				c0,0,7.084,13.865,10.69,17.714s11.879,8.267,11.879,8.267s-3.675-11.264-7.127-15.352
				C-250.11,358.919-262.1,352.379-262.1,352.379z"/>
			<path id="path3468" sodipodi:nodetypes="cscsc" fill="#6A4531" fill-opacity="0.526" d="M-233.591,355.922
				c0,0,8.919,14.21,14.255,18.895c2.156,1.894,8.315,4.725,8.315,4.725s-3.641-11.662-7.127-15.353
				C-221.757,360.368-233.591,355.922-233.591,355.922z"/>
			<path id="path3470" sodipodi:nodetypes="cscsc" fill="#6A4531" fill-opacity="0.526" d="M-200.329,364.188
				c0,0,7.342,13.202,11.879,17.714c2.728,2.714,10.69,7.086,10.69,7.086s-2.611-7.869-4.751-10.629
				C-186.697,372.963-200.329,364.188-200.329,364.188z"/>
			<path id="path3472" sodipodi:nodetypes="cscsc" fill="#6A4531" fill-opacity="0.526" d="M-173.84,378.391
				c0,0,9.032,15.629,14.255,21.257c5.854,6.31,22.569,17.715,22.569,17.715s-4.96-15.951-9.503-21.258
				C-152.871,388.683-173.84,378.391-173.84,378.391z"/>
			<path id="path3474" sodipodi:nodetypes="cscsc" fill="#6A4531" fill-opacity="0.526" d="M-197.937,390.2
				c0,0,6.96,12.235,11.879,15.353c2.774,1.758,10.691,2.361,10.691,2.361s-4.933-9.102-8.315-11.81
				C-187.296,393.212-197.937,390.2-197.937,390.2z"/>
			<path id="path3476" sodipodi:nodetypes="cscsc" fill="#6A4531" fill-opacity="0.526" d="M-228.041,383.881
				c0,0,5.73,10.711,9.503,14.172c2.7,2.477,10.691,5.904,10.691,5.904s-1.177-8.982-3.564-11.81
				C-215.006,387.891-228.041,383.881-228.041,383.881z"/>
			<path id="path3270" sodipodi:nodetypes="cscsc" fill="#6A4531" fill-opacity="0.526" d="M-281.6,358.066
				c0,0,1.355,8.839,3.563,11.809c3.061,4.117,14.255,9.448,14.255,9.448s-4.239-9.612-7.128-12.991
				C-273.543,363.25-281.6,358.066-281.6,358.066z"/>
			<path id="path3272" sodipodi:nodetypes="csccc" fill="#6A4531" fill-opacity="0.526" d="M-279.207,382.793
				c0,0,1.356,8.84,3.563,11.81c3.062,4.117,14.255,9.448,14.255,9.448s-4.366-9.76-7.127-12.991
				C-271.276,387.829-279.207,382.793-279.207,382.793z"/>
			<path id="path3274" sodipodi:nodetypes="cscsc" fill="#6A4531" fill-opacity="0.526" d="M-250.491,385.984
				c0,0,1.356,8.839,3.564,11.809c3.061,4.118,14.254,9.448,14.254,9.448s-4.239-9.611-7.127-12.99
				C-242.434,391.169-250.491,385.984-250.491,385.984z"/>
			<path id="path3276" sodipodi:nodetypes="csczc" fill="#6A4531" fill-opacity="0.526" d="M-258.468,403.532
				c0,0,1.356,8.84,3.564,11.81c3.061,4.117,14.254,9.448,14.254,9.448s-4.366-9.76-7.127-12.991
				C-250.537,408.568-258.468,403.532-258.468,403.532z"/>
			<path id="path3278" sodipodi:nodetypes="czczc" fill="#6A4531" fill-opacity="0.526" d="M-236.133,413.104
				c0,0,0.93,8.266,3.563,11.81c2.635,3.544,14.255,9.447,14.255,9.447s-4.366-9.76-7.127-12.99
				C-228.203,418.141-236.133,413.104-236.133,413.104z"/>
			<path id="path3480" sodipodi:nodetypes="cscsc" fill="#6A4531" fill-opacity="0.526" d="M-194.78,414.969
				c0,0,0.736,7.028,2.376,9.447c2.714,4.005,13.066,9.448,13.066,9.448s-0.495-7.957-2.376-10.629
				C-184.384,419.442-194.78,414.969-194.78,414.969z"/>
			<path id="path3482" sodipodi:nodetypes="cscsc" fill="#6A4531" fill-opacity="0.526" d="M-169.444,416.149
				c0,0,0.444,7.994,2.376,10.629c2.923,3.987,14.255,8.267,14.255,8.267s-3.772-6.896-5.939-9.447
				C-161.525,422.335-169.444,416.149-169.444,416.149z"/>
			<path id="path3484" sodipodi:nodetypes="cscsc" fill="#6A4531" fill-opacity="0.526" d="M-146.874,420.874
				c0,0,2.503,7.209,4.751,9.447c2.257,2.246,9.503,4.724,9.503,4.724s0.318-6.264-1.188-8.267
				C-136.393,423.34-146.874,420.874-146.874,420.874z"/>
			<path id="path3488" sodipodi:nodetypes="cscsc" fill="#6A4531" fill-opacity="0.526" d="M-126.681,419.692
				c0,0,2.712,6.262,4.752,8.267c2.613,2.569,10.691,5.905,10.691,5.905s0.204-9.279-2.376-11.81
				C-116.458,419.266-126.681,419.692-126.681,419.692z"/>
			<path id="path3492" sodipodi:nodetypes="cscssc" fill="#6A4531" fill-opacity="0.526" d="M-249.586,437.613
				c0,0,15.467,18.884,39.839,37.3c10.617,8.021,39.258,20.733,39.258,20.733s-18.24-18.398-26.643-25.649
				c-10.462-9.027-24.368-21.455-36.471-28.159C-238.472,439.141-249.586,437.613-249.586,437.613z"/>
			<path id="path3494" sodipodi:nodetypes="cscssc" fill="#6A4531" fill-opacity="0.526" d="M-209.068,439.975
				c0,0,14.258,19.813,37.434,39.713c10.096,8.669,37.888,23.144,37.888,23.144s-17.057-19.501-24.99-27.262
				c-9.879-9.663-22.981-22.934-34.642-30.381C-198.071,442.193-209.068,439.975-209.068,439.975z"/>
			<path id="path3498" sodipodi:nodetypes="cscssc" fill="#6A4531" fill-opacity="0.526" d="M-177.552,443.068
				c0,0,14.508,19.63,37.935,39.234c10.205,8.54,38.179,22.661,38.179,22.661s-17.304-19.283-25.335-26.942
				c-10-9.537-23.271-22.641-35.024-29.938C-166.527,445.146-177.552,443.068-177.552,443.068z"/>
			<path id="path3500" sodipodi:nodetypes="cscssc" fill="#6A4531" fill-opacity="0.526" d="M-152.196,439.618
				c0,0,11.905,16.583,31.743,33.559c8.642,7.395,32.802,20.136,32.802,20.136s-14.408-16.432-21.162-23.012
				c-8.409-8.193-19.546-19.429-29.627-25.889C-142.498,441.813-152.196,439.618-152.196,439.618z"/>
			<path id="path3504" sodipodi:nodetypes="cscssc" fill="#6A4531" fill-opacity="0.526" d="M-128.315,432.733
				c0,0,8.983,12.4,23.953,25.095c6.521,5.53,24.751,15.058,24.751,15.058s-10.873-12.288-15.969-17.208
				c-6.345-6.127-14.748-14.529-22.355-19.359C-120.996,434.374-128.315,432.733-128.315,432.733z"/>
			<path id="path3508" inkscape:transform-center-y="7.9306202" fill="#6A4531" fill-opacity="0.526" d="M-159.101,366.083
				l9.114,1.637l4.503,4.133l8.143,1.765l6.693,5.734l5.829-0.766l5.845,6.79l0.956-7.684l-8.883-7.336l-6.076-1.091l-5.598-4.934
				l-4.858,0.638l-5.352-3.076L-159.101,366.083z"/>
			
				<path id="path3510" inkscape:transform-center-x="1.00197" inkscape:transform-center-y="8.3092774" fill="#6A4531" fill-opacity="0.526" d="
				M-127.426,386.625l8.769,2.964l3.837,4.751l7.789,2.947l5.763,6.658l5.879,0.104l4.767,7.577l2.093-7.457l-7.689-8.566
				l-5.846-1.976l-4.8-5.705l-4.899-0.086l-4.833-3.831L-127.426,386.625z"/>
			
				<path id="path3512" inkscape:transform-center-x="2.59217" inkscape:transform-center-y="8.5056798" fill="#6A4531" fill-opacity="0.526" d="
				M-109.253,368.549l7.783,4.991l2.562,5.535l6.837,4.737l3.966,7.851l5.678,1.519l2.774,8.501l3.851-6.729l-5.369-10.165
				l-5.188-3.327l-3.264-6.692l-4.731-1.266l-3.753-4.883L-109.253,368.549z"/>
			<path id="path3516" fill="#5D4324" fill-opacity="0.5195" d="M-63.722,414.969l54.643,51.962l-84.34-37.79l28.509,3.542
				L-63.722,414.969z"/>
			<path id="path3518" sodipodi:nodetypes="csccc" fill="#5D4324" fill-opacity="0.5195" d="M-85.446,477.38
				c0,0,129.155,91.053,153.694,93.424c5.289,0.511-1.301-17.664-1.301-17.664l-3.564,3.543L-85.446,477.38z"/>
			<path id="path3520" sodipodi:nodetypes="ccccc" fill="#5D4324" fill-opacity="0.5195" d="M-81.255,462.328l138.698,82.545
				l-7.127-16.533l-4.752,3.543L-81.255,462.328z"/>
			<path id="path3522" sodipodi:nodetypes="ccccc" fill="#5D4324" fill-opacity="0.5195" d="M-99.966,430.114L36.062,516.53
				l-4.752-12.99l-3.564,2.361L-99.966,430.114z"/>
			<path id="path3524" sodipodi:nodetypes="cczc" fill="#5D4324" fill-opacity="0.5195" d="M-100.889,501.328l142.386,66.184
				c0,0-81.875-51.009-102.746-59.52S-100.889,501.328-100.889,501.328z"/>
			<path id="path3526" sodipodi:nodetypes="cccscs" fill="#5D4324" fill-opacity="0.5195" d="M-159.942,499.116
				c33.312,9.254,106.739,43.445,106.739,43.445l46.504,21.156c0,0-72.125-18.012-113.037-34.698
				c-22.3-9.096-72.28-34.928-72.28-34.928S-169.325,496.51-159.942,499.116z"/>
			<path id="path3528" sodipodi:nodetypes="ccsc" fill="#5D4324" fill-opacity="0.5195" d="M-131.826,503.841L9.517,565.528
				c0,0-82.481-47.558-121.714-61.638C-117.74,501.901-131.826,503.841-131.826,503.841z"/>
			<path id="path3291" sodipodi:nodetypes="cscsc" fill="#6A4531" fill-opacity="0.526" d="M-217.171,413.822
				c0,0,0.736,7.028,2.376,9.448c2.714,4.004,13.066,9.447,13.066,9.447s-0.495-7.957-2.375-10.629
				C-206.774,418.296-217.171,413.822-217.171,413.822z"/>
			<path id="path2526" sodipodi:nodetypes="cccccccccccccccccccccccccccccccccccccscccc" fill="#896A57" d="M-216.122,262.29
				l20.781,11.875l3.313,5.156l7.406,3.75l5,7.25l5.844,0.719l1.375,2.813l-11.813,5.344l8.813,2.875l3.906,4.688l7.813,2.875
				l5.844,6.594l5.875,0.031l4.875,7.5l1.969-7.313l0.594,0.281l3.281,5.156l7.438,3.75l5,7.25l5.813,0.719l0.031,0.094h-0.094
				l0.156,0.063l3.844,7.906l1.969-4.969l2.281,1.156l3.125,5.25l7.281,4.031l4.75,7.406l5.781,0.938l3.625,8.188l1.656-3.75
				l4.094,2.531l2.656,5.5l6.938,4.625l4.094,7.781l5.688,1.406c0,0,13.623,8.966,19.334,12.992
				c11.65,8.214,38.209,28.243,38.209,28.243l-44.837-42.699c-43.061-43.778-111.095-89.657-146.3-115.724L-216.122,262.29z"/>
		</g>
	</g>
</g>
</svg>
