<?xml version="1.0" encoding="utf-8"?>
<!-- Generator: Adobe Illustrator 15.0.0, SVG Export Plug-In . SVG Version: 6.00 Build 0)  -->
<!DOCTYPE svg PUBLIC "-//W3C//DTD SVG 1.1 Basic//EN" "http://www.w3.org/Graphics/SVG/1.1/DTD/svg11-basic.dtd">
<svg version="1.1" baseProfile="basic" id="Шар_1"
	 xmlns="http://www.w3.org/2000/svg" xmlns:xlink="http://www.w3.org/1999/xlink" x="0px" y="0px" width="400px" height="260px"
	 viewBox="0 0 400 260" xml:space="preserve">
<path id="main_color" fill="#F67F00" d="M195.578,106.489c-8-6.5,2.35-7.01,2.25-7.25c-14.25-35.5-37.23-51.17-39-52
	c-5.46-2.56-8.101-2.32-7.13-3.61c0.96-1.29,7.27,2.75,8.13,3.36c25.25,18,39,52,39,52s1.75,1,2,0.25c10-29.5,30-45,36.75-51.25
	s10.3-6.86,1,0.25c-28.75,22-36.99,50.65-36.5,50.75c11.5,2.5,0.5,8,1,7.5c3.02-3.02,3,6,3,6s17-35,83.499-79.5
	c4.101-2.74,147.5-81,97.5,14.5c-2.59,4.96-20,25-20,25s1.5,8.5-4.5,15.5c-1.029,1.2-3.5,13-9.5,19.5c-1.689,1.84-0.02-1.58,0,0
	c0.5,30-24.069,29.34-22.5,29.5c9.5,1,10.86,13.33,11,13.5c5.5,6.5,3.5,8,5.5,11c10.801,16.189-0.59,15.22,1,18
	c4,7-0.84,9.891,0.5,12c3.5,5.5-2.579,9.01-2.5,10.5c0.5,8.5-5.159,5.4-5,9c0.5,11-3.5,6.5-6,10.5c-7.5,12-10.369,7.55-11,9
	c-3,7-7.02,5.32-8.5,7c-3.5,4-7,4-8.5,5.5c-7,7-10.97,2.061-12,2.5c-15.999,7-23.499,1.34-25.999,1.5c-7.5,0.5-6.351-0.66-8.5-2.5
	c-31.5-27-50-66-53.5-71c-1.431-2.04-4.48-13.71-3.5-11c2,5.5,1,54.5-4.5,54.5c-5.5,0-6-46-2.5-54.5c1.1-2.67-0.931,7.891-3.54,11
	c-5.46,6.5-22.29,44-54.2,71c-2.17,1.84-1.01,3-8.61,2.5c-2.52-0.16-10.13,5.5-26.33-1.5c-1.04-0.439-5.069,4.5-12.159-2.5
	c-1.521-1.5-5.061-1.5-8.61-5.5c-1.49-1.68-5.57,0-8.61-7c-0.63-1.45-3.54,3-11.14-9c-2.53-4-6.59,0.5-6.08-10.5
	c0.17-3.6-5.57-0.5-5.06-9c0.09-1.49-6.08-5-2.54-10.5c1.359-2.109-3.54-5,0.51-12c1.609-2.78-9.92-1.811,1.01-18
	c2.03-3,0-4.5,5.57-11c0.149-0.17,1.52-12.5,11.149-13.5c1.59-0.16-23.3,0.5-22.79-29.5c0.021-1.58,1.71,1.84,0,0
	c-6.08-6.5-8.58-18.3-9.63-19.5c-6.08-7-4.56-15.5-4.56-15.5s-17.63-20.04-20.25-25c-50.65-95.5,94.609-17.24,98.76-14.5
	c67.36,44.5,83.78,79.5,83.78,79.5s0.359-2.55,1-4C194.887,107.049,195.807,106.679,195.578,106.489z"/>
<path id="dark" d="M195.584,106.279c-8-6.5,2.34-7.02,2.25-7.25c-14.25-35.5-37.23-51.17-39-52c-5.46-2.56-8.101-2.32-7.141-3.61
	s7.28,2.75,8.141,3.36c25.25,18,39,52,39,52s1.75,1,2,0.25c10-29.5,30-45,36.75-51.25s10.3-6.86,1,0.25
	c-28.75,22-36.99,50.64-36.5,50.75c11.5,2.5,0.5,8,1,7.5c3.02-3.02,3,6,3,6s17-35,83.499-79.5c4.091-2.74,147.5-81,97.5,14.5
	c-2.59,4.95-20,25-20,25s1.5,8.5-4.5,15.5c-1.029,1.2-3.5,13-9.5,19.5c-1.689,1.84-0.029-1.58,0,0c0.5,30-24.069,29.34-22.5,29.5
	c9.5,1,10.851,13.33,11,13.5c5.5,6.5,3.5,8,5.5,11c10.79,16.19-0.59,15.22,1,18c4,7-0.84,9.89,0.5,12c3.5,5.5-2.59,9-2.5,10.5
	c0.5,8.5-5.159,5.399-5,9c0.5,11-3.5,6.5-6,10.5c-7.5,12-10.38,7.55-11,9c-3,7-7.029,5.319-8.5,7c-3.5,4-7,4-8.5,5.5
	c-7,7-10.97,2.05-12,2.5c-15.999,7-23.499,1.33-25.999,1.5c-7.5,0.5-6.351-0.66-8.5-2.5c-31.5-27-50-66-53.5-71
	c-1.431-2.05-4.49-13.71-3.5-11c2,5.5,1,54.5-4.5,54.5s-6-46-2.5-54.5c1.1-2.67-0.931,7.88-3.54,11c-5.46,6.5-22.29,44-54.2,71
	c-2.17,1.84-1.01,3-8.61,2.5c-2.52-0.17-10.13,5.5-26.33-1.5c-1.04-0.45-5.069,4.5-12.16-2.5c-1.52-1.5-5.06-1.5-8.609-5.5
	c-1.49-1.681-5.57,0-8.61-7c-0.63-1.45-3.55,3-11.14-9c-2.54-4-6.59,0.5-6.08-10.5c0.17-3.601-5.57-0.5-5.07-9
	c0.09-1.5-6.069-5-2.529-10.5c1.359-2.11-3.54-5,0.51-12c1.609-2.78-9.92-1.81,1.01-18c2.03-3,0-4.5,5.57-11
	c0.149-0.17,1.52-12.5,11.149-13.5c1.59-0.16-23.3,0.5-22.8-29.5c0.03-1.58,1.72,1.84,0,0c-6.07-6.5-8.58-18.3-9.62-19.5
	c-6.08-7-4.56-15.5-4.56-15.5s-17.63-20.05-20.26-25c-50.641-95.5,94.619-17.24,98.77-14.5c67.36,44.5,83.78,79.5,83.78,79.5
	s0.359-2.55,1-4C194.894,106.839,195.814,106.469,195.584,106.279z M234.084,119.779c3.04-0.1,9.229,3.05,13,2
	c25.43-7.06,73.319-0.56,76.499,0.5c12,4,20-24.5-5.5-24.5c-31.529,0-25-2-45.999-5c-1.78-0.25-27.521,9.3-51.5,23
	C217.084,117.779,219.084,120.279,234.084,119.779z M215.084,114.779c2.54,0.28,15-8.5,54-24c2.369-0.94,2.5-6,23.499-15.5
	c1.37-0.62-0.5-4,14-16c7.17-5.93-17.499-5-22.999-4s-19,12-19,12s15.18-12.07,10-10.5c-11.5,3.5-41.5,36.5-51.5,50.5s16.5-24,23-30
	S196.584,112.779,215.084,114.779z M327.583,95.279c14.521,2.91,13-18.5,5.5-19.5c-11.569-1.54-33.609-0.82-40,1.5
	c-16.499,6-20.829,12.03-19.499,12.5C302.083,99.779,322.583,94.279,327.583,95.279z M327.083,73.279c5.92,0.74,16,3,16.5-5
	c0.25-4.02,14,3,17,3.5c2.48,0.41-10.5-4.79-15-8c-3.5-2.5-4.109-5.36-4.5-5.5c-32-11.5-45.5,15.5-45.5,15.5
	S323.083,72.779,327.083,73.279z M392.583,29.279c-5-8-13.96-5.54-17-9c-14.5-16.5-48.08,4.66-20.5,2.5
	C387.083,20.279,393.174,30.229,392.583,29.279z M368.583,33.279c13.511,0,19.5,6,18.5,5c-7-7-13-5.5-14.5-7.5
	c-8.92-11.89-35.5,0.5-33.5,3.5S365.083,33.279,368.583,33.279z M322.083,42.779c-21,5-12,12.5-9.5,12
	C332.014,50.899,326.464,41.739,322.083,42.779z M332.583,18.779c-9.5,1-10.14,18.31-5.5,15
	C334.083,28.779,342.083,17.779,332.583,18.779z M307.583,42.279c14-5.5,3.5-8-1-7.5s-7.83,7.33-6.5,10
	C303.083,50.779,304.873,43.349,307.583,42.279z M351.583,87.779c4.5-2.5-1-8.5-5-6S347.083,90.279,351.583,87.779z M342.083,45.279
	c11.771,11.77,16.5,5.5,19,4.5c8.12-3.25,17,5.5,15.5,4c-7.279-7.28-12-6-13-7.5c-7.609-11.42-18.96-4.18-21.5-4
	c-7,0.5-15.689,5.41-12.5,4.5C333.083,45.779,340.583,43.779,342.083,45.279z M375.583,10.779c7-5-2.22-6.27-4-6
	C365.083,5.779,368.583,15.779,375.583,10.779z M216.584,147.779c5.5,6.5,67,104,57.5,71.5c-1.29-4.42,3.5,13.5,9,3.5
	c1.54-2.8,10.149-3.091-16.5-47.5c-1.5-2.5-22-10.5-42.5-33C220.984,138.869,212.014,142.379,216.584,147.779z M272.084,182.279
	c4.5,7,15.689,30.45,16.5,34c2.499,11,9.499-1.5,10.999-1c13.16,4.39,3.5-7.5,2.5-10.5c-9.17-27.5-30.499-25-30.499-25
	S267.584,175.279,272.084,182.279z M245.584,222.778c12.64,17.97,17.5,11,20,9c7.699-6.16-41.28-68.979-44.5-73
	C217.084,153.779,217.084,182.279,245.584,222.778z M292.083,185.779c6.5,5,13.74,26.069,17.5,25.5c10-1.5,4-10,6.5-8.5
	s7.5-1.17,6-4c-12.5-23.5-32-16-32-16S285.584,180.779,292.083,185.779z M227.584,135.279c-19.5,0,46.5,54,65.499,43.5
	c3.94-2.181-4.999-3.5-3.5-15c0.28-2.1-13.499-6-13.499-19c0-4.24-7.92-6-33-6C238.584,138.779,247.993,135.279,227.584,135.279z
	 M299.583,180.279c18.271,2.03,22.61,16.18,25,14.5c28.5-20-22.729-28.16-32-27C288.584,168.279,295.083,179.779,299.583,180.279z
	 M230.584,130.779c3.5,2.5,15.5,12.5,54,4c1.47-0.32-29-0.5-33-1.5S228.214,129.089,230.584,130.779z M297.083,165.279
	c37.5,9,27.601,2.739,29,2c8.5-4.5-0.79-5.39,0.5-7c4.21-5.26-7-8.5-30.5-11c-5.56-0.59-16.579-3.35-16.999-2.5
	C275.584,153.779,292.293,164.129,297.083,165.279z M303.083,148.779c32.5,5.5,12.11-4.69,12.5-5c11.5-9-26.499-9-26.499-9
	s-16.33,3.88-16,4.5C277.584,147.779,299.114,148.109,303.083,148.779z M241.584,220.278c0,0-29-46.5-23-65.5
	c1.21-3.81-13-22.5-6.5,9c0.1,0.49-1.23-6.69-3.5-10c-2.271-3.31-5.44-2.22-3.5,7.5
	C209.974,185.708,241.584,220.278,241.584,220.278z M281.084,50.279c7.5-2,4-4.5-0.5-5.5S273.584,52.279,281.084,50.279z
	 M179.364,115.779c-24.279-13.7-50.359-23.25-52.17-23c-21.27,3-14.649,5-46.59,5c-25.83,0-17.729,28.5-5.57,24.5
	c3.221-1.06,51.73-7.56,77.49-0.5c3.811,1.05,10.09-2.1,13.17-2C180.884,120.279,182.914,117.779,179.364,115.779z M153.533,77.279
	c6.58,6,33.431,44,23.301,30s-40.521-47-52.17-50.5c-5.24-1.57,10.13,10.5,10.13,10.5s-13.67-11-19.25-12
	c-5.57-1-30.551-1.93-23.29,4c14.68,12,12.79,15.38,14.18,16c21.271,9.5,21.4,14.56,23.8,15.5c39.51,15.5,52.13,24.28,54.7,24
	C203.674,112.779,146.954,71.279,153.533,77.279z M125.674,89.779c1.359-0.47-3.03-6.5-19.75-12.5c-6.47-2.32-28.8-3.04-40.521-1.5
	c-7.59,1-9.13,22.41,5.57,19.5C76.044,94.279,96.804,99.779,125.674,89.779z M103.394,73.779c0,0-13.68-27-46.09-15.5
	c-0.39,0.14-1.01,3-4.561,5.5c-4.55,3.21-17.699,8.41-15.189,8c3.04-0.5,16.96-7.52,17.22-3.5c0.5,8,10.72,5.74,16.71,5
	C75.533,72.779,103.394,73.779,103.394,73.779z M43.124,22.779c27.93,2.16-6.08-19-20.771-2.5c-3.08,3.46-12.149,1-17.22,9
	C4.533,30.229,10.704,20.279,43.124,22.779z M59.334,34.279c2.02-3-24.9-15.39-33.94-3.5c-1.52,2-7.6,0.5-14.689,7.5
	c-1.011,1,5.06-5,18.739-5C32.993,33.279,57.304,37.279,59.334,34.279z M76.554,42.779c21.27,5,12.15,12.5,9.62,12
	C66.493,50.899,72.114,41.739,76.554,42.779z M71.484,33.779c4.7,3.31,4.05-14-5.569-15C56.294,17.779,64.394,28.779,71.484,33.779z
	 M98.834,44.779c1.35-2.67-2.03-9.5-6.58-10c-4.561-0.5-15.2,2-1.021,7.5C93.984,43.349,95.794,50.779,98.834,44.779z
	 M51.734,81.779c-4.05-2.5-9.63,3.5-5.069,6C51.224,90.279,55.783,84.279,51.734,81.779z M68.954,46.779
	c3.229,0.91-5.57-4-12.66-4.5c-2.58-0.18-14.07-7.42-21.78,4c-1.021,1.5-5.8,0.22-13.17,7.5c-1.521,1.5,7.47-7.25,15.7-4
	c2.529,1,7.33,7.27,19.25-4.5C57.814,43.779,65.404,45.779,68.954,46.779z M26.404,4.779c-1.8-0.27-11.14,1-4.05,6
	S32.993,5.779,26.404,4.779z M175.823,142.279c-20.77,22.5-41.54,30.5-43.06,33c-26.99,44.409-18.271,44.7-16.71,47.5
	c5.57,10,10.43-7.92,9.12-3.5c-9.63,32.5,52.67-65,58.24-71.5C188.044,142.379,178.964,138.869,175.823,142.279z M127.704,179.779
	c0,0-21.61-2.5-30.9,25c-1.01,3-10.79,14.89,2.54,10.5c1.52-0.5,8.61,12,11.14,1c0.82-3.55,12.16-27,16.71-34
	C131.754,175.279,127.704,179.779,127.704,179.779z M178.854,158.779c-3.25,4.02-52.87,66.839-45.07,73c2.53,2,7.45,8.97,20.261-9
	C182.914,182.279,182.914,153.779,178.854,158.779z M108.964,182.779c0,0-19.75-7.5-32.41,16c-1.53,2.83,3.54,5.5,6.07,4
	c2.54-1.5-3.54,7,6.59,8.5c3.81,0.569,11.14-20.5,17.72-25.5C113.524,180.779,108.964,182.779,108.964,182.779z M156.573,138.779
	c-25.409,0-33.43,1.76-33.43,6c0,13-13.95,16.9-13.67,19c1.52,11.5-7.54,12.819-3.55,15c19.25,10.5,86.1-43.5,66.35-43.5
	C151.604,135.279,161.134,138.779,156.573,138.779z M106.434,167.779c-9.39-1.16-61.29,7-32.42,27c2.42,1.68,6.82-12.47,25.33-14.5
	C103.904,179.779,110.484,168.279,106.434,167.779z M147.964,133.279c-4.05,1-34.91,1.18-33.431,1.5c39,8.5,51.16-1.5,54.7-4
	C171.634,129.089,152.014,132.279,147.964,133.279z M120.104,146.779c-0.43-0.85-11.59,1.91-17.22,2.5
	c-23.8,2.5-35.16,5.74-30.891,11c1.301,1.61-8.109,2.5,0.5,7c1.421,0.739-8.609,7,29.381-2
	C106.724,164.129,123.654,153.779,120.104,146.779z M126.184,139.279c0.34-0.62-16.21-4.5-16.21-4.5s-38.49,0-26.84,9
	c0.399,0.31-20.26,10.5,12.66,5C99.823,148.109,121.624,147.779,126.184,139.279z M195.064,161.279c1.97-9.72-1.25-10.81-3.54-7.5
	c-2.3,3.31-3.649,10.49-3.55,10c6.59-31.5-7.8-12.81-6.58-9c6.07,19-23.3,65.5-23.3,65.5S190.114,185.708,195.064,161.279z
	 M118.584,44.779c-4.561,1-8.101,3.5-0.5,5.5C125.674,52.279,123.144,43.779,118.584,44.779z"/>
<path id="glare" fill="#FFF6E3" d="M355.694,52.389c-4.46,0.56-8.5,1-9.5-4.5s1.5-7.5,9-5.5S367.694,50.889,355.694,52.389z
	 M319.194,55.889c0,0-18.72,4.42-1.5-8.5c8-6,8.5-1,9,2C327.444,53.859,319.194,55.889,319.194,55.889z M376.194,15.389
	c-8.35-1.67-8-6.5,1-8.5C378.663,6.569,381.194,16.389,376.194,15.389z M381.194,15.389c2.5-0.5,6.5,0.5,7,4s-3.5,5.5-6,3.5
	S378.694,15.889,381.194,15.389z M375.194,26.389c2.5-1,10,0.5,9.5,3.5s-6.5,3.5-9,2S372.694,27.389,375.194,26.389z
	 M376.194,43.889c3-2.5,6.5,0,7.5,1.5s-4,3.5-5.5,4S373.194,46.389,376.194,43.889z M387.694,6.889c0,0,4,0,3,1.5s-4,1.5-4,1.5
	L387.694,6.889z M393.694,15.889c0,0,4,0,3,1.5s-4,1.5-4,1.5L393.694,15.889z M361.194,63.889c0,0,5,2,4,3.5s-2.5,4-6,0.5
	S361.194,63.889,361.194,63.889z M347.694,83.389c3-2.5,6.5,0,7.5,1.5s-4,3.5-5.5,4S344.694,85.889,347.694,83.389z M349.694,73.389
	c3-2.5,5.5,1,6.5,2.5s-3,2.5-4.5,3S346.694,75.889,349.694,73.389z M332.694,39.889c-3.57,0.2-9.5-1.5-0.5-7.5c8.32-5.54,8-4,8.5-1
	C341.444,35.859,336.264,39.699,332.694,39.889z M302.194,48.889c0,0-3.5-3,3.5-9c7.6-6.5,6.5-4,7-1
	C313.444,43.359,302.194,48.889,302.194,48.889z M333.194,22.389c0,0,6-1,5,0.5s-3.5,7-7,3.5S333.194,22.389,333.194,22.389z
	 M366.694,52.889c1.38,0,2.5,1.13,2.5,2.5c0,1.38-1.12,2.5-2.5,2.5c-1.37,0-2.5-1.12-2.5-2.5
	C364.194,54.019,365.323,52.889,366.694,52.889z M361.694,77.389c1.38,0,2.5,1.13,2.5,2.5c0,1.38-1.12,2.5-2.5,2.5
	c-1.37,0-2.5-1.12-2.5-2.5C359.194,78.519,360.323,77.389,361.694,77.389z M357.694,87.389c1.38,0,2.5,1.13,2.5,2.5
	c0,1.38-1.12,2.5-2.5,2.5c-1.37,0-2.5-1.12-2.5-2.5C355.194,88.519,356.323,87.389,357.694,87.389z M341.694,93.889
	c1.38,0,2.5,1.13,2.5,2.5c0,1.38-1.12,2.5-2.5,2.5c-1.37,0-2.5-1.12-2.5-2.5C339.194,95.019,340.323,93.889,341.694,93.889z
	 M350.194,95.389c1.38,0,4,2.13,4,3.5c0,1.38-2.62,1.5-4,1.5c-1.37,0-2.5-1.12-2.5-2.5
	C347.694,96.519,348.823,95.389,350.194,95.389z M374.194,56.389c1.38,0,2.5,1.13,2.5,2.5c0,1.38-1.12,2.5-2.5,2.5
	c-1.37,0-2.5-1.12-2.5-2.5C371.694,57.519,372.823,56.389,374.194,56.389z M387.694,32.889c1.38,0,2.5,1.13,2.5,2.5
	c0,1.38-1.12,2.5-2.5,2.5c-1.37,0-2.5-1.12-2.5-2.5C385.194,34.019,386.323,32.889,387.694,32.889z M292.694,40.889
	c2.32,0.93,13.5-6.5,10-7.5S290.194,39.889,292.694,40.889z M311.694,27.889c2.5,0.5,10-2.5,6.5-3.5S309.054,27.369,311.694,27.889z
	 M263.694,58.389c5.5-3,21-10.5,13.5-9.5S258.974,60.969,263.694,58.389z M356.194,8.889c2.5,0.5,10-2.5,6.5-3.5
	S353.554,8.369,356.194,8.889z M284.194,45.389c2.5,0.5,7.5-2,4-3S281.554,44.869,284.194,45.389z M347.194,107.889
	c1.38,0,2.5,1.63,2.5,3c0,1.38-0.62,1.5-2,1.5c-1.37,0-2.5-1.12-2.5-2.5C345.194,108.519,345.823,107.889,347.194,107.889z
	 M339.694,107.389c1.38,0,3.5,0.63,3.5,2c0,1.38-2.62,1-4,1c-1.37,0-2.5-1.12-2.5-2.5
	C336.694,106.519,338.323,107.389,339.694,107.389z M341.694,121.889c1.38,0,4,2.13,4,3.5c0,1.38-2.62,1.5-4,1.5
	c-1.37,0-2.5-1.12-2.5-2.5C339.194,123.019,340.323,121.889,341.694,121.889z M329.694,142.389c4-1,4,1,5,4.5s8.07,14.88-3.5,1
	C328.694,144.889,325.694,143.389,329.694,142.389z M341.694,154.389c1.38,0,2.5,1.13,2.5,2.5c0,1.38-1.12,2.5-2.5,2.5
	c-1.37,0-2.5-1.12-2.5-2.5C339.194,155.519,340.323,154.389,341.694,154.389z M344.194,163.389c1.38,0,2.5,1.13,2.5,2.5
	c0,1.379-1.12,2.5-2.5,2.5c-1.37,0-2.5-1.121-2.5-2.5C341.694,164.519,342.823,163.389,344.194,163.389z M344.364,172.389
	c1.37,0,3.33,3.129,3.33,4.5c0,1.379-1.12,2.5-2.5,2.5c-1.37,0-4.16-1.621-4.16-3C341.033,175.018,342.984,172.389,344.364,172.389z
	 M345.694,188.389c1.38,0,1,0.129,1,1.5c0,1.379-0.12,0.5-1.5,0.5c-1.37,0-1,0.879-1-0.5
	C344.194,188.518,344.323,188.389,345.694,188.389z M332.194,155.389c1.38,0,1,0.13,1,1.5c0,1.38-0.12,0.5-1.5,0.5
	c-1.37,0-1,0.88-1-0.5C330.694,155.519,330.823,155.389,332.194,155.389z M335.194,167.889c1.38,0,1,0.129,1,1.5
	c0,1.379,0.21,5-1.16,5c-1.38,0-1.34-3.621-1.34-5C333.694,168.018,333.823,167.889,335.194,167.889z M338.694,181.889
	c1.38,0,1,0.129,1,1.5c0,1.379-0.12,0.5-1.5,0.5c-1.37,0-1,0.879-1-0.5C337.194,182.018,337.323,181.889,338.694,181.889z
	 M332.533,195.389c1.37,0,1.16,0.129,1.16,1.5c0,1.379-0.29,0.5-1.66,0.5c-1.38,0-0.84,0.879-0.84-0.5
	C331.194,195.518,331.154,195.389,332.533,195.389z M341.364,198.729c1.37,0,2.67,1.949,2.67,3.33c0,1.369-2.96,3.83-4.34,3.83
	c-1.37,0-1,0.879-1-0.5C338.694,204.018,339.984,198.729,341.364,198.729z M335.694,213.059c1.38,0,3.67-0.381,3.67,1
	c0,1.369-3.29,3.83-4.67,3.83c-1.37,0-1,0.879-1-0.5C333.694,216.018,334.323,213.059,335.694,213.059z M327.194,205.889
	c1.38,0,1,0.129,1,1.5c0,1.379-0.12,0.5-1.5,0.5c-1.37,0-1,0.879-1-0.5C325.694,206.018,325.823,205.889,327.194,205.889z
	 M324.694,225.059c1.38,0,2.67,1.619,2.67,3c0,1.369-2.29,0.83-3.67,0.83c-1.37,0-1,0.879-1-0.5
	C322.694,227.018,323.323,225.059,324.694,225.059z M316.364,230.389c1.37,0,0.67,1.629,0.67,3c0,1.379-4.96,4.5-6.34,4.5
	c-1.37,0-1,0.879-1-0.5C309.694,236.018,314.984,230.389,316.364,230.389z M317.194,214.389c1.38,0,1,0.129,1,1.5
	c0,1.379-0.12,0.5-1.5,0.5c-1.37,0-1,0.879-1-0.5C315.694,214.518,315.823,214.389,317.194,214.389z M305.194,222.889
	c1.38,0,5.84,1.789,5.84,3.17c0,1.369-5.63,3.67-7,3.67c-1.38,0-2.34-2.301-2.34-3.67
	C301.694,224.678,303.823,222.889,305.194,222.889z M292.194,227.389c1.38,0,1,0.129,1,1.5c0,1.379-0.12,0.5-1.5,0.5
	c-1.37,0-1,0.879-1-0.5C290.694,227.518,290.823,227.389,292.194,227.389z M300.194,239.389c1.38,0,1,0.129,1,1.5
	c0,1.379-0.12,0.5-1.5,0.5c-1.37,0-1,0.879-1-0.5C298.694,239.518,298.823,239.389,300.194,239.389z M297.194,240.389
	c1.38,0,1,0.129,1,1.5c0,1.379-0.12,0.5-1.5,0.5c-1.37,0-1,0.879-1-0.5C295.694,240.518,295.823,240.389,297.194,240.389z
	 M285.694,240.729c0.92,0,2,1.41,2,2.33s-0.08,0.33-1,0.33c-0.91,0-3.33,1.25-3.33,0.34
	C283.364,242.809,284.783,240.729,285.694,240.729z M288.694,243.389c0.92,0,0.67,0.09,0.67,1c0,0.92-0.08,0.34-1,0.34
	s-0.67,0.58-0.67-0.34C287.694,243.479,287.783,243.389,288.694,243.389z M283.364,230.389c0.92,0,2.33,3.42,2.33,4.34
	c0,0.91-3.08,0.66-4,0.66c-0.91,0-2.33-2.75-2.33-3.66C279.364,230.809,282.444,230.389,283.364,230.389z M272.033,241.389
	c1.37,0,1.16,0.129,1.16,1.5c0,1.379-0.29,0.5-1.66,0.5c-1.38,0-0.84,0.879-0.84-0.5
	C270.694,241.518,270.654,241.389,272.033,241.389z M269.033,234.389c1.37,0-0.67,3.289-0.67,4.67c0,1.369-4.46,1.83-5.83,1.83
	c-1.38,0,1.16-1.791,1.16-3.16C263.694,236.348,267.654,234.389,269.033,234.389z M44.194,51.559c4.471,0.56,8.5,1,9.5-4.5
	s-1.5-7.5-9-5.5S32.194,50.059,44.194,51.559z M80.694,55.059c0,0,18.721,4.41,1.5-8.5c-8-6-8.5-1-9,2
	C72.454,53.029,80.694,55.059,80.694,55.059z M23.694,14.559c8.351-1.67,8-6.5-1-8.5C21.234,5.729,18.694,15.559,23.694,14.559z
	 M18.694,14.559c-2.5-0.5-6.5,0.5-7,4s3.5,5.5,6,3.5S21.194,15.059,18.694,14.559z M24.694,25.559c-2.5-1-10,0.5-9.5,3.5
	s6.5,3.5,9,2S27.194,26.559,24.694,25.559z M23.694,43.059c-3-2.5-6.5,0-7.5,1.5s4,3.5,5.5,4S26.694,45.559,23.694,43.059z
	 M12.194,6.059c0,0-4,0-3,1.5s4,1.5,4,1.5L12.194,6.059z M6.194,15.059c0,0-4,0-3,1.5s4,1.5,4,1.5L6.194,15.059z M38.694,63.059
	c0,0-5,2-4,3.5s2.5,4,6,0.5S38.694,63.059,38.694,63.059z M52.194,82.559c-3-2.5-6.5,0-7.5,1.5s4,3.5,5.5,4
	S55.194,85.059,52.194,82.559z M50.194,72.559c-3-2.5-5.5,1-6.5,2.5s3,2.5,4.5,3S53.194,75.059,50.194,72.559z M67.194,39.059
	c3.57,0.2,9.5-1.5,0.5-7.5c-8.319-5.55-8-4-8.5-1C58.454,35.029,63.624,38.859,67.194,39.059z M97.694,48.059c0,0,3.5-3-3.5-9
	c-7.59-6.51-6.5-4-7-1C86.454,42.529,97.694,48.059,97.694,48.059z M66.694,21.559c0,0-6-1-5,0.5s3.5,7,7,3.5
	S66.694,21.559,66.694,21.559z M33.194,52.059c-1.37,0-2.5,1.13-2.5,2.5c0,1.38,1.13,2.5,2.5,2.5c1.38,0,2.5-1.12,2.5-2.5
	C35.694,53.189,34.573,52.059,33.194,52.059z M38.194,76.559c-1.37,0-2.5,1.13-2.5,2.5c0,1.38,1.13,2.5,2.5,2.5
	c1.38,0,2.5-1.12,2.5-2.5C40.694,77.688,39.573,76.559,38.194,76.559z M42.194,86.559c-1.37,0-2.5,1.13-2.5,2.5
	c0,1.38,1.13,2.5,2.5,2.5c1.38,0,2.5-1.12,2.5-2.5C44.694,87.688,43.573,86.559,42.194,86.559z M58.194,93.059
	c-1.37,0-2.5,1.13-2.5,2.5c0,1.38,1.13,2.5,2.5,2.5c1.38,0,2.5-1.12,2.5-2.5C60.694,94.188,59.573,93.059,58.194,93.059z
	 M49.694,94.559c-1.37,0-4,2.13-4,3.5c0,1.38,2.63,1.5,4,1.5c1.38,0,2.5-1.12,2.5-2.5C52.194,95.688,51.073,94.559,49.694,94.559z
	 M25.694,55.559c-1.37,0-2.5,1.13-2.5,2.5c0,1.38,1.13,2.5,2.5,2.5c1.38,0,2.5-1.12,2.5-2.5
	C28.194,56.689,27.073,55.559,25.694,55.559z M12.194,32.059c-1.37,0-2.5,1.13-2.5,2.5c0,1.38,1.13,2.5,2.5,2.5
	c1.38,0,2.5-1.12,2.5-2.5C14.694,33.189,13.573,32.059,12.194,32.059z M107.194,40.059c-2.319,0.93-13.5-6.5-10-7.5
	S109.694,39.059,107.194,40.059z M88.194,27.059c-2.5,0.5-10-2.5-6.5-3.5S90.834,26.529,88.194,27.059z M136.194,57.559
	c-5.5-3-21-10.5-13.5-9.5S140.924,60.139,136.194,57.559z M43.694,8.059c-2.5,0.5-10-2.5-6.5-3.5S46.334,7.529,43.694,8.059z
	 M115.694,44.559c-2.5,0.5-7.5-2-4-3S118.334,44.029,115.694,44.559z M52.694,107.059c-1.37,0-2.5,1.63-2.5,3c0,1.38,0.63,1.5,2,1.5
	c1.38,0,2.5-1.12,2.5-2.5C54.694,107.688,54.073,107.059,52.694,107.059z M60.194,106.559c-1.37,0-3.5,0.63-3.5,2c0,1.38,2.63,1,4,1
	c1.38,0,2.5-1.12,2.5-2.5C63.194,105.688,61.573,106.559,60.194,106.559z M58.194,121.059c-1.37,0-4,2.13-4,3.5
	c0,1.38,2.63,1.5,4,1.5c1.38,0,2.5-1.12,2.5-2.5C60.694,122.188,59.573,121.059,58.194,121.059z M70.194,141.559c-4-1-4,1-5,4.5
	s-8.06,14.88,3.5,1C71.194,144.059,74.194,142.559,70.194,141.559z M58.194,153.559c-1.37,0-2.5,1.12-2.5,2.5
	c0,1.37,1.13,2.5,2.5,2.5c1.38,0,2.5-1.13,2.5-2.5C60.694,154.679,59.573,153.559,58.194,153.559z M55.694,162.559
	c-1.37,0-2.5,1.12-2.5,2.5c0,1.37,1.13,2.5,2.5,2.5c1.38,0,2.5-1.13,2.5-2.5C58.194,163.679,57.073,162.559,55.694,162.559z
	 M55.533,171.559c-1.38,0-3.34,3.119-3.34,4.5c0,1.369,1.13,2.5,2.5,2.5c1.38,0,4.17-1.631,4.17-3
	C58.864,174.178,56.904,171.559,55.533,171.559z M54.194,187.559c-1.37,0-1,0.119-1,1.5c0,1.369,0.13,0.5,1.5,0.5
	c1.38,0,1,0.869,1-0.5C55.694,187.678,55.573,187.559,54.194,187.559z M67.694,154.559c-1.37,0-1,0.12-1,1.5
	c0,1.37,0.13,0.5,1.5,0.5c1.38,0,1,0.87,1-0.5C69.194,154.679,69.073,154.559,67.694,154.559z M64.694,167.059c-1.37,0-1,0.12-1,1.5
	c0,1.369-0.2,5,1.17,5c1.38,0,1.33-3.631,1.33-5C66.194,167.178,66.073,167.059,64.694,167.059z M61.194,181.059
	c-1.37,0-1,0.119-1,1.5c0,1.369,0.13,0.5,1.5,0.5c1.38,0,1,0.869,1-0.5C62.694,181.178,62.573,181.059,61.194,181.059z
	 M67.364,194.559c-1.37,0-1.17,0.119-1.17,1.5c0,1.369,0.3,0.5,1.67,0.5c1.38,0,0.83,0.869,0.83-0.5
	C68.694,194.678,68.743,194.559,67.364,194.559z M58.533,197.889c-1.38,0-2.67,1.959-2.67,3.339c0,1.369,2.96,3.83,4.33,3.83
	c1.38,0,1,0.869,1-0.5C61.194,203.178,59.904,197.889,58.533,197.889z M64.194,212.229c-1.37,0-3.66-0.381-3.66,1
	c0,1.369,3.29,3.83,4.66,3.83c1.38,0,1,0.869,1-0.5C66.194,215.178,65.573,212.229,64.194,212.229z M72.694,205.059
	c-1.37,0-1,0.119-1,1.5c0,1.369,0.13,0.5,1.5,0.5c1.38,0,1,0.869,1-0.5C74.194,205.178,74.073,205.059,72.694,205.059z
	 M75.194,224.229c-1.37,0-2.66,1.619-2.66,3c0,1.369,2.29,0.83,3.66,0.83c1.38,0,1,0.869,1-0.5
	C77.194,226.178,76.573,224.229,75.194,224.229z M83.533,229.559c-1.38,0-0.67,1.619-0.67,3c0,1.369,4.96,4.5,6.33,4.5
	c1.38,0,1,0.869,1-0.5C90.194,235.178,84.904,229.559,83.533,229.559z M82.694,213.559c-1.37,0-1,0.119-1,1.5
	c0,1.369,0.13,0.5,1.5,0.5c1.38,0,1,0.869,1-0.5C84.194,213.678,84.073,213.559,82.694,213.559z M94.694,222.059
	c-1.37,0-5.83,1.789-5.83,3.17c0,1.369,5.63,3.66,7,3.66c1.38,0,2.33-2.291,2.33-3.66C98.194,223.848,96.073,222.059,94.694,222.059
	z M107.694,226.559c-1.37,0-1,0.119-1,1.5c0,1.369,0.13,0.5,1.5,0.5c1.38,0,1,0.869,1-0.5
	C109.194,226.678,109.073,226.559,107.694,226.559z M99.694,238.559c-1.37,0-1,0.119-1,1.5c0,1.369,0.13,0.5,1.5,0.5
	c1.38,0,1,0.869,1-0.5C101.194,238.678,101.073,238.559,99.694,238.559z M102.694,239.559c-1.37,0-1,0.119-1,1.5
	c0,1.369,0.13,0.5,1.5,0.5c1.38,0,1,0.869,1-0.5C104.194,239.678,104.073,239.559,102.694,239.559z M114.194,239.889
	c-0.91,0-2,1.42-2,2.34c0,0.91,0.09,0.33,1,0.33c0.92,0,3.34,1.25,3.34,0.33C116.533,241.979,115.114,239.889,114.194,239.889z
	 M111.194,242.559c-0.91,0-0.66,0.08-0.66,1s0.08,0.33,1,0.33c0.91,0,0.66,0.59,0.66-0.33S112.114,242.559,111.194,242.559z
	 M116.533,229.559c-0.92,0-2.34,3.42-2.34,4.33c0,0.92,3.09,0.67,4,0.67c0.92,0,2.34-2.75,2.34-3.67
	C120.533,229.979,117.444,229.559,116.533,229.559z M127.864,240.559c-1.37,0-1.17,0.119-1.17,1.5c0,1.369,0.3,0.5,1.67,0.5
	c1.38,0,0.83,0.869,0.83-0.5C129.194,240.678,129.243,240.559,127.864,240.559z M130.864,233.559c-1.37,0,0.67,3.289,0.67,4.67
	c0,1.369,4.46,1.83,5.83,1.83c1.38,0-1.17-1.791-1.17-3.17C136.194,235.518,132.243,233.559,130.864,233.559z M202.964,101.458
	c-1.37,0-1.17,0.13-1.17,1.5c0,1.38,0.3,0.5,1.67,0.5c1.38,0,0.83,0.88,0.83-0.5C204.294,101.589,204.344,101.458,202.964,101.458z
	 M197.464,101.458c-1.37,0-1.17,0.13-1.17,1.5c0,1.38,0.3,0.5,1.67,0.5c1.38,0,0.83,0.88,0.83-0.5
	C198.794,101.589,198.844,101.458,197.464,101.458z M202.964,110.458c-1.37,0-1.17,0.13-1.17,1.5c0,1.38,0.3,0.5,1.67,0.5
	c1.38,0,0.83,0.88,0.83-0.5C204.294,110.589,204.344,110.458,202.964,110.458z M196.864,110.359c-1.37,0-1.17,0.13-1.17,1.5
	c0,1.38,0.3,0.5,1.67,0.5c1.38,0,0.83,0.88,0.83-0.5C198.194,110.489,198.243,110.359,196.864,110.359z M204.964,120.958
	c-1.37,0-1,1.13-1,2.5c0,1.38,0.42,4.5,1.8,4.5c1.37,0,0.53-4.12,0.53-5.5C206.294,121.089,206.344,120.958,204.964,120.958z
	 M195.964,120.958c-1.37,0-1.4,1.23-1.4,2.6c0,1.38-0.97,4.6,0.4,4.6c1.38,0,1.8-3.82,1.8-5.2
	C196.764,121.589,197.344,120.958,195.964,120.958z"/>
</svg>
