<?xml version="1.0" encoding="utf-8"?>
<!-- Generator: Adobe Illustrator 15.0.0, SVG Export Plug-In . SVG Version: 6.00 Build 0)  -->
<!DOCTYPE svg PUBLIC "-//W3C//DTD SVG 1.1//EN" "http://www.w3.org/Graphics/SVG/1.1/DTD/svg11.dtd">
<svg version="1.1"
	 id="thunnus.svg" xmlns:dc="http://purl.org/dc/elements/1.1/" xmlns:cc="http://creativecommons.org/ns#" xmlns:rdf="http://www.w3.org/1999/02/22-rdf-syntax-ns#" xmlns:svg="http://www.w3.org/2000/svg"
	 xmlns="http://www.w3.org/2000/svg" xmlns:xlink="http://www.w3.org/1999/xlink" x="0px" y="0px" width="600px" height="285px"
	 viewBox="0 0 600 285" enable-background="new 0 0 600 285" xml:space="preserve">
<style type="text/css">
   <![CDATA[
    .tunnus-bg{fill:#FFFFFF;}
   ]]>
</style>
<g id="XMLID_1_">
	<g>
		<path class="tunnus-bg" d="M203.71,232.31c0,0,6.87,2.86,2.87,6.86s-4.67,44.33-4.67,44.33s-7.33-4.67-12-11
			c-4.66-6.33-18.33-41.17-18.33-41.17l0.02-0.18c8.03,0.83,15.89,1.229,23.48,1.18c2.93-0.021,5.81-0.061,8.63-0.14V232.31z"/>
		<path class="tunnus-bg" d="M329.68,203.91c4.15-1.98,8.03-3.91,11.73-5.74c8.14-4.03,19.479-8.8,31.83-13.67l0.06,0.16l4.78,4.17
			c0,0-1.67,0.34-4.5,1.5c-2.83,1.17-7,6.5-6.67,13.5c0.34,7,37.5,26.84,37.5,26.84s3.34,1.33-7.5,0.5
			c-10.83-0.84-17.16-1.34-32.16-12.5c-15-11.17-24.41-15.08-35.07-14.75V203.91z"/>
		<path class="tunnus-bg" d="M390.321,177.92l0.199,0.54l-4.05,8.5l-6.52-4.76l-0.11-0.28C383.3,180.58,386.81,179.24,390.321,177.92z"
			/>
		<path class="tunnus-bg" d="M403.88,173.44l-4.21,8.279l-9.15-3.26l-0.199-0.54c4.479-1.7,8.97-3.37,13.37-4.99L403.88,173.44z"/>
		<path class="tunnus-bg" d="M418.62,167.49l0.17,0.46l-5.31,7.99l-9.601-2.5l-0.189-0.511C408.84,171.04,413.861,169.21,418.62,167.49
			z"/>
		<path class="tunnus-bg" d="M430.54,163.22l0.19,0.53l-3.511,7.14l-8.43-2.939l-0.17-0.46C422.84,165.97,426.85,164.54,430.54,163.22z
			"/>
		<path class="tunnus-bg" d="M441.63,159.29l0.17,0.46l-3.189,6.83l-7.88-2.83l-0.19-0.53C434.68,161.75,438.42,160.42,441.63,159.29z"
			/>
		<path class="tunnus-bg" d="M453.91,156l-4.08,6.37l-8.03-2.62l-0.17-0.46c3.67-1.3,6.63-2.35,8.68-3.09
			c0.98-0.351,2.141-0.66,3.46-0.931L453.91,156z"/>
		<path class="tunnus-bg" d="M468.321,153.75l0.029,0.69l-7.479,6.979l-6.96-5.42l-0.141-0.73
			C457.56,154.49,462.63,154.03,468.321,153.75z"/>
		<path class="tunnus-bg" d="M479.54,154.12l-5.98,5.28l-5.21-4.96l-0.029-0.69c7.01-0.35,14.96-0.42,22.609-0.48l-5.41,5.131
			L479.54,154.12z"/>
		<path class="tunnus-bg" d="M553.08,79.17c21.72-16.04,35.83-19.67,35.83-19.67s-50.83,51.49-50.83,93.67c0,41,44.17,85,44.17,85
			s-16.17-2-30.84-14.84c-11.811-10.34-29-32.83-36.83-47.83c-4.17-7.98-18.85-21.94-18.85-21.94v-0.319
			c15.35-0.141,28.35-0.471,28.35-3.24c0-2.72-14.24-5.69-30.83-8.58l0.04-0.23c0,0,13.36-11.17,21.12-20.02
			C523.91,110.33,539.08,89.5,553.08,79.17z"/>
		<path class="tunnus-bg" d="M483.91,134.5l4.75,6.08l-0.01,0.05c-3.5-0.6-7.051-1.18-10.551-1.77l0.091-0.57L483.91,134.5z"/>
		<path class="tunnus-bg" d="M473.58,133.33l4.61,4.96l-0.091,0.57c-3.909-0.64-7.76-1.28-11.39-1.91l0.09-0.53L473.58,133.33z"/>
		<path class="tunnus-bg" d="M462.91,130.67l3.89,5.75l-0.09,0.53c-4.02-0.68-7.78-1.36-11.08-2.01l0.12-0.62L462.91,130.67z"/>
		<path class="tunnus-bg" d="M442.16,130.59l9.75-4.59l3.84,8.32l-0.12,0.62c-4.689-0.92-8.45-1.8-10.72-2.61
			c-0.94-0.34-1.94-0.7-2.99-1.09L442.16,130.59z"/>
		<path class="tunnus-bg" d="M438.58,121.17l3.58,9.42l-0.24,0.65c-4.17-1.56-9.13-3.52-14.62-5.77l0.32-0.79L438.58,121.17z"/>
		<path class="tunnus-bg" d="M422.58,115l5.04,9.68l-0.32,0.79c-4.71-1.93-9.819-4.06-15.16-6.32l0.261-0.6L422.58,115z"/>
		<path class="tunnus-bg" d="M408.91,109.5l3.49,9.05l-0.261,0.6c-4.609-1.95-9.39-4-14.239-6.08l0.239-0.55L408.91,109.5z"/>
		<path class="tunnus-bg" d="M394.25,101.5l3.89,11.02l-0.239,0.55c-5.45-2.34-10.98-4.73-16.431-7.09l0.28-0.65L394.25,101.5z"/>
		<path class="tunnus-bg" d="M376.08,95l5.67,10.33l-0.28,0.65c-4.35-1.88-8.66-3.74-12.84-5.55l0.05-0.12L376.08,95z"/>
		<path class="tunnus-bg" d="M354.08,39c10.39-6.17,24.57-11.7,25.3-11.98c-1.06,0.95-35.14,31.29-35.47,39.81
			c-0.29,7.73,3.83,16.71,8.67,19c6.33,3,9,4.34,9,4.34l-6.46,4.38l-0.03,0.07c-10.84-4.63-20.03-8.46-25.84-10.62
			c-5.86-2.18-13.69-4.65-23.2-7.08l0.021-0.09C306.071,76.83,343.41,45.33,354.08,39z"/>
		<path class="tunnus-bg" d="M490.93,153.27c-7.649,0.061-15.6,0.131-22.609,0.48c-5.69,0.28-10.761,0.74-14.551,1.52
			c-1.319,0.271-2.479,0.58-3.46,0.931c-2.05,0.74-5.01,1.79-8.68,3.09c-3.21,1.13-6.95,2.46-11.09,3.93
			c-3.69,1.32-7.7,2.75-11.92,4.271c-4.76,1.72-9.78,3.55-14.93,5.439c-4.4,1.62-8.891,3.29-13.37,4.99
			c-3.511,1.32-7.021,2.66-10.48,4c-2.229,0.86-4.43,1.72-6.6,2.58c-12.351,4.87-23.69,9.64-31.83,13.67
			c-3.7,1.83-7.58,3.76-11.73,5.74c-26.05,12.439-62.229,26.72-125.97,28.28c-2.82,0.079-5.7,0.119-8.63,0.14
			c-7.59,0.05-15.45-0.35-23.48-1.18C136.79,227.59,99,216.16,68.25,199.5c-37.84-20.5-66.47-37.09-64.67-42
			c1.83-5,23.39-1.34,32.67-1.83c9.33-0.5-27.67-21.34-27.67-21.34S62.91,100,88.66,89.25c19.13-7.98,44.84-17.49,79.06-21.84
			c11.85-1.52,24.72-2.41,38.69-2.41c33.54,0,62.89,3.9,85.6,8.67c5.01,1.06,9.7,2.15,14.04,3.25c9.51,2.43,17.34,4.9,23.2,7.08
			c5.81,2.16,15,5.99,25.84,10.62c4.29,1.83,8.84,3.78,13.54,5.81c4.18,1.81,8.49,3.67,12.84,5.55c5.45,2.36,10.98,4.75,16.431,7.09
			c4.85,2.08,9.63,4.13,14.239,6.08c5.341,2.26,10.45,4.39,15.16,6.32c5.49,2.25,10.45,4.21,14.62,5.77
			c1.05,0.39,2.05,0.75,2.99,1.09c2.27,0.81,6.03,1.69,10.72,2.61c3.3,0.65,7.061,1.33,11.08,2.01c3.63,0.63,7.48,1.27,11.39,1.91
			c3.5,0.59,7.051,1.17,10.551,1.77c1.54,0.26,3.08,0.53,4.6,0.79c16.59,2.89,30.83,5.86,30.83,8.58c0,2.77-13,3.1-28.35,3.24
			C494.151,153.25,492.55,153.26,490.93,153.27z"/>
		<path class="tunnus-bg" d="M292.02,73.62l-0.01,0.05C269.3,68.9,239.95,65,206.41,65c-13.97,0-26.84,0.89-38.69,2.41l-0.03-0.25
			L194.46,4.7c0,0-3.17,25.16,12.5,35.33c15.99,10.38,47.32,13.99,61.5,20.17C282.63,66.36,292.02,73.62,292.02,73.62z"/>
	</g>
	<g>
		<path fill="none" stroke="#000000" stroke-width="3" stroke-linecap="round" d="M171.6,231.15
			C136.79,227.59,99,216.16,68.25,199.5c-37.84-20.5-66.47-37.09-64.67-42c1.83-5,23.39-1.34,32.67-1.83
			c9.33-0.5-27.67-21.34-27.67-21.34S62.91,100,88.66,89.25c19.13-7.98,44.84-17.49,79.06-21.84c11.85-1.52,24.72-2.41,38.69-2.41
			c33.54,0,62.89,3.9,85.6,8.67c5.01,1.06,9.7,2.15,14.04,3.25c9.51,2.43,17.34,4.9,23.2,7.08c5.81,2.16,15,5.99,25.84,10.62
			c4.29,1.83,8.84,3.78,13.54,5.81c4.18,1.81,8.49,3.67,12.84,5.55c5.45,2.36,10.98,4.75,16.431,7.09
			c4.85,2.08,9.63,4.13,14.239,6.08c5.341,2.26,10.45,4.39,15.16,6.32c5.49,2.25,10.45,4.21,14.62,5.77
			c1.05,0.39,2.05,0.75,2.99,1.09c2.27,0.81,6.03,1.69,10.72,2.61c3.3,0.65,7.061,1.33,11.08,2.01c3.63,0.63,7.48,1.27,11.39,1.91
			c3.5,0.59,7.051,1.17,10.551,1.77c1.54,0.26,3.08,0.53,4.6,0.79c16.59,2.89,30.83,5.86,30.83,8.58c0,2.77-13,3.1-28.35,3.24
			c-1.58,0.01-3.181,0.02-4.801,0.029c-7.649,0.061-15.6,0.131-22.609,0.48c-5.69,0.28-10.761,0.74-14.551,1.52
			c-1.319,0.271-2.479,0.58-3.46,0.931c-2.05,0.74-5.01,1.79-8.68,3.09c-3.21,1.13-6.95,2.46-11.09,3.93
			c-3.69,1.32-7.7,2.75-11.92,4.271c-4.76,1.72-9.78,3.55-14.93,5.439c-4.4,1.62-8.891,3.29-13.37,4.99
			c-3.511,1.32-7.021,2.66-10.48,4c-2.229,0.86-4.43,1.72-6.6,2.58c-12.351,4.87-23.69,9.64-31.83,13.67
			c-3.7,1.83-7.58,3.76-11.73,5.74c-26.05,12.439-62.229,26.72-125.97,28.28c-2.82,0.079-5.7,0.119-8.63,0.14
			C187.49,232.38,179.63,231.98,171.6,231.15z"/>
		<path fill="none" stroke="#000000" stroke-width="3" stroke-linecap="round" d="M167.69,67.16L194.46,4.7
			c0,0-3.17,25.16,12.5,35.33c15.99,10.38,47.32,13.99,61.5,20.17c14.17,6.16,23.56,13.42,23.56,13.42"/>
		<path fill="none" stroke="#000000" stroke-width="3" stroke-linecap="round" d="M171.58,231.33c0,0,13.67,34.84,18.33,41.17
			c4.67,6.33,12,11,12,11s0.67-40.33,4.67-44.33s-2.87-6.86-2.87-6.86"/>
		<path fill="none" stroke="#000000" stroke-width="3" stroke-linecap="round" d="M329.68,203.92c10.66-0.33,20.07,3.58,35.07,14.75
			c15,11.16,21.33,11.66,32.16,12.5c10.84,0.83,7.5-0.5,7.5-0.5s-37.16-19.84-37.5-26.84c-0.33-7,3.84-12.33,6.67-13.5
			c2.83-1.16,4.5-1.5,4.5-1.5l-4.78-4.17"/>
		<path fill="none" stroke="#000000" stroke-width="3" stroke-linecap="round" d="M379.41,27c0,0-0.01,0-0.021,0.01
			c0,0,0,0.01-0.01,0.01c-1.06,0.95-35.14,31.29-35.47,39.81c-0.29,7.73,3.83,16.71,8.67,19c6.33,3,9,4.34,9,4.34l-6.46,4.38"/>
		<path fill="none" stroke="#000000" stroke-width="3" stroke-linecap="round" d="M306.071,76.83c0,0,37.34-31.5,48.01-37.83
			c10.39-6.17,24.57-11.7,25.3-11.98"/>
		<polyline fill="none" stroke="#000000" stroke-width="3" stroke-linecap="round" points="379.95,182.2 386.47,186.96 
			390.52,178.46 399.67,181.72 403.88,173.44 413.481,175.94 418.79,167.95 427.22,170.89 430.731,163.75 438.611,166.58 
			441.8,159.75 449.83,162.37 453.91,156 460.87,161.42 468.35,154.44 473.56,159.4 479.54,154.12 485.52,158.4 490.93,153.27 
			490.95,153.25 		"/>
		<polyline fill="none" stroke="#000000" stroke-width="3" stroke-linecap="round" points="368.68,100.31 376.08,95 381.75,105.33 
			394.25,101.5 398.14,112.52 408.91,109.5 412.401,118.55 422.58,115 427.62,124.68 438.58,121.17 442.16,130.59 451.91,126 
			455.75,134.32 462.91,130.67 466.8,136.42 473.58,133.33 478.191,138.29 483.91,134.5 488.66,140.58 		"/>
		<path fill="none" stroke="#000000" stroke-width="3" stroke-linecap="round" d="M493.29,141.19c0,0,13.36-11.17,21.12-20.02
			c9.5-10.84,24.67-31.67,38.67-42c21.72-16.04,35.83-19.67,35.83-19.67s-50.83,51.49-50.83,93.67c0,41,44.17,85,44.17,85
			s-16.17-2-30.84-14.84c-11.811-10.34-29-32.83-36.83-47.83c-4.17-7.98-18.85-21.94-18.85-21.94"/>
	</g>
</g>
<path id="path15" fill="none" stroke="#000000" stroke-width="3" stroke-linecap="round" d="M169.913,135
	c16.333-7.833,80.667-11.167,80.667-11.167s-29,29.333-47.667,32.667s-23.167,0.167-23.167,0.167"/>
<path id="path23" fill="none" stroke="#000000" stroke-width="3" stroke-linecap="round" d="M131.252,100.738
	c0,0,28.499,19.799,27.6,58.2c-0.9,38.399-31.199,58.797-40.499,56.099"/>
<path id="path25" fill="none" stroke="#000000" stroke-width="3" stroke-linecap="round" d="M112.054,124.137
	c10.5,6.9,10.359,15.613,10.199,23.4c-0.162,7.85,7.801,13.799,3,23.099c-4.8,9.3-16.84,21.739-31.84,18.989"/>
<circle id="circle27" class="tunnus-bg" stroke="#000000" cx="62.281" cy="132.123" r="11.714"/>
<path id="path29" fill="none" stroke="#000000" stroke-width="3" stroke-linecap="round" d="M65.038,153.75
	c0,0-0.416,2.148-5.283,5.432c-7.599,5.125-25.724-8.671-25.724-8.671"/>
<line id="line31" fill="none" stroke="#000000" stroke-width="3" stroke-linecap="round" x1="179.264" y1="61.77" x2="194.431" y2="35.5"/>
<line id="line33" fill="none" stroke="#000000" stroke-width="3" stroke-linecap="round" x1="193.246" y1="60.167" x2="203.246" y2="42.846"/>
<line id="line35" fill="none" stroke="#000000" stroke-width="3" stroke-linecap="round" x1="205.382" y1="61.143" x2="213.08" y2="47.811"/>
<line id="line37" fill="none" stroke="#000000" stroke-width="3" stroke-linecap="round" x1="219.176" y1="61.763" x2="224.671" y2="52.246"/>
<line id="line39" fill="none" stroke="#000000" stroke-width="3" stroke-linecap="round" x1="233.163" y1="62.367" x2="236.747" y2="55.75"/>
<line id="line41" fill="none" stroke="#000000" stroke-width="3" stroke-linecap="round" x1="246.365" y1="63.249" x2="248.58" y2="59.412"/>
<line id="line43" fill="none" stroke="#000000" stroke-width="3" stroke-linecap="round" x1="181.663" y1="237.625" x2="196.913" y2="265.5"/>
<line id="line45" fill="none" stroke="#000000" stroke-width="3" stroke-linecap="round" x1="190.038" y1="237.5" x2="198.288" y2="246.125"/>
<line id="line47" fill="none" stroke="#000000" stroke-width="3" stroke-linecap="round" x1="352.413" y1="200.625" x2="366.163" y2="212.5"/>
<line id="line49" fill="none" stroke="#000000" stroke-width="3" stroke-linecap="round" x1="358.163" y1="196.125" x2="360.913" y2="198.5"/>
<line id="line51" fill="none" stroke="#000000" stroke-width="3" stroke-linecap="round" x1="320.413" y1="75.75" x2="341.413" y2="56.375"/>
<line id="line53" fill="none" stroke="#000000" stroke-width="3" stroke-linecap="round" x1="332.413" y1="78" x2="337.413" y2="73.5"/>
<line id="line55" fill="none" stroke="#000000" stroke-width="3" stroke-linecap="round" x1="514.413" y1="136.375" x2="559.538" y2="83.5"/>
<line id="line57" fill="none" stroke="#000000" stroke-width="3" stroke-linecap="round" x1="523.538" y1="138.875" x2="537.288" y2="127.51"/>
<line id="line59" fill="none" stroke="#000000" stroke-width="3" stroke-linecap="round" x1="523.413" y1="159.125" x2="535.913" y2="173.5"/>
<line id="line61" fill="none" stroke="#000000" stroke-width="3" stroke-linecap="round" x1="515.413" y1="161.375" x2="551.788" y2="211.625"/>
<line id="line63" fill="none" stroke="#000000" stroke-width="3" stroke-linecap="round" x1="528.038" y1="145.25" x2="534.038" y2="142.5"/>
<line id="line65" fill="none" stroke="#000000" stroke-width="3" stroke-linecap="round" x1="528.288" y1="153.5" x2="533.788" y2="157.743"/>
<line id="line67" fill="none" stroke="#000000" stroke-width="3" stroke-linecap="round" x1="180.038" y1="141.5" x2="221.788" y2="134.5"/>
<line id="line69" fill="none" stroke="#000000" stroke-width="3" stroke-linecap="round" x1="180.663" y1="148.375" x2="211.663" y2="146.25"/>
<path id="path71" fill="none" stroke="#000000" stroke-width="3" stroke-linecap="round" d="M151.038,110.25
	c0,0,48.053-8.737,82.208-4.583c35.121,4.271,64.103,24.82,97.333,32.667c33.23,7.848,89.69,11.23,110,14"/>
<circle id="circle73" cx="62.413" cy="131.833" r="6.417"/>
<circle id="circle75" class="tunnus-bg" cx="61.007" cy="128.532" r="1.323"/>
<path id="path77" fill="none" stroke="#000000" stroke-width="3" stroke-linecap="round" d="M134.913,113.25
	c0,0-21.288,5.046-31,8.417c-8.167,2.833-21,9.167-21,9.167"/>
</svg>
