<?xml version="1.0" encoding="utf-8"?>
<!-- Generator: Adobe Illustrator 15.0.0, SVG Export Plug-In . SVG Version: 6.00 Build 0)  -->
<!DOCTYPE svg PUBLIC "-//W3C//DTD SVG 1.1//EN" "http://www.w3.org/Graphics/SVG/1.1/DTD/svg11.dtd">
<svg version="1.1" id="svg_toucan" xmlns="http://www.w3.org/2000/svg" xmlns:xlink="http://www.w3.org/1999/xlink" x="0px" y="0px"
	 width="302.14px" height="211.445px" viewBox="0 0 302.14 211.445" enable-background="new 0 0 302.14 211.445"
	 xml:space="preserve">
<g id="toucan">
	<path fill="#005BAB" d="M205.2,17.1c-33.601-9.7-42,19.1-48.2,22.6s-27.9,2.2-33.3,5.8C118.4,49,106.4,69,115.3,87.1
		c8.9,18.2,32.3,10.2,32.3,10.2s-10.6,11.1-29.7,19.9c-1,0.5-2.1,0.9-3.1,1.3c-1.6,6.2-3,17.3,5,23.4c0.4,0.4-10.8-0.9-13.9-3.1
		c-2.6-1.9-4.899-9.8-5.6-15.9c-10.9,2.1-19.6,1.1-25,0.5c-13.3,7.9-27.1,30.5-31.9,40.3c-4.899,9.8-11.899,26.9-19.3,31.2
		C18.7,198,4.7,195.6,3.1,183.2c-1.2-9.5,12.7-29.2,23.8-41.6C38,129.2,45.9,120.1,49,116.2c0.399-1.8,20.3-56.9,33.8-68
		c9.6-7.9,21.1-12.2,42.5-13.3c26.6-1.3,19.6-6.1,41.2-18.8C191.6,1.4,204.3,14.9,205.2,17.1z"/>
	<path fill="#FFE600" d="M122.8,95c-8.4-8.9-11.3-32-2.7-41.6c14.601-16.4,29.5-7.6,37.7-12.9c11.9-7.5,21-24.3,27-25.3
		c10.7-1.7,18-0.3,19.9,3.1c3.5,6.2-5.601,17.6-7.9,19.9c-3.6,3.6-0.4,14.2-0.4,14.2c-3.6,5.3-20.8,6.2-24.8,11.5
		c-4,5.3-10.899,30.7-26.1,34.1C137.4,99.9,130.3,103,122.8,95z"/>
	<path fill="#ED1C24" d="M60,106.1c-14.601,13.7-16.9,41.1-16.9,41.1c25.7-7,35.4-23.4,35.4-23.4C65.3,124.2,60,106.1,60,106.1z"/>
	<path fill="#ED1C24" d="M261.5,52.3c11.899,3.2-5.2,21,32.899,31.6C288.5,35.5,261.5,52.3,261.5,52.3z"/>
	<path fill="#6D67AF" d="M181.7,21.5c-4.101,6.4-0.801,13.3,4.5,14.6c7.6,1.8,17.3-5.2,15.5-13.3C199.9,14.9,185.1,16.2,181.7,21.5z
		"/>
	<path fill="#72BF44" d="M203.8,40c8.9-11.3,4.3-22.8,4.3-22.8c34.9,10.6,69.8,33.2,69.8,33.2s-8.199,2-20.399-1.1
		C246.4,46.4,234.8,33.3,203.8,40z"/>
	<path fill="#A96752" d="M62.7,90.5c7.199,9.1,15.6,13.9,36,34.5c20.399,20.6,30.8,28,38.8,34.2c8,6.1,21,20.6,25.6,21.3
		c4.601,0.7,8.3-2.4,8.3-2.4s-29.399-21-41.8-32.5C117.1,134.1,80.7,91.7,75.9,88.4C71.1,85.1,66.2,84.8,62.7,90.5z"/>
	<path fill="#F58220" d="M211,44.5c15.8-25.1,44.7,9.5,44.7,9.5C230.7,47.8,211,44.5,211,44.5z"/>
	<path fill="#F58220" d="M129.4,140.4c11.301,7.3-1.6,14.6-1.6,14.6s8.3,13.9,17.3,5c8.9-8.9,1.7-15.9-3-18
		C137.5,139.9,129.4,140.4,129.4,140.4z"/>
	<path fill="#F58220" d="M77.5,87.4c6.7,13-7.601,15.1-7.601,15.1s12.601,13,21.2,9.1c5.9-2.7,3.7-15.4-2.8-19.9
		S77.5,87.4,77.5,87.4z"/>
	<path fill="#F58220" d="M114.4,85.9c-0.5-9.9,4.301-25.8,4.301-25.8c4.8,11.8,2.199,23,2.199,23c5.301-5.8,8.601-7.7,8.601-7.7
		c0.7,14-2.3,21.6-2.3,21.6c18-1.8,27.1-10.8,27.1-10.8l-1.5,7.2c3.7-2.2,8.4-9.7,8.4-9.7c-0.5,8.9-8.7,19.5-8.7,19.5l-2.101-7.5
		c-12.5,9.9-30,2.9-30,2.9c-2.399-5.3-1.5-13.7-1.5-13.7L114.4,85.9z"/>
	<path fill="#003465" d="M64.3,88.6c0,0,0.9-5.3,5.5-5.5c2.1-0.1,3.7,1.8,6,5.3c1.9,3.1,4.5,6.1,4.5,6.1c-3.8-2.3-6.2-5.7-9.3-6.9
		C68,86.5,64.3,88.6,64.3,88.6z"/>
	<path fill="#003465" d="M93.3,108.4c0,0,11.1,11.6,16.8,16.6c5.7,4.9,10.9,9,14.7,12.6s9.3,11.1,9.3,11.1s-7.6-6.2-10.899-9
		c-3.301-2.8-14.101-10.2-19.5-16.2C98.4,117.7,93.3,108.4,93.3,108.4z"/>
	<path fill="#003465" d="M88.4,114.1c0,0,6.801,5.9,11.9,10.8s16.8,15.1,16.8,15.1s-10.899-4.7-18.3-12.9
		C91.4,118.9,88.4,114.1,88.4,114.1z"/>
	<path fill="#003465" d="M119,142.2c7.899,7.3,15.2,11.3,15.2,11.3l-2.9,2.1C126.2,151.5,119,142.2,119,142.2z"/>
	<path fill="#003465" d="M147.5,157.9c14.8,13.8,23.899,20.3,23.899,20.3c-13.199-6.3-25.5-17-25.5-17L147.5,157.9z"/>
	<path fill="#003465" d="M135.8,31.8c17.3-5.9,25.7-19.4,33.1-23.6c9.2-5.3,19-3.9,19-3.9L185.1,0c21.8-0.6,22.3,18.3,22.3,18.3
		c-4-10.4-15.1-12.8-15.1-12.8c2.4,2.6,4.5,6.7,4.5,6.7s-8.6-5.2-18.9-2.6C161.4,13.9,158.3,30.2,135.8,31.8z"/>
	<path fill="#003465" d="M113.3,57.4c0,0,5.2-12.8,14.7-16.9c11.1-4.8,18.399-2.9,26.7-6.1c12.1-4.7,15.199-15.8,23.199-19.7
		c9.2-4.5,18.301,1.6,18.301,1.6s-12.2-2-18.5,2.6c-8.101,5.9-10.2,16-21.101,20.5c-9.1,3.8-20.6,1.1-28,4.7
		C119.2,48.5,113.3,57.4,113.3,57.4z"/>
	<path fill="#003465" d="M206.1,18.6c0.101,6.1-2.6,14.4-10.6,18.5c-8.7,4.5-11.601-2.4-13-9.9c-2.4,18.9,9.2,17.9,10.6,16.6
		c-3.1,10,5.2,10.6,5.2,10.6c-4.9-6.2,1.1-13.3,5.3-20C207.5,28.1,207.5,21.9,206.1,18.6z"/>
	<path fill="#003465" d="M208.1,19.2c74.9,2.3,93,55,88,68.8c-2.3-4-6.6-12.9-22-21c-18-9.5-46.7-21-73-22.5
		C241.7,41,282,63.8,290.4,72.4C276.8,30.5,208.1,19.2,208.1,19.2z"/>
	<path fill="#003465" d="M214.7,25.2c0,0-1.301,1.7-0.5,3.2c0.8,1.5,3.3,1.2,6.699,1.7c6.601,1.1,9.2,4.4,9.2,4.4
		c-3.7-1.4-5.1-1.7-9.2-1.7c-4.199,0-8.8,0.1-9.399-2.7C210.8,26.5,213.5,25.2,214.7,25.2z"/>
	<path fill="#003465" d="M200.6,56.3c12.5,5.4,63.4,5.4,87.8,23.6C264,68.9,212.3,67.5,200.6,56.3z"/>
	<path fill="#003465" d="M110.2,122.4c27.699-9.5,44-35.1,44-35.1c-0.2,6.9-1.2,11.8-1.2,11.8c11.6-12.5,9.3-19.1,17.5-30.1
		c-4.601,12.2-2.2,14.8-8.3,25.2c-4,6.8-10.101,11.4-13.2,21.9c-1.2-5.5-0.7-13.4-0.7-13.4C128.4,123.8,110.2,122.4,110.2,122.4z"/>
	<path fill="#003465" d="M168,85.8c5.5-6.5-1.7-18.5,14.399-26.6C173.7,69,177.5,81.4,168,85.8z"/>
	<path fill="#003465" d="M179.9,69.4c6.101-8.7,13.2-4.3,18.2-14C190.3,60.8,185,52.5,179.9,69.4z"/>
	<path fill="#003465" d="M118.1,58.8c0,0-13.399,20.3-8.1,28.4c2.399,3.7,8.7-0.8,8.7-0.8s-4,9.1-1,13s8.3,0.6,10.199-2
		c0,0-5.699,2.2-7.1-2c-2.3-6.5,4.3-18.7,4.3-18.7s-9.7,10.4-11.399,5.7C112,77.7,118.1,58.8,118.1,58.8z"/>
	<path fill="#003465" d="M132.8,31.6c-50.3-6.3-68.3,21.3-68.3,21.3c3.7-1.6,9.2-2.4,9.2-2.4c-25.101,31.3-24,60.2-24,60.2
		c3.399-0.8,8.5-3.7,8.5-3.7s-18,22.3-25.601,31.3c-7.6,9-38.1,45.7-31.399,56C7.9,204.6,34,168.6,38.4,159.9
		c-6,6-27.699,34.4-32.1,29.9c-4.7-4.8,9.2-22.6,17.5-33.4c8.3-10.8,37.6-50.2,50.3-63.3c-10.8,8.1-19.7,11.2-19.7,11.2
		c3.9-37.8,31-56.9,31-56.9L78.7,46.3C99.5,32.1,129.5,32.1,132.8,31.6z"/>
	<path fill="#003465" d="M49.2,113.2C39.3,128.8,8.9,152.4,0.4,179C-5.8,161.1,32,128.8,49.2,113.2z"/>
	<path fill="#003465" d="M11.5,194.6c2.1,6.1,5.6,6.3,14.2-1.8C37.1,182.2,50.8,155,57.4,147.3c-7.8,6.3-13.3,5.9-13.3,5.9
		c1.7-15,17-31.3,17-31.3c-8.7,14-11.399,25.4-11.399,25.4s7.899-3.1,11.899-6.9c4.8-4.5,8.101-9.1,15.601-12.6
		c-3.301,3.4-10,8.9-18.5,22.7S43.1,181.3,32.1,194.6c-4.3,5.2-9.5,9.4-13.6,10.1C13.7,205.5,10.4,202,11.5,194.6z"/>
	<path fill="#003465" d="M63.8,78.8C79.1,74,92.6,59.7,92.6,59.7c-1.5,6.5-4.6,13-4.6,13c19.7-7.8,28.3-26.9,28.3-26.9
		c-6.7,27.6-34.4,33.9-34.4,33.9c0.801-3.4,2.301-7.4,2.301-7.4C73.7,80.8,63.8,78.8,63.8,78.8z"/>
	<path fill="#003465" d="M78.7,87.6c1.3-0.3,6.199-1.3,7.199,3c1.101,4.3-1,8.7-3.699,10.7c-2.7,2-6.801,4-10.801,1.9
		c3.301-0.6,7.301-1.5,9.601-6.3C83.2,92.1,82,88.3,78.7,87.6z"/>
	<path fill="#003465" d="M76.5,106.4c12.5-2.8,10.7-12.8,10.7-12.8C95.4,97.8,85.8,110.6,76.5,106.4z"/>
	<path fill="#003465" d="M80.7,111.2C93.2,108.4,91.4,98.4,91.4,98.4C99.5,102.5,90,115.4,80.7,111.2z"/>
	<path fill="#003465" d="M65.8,104.2c-0.8,23.1,30.7,21.9,30.7,21.9C63,132.5,63,110.1,65.8,104.2z"/>
	<path fill="#003465" d="M98.3,127.9c4.2,3.9,3.6,11.2,5.8,12.9c2.2,1.7,8.7-0.6,12,2.1c-4.7-0.5-11.1,4-14,1.9
		C99.2,142.8,100.9,133.5,98.3,127.9z"/>
	<path fill="#003465" d="M116.7,121.3c-1.4,3.9,0.5,7.7,0.5,7.7s0.699-6.3,4.399-8.7C119.5,120.4,116.7,121.3,116.7,121.3z"/>
	<path fill="#003465" d="M129.4,140.4c0,0,8.301-2.9,10.4-0.5s1.1,8.7-1.1,12.2c-2.2,3.5-5,6.2-8.9,6c-2.5-0.1-3.8-2.5-3.8-2.5
		s4.8,1.2,7.7-2.7c2.899-3.9,3.199-7.1,2.699-9.2C135.4,140.3,129.4,140.4,129.4,140.4z"/>
	<path fill="#003465" d="M132.4,159.7c10-0.6,9.5-13.1,9.5-13.1C148.5,152.4,139.7,165.5,132.4,159.7z"/>
	<path fill="#003465" d="M137.5,162.6c9.5-1.1,8.8-10,8.8-10C151.8,157.5,144.8,167.4,137.5,162.6z"/>
	<path fill="#003465" d="M186.2,26c0-3.3,2.3-5.9,5.199-5.9c2.9,0,5.2,2.6,5.2,5.9s-2.3,5.9-5.2,5.9C188.5,31.9,186.2,29.2,186.2,26
		z"/>
	<path fill="#FFFFFF" d="M189.1,26c0-1.4,1-2.6,2.3-2.6c1.2,0,2.301,1.1,2.301,2.6c0,1.4-1,2.6-2.301,2.6
		C190.1,28.5,189.1,27.4,189.1,26z"/>
</g>
</svg>
