<?xml version="1.0" encoding="iso-8859-1"?>
<!-- Generator: Adobe Illustrator 18.0.0, SVG Export Plug-In . SVG Version: 6.00 Build 0)  -->
<!DOCTYPE svg PUBLIC "-//W3C//DTD SVG 1.1//EN" "http://www.w3.org/Graphics/SVG/1.1/DTD/svg11.dtd">
<svg version="1.1" id="Capa_1" xmlns="http://www.w3.org/2000/svg" xmlns:xlink="http://www.w3.org/1999/xlink" x="0px" y="0px" width="100px" height="100px"
	 viewBox="0 0 97.618 85.676" style="enable-background:new 0 0 97.618 85.676;" xml:space="preserve">
<g>
	<path d="M97.618,20.416C97.618,9.159,88.46,0,77.202,0c-3.231,0-6.448,0.775-9.305,2.24c-2.312,1.186-4.401,2.827-6.112,4.793
		c-3.973-0.866-8.381-1.304-13.127-1.304c-4.645,0-8.968,0.42-12.873,1.249c-1.712-1.953-3.798-3.583-6.104-4.759
		C26.794,0.747,23.677,0,20.416,0C9.159,0,0,9.159,0,20.416c0,3.652,0.977,7.237,2.824,10.366c1.492,2.528,3.518,4.708,5.917,6.384
		c-0.56,2.692-1.086,7.124-1.345,10.213C7.14,50.44,7.032,53.228,7.085,55.44c0.072,3.01,0.422,5.004,1.101,6.276
		c5.32,9.954,14.099,12.902,17.28,13.668c1.236,2.119,2.955,3.95,5.124,5.455c1.997,1.385,4.385,2.499,7.098,3.311
		c4.603,1.377,8.889,1.526,10.518,1.526c0.13,0,0.238-0.148,0.322-0.149c0.094,0.001,0.187-0.145,0.281-0.145
		c0.023,0,0.047,0,0.07,0c0.011,0,0.022,0,0.033,0c0.007,0,0.007,0,0.004,0c0.064,0,0.23,0,0.643,0v0.147
		c1,0,5.69-0.075,10.293-1.452c2.713-0.812,4.989-1.889,6.986-3.274c2.169-1.505,3.833-3.318,5.069-5.437
		c3.181-0.766,11.932-3.705,17.252-13.659c0.405-0.757,1.622-3.057,0.783-14.076c-0.223-2.924-0.721-7.512-1.292-10.306
		C94.227,33.546,97.618,27.221,97.618,20.416z M46.559,81.03c-5-0.333-9.048-1.691-12.396-3.91
		c-3.594-2.382-5.582-5.455-5.582-8.651c0-3.196,1.976-6.269,5.57-8.651c2.697-1.787,6.03-3.016,9.682-3.601
		c-1.28,0.395-2.466,0.942-3.506,1.631c-2.55,1.69-4.013,4.128-4.013,6.689s1.478,4.999,4.029,6.689
		c1.738,1.152,4.216,1.912,6.216,2.214V81.03z M48.809,69.024c-4.674,0-7.931-2.365-7.931-4.487s3.257-4.487,7.931-4.487
		s7.931,2.365,7.931,4.487S53.483,69.024,48.809,69.024z M63.705,77.12c-3.348,2.219-8.146,3.577-12.146,3.91v-7.59
		c2-0.302,4.228-1.062,5.967-2.214c2.55-1.69,3.896-4.128,3.896-6.689s-1.521-4.999-4.071-6.689
		c-1.039-0.689-2.254-1.236-3.534-1.631c3.652,0.585,6.972,1.814,9.669,3.601c3.594,2.382,5.684,5.455,5.684,8.651
		C69.169,71.665,67.299,74.738,63.705,77.12z M84.898,34.276l-1.854,1.032l0.882,1.899c0.288,0.777,1.038,5.203,1.468,11.024
		c0.555,7.498,0.053,10.692-0.29,11.333c-2.226,4.165-5.423,7.368-9.503,9.52c-0.743,0.392-1.449,0.711-2.095,0.971
		c0.067-0.524,0.103-1.053,0.103-1.587c0-2.457-0.716-4.825-2.128-7.037c-1.307-2.048-3.153-3.871-5.489-5.418
		c-4.623-3.064-10.725-4.751-17.183-4.751s-12.561,1.687-17.184,4.751c-2.335,1.548-4.182,3.371-5.489,5.418
		c-1.412,2.213-2.128,4.58-2.128,7.037c0,0.578,0.041,1.151,0.12,1.718c-3.307-1.274-8.482-4.195-11.917-10.623
		c-0.395-0.739-0.901-3.995-0.29-11.512c0.458-5.647,1.246-10.179,1.532-10.981l0.877-1.864l-1.82-1.049
		c-2.373-1.368-4.364-3.339-5.756-5.698c-1.433-2.427-2.19-5.209-2.19-8.046c0-8.741,7.111-15.852,15.852-15.852
		c2.533,0,4.953,0.579,7.191,1.721c2.137,1.09,4.032,2.683,5.48,4.606l0.904,1.201l1.461-0.357
		c3.913-0.956,8.356-1.441,13.206-1.441c4.949,0,9.473,0.505,13.447,1.501l1.475,0.37l0.909-1.219
		c1.447-1.938,3.345-3.545,5.491-4.645c2.247-1.152,4.677-1.737,7.222-1.737c8.741,0,15.852,7.111,15.852,15.852
		C93.054,26.165,89.929,31.476,84.898,34.276z"/>
	<path d="M69.702,35.78c-1.379-0.984-3.151-1.526-4.989-1.526c-0.382,0-0.769,0.023-1.152,0.069
		c-2.046,0.246-3.914,1.126-5.259,2.479c-1.466,1.474-2.176,3.407-1.948,5.302c0.209,1.74,1.17,3.302,2.704,4.396
		c1.379,0.984,3.151,1.526,4.989,1.526c0.382,0,0.769-0.023,1.151-0.069c2.046-0.246,3.914-1.126,5.259-2.479
		c1.466-1.474,2.176-3.407,1.948-5.302C72.197,38.436,71.237,36.875,69.702,35.78z M67.221,42.261
		c-0.615,0.619-1.55,1.044-2.566,1.166c-0.202,0.024-0.407,0.037-0.607,0.037c-1.645,0-3.033-0.836-3.162-1.902
		c-0.082-0.685,0.374-1.259,0.653-1.54c0.615-0.619,1.55-1.043,2.566-1.166c0.203-0.024,0.407-0.037,0.607-0.037
		c1.645,0,3.033,0.836,3.161,1.902C67.957,41.407,67.501,41.98,67.221,42.261z"/>
	<path d="M33.954,34.324c-0.383-0.046-0.77-0.069-1.152-0.069c-1.838,0-3.61,0.542-4.989,1.526
		c-1.535,1.095-2.495,2.656-2.704,4.397c-0.228,1.895,0.482,3.828,1.948,5.302c1.345,1.353,3.213,2.233,5.259,2.479
		c0.382,0.046,0.77,0.069,1.152,0.069h0c1.838,0,3.609-0.542,4.989-1.526c1.535-1.095,2.495-2.656,2.704-4.397
		c0.228-1.896-0.482-3.828-1.948-5.302C37.868,35.45,36,34.57,33.954,34.324z M33.467,43.463c-0.201,0-0.405-0.012-0.607-0.037
		c-1.016-0.122-1.951-0.547-2.566-1.166c-0.279-0.281-0.735-0.854-0.653-1.539c0.128-1.067,1.517-1.902,3.161-1.902
		c0.2,0,0.405,0.012,0.607,0.037c1.016,0.122,1.951,0.547,2.567,1.166c0.279,0.281,0.735,0.854,0.653,1.539
		C36.5,42.628,35.112,43.463,33.467,43.463z"/>
	<path d="M19.622,11.299c-4.508,0-8.162,3.654-8.162,8.162c0,3.374,2.048,6.27,4.968,7.513c2.83-3.873,6.572-7.838,10.628-10.88
		C25.774,13.266,22.929,11.299,19.622,11.299z"/>
	<path d="M77.996,11.299c-3.307,0-6.152,1.967-7.435,4.795c4.056,3.043,7.798,7.008,10.628,10.88
		c2.92-1.243,4.968-4.139,4.968-7.513C86.158,14.953,82.504,11.299,77.996,11.299z"/>
</g>
<g>
</g>
<g>
</g>
<g>
</g>
<g>
</g>
<g>
</g>
<g>
</g>
<g>
</g>
<g>
</g>
<g>
</g>
<g>
</g>
<g>
</g>
<g>
</g>
<g>
</g>
<g>
</g>
<g>
</g>
</svg>
