<?xml version="1.0" encoding="iso-8859-1"?>
<!-- Generator: Adobe Illustrator 18.0.0, SVG Export Plug-In . SVG Version: 6.00 Build 0)  -->
<!DOCTYPE svg PUBLIC "-//W3C//DTD SVG 1.1//EN" "http://www.w3.org/Graphics/SVG/1.1/DTD/svg11.dtd">
<svg version="1.1" id="Capa_1" xmlns="http://www.w3.org/2000/svg" xmlns:xlink="http://www.w3.org/1999/xlink" x="0px" y="0px" width="100px" height="100px"
	 viewBox="0 0 93.773 89.806" style="enable-background:new 0 0 93.773 89.806;" xml:space="preserve">
<g>
	<path d="M35.62,38.915c-0.877-0.346-1.787-0.522-2.703-0.522c-2.504,0-4.656,1.351-5.481,3.441
		c-0.586,1.485-0.439,3.191,0.403,4.68c0.766,1.353,2.037,2.434,3.58,3.043c0.877,0.347,1.787,0.522,2.703,0.522
		c2.504,0,4.656-1.351,5.481-3.441c0.586-1.485,0.44-3.191-0.403-4.68C38.434,40.604,37.162,39.524,35.62,38.915z M35.389,44.974
		c-0.134,0.338-0.655,0.575-1.268,0.575c-0.339,0-0.699-0.071-1.04-0.206c-1.053-0.416-1.635-1.334-1.433-1.846
		c0.133-0.338,0.655-0.575,1.268-0.575c0.34,0,0.699,0.071,1.04,0.205c0.573,0.226,1.048,0.613,1.301,1.061
		C35.354,44.361,35.501,44.691,35.389,44.974z"/>
	<path d="M54.515,41.958c-0.843,1.489-0.989,3.194-0.403,4.68c0.825,2.09,2.977,3.441,5.481,3.441h0
		c0.916,0,1.825-0.176,2.703-0.522c1.543-0.609,2.814-1.69,3.58-3.043c0.842-1.489,0.989-3.195,0.403-4.68
		c-0.825-2.09-2.977-3.441-5.481-3.441c-0.916,0-1.826,0.176-2.703,0.522C56.553,39.524,55.281,40.604,54.515,41.958z
		 M58.458,44.189c0.253-0.447,0.727-0.834,1.301-1.061c0.341-0.134,0.7-0.205,1.04-0.205c0.613,0,1.134,0.236,1.268,0.575
		c0.202,0.512-0.38,1.43-1.433,1.846c-0.341,0.135-0.7,0.206-1.039,0.206h0c-0.613,0-1.134-0.236-1.268-0.575
		C58.214,44.691,58.361,44.361,58.458,44.189z"/>
	<path d="M93.772,17.303l-0.004-0.333l-0.102-0.317c-0.142-0.441-1.534-4.423-6.73-8.443c-2.994-2.317-6.667-4.177-10.917-5.531
		c-5.207-1.659-11.315-2.56-18.153-2.678C57.555-0.004,56.91-0.016,55.221,1c-0.729,0.439-1.827,1.183-2.914,2.237
		c-1.301,1.262-2.234,2.634-2.773,4.058c-0.867-0.035-1.78-0.055-2.729-0.055c-0.891,0-1.749,0.018-2.568,0.049
		c-0.539-1.421-1.472-2.791-2.771-4.051C40.379,2.182,39.282,1.438,38.552,1c-1.688-1.015-2.334-1.004-2.645-0.999
		c-6.838,0.119-12.946,1.02-18.153,2.678C13.505,4.033,9.832,5.894,6.838,8.21c-5.196,4.02-6.589,8.002-6.73,8.443L0.005,16.97
		l-0.004,0.333c-0.089,7.226,4.771,14.254,7.081,17.181C3.805,38.638,3.399,45.522,5.88,54.96
		c1.798,6.841,4.464,12.523,4.577,12.761l0.592,1.255l1.388,0.014c4.975,0.051,8.253,0.646,10.226,1.189
		c1.801,5.419,6.833,9.436,12.876,9.886v0.113c0,5.309,4.319,9.627,9.627,9.627h3.442c5.309,0,9.627-4.319,9.627-9.627v-0.128
		c5.969-0.51,10.927-4.502,12.712-9.872c1.973-0.543,5.251-1.138,10.226-1.189l1.388-0.014l0.592-1.255
		c0.118-0.251,2.918-6.218,4.713-13.286c2.312-9.108,1.888-15.773-1.255-19.849C88.886,31.722,93.862,24.614,93.772,17.303z
		 M54.589,61.208l0,0.003c-0.033-0.003-0.065-0.006-0.097-0.01C54.53,61.204,54.562,61.206,54.589,61.208z M40.569,61.092
		c0.309-0.023,0.65-0.049,1.007-0.076c2.238-0.169,5.123-0.388,5.123-0.388c0.07-0.005,0.141-0.005,0.21,0
		c2.336,0.177,3.969,0.301,5.113,0.388c0.389,0.029,0.722,0.055,1.006,0.076c0.125,0.942-0.05,1.7-0.532,2.306
		c-0.967,1.216-3.193,1.972-5.809,1.972h-0.001c-1.184,0-2.361-0.166-3.316-0.466c-2.17-0.683-2.741-1.913-2.833-2.839
		C40.534,61.855,40.545,61.475,40.569,61.092z M53.806,80.178c0,2.866-2.332,5.198-5.198,5.198h-3.442
		c-2.866,0-5.198-2.332-5.198-5.198v-0.43c0.851-0.19,1.684-0.454,2.494-0.792c0.674,0.081,1.385,0.142,2.128,0.181v3.42h4.429
		v-3.42c0.743-0.04,1.454-0.1,2.128-0.181c0.862,0.36,1.75,0.635,2.658,0.827V80.178z M84.517,29.972
		c-3.444,3.801-4.702,7.098-5.535,9.281c-0.128,0.335-0.273,0.716-0.403,1.021c-0.152-0.076-0.343-0.178-0.578-0.316
		c-0.824-0.485-3.366-2.608-9.157-11.829c-3.284-5.229-5.986-10.165-6.013-10.215l-3.887,2.124c0.027,0.05,2.785,5.088,6.138,10.428
		c6.999,11.148,9.765,12.774,10.674,13.309c0.994,0.584,2.124,1.137,3.289,1.137c0.378,0,0.759-0.058,1.141-0.192
		c1.676-0.588,2.288-2.191,2.935-3.889c0.236-0.618,0.499-1.308,0.836-2.06c0.546,1.25,0.858,2.795,0.927,4.628
		c0.104,2.746-0.333,6.072-1.297,9.886c-1.224,4.841-2.999,9.239-3.888,11.305c-3.386,0.105-6.028,0.451-8.047,0.865
		c-0.064-2.827-0.966-5.537-2.625-7.856c-1.671-2.337-3.989-4.122-6.702-5.161l-0.792,2.068l-0.792,2.068
		c1.9,0.727,3.519,1.973,4.683,3.601c1.181,1.651,1.805,3.588,1.805,5.602c0,0.347-0.019,0.689-0.055,1.027
		c-0.185,1.715-0.827,3.302-1.806,4.645c-1.628,2.233-4.188,3.792-7.133,4.151c-0.426,0.052-0.859,0.078-1.299,0.078
		c-0.308,0-0.613-0.013-0.916-0.038c-0.757-0.063-1.497-0.206-2.215-0.427c-0.473-0.145-0.936-0.324-1.388-0.537l-0.603-0.284
		l-0.659,0.096c-0.662,0.096-1.376,0.167-2.136,0.214v-1.283v-3.776c0.978-0.134,1.898-0.354,2.746-0.653
		c0.739-0.261,1.423-0.582,2.041-0.96c0.853-0.521,1.581-1.15,2.158-1.876c0.019-0.024,0.038-0.048,0.056-0.073
		c0.973-1.257,1.948-3.388,1.228-6.508l-0.005-0.025c-0.027-0.125-0.091-0.417-0.168-0.699c-0.058-0.212-0.113-0.382-0.173-0.533
		c-0.522-1.311-1.645-1.496-1.976-1.521l-0.002,0l-0.082-0.006h0c-0.302-0.023-1.391-0.105-2.653-0.201
		c-2.206-0.167-4.943-0.375-4.943-0.375c-0.292-0.022-0.589-0.022-0.88,0c0,0-2.744,0.208-4.956,0.375
		c-1.491,0.113-2.74,0.207-2.743,0.208c-0.632,0.048-1.212,0.347-1.632,0.841c-0.507,0.596-0.749,1.41-0.865,2.903
		c-0.054,0.699-0.075,1.539-0.046,1.873c0.129,1.487,0.699,2.835,1.63,3.956c0.597,0.718,1.341,1.344,2.215,1.852
		c0.512,0.298,1.068,0.556,1.664,0.769c0.135,0.048,0.271,0.095,0.41,0.139c0.791,0.249,1.651,0.429,2.548,0.54v3.751v1.283
		c-0.76-0.047-1.475-0.117-2.137-0.214l-0.659-0.096l-0.603,0.284c-0.399,0.188-0.808,0.349-1.224,0.485
		c-0.717,0.234-1.457,0.389-2.215,0.464c-0.356,0.035-0.716,0.054-1.08,0.054c-0.384,0-0.762-0.021-1.135-0.061
		c-3.013-0.319-5.638-1.895-7.296-4.168c-0.979-1.343-1.622-2.93-1.806-4.645c-0.036-0.338-0.055-0.68-0.055-1.027
		c0-2.013,0.624-3.95,1.805-5.602c1.164-1.628,2.784-2.874,4.683-3.601l-0.792-2.068l-0.792-2.068
		c-2.714,1.039-5.031,2.824-6.702,5.161c-1.431,2.001-2.299,4.293-2.552,6.7c-0.394-2.952-2.31-5.774-4.168-7.935
		c-1.971-2.293-4.969-4.031-8.021-3.818c-0.764-3.201-1.144-6.047-1.13-8.476c0.013-2.223,0.357-4.056,1.022-5.483
		c0.378,0.824,0.665,1.575,0.919,2.243c0.648,1.698,1.259,3.301,2.935,3.889c0.382,0.134,0.763,0.192,1.141,0.192
		c1.165,0,2.295-0.552,3.289-1.137c0.909-0.535,3.674-2.161,10.674-13.309c3.353-5.34,6.111-10.378,6.138-10.428l-3.887-2.124
		c-0.027,0.049-2.73,4.986-6.013,10.215c-5.791,9.221-8.333,11.344-9.157,11.829c-0.235,0.138-0.426,0.241-0.578,0.316
		c-0.13-0.305-0.275-0.686-0.403-1.021c-0.281-0.738-0.612-1.603-1.058-2.572c0.083-0.091,0.162-0.185,0.239-0.282
		c0.613-0.771,1.21-1.558,1.662-2.437c0.47-0.914,0.767-1.916,0.746-2.95c-0.022-1.063-0.462-2.043-1.029-2.921
		c-1.009-1.56-2.156-3.162-3.905-3.936c-1.856-0.821-3.982-1.091-5.992-1.302c-0.591-1.653-0.988-3.391-1.021-5.116
		c0.542-1.267,2.198-3.843,5.419-6.252c2.599-1.944,5.809-3.518,9.541-4.676c4.642-1.441,10.101-2.238,16.23-2.371
		c0.78,0.36,2.676,1.57,3.817,3.197c-2.446,0.262-3.971,0.562-4.082,0.585l0.869,4.343c0.045-0.009,4.534-0.893,10.58-0.893
		c6.015,0,10.537,0.884,10.582,0.893l0.867-4.344c-0.109-0.022-1.573-0.31-3.93-0.568c1.14-1.636,3.046-2.852,3.829-3.214
		c6.129,0.133,11.588,0.93,16.23,2.371c1.615,0.501,3.132,1.081,4.544,1.734c-0.68,0.905-1.138,1.986-1.314,3.085
		c-0.388,2.421,0.449,4.685,2.05,6.5c1.594,1.808,3.954,2.861,6.31,3.182c0.935,0.128,1.863,0.168,2.794,0.126
		C87.851,24.738,86.012,27.83,84.517,29.972z"/>
	<path d="M30.025,64.695c-1.359,0-1.768,1.469-1.231,2.358c0.233,0.385,0.642,0.662,1.231,0.662c0.364,0,0.659-0.105,0.887-0.277
		C31.904,66.692,31.609,64.695,30.025,64.695z"/>
	<path d="M33.347,71.037c-1.014,0-1.499,0.819-1.457,1.604c0.039,0.723,0.523,1.416,1.457,1.416c0.576,0,0.981-0.266,1.216-0.638
		C35.122,72.532,34.718,71.037,33.347,71.037z"/>
	<path d="M35.159,66.356c-1.338,0-1.757,1.425-1.256,2.317c0.228,0.407,0.647,0.702,1.256,0.702c0.136,0,0.262-0.016,0.38-0.044
		c0.257-0.061,0.469-0.182,0.634-0.343c0.76-0.741,0.548-2.312-0.634-2.59C35.421,66.372,35.295,66.356,35.159,66.356z"/>
	<path d="M62.748,67.425c0.23,0.179,0.53,0.29,0.903,0.29c0.592,0,1.003-0.28,1.235-0.669c0.531-0.889,0.12-2.351-1.235-2.351
		C62.076,64.695,61.775,66.67,62.748,67.425z"/>
	<path d="M59.113,73.418c0.235,0.373,0.64,0.638,1.216,0.638c0.953,0,1.439-0.724,1.459-1.462c0.021-0.771-0.464-1.558-1.459-1.558
		C58.958,71.037,58.554,72.532,59.113,73.418z"/>
	<path d="M59.801,68.618c0.454-0.895,0.027-2.262-1.284-2.262c-0.1,0-0.193,0.01-0.282,0.025c-1.268,0.213-1.512,1.848-0.732,2.609
		c0.186,0.181,0.43,0.311,0.732,0.362c0.089,0.015,0.183,0.025,0.282,0.025C59.154,69.376,59.581,69.053,59.801,68.618z"/>
	<path d="M49.972,28.893c-0.233-1.611-1.721-2.682-3.154-3.157c-1.071-0.355-2.263-0.312-3.378-0.353
		c-1.04-0.038-2.013-0.237-3.058-0.588c-2.043-0.688-3.649,3.816-3.486,5.194c0.274,2.306,2.046,4.088,3.282,5.932
		c1.22,1.82,2.279,3.601,4.688,3.884c1.534,0.18,3.069-0.797,3.62-2.204c0.275-0.703,0.241-1.465,0.191-2.204
		c0-0.001,0-0.002,0-0.003C48.52,33.087,50.321,31.308,49.972,28.893z"/>
</g>
<g>
</g>
<g>
</g>
<g>
</g>
<g>
</g>
<g>
</g>
<g>
</g>
<g>
</g>
<g>
</g>
<g>
</g>
<g>
</g>
<g>
</g>
<g>
</g>
<g>
</g>
<g>
</g>
<g>
</g>
</svg>
