<?xml version="1.0" encoding="iso-8859-1"?>
<!-- Generator: Adobe Illustrator 18.0.0, SVG Export Plug-In . SVG Version: 6.00 Build 0)  -->
<!DOCTYPE svg PUBLIC "-//W3C//DTD SVG 1.1//EN" "http://www.w3.org/Graphics/SVG/1.1/DTD/svg11.dtd">
<svg version="1.1" id="Capa_1" xmlns="http://www.w3.org/2000/svg" xmlns:xlink="http://www.w3.org/1999/xlink" x="0px" y="0px" width="100px" height="100px"
	 viewBox="0 0 86.64 96" style="enable-background:new 0 0 86.64 96;" xml:space="preserve">
<g>
	<path d="M86.408,56.073c-0.632-4.778-2.6-9.83-5.85-15.016c-5.349-8.535-8.304-15.65-10.679-21.367
		c-2.565-6.176-4.591-11.188-8.342-14.521C57.572,1.645,52.129,0,43.338,0h-0.022c-0.011,0-0.022,0-0.033,0
		c-8.782,0-14.221,1.646-18.185,5.168c-3.75,3.333-5.777,8.278-8.342,14.454c-2.375,5.717-5.33,12.866-10.679,21.401
		c-3.25,5.186-5.218,10.255-5.85,15.033c-0.573,4.331-0.062,8.488,1.518,12.339c4.658,11.351,17.271,17.1,23.413,18.602
		c0.653,0.279,4.282,2.019,4.282,6.702V96h28v-2.3c0-4.684,3.506-6.419,4.159-6.698c6.142-1.502,18.661-7.247,23.318-18.598
		C86.498,64.552,86.981,60.404,86.408,56.073z M80.622,66.653c-3.7,9.017-14.173,14.449-20.309,15.9l-0.125,0.029l-0.121,0.043
		c-0.195,0.07-1.961,0.534-3.718,2.19C55.005,86.083,53.452,88,52.911,91H33.724c-0.541-3-2.094-4.917-3.438-6.184
		c-1.756-1.656-3.522-2.219-3.718-2.289l-0.121,0.006l-0.125-0.005C20.186,81.077,9.714,75.658,6.014,66.64
		c-2.766-6.74-1.429-14.521,3.973-23.14c5.553-8.86,8.59-16.169,11.03-22.044c2.43-5.851,4.186-10.017,7.146-12.647
		C31.21,6.1,35.737,5,43.301,5h0.036c7.562,0,12.089,1.102,15.136,3.81c2.96,2.63,4.716,6.828,7.146,12.679
		c2.44,5.875,5.477,13.172,11.03,22.033C82.051,52.141,83.387,59.913,80.622,66.653z"/>
	<path d="M30.017,45.231c3.72,0,6.746-3.026,6.746-6.746c0-3.72-3.026-6.746-6.746-6.746c-3.72,0-6.746,3.026-6.746,6.746
		C23.271,42.205,26.297,45.231,30.017,45.231z M30.017,36.353c1.176,0,2.133,0.957,2.133,2.133c0,1.176-0.957,2.133-2.133,2.133
		c-1.176,0-2.133-0.957-2.133-2.133C27.884,37.31,28.841,36.353,30.017,36.353z"/>
	<path d="M56.373,45.231c3.72,0,6.746-3.026,6.746-6.746c0-3.165-2.245-5.94-5.337-6.598c-0.461-0.098-0.935-0.148-1.409-0.148
		c-3.72,0-6.746,3.026-6.746,6.746C49.627,42.205,52.654,45.231,56.373,45.231z M56.373,36.353c0.152,0,0.303,0.016,0.448,0.047
		c0.976,0.208,1.684,1.085,1.684,2.086c0,1.176-0.957,2.133-2.133,2.133c-1.176,0-2.133-0.957-2.133-2.133
		C54.241,37.31,55.197,36.353,56.373,36.353z"/>
	<path d="M69.312,52.091c-0.735,0-1.416,0.066-1.824,0.105L67.449,52.2c-0.73,0.07-1.403,0.104-2.057,0.104
		c-1.938,0-3.724-0.301-5.972-1.006c-1.174-0.369-2.373-0.784-3.533-1.186c-1.611-0.558-3.278-1.135-4.974-1.624
		c-2.369-0.682-4.358-1.071-6.258-1.223c-0.424-0.034-0.878-0.048-1.337-0.041c-0.459-0.007-0.913,0.007-1.337,0.041
		c-1.901,0.152-3.889,0.541-6.258,1.223c-1.697,0.488-3.363,1.065-4.974,1.624c-1.159,0.402-2.358,0.817-3.532,1.186
		c-2.248,0.705-4.034,1.006-5.972,1.006c-0.654,0-1.327-0.034-2.057-0.104l-0.039-0.004c-0.407-0.039-1.089-0.105-1.824-0.105
		c-0.778,0-3.144,0-4.292,1.741c-0.368,0.558-0.88,1.74-0.176,3.383c0.913,2.13,2.475,3.558,3.878,4.474
		c-0.51,0.734-0.962,1.487-1.325,2.214c-1.106,2.211-1.35,4.066-0.726,5.515c0.641,1.487,2.096,2.34,3.994,2.34
		c0.825,0,1.76-0.15,2.835-0.456c-0.001,0.431,0.041,0.865,0.139,1.296c0.354,1.561,1.346,2.81,2.868,3.612
		c0.951,0.501,1.97,0.755,3.028,0.755c1.75,0,3.352-0.658,5.208-1.42c2.555-1.049,5.735-2.356,10.563-2.356
		c4.828,0,8.008,1.306,10.564,2.356c1.856,0.762,3.458,1.42,5.207,1.42h0.001c1.058,0,2.076-0.254,3.027-0.755
		c1.522-0.802,2.513-2.051,2.868-3.612c0.098-0.431,0.139-0.865,0.139-1.297c1.075,0.306,2.01,0.456,2.835,0.456h0
		c1.898,0,3.354-0.853,3.995-2.34c0.624-1.449,0.38-3.304-0.726-5.515c-0.364-0.727-0.816-1.479-1.326-2.214
		c1.404-0.917,2.966-2.345,3.879-4.475c0.704-1.643,0.192-2.825-0.177-3.383C72.456,52.091,70.09,52.091,69.312,52.091z
		 M60.485,71.581c-0.025,0.11-0.072,0.314-0.519,0.55c-0.293,0.155-0.564,0.223-0.876,0.223h0c-0.839,0-1.993-0.474-3.455-1.074
		c-2.776-1.14-6.578-2.701-12.316-2.701c-5.739,0-9.54,1.561-12.316,2.701c-1.462,0.6-2.616,1.074-3.455,1.074
		c-0.313,0-0.584-0.069-0.877-0.223c-0.447-0.235-0.494-0.44-0.519-0.55c-0.106-0.459,0.072-1.156,0.361-1.847
		c2.253-0.629,4.602-1.179,7.023-1.606C37.227,67.475,40.325,67,43.44,67h0.157c3.225,0,6.561,0.608,9.504,1.128
		c2.42,0.427,4.769,0.968,7.022,1.597C60.414,70.416,60.591,71.122,60.485,71.581z M65.662,58.673l-3.702,0.988l2.66,2.814
		c0.883,0.934,1.724,2.086,2.308,3.16c0.347,0.639,0.54,1.133,0.644,1.484c-0.407-0.049-1.053-0.182-2.013-0.517
		c-0.75-0.261-1.513-0.511-2.287-0.75c-2.227-0.688-4.548-1.284-6.942-1.782c-0.801-0.166-1.609-0.322-2.426-0.466
		c-2.642-0.467-5.583-1.197-8.618-1.347C44.725,62.229,44.163,62,43.597,62c-0.061,0-0.123,0-0.184,0
		c-0.669,0-1.333,0.238-1.998,0.274c-2.755,0.149-5.523,0.666-8.684,1.224c-0.816,0.144-1.625,0.353-2.426,0.52
		c-2.394,0.497-4.715,1.12-6.942,1.808c-0.774,0.239-1.537,0.502-2.287,0.764c-0.96,0.335-1.606,0.475-2.013,0.524
		c0.103-0.351,0.297-0.842,0.643-1.481c0.584-1.074,1.425-2.224,2.308-3.159l2.692-2.805l-3.734-0.996
		c-0.127-0.04-1.816-0.588-3.025-1.947c0.288,0.018,0.554,0.043,0.757,0.063l0.04,0.004c0.878,0.084,1.694,0.125,2.497,0.125
		c2.402,0,4.669-0.376,7.353-1.218c1.239-0.389,2.47-0.815,3.661-1.228c1.626-0.563,3.161-1.095,4.74-1.55
		c2.065-0.594,3.765-0.849,5.35-0.976C42.637,51.922,42.955,52,43.279,52h0.039h0.039c0.323,0,0.642-0.078,0.93-0.055
		c1.585,0.127,3.286,0.422,5.351,1.017c1.579,0.454,3.114,0.966,4.74,1.529c1.191,0.412,2.422,0.829,3.661,1.218
		c2.684,0.842,4.952,1.213,7.354,1.213c0.803,0,1.62-0.044,2.497-0.128l0.04-0.005c0.204-0.02,0.469-0.046,0.757-0.063
		C67.478,58.084,65.79,58.633,65.662,58.673z"/>
	<path d="M36.288,56.391c-0.635,0.676-0.993,1.574-0.481,2.71c0,0,3.189,0.037,3.712-1.872c0.164-0.599,0.066-1.391-0.477-2.436
		C39.042,54.793,37.307,55.305,36.288,56.391z"/>
	<path d="M47.594,54.793c-0.543,1.045-0.641,1.836-0.477,2.436c0.523,1.909,3.712,1.872,3.712,1.872
		c0.512-1.135,0.154-2.034-0.481-2.71C49.328,55.305,47.594,54.793,47.594,54.793z"/>
</g>
<g>
</g>
<g>
</g>
<g>
</g>
<g>
</g>
<g>
</g>
<g>
</g>
<g>
</g>
<g>
</g>
<g>
</g>
<g>
</g>
<g>
</g>
<g>
</g>
<g>
</g>
<g>
</g>
<g>
</g>
</svg>
