<?xml version="1.0" encoding="iso-8859-1"?>
<!-- Generator: Adobe Illustrator 18.0.0, SVG Export Plug-In . SVG Version: 6.00 Build 0)  -->
<!DOCTYPE svg PUBLIC "-//W3C//DTD SVG 1.1//EN" "http://www.w3.org/Graphics/SVG/1.1/DTD/svg11.dtd">
<svg version="1.1" id="Capa_1" xmlns="http://www.w3.org/2000/svg" xmlns:xlink="http://www.w3.org/1999/xlink" x="0px" y="0px" width="100px" height="100px"
	 viewBox="0 0 117.944 106.81" style="enable-background:new 0 0 117.944 106.81;" xml:space="preserve">
<g>
	<path d="M91.746,1.336c-3.993,0-7.692,1.256-11.031,3.74c-3.087-3.672-6.026-4.791-6.408-4.925L73.876,0H44.068l-0.432,0.152
		c-0.382,0.134-3.321,1.253-6.407,4.925c-3.34-2.484-7.038-3.74-11.031-3.74c-13.261,0-24.882,14.071-25.371,14.67L0,17.021
		l2.957,13.04l2.039,0.099c0.034,0.002,3.462,0.232,7.507,2.731c2.461,1.52,4.641,3.563,6.479,6.072
		c2.352,3.21,4.154,7.202,5.357,11.865l1.267,4.911l3.352-3.807c0.028-0.032,2.338-2.654,6.066-6.781
		c1.3,3.139,2.014,5.698,2.257,8.02c0.318,3.037-0.129,5.906-1.493,9.594l-1.144,3.093l4.238,0.645
		c-1.254,2.837-3.782,6.95-8.31,8.529l-6.091,2.125l5.799,2.827c0.15,0.073,3.724,1.794,8.302,2.131
		c0.532,0.039,1.055,0.059,1.571,0.059c3.535,0,6.685-0.919,9.344-2.707l0.427,7.383l-9.52,4.632l-0.056,1.616
		c-0.142,4.127,0.903,7.375,3.105,9.654c3.889,4.025,10.271,4.057,15.934,4.057c0.047,0,0.095,0,0.142,0h0.142
		c3.43,0,6.021-0.882,7.7-2.622c1.611-1.67,1.785-3.52,1.793-4.157l0.965-20.359c2.592,1.654,5.633,2.503,9.03,2.503
		c0.515,0,1.039-0.019,1.57-0.059c4.578-0.338,8.152-2.058,8.302-2.131l5.799-2.827l-6.091-2.125
		c-2.913-1.016-5.355-3.195-7.257-6.477c-0.46-0.794-0.833-1.562-1.13-2.248l2.95-0.449l-1.144-3.093
		c-1.364-3.688-1.81-6.557-1.493-9.594c0.243-2.323,0.957-4.881,2.258-8.02c3.728,4.128,6.038,6.749,6.066,6.781l3.352,3.807
		l1.267-4.911c1.182-4.582,2.943-8.518,5.236-11.698c1.802-2.5,3.94-4.548,6.355-6.086c4.039-2.572,7.562-2.87,7.761-2.885
		l2.024-0.072l2.963-13.067l-0.827-1.015C116.629,15.408,105.007,1.336,91.746,1.336z M39.126,76.767
		c-0.337-0.022-0.669-0.054-0.992-0.094c3.368-2.998,5.261-6.853,6.212-9.339l4.488,0.683l0.262,4.523
		C46.707,75.618,43.356,77.041,39.126,76.767z M64.564,83.539h-4.202v5.374h3.947c-0.013,0.269-0.447,9.429-0.479,10.104
		c-0.024,0.499,0.07,1.088-0.325,1.474c-0.417,0.407-1.002,0.579-1.555,0.713c-0.745,0.18-1.518,0.232-2.282,0.232h-0.143
		c-1.106,0.001-2.25,0-3.38-0.033l-1.882-32.56l-0.034-0.59h11.058l-0.016,0.348l-0.293,6.186h-7.011v5.374h6.756L64.564,83.539z
		 M49.394,93.083l4.671,8.212c-2.801-0.223-5.32-0.797-6.75-2.277c-0.92-0.953-1.44-2.321-1.574-4.158L49.394,93.083z
		 M65.543,62.879H53.919l-0.207-3.575h12L65.543,62.879z M81.176,76.674c-0.276,0.034-0.557,0.062-0.843,0.083
		c-4.162,0.307-7.482-1.012-9.882-3.921l0.24-5.059l4.199-0.639C75.815,69.614,77.718,73.595,81.176,76.674z M110.604,25.094
		c-1.873,0.387-4.807,1.261-7.987,3.225c-3.052,1.886-5.74,4.398-7.989,7.468c-1.918,2.618-3.515,5.645-4.772,9.038
		c-1.483-1.656-3.427-3.816-5.709-6.323l-2.677-2.941l-1.73,3.581c-2.658,5.503-4.022,9.658-4.421,13.47
		c-0.306,2.925-0.062,5.763,0.792,8.904l-5.161,0.785l0.478-10.084c0.07-1.482-1.074-2.741-2.557-2.811
		c-1.48-0.072-2.741,1.074-2.811,2.557l-0.006,0.127l-0.087,1.84H53.402l-0.106-1.84l-0.009-0.155
		c-0.086-1.482-1.356-2.613-2.837-2.527c-1.482,0.086-2.613,1.356-2.527,2.838l0.595,10.287l-6.683-1.016
		c0.854-3.141,1.098-5.979,0.792-8.904c-0.399-3.813-1.762-7.967-4.421-13.47l-1.73-3.581l-2.677,2.941
		c-2.282,2.507-4.227,4.667-5.709,6.323c-1.257-3.393-2.854-6.42-4.772-9.038c-2.249-3.07-4.937-5.582-7.989-7.468
		c-3.18-1.965-6.114-2.839-7.987-3.225l-1.509-6.654c1.082-1.193,3.148-3.332,5.842-5.473c3.593-2.854,9.029-6.257,14.524-6.257
		c3.547,0,6.692,1.376,9.612,4.207l2.351,2.278l1.776-2.75c2.121-3.285,4.314-4.64,5.158-5.071h27.753
		c0.844,0.431,3.037,1.786,5.158,5.071l1.776,2.75l2.351-2.278c2.921-2.831,6.065-4.207,9.612-4.207
		c8.94,0,17.677,8.777,20.365,11.734L110.604,25.094z"/>
	<path d="M71.448,28.832c-2.844,0-5.15,2.306-5.15,5.15v7.55c1.266-1.267,2.437-2.433,3.513-3.502
		c0.897,0.571,2.092,0.85,3.361,0.698c2.478-0.298,4.297-2.127,4.062-4.085c-0.117-0.977-0.724-1.802-1.611-2.346
		c2.397-2.345,3.571-3.465,3.571-3.465H71.448z"/>
	<path d="M47.887,28.832h-7.746c0,0,1.175,1.12,3.571,3.465c-0.887,0.544-1.493,1.369-1.611,2.346
		c-0.235,1.958,1.583,3.788,4.062,4.085c1.269,0.152,2.464-0.127,3.361-0.698c1.076,1.069,2.247,2.236,3.513,3.502v-7.55
		C53.037,31.138,50.732,28.832,47.887,28.832z"/>
	<path d="M31.989,15.993c-0.123,0.312-3.003,7.709-1.375,14.138l5.209-1.319c-1.197-4.729,1.141-10.785,1.164-10.846l-2.5-0.984
		L31.989,15.993z"/>
	<path d="M80.738,17.966c0.024,0.061,2.361,6.117,1.164,10.846l5.209,1.319c1.627-6.429-1.252-13.826-1.375-14.138L80.738,17.966z"
		/>
</g>
<g>
</g>
<g>
</g>
<g>
</g>
<g>
</g>
<g>
</g>
<g>
</g>
<g>
</g>
<g>
</g>
<g>
</g>
<g>
</g>
<g>
</g>
<g>
</g>
<g>
</g>
<g>
</g>
<g>
</g>
</svg>
