<?xml version="1.0" encoding="iso-8859-1"?>
<!-- Generator: Adobe Illustrator 18.0.0, SVG Export Plug-In . SVG Version: 6.00 Build 0)  -->
<!DOCTYPE svg PUBLIC "-//W3C//DTD SVG 1.1//EN" "http://www.w3.org/Graphics/SVG/1.1/DTD/svg11.dtd">
<svg version="1.1" id="Capa_1" xmlns="http://www.w3.org/2000/svg" xmlns:xlink="http://www.w3.org/1999/xlink" x="0px" y="0px" width="100px" height="100px"
	 viewBox="0 0 99.377 89.662" style="enable-background:new 0 0 99.377 89.662;" xml:space="preserve">
<g>
	<path d="M59.499,55.751c1.072,1.622,2.855,2.569,4.91,2.622c0.06,0.001,0.119,0.005,0.179,0.005h0c1.612,0,3.34-0.555,4.862-1.562
		c2.161-1.429,2.875-3.156,3.093-4.354c0.293-1.608-0.095-3.279-1.121-4.832c-1.372-2.075-3.427-3.265-5.638-3.265
		c-1.299,0-2.568,0.403-3.771,1.199c-1.659,1.097-2.842,2.766-3.33,4.701c-0.264,1.047-0.299,2.107-0.121,3.101
		C58.715,54.228,59.029,55.04,59.499,55.751z M64.593,49.47c0.424-0.281,0.825-0.423,1.19-0.423c0.869,0,1.502,0.815,1.734,1.166
		c0.242,0.367,0.512,0.909,0.421,1.411c-0.099,0.546-0.636,1.002-1.069,1.288c-0.755,0.499-1.586,0.785-2.281,0.785
		c-0.835,0-1.098-0.397-1.184-0.527C62.797,52.251,63.192,50.396,64.593,49.47z"/>
	<path d="M26.929,52.482c0.218,1.198,0.932,2.925,3.093,4.354c1.523,1.007,3.25,1.562,4.863,1.562c0.044,0,0.087-0.003,0.13-0.004
		c2.075-0.038,3.877-0.988,4.958-2.623c0.477-0.722,0.794-1.549,0.946-2.425c0.17-0.982,0.132-2.027-0.128-3.06
		c-0.488-1.934-1.671-3.604-3.33-4.701c-1.204-0.796-2.472-1.199-3.771-1.199c-2.212,0-4.267,1.19-5.638,3.265
		C27.024,49.203,26.636,50.874,26.929,52.482z M31.955,50.232c0.232-0.35,0.864-1.165,1.733-1.165c0.365,0,0.765,0.142,1.19,0.423
		c0.674,0.445,1.174,1.153,1.373,1.941c0.169,0.671,0.101,1.328-0.183,1.758c-0.086,0.13-0.349,0.527-1.184,0.527
		c-0.695,0-1.526-0.286-2.281-0.785c-0.433-0.286-0.97-0.742-1.069-1.288C31.443,51.141,31.713,50.599,31.955,50.232z"/>
	<path d="M90.659,52.513c-0.93-5.047-2.379-9.113-4.402-12.319c3.251-1.3,6.16-3.417,8.404-6.154
		c3.042-3.709,4.717-8.398,4.717-13.203C99.377,9.347,90.03,0,78.54,0c-6.189,0-12.332,5.008-16.626,13.479H49.437H37.463
		C33.169,5.008,27.026,0,20.837,0C9.347,0,0,9.347,0,20.837c0,4.805,1.675,9.494,4.717,13.203c2.244,2.737,5.153,4.853,8.404,6.154
		c-2.023,3.206-3.472,7.272-4.402,12.319c-0.831,4.509-0.766,8.724,0.164,12.496c-2.922,1.121-5.492,2.678-7.663,4.652l3.149,3.463
		c1.713-1.558,3.757-2.8,6.095-3.709c0.471,0.973,1.011,1.905,1.623,2.79c1.215,1.758,2.691,3.32,4.405,4.671
		c-0.45,0.292-0.894,0.594-1.328,0.909c-3.431,2.48-6.371,5.633-8.738,9.374l3.956,2.503c2.749-4.346,6.294-7.697,10.575-10.008
		c2.308,1.117,4.856,1.933,7.604,2.429c2.139,0.387,4.213,0.583,6.164,0.583c0.225,0,0.449-0.003,0.671-0.008
		c3.385,4.099,8.416,6.73,14.039,6.816c0.094,0.001,0.188,0.004,0.283,0.004c5.736,0,10.879-2.651,14.321-6.819
		c0.202,0.004,0.405,0.007,0.609,0.007h0c1.951,0,4.025-0.196,6.164-0.583c2.792-0.505,5.378-1.338,7.715-2.483
		c3.71,1.988,7.585,5.121,10.711,10.062l3.956-2.503c-2.367-3.741-5.307-6.895-8.738-9.374c-0.479-0.346-0.967-0.678-1.465-0.997
		c1.667-1.331,3.106-2.863,4.294-4.583c0.63-0.911,1.183-1.87,1.663-2.873c2.256,0.852,4.413,2.074,6.303,3.792l3.149-3.463
		c-2.227-2.025-4.874-3.612-7.889-4.739C91.426,61.172,91.483,56.987,90.659,52.513z M49.72,84.797
		c-0.094,0-0.189-0.001-0.283-0.003c-3.074-0.063-5.909-1.148-8.199-2.939c1.074-0.284,2.107-0.641,3.093-1.074
		c1.863-0.817,3.572-1.899,5.106-3.231c0.084-0.073,0.168-0.147,0.252-0.221c1.598,1.434,3.392,2.59,5.358,3.452
		c1.001,0.439,2.05,0.8,3.14,1.086C55.829,83.705,52.896,84.797,49.72,84.797z M86.229,62.623c-0.062,0.344-0.132,0.683-0.211,1.018
		c-2.573-0.527-5.345-0.78-8.271-0.749c-4.631,0.049-8.48,0.788-10.281,1.2c-0.653,0.15-1.037,0.256-1.091,0.272l1.269,4.506
		c0.021-0.006,0.288-0.079,0.758-0.188c2.228-0.516,9.025-1.832,15.935-0.601c-0.275,0.504-0.575,0.992-0.899,1.462
		c-1.31,1.895-3.006,3.499-5.036,4.784c-0.989-0.434-2.002-0.822-3.039-1.163c-2.717-0.893-5.142-1.315-6.942-1.512
		c-1.919-0.209-3.128-0.163-3.223-0.159l0.205,4.677c0.034-0.002,0.827-0.027,2.132,0.097c1.136,0.108,2.66,0.329,4.416,0.78
		c-0.64,0.164-1.296,0.308-1.97,0.43c-1.04,0.188-2.058,0.322-3.045,0.406c-0.783,0.066-1.547,0.102-2.286,0.102
		c-1.003,0-1.969-0.062-2.899-0.183c-3.048-0.397-5.7-1.445-7.931-3.13c0.716-0.417,1.467-0.928,2.226-1.541
		c2.781-2.246,4.341-4.927,4.413-7.57h-4.687c-0.09,1.149-0.979,2.51-2.472,3.767c-1.109,0.934-2.234,1.552-2.964,1.866
		c-0.281,0.121-0.503,0.197-0.643,0.229c-0.067-0.012-0.154-0.034-0.256-0.065c-0.117-0.036-0.255-0.084-0.411-0.146
		c-0.743-0.296-1.885-0.894-3.01-1.83c-0.73-0.608-2.405-2.186-2.362-3.82h-4.682c-0.019,2.138,0.932,4.281,2.765,6.217
		c1.065,1.125,2.422,2.15,3.784,2.921c-2.209,1.659-4.829,2.695-7.836,3.096c-0.948,0.126-1.934,0.19-2.958,0.19
		c-0.719,0-1.462-0.034-2.221-0.096c-1.008-0.083-2.047-0.22-3.11-0.412c-0.632-0.114-1.249-0.249-1.851-0.4
		c1.713-0.444,3.219-0.673,4.366-0.79c1.428-0.145,2.299-0.117,2.318-0.117l0.095-2.337l0.103-2.34
		c-0.097-0.004-1.381-0.054-3.406,0.179c-1.78,0.205-4.134,0.628-6.759,1.491c-1.088,0.358-2.15,0.768-3.184,1.228
		c-2.075-1.295-3.805-2.922-5.138-4.849c-0.315-0.456-0.606-0.93-0.875-1.418c2.069-0.385,4.297-0.572,6.65-0.554
		c4.176,0.032,7.71,0.705,9.327,1.069c0.594,0.134,0.93,0.226,0.942,0.23l1.267-4.506c-0.059-0.017-0.506-0.141-1.263-0.311
		c-1.866-0.418-5.62-1.115-10.109-1.162c-3.014-0.032-5.867,0.236-8.506,0.797c-0.083-0.351-0.158-0.706-0.222-1.066
		c-0.501-2.802-0.442-5.918,0.174-9.262c1.052-5.714,2.872-10.042,5.408-12.865l0.717-0.798c0.948-0.589,2.236-1.425,3.534-2.385
		c3.916-2.896,5.74-5.283,5.74-7.514c0-2.636-1.156-8.726-5.531-12.907c-3.247-3.102-7.525-4.555-12.716-4.32l0.212,4.676
		c3.865-0.175,6.983,0.843,9.27,3.028c3.314,3.167,4.068,7.856,4.084,9.471c-0.054,0.167-0.558,1.416-4.089,3.983
		c-1.591,1.157-3.161,2.115-3.887,2.545c-3.006-0.931-5.712-2.744-7.728-5.202c-2.357-2.875-3.655-6.509-3.655-10.235
		c0-8.908,7.248-16.156,16.156-16.156c4.68,0,8.912,4.594,11.739,9.594c-1.055,0.502-2.258,1.288-3.494,2.524l3.31,3.31
		c1.353-1.353,2.504-1.801,3.113-1.95h13.932H63.83c0.609,0.149,1.76,0.597,3.113,1.95l3.31-3.31
		c-1.223-1.223-2.414-2.006-3.461-2.508c2.827-5.007,7.063-9.61,11.748-9.61c8.908,0,16.156,7.248,16.156,16.156
		c0,3.726-1.298,7.36-3.655,10.235c-2.048,2.498-4.808,4.329-7.873,5.247c-0.688-0.405-2.313-1.39-3.962-2.589
		c-3.531-2.567-4.035-3.815-4.089-3.983c0.016-1.614,0.77-6.304,4.084-9.471c2.287-2.185,5.405-3.203,9.27-3.028l0.213-4.676
		c-5.191-0.235-9.469,1.217-12.716,4.32c-4.375,4.181-5.531,10.271-5.531,12.907c0,2.23,1.824,4.618,5.74,7.514
		c1.539,1.138,3.063,2.103,4.024,2.686l0.447,0.497c2.536,2.823,4.356,7.151,5.408,12.865C86.671,56.705,86.73,59.821,86.229,62.623
		z"/>
</g>
<g>
</g>
<g>
</g>
<g>
</g>
<g>
</g>
<g>
</g>
<g>
</g>
<g>
</g>
<g>
</g>
<g>
</g>
<g>
</g>
<g>
</g>
<g>
</g>
<g>
</g>
<g>
</g>
<g>
</g>
</svg>
