<?xml version="1.0" encoding="iso-8859-1"?>
<!-- Generator: Adobe Illustrator 18.0.0, SVG Export Plug-In . SVG Version: 6.00 Build 0)  -->
<!DOCTYPE svg PUBLIC "-//W3C//DTD SVG 1.1//EN" "http://www.w3.org/Graphics/SVG/1.1/DTD/svg11.dtd">
<svg version="1.1" id="Capa_1" xmlns="http://www.w3.org/2000/svg" xmlns:xlink="http://www.w3.org/1999/xlink" x="0px" y="0px" width="100px" height="100px"
	 viewBox="0 0 77.897 98.855" style="enable-background:new 0 0 77.897 98.855;" xml:space="preserve">
<g>
	<path d="M3.205,52.623C1.108,56.168,0,60.26,0,64.456v0.406c0,5.955,2.192,11.56,6.174,15.783c1.179,1.25,2.473,2.334,3.856,3.244
		l-4.404,0.759c-1.963,0.339-1.438,3.383,0.525,3.044l7.734-1.334c0.302,1.686,0.885,3.276,1.696,4.721l-7.983,3.997
		c-1.781,0.892-0.398,3.654,1.383,2.762l8.401-4.206c2.786,3.197,6.885,5.222,11.449,5.222c3.818,0,7.406-1.399,10.174-3.908
		c2.768,2.509,6.356,3.908,10.174,3.908c4.418,0,8.4-1.897,11.177-4.919l7.795,3.903c1.781,0.892,3.164-1.87,1.383-2.762
		L62.23,91.42c0.914-1.533,1.566-3.239,1.892-5.057l7.708,1.329c1.963,0.338,2.488-2.706,0.525-3.044l-4.471-0.771
		c1.377-0.907,2.665-1.987,3.839-3.232c3.981-4.223,6.174-9.828,6.174-15.783v-0.406c0-4.247-1.133-8.38-3.277-11.953
		c-1.733-2.888-4.057-5.31-6.794-7.095c2.618-7.055,6.588-17.884,8.297-23.237c0.334-0.862,0.594-1.759,0.771-2.668
		c1.709-8.781-4.379-17.38-13.571-19.169C62.182,0.112,61.02,0,59.87,0c-3.827,0-7.558,1.255-10.503,3.535
		c-3.028,2.343-5.093,5.673-5.813,9.374c-0.084,0.433-0.286,1.562-0.295,1.61l-0.014,0.087c-0.733,5.252-1.872,16.301-1.812,26.337
		h-5.227c0.06-10.036-1.079-21.085-1.812-26.337l-0.014-0.087c-0.009-0.048-0.21-1.178-0.295-1.61
		c-0.72-3.702-2.785-7.031-5.813-9.374C25.325,1.255,21.595,0,17.768,0c-1.15,0-2.312,0.112-3.453,0.335
		C5.123,2.124-0.964,10.723,0.745,19.504c0.177,0.909,0.436,1.806,0.771,2.668c1.72,5.385,5.717,16.288,8.348,23.374
		C7.178,47.344,4.9,49.76,3.205,52.623z M13.8,48.579l1.78-0.956l-0.705-1.894c-2.064-5.542-7.07-19.077-8.968-25.035L5.884,20.62
		l-0.029-0.072c-0.245-0.622-0.434-1.271-0.562-1.929C4.072,12.346,8.517,6.184,15.2,4.883c0.85-0.165,1.714-0.249,2.568-0.249
		c2.806,0,5.529,0.911,7.668,2.566c2.17,1.679,3.588,3.959,4.101,6.595c0.069,0.353,0.236,1.285,0.274,1.496
		c0.772,5.549,1.999,17.623,1.726,27.908l-0.063,2.378h14.693l-0.063-2.378c-0.273-10.285,0.953-22.358,1.725-27.908
		c0.038-0.212,0.205-1.143,0.274-1.496c0.513-2.636,1.931-4.916,4.101-6.595c2.138-1.655,4.861-2.566,7.668-2.566
		c0.854,0,1.718,0.084,2.568,0.249c6.684,1.301,11.129,7.463,9.908,13.736c-0.128,0.658-0.318,1.308-0.563,1.93l-0.028,0.072
		l-0.024,0.074c-1.889,5.931-6.871,19.404-8.925,24.921l-0.714,1.919l1.817,0.945c2.752,1.432,5.083,3.648,6.739,6.408
		c1.712,2.853,2.617,6.162,2.617,9.569v0.406c0,6.94-3.743,12.961-9.184,15.88c-0.264-1.355-0.713-2.666-1.347-3.918l-2.067,1.046
		l-2.067,1.046c0.547,1.08,0.896,2.224,1.045,3.414c0.005,0.043,0.011,0.086,0.016,0.129l-0.374-0.064l-2.455-0.423
		c-0.697-0.12-1.211,0.187-1.499,0.647c-0.523,0.836-0.293,2.179,0.974,2.398l3.249,0.56c-0.096,0.522-0.23,1.03-0.399,1.522
		c-0.273,0.794-0.639,1.545-1.083,2.241l-2.626-1.314c-1.781-0.892-3.164,1.87-1.383,2.762l1.903,0.953
		c-1.836,1.548-4.206,2.482-6.789,2.482c-3.285,0-6.326-1.492-8.343-4.093l-0.384-0.495c-0.028-0.444-0.077-1.305-0.117-2.382
		c-0.049-1.341-0.083-3.016-0.042-4.634c0.035-1.35,0.123-2.66,0.299-3.703l1.045-1.045l4.956-4.956H31.416l4.956,4.956l1.012,1.012
		c0.18,1.048,0.269,2.371,0.304,3.735c0.042,1.618,0.008,3.292-0.042,4.634c-0.041,1.107-0.092,1.987-0.119,2.419l-0.355,0.457
		c-2.017,2.601-5.058,4.093-8.343,4.093c-2.736,0-5.232-1.047-7.108-2.761l1.345-0.673c1.781-0.892,0.398-3.654-1.383-2.762
		l-1.954,0.978c-0.35-0.596-0.644-1.229-0.873-1.891c-0.172-0.498-0.308-1.012-0.405-1.54l3.223-0.556
		c1.266-0.218,1.496-1.562,0.974-2.398c-0.287-0.46-0.802-0.767-1.499-0.647l-2.497,0.431l-0.304,0.052
		c0.004-0.035,0.009-0.069,0.013-0.104c0.148-1.197,0.498-2.348,1.048-3.434l-2.067-1.046l-2.067-1.046
		c-0.642,1.269-1.094,2.597-1.357,3.971c-5.495-2.899-9.284-8.951-9.284-15.934v-0.406c0-3.367,0.885-6.643,2.56-9.474
		C8.813,52.245,11.098,50.031,13.8,48.579z"/>
	<path d="M50.408,67.75c0.685,0,1.371-0.096,2.038-0.284c3.701-1.046,5.924-4.689,4.954-8.122c-0.78-2.759-3.365-4.613-6.433-4.613
		c-0.685,0-1.371,0.096-2.038,0.284c-3.701,1.046-5.924,4.689-4.954,8.122C44.754,65.896,47.34,67.75,50.408,67.75z M50.188,59.474
		c0.258-0.073,0.52-0.11,0.779-0.11c0.956,0,1.768,0.51,1.974,1.24c0.271,0.958-0.533,2.058-1.754,2.403
		c-0.258,0.073-0.52,0.11-0.779,0.11c-0.956,0-1.768-0.51-1.974-1.239C48.163,60.92,48.967,59.819,50.188,59.474z"/>
	<path d="M20.931,59.344c-0.97,3.433,1.252,7.076,4.954,8.122c0.668,0.189,1.353,0.284,2.038,0.284h0
		c3.068,0,5.653-1.854,6.433-4.613c0.97-3.433-1.252-7.076-4.954-8.122c-0.668-0.189-1.353-0.284-2.038-0.284
		C24.296,54.731,21.711,56.585,20.931,59.344z M29.897,61.877c-0.206,0.73-1.018,1.24-1.974,1.239c-0.259,0-0.521-0.037-0.778-0.11
		c-1.222-0.345-2.025-1.445-1.754-2.403c0.206-0.73,1.018-1.24,1.974-1.24c0.259,0,0.521,0.037,0.779,0.11
		C29.364,59.819,30.167,60.92,29.897,61.877z"/>
	<path d="M26.317,46.048c-0.362-7.367-1.113-14.714-2.248-22.002c-0.608-3.901-1.879-15.113-8.643-11.591
		c-5.682,2.715-3.942,10.208-3.016,15.286c1.206,6.609,3.58,12.937,5.957,19.196C21.016,46.641,23.667,46.344,26.317,46.048z"/>
	<path d="M65.598,27.741c0.926-5.077,2.666-12.571-3.016-15.286c-6.763-3.522-8.035,7.69-8.643,11.591
		c-1.135,7.288-1.886,14.635-2.248,22.002c2.65,0.296,5.3,0.593,7.95,0.889C62.018,40.678,64.392,34.35,65.598,27.741z"/>
</g>
<g>
</g>
<g>
</g>
<g>
</g>
<g>
</g>
<g>
</g>
<g>
</g>
<g>
</g>
<g>
</g>
<g>
</g>
<g>
</g>
<g>
</g>
<g>
</g>
<g>
</g>
<g>
</g>
<g>
</g>
</svg>
