<?xml version="1.0" encoding="utf-8"?>
<!-- Generator: Adobe Illustrator 16.2.0, SVG Export Plug-In . SVG Version: 6.00 Build 0)  -->
<!DOCTYPE svg PUBLIC "-//W3C//DTD SVG 1.1//EN" "http://www.w3.org/Graphics/SVG/1.1/DTD/svg11.dtd">
<svg version="1.1" id="Layer_1" xmlns="http://www.w3.org/2000/svg" xmlns:xlink="http://www.w3.org/1999/xlink" x="0px" y="0px"
	 width="587px" height="543px" viewBox="0 0 587 543" enable-background="new 0 0 587 543" xml:space="preserve">
<style type="text/css">
	<![CDATA[
	 .bg {fill:#4756A6}
	]]>
</style>
<g>
	
		<linearGradient id="SVGID_1_" gradientUnits="userSpaceOnUse" x1="4530.8203" y1="-123.2769" x2="4530.8203" y2="-102.3575" gradientTransform="matrix(-1 0 0 1 4820.3789 129.8311)">
		<stop  offset="0" style="stop-color:#1A1A1A"/>
		<stop  offset="0.1978" style="stop-color:#FFFFFF"/>
		<stop  offset="1" style="stop-color:#000000"/>
	</linearGradient>
	<path fill="url(#SVGID_1_)" d="M255.591,23.623c0,1.234,0,2.473,0,3.706c10.869-4.818,22.247-4.405,33.969-4.405
		c11.721,0,22.385,1.52,33.966,4.405c0-1.193,0-2.386,0-3.579c0-9.577-3.065-12.576-6.871-13.633
		c-17.954-4.953-36.232-5.048-54.186-0.096C258.66,11.067,255.591,14.042,255.591,23.623z"/>
	
		<linearGradient id="SVGID_2_" gradientUnits="userSpaceOnUse" x1="4530.8203" y1="-122.3994" x2="4530.8203" y2="-101.4801" gradientTransform="matrix(-1 0 0 1 4820.3789 129.8311)">
		<stop  offset="0" style="stop-color:#333333"/>
		<stop  offset="0.5275" style="stop-color:#000000"/>
		<stop  offset="1" style="stop-color:#333333"/>
	</linearGradient>
	<path fill="url(#SVGID_2_)" d="M255.591,24.5c0,1.235,0,2.471,0,3.706c10.869-4.816,22.247-4.403,33.969-4.403
		c11.721,0,22.385,1.518,33.966,4.403c0-1.193,0-2.386,0-3.58c0-9.577-3.065-12.576-6.871-13.631
		c-17.954-4.955-36.232-5.05-54.186-0.097C258.66,11.944,255.591,14.92,255.591,24.5z"/>
	
		<linearGradient id="SVGID_3_" gradientUnits="userSpaceOnUse" x1="2322.3799" y1="-2374.0317" x2="2322.6472" y2="-2389.5115" gradientTransform="matrix(0 -1 1 0 2691.4424 2339.4414)">
		<stop  offset="0" style="stop-color:#C5C5C5"/>
		<stop  offset="0.1358" style="stop-color:#A4A4A4"/>
		<stop  offset="0.4431" style="stop-color:#5E5E5E"/>
		<stop  offset="0.6998" style="stop-color:#2B2B2B"/>
		<stop  offset="0.8929" style="stop-color:#0C0C0C"/>
		<stop  offset="1" style="stop-color:#000000"/>
	</linearGradient>
	<path fill="url(#SVGID_3_)" d="M306.938,24.974c2.488,0.336,4.976,0.748,7.479,1.226v-3.548c0-6.978-2.966-11.244-7.626-13.88
		c-3.343-0.586-6.69-1.004-10.04-1.254C301.264,10.66,306.202,16.484,306.938,24.974z"/>
	
		<linearGradient id="SVGID_4_" gradientUnits="userSpaceOnUse" x1="2322.5771" y1="2076.3096" x2="2322.8445" y2="2060.8328" gradientTransform="matrix(0 -1 -1 0 2339.1934 2339.4414)">
		<stop  offset="0" style="stop-color:#C5C5C5"/>
		<stop  offset="0.1358" style="stop-color:#A4A4A4"/>
		<stop  offset="0.4431" style="stop-color:#5E5E5E"/>
		<stop  offset="0.6998" style="stop-color:#2B2B2B"/>
		<stop  offset="0.8929" style="stop-color:#0C0C0C"/>
		<stop  offset="1" style="stop-color:#000000"/>
	</linearGradient>
	<path fill="url(#SVGID_4_)" d="M273.353,24.697c-2.486,0.336-4.973,0.748-7.478,1.226v-3.548c0-6.978,2.965-11.244,7.628-13.88
		c3.34-0.586,6.687-0.846,10.038-1.097C279.027,10.542,274.088,16.207,273.353,24.697z"/>
	
		<linearGradient id="SVGID_5_" gradientUnits="userSpaceOnUse" x1="2701.3438" y1="-2435.8501" x2="2701.3438" y2="-2428.0825" gradientTransform="matrix(0 1 1 0 2691.4414 -2681.9063)">
		<stop  offset="0" style="stop-color:#C5C5C5"/>
		<stop  offset="0.1197" style="stop-color:#9F9F9F"/>
		<stop  offset="0.2968" style="stop-color:#6D6D6D"/>
		<stop  offset="0.431" style="stop-color:#4D4D4D"/>
		<stop  offset="0.5055" style="stop-color:#424242"/>
	</linearGradient>
	<path fill="url(#SVGID_5_)" d="M258.017,27.229c-0.812,0.302-1.619,0.621-2.426,0.978c0-1.235,0-2.471,0-3.706
		c0-9.58,3.068-12.556,6.878-13.602c0.297-0.081,0.594-0.15,0.89-0.23C261.916,11.146,258.184,16.676,258.017,27.229z"/>
	
		<linearGradient id="SVGID_6_" gradientUnits="userSpaceOnUse" x1="2701.3438" y1="2007.1738" x2="2701.3438" y2="2014.9414" gradientTransform="matrix(0 1 -1 0 2330.7734 -2681.9072)">
		<stop  offset="0" style="stop-color:#C5C5C5"/>
		<stop  offset="0.1197" style="stop-color:#9F9F9F"/>
		<stop  offset="0.2968" style="stop-color:#6D6D6D"/>
		<stop  offset="0.431" style="stop-color:#4D4D4D"/>
		<stop  offset="0.5055" style="stop-color:#424242"/>
	</linearGradient>
	<path fill="url(#SVGID_6_)" d="M321.175,27.229c0.812,0.302,1.62,0.621,2.425,0.978c0-1.235,0-2.471,0-3.706
		c0-9.58-3.067-12.556-6.876-13.602c-0.297-0.081-0.594-0.15-0.892-0.23C317.277,11.146,321.009,16.676,321.175,27.229z"/>
</g>
<rect x="190.72" y="40.934" class="bg" width="204.914" height="476.11"/>
<g>
	
		<linearGradient id="SVGID_7_" gradientUnits="userSpaceOnUse" x1="4527.3438" y1="-1008.3911" x2="4527.3438" y2="-981.3621" gradientTransform="matrix(-1 0 0 -1 4820.3809 -472.2969)">
		<stop  offset="0" style="stop-color:#1A1A1A"/>
		<stop  offset="0.1978" style="stop-color:#FFFFFF"/>
		<stop  offset="1" style="stop-color:#000000"/>
	</linearGradient>
	<path fill="url(#SVGID_7_)" d="M210.654,531.615c54.599,6.399,110.179,6.277,164.776-0.125
		c11.578-1.364,20.901-5.239,20.901-17.611c0-1.542,0-3.084,0-4.626c-35.224,3.728-67.647,5.688-103.292,5.688
		c-35.646,0-70.247,0.535-103.296-5.688c0,1.595,0,3.193,0,4.788C189.743,526.42,199.072,530.264,210.654,531.615z"/>
	
		<linearGradient id="SVGID_8_" gradientUnits="userSpaceOnUse" x1="4527.3438" y1="-1005.188" x2="4527.3438" y2="-978.1589" gradientTransform="matrix(-1 0 0 -1 4820.3809 -472.2969)">
		<stop  offset="0" style="stop-color:#333333"/>
		<stop  offset="0.5275" style="stop-color:#000000"/>
		<stop  offset="1" style="stop-color:#333333"/>
	</linearGradient>
	<path fill="url(#SVGID_8_)" d="M210.654,528.412c54.599,6.399,110.179,6.277,164.776-0.125
		c11.578-1.363,20.901-5.238,20.901-17.611c0-1.542,0-3.084,0-4.626c-35.224,3.729-67.647,5.689-103.292,5.689
		c-35.646,0-70.247,0.534-103.296-5.689c0,1.595,0,3.193,0,4.789C189.743,523.218,199.072,527.062,210.654,528.412z"/>
	
		<linearGradient id="SVGID_9_" gradientUnits="userSpaceOnUse" x1="1822.0615" y1="-2501.6997" x2="1822.0615" y2="-2478.0796" gradientTransform="matrix(0 -1 1 0 2691.4424 2339.4414)">
		<stop  offset="0" style="stop-color:#C5C5C5"/>
		<stop  offset="0.1197" style="stop-color:#9F9F9F"/>
		<stop  offset="0.2968" style="stop-color:#6D6D6D"/>
		<stop  offset="0.431" style="stop-color:#4D4D4D"/>
		<stop  offset="0.5055" style="stop-color:#424242"/>
	</linearGradient>
	<path fill="url(#SVGID_9_)" d="M197.118,507.313c-2.466-0.391-4.926-0.804-7.375-1.264c0,1.595,0,3.193,0,4.789
		c0,12.379,9.33,16.223,20.911,17.573c0.902,0.106,1.807,0.194,2.708,0.298C208.971,528.09,197.623,520.947,197.118,507.313z"/>
	
		<linearGradient id="SVGID_10_" gradientUnits="userSpaceOnUse" x1="1822.0615" y1="1934.2227" x2="1822.0615" y2="1957.8418" gradientTransform="matrix(0 -1 -1 0 2330.7754 2339.4414)">
		<stop  offset="0" style="stop-color:#C5C5C5"/>
		<stop  offset="0.1197" style="stop-color:#9F9F9F"/>
		<stop  offset="0.2968" style="stop-color:#6D6D6D"/>
		<stop  offset="0.431" style="stop-color:#4D4D4D"/>
		<stop  offset="0.5055" style="stop-color:#424242"/>
	</linearGradient>
	<path fill="url(#SVGID_10_)" d="M389.178,507.313c2.467-0.391,4.926-0.804,7.375-1.264c0,1.595,0,3.193,0,4.789
		c0,12.379-9.329,16.223-20.911,17.573c-0.902,0.106-1.806,0.194-2.708,0.298C377.324,528.09,388.673,520.947,389.178,507.313z"/>
	
		<linearGradient id="SVGID_11_" gradientUnits="userSpaceOnUse" x1="1818.0488" y1="-2474.9082" x2="1818.0488" y2="-2394.9358" gradientTransform="matrix(0 -1 1 0 2691.4424 2339.4414)">
		<stop  offset="0" style="stop-color:#FFFFFF"/>
		<stop  offset="1" style="stop-color:#000000"/>
	</linearGradient>
	<path fill="url(#SVGID_11_)" d="M293.039,511.739c-26.4,0-52.225,0.287-77.274-2.089c0,0.222,0,0.443,0,0.669
		c0,12.063,5.905,17.505,14.14,20.066c21.937,1.952,43.995,2.855,66.046,2.74v-21.405
		C294.975,511.724,294.021,511.739,293.039,511.739z"/>
	
		<linearGradient id="SVGID_12_" gradientUnits="userSpaceOnUse" x1="1819.7754" y1="-2295.4097" x2="1819.7754" y2="-2327.8357" gradientTransform="matrix(0 -1 1 0 2691.4424 2339.4414)">
		<stop  offset="0" style="stop-color:#FFFFFF"/>
		<stop  offset="1" style="stop-color:#3E3D3F"/>
	</linearGradient>
	<path fill="url(#SVGID_12_)" d="M343.821,531.284c5.142-0.485,18.663-1.603,23.791-2.196c11.62-3.353,12.809-20.761,12.809-21.039
		c-4.521,0.537-9.076,0.935-13.649,1.275C365.693,517.979,364.808,526.063,343.821,531.284z"/>
</g>
<g>
	
		<linearGradient id="SVGID_13_" gradientUnits="userSpaceOnUse" x1="4527.3418" y1="-107.9497" x2="4527.3418" y2="-80.9206" gradientTransform="matrix(-1 0 0 1 4820.3789 129.8311)">
		<stop  offset="0" style="stop-color:#1A1A1A"/>
		<stop  offset="0.1978" style="stop-color:#FFFFFF"/>
		<stop  offset="1" style="stop-color:#000000"/>
	</linearGradient>
	<path fill="url(#SVGID_13_)" d="M189.743,43.935c0,1.595,0,3.193,0,4.788c33.049-6.224,67.65-5.69,103.296-5.69
		c35.645,0,68.069,1.962,103.292,5.69c0-1.542,0-3.083,0-4.625c0-12.373-9.323-16.248-20.901-17.613
		c-54.597-6.401-110.177-6.522-164.776-0.124C199.072,27.712,189.743,31.556,189.743,43.935z"/>
	
		<linearGradient id="SVGID_14_" gradientUnits="userSpaceOnUse" x1="4527.3418" y1="-104.7466" x2="4527.3418" y2="-77.7175" gradientTransform="matrix(-1 0 0 1 4820.3789 129.8311)">
		<stop  offset="0" style="stop-color:#333333"/>
		<stop  offset="0.5275" style="stop-color:#000000"/>
		<stop  offset="1" style="stop-color:#333333"/>
	</linearGradient>
	<path fill="url(#SVGID_14_)" d="M189.743,47.138c0,1.595,0,3.193,0,4.789c33.049-6.224,67.65-5.691,103.296-5.691
		c35.645,0,68.069,1.962,103.292,5.691c0-1.542,0-3.084,0-4.626c0-12.373-9.323-16.248-20.901-17.613
		c-54.597-6.4-110.177-6.522-164.776-0.124C199.072,30.915,189.743,34.758,189.743,47.138z"/>
	
		<linearGradient id="SVGID_15_" gradientUnits="userSpaceOnUse" x1="2722.502" y1="-2501.6987" x2="2722.502" y2="-2478.0786" gradientTransform="matrix(0 1 1 0 2691.4414 -2681.9063)">
		<stop  offset="0" style="stop-color:#C5C5C5"/>
		<stop  offset="0.1197" style="stop-color:#9F9F9F"/>
		<stop  offset="0.2968" style="stop-color:#6D6D6D"/>
		<stop  offset="0.431" style="stop-color:#4D4D4D"/>
		<stop  offset="0.5055" style="stop-color:#424242"/>
	</linearGradient>
	<path fill="url(#SVGID_15_)" d="M197.118,50.663c-2.466,0.389-4.926,0.802-7.375,1.264c0-1.595,0-3.194,0-4.789
		c0-12.379,9.33-16.223,20.911-17.574c0.902-0.106,1.807-0.194,2.708-0.297C208.971,29.884,197.623,37.029,197.118,50.663z"/>
	
		<linearGradient id="SVGID_16_" gradientUnits="userSpaceOnUse" x1="2722.5039" y1="1934.2207" x2="2722.5039" y2="1957.8398" gradientTransform="matrix(0 1 -1 0 2330.7734 -2681.9072)">
		<stop  offset="0" style="stop-color:#C5C5C5"/>
		<stop  offset="0.1197" style="stop-color:#9F9F9F"/>
		<stop  offset="0.2968" style="stop-color:#6D6D6D"/>
		<stop  offset="0.431" style="stop-color:#4D4D4D"/>
		<stop  offset="0.5055" style="stop-color:#424242"/>
	</linearGradient>
	<path fill="url(#SVGID_16_)" d="M389.178,50.663c2.467,0.389,4.926,0.802,7.375,1.264c0-1.595,0-3.194,0-4.789
		c0-12.379-9.329-16.223-20.911-17.574c-0.902-0.106-1.806-0.194-2.708-0.297C377.324,29.884,388.673,37.029,389.178,50.663z"/>
	
		<linearGradient id="SVGID_17_" gradientUnits="userSpaceOnUse" x1="2718.4902" y1="-2474.9072" x2="2718.4902" y2="-2394.9348" gradientTransform="matrix(0 1 1 0 2691.4414 -2681.9063)">
		<stop  offset="0" style="stop-color:#FFFFFF"/>
		<stop  offset="1" style="stop-color:#000000"/>
	</linearGradient>
	<path fill="url(#SVGID_17_)" d="M293.039,46.235c-26.4,0-52.225-0.286-77.274,2.091c0-0.222,0-0.446,0-0.669
		c0-12.065,5.905-17.507,14.14-20.068c21.937-1.95,43.995-2.854,66.046-2.738v21.405C294.975,46.252,294.021,46.235,293.039,46.235z
		"/>
	
		<linearGradient id="SVGID_18_" gradientUnits="userSpaceOnUse" x1="2720.2168" y1="-2295.4087" x2="2720.2168" y2="-2327.8347" gradientTransform="matrix(0 1 1 0 2691.4414 -2681.9063)">
		<stop  offset="0" style="stop-color:#FFFFFF"/>
		<stop  offset="1" style="stop-color:#3E3D3F"/>
	</linearGradient>
	<path fill="url(#SVGID_18_)" d="M343.821,26.692c5.142,0.485,18.663,1.6,23.791,2.196c11.62,3.353,12.809,20.761,12.809,21.039
		c-4.521-0.54-9.076-0.937-13.649-1.277C365.693,39.998,364.808,31.911,343.821,26.692z"/>
</g>
</svg>
