<?xml version="1.0" encoding="utf-8"?>
<!-- Generator: Adobe Illustrator 18.0.0, SVG Export Plug-In . SVG Version: 6.00 Build 0)  -->
<!DOCTYPE svg PUBLIC "-//W3C//DTD SVG 1.1//EN" "http://www.w3.org/Graphics/SVG/1.1/DTD/svg11.dtd">
<svg version="1.1" id="Layer_1" xmlns="http://www.w3.org/2000/svg" xmlns:xlink="http://www.w3.org/1999/xlink" x="0px" y="0px"
	 width="146.8px" height="543px" viewBox="0 0 146.8 543" enable-background="new 0 0 146.8 543" xml:space="preserve">
<style type="text/css">
	<![CDATA[
	 .bg{fill:#FFFFFF;}
	]]>
</style>
<rect id="background" x="-8000" y="-8000" fill="#FFFFFF" fill-opacity="1" enable-background="new    " width="15763.1" height="16000"/>
<path id="flag" class="bg" stroke="#1D1D1B" stroke-width="0.5" stroke-miterlimit="10" d="M23.3,541.9
	c0,0,126.9-42.4,123-112.8s-37.7-76.2-45.6-219.3c-8-143.1,46-198.4,46-198.4l-1,1.1V0C145.7,0,2,4.9,2,132.8V441l-2.1,102h19
	L23.3,541.9z"/>
<path id="la-product-mask" fill="#FFFFFF" fill-opacity="1" d="M-8000-8000V8000H7763.1V-8000H-8000z M100.7,209.8
	c8,143.1,41.7,148.9,45.6,219.3s-123,112.8-123,112.8l-4.4,1.1h-19L2,441V132.7C2,4.8,145.7-0.1,145.7-0.1v12.5c0.6-0.7,1-1.1,1-1.1
	l-1,1.1l0,0C138.6,20.7,93.3,78,100.7,209.8z"/>
</svg>
