<?xml version="1.0" encoding="utf-8"?>
<!-- Generator: Adobe Illustrator 16.0.4, SVG Export Plug-In . SVG Version: 6.00 Build 0)  -->
<!DOCTYPE svg PUBLIC "-//W3C//DTD SVG 1.1//EN" "http://www.w3.org/Graphics/SVG/1.1/DTD/svg11.dtd">
<svg version="1.1" id="Layer_1" xmlns="http://www.w3.org/2000/svg" xmlns:xlink="http://www.w3.org/1999/xlink" x="0px" y="0px"
	 width="24px" height="24px" viewBox="0 0 24 24" enable-background="new 0 0 24 24" xml:space="preserve">
<path d="M12,0C5.4,0,0,5.4,0,12c0,6.6,5.4,12,12,12c6.6,0,12-5.4,12-12C24,5.4,18.6,0,12,0z M21.835,10.245
	c-0.081,0.076-1.997,1.814-6.64,2.405c0.059-3.724,2.574-6.369,3.996-7.572C20.537,6.477,21.479,8.261,21.835,10.245z
	 M12.797,21.881c-0.023-0.027-2.089-2.57-2.552-7.789c0.559,0.034,1.136,0.059,1.755,0.059c0.707,0,1.361-0.03,1.99-0.074
	c0.438,3.047,2.738,4.807,4.314,5.668c-1.52,1.24-3.406,2.041-5.467,2.214C12.823,21.934,12.816,21.904,12.797,21.881z M10.15,12
	c0-6.605,2.593-9.815,2.646-9.88c0.021-0.023,0.026-0.052,0.042-0.077c2.021,0.17,3.874,0.946,5.378,2.147
	c-1.646,1.407-4.329,4.353-4.317,8.587C13.3,12.82,12.676,12.85,12,12.85c-0.651,0-1.252-0.027-1.831-0.066
	C10.161,12.523,10.15,12.27,10.15,12z M11.275,2.037C10.423,3.41,8.85,6.667,8.85,12c0,0.227,0.011,0.439,0.016,0.658
	c-1.043-0.131-1.95-0.316-2.73-0.531c-0.107-3.733-0.878-6.163-1.25-7.132C6.542,3.312,8.786,2.218,11.275,2.037z M3.909,6.159
	C4.248,7.24,4.698,9.12,4.817,11.701c-1.79-0.677-2.598-1.405-2.652-1.456C2.435,8.74,3.043,7.353,3.909,6.159z M2,12
	c0-0.082,0.01-0.162,0.012-0.244c0.578,0.385,1.503,0.891,2.834,1.344c-0.021,3.274-1.035,4.569-1.04,4.576
	c-0.004,0.006-0.005,0.012-0.009,0.018C2.668,16.074,2,14.111,2,12z M4.587,18.678c0.076-0.037,0.147-0.087,0.206-0.154
	c0.053-0.062,1.231-1.517,1.337-5.041c0.814,0.207,1.753,0.377,2.803,0.496c0.324,4.166,1.602,6.791,2.342,7.984
	C8.63,21.771,6.268,20.54,4.587,18.678z M19.307,18.795c-1.302-0.645-3.599-2.15-4.021-4.844c3.556-0.438,5.675-1.511,6.7-2.194
	C21.988,11.838,22,11.918,22,12C22,14.621,20.971,17.007,19.307,18.795z"/>
</svg>
