<?xml version="1.0" encoding="utf-8"?>
<!-- Generator: Adobe Illustrator 16.0.4, SVG Export Plug-In . SVG Version: 6.00 Build 0)  -->
<!DOCTYPE svg PUBLIC "-//W3C//DTD SVG 1.1//EN" "http://www.w3.org/Graphics/SVG/1.1/DTD/svg11.dtd">
<svg version="1.1" id="Layer_1" xmlns="http://www.w3.org/2000/svg" xmlns:xlink="http://www.w3.org/1999/xlink" x="0px" y="0px"
	 width="24px" height="24px" viewBox="0 0 24 24" enable-background="new 0 0 24 24" xml:space="preserve">
<path d="M24,11c0,0.552-0.447,1-1,1h-4c-0.459,0-0.857-0.312-0.971-0.757l-0.15-0.604L17.3,8.9l-3.8,2.4l2.073,4.688l0.295,0.516
	c0.177,0.311,0.176,0.689-0.003,0.998C15.686,17.811,15.355,18,15,18H8c-0.552,0-1-0.447-1-1s0.448-1,1-1h4.915L9.5,11.2
	c-1-1.4-0.1-2.2,1-3l4.7-2.9l-2.452-2.23L8.196,3.98C7.654,4.088,7.127,3.737,7.02,3.196C6.911,2.655,7.262,2.128,7.804,2.02l5-1
	c0.278-0.057,0.568,0.01,0.795,0.181l3.775,2.831C17.536,4.093,17.707,4.207,17.9,4.4l1,1.7l0.933,3.9H23C23.553,10,24,10.448,24,11
	z M20.5,5C21.881,5,23,3.881,23,2.5S21.881,0,20.5,0S18,1.119,18,2.5S19.119,5,20.5,5z M8.3,22.3c-0.4,0.4-0.4,1,0,1.4
	C8.5,23.9,8.7,24,9,24s0.5-0.1,0.7-0.3l5.2-4.7h-3.3L8.3,22.3z M7.3,9H0v1h7C7,9.6,7.1,9.3,7.3,9z M10.9,6H0v1h9.3L10.9,6z M7.8,12
	H0v1h8.5L7.8,12z"/>
</svg>
