<?xml version="1.0" encoding="utf-8"?>
<!-- Generator: Adobe Illustrator 16.0.4, SVG Export Plug-In . SVG Version: 6.00 Build 0)  -->
<!DOCTYPE svg PUBLIC "-//W3C//DTD SVG 1.1//EN" "http://www.w3.org/Graphics/SVG/1.1/DTD/svg11.dtd">
<svg version="1.1" id="Layer_1" xmlns="http://www.w3.org/2000/svg" xmlns:xlink="http://www.w3.org/1999/xlink" x="0px" y="0px"
	 width="24px" height="24px" viewBox="0 0 24 24" enable-background="new 0 0 24 24" xml:space="preserve">
<path d="M19,2c0-1.104,0.896-2,2-2s2,0.896,2,2s-0.896,2-2,2S19,3.104,19,2z M3.4,3.3c0,0,0.5,0.2,0.9,0.2c0.4,0,1.1-0.6,1.1-0.6
	l7.686,5.032L13.8,8.5L16,7.106V9c0,0.315,0.148,0.611,0.4,0.8l4,3c0.18,0.136,0.39,0.2,0.599,0.2c0.306,0,0.604-0.139,0.801-0.4
	c0.332-0.44,0.242-1.067-0.2-1.398L18,8.5V7.602c0.139-1.19,0.3-2.589,0.3-2.702c0-1.4-1.3-1.9-3-1.9
	c-2.131,0-3.8,1.055-4.689,1.767L6,2c0,0,0.1-0.5,0-1C5.8,0.5,5.4,0.3,5.4,0.3L4.6,1.4L3.3,0.9l1,1.1L3.4,3.3z M19.7,22
	l-7.192-4.094l4.199-4.199c0.212-0.212,0.316-0.508,0.288-0.807c-0.027-0.277-0.179-0.523-0.399-0.691
	c0-0.002,0.004-0.009,0.004-0.009L9,6.7L8.5,7.4c-0.7,1-0.5,2.5,0.6,3.2c1.106,0.711,3.832,2.107,5.125,2.759l-3.52,3.521L0.9,11.3
	L0,12.8l19,10.8c0.5,0.2,1.2,0.4,2,0.4c1,0,2.3-0.6,3-1.7C24,22.3,22.4,23.2,19.7,22z"/>
</svg>
