<?xml version="1.0" encoding="utf-8"?>
<!-- Generator: Adobe Illustrator 16.0.4, SVG Export Plug-In . SVG Version: 6.00 Build 0)  -->
<!DOCTYPE svg PUBLIC "-//W3C//DTD SVG 1.1//EN" "http://www.w3.org/Graphics/SVG/1.1/DTD/svg11.dtd">
<svg version="1.1" id="Layer_1" xmlns="http://www.w3.org/2000/svg" xmlns:xlink="http://www.w3.org/1999/xlink" x="0px" y="0px"
	 width="20.7px" height="24.05px" viewBox="0 0 20.7 24.05" enable-background="new 0 0 20.7 24.05" xml:space="preserve">
<path d="M5,21.5C5,22.88,3.88,24,2.5,24S0,22.88,0,21.5S1.119,19,2.5,19S5,20.119,5,21.5z M13.5,5C14.881,5,16,3.881,16,2.5
	S14.881,0,13.5,0S11,1.119,11,2.5S12.12,5,13.5,5z M20.54,11.356l-2.199-3.4c-0.092-0.141-0.219-0.257-0.365-0.337l-2.344-1.262
	C14.556,5.669,11.172,4.908,9.799,5.3C9.781,5.304,9.766,5.314,9.746,5.319C9.605,5.34,9.467,5.386,9.34,5.471l-3.7,2.5
	C5.599,8,5.559,8.031,5.521,8.065l-2.6,2.4c-0.406,0.375-0.431,1.007-0.057,1.413C3.062,12.092,3.331,12.2,3.601,12.2
	c0.242,0,0.485-0.088,0.678-0.265l2.544-2.349L8.99,8.121l-2.564,6.078l-1.04,2.032c-0.314,0.614-0.071,1.367,0.543,1.683
	c0.182,0.094,0.376,0.137,0.568,0.137c0.454,0,0.893-0.247,1.114-0.68l0.161-0.314L7.799,17.1l2.1-3l-0.866,3.563l-1.708,4.711
	c-0.235,0.647,0.1,1.365,0.749,1.601C8.214,24.027,8.358,24.05,8.5,24.05c0.511,0,0.991-0.315,1.174-0.824l3.3-9.1
	c0.026-0.073,0.021-0.146,0.032-0.222L14.9,8.4c0,0,0.024-0.052,0.062-0.13l1.838,0.989l2.062,3.185
	c0.19,0.296,0.513,0.457,0.841,0.457c0.188,0,0.375-0.053,0.543-0.161C20.708,12.439,20.84,11.82,20.54,11.356z"/>
</svg>
