<?xml version="1.0" encoding="utf-8"?>
<!-- Generator: Adobe Illustrator 16.0.4, SVG Export Plug-In . SVG Version: 6.00 Build 0)  -->
<!DOCTYPE svg PUBLIC "-//W3C//DTD SVG 1.1//EN" "http://www.w3.org/Graphics/SVG/1.1/DTD/svg11.dtd">
<svg version="1.1" id="Layer_1" xmlns="http://www.w3.org/2000/svg" xmlns:xlink="http://www.w3.org/1999/xlink" x="0px" y="0px"
	 width="24px" height="24px" viewBox="0 0 24 24" enable-background="new 0 0 24 24" xml:space="preserve">
<path d="M12,0C5.4,0,0,5.4,0,12c0,6.6,5.4,12,12,12c6.6,0,12-5.4,12-12C24,5.4,18.6,0,12,0z M20.113,18.34L19.9,16.9l-3.7,0.8
	l-2,3.3l1.366,0.654C14.454,22.064,13.257,22.3,12,22.3c-1.256,0-2.454-0.233-3.566-0.646L9.8,21l-2-3.3l-3.7-0.8L3.887,18.34
	C2.521,16.593,1.7,14.396,1.7,12c0-0.113,0.013-0.223,0.017-0.334L2.7,12.7l2.6-2.9L4.9,6L3.435,6.271
	C4.78,4.26,6.818,2.761,9.208,2.092L8.5,3.4L12,4.9l3.5-1.5l-0.709-1.308c2.391,0.669,4.43,2.168,5.773,4.18L19.1,6L18.7,9.8
	l2.6,2.9l0.983-1.035C22.286,11.777,22.3,11.887,22.3,12C22.3,14.396,21.479,16.593,20.113,18.34z M12,8l4.2,3.1L14.6,16H9.4
	l-1.6-4.9L12,8z"/>
</svg>
