<?xml version="1.0" encoding="iso-8859-1"?>
<!-- Generator: Adobe Illustrator 17.1.0, SVG Export Plug-In . SVG Version: 6.00 Build 0)  -->
<!DOCTYPE svg PUBLIC "-//W3C//DTD SVG 1.1//EN" "http://www.w3.org/Graphics/SVG/1.1/DTD/svg11.dtd">
<svg version="1.1" id="Layer_1" xmlns="http://www.w3.org/2000/svg" xmlns:xlink="http://www.w3.org/1999/xlink" x="0px" y="0px" width="800px" height="800px"
	 viewBox="0 0 800 800" style="enable-background:new 0 0 800 800;" xml:space="preserve">
<path d="M443.524,25.586c-120.506,0-227.162,60.159-291.719,151.96c13.361,8.717,26.384,20.67,38.98,36.036
	C238.947,141.568,316.82,91.042,406.922,80.181l36.597,61.931l36.598-61.932c138.499,16.692,248.587,126.776,265.287,265.273
	l-61.941,36.603l61.943,36.604c-11.163,92.596-64.194,172.316-139.427,220.095c4.792,10.924,7.493,22.095,7.969,33.61
	c0.351,8.417-0.516,16.368-2.262,23.916C723.672,636.107,800,517.848,800,382.062C800,185.495,640.09,25.586,443.524,25.586z
	 M534.493,612.667c-82.177-66.043-105.156-33.578-142.443,3.702c-26.031,26.041-91.906-28.337-148.785-85.22
	c-56.883-56.89-111.251-122.754-85.223-148.789c37.289-37.282,69.744-60.275,3.683-142.428
	c-66.039-82.185-110.062-19.089-146.182,17.032c-41.699,41.685-2.197,197.028,151.332,350.581
	c153.55,153.532,308.892,193.008,350.567,151.339C553.556,722.76,616.671,678.742,534.493,612.667z M284.217,437.849
	c0-73.047,85.516-86.059,85.516-114.564c0-13.831-11.072-19.638-21.313-19.638c-18.819,0-29.325,21.024-29.325,21.024
	l-35.975-24.072c0,0,18.265-42.614,69.734-42.614c32.373,0,67.517,18.542,67.517,60.601c0,61.71-79.697,73.613-81.083,99.07h84.131
	v41.505H286.434C285.048,451.415,284.217,444.5,284.217,437.849z M443.648,381.959l76.384-120.66h59.216v109.865h23.518v40.12
	h-23.518v47.879h-47.879v-47.879h-87.721V381.959z M531.369,371.164v-44.276c0-10.795,1.663-22.144,1.663-22.144h-0.554
	c0,0-4.145,12.18-9.687,20.482l-29.879,45.385v0.554H531.369z"/>
</svg>
