<?xml version="1.0" encoding="iso-8859-1"?>
<!-- Generator: Adobe Illustrator 17.1.0, SVG Export Plug-In . SVG Version: 6.00 Build 0)  -->
<!DOCTYPE svg PUBLIC "-//W3C//DTD SVG 1.1//EN" "http://www.w3.org/Graphics/SVG/1.1/DTD/svg11.dtd">
<svg version="1.1" id="Layer_1" xmlns="http://www.w3.org/2000/svg" xmlns:xlink="http://www.w3.org/1999/xlink" x="0px" y="0px" width="800px" height="800px"
	 viewBox="0 0 800 800" style="enable-background:new 0 0 800 800;" xml:space="preserve">
<path d="M263.506,520.899c0-75.072,97.35-87.082,97.35-128.439c0-18.171-14.064-29.035-31.662-29.035
	c-24.331,0-37.536,24.642-37.536,24.642l-28.152-18.768c0,0,19.054-41.643,68.911-41.643c36.652,0,67.741,22.278,67.741,61.581
	c0,66.858-93.243,78.295-94.126,117.598h97.35v32.545H265.273C264.39,532.647,263.506,526.773,263.506,520.899z M424.586,462.542
	l89.733-131.376h44.866v123.162h26.982v31.399h-26.982v53.653h-37.249v-53.653h-97.35V462.542z M521.936,454.328v-64.494
	c0-10.267,1.48-21.705,1.48-21.705h-0.597c0,0-4.68,11.127-10.267,19.054l-48.09,66.571v0.573H521.936z M705.591,443.292
	l-7.246,25.954c-41.186,147.532-191.469,240.627-340.132,203.73c-142.79-35.439-231.532-173.8-210.193-314.763l43.024,12.011
	c9.973,2.784,19.221-6.272,16.645-16.302L160.9,171.725c-2.575-10.029-15.041-13.509-22.439-6.265L4.048,297.072
	c-7.399,7.245-4.18,19.783,5.794,22.567l46.832,13.074c-34.949,190.681,82.687,380.591,274.65,430.58
	c199.332,51.908,402.646-71.475,458.031-269.87l6.927-24.813c1.997-7.155-2.184-14.575-9.339-16.573l-64.779-18.084
	C715.008,431.955,707.588,436.137,705.591,443.292z M782.138,329.762l-67.934,8.826c-7.367,0.957-12.563,7.705-11.606,15.072
	l2.677,20.604c0.957,7.367,7.705,12.563,15.072,11.606l67.934-8.826c7.367-0.957,12.563-7.705,11.606-15.072l-2.677-20.604
	C796.253,334.001,789.505,328.805,782.138,329.762z M729.841,201.391l-59.681,33.632c-6.472,3.647-8.762,11.85-5.115,18.322
	l10.2,18.101c3.647,6.472,11.85,8.762,18.322,5.115l59.681-33.632c6.472-3.647,8.762-11.85,5.115-18.322l-10.2-18.101
	C744.516,200.034,736.313,197.744,729.841,201.391z M633.264,101.958l-42.737,53.54c-4.635,5.806-3.685,14.27,2.121,18.904
	l16.239,12.962c5.806,4.635,14.27,3.685,18.904-2.121l42.737-53.54c4.635-5.806,3.685-14.27-2.121-18.904l-16.239-12.962
	C646.362,95.202,637.898,96.152,633.264,101.958z M506.471,45.944l-19.569,65.651c-2.122,7.119,1.929,14.611,9.048,16.733
	l19.912,5.935c7.119,2.122,14.611-1.929,16.733-9.048l19.569-65.651c2.122-7.119-1.929-14.611-9.048-16.733l-19.912-5.935
	C516.084,34.774,508.593,38.825,506.471,45.944z M367.927,41.506l6.449,68.201c0.699,7.396,7.262,12.824,14.658,12.125l20.685-1.956
	c7.396-0.699,12.824-7.262,12.125-14.658l-6.449-68.201c-0.699-7.396-7.262-12.824-14.658-12.125l-20.685,1.956
	C372.656,27.548,367.227,34.11,367.927,41.506z M237.809,89.291l31.528,60.819c3.419,6.595,11.537,9.17,18.133,5.751l18.446-9.562
	c6.595-3.419,9.17-11.537,5.751-18.133l-31.528-60.819c-3.419-6.595-11.537-9.17-18.133-5.751l-18.446,9.562
	C236.965,74.577,234.39,82.695,237.809,89.291z"/>
</svg>
