<?xml version="1.0" encoding="iso-8859-1"?>
<!-- Generator: Adobe Illustrator 17.1.0, SVG Export Plug-In . SVG Version: 6.00 Build 0)  -->
<!DOCTYPE svg PUBLIC "-//W3C//DTD SVG 1.1//EN" "http://www.w3.org/Graphics/SVG/1.1/DTD/svg11.dtd">
<svg version="1.1" id="Layer_1" xmlns="http://www.w3.org/2000/svg" xmlns:xlink="http://www.w3.org/1999/xlink" x="0px" y="0px" width="800px" height="800px"
	 viewBox="0 0 800 800" style="enable-background:new 0 0 800 800;" xml:space="preserve">
<path d="M800,255.846c0,138.392-667.154,291.146-717.672,291.146c-28.322,0-60.457-6.528-60.457-32.64
	c0-8.723,10.069-21.332,27.739-36.533l-0.02,0.008L2.757,394.618c-6.341-11.265-1.314-25.537,10.686-30.342l8.048-3.223
	c14.586-5.841,31.004-4.97,44.89,2.381l85.018,45.009c33.102-19.634,70.652-40.191,110.23-60.431L95.951,240.524
	c-13.108-8.504-12.968-27.738,0.263-36.05l13.552-8.514c22.557-14.171,49.979-18.357,75.737-11.563l275.62,72.7
	c85.937-34.11,163.635-57.391,209.625-57.391c12.282,0,24.582,0.325,36.453,1.174l-83.235,37.575l-1.993,27.997l128.484-59.062
	C781.255,214.735,800,228.443,800,255.846z M464.694,494.739l102.809,116.791c6.265,7.117,16.468,9.259,25.066,5.263l13.769-6.4
	c25.109-11.67,39.898-38.132,36.681-65.633l-12.871-110.045c-0.797-6.81-7.706-11.121-14.173-8.843l-146.808,51.717
	C462.021,480.105,459.687,489.051,464.694,494.739z"/>
</svg>
