<?xml version="1.0" encoding="iso-8859-1"?>
<!-- Generator: Adobe Illustrator 17.1.0, SVG Export Plug-In . SVG Version: 6.00 Build 0)  -->
<!DOCTYPE svg PUBLIC "-//W3C//DTD SVG 1.1//EN" "http://www.w3.org/Graphics/SVG/1.1/DTD/svg11.dtd">
<svg version="1.1" id="Layer_1" xmlns="http://www.w3.org/2000/svg" xmlns:xlink="http://www.w3.org/1999/xlink" x="0px" y="0px" width="800px" height="800px"
	 viewBox="0 0 800 800" style="enable-background:new 0 0 800 800;" xml:space="preserve">
<path d="M800,386.501c0,183.728-135.518,336.398-311.843,363.316c1.487-8.154,1.905-16.598,0.904-25.155
	c0,0-1.053-9.004-2.431-20.789c62.601-10.665,119.122-39.39,163.921-80.702c-2.688-2.237-5.368-5.137-8.007-8.988
	c-11.898-17.361,3.66-34.588,3.66-49.769c0-14.892-30.023-13.667-31.121-23.53c-3.794-34.157,20.961-34.622,34.157-47.819
	c13.197-13.198-13.043-43.201-29.994-41.266c-17.065,1.821-65.101-7.882-60.712-44.633c5.347-44.762-57.029-40.812-65.961-61.705
	c-13.021-30.453,8.625-67.807,36.858-76.294c39.989-12.02,79.384-44.644,76.307-80.96c-3.486-41.131-22.104-78.225-52.766-100.26
	C521.063,75.02,486.656,67.026,450.66,65.01c-32.127,1.27-60.372,8.41-59.084,23.118c3.159,36.045,105.658,45.407,88.458,79.101
	c-8.968,17.565-76.267,42.356-63.699,68.497c8.175,17.001,28.293,2.43,20.783,35.067c-3.455,15.017-16.623,43.233-36.873,45.054
	c-20.707,1.934-37.95-52.924-94.314-54.723c-26.646-0.852-64.184,41.573-32.31,71.673c19.302,18.228,55.523-21.907,66.213,9.444
	c7.534,22.093-1.014,68.504,34.145,87.9c12.817,7.071,32.465,13.233,51.898,23.108c-28.844,5.89-64.284,16.881-106.134,33.001
	l-35.26-9.303c14.76-12.289,38.744-20.937,32.71-47.787c-8.864-39.447-77.356-24.569-124.576-71.788
	c-14.486-14.484-45.384-62.579-45.257-120.362c-23.537,44.708-36.933,95.553-36.933,149.492c0,16.603,1.266,32.916,3.701,48.85
	c-0.555-0.009-1.104-0.107-1.658-0.107c-14.871,0-29.455,3.124-42.971,9.032c-2.986-18.83-4.579-38.117-4.579-57.774
	c0-202.66,164.88-367.545,367.539-367.545C635.12,18.956,800,183.841,800,386.501z M524.299,493.627l-89.764,41.263l1.392-19.56
	l58.152-26.251c-8.294-0.593-16.887-0.82-25.468-0.82c-32.13,0-86.413,16.265-146.452,40.096L129.6,477.563
	c-17.995-4.747-37.153-1.822-52.913,8.078l-9.468,5.948c-9.244,5.807-9.342,19.244-0.184,25.186l115.75,75.096
	c-27.651,14.141-53.885,28.503-77.011,42.219l-59.397-31.445c-9.702-5.136-21.172-5.745-31.362-1.664l-5.623,2.252
	c-8.384,3.357-11.896,13.328-7.466,21.198l32.72,58.133l0.014-0.005c-12.345,10.62-19.38,19.429-19.38,25.524
	c0,18.243,22.45,22.803,42.237,22.803c35.294,0,501.394-106.72,501.394-203.406C558.912,508.335,545.816,498.758,524.299,493.627z
	 M327.779,682.398l102.566-36.131c4.518-1.592,9.346,1.42,9.902,6.178l8.992,76.882c2.247,19.213-8.085,37.7-25.627,45.854
	l-9.62,4.471c-6.007,2.792-13.135,1.295-17.512-3.677l-71.826-81.595C321.156,690.407,322.786,684.157,327.779,682.398z"/>
</svg>
