<?xml version="1.0" encoding="iso-8859-1"?>
<!-- Generator: Adobe Illustrator 17.1.0, SVG Export Plug-In . SVG Version: 6.00 Build 0)  -->
<!DOCTYPE svg PUBLIC "-//W3C//DTD SVG 1.1//EN" "http://www.w3.org/Graphics/SVG/1.1/DTD/svg11.dtd">
<svg version="1.1" id="Layer_1" xmlns="http://www.w3.org/2000/svg" xmlns:xlink="http://www.w3.org/1999/xlink" x="0px" y="0px" width="800px" height="800px"
	 viewBox="0 0 800 800" style="enable-background:new 0 0 800 800;" xml:space="preserve">
<path d="M337.174,439.31c0,22.686-18.39,41.076-41.076,41.076c-22.685,0-41.075-18.39-41.075-41.076
	c0-22.686,18.39-41.076,41.075-41.076C318.784,398.235,337.174,416.624,337.174,439.31z M503.903,398.235
	c-22.686,0-41.076,18.39-41.076,41.076c0,22.686,18.391,41.076,41.076,41.076c22.685,0,41.076-18.39,41.076-41.076
	C544.978,416.624,526.588,398.235,503.903,398.235z M800,416.414v78.062c0,39.193-31.771,70.965-70.965,70.965H677.54
	C626.514,707.121,496.215,792.696,400,792.696s-226.514-85.575-277.54-227.255H70.965C31.771,565.441,0,533.669,0,494.476v-78.062
	c0-26.97,15.047-50.423,37.203-62.43c0.744-110.83,33.046-197.388,96.148-257.228C195.941,37.402,285.655,7.304,400,7.304
	s204.06,30.098,266.65,89.451c63.101,59.84,95.402,146.398,96.148,257.228C784.953,365.991,800,389.444,800,416.414z
	 M649.802,439.571c0-18.261-0.934-35.417-2.315-52.042c-31.495-28.815-88.67-50.679-160.828-58.803
	c9.474,10.654,17.658,24.668,22.621,43.115c-44.197-34.82-130.955-26.532-196.577-104.451c-3.762-4.352-7.015-8.51-9.829-12.31
	c-0.033-0.045-0.069-0.081-0.101-0.126l0.008,0.003c-11.674-15.788-15.655-25.179-15.878-14.784
	c-1.925,89.56-65.404,159.379-135.893,169.23c-0.446,9.849-0.811,19.793-0.811,30.17c0,37.855,6.182,72.355,16.692,103.447
	c39.594,47.759,104.982,61.246,162.858,64.823c10.743-17.094,34.85-29.027,62.923-29.027c38.061,0,68.915,21.902,68.915,48.919
	s-30.854,48.919-68.915,48.919c-29.277,0-54.226-12.981-64.212-31.259c-40.449-2.351-84.914-9.246-124.544-27.96
	C259.649,699.58,346.045,743.02,400,743.02C484.784,743.02,649.802,635.914,649.802,439.571z M720.073,345.449
	C715.556,152.049,605.165,49.884,400,49.884S84.445,152.049,79.928,345.449h27.303c9.983-65.185,31.083-118.795,63.117-160.015
	C221.399,119.75,298.664,86.444,400,86.444s178.601,33.306,229.653,98.99c32.033,41.22,53.134,94.83,63.117,160.015H720.073z"/>
</svg>
