<?xml version="1.0" encoding="iso-8859-1"?>
<!-- Generator: Adobe Illustrator 17.1.0, SVG Export Plug-In . SVG Version: 6.00 Build 0)  -->
<!DOCTYPE svg PUBLIC "-//W3C//DTD SVG 1.1//EN" "http://www.w3.org/Graphics/SVG/1.1/DTD/svg11.dtd">
<svg version="1.1" id="Layer_1" xmlns="http://www.w3.org/2000/svg" xmlns:xlink="http://www.w3.org/1999/xlink" x="0px" y="0px" width="800px" height="800px"
	 viewBox="0 0 800 800" style="enable-background:new 0 0 800 800;" xml:space="preserve">
<path d="M783.389,152.88L695.933,43.16c-8.261-10.365-20.793-16.402-34.048-16.402H209.87c-13.253,0-25.785,6.037-34.047,16.401
	L88.368,152.88c-9.136,11.462-16.612,32.834-16.612,48.968v80.369c6.947-10.928,17.1-19.131,29.275-23.327
	c0.68-9.184,3.465-18.092,8.228-26.203c8.249-14.053,21.483-24.045,37.258-28.148c5.655-1.478,10.832-2.147,16.009-2.147
	c20.856,0,39.756,10.609,50.822,27.276c3.295-0.574,6.622-0.872,9.96-0.872c10.241,0,19.918,2.815,28.348,7.668l48.442-12.6
	c6.07-1.584,12.309-2.381,18.56-2.381c33.505,0,62.791,22.663,71.231,55.116l94.936,364.882c4.954,19.038,2.19,38.863-7.76,55.828
	c-9.96,16.965-25.937,29.03-44.975,33.984l-42.369,11.021h355.855c30.058,0,54.425-24.367,54.425-54.425L800,200.372
	C800,185.714,792.525,164.342,783.389,152.88z M116.948,151.951l28.962-36.336h197.602l19.499-32.061H171.465l21.382-26.826
	c4.154-5.212,10.359-8.201,17.024-8.201h452.015c6.665,0,12.87,2.989,17.024,8.201l21.382,26.826H505.332l10.885,32.061h209.629
	l28.962,36.336H116.948z M125.782,286.015l-12.216,3.178c-13.011,3.385-20.815,16.677-17.43,29.688l0.124,0.476
	c3.386,13.012,16.677,20.815,29.689,17.43l103.598-26.951c13.012-3.385,20.815-16.676,17.43-29.689l-0.124-0.476
	c-3.385-13.011-16.677-20.815-29.688-17.43l-12.216,3.178c-6.527,1.698-13.196-2.217-14.894-8.744l-0.104-0.397
	c-3.943-15.158-19.427-24.249-34.586-20.306l-0.634,0.165c-15.158,3.944-24.249,19.428-20.306,34.586l0.104,0.397
	C136.225,277.648,132.31,284.317,125.782,286.015z M159.174,251.921c6.571-1.709,13.285,2.232,14.994,8.803
	c1.709,6.572-2.232,13.285-8.804,14.994c-6.571,1.709-13.284-2.232-14.994-8.803C148.661,260.343,152.603,253.63,159.174,251.921z
	 M311.851,627.196c1.14,4.381-1.488,8.857-5.868,9.996l-150.717,39.208c-4.381,1.14-8.857-1.488-9.996-5.869l-2.064-7.932
	c-1.14-4.382,1.488-8.857,5.869-9.996l150.716-39.208c4.382-1.14,8.857,1.488,9.996,5.868L311.851,627.196z M330.233,469.968
	l2.064,7.932c1.139,4.381-1.488,8.857-5.869,9.996l-206.243,53.654c-4.381,1.14-8.856-1.488-9.996-5.868l-2.064-7.933
	c-1.139-4.382,1.488-8.857,5.869-9.996l206.243-53.654C324.618,462.959,329.093,465.586,330.233,469.968z M307.855,416.504
	l-206.243,53.654c-4.381,1.139-8.856-1.488-9.996-5.869l-2.064-7.933c-1.139-4.381,1.488-8.856,5.869-9.996l206.243-53.653
	c4.382-1.14,8.856,1.488,9.996,5.868l2.064,7.933C314.864,410.889,312.237,415.364,307.855,416.504z M303.275,561.673
	l-166.581,43.336c-4.381,1.139-8.857-1.488-9.996-5.869l-2.064-7.933c-1.14-4.381,1.488-8.856,5.869-9.996l166.581-43.335
	c4.381-1.14,8.856,1.488,9.996,5.869l2.064,7.933C310.283,556.058,307.656,560.534,303.275,561.673z M453.215,649.706
	L358.29,284.814c-5.698-21.904-28.076-35.042-49.98-29.344l-48.372,12.584c1.143,2.362,2.093,4.857,2.779,7.49
	c5.779,22.217-7.305,44.503-29.046,50.159l-102.075,26.554c-20.837,5.421-43.272-5.308-50.267-25.671
	c-1.317-3.835-2.03-7.69-2.234-11.487l-48.421,12.597C8.77,333.394-4.368,355.771,1.33,377.676l94.926,364.892
	c5.699,21.905,28.076,35.043,49.98,29.344l277.635-72.226C445.776,693.987,458.913,671.611,453.215,649.706z M135.918,732.249
	L53.374,414.953l277.635-72.226l82.544,317.297L135.918,732.249z"/>
</svg>
