<?xml version="1.0" encoding="iso-8859-1"?>
<!-- Generator: Adobe Illustrator 17.1.0, SVG Export Plug-In . SVG Version: 6.00 Build 0)  -->
<!DOCTYPE svg PUBLIC "-//W3C//DTD SVG 1.1//EN" "http://www.w3.org/Graphics/SVG/1.1/DTD/svg11.dtd">
<svg version="1.1" id="Layer_1" xmlns="http://www.w3.org/2000/svg" xmlns:xlink="http://www.w3.org/1999/xlink" x="0px" y="0px" width="800px" height="800px"
	 viewBox="0 0 800 800" style="enable-background:new 0 0 800 800;" xml:space="preserve">
<path d="M53.563,137.979c-14.929-45.246,9.735-94.207,54.986-109.137s94.209,9.74,109.137,54.986l169.801,514.634
	c-15.824-4.178-32.653-4.943-49.453-1.871L173.645,98.359c-6.918-20.967-29.598-32.394-50.565-25.476
	c-20.967,6.918-32.394,29.598-25.476,50.565c4.012,12.161-2.594,25.274-14.755,29.286S57.576,150.14,53.563,137.979z
	 M722.572,541.69l-278.207,91.793c9.873,11.209,17.7,24.534,22.669,39.592c0.177,0.537,0.276,1.08,0.444,1.618l269.625-88.961
	c12.161-4.012,18.768-17.125,14.755-29.286C747.846,544.284,734.733,537.678,722.572,541.69z M445.015,680.346
	c15.763,47.774-10.188,99.28-57.961,115.043c-47.773,15.763-99.28-10.187-115.043-57.961
	c-15.763-47.774,10.188-99.28,57.961-115.043S429.253,632.572,445.015,680.346z M401.764,694.616
	c-7.881-23.887-33.634-36.861-57.521-28.98c-23.887,7.881-36.862,33.635-28.981,57.521c7.881,23.887,33.635,36.862,57.522,28.981
	C396.671,744.257,409.645,718.503,401.764,694.616z M652.264,192.609l94.453,286.269c2.006,6.081-1.297,12.637-7.378,14.643
	l-297.28,98.086c-6.081,2.006-12.637-1.297-14.643-7.378L332.963,297.96c-2.006-6.081,1.297-12.637,7.378-14.643l297.28-98.086
	C643.702,183.225,650.258,186.528,652.264,192.609z M612.94,358.901l-101.225-55.693l-48.188,104.991l31.904,14.684l20.836-45.42
	l37.623,114.029l36.006-11.88l-37.617-114.011l43.76,24.087L612.94,358.901z M524.611,188.116L464.223,5.093
	c-1.283-3.888-5.474-6-9.362-4.717l-51.779,17.084l-0.255,0.466l-0.433-0.238l-27.32,9.015l22.496,68.182l-30.814,10.167
	l-22.496-68.182l-27.328,9.017l-0.206,0.449l-0.483-0.222l-51.444,16.974c-3.888,1.282-5.999,5.474-4.716,9.362l60.388,183.023
	c1.282,3.888,5.474,6,9.362,4.717l190.063-62.711C523.782,196.195,525.893,192.004,524.611,188.116z"/>
</svg>
