<?xml version="1.0" encoding="iso-8859-1"?>
<!-- Generator: Adobe Illustrator 17.1.0, SVG Export Plug-In . SVG Version: 6.00 Build 0)  -->
<!DOCTYPE svg PUBLIC "-//W3C//DTD SVG 1.1//EN" "http://www.w3.org/Graphics/SVG/1.1/DTD/svg11.dtd">
<svg version="1.1" id="Layer_1" xmlns="http://www.w3.org/2000/svg" xmlns:xlink="http://www.w3.org/1999/xlink" x="0px" y="0px" width="800px" height="800px"
	 viewBox="0 0 800 800" style="enable-background:new 0 0 800 800;" xml:space="preserve">
<path d="M789.714,575.386H764.72V435.602c0-16.354-4.937-32.4-14.092-45.977l-62.64-92.778
	c-15.326-22.629-40.835-36.206-68.195-36.206h-97.098c-11.418,0-20.572,9.257-20.572,20.572v294.174H343.104
	c15.12,13.063,25.509,31.269,28.492,51.84h167.659c5.966-40.834,41.143-72.412,83.624-72.412s77.555,31.578,83.521,72.412h83.315
	c5.658,0,10.286-4.628,10.286-10.286v-31.269C800,580.015,795.372,575.386,789.714,575.386z M687.268,408.139H559.106
	c-5.657,0-10.286-4.526-10.286-10.286v-71.075c0-5.657,4.629-10.286,10.286-10.286h78.07c3.394,0,6.48,1.645,8.434,4.32
	l50.092,71.178C700.433,398.779,695.599,408.139,687.268,408.139z M622.878,575.386c-35.383,0-63.978,28.697-63.978,64.08
	c0,35.28,28.595,63.978,63.978,63.978c35.28,0,63.978-28.698,63.978-63.978C686.856,604.084,658.159,575.386,622.878,575.386z
	 M622.878,671.456c-17.692,0-31.989-14.4-31.989-31.989c0-17.691,14.297-31.989,31.989-31.989c17.691,0,31.989,14.297,31.989,31.989
	C654.867,657.056,640.57,671.456,622.878,671.456z M89.456,575.386c-5.658,0-10.286,4.629-10.286,10.286v31.269
	c0,5.658,4.628,10.286,10.286,10.286h114.995c2.983-20.572,13.371-38.777,28.389-51.84H89.456z M287.972,575.386
	c-35.28,0-63.978,28.697-63.978,64.08c0,35.28,28.698,63.978,63.978,63.978c35.383,0,63.978-28.698,63.978-63.978
	C351.95,604.084,323.355,575.386,287.972,575.386z M287.972,671.456c-17.692,0-31.989-14.4-31.989-31.989
	c0-17.691,14.297-31.989,31.989-31.989c17.691,0,31.989,14.297,31.989,31.989C319.961,657.056,305.663,671.456,287.972,671.456z
	 M441.848,196.868H322.635c5.863,17.383,8.949,36,8.949,55.235c0,97.098-78.995,176.093-176.093,176.093
	c-17.692,0-34.869-2.674-51.018-7.508v113.658c0,5.657,4.629,10.286,10.286,10.286h347.661c5.658,0,10.286-4.629,10.286-10.286
	v-306.62C472.705,210.651,458.922,196.868,441.848,196.868z M155.515,96.555C69.626,96.555,0,166.181,0,252.07
	s69.626,155.515,155.515,155.515c85.889,0,155.516-69.626,155.516-155.515S241.404,96.555,155.515,96.555z M155.515,372.195
	c-66.343,0-120.125-53.782-120.125-120.125c0-66.344,53.782-120.126,120.125-120.126c66.344,0,120.126,53.782,120.126,120.126
	C275.641,318.413,221.859,372.195,155.515,372.195z M201.394,277.439c-1.326,0-2.682-0.171-4.028-0.532l-50.123-13.51
	c-6.73-1.818-11.411-7.925-11.411-14.896v-77.144c0-8.518,6.911-15.429,15.429-15.429c8.518,0,15.429,6.911,15.429,15.429v65.321
	l38.712,10.436c8.227,2.22,13.098,10.688,10.878,18.914C214.422,272.909,208.194,277.439,201.394,277.439z"/>
</svg>
