<?xml version="1.0" encoding="iso-8859-1"?>
<!-- Generator: Adobe Illustrator 17.1.0, SVG Export Plug-In . SVG Version: 6.00 Build 0)  -->
<!DOCTYPE svg PUBLIC "-//W3C//DTD SVG 1.1//EN" "http://www.w3.org/Graphics/SVG/1.1/DTD/svg11.dtd">
<svg version="1.1" id="Layer_1" xmlns="http://www.w3.org/2000/svg" xmlns:xlink="http://www.w3.org/1999/xlink" x="0px" y="0px" width="800px" height="800px"
	 viewBox="0 0 800 800" style="enable-background:new 0 0 800 800;" xml:space="preserve">
<path d="M719.477,368.389c-24.033,26.976-47.575,56.036-64.006,96.131c-7.479,18.515-25.259,30.532-45.246,30.532
	c-20.109,0-37.888-12.017-45.49-30.654c-19.006-46.595-47.821-78.352-75.778-109.006c-6.988-7.725-13.978-15.45-20.844-23.42
	c-0.368,0.123-0.614,0.245-0.981,0.368c-27.221,8.215-48.188,44.264-35.559,73.57c8.583,20.109,68.788,16.308,63.638,59.591
	c-4.291,35.436,42.057,44.755,58.488,43.039c16.431-1.962,41.69,26.976,28.937,39.728c-12.629,12.752-36.54,13.243-32.861,46.104
	c0.981,9.564,29.919,8.338,29.919,22.807c0,14.591-14.959,31.145-3.433,47.943c2.452,3.678,5.027,6.498,7.724,8.705
	c-55.422,51.009-129.36,82.276-210.41,82.276c-171.295,0-310.588-139.292-310.588-310.588c0-51.989,12.875-101.036,35.559-144.197
	c-0.123,55.791,29.673,102.14,43.651,116.118c45.613,45.49,111.704,31.144,120.164,69.278c8.583,38.012-45.368,38.134-41.812,67.194
	c3.678,29.183,73.937,36.908,58.243,63.761c-20.722,35.681,13.978,38.256,3.924,82.275c-5.395,24.033,29.305,28.693,42.18,10.423
	c9.809-13.979,7.847-31.145,27.589-52.112c24.155-25.75,80.191-29.918,73.937-72.467c-10.668-70.627-79.333-81.662-109.251-98.216
	c-33.965-18.637-25.627-63.393-32.984-84.728c-10.3-30.287-45.246,8.461-63.884-9.196c-30.654-28.937,5.518-69.892,31.267-69.033
	c54.319,1.717,70.995,54.565,90.981,52.725c19.496-1.717,32.126-28.937,35.559-43.406c7.235-31.513-12.262-17.412-20.109-33.842
	c-10.545-21.948,37.03-42.916,55.423-59.101c2.82-2.452,4.905-4.782,6.008-6.989c5.518-10.79-1.717-19.005-13.978-26.485
	c-24.523-14.837-69.278-26.608-71.362-49.782c-1.227-14.224,25.995-21.09,57.016-22.316c5.15,0.245,10.177,0.736,15.327,1.226
	c2.575-14.591,6.744-28.937,12.384-42.67c-14.837-1.962-29.918-2.943-45.246-2.943c-195.451,0-354.484,159.033-354.484,354.484
	S178.124,800,373.575,800S728.06,640.966,728.06,445.515C728.06,419.03,725.117,393.157,719.477,368.389z M593.545,0.787
	c-100.07,9.46-168.606,106.423-151.142,205.41c17.738,100.55,110.445,131.5,156.452,244.37c4.146,10.171,18.467,10.222,22.61,0.05
	c51.001-125.184,159.444-149.615,159.444-279.878C780.909,70.957,695.315-8.832,593.545,0.787z M610.17,260.905
	c-49.797,0-90.166-40.368-90.166-90.166c0-49.797,40.368-90.166,90.166-90.166s90.166,40.369,90.166,90.166
	C700.336,220.536,659.967,260.905,610.17,260.905z"/>
</svg>
