<?xml version="1.0" encoding="iso-8859-1"?>
<!-- Generator: Adobe Illustrator 17.1.0, SVG Export Plug-In . SVG Version: 6.00 Build 0)  -->
<!DOCTYPE svg PUBLIC "-//W3C//DTD SVG 1.1//EN" "http://www.w3.org/Graphics/SVG/1.1/DTD/svg11.dtd">
<svg version="1.1" id="Layer_1" xmlns="http://www.w3.org/2000/svg" xmlns:xlink="http://www.w3.org/1999/xlink" x="0px" y="0px" width="800px" height="800px"
	 viewBox="0 0 800 800" style="enable-background:new 0 0 800 800;" xml:space="preserve">
<path d="M377.846,250.577l-47.352,114.999c-1.605,3.899-5.251,6.579-9.451,6.948L78.837,393.806
	c-5.942,0.522-10.452,5.576-10.297,11.538l4.925,190.12c0.135,5.228,3.844,9.678,8.962,10.755l285.137,59.977
	c6.971,1.466,14.057,2.192,21.142,2.176l0.005-56.385v-359.26C388.71,237.033,383.821,236.065,377.846,250.577z M344.689,605.128
	l-107.041-17.237v-56.106h107.041V605.128z M297.885,345.193L12.442,374.036c-8.72,0.881-15.074-8.078-11.36-16.016l76.007-162.465
	c1.546-3.306,4.596-5.661,8.186-6.32l313.639-57.607l-91.845,206.914C305.424,342.247,301.919,344.786,297.885,345.193z
	 M721.163,393.806l-242.205-21.282c-4.201-0.369-7.846-3.048-9.451-6.948l-47.353-114.999c-5.975-14.512-10.864-13.545-10.864,2.149
	v359.26l0.005,56.385c7.084,0.016,14.17-0.71,21.142-2.176l285.137-59.977c5.118-1.077,8.826-5.528,8.962-10.755l4.925-190.12
	C731.615,399.382,727.104,394.328,721.163,393.806z M621.486,495.357l-13.378,0.371l-0.27,84.191
	c-0.012,3.708-3.778,7.254-8.463,7.928l-21.924,3.153c-5.008,0.72-9.106-1.846-9.097-5.74l0.205-88.434l-15.301,0.424
	c-7.44,0.206-12.147-5.76-8.359-10.696l36.388-47.418c3.447-4.493,11.908-4.079,15.231,0.655l31.94,45.524
	C631.486,489.63,627.658,495.185,621.486,495.357z M787.557,374.036l-285.443-28.843c-4.034-0.407-7.539-2.946-9.184-6.651
	l-91.844-206.914l313.639,57.607c3.59,0.659,6.639,3.014,8.186,6.32l76.007,162.465
	C802.632,365.959,796.277,374.918,787.557,374.036z"/>
</svg>
