<?xml version="1.0" encoding="iso-8859-1"?>
<!-- Generator: Adobe Illustrator 17.1.0, SVG Export Plug-In . SVG Version: 6.00 Build 0)  -->
<!DOCTYPE svg PUBLIC "-//W3C//DTD SVG 1.1//EN" "http://www.w3.org/Graphics/SVG/1.1/DTD/svg11.dtd">
<svg version="1.1" id="Layer_1" xmlns="http://www.w3.org/2000/svg" xmlns:xlink="http://www.w3.org/1999/xlink" x="0px" y="0px" width="800px" height="800px"
	 viewBox="0 0 800 800" style="enable-background:new 0 0 800 800;" xml:space="preserve">
<path d="M658.973,307.844c4.094,10.027-0.72,21.485-10.746,25.578c0,0-191.752,78.293-191.835,78.326
	c-4.165,1.801-8.477,3.012-12.842,3.012c-10.639,0-21.074-5.186-27.358-14.752L321.05,255.131
	c-9.911-15.097-5.709-35.367,9.388-45.278c15.11-9.886,35.367-5.709,45.278,9.388l94.814,144.378l162.866-66.521
	C643.384,292.979,654.867,297.805,658.973,307.844z M443.524,25.586c-120.506,0-227.162,60.159-291.719,151.96
	c13.361,8.717,26.384,20.67,38.98,36.036C238.947,141.568,316.82,91.042,406.922,80.181l36.597,61.931l36.598-61.932
	c138.499,16.692,248.587,126.776,265.287,265.273l-61.941,36.603l61.943,36.604c-11.163,92.596-64.194,172.316-139.427,220.095
	c4.792,10.924,7.493,22.095,7.969,33.61c0.351,8.417-0.516,16.368-2.262,23.916C723.672,636.107,800,517.848,800,382.062
	C800,185.495,640.09,25.586,443.524,25.586z M534.493,612.667c-82.177-66.043-105.156-33.578-142.443,3.702
	c-26.031,26.041-91.906-28.337-148.785-85.22c-56.883-56.89-111.251-122.754-85.223-148.789
	c37.289-37.282,69.744-60.275,3.683-142.428c-66.039-82.185-110.062-19.089-146.182,17.032
	c-41.699,41.685-2.197,197.028,151.332,350.581c153.55,153.532,308.892,193.008,350.567,151.339
	C553.556,722.76,616.671,678.742,534.493,612.667z M102.575,284.489c-1.109,0.453-2.736,1.119-4.806,1.966
	c-3.918,1.502-8.604,3.199-13.816,5.468c-2.433,1.172-5.161,2.441-7.648,4.005c-2.579,1.541-5.144,3.287-7.455,5.448
	c-2.525,2.044-4.487,4.656-6.758,7.393c-1.688,3.02-3.866,6.104-5.043,9.811c-1.708,3.509-2.321,7.549-3.342,11.526
	c-0.785,4.034-0.924,8.227-1.423,12.321c-0.05,8.276,0.27,16.225,1.336,23c0.558,6.886,2.306,12.704,2.996,16.737
	c0.845,4.046,1.328,6.357,1.328,6.357s-1.243-2.01-3.417-5.527c-2.062-3.623-5.562-8.28-8.635-14.902
	c-3.541-6.438-6.844-14.359-9.987-23.271c-1.118-4.598-2.635-9.368-3.475-14.478c-0.592-5.166-1.569-10.495-1.176-16.106
	c-0.17-5.601,0.976-11.263,2.017-16.984c1.656-5.542,3.421-11.159,6.124-16.157c2.469-5.108,5.578-9.732,8.683-13.764
	c3.124-4.156,6.349-7.556,9.388-10.719c6.064-5.966,11.328-10.326,14.396-13.001c1.755-1.47,2.475-2.266,3.258-2.963
	c0.693-0.648,1.062-0.994,1.062-0.994l28.181,44.077C104.362,283.731,103.74,283.994,102.575,284.489z M525.515,703.202
	c-2.764,3.442-7.101,8.767-12.981,14.801c-3.135,2.971-6.367,6.191-10.39,9.23c-3.769,3.149-8.35,6.031-13.017,8.735
	c-4.81,2.644-9.927,4.912-15.333,6.6c-5.348,1.628-10.901,2.943-16.352,3.386l-8.11,0.58l-7.866-0.423
	c-5.176-0.065-9.997-1.444-14.639-2.218c-4.632-0.86-8.831-2.58-12.852-3.735c-4.021-1.085-7.627-3.067-10.963-4.387
	c-6.757-2.683-11.597-5.782-15.248-7.701c-3.585-1.975-5.633-3.104-5.633-3.104s2.31,0.355,6.353,0.975
	c4.017,0.539,9.882,1.807,16.675,1.943c3.421,0.071,6.928,0.667,10.816,0.307c3.836-0.297,7.838-0.105,11.843-0.821
	c3.978-0.795,8.106-1.022,11.935-2.468l5.752-1.765l5.337-2.494c14.092-6.825,21.759-18.85,26.202-28.887
	c2.198-5.177,3.773-9.748,4.96-13.324c1.292-3.765,2.031-5.917,2.031-5.917l45.646,25.562
	C529.681,698.078,528.166,699.941,525.515,703.202z"/>
</svg>
