<?xml version="1.0" encoding="iso-8859-1"?>
<!-- Generator: Adobe Illustrator 17.1.0, SVG Export Plug-In . SVG Version: 6.00 Build 0)  -->
<!DOCTYPE svg PUBLIC "-//W3C//DTD SVG 1.1//EN" "http://www.w3.org/Graphics/SVG/1.1/DTD/svg11.dtd">
<svg version="1.1" id="Layer_1" xmlns="http://www.w3.org/2000/svg" xmlns:xlink="http://www.w3.org/1999/xlink" x="0px" y="0px" width="800px" height="800px"
	 viewBox="0 0 800 800" style="enable-background:new 0 0 800 800;" xml:space="preserve">
<path d="M674.924,441.202l123.18,253.047c5.01,10.292-0.256,18.712-11.702,18.712H13.598c-11.446,0-16.712-8.42-11.702-18.712
	l123.181-253.047c1.959-4.025,7.226-7.319,11.702-7.319h105.622c3.255,0,7.651,2.038,9.781,4.5
	c7.166,8.281,14.466,16.372,21.744,24.38c6.912,7.602,13.861,15.302,20.755,23.183H169.334c-4.477,0-9.743,3.293-11.702,7.319
	L76.03,660.901h647.935l-81.596-167.637c-1.959-4.026-7.226-7.319-11.703-7.319H505.034c6.893-7.881,13.844-15.581,20.756-23.183
	c7.301-8.031,14.641-16.106,21.824-24.39c2.128-2.455,6.516-4.489,9.765-4.489l105.843,0
	C667.698,433.883,672.964,437.176,674.924,441.202z M581.099,268.272c0,138.269-115.108,164.201-169.244,297.079
	c-4.399,10.797-19.599,10.742-24-0.053C339.02,445.492,240.616,412.639,221.788,305.91
	C203.251,200.839,275.999,97.916,382.219,87.875C490.244,77.664,581.099,162.358,581.099,268.272z M495.574,268.272
	c0-52.857-42.849-95.707-95.707-95.707s-95.707,42.85-95.707,95.707c0,52.858,42.849,95.707,95.707,95.707
	S495.574,321.13,495.574,268.272z"/>
</svg>
