<?xml version="1.0" encoding="iso-8859-1"?>
<!-- Generator: Adobe Illustrator 17.1.0, SVG Export Plug-In . SVG Version: 6.00 Build 0)  -->
<!DOCTYPE svg PUBLIC "-//W3C//DTD SVG 1.1//EN" "http://www.w3.org/Graphics/SVG/1.1/DTD/svg11.dtd">
<svg version="1.1" id="Layer_1" xmlns="http://www.w3.org/2000/svg" xmlns:xlink="http://www.w3.org/1999/xlink" x="0px" y="0px" width="800px" height="800px"
	 viewBox="0 0 800 800" style="enable-background:new 0 0 800 800;" xml:space="preserve">
<path d="M767.219,334.658c-10.404-10.771-21.771-17.09-32.065-20.805c14.114-82.1,11.519-127.975-322.409-233.101
	C72.904-26.235,34.886,18.104,6.894,107.018L2.12,122.184c-7.574,24.06,5.791,49.706,29.851,57.281l109.026,34.323
	c24.061,7.574,49.706-5.791,57.281-29.851l4.774-15.165c21.683-68.876,127.808-37.785,187.922-18.861
	c60.112,18.924,164.909,54.235,143.226,123.111l-4.775,15.165c-7.574,24.06,5.79,49.706,29.851,57.281l109.026,34.323
	c24.06,7.575,49.706-5.79,57.281-29.85l3.097-10.507c6.448,2.661,13.372,6.731,19.769,13.353
	c22.945,23.767,30.559,69.683,22.015,132.796c-14.817,109.355-57.79,148.414-103.556,161.413v-19.023
	c0-19.314-4.828-38.432-14.615-55.135c-45.674-78.166-110.53-147.525-192.938-208.662v-46.196c0-3.588-2.937-6.525-6.525-6.525
	h-67.793c-3.654,0-6.525,2.937-6.525,6.525v45.934h-77.384v-45.934c0-3.588-2.936-6.525-6.525-6.525h-67.858
	c-3.589,0-6.525,2.937-6.525,6.525v45.934C137.681,425.181,72.759,494.539,27.02,572.836c-9.787,16.704-14.615,35.821-14.615,55.135
	v42.998c0,61.268,49.653,110.922,110.921,110.922h432.659c60.308,0,109.256-48.137,110.778-108.077
	c73.353-17.18,114.967-77.029,129.557-184.727C806.119,416.753,796.326,364.796,767.219,334.658z M452.999,629.113l-43.535-15.501
	c4.619-9.307,7.282-19.758,7.282-30.858c0-38.366-31.123-69.489-69.554-69.489c-38.366,0-69.554,31.123-69.554,69.489
	c0,38.431,31.188,69.555,69.554,69.555c14.209,0,27.405-4.275,38.413-11.581l23.877,39.25c-17.987,11.55-39.329,18.331-62.29,18.331
	c-63.813,0-115.489-51.742-115.489-115.554c0-63.747,51.677-115.488,115.489-115.488s115.554,51.742,115.554,115.488
	C462.746,599.253,459.23,614.913,452.999,629.113z"/>
</svg>
