<?xml version="1.0" encoding="iso-8859-1"?>
<!-- Generator: Adobe Illustrator 17.1.0, SVG Export Plug-In . SVG Version: 6.00 Build 0)  -->
<!DOCTYPE svg PUBLIC "-//W3C//DTD SVG 1.1//EN" "http://www.w3.org/Graphics/SVG/1.1/DTD/svg11.dtd">
<svg version="1.1" id="Layer_1" xmlns="http://www.w3.org/2000/svg" xmlns:xlink="http://www.w3.org/1999/xlink" x="0px" y="0px" width="800px" height="800px"
	 viewBox="0 0 800 800" style="enable-background:new 0 0 800 800;" xml:space="preserve">
<path d="M4.157,263.653l50.078,39.127L7.102,393.072c-23.566,41.635,16.919,82.194,42.714,96.312
	c25.394,13.898,64.807,15.55,101.629,15.049l66.28-108.351l50.078,27.088l-86.9-161.021L4.157,263.653z M11.521,484.68
	l107.521,198.643c21.602,27.589,62.352,34.11,104.575,33.107h113.412V528.321l-215.041-1.505
	C88.602,528.822,44.906,521.8,11.521,484.68z M687.985,118.605l-58.499,24.83l-56.121-84.997
	c-24.989-40.796-80.091-25.051-104.944-9.335c-24.466,15.472-45.02,49.143-62.433,81.591l62.633,110.499l-47.97,30.667l182.962,2.06
	L687.985,118.605z M491.101,17.89l-225.864-2.264c-34.603,5.518-60.063,37.997-79.655,75.413l-54.983,99.193l164.524,91.197
	l105.57-187.35C415.123,63.905,442.449,29.093,491.101,17.89z M500.925,784.375l6.644-63.203l101.548-7.877
	c47.796-2.078,60.739-57.904,59.042-87.261c-1.67-28.9-21.155-63.2-41.093-94.161l-127.01,1.209l-3.566-56.823l-90.504,159.024
	L500.925,784.375z M684.464,661.003l111.482-196.447c11.95-32.94-4.114-70.954-27.34-106.229l-60.099-96.179L548.981,361.83
	L661.66,544.993C681.053,572.242,698.252,613.02,684.464,661.003z"/>
</svg>
