<?xml version="1.0" encoding="utf-8"?>
<!-- Generator: Adobe Illustrator 21.0.0, SVG Export Plug-In . SVG Version: 6.00 Build 0)  -->
<svg version="1.1" id="Layer_1" xmlns="http://www.w3.org/2000/svg" xmlns:xlink="http://www.w3.org/1999/xlink" x="0px" y="0px"
	 width="590px" height="530px" viewBox="0 0 590 530" enable-background="new 0 0 590 530" xml:space="preserve">
<path id="la_x7C_Product_Color_x7C_bg" fill="#FFFFFF" stroke="#010101" stroke-width="4" d="M189.4,77l-44.6,27
	c0,0-19.7,15.6-24.9,39.4c-5.2,23.8-17.6,78.8-9.3,114.1c0,0,5.2,14.5-1,41.5s-14.5,63.3-8.3,93.3c6.2,30.1,15.6,53.9,15.6,53.9
	s-15.6,6.2-9.3,19.7c6.2,13.5,11.4,14.5,11.4,14.5s-1,3.1,0,9.3c1,6.2,4.1,9.3,4.1,9.3v9.3l6.2,2.1c0,0,34.2-15.6,46.7-13.5
	c0,0-24.9-21.8-7.3-24.9c0,0,7.3,5.2,15.6,10.4c8.3,5.2,11.4,9.3,16.6,11.4c5.2,2.1,68.4,22.8,80.9,25.9c12.4,3.1,30.1,1,30.1,1
	s22.8,5.2,51.8-7.3c29-12.4,45.6-22.8,48.7-33.2c3.1-10.4-4.1-13.5-4.1-13.5s15.6-17.6,5.2-60.1C403,364.3,403,364.3,403,364.3
	s14.5,16.6,17.6,20.7s4.1,18.7,7.3,25.9l-3.1,13.5c0,0-1-5.2,2.1,5.2c3.1,10.4-4.1,35.3-4.1,35.3s21.8,4.1,31.1,2.1
	c9.3-2.1,13.5-4.1,18.7-2.1c5.2,2.1,10.4,2.1,10.4,2.1l-3.1-34.2l5.2-4.1c0,0,7.3-13.5,4.1-31.1c0,0,5.2-72.6-17.6-136.9
	c-22.8-64.3-28-112-28-112S434.1,90.5,402,76s-32.1-14.5-32.1-14.5s1-6.2-3.1-10.4c-4.1-4.1-2.1-16.6-2.1-16.6s-2.1-17.6-22.8-23.9
	c-20.7-6.2-55-4.1-55-4.1s-50.8-1-69.5,5.2s-21.8,8.3-27,11.4s-7.3,3.1-7.3,8.3s-5.2,5.2-3.1,15.6c2.1,10.4,8.3,10.4,11.4,14.5
	c3.1,4.1-2.1,8.3-2.1,8.3L189.4,77L189.4,77L189.4,77z"/>
<g opacity="0.2">
	<g>
		<path d="M118.6,481.8c0,0,31.1-22.8,39.4-19.7c8.3,3.1,7.3,3.1,4.1,6.2c0,0,8.4-3.6,3.6-7.1c-4.7-3.5-13.8-5.4-27-0.2
			c-13.2,5.2-28.3,5.4-31.5,4.3s4.7,10.8,4.7,10.8L118.6,481.8z"/>
		<path d="M101.9,392.4c0,0,9.5,8.6,23.7,3s30.6-10.1,35.2-4.3c4.5,5.8,2.4,9.1,0,9.1s-4.7-4.1-6-4.5s-9.3-1.1-12.3-0.2
			s-5,3.5-13.2,4.7c-8.2,1.3-11.9-0.4-14.2-0.9c-2.4-0.4-2.4,1.1,0.4,5.4s4.7,8,9.5,10.4c4.7,2.4,10.8,3,13.4,5
			c2.6,1.9,2.8,5.6,2.2,7.8c-0.6,2.2-6,9.5-7.6,11.7c-1.5,2.2-6.7,5.8-9.7,6.9s-2.6,1.1-4.1,1.3c-1.5,0.2-4.5,1.7-3,2.6
			s5,0.6,6.3-0.4c1.3-1.1,7.1-3.5,8.6-3.5s6-2.2,8.6-0.2c2.6,1.9,3.9,2.4,3.9,5.4s-2.2,3.5-2.2,3.5s-6,0.4-7.3,0.9
			c-1.3,0.4-6.7,2.8-9.1,3.7c-2.4,0.9-3.5,3-7.1,2.2c-3.7-0.9-6.9-2.6-7.6-3.7c-0.6-1.1-1.5-2.6-1.5-2.6l6.3-7.1l2.2-1.5l-5.8-13.2
			l-7.1-26.5L101.9,392.4z"/>
		<path d="M181.7,313c0,0-0.2,22.7,0.2,28.3c0.4,5.6,1.1,5.4-4.7,11.7c-5.8,6.3-8,6-8,6s-7.3-26.5-5.8-37.6
			c1.5-11-4.7-25.2-8.6-27.8c-3.9-2.6-5-24.2-3.7-28.7s1.5-15.1-1.7-19.6s-6-7.3-8.6-17.3c-2.6-9.9-1.7-14.9-1.3-20.3
			c0.4-5.4-3.7-10.4-5.2-15.1c-1.5-4.7-5.8-24.2-7.1-30.2c-1.3-6-1.9-21.2,0.2-27.8c2.2-6.7,2.6-12.9,4.7-14.9
			c2.2-1.9,7.1,3.5,7.6,7.6c0.4,4.1,2.8,9.5,2.8,9.5s2.2-11,1.3-16.4s-0.2-12.5-0.2-12.5s4.3,7.6,6.7,14c2.4,6.5,2.2,22.9,1.7,26.3
			c-0.4,3.5-0.2,20.3-0.2,23.3s0.6,13.2,1.7,23.5c1.1,10.4,0.6,14.7,2.8,18.8s2.6,7.6,6.7,11.9c4.1,4.3-1.9-0.9-0.2-4.5
			c1.7-3.7-1.3-3.5,5.2-0.9s8.4-0.6,10.1,6.3c1.7,6.9-2.8,22.7-3.7,27s-1.1,12.3-1.1,15.8s-7.6-10.4-10.8-15.1
			c-3.2-4.7-10.1-19.4-11-22.2s0.4,4.3,1.7,7.6c1.3,3.2,9.3,20.1,10.8,22s4.7,7.8,5.8,9.1c1.1,1.3,3.2,4.5,3.2,4.5s0,3,0.6,8.2
			s2.2,14.7,2.8,17.5s-0.2,5.6,2.8,8.8C182.4,312.8,181.7,313,181.7,313z"/>
		<path d="M176.8,362.7c0,4.3,0.4,8.8-2.2,9.7c-2.6,0.9-5-5.2-6.3,4.5s0,14.2,0,14.2s-9.1-18.3-9.5-19.9c-0.4-1.5,0.9-0.9,4.1-5.4
			c3.2-4.5,7.8-10.1,10.8-8.4C176.8,359.2,176.8,362.7,176.8,362.7z"/>
		<path d="M336,521.3c0,0,37.8-22.7,44.5-28.3c6.7-5.6,12.5-10.6,18.3-13.6s9.5-4.5,9.3-6.7s1.3-3.9-2.4-2.4
			c-3.7,1.5-23.7,18.3-42.5,25.5c-18.8,7.1-29.1,12.1-35.4,12.5s-14.7,1.5-14.7,1.5l-0.4,12.7c0,0,15.8,0.6,16.4,0.6
			S336,521.3,336,521.3z"/>
		<path d="M182.4,308.9c0,0,9.9,8.2,12.5,11s8,10.1,8,10.1s-9.3-9.1-11.4-10.6c-2.2-1.5-4.7-3-5.6-3.7c-0.9-0.6-3.2-3.7-2.6,0.2
			c0.6,3.9,0,12.7,0,15.5s0.2,7.6,0,9.7c-0.2,2.2,0.9,6-1.3,8.8s-6,5.6-5,8c1.1,2.4,1.7,7.3,1.3,10.4c-0.4,3-0.9,5.8-2.4,6.5
			c-1.5,0.6-3.2-1.7-4.5,2.2c-1.3,3.9-2.4,9.3-2.2,11.4c0.2,2.2-0.2,7.6,2.2,12.3c2.4,4.7,2.6,5,5,9.3s5,11,8.2,18.3
			s4.7,10.8,5.6,11.9c0.9,1.1,3,1.5,3,1.5s1.5,6,3.5,7.8c1.9,1.7,14.7,3,19.4,3.5c4.7,0.4,15.5,1.9,22,4.5s17.5,8.6,23.7,10.8
			c6.3,2.2,13.6,2.8,20.3,9.1c6.7,6.3,11.7,11.4,15.8,16.2c4.1,4.7,9.9,13.2,10.6,9.7c0.6-3.5-1.9-28.3-6.9-32.8
			s-12.7-10.6-21.6-11.9c-8.8-1.3-23.1-5.6-31.3-8.4s-23.3-10.4-32.6-13.8c-9.3-3.5-16.2-4.7-19-8.6s-3.7-10.1-0.6-11.2
			c3-1.1,13.8-1.1,11.2-3.2c-2.6-2.2-5.2-5.2-14-5.2s-11.2-4.1-9.9-5.2s7.6,0.2,13.2,1.1c5.6,0.9,11.7-1.1,12.3-3.2
			c0.6-2.2,0.6-8-1.5-9.7c-2.2-1.7-5.8-3.2-10.4-8c-4.5-4.7-6.7-7.6-4.7-9.1c1.9-1.5,8.6-2.8,12.9-0.2c4.3,2.6,11,5.4,11.2,8.2
			c0.2,2.8-1.1,6.3,0.4,11s1.5,8.8,4.3,9.9s5.6-0.9,6.9-2.2c1.3-1.3,8.6-29.3,9.5-34.1c0.9-4.7,1.3-17.9,0.6-19.2
			c-0.6-1.3-0.9-4.1-6.3-6.3c-5.4-2.2-15.5-6-20.5-5.4s-11.7,0.9-12.5-0.4c-0.9-1.3,3.2-1.7,5.4-2.2c2.2-0.4,4.3-2.4,1.1-7.8
			C202.5,320.1,182.4,308.9,182.4,308.9z"/>
		<path d="M188.4,105.8c1.5,6.9,0.6,17.7-0.9,23.1c-1.5,5.4-2.2,15.1-5.2,20.5s-8.6,14.2-5,19.2c3.7,5,8.6,6.7,9.7,6
			c1.1-0.6-0.9-3-1.9-5c-1.1-1.9-3.7-5.2-1.7-9.9c1.9-4.7,6.7-11.4,7.6-16.2c0.9-4.7,1.1-14.9,0.6-19.9
			C191.2,118.8,188.4,105.8,188.4,105.8z"/>
		<path d="M180.2,84.9c2.2,1.3,11.9,7.1,15.8,11c3.9,3.9-0.6,6.5,7.3,7.1c8,0.6,25-1.7,29.8-1.1c4.7,0.6,13.6,1.9,19.4,1.9
			s18.6,4.3,21.6,6.5s6.5,0.9,8,1.7c1.5,0.9,3,0.2,3,0.2s-2.4-4.7-5-7.8s-7.8-8.4-11.2-8.6c-3.5-0.2-10.4-2.2-18.3-1.9
			c-8,0.2-11-1.3-14.9-1.1c-3.9,0.2-11.2-0.2-17.7-2.2s-12.5-3.2-16.6-5.2c-4.1-1.9-7.6-3.9-9.1-5s-3.7-1.9-3.7-1.9L180.2,84.9z"/>
		<path d="M190.6,60.5c0,0,5.8-0.6,8.8,0.6c3,1.3,10.4,5.2,15.8,8.8c5.4,3.7,12.7,8.8,16,11.2c3.2,2.4,18.3,11.4,18.3,11.4
			s-22.9-19.9-26.8-22.4c-3.9-2.6-10.8-8-14-11.2s-4.5-8-4.1-9.5s0.9,0.4-5.4-2.4c-6.3-2.8-8.6-5.2-11-7.6c-2.4-2.4-4.7-5-4.7-5
			L179,49.5l3.7,6.5L190.6,60.5z"/>
		<path d="M368.4,65.1c0,0-15.1,11.9-21.4,14.7c-6.3,2.8-10.6,1.3-14.9,5s-14.9,8.2-19.4,10.6s-13.6,8.2-13,5s1.5-6.5,5.4-8
			s10.6-5,14-6.5c3.5-1.5,11.4-4.1,13.4-5.2c1.9-1.1,5.4-2.4,8-4.5c2.6-2.2,18.6-21.1,20.3-23.5c1.7-2.4,3-4.3,3-4.3
			S350,69.8,348.5,71.7s-8.4,7.1-8.4,7.1s10.1-4.1,14.2-6.7s14.5-9.7,14.5-9.7L368.4,65.1z"/>
		<path d="M350.7,51.9c0,0,2.4-9.7,0.2-11.4c-2.2-1.7-9.1-5.6-13.8-5c-4.7,0.6-8.8-1.3-13.4-3c-4.5-1.7-11.4-6-15.3-6
			s-12.7,1.3-12.7,1.3s3.9-3.9,11.9-7.6s12.3-7.6,17-7.8s8-1.9,11.7-0.6s13.8,3.2,17,6s4.7,6.3,5.6,9.5s-0.2,10.1-0.6,13.2
			c-0.4,3-4.7,9.5-5.2,10.1C352.7,51.2,350.7,51.9,350.7,51.9z"/>
		<path d="M421.7,97.6c0,0,7.6,25.2,7.1,36.5c-0.4,11.2-3.5,60.4-4.5,67.8c-1.1,7.3-1.1,16.2-4.5,23.1c-3.5,6.9-7.1,13.2-7.1,13.2
			l-0.4,8.8c0,0,10.4-11.9,13-23.5c2.6-11.7,5.8-25.5,6-32.2s3-36,2.6-42.9s0.2-20.3-1.9-24.8c-2.2-4.5-1.9-10.6-2.8-12.7
			c-0.9-2.2-3.5-9.7-3.5-9.7L421.7,97.6z"/>
		<path d="M407.7,277.4c0,0,11.7-5.6,14.7-6.9s12.3-5.2,17.7-6.3c5.4-1.1,17-3.9,17-3.9s-11.7-1.3-15.5,0c-3.9,1.3-16.8,5.2-22,5.6
			s-9.9,0.9-9.9,0.9s0,1.7-0.6,5C408.3,275,407.7,277.4,407.7,277.4z"/>
		<path d="M405.7,288.4c2.2,0,6-0.2,11.7-0.2s16.4,0.2,20.3,0.9c3.9,0.6,8.6,1.1,9.5,3s1.5,3.9-0.2,6c-1.7,2.2-6.7,3.9-10.6,5.8
			s-3.7,3.7-7.6,5.8c-3.9,2.2-6.3,3.7-11,4.5c-4.7,0.9-6.7,0.4-7.5,3.2c-0.9,2.8-2.2,5.8-0.2,7.1c1.9,1.3,7.3,2.4,12.5,0.9
			s5.8-4.1,11.7-6.7c5.8-2.6,9.7-3.2,10.8-0.6c1.1,2.6,6.3,8,9.5,9.3s7.1,2.8,9.3,3.9c2.2,1.1,3.7,1.9,3.7,1.9s-2.4,1.1-7.6,1.7
			s-12.5-1.5-17-1.7s-10.8-2.6-14.5-2.6s-7.8,1.3-7.6,3.7c0.2,2.4,1.3,5,3.2,5.8c1.9,0.9,5.8,1.9,8.2,3.5c2.4,1.5,4.7,1.9,5.8,3.7
			c1.1,1.7,1.5,5,1.5,5s-5.2,2.6-7.3,4.7c-2.2,2.2-0.2,1.5-7.1,1.9s-15.1,0.2-19.6,0.2s-5.6-1.5-6.5-4.1s-2.2-9.5-3.9-11.9
			c-1.7-2.4-2.6-4.1-2.6-4.1s5.2-18.8,7.1-25.3s3-16.2,3.9-19.9C404.4,290.4,405.7,288.4,405.7,288.4z"/>
		<path d="M416.3,362c0,0,0.9,4.1,3.2,6c2.4,1.9,6.3,3,9.1,2.8c2.8-0.2,5.4-2.6,8.6-3.9s7.1-3.5,11-3c3.9,0.4,10.8,0.9,13,1.7
			c2.2,0.9,7.8,1.3,12.5,0.9s9.3-1.5,9.3-1.5s-2.4-1.9-6-4.3c-3.7-2.4-8.6-5.2-15.1-5.2s-16.2,0.2-20.1,2.6s-7.1,5.4-12.1,5.6
			s-11.7-1.9-11.7-1.9L416.3,362z"/>
		<path d="M404.2,364.2c0,0,1.7,0.2,4.5,1.7s6.7,4.7,8.8,6.3c2.2,1.5,5.8,4.3,7.8,5c1.9,0.6,3.2,2.4,5.6,2.2
			c2.4-0.2,5.8-1.5,6.7-0.6c0.9,0.9,3.7,5.4,6.7,7.6s6.5,3.2,8.6,4.7c2.2,1.5,3.2,3.7,0.9,4.7c-2.4,1.1-7.6,3.7-11.7,6.7
			s-6.7,5.6-9.9,7.3c-3.2,1.7-5.4,0.4-5.4,0.4l-5.4-22.9l-10-11.3l-6.5-7.8L404.2,364.2z"/>
		<path d="M446.7,408c0,0,3.2-0.9,6-1.7c2.8-0.9,8.8-3.2,13.8-3s9.7,0.9,12.1,1.9c2.4,1.1-1.7-5.2-4.3-6c-2.6-0.9-3-3.2-9.1-2.4
			c-6,0.9-8.2,0.6-12.7,3.9C448,403.9,446.7,407.1,446.7,408z"/>
		<path d="M429.7,413.8c3.2,0,8.2-0.9,13.8-1.7c5.6-0.9,12.3-2.2,14-1.9c1.7,0.2,3.7,1.9,2.4,2.6c-1.3,0.6-7.1,2.2-11.2,3.5
			s-4.3,3.7-7.6,5c-3.2,1.3-8,1.9-10.8,1.5s-4.1-3.2-4.1-3.2L429.7,413.8z"/>
		<path d="M485.2,426.3c0,0-1.7-1.5-5-3.9c-3.2-2.4-5.8-5.6-6-6.5s-0.2,0.4,2.8-0.4c3-0.9,5.4-3,6.3-4.1s0.2-3.5-0.6-4.3
			c-0.9-0.9-2.4-2.6-6-3c-3.7-0.4-9.5-1.3-14.5-0.4s-15.3,4.3-15.3,4.3s7.6-7.6,11-8.4c3.5-0.9,9.1-3.2,11.9-3.2s6,1.1,9.5,3.2
			c3.5,2.2,6.9,4.3,7.3,6.7c0.4,2.4,1.9,8.6,1.9,8.6L485.2,426.3z"/>
		<path d="M487.7,371.5c-0.9,1.7-0.9,3.5-5.6,6c-4.7,2.6-10.6,3-14,1.9c-3.5-1.1-6.3-3.2-10.8-1.9c-4.5,1.3-10.1-1.5-11.9-2.2
			c-1.7-0.6,0.2,5.2,2.4,7.1c2.2,1.9,6.9,2.8,10.6,2.8s5.4,1.3,8,3.7c2.6,2.4,6,4.7,10.4,5.8c4.3,1.1,10.8,4.1,11.4,4.1
			C488.8,398.9,487.7,371.5,487.7,371.5z"/>
		<path d="M393.7,336.1c0,0-4.5,11.2-6.9,14.2s-7.1,9.9-7.1,9.9s2.4-5.2,0.9,1.5s-1.5,10.1-1.1,13c0.4,2.8,0.4,4.5,1.3,6.3
			c0.9,1.7,2.8,5.4,2.8,5.4s-2.6-16.6-2.4-17.9s1.7-9.7,2.4-11.2c0.6-1.5,5.4-8.6,6.3-9.9s3-5.4,3.7-6.3c0.6-0.9,1.3-3.2,1.3-3.2
			L393.7,336.1z"/>
	</g>
	<path d="M170,460.1c0,0,15.9,12.4,24.9,18c9,5.5,20,14.5,30.1,18.3c10,3.8,27.3,10,38.4,11.8c11.1,1.7,25.6,4.8,29.4,6.6
		c3.8,1.7,10.4,6.9,10.4,6.9l-4.8,1.7l-23.5-4.1L243,508.5l-32.1-9.3l-14.5-5.9l-10.4-7.6l-12.1-9l-7.6-3.8l-1-8.6L170,460.1z"/>
	<path d="M184.6,31.8c0,0,30,21.4,31.7,22.5c1.7,1.1,15.6,11.7,18.9,13.3c3.3,1.7,10.3,5.3,13.9,8.1c3.6,2.8,5.3,1.4,8.1,5
		s14.2,15.3,16.1,17.8s-17.8-20.9-22.2-23.9c-4.5-3.1-21.1-14.2-25.3-17.2c-4.2-3.1-26.7-16.7-29.8-21.1s-4.4-4.7-4.4-7.8
		s4.4-5.8,4.4-5.8l-9.7,5.3L184.6,31.8z"/>
	<path d="M303.9,31.7c0,0,10,7.2,11.7,11.4s4.4,7.5,3.9,9.7c-0.6,2.2-6.1,8.1-7.5,10.3s-5.8,9.5-7,11.1c-1.1,1.7-4.2,6.4-5.8,8.9
		c-1.7,2.5-5,6.7-5.6,10s-0.8,6.4-0.8,6.4s7.8-15.9,9.5-18.4s7.5-13.9,10.6-15.6c3.1-1.7,5.3-5.8,7.8-6.7c2.5-0.8,6.1-1.4,6.7-5
		s0.3-11.7-3.6-14.5s-7.5-4.2-10.8-5C309.5,33.7,303.9,31.7,303.9,31.7z"/>
	<path d="M236.1,66.4c0,0,9.8-3.1,14.7-4.2c4.9-1,11.9-1.7,18.5-1.7c6.6,0,18.5,1.4,18.5,1.4s-9.8-0.3-12.9,0.7s-5.9,2.1-5.9,2.1
		s11.5,0.7,14.7,0.7c3.1,0,5.9-0.3,11.9,0.3c5.9,0.7,9.8,1.4,9.8,1.4l1.4,1.7c0,0-19.2-2.4-32.8-1.7c-13.6,0.7-25.9,5-25.9,5
		L236.1,66.4z"/>
	<path d="M328.9,40.9c1.1,0.6,4.7,7.5,4.7,7.5s1.4,1.1,4.5-0.3c3.1-1.4,5.6-2.2,3.9-4.7s-1.7-3.6-3.6-3.6
		C336.4,39.8,328.9,40.9,328.9,40.9z"/>
	<path d="M206.4,45.8c0,0-6.3-7,4.5-10.8s18.2-4.5,21.3-4.2s7,1.7,7,1.7s-5.6,1.7-10.1,1.7s-11.2,2.1-11.9,3.8s-1.4,4.5-1.4,4.5
		s1-0.3,3.1-0.3s6.6,1,6.6,1s-2.8,1-4.5,1.4c-1.7,0.3-3.5,1-3.5,2.1c0,1,1,3.5,1,3.5s0.7,1,1.7,2.1c1,1,2.1,3.8,2.1,3.8L206.4,45.8z
		"/>
</g>
<g>
	<g>
		<path fill="none" stroke="#010101" stroke-width="3" d="M192.6,478c0,0-1-29,3.1-49.8c0,0,41.5-2.1,42.5-79.8
			c0,0,99.5-10.4,135.8-9.3c0,0,1,15.6,0,37.3c-1,21.8,3.1,32.1,27,39.4c0,0,2.1,4.1,0,18.7c-2.1,14.5,0,9.3,0,9.3"/>
		<path fill="none" stroke="#010101" stroke-width="2" d="M193.7,441.7c0,0,58.1-9.3,55-94.4"/>
		<path fill="none" stroke="#010101" stroke-width="2" d="M400,427.2c0,0-28-6.2-34.2-28s-1-60.1-1-60.1"/>
		<g>
			<g>
				<g>
					<path fill="#010101" d="M164.6,475c-0.5-1.5-0.9-2.9-1.2-4.4s-0.6-3.1-0.3-5.1c0.1-0.5,0.2-1.1,0.6-1.7l0.1-0.2l0.1-0.1l0,0
						c0,0-0.1,0.1,0,0.1l0,0l0,0l0.1-0.2l0.3-0.5c0.3-0.6,0.6-1,0.9-1.6c0.5-1.1,1-2.3,1.2-3.5c0.1-0.6,0.2-1.2,0.2-1.6V456v-0.1
						l0,0v-0.1v-0.5v-0.7V454c0.1-1.5,0.2-2.8,0.1-3.7c-0.1-0.4-0.2-0.7-0.4-0.9c-0.1-0.1-0.2-0.2-0.3-0.3l-0.9-0.6l-0.9-0.6
						l-0.8-0.4c-0.3-0.2-0.5-0.3-0.8-0.4s-0.6-0.3-0.8-0.4l-1.6-0.7l0.3-1.6c0.3-2,0.6-4.1,0.7-6.1v-1.5l-0.1-1.4l-0.1-0.6l-0.1-0.3
						v-0.2c0,0,0,0,0-0.1v-0.1c-0.1-0.5-0.3-1-0.4-1.6c-0.3-1.2-0.4-2.3-0.5-3.6c0-1.2,0.1-2.6,0.8-4l0.1-0.3l0,0l0,0l0.1-0.1l0,0
						l0.1-0.1l0.2-0.3l0.5-0.7c0.3-0.4,0.7-0.9,1.1-1.4c0.8-1,1.5-1.7,2.3-2.6c-0.2,0.4-0.3,0.9-0.5,1.3c0.1-2.9,0.3-5.8,0.7-8.8
						c0.1-0.4,0.1-0.7,0.2-1.2l0.2-0.7l0.1-0.3l0,0l0,0c0.1-0.1-0.1,0.2,0,0.1v-0.1v-0.1c0.3-0.8,0.3-1.2,0.4-1.8
						c0.2-1.4,0.4-2.8,0.5-4.2c0.2-1.5,0.3-2.8,0.6-4.5v-0.2l0,0c0-0.2,0,0.2,0,0.2l0,0V399v-0.3c0-0.2,0.1-0.4,0.1-0.5
						c0-0.2,0-0.4-0.1-0.7l-0.1-1l-0.2-1l-0.4-2.1c-0.1-0.4-0.1-0.8-0.2-1.2c0-0.4-0.1-0.9-0.1-1.4l0.2-2.2l0.3-2.2
						c0.4-2.9,0.9-5.8,1.1-8.5c0.1-0.7,0.1-1.5,0.3-2.3c0.1-0.4,0.2-0.9,0.4-1.4c0.1-0.3,0.3-0.5,0.5-0.8c0.1-0.1,0.3-0.3,0.4-0.4
						c0.2-0.1,0.4-0.2,0.5-0.3c0.4-0.1,0.8-0.2,1.1-0.2h0.2h0.1h0.1h0.3l1.1,0.2c0.7,0.1,1.3,0.2,1.5,0.1c0.1,0,0.1,0,0.2-0.1
						c0.1-0.1,0.1-0.2,0.3-0.6l0.1-0.4l0.1-0.5c0.1-0.3,0.1-0.7,0.2-1c0.2-1.4,0.3-2.8,0.4-4.2c0-0.7,0-1.4,0-2
						c0-0.3-0.1-0.6-0.1-0.9c0-0.1-0.1-0.3-0.1-0.2l0,0c0.1-0.1,0.2-0.1,0.3-0.2h0.1c0.1-0.1-0.8,0.3-0.4,0.2l0,0v-0.1l-0.1-0.2
						l-1-1.9c-0.3-0.6-0.6-1.4-1-2l-0.4-0.8l0.5-0.6c1.9-2.2,3.8-4.4,5.5-6.7l0.6-0.9c0.2-0.3,0.4-0.6,0.5-0.9l0.2-0.4l0.1-0.1v-0.1
						l0,0c0,0,0,0.1,0,0l0.1-0.3l0.1-0.3v-0.2c0-0.1,0.1-0.2,0.1-0.4c0.2-1.3,0-2.7-0.1-4.2c-0.1-0.7-0.1-1.5-0.2-2.2
						c0-0.8-0.1-1.5,0-2.4c0.1-0.7,0.2-1.5,0.2-2.2l0.1-2.1c0.1-2.9,0.1-5.9,0.1-8.8c0-3,0-5.9,0.1-8.9l0.1-1.2c0-0.1,0-0.8-0.1-0.9
						c0-0.1-0.1-0.2-0.1-0.3c-0.1-0.1-0.1-0.3-0.2-0.4c-0.1-0.3-0.3-0.5-0.5-0.8c-0.4-0.5-0.9-1.1-1.4-1.7c-0.1-0.2-0.3-0.3-0.4-0.5
						v-0.1l0,0c0,0.1-0.1-0.1-0.1-0.1l-0.1-0.1l-0.1-0.3c-0.1-0.3-0.3-0.7-0.4-1l-0.7-2.2l-0.6-2.1c-0.4-1.4-0.8-2.9-1.1-4.3
						c-0.4-1.4-0.7-2.9-1-4.3s-0.6-2.9-0.8-4.4l-0.4-2.2l-0.2-2.2l-0.2-2.2c-0.1-0.7-0.1-1.5-0.1-2.2c0-1.5-0.1-3,0-4.5l0.2-4.4
						c0.1-3,0.3-5.9,0.5-8.8c0.1-1.5,0.2-2.9,0.4-4.4c0.1-0.7,0.2-1.5,0.3-2.2c0.1-0.4,0.1-0.7,0.2-1.1l0.3-1.1
						c0.9-2.8,1.4-5.7,2-8.6c0.6-2.9,1.1-5.8,1.5-8.7c0.2-1.5,0.4-2.9,0.5-4.4s0.2-2.9-0.1-4.4c-0.3-1.4-0.9-2.8-1.7-4.1
						c-0.4-0.6-0.8-1.2-1.3-1.8c-0.5-0.5-1-1.1-1.7-1.4c0.7,0.3,1.2,0.8,1.7,1.3s0.9,1.2,1.3,1.8c0.8,1.3,1.4,2.6,1.7,4.1
						c0.4,1.4,0.3,3,0.2,4.4c-0.1,1.5-0.3,2.9-0.5,4.4c-0.4,2.9-0.8,5.8-1.3,8.8c-0.5,2.9-1,5.8-1.9,8.7l-0.3,1
						c-0.1,0.4-0.1,0.7-0.2,1.1c-0.1,0.7-0.2,1.4-0.3,2.2c-0.2,1.5-0.2,2.9-0.4,4.4c-0.2,2.9-0.3,5.9-0.4,8.8l-0.1,4.4
						c-0.1,1.5,0,2.9,0.1,4.4c0,0.7,0,1.5,0.1,2.2l0.3,2.2l0.3,2.2l0.4,2.2c0.3,1.4,0.5,2.9,0.9,4.3c0.3,1.4,0.6,2.9,1,4.3
						s0.7,2.8,1.2,4.2l0.6,2.1l0.7,2c0.1,0.3,0.3,0.7,0.4,1l0.1,0.3l0.1,0.1c0,0-0.1-0.1,0,0l0,0l0,0c0.1,0.1,0.2,0.2,0.3,0.4
						c0.4,0.5,1,1.1,1.5,1.7c0.2,0.3,0.5,0.6,0.7,1c0.1,0.2,0.2,0.4,0.3,0.6s0.1,0.5,0.2,0.7c0.1,0.3,0.1,0.4,0.1,0.6v0.3v0.1v0.1
						l0,0v0.1v1c0,2.9,0,5.9,0.1,8.8c0,3,0.1,5.9,0.1,8.9l-0.1,2.3c0,0.8-0.1,1.5-0.2,2.2c-0.1,1.2,0.1,2.7,0.3,4.2
						c0.1,1.5,0.3,3,0.2,4.6c0,0.4-0.2,1-0.3,1.3l-0.1,0.3c0-0.1,0,0.1,0,0.1l0,0v0.1l-0.1,0.1l-0.3,0.6c-0.2,0.4-0.4,0.7-0.6,1
						l-0.6,1c-1.8,2.5-3.6,4.8-5.9,6.8c0.2-0.3,0.3-0.7,0.4-1c0.3,0.6,0.6,1.2,0.9,1.9l1,1.9l0.1,0.2c0,0,0.1,0.1,0,0.1l0.1,0.2
						c0.2,0.3,0.2,0.5,0.2,0.8c0.1,0.4,0.1,0.8,0.2,1.2c0.1,0.8,0.1,1.5,0.1,2.3c0,1.5-0.1,3-0.3,4.5c0,0.4-0.1,0.7-0.2,1.1
						l-0.1,0.6c0,0.2-0.1,0.4-0.2,0.7c-0.1,0.3-0.3,0.9-0.6,1.3c-0.4,0.5-1,0.9-1.5,1c-1.2,0.3-2,0.1-2.7,0l-1-0.2h-0.3H171l0,0l0,0
						c-0.1,0,0,0,0,0c0.1,0,0.1-0.1,0,0.1c-0.1,0.1-0.1,0.4-0.2,0.7c-0.1,0.6-0.1,1.3-0.2,2c-0.2,3-0.6,5.9-0.9,8.7l-0.2,2.1
						l-0.1,2.2c0,0.2,0,0.5,0.1,0.8l0.2,1l0.5,2.1l0.2,1.1l0.2,1.2c0,0.4,0.1,1,0.1,1.4c0,0.2,0,0.4-0.1,0.5v0.3v0.1l0,0v0.2v0.1
						c-0.2,1.2-0.3,2.7-0.5,4.1c-0.1,1.4-0.3,2.9-0.5,4.4c-0.1,0.8-0.3,1.8-0.5,2.4v0.1v0.1c0,0-0.1,0.3-0.1,0.2l0,0l0,0v0.2
						l-0.1,0.3c-0.1,0.2-0.1,0.6-0.1,0.9c-0.3,2.7-0.4,5.6-0.5,8.4v0.6l-0.6,0.6c-0.7,0.7-1.4,1.5-2,2.2c-0.3,0.4-0.6,0.7-0.9,1.2
						l-0.5,0.7l-0.2,0.3l-0.1,0.1l0,0l0,0c0,0-0.1,0.1,0.1-0.1l0,0l0,0v0.1c-0.6,1.1-0.3,3.2,0.1,5c0.1,0.4,0.3,1,0.4,1.5v0.1v0.1
						l0.1,0.2l0.1,0.5l0.2,1l0.1,1.8c0,0.6,0,1.1,0,1.7c-0.1,2.3-0.3,4.4-0.7,6.6c-0.4-0.8-0.8-1.5-1.2-2.2c0.4,0.2,0.8,0.3,1.1,0.5
						c0.4,0.2,0.7,0.3,1.1,0.5l1.1,0.6l0.9,0.6l0.9,0.6c0.5,0.3,0.9,0.6,1.3,1.1c0.8,0.9,1.2,1.9,1.3,2.9c0.3,1.9,0.1,3.4,0.1,4.7
						v0.5v0.4v0.5v0.6c0.1,0.9-0.1,1.7-0.2,2.6c-0.3,1.6-0.8,3.1-1.4,4.5c-0.3,0.7-0.7,1.5-1.1,2.1l-0.3,0.5l-0.1,0.2l-0.1,0.1l0,0
						l0,0c0,0,0,0.1-0.1,0.3c-0.1,0.8,0,2.1,0.3,3.4c0.3,1.2,0.7,2.6,1.1,3.8L164.6,475z"/>
				</g>
			</g>
		</g>
		<g>
			<g>
				<g>
					<path fill="#010101" d="M400.2,366.5c-1.2-2.9-2.2-5.7-3.1-8.7c-0.4-1.5-0.8-3-1.1-4.7c-0.1-0.8-0.2-1.7-0.1-2.8
						c0.1-0.5,0.1-0.7,0.2-1.2c0.1-0.4,0.2-0.8,0.3-1.2c0.4-1.5,0.8-2.9,1-4.2c0.3-1.3,0.3-2.6,0-3.1c0-0.1-0.1-0.1-0.1-0.2v-0.1
						l0,0l0,0l-0.1-0.1l0,0L397,340l-0.6-0.9l-0.6-0.9c-0.2-0.3-0.4-0.7-0.6-1.1c-0.8-1.5-1.4-2.8-2.1-4.3l-0.3-0.6l0.1-0.5
						c1.4-7.7,2.8-15.3,4.6-23c0.1-0.5,0.3-1,0.4-1.5l0.2-0.8l0.1-0.3l0.1-0.3c0.4-0.9,0.6-1.8,0.9-2.6c0.5-1.8,1-3.7,1.4-5.5
						s0.8-3.8,1-5.5l0.1-1.5c0-0.5,0.2-1.1,0.3-1.6c0.2-1,0.5-2,0.8-2.9c0.6-1.9,1.2-3.8,1.9-5.6c0.2-0.5,0.4-0.9,0.6-1.4l0.3-0.7
						l0.2-0.6c0.4-1,0.5-1.8,0.7-2.6c0.7-3.7,1-7.6,1.6-11.5c0.1-1,0.3-2,0.5-2.9l0.5-2.8c0.3-1.9,0.6-3.8,0.9-5.7
						c0.5-3.8,1-7.7,1.3-11.5c0.1-1,0.2-1.9,0.2-2.9l0.1-1.4c0-0.5,0-0.9,0-1.4v-1.5c0-0.5,0-1,0-1.5c0-1,0.1-2,0.2-3
						c0.3-3.9,0.7-7.8,1.1-11.6l1.2-11.6c0.3-3.9,0.7-7.7,0.7-11.6c0-1.9-0.3-3.8-0.4-5.8c0-2-0.1-3.9,0-5.9
						c0.1-3.9,0.2-7.8,0.4-11.7l0.6-11.6c0.1-3.9,0.7-7.7,1.2-11.6c-0.5,3.9-0.9,7.7-1,11.6l-0.4,11.6c-0.1,3.9-0.2,7.8-0.2,11.6
						c0,1.9,0.1,3.9,0.1,5.8c0.1,1.9,0.4,3.8,0.5,5.8c0.1,3.9-0.2,7.8-0.5,11.7l-0.9,11.6c-0.3,3.9-0.7,7.7-0.9,11.6
						c0,1-0.1,1.9-0.1,2.8c0,0.5,0,0.9,0,1.4l0.1,1.5c0,0.5,0.1,1,0.1,1.5v1.5c0,1-0.1,2-0.1,2.9c-0.2,3.9-0.6,7.8-1.1,11.7
						c-0.2,1.9-0.5,3.9-0.8,5.8l-0.5,2.9c-0.1,0.9-0.3,1.9-0.4,2.8c-0.5,3.8-0.7,7.7-1.3,11.6c-0.2,1-0.4,2.1-0.7,3l-0.1,0.3
						l-0.1,0.2v0.1l0,0v0.1l-0.3,0.7c-0.2,0.4-0.3,0.9-0.5,1.3c-0.7,1.8-1.2,3.6-1.8,5.4c-0.3,0.9-0.5,1.8-0.7,2.7
						c-0.1,0.4-0.2,0.8-0.2,1.3l-0.1,1.4c0,0.6-0.1,1.1-0.2,1.6s-0.1,1-0.2,1.5c-0.2,1-0.3,2-0.5,2.9c-0.4,1.9-0.8,3.8-1.3,5.8
						c-0.3,1-0.6,2-0.9,2.9l-0.1,0.3l-0.1,0.1v0.1v0.2l-0.2,0.6c-0.1,0.4-0.2,0.8-0.3,1.3c-1.6,7.5-2.8,15.2-4.7,22.7
						c0.2-0.3,0.3-0.6,0.3-0.9c0.6,1.3,1.2,2.6,1.9,3.7c0.2,0.3,0.3,0.6,0.5,0.9l0.6,0.9l0.6,0.9l0.3,0.5c0.2,0.2,0.3,0.5,0.4,0.7
						c0.5,1,0.7,2.1,0.7,3s-0.1,1.8-0.2,2.6c-0.3,1.6-0.7,3.1-1,4.5c-0.1,0.3-0.1,0.7-0.2,1s-0.1,0.8-0.1,1c0,0.4,0,1,0.1,1.7
						c0.2,1.3,0.6,2.7,1,4c0.9,2.7,2,5.5,3.1,8.1L400.2,366.5z"/>
				</g>
			</g>
		</g>
	</g>
	<path fill="none" stroke="#010101" d="M247.2,72.1c0,0,13.3-5.7,31.1-5.4c17.8,0.3,29.7,2.8,29.7,2.8"/>
</g>
<path fill="none" stroke="#010101" stroke-width="4" d="M189.7,77l-44.6,27c0,0-19.7,15.6-24.9,39.4c-5.2,23.9-17.6,78.8-9.3,114.1
	c0,0,5.2,14.5-1,41.5s-14.5,63.3-8.3,93.3c6.2,30.1,15.6,53.9,15.6,53.9s-15.6,6.2-9.3,19.7c6.2,13.5,11.4,14.5,11.4,14.5
	s-1,3.1,0,9.3c1,6.2,4.1,9.3,4.1,9.3v9.3l6.2,2.1c0,0,34.2-15.6,46.7-13.5c0,0-24.9-21.8-7.3-24.9c0,0,7.3,5.2,15.6,10.4
	c8.3,5.2,11.4,9.3,16.6,11.4c5.2,2.1,68.4,22.8,80.9,25.9c12.4,3.1,30.1,1,30.1,1s22.8,5.2,51.8-7.3c29-12.4,45.6-22.8,48.7-33.2
	c3.1-10.4-4.1-13.5-4.1-13.5s15.6-17.6,5.2-60.1s-10.4-42.5-10.4-42.5s14.5,16.6,17.6,20.7s4.1,18.7,7.3,25.9l-3.1,13.5
	c0,0-1-5.2,2.1,5.2c3.1,10.4-4.1,35.3-4.1,35.3s21.8,4.1,31.1,2.1c9.3-2.1,13.5-4.1,18.7-2.1c5.2,2.1,10.4,2.1,10.4,2.1l-3.1-34.2
	l5.2-4.1c0,0,7.3-13.5,4.1-31.1c0,0,5.2-72.6-17.6-136.9c-22.8-64.3-28-112-28-112s-9.3-58.1-41.5-72.6
	c-32.1-14.5-32.1-14.5-32.1-14.5s1-6.2-3.1-10.4s-2.1-16.6-2.1-16.6s-2.1-17.6-22.8-23.8c-20.7-6.2-55-4.1-55-4.1s-50.8-1-69.5,5.2
	s-21.8,8.3-27,11.4s-7.3,3.1-7.3,8.3s-5.2,5.2-3.1,15.6c2.1,10.4,8.3,10.4,11.4,14.5c3.1,4.1-2.1,8.3-2.1,8.3L189.7,77L189.7,77
	L189.7,77z"/>
</svg>
