<?xml version="1.0" encoding="utf-8"?>
<!-- Generator: Adobe Illustrator 21.0.0, SVG Export Plug-In . SVG Version: 6.00 Build 0)  -->
<svg version="1.1" id="Layer_1" xmlns="http://www.w3.org/2000/svg" xmlns:xlink="http://www.w3.org/1999/xlink" x="0px" y="0px"
	 width="590px" height="530px" viewBox="0 0 590 530" enable-background="new 0 0 590 530" xml:space="preserve">
<g id="la_x7C_Product_Color_x7C_bg">
	<g>
		<path fill="#FFFFFF" d="M507.7,342.9c-2.3-3.4-1.5-2.3-2.3-7.6c-0.8-5.3-1.5-8-1.9-12.2s-3.4-7.2-1.1-11.1
			c2.3-3.8,4.6-4.6,4.6-10.3c0-5.7,0.8-16-2.7-22.1c-3.4-6.1-1.9-16.8-4.6-22.9c-2.7-6.1-5.7-32-6.9-38.9
			c-1.1-6.9-16.4-45.8-21.4-56.1s-12.2-27.1-15.3-32.8c-3.1-5.7-14.5-16.4-18.3-21.4s-12.6-11.8-18.7-16.4s-8.8-8.4-11.8-9.5
			c-3.1-1.1-5.7-2.3-5.7-2.3s7.6-8.8,6.5-17.9c-1.1-9.2-3.1-21.7-1.9-25.2c1.1-3.4,2.7-4.6,2.7-6.9s-0.4-5-3.4-6.1
			c-3.1-1.1-6.5-0.4-11.1-3.4c-4.6-3.1-12.6-4.6-13.7-5.3c-1.1-0.8-8.8,2.7-13.7,3.1c-5,0.4-9.9-1.5-11.4,1.1c-1.5,2.7-4.2,5-4.2,5
			s-1.5-3.8-7.2-5c-5.7-1.1-7.6,0-15.3,0c-7.6,0-13.7,0.4-19.1-1.9c-5.3-2.3-6.1-4.6-12.6-4.6s-18.3,0-27.9,0S257,14,251.7,12.8
			c-5.3-1.1-5.3-1.1-5.3-1.1s-11.4-5-23.7-4.6c-12.2,0.4-17.5-1.5-21,1.1c-3.4,2.7-6.5,16.8-6.9,22.9s-1.1,12.2,0,15.6
			c1.1,3.4,0.8,5.3,0.8,5.3s-2.7,2.7-3.4,5c-0.8,2.3-2.7,10.3-3.1,13.4c-0.4,3.1-0.4,5.7-0.4,5.7s-9.9,8-18.7,8.4s-9.9,3.8-13.4,6.5
			c-3.4,2.7-21,30.5-24.4,35.5c-3.4,5-6.9,13-8,16.4s-9.5,37.8-12.2,43.5S99.8,220,98.3,226.1c-1.5,6.1-3.1,10.3-2.7,16.4
			c0.4,6.1-0.8,24.8-0.8,24.8s-3.1,7.6-2.7,11.8c0.4,4.2,1.5,11.8,1.5,11.8s-4.6,5.7-5.7,11.1c-1.1,5.3-0.4,8.4-2.3,11.1
			s-6.5,5.7-6.5,8.4c0,2.7,3.1,12.2,3.1,12.2l3.1,5.3c0,0-3.8,5-3.4,9.2s2.3,11.8,2.3,13.4c0,1.5-0.8,4.6,1.9,5.7
			c2.7,1.1,5,2.3,5,2.3s-0.8,7.3,2.3,12.2c3.1,5,3.4,5,5.7,9.5c2.3,4.6,3.4,8.4,3.4,12.6s0.4,7.6,2.7,9.9c2.3,2.3,4.6,6.1,4.2,8.4
			s0,9.9,1.5,13s5,8.4,5.7,9.9c0.8,1.5,1.9,5.7,3.1,8c1.1,2.3,1.9,6.1,3.8,8.4s6.9,5,8.4,5.7c1.5,0.8,1.1,1.1,2.7,6.1
			c1.5,5,5.3,13.4,7.6,16.4c2.3,3.1,4.2,8,7.2,13c3.1,5,5.3,8.4,6.1,7.3s6.1-9.5,8-14.1s5.7-9.5,5.7-9.5s0,1.9,30.1,4.2
			s122.5,3.1,122.5,3.1s48.5,0.8,70.6-5.3s27.5-8.4,27.5-8.4s8,23.3,8,24.4s-0.4,6.5,5,13.4c5.3,6.9,7.2,6.5,7.2,6.5
			s11.1-9.2,11.8-13c0.8-3.8,9.5-13.4,11.1-14.5c1.5-1.1,8-5,8-5s1.5-9.2,1.1-10.7s7.3-4.2,9.9-7.3c2.7-3.1,2.7-3.1,2.7-3.1
			s-2.3-18.7-2.3-23.7s0-6.1,1.1-9.5s7.6-23.3,9.2-26.7c1.5-3.4,6.5-17.5,6.1-24s1.1-9.5,1.9-11.8s2.3-3.8,2.3-6.5s0.4-4.6,2.3-6.5
			s5-3.4,5-6.9C510.4,351.6,510,346.3,507.7,342.9z M161.3,404.3c-0.4-1.9-1.9-11.4-1.5-14.9c0.4-3.4-1.1-3.1-3.1-3.8
			c-1.9-0.8-1.1-3.1-1.9-7.2c-0.8-4.2-0.4-5-1.9-6.9s0-5.7,0-9.2c0-3.4-2.3-8.4-2.3-12.6s3.1-6.9,4.2-9.2c1.1-2.3,1.9-6.1,1.9-7.6
			s-0.4-7.2-0.4-10.7c0-3.4,4.6-12.2,7.2-17.9c2.7-5.7,1.5-18.7,1.5-18.7s1.9,0.4,2.3,2.3c0.4,1.9-0.4,14.1-0.8,18.3
			c-0.4,4.2-1.9,20.2-2.7,26.3c-0.8,6.1-6.1,20.6-5,26.3c1.1,5.7,1.1,17.5,3.4,21c2.3,3.4,9.5,7.2,9.9,8.8c0.4,1.5-0.8,5.3-3.4,8.4
			c-2.7,3.1-3.1,3.4-4.6,7.3C162.8,408.1,161.7,406.2,161.3,404.3z M172.7,435.9c0,5-3.8,6.5-3.8,6.5s1.1-5.7,1.1-9.2
			c0-3.4,0.4-5.3-2.7-9.2c0,0,4.2,1.1,5,2.3C173.1,427.5,172.7,431,172.7,435.9z M435.2,381.4c-3.1,7.2,0,25.6,0,25.6
			s-5.3,6.1-6.1,9.5c-0.8,3.4-1.1,19.1-1.5,20.6s-2.7-21.4-2.3-22.5s1.1-2.3,0.4-6.5c-0.8-4.2-3.8-3.8-5.3-6.5s2.7-3.8,6.5-6.1
			c3.8-2.3,6.5-15.3,6.5-23.7c0-8.4-6.1-21.4-8.8-25.2c-2.7-3.8-1.5-6.1-1.1-10.3c0.4-4.2,4.2-19.5,4.2-25.9
			c0-6.5-3.1-17.2-3.1-17.2s2.3,2.3,3.4,3.8s3.1,10.3,3.1,12.2c0,1.9,3.1,9.2,6.9,12.6s0.4,3.8,0.4,6.5s-4.6,6.5-7.2,13.7
			c-2.7,7.3,4.6,16.8,6.5,19.5s2.3,4.2,2.7,7.2C440.6,371.8,438.3,374.1,435.2,381.4z"/>
	</g>
	<g>
		<path fill="none" stroke="#010101" stroke-width="3" d="M507.7,342.9c-2.3-3.4-1.5-2.3-2.3-7.6c-0.8-5.3-1.5-8-1.9-12.2
			s-3.4-7.2-1.1-11.1c2.3-3.8,4.6-4.6,4.6-10.3c0-5.7,0.8-16-2.7-22.1c-3.4-6.1-1.9-16.8-4.6-22.9c-2.7-6.1-5.7-32-6.9-38.9
			c-1.1-6.9-16.4-45.8-21.4-56.1s-12.2-27.1-15.3-32.8c-3.1-5.7-14.5-16.4-18.3-21.4s-12.6-11.8-18.7-16.4s-8.8-8.4-11.8-9.5
			c-3.1-1.1-5.7-2.3-5.7-2.3s7.6-8.8,6.5-17.9c-1.1-9.2-3.1-21.7-1.9-25.2c1.1-3.4,2.7-4.6,2.7-6.9s-0.4-5-3.4-6.1
			c-3.1-1.1-6.5-0.4-11.1-3.4c-4.6-3.1-12.6-4.6-13.7-5.3c-1.1-0.8-8.8,2.7-13.7,3.1c-5,0.4-9.9-1.5-11.4,1.1c-1.5,2.7-4.2,5-4.2,5
			s-1.5-3.8-7.2-5c-5.7-1.1-7.6,0-15.3,0c-7.6,0-13.7,0.4-19.1-1.9c-5.3-2.3-6.1-4.6-12.6-4.6s-18.3,0-27.9,0S257,14,251.7,12.8
			c-5.3-1.1-5.3-1.1-5.3-1.1s-11.4-5-23.7-4.6c-12.2,0.4-17.5-1.5-21,1.1c-3.4,2.7-6.5,16.8-6.9,22.9s-1.1,12.2,0,15.6
			c1.1,3.4,0.8,5.3,0.8,5.3s-2.7,2.7-3.4,5c-0.8,2.3-2.7,10.3-3.1,13.4c-0.4,3.1-0.4,5.7-0.4,5.7s-9.9,8-18.7,8.4s-9.9,3.8-13.4,6.5
			c-3.4,2.7-21,30.5-24.4,35.5c-3.4,5-6.9,13-8,16.4s-9.5,37.8-12.2,43.5S99.8,220,98.3,226.1c-1.5,6.1-3.1,10.3-2.7,16.4
			c0.4,6.1-0.8,24.8-0.8,24.8s-3.1,7.6-2.7,11.8c0.4,4.2,1.5,11.8,1.5,11.8s-4.6,5.7-5.7,11.1c-1.1,5.3-0.4,8.4-2.3,11.1
			s-6.5,5.7-6.5,8.4c0,2.7,3.1,12.2,3.1,12.2l3.1,5.3c0,0-3.8,5-3.4,9.2s2.3,11.8,2.3,13.4c0,1.5-0.8,4.6,1.9,5.7
			c2.7,1.1,5,2.3,5,2.3s-0.8,7.3,2.3,12.2c3.1,5,3.4,5,5.7,9.5c2.3,4.6,3.4,8.4,3.4,12.6s0.4,7.6,2.7,9.9c2.3,2.3,4.6,6.1,4.2,8.4
			s0,9.9,1.5,13s5,8.4,5.7,9.9c0.8,1.5,1.9,5.7,3.1,8c1.1,2.3,1.9,6.1,3.8,8.4s6.9,5,8.4,5.7c1.5,0.8,1.1,1.1,2.7,6.1
			c1.5,5,5.3,13.4,7.6,16.4c2.3,3.1,4.2,8,7.2,13c3.1,5,5.3,8.4,6.1,7.3s6.1-9.5,8-14.1s5.7-9.5,5.7-9.5s0,1.9,30.1,4.2
			s122.5,3.1,122.5,3.1s48.5,0.8,70.6-5.3s27.5-8.4,27.5-8.4s8,23.3,8,24.4s-0.4,6.5,5,13.4c5.3,6.9,7.2,6.5,7.2,6.5
			s11.1-9.2,11.8-13c0.8-3.8,9.5-13.4,11.1-14.5c1.5-1.1,8-5,8-5s1.5-9.2,1.1-10.7s7.3-4.2,9.9-7.3c2.7-3.1,2.7-3.1,2.7-3.1
			s-2.3-18.7-2.3-23.7s0-6.1,1.1-9.5s7.6-23.3,9.2-26.7c1.5-3.4,6.5-17.5,6.1-24s1.1-9.5,1.9-11.8s2.3-3.8,2.3-6.5s0.4-4.6,2.3-6.5
			s5-3.4,5-6.9C510.4,351.6,510,346.3,507.7,342.9z M161.3,404.3c-0.4-1.9-1.9-11.4-1.5-14.9c0.4-3.4-1.1-3.1-3.1-3.8
			c-1.9-0.8-1.1-3.1-1.9-7.2c-0.8-4.2-0.4-5-1.9-6.9s0-5.7,0-9.2c0-3.4-2.3-8.4-2.3-12.6s3.1-6.9,4.2-9.2c1.1-2.3,1.9-6.1,1.9-7.6
			s-0.4-7.2-0.4-10.7c0-3.4,4.6-12.2,7.2-17.9c2.7-5.7,1.5-18.7,1.5-18.7s1.9,0.4,2.3,2.3c0.4,1.9-0.4,14.1-0.8,18.3
			c-0.4,4.2-1.9,20.2-2.7,26.3c-0.8,6.1-6.1,20.6-5,26.3c1.1,5.7,1.1,17.5,3.4,21c2.3,3.4,9.5,7.2,9.9,8.8c0.4,1.5-0.8,5.3-3.4,8.4
			c-2.7,3.1-3.1,3.4-4.6,7.3C162.8,408.1,161.7,406.2,161.3,404.3z M172.7,435.9c0,5-3.8,6.5-3.8,6.5s1.1-5.7,1.1-9.2
			c0-3.4,0.4-5.3-2.7-9.2c0,0,4.2,1.1,5,2.3C173.1,427.5,172.7,431,172.7,435.9z M435.2,381.4c-3.1,7.2,0,25.6,0,25.6
			s-5.3,6.1-6.1,9.5c-0.8,3.4-1.1,19.1-1.5,20.6s-2.7-21.4-2.3-22.5s1.1-2.3,0.4-6.5c-0.8-4.2-3.8-3.8-5.3-6.5s2.7-3.8,6.5-6.1
			c3.8-2.3,6.5-15.3,6.5-23.7c0-8.4-6.1-21.4-8.8-25.2c-2.7-3.8-1.5-6.1-1.1-10.3c0.4-4.2,4.2-19.5,4.2-25.9
			c0-6.5-3.1-17.2-3.1-17.2s2.3,2.3,3.4,3.8s3.1,10.3,3.1,12.2c0,1.9,3.1,9.2,6.9,12.6s0.4,3.8,0.4,6.5s-4.6,6.5-7.2,13.7
			c-2.7,7.3,4.6,16.8,6.5,19.5s2.3,4.2,2.7,7.2C440.6,371.8,438.3,374.1,435.2,381.4z"/>
	</g>
</g>
<g opacity="0.2">
	<path d="M174.4,436.1c0,0,0.4,1.6,9.3,4c8.9,2.4,10.5,0.4,19.8,2s20.6,2.8,29.1,4.8s16.6,3.2,26.3,4.4c9.7,1.2,42,0.8,49.3-0.8
		c7.3-1.6,18.6-2.8,26.3-4.4c7.7-1.6,17-3.6,27.5-3.2s12.5-0.4,20.6,4.4s15.3,8.5,17.4,13.3c2,4.8,5.7,9.7,4.8,13.3
		c-0.8,3.6-2.4,11.7-2.4,11.7s6.9-4,13.3-4.8c6.5-0.8,6.1,1.6,6.1,1.6s3.6,13.7,4.4,16.2c0.8,2.4,3.6,12.5,3.6,12.5s5.3,6.9,6.1,8.5
		c0.8,1.6,4.5,4.4,4.5,4.4s14.5-17.3,15.3-19c0.8-1.6,12.1-12.1,13.3-13.7c1.2-1.6,2.8-6.9,2.8-6.9s-15.8,2-18.6,2
		c-2.8,0-4.8,1.2-9.7-2c-4.8-3.2-6.5-5.2-7.7-8.1c0,0-0.8-14.5-0.8-19.8s-0.4-8.5,1.6-8.5s11.3,0.8,11.3,0.8s-8.9-7.3-11.7-7.7
		c-2.8-0.4-5.7-0.4-7.7-1.6s-2.8-5.7-2.8-5.7s-1.2-19.4-1.2-21s0.4-4,0.4-4s-81.2,32.7-135.3,31.1s-85.6-2.3-117.1-13.7L174.4,436.1
		z"/>
	<path d="M172.8,391.6c0,0,7.3,0.4,15.3,0.4c8.1,0,8.1-2,17,0.4s10.9,2,23.8,4c12.9,2,15.3,5.7,27.1,4.8c11.7-0.8,17-2,17.8,0
		s2,6.5-4.4,6.1c-6.5-0.4-21.4,2-31.1,0c-9.7-2-29.9-6.1-40.4-3.6c-10.5,2.4-19-3.2-19,0s-0.8,6.1,4.8,7.7
		c5.7,1.6,10.5,1.6,12.1,2.8c1.6,1.2-4.4,3.2-9.3,2.4c-4.8-0.8-8.9-4-11.3-7.3c-2.4-3.2-6.1-6.9-8.1-6.9s0.8-5.3,0.8-5.3
		L172.8,391.6z"/>
	<path d="M286.3,417.5c1.6,0,25-6.5,32.7-9.3s22.6-8.9,22.6-8.9s-13.7,10.1-21,12.9s-11.3,9.7-16.2,10.1
		C299.6,422.7,286.3,417.5,286.3,417.5z"/>
	<path d="M426,393.6c0,0,4.4-3.6-2-5.7c-6.5-2-7.3-1.6-10.5-0.4s-10.5,5.7-21,4.4c-10.5-1.2-18.2-1.6-25-2c-6.9-0.4-26.7,4-35.9,5.2
		c-9.3,1.2-19,4.4-19,4.4s-4.8-1.6-2-4.8c2.8-3.2,33.5-23.4,38-26.3c4.4-2.8,33.9-20.2,37.6-25.4c3.6-5.3,10.9-23.8,12.5-23.8
		s5.2,2,9.3,6.9c4,4.8,11.3,7.3,11.3,7.3l3.6-2.4l2-5.7c0,0-2.8,6.1-4.8,2.8c-2-3.2-7.3-10.9-7.7-14.5c-0.4-3.6-13.3-38.4-13.3-45.2
		c0-6.9-6.5-52.1-7.7-56.1s-4.8-35.5-5.3-43.6c-0.4-8.1,2-22.6,3.2-25.4c1.2-2.8-0.8,40.8,4.4,52.5c5.3,11.7,5.3,11.7,5.3,11.7
		s0-8.5,0-12.1s2-9.3,2-9.3s-0.8,30.7,0,35.5s4.8,17,6.1,19.8c1.2,2.8,2.8,5.3,2.8,5.3s3.6-8.1,4-16.2c0.4-8.1,2.4-19,2.8-25.4
		c0.4-6.5,2-15.8,3.6-19s3.6-12.9,5.3-16.6c1.6-3.6,4-13.3,6.5-13.3s8.1-1.6,8.1-1.6s2.8-19,0.8-32.3c0,0,6.1,23.4,1.6,36.4
		c0,0,4-1.6,2,6.9s-6.9,19.4-8.5,22.2s-6.9,7.3-7.3,9.7s0,4.8-2,7.7c-2,2.8-3.2,8.1-4,10.1s-2.4,11.3-2.4,13.7s-4.8,9.3-5.7,12.9
		c-0.8,3.6-1.6,10.1-2.4,14.9c-0.8,4.8,0.8,8.9,0.8,8.9s0.4-3.6,5.7-5.7c5.3-2,8.5-2.8,6.9,0s-4.4,8.9-5.7,10.5
		c-1.2,1.6-5.7,4.8-5.7,7.3c0,2.4-0.4,6.9,2,8.1s5.3,3.2,5.3,3.2l4,9.3l2,12.1l-1.2,8.1l-5.2,21l6.1,14.1l5.7,14.1v9.7l-1.6,8.9
		L426,393.6z"/>
	<path d="M392.9,106c0,0-4.4,11.3-1.6,29.9c0,0,1.2-22.2,3.2-23s2-0.8,2-0.8L392.9,106z"/>
	<path d="M455.1,139.6c0,0-2,27.1-8.1,36.8s-11.3,13.3-12.1,17c-0.8,3.6-0.8,6.5-0.8,6.5s14.9-8.5,18.6-17.8
		c3.6-9.3,7.7-18.6,6.5-25.4c-1.2-6.9-1.6-14.1-1.6-14.1L455.1,139.6z"/>
	<path d="M466,160.2c0,0-5.7,26.7-16.6,38S432,210.3,432,210.3s17-2,21-8.5s11.3-17.4,11.7-23C465.2,173.1,466,160.2,466,160.2z"/>
	<path d="M415.1,251.9c0,0,9.3-10.5,14.5-14.1c5.3-3.6,10.1-2.8,12.5-8.1s8.5-12.1,6.1-12.1s-11.7,7.3-13.7,9.7s-10.9,3.2-14.9,9.7
		C415.5,243.4,415.1,251.9,415.1,251.9z"/>
	<path d="M423.2,274.1c3.2-0.8,13.3-3.6,18.2-8.1c4.8-4.4,9.3-9.7,3.2-7.3c-6.1,2.4-13.7,3.6-16.2,6.9
		C426,268.8,423.2,274.1,423.2,274.1z"/>
	<path d="M443.8,250.2c6.1-4.8,14.1-12.5,17.8-18.2c3.6-5.7,12.9-20.2,12.9-20.2s-1.6-1.2-6.9,4s-14.5,7.7-20.2,19.8
		s-6.9,15.8-6.9,15.8L443.8,250.2z"/>
	<path d="M481.7,228.4c0.4,1.6-9.7,20.2-14.1,25.4c-4.4,5.3-18.6,12.5-19.8,15.8c-1.2,3.2-6.5,12.5-0.4,9.7s12.9-8.9,16.2-11.3
		c3.2-2.4,8.5-4.4,8.5-4.4l-7.3,1.2c0,0,2-4,6.5-8.9c4.4-4.8,8.5-8.1,9.3-13.7C481.3,236.5,481.7,228.4,481.7,228.4z"/>
	<path d="M495.9,249.8c0,0-9.3,33.5-11.7,39.2c-2.4,5.7-8.1,14.9-8.9,16.2c-0.8,1.2,1.6,0,5.7-5.2c4-5.3,9.7-14.1,11.7-15.8
		c2-1.6,3.2-3.6,6.9-1.6c3.6,2,5.7,1.6,5.7,1.6l-4.4-15.3l-1-12.2L495.9,249.8z"/>
	<path d="M416.3,285.8c0,0,8.9,1.2,14.5,0c5.7-1.2,6.1-0.8,4.8,3.2c-1.2,4-5.7,12.9-5.7,12.9l-5.5-8.7L416.3,285.8z"/>
	<path d="M450.6,287.4c-4.8,1.6-8.9,3.6-10.9,8.5c-2,4.8-6.1,11.3-3.2,11.7c2.8,0.4,7.7-2,10.9-1.2c3.2,0.8,8.1,2.8,11.7-1.6
		s9.3-16.2,9.3-18.6s-0.8-8.9-2-6.1s-7.7,10.1-8.9,13.3c-1.2,3.2-3.2,10.1-5.7,10.1c-2.4,0-6.5,1.2-8.5,0.8c-2-0.4-4.8-2-1.6-4.8
		c3.2-2.8,5.7-3.6,7.3-6.1C450.6,291,450.6,287.4,450.6,287.4z"/>
	<path d="M434.9,315.3c2.8,0.8,7.3,0.4,8.5,1.2c1.2,0.8,2.8,3.2,1.6,6.1c-1.2,2.8-6.7,5.8-6.7,5.8l1.5-4.2L434.9,315.3z"/>
	<path d="M439.7,336.7c0,0,11.3-19,19-21.4s13.7-1.2,18.2,1.2c4.4,2.4,7.3,4,7.3,4s-11.3,3.2-12.5,3.6s-5.7,4.8-5.7,4.8
		s-2-4.8,0.4-6.5c2.4-1.6,5.7-3.2,5.7-3.2s-7.3-2.4-9.7,0.8c-2.4,3.2-8.5,8.9-9.7,11.3s-1.2,8.5-4,8.9s-6.9,1.2-8.1,0
		S439.7,336.7,439.7,336.7z"/>
	<path d="M501.1,320.5c0,0-3.2,8.5-6.1,12.9c-2.8,4.4-7.7,9.3-7.7,9.3s7.7,1.2,8.5,4s2,4.4-2,6.9c-4,2.4-15.3,4.4-15.3,4.4
		s4,2.4,10.5,0s13.7-6.5,13.7-6.5l6.9-0.8l-4-11.7l-0.8-11.7L501.1,320.5z"/>
	<path d="M438.5,361.3c0,0,9.3,4,14.1,5.7c4.8,1.6,12.9,1.2,12.5,3.2s-0.4,4.8-4,4.4s-10.5-2-13.3-1.2s-7.7,1.2-8.9,3.6
		c-1.2,2.4,0.8-5.7,0.8-5.7L438.5,361.3z"/>
	<path d="M500.3,369.4c0,0-4.4,4.4-15.8,6.5c-11.3,2-29.1,4.4-34.7,6.9c-5.7,2.4-10.1,5.3-10.1,5.3s11.3,5.3,16.2,8.5
		c4.8,3.2,11.7,7.3,14.5,8.5s-6.1,4.4-6.1,4.4s-12.9-3.2-16.6-6.1c-3.6-2.8-8.1-6.5-8.1-6.5s12.5,11.3,16.2,13.3
		c3.6,2,6.1,0.8,7.7,4.4s2.4,13.3,0,15.8c-2.4,2.4-5.2,8.9-10.9,8.9c-5.7,0-10.9-0.4-10.9-0.4s10.9,6.1,15.3,7.3
		c4.4,1.2,7.3,4,7.3,4s2,3.6-2.4,5.3c-4.4,1.6-12.5,2.8-17.8,2.4c-5.2-0.4-3.6,2,0.4,2s14.9-0.4,14.9-0.4l0.4,6.1l-14.5-0.8
		c0,0,8.5,4.8,10.9,4.8s2.4,3.2,0,4s-7.3,3.6-2.4,4.4c4.8,0.8,8.5,1.2,9.7,3.2s4.8,4.4,4.8,4.4l2.8-3.2l3.6-3.6c0,0,3.2-2.1,5.3-3.6
		c2-1.5,4.7-4.6,4.7-4.6l-1.8-17.2l-0.8-16.6l12.5-34.7l4-14.5l1.6-9.7l1.6-5.3L500.3,369.4z"/>
	<path d="M165.5,381.9c0,0,0.8-12.9,8.1-22.6s14.9-23,17.8-30.7c2.8-7.7,15.3-42.4,14.9-58.2c-0.4-15.8,9.3-65.8,12.5-72.3
		s6.5-18.2,6.5-23.4c0-5.3-19.4,69.1-19.8,76.3c-0.4,7.3-4,20.2-5.7,25.4c-1.6,5.2-7.3,7.7-14.5,13.3c-7.3,5.7-14.9,12.5-15.3,13.7
		c-0.4,1.2-2.8,5.3-2.8,5.3s-1.6,15.8-1.2,18.6c0.4,2.8-1.2,13.7-2.4,15.8c-1.2,2-2,2-2.8,8.5s-0.8,5.3-0.4,11.3
		c0.4,6.1-0.6,13,0.8,14.9C162.4,379.9,165.5,381.9,165.5,381.9z"/>
	<path d="M176,171.1c1.6-1.2,3.2-4.4,3.6-1.6c0.4,2.8,2.4,6.5,2.4,12.9c0,6.5,3.6,25,2,29.9c-1.6,4.8-0.4,4.8-4.4,18.6
		c-4,13.7-5.7,22.6-2.4,25c3.2,2.4,4,0.8,8.1-7.7c4-8.5,6.1-41.2,4.8-47.7c-1.2-6.5-2.4-25-1.6-30.7c0.8-5.7,0.4-13.3,0.4-14.9
		c0-1.6-0.4-6.5-0.4-6.5l-4.8,11.3c0,0-3.2,4.4-4,5.7C178.8,166.6,176,171.1,176,171.1z"/>
	<path d="M219.2,109.7c0,0,0.2,0.2,0.6,0.6c1.6,1.6,5.8,6.1,7.1,7.1c1.6,1.2,9.3,3.6,11.7,6.5c2.4,2.8,16.6,8.9,19.4,11.7
		s9.3,2,12.5,8.1s8.5,9.7,10.9,10.5s10.9,4.4,14.5,5.7c3.6,1.2,9.7,4.4,13.7,2s8.5-5.3,12.5-10.9c4-5.7,2.8-7.7,8.5-11.3
		s14.9-12.5,21.4-14.9s10.9-5.3,14.1-9.3s5.7-7.3,6.9-8.9c1.2-1.6,6.9-2.8,7.3-4s0-5.3,0-5.3l-5.7,3.2l-17.4,10.9
		c0,0-10.1,6.1-13.3,8.1c-3.2,2-9.7,2.8-12.5,4s-17.8,8.9-19.4,8.9s-6.5,1.6-11.7,2.4c-5.3,0.8-17.8,1.2-24.2,1.2
		c-6.5,0-12.5-2.4-17.8-4.8c-5.2-2.4-24.6-11.3-25.9-12.9C231.3,116.6,219.2,109.7,219.2,109.7z"/>
	<path d="M165.1,283.4c0,0,2-19.8,2.8-27.9c0.8-8.1,0-38.4-0.4-42.8c-0.4-4.4-2.8-17-2.8-17s-4.4-18.2-4.8-21.8
		c-0.4-3.6-3.2-10.5-4.4-10.9s-5.2,1.2-5.2,2.8s0.4,10.5,0.4,10.5l-1.6-17.8c0,0-2-4.8-4-2.8s-1.6,17-1.6,17s6.5,10.5,7.3,12.1
		s4.4,12.5,4.4,12.5l1.2-8.9c0,0,3.2,3.6,5.3,7.7c2,4,4,18.6,3.6,19.8s-1.6,7.3-4,3.2c-2.4-4-4.4-6.5-5.3-3.2
		c-0.8,3.2,4.8,8.5,6.1,11.7c1.2,3.2,3.6,4.4,2.8,8.1c-0.8,3.6-3.2,6.9-3.2,10.5s2,8.9,1.6,10.1c-0.4,1.2,2.4,4-4.8,2
		c-7.3-2-13.3-0.8-14.9,0.8c-1.6,1.6-7.3,4-2.4,8.1c4.8,4,8.9,5.7,12.1,7.7c3.2,2,6.1,2.4,8.5,5.2
		C163.9,283,165.1,283.4,165.1,283.4z"/>
	<path d="M157.8,233.3c0,0-6.5-12.5-12.9-16.6c-6.5-4-12.9-8.5-17.4-8.9s-8.5-0.4-8.5-0.4s6.1,4,10.9,8.9
		c4.8,4.8,12.9,9.7,16.2,14.1c3.2,4.4,4,8.9,7.7,9.3C157.4,240.2,157.8,233.3,157.8,233.3z"/>
	<path d="M114.2,255.1c0,0,13.3,14.9,19.8,17.8c6.5,2.8,8.9,4.4,12.1,5.7c3.2,1.2,10.9,0.8,10.5,3.6c-0.4,2.8,3.6,0.8,4.8,2.8
		s3.6,4.8,3.6,4.8l-2.4,14.5l-4.8,14.5c0,0-1.6,7.3-1.6,8.5s-1.2,11.3-1.2,11.3l-4.8,9.3l1.2,9.3l2.4,9.3l-0.9,4.9l2.5,6
		c0,0-0.4,4.4,0,5.7c0.4,1.2,3.6,3.6,3.6,3.6l1.6,7.3l1.2,11.7c0,0,1.6,8.9,2,10.1s2.4,6.9,2.4,6.9l2.8,10.1l-0.8,11.3
		c0,0-1.6,4-2,5.2s-0.8,6.1-2,8.1s-0.4-2.4-2.4-2.4s-2.8-1.2-4.8,0s-12.1,5.7-14.5,7.3c-2.4,1.6-7.7,4-7.7,4l-6.5-4.8
		c0,0,1.2-2.8,3.6-3.2c2.4-0.4,8.9,0,8.9-3.2s5.3-8.1,0.8-5.3c-4.4,2.8-11.3,5.3-13.7,4.4s-6.1-2.4-6.1-2.4s14.9-6.9,18.6-10.5
		c3.6-3.6,7.7-8.9,7.7-11.7c0-2.8-10.9,2.8-14.1,6.9c-3.2,4-4.8,8.5-8.5,8.9c-3.6,0.4-7.7,0.4-7.7,0.4s-9.7-12.5-7.3-14.1
		c2.4-1.6,11.3-2.8,12.9-3.6c1.6-0.8,9.3-12.1,9.3-12.1s-10.5,2-14.1,2s-9.7-1.2-9.7-1.2s10.1-5.7,14.1-7.3c4-1.6,5.2-2,11.7-2.4
		s10.9-0.8,10.1-2.8c-0.8-2-8.5-7.7-14.9-6.9c-6.5,0.8-16.2,3.6-20.6,2.8c-4.4-0.8-6.9-2-6.9-2s1.2-4,4.4-4.4
		c3.2-0.4,12.5-1.2,15.3-3.6s5.7-4.4,8.9-6.9c3.2-2.4,6.5-9.3,6.5-9.3s-3.6-0.8-11.7,0.8c-8.1,1.6-10.9,2-10.9,2l10.9,4.8
		c0,0-11.3-0.8-15.8-0.8c-4.4,0-6.5,1.2-9.3,2s-7.3-1.6-7.3-3.2s-3.8-9.8-2.5-9.9s12.6-1.8,14.2-1.8s-14.9-0.8-16.2-1.6
		c-1.2-0.8-3.6-5.7-3.6-5.7s6.9-2,10.9-4s8.9-2.4,16.6-2.8s22.6-5.3,25-8.5s9.3-9.7,8.9-12.1c-0.4-2.4-0.4-9.7-0.4-9.7
		s-8.5,0-12.1-2s-7.7-6.1-11.3-7.3c-3.6-1.2-15.3-3.6-15.3-3.6s16.6-6.5,19.8-8.1c3.2-1.6,0.8,0,7.7-3.6s8.5-3.6,12.9-5.2
		s8.5-4,8.5-4s-11.3,0.4-16.2-3.6c-4.8-4-11.3-10.5-15.8-14.1c-4.4-3.6-10.9-10.5-11.7-12.9C112.2,256.3,114.2,255.1,114.2,255.1z"
		/>
	<path d="M90,324.2c1.6,0,7.3-0.4,9.7,0c2.4,0.4,6.1,4.4,8.9,7.3c2.8,2.8,3.6,6.9,11.3,6.1s8.1-0.8,9.3-2s0.4,2-6.5-2
		c-6.9-4-10.1-7.3-14.5-10.9s-8.1-5.3-11.3-4C93.6,319.7,90,324.2,90,324.2z"/>
	<path d="M93.7,291c0,0,7.9-3.1,13.2-1.9c5.3,1.2,2.4,3.6,11.3,4.8c8.9,1.2,13.7,1.6,13.7,1.6s-2.8-6.5-11.3-8.1s-11.3-3.2-16.2-1.6
		C99.6,287.4,93.7,291,93.7,291z"/>
	<path d="M85.3,339c0,0-1,4.9,3.8,6.5s6.1,3.6,6.1,3.6l-12.5-4L85.3,339z"/>
	<path d="M252.7,128.7c0,0,0-4.8,1.6-6.5c1.6-1.6,5.2-2.4,7.7-2c2.4,0.4,8.5,2,10.5,2.8s6.5,1.6,6.5,1.6s-2,0.8-8.1,2
		s-6.9,5.3-6.9,5.3L252.7,128.7z"/>
	<path d="M274.1,135.1c0,0,10.5-6.1,13.3-8.1c2.8-2,4-5.7,10.9-7.7s7.7-1.6,12.1-2s14.9,0.8,14.9,0.8s-2.8-1.2-1.2-4.8
		c1.6-3.6,7.3-9.7,9.3-9.3c2,0.4,8.1,1.6,14.9,1.2c6.9-0.4,7.3,0,10.5-2.8s4-6.1,8.1-6.1c4,0,10.5-1.2,10.5-1.2v2.4l-10.1,8.1
		l-6.5,4.4c0,0-7.3,4.4-8.5,5.3c-1.2,0.8-2.8,4.4-8.1,5.7c-5.3,1.2-8.1,1.2-10.1,2.8s-7.7,4-12.1,6.1c-4.4,2-5.3,1.6-9.7,3.6
		c-4.4,2-10.5,3.6-19,3.6C285,137.2,274.1,135.1,274.1,135.1z"/>
	<path d="M381.6,16c0,0-0.8,5.3,2.4,8.9c3.2,3.6,12.5,9.3,12.5,9.3l5.7,4c0,0-7.7-0.8-11.3,0c-3.6,0.8-1.6,3.6-10.1,5.7
		s-19.4,2-21,5.7c-1.6,3.6-2.4,10.1,4,10.1s19.4-4,19.4-2.4s-2.8,6.9-6.5,12.1c-3.6,5.2-10.1,15.3-10.5,17.8
		c-0.4,2.4,1.2,6.9,1.6,5.3s4.8-9.3,8.5-14.5c3.6-5.3,7.7-16.6,11.3-18.2c3.6-1.6,4.4-4,10.1-2.4s9.7,2,9.7,2s-2-11.7-2-14.1
		s-0.8-8.5,0.4-11.3c1.2-2.8,2.8-6.9,2-8.5s-8.5-3.6-10.5-4.8C395.3,19.2,381.6,16,381.6,16z"/>
	<path d="M236.2,79.4c0,0,14.1-3.2,21.4-4c7.3-0.8,10.9-4.8,20.2-5.3c9.3-0.4,10.1-3.2,16.2,0.4s9.7,6.9,14.1,8.5s12.9,2.8,12.9,2.8
		s-12.9-3.2-16.6-6.9c-3.6-3.6-6.5-7.7-11.7-8.9c-5.3-1.2-17.8,1.6-23.8,2.8c-6.1,1.2-18.2,3.6-25,5.3
		C237,75.8,236.2,79.4,236.2,79.4z"/>
	<path d="M274.9,53.9c0,0,5.2-1.6,9.3,0.4c4,2,10.5,4,15.8,7.3c5.3,3.2,12.9,10.5,17,11.3c4,0.8,3.6,6.9,14.1,7.3s17.8,0.8,19.8-0.4
		c2-1.2-1.6-3.2-8.9-7.3c-7.3-4-10.1-10.1-18.6-14.5s-19-11.3-19-11.3s10.1,10.1,12.1,10.9c2,0.8,8.1,3.6,10.9,6.1
		c2.8,2.4,6.9,6.1,6.9,6.1s5.3,4-0.4,4.4c-5.7,0.4-6.1,3.2-10.5,0s-17.8-10.9-21-13.3c-3.2-2.4-16.2-9.7-19-9.3
		C280.6,51.9,274.9,53.9,274.9,53.9z"/>
</g>
<g>
	<g>
		<path fill="none" stroke="#010101" stroke-width="6" d="M507.7,342.9c-2.3-3.4-1.5-2.3-2.3-7.6c-0.8-5.3-1.5-8-1.9-12.2
			s-3.4-7.2-1.1-11.1c2.3-3.8,4.6-4.6,4.6-10.3c0-5.7,0.8-16-2.7-22.1c-3.4-6.1-1.9-16.8-4.6-22.9c-2.7-6.1-5.7-32-6.9-38.9
			c-1.1-6.9-16.4-45.8-21.4-56.1s-12.2-27.1-15.3-32.8c-3.1-5.7-14.5-16.4-18.3-21.4s-12.6-11.8-18.7-16.4s-8.8-8.4-11.8-9.5
			c-3.1-1.1-5.7-2.3-5.7-2.3s7.6-8.8,6.5-17.9c-1.1-9.2-3.1-21.7-1.9-25.2c1.1-3.4,2.7-4.6,2.7-6.9s-0.4-5-3.4-6.1
			c-3.1-1.1-6.5-0.4-11.1-3.4c-4.6-3.1-12.6-4.6-13.7-5.3c-1.1-0.8-8.8,2.7-13.7,3.1c-5,0.4-9.9-1.5-11.4,1.1c-1.5,2.7-4.2,5-4.2,5
			s-1.5-3.8-7.2-5c-5.7-1.1-7.6,0-15.3,0c-7.6,0-13.7,0.4-19.1-1.9c-5.3-2.3-6.1-4.6-12.6-4.6s-18.3,0-27.9,0S257,14,251.7,12.8
			c-5.3-1.1-5.3-1.1-5.3-1.1s-11.4-5-23.7-4.6c-12.2,0.4-17.5-1.5-21,1.1c-3.4,2.7-6.5,16.8-6.9,22.9s-1.1,12.2,0,15.6
			c1.1,3.4,0.8,5.3,0.8,5.3s-2.7,2.7-3.4,5c-0.8,2.3-2.7,10.3-3.1,13.4c-0.4,3.1-0.4,5.7-0.4,5.7s-9.9,8-18.7,8.4s-9.9,3.8-13.4,6.5
			c-3.4,2.7-21,30.5-24.4,35.5c-3.4,5-6.9,13-8,16.4s-9.5,37.8-12.2,43.5S99.8,220,98.3,226.1c-1.5,6.1-3.1,10.3-2.7,16.4
			c0.4,6.1-0.8,24.8-0.8,24.8s-3.1,7.6-2.7,11.8c0.4,4.2,1.5,11.8,1.5,11.8s-4.6,5.7-5.7,11.1c-1.1,5.3-0.4,8.4-2.3,11.1
			s-6.5,5.7-6.5,8.4c0,2.7,3.1,12.2,3.1,12.2l3.1,5.3c0,0-3.8,5-3.4,9.2s2.3,11.8,2.3,13.4c0,1.5-0.8,4.6,1.9,5.7
			c2.7,1.1,5,2.3,5,2.3s-0.8,7.3,2.3,12.2c3.1,5,3.4,5,5.7,9.5c2.3,4.6,3.4,8.4,3.4,12.6s0.4,7.6,2.7,9.9c2.3,2.3,4.6,6.1,4.2,8.4
			s0,9.9,1.5,13s5,8.4,5.7,9.9c0.8,1.5,1.9,5.7,3.1,8c1.1,2.3,1.9,6.1,3.8,8.4s6.9,5,8.4,5.7c1.5,0.8,1.1,1.1,2.7,6.1
			c1.5,5,5.3,13.4,7.6,16.4c2.3,3.1,4.2,8,7.2,13c3.1,5,5.3,8.4,6.1,7.3s6.1-9.5,8-14.1s5.7-9.5,5.7-9.5s0,1.9,30.1,4.2
			s122.5,3.1,122.5,3.1s48.5,0.8,70.6-5.3c22.1-6.1,27.5-8.4,27.5-8.4s8,23.3,8,24.4s-0.4,6.5,5,13.4c5.3,6.9,7.2,6.5,7.2,6.5
			s11.1-9.2,11.8-13c0.8-3.8,9.5-13.4,11.1-14.5c1.5-1.1,8-5,8-5s1.5-9.2,1.1-10.7s7.3-4.2,9.9-7.3c2.7-3.1,2.7-3.1,2.7-3.1
			s-2.3-18.7-2.3-23.7s0-6.1,1.1-9.5s7.6-23.3,9.2-26.7c1.5-3.4,6.5-17.5,6.1-24s1.1-9.5,1.9-11.8s2.3-3.8,2.3-6.5s0.4-4.6,2.3-6.5
			s5-3.4,5-6.9C510.4,351.6,510,346.3,507.7,342.9z M161.3,404.3c-0.4-1.9-1.9-11.4-1.5-14.9c0.4-3.4-1.1-3.1-3.1-3.8
			c-1.9-0.8-1.1-3.1-1.9-7.2c-0.8-4.2-0.4-5-1.9-6.9s0-5.7,0-9.2c0-3.4-2.3-8.4-2.3-12.6s3.1-6.9,4.2-9.2c1.1-2.3,1.9-6.1,1.9-7.6
			s-0.4-7.2-0.4-10.7c0-3.4,4.6-12.2,7.2-17.9c2.7-5.7,1.5-18.7,1.5-18.7s1.9,0.4,2.3,2.3c0.4,1.9-0.4,14.1-0.8,18.3
			c-0.4,4.2-1.9,20.2-2.7,26.3c-0.8,6.1-6.1,20.6-5,26.3c1.1,5.7,1.1,17.5,3.4,21c2.3,3.4,9.5,7.2,9.9,8.8c0.4,1.5-0.8,5.3-3.4,8.4
			c-2.7,3.1-3.1,3.4-4.6,7.3C162.8,408.1,161.7,406.2,161.3,404.3z M172.7,435.9c0,5-3.8,6.5-3.8,6.5s1.1-5.7,1.1-9.2
			c0-3.4,0.4-5.3-2.7-9.2c0,0,4.2,1.1,5,2.3C173.1,427.5,172.7,431,172.7,435.9z M435.2,381.4c-3.1,7.2,0,25.6,0,25.6
			s-5.3,6.1-6.1,9.5c-0.8,3.4-1.1,19.1-1.5,20.6s-2.7-21.4-2.3-22.5s1.1-2.3,0.4-6.5c-0.8-4.2-3.8-3.8-5.3-6.5s2.7-3.8,6.5-6.1
			c3.8-2.3,6.5-15.3,6.5-23.7c0-8.4-6.1-21.4-8.8-25.2c-2.7-3.8-1.5-6.1-1.1-10.3c0.4-4.2,4.2-19.5,4.2-25.9
			c0-6.5-3.1-17.2-3.1-17.2s2.3,2.3,3.4,3.8s3.1,10.3,3.1,12.2c0,1.9,3.1,9.2,6.9,12.6s0.4,3.8,0.4,6.5s-4.6,6.5-7.2,13.7
			c-2.7,7.3,4.6,16.8,6.5,19.5s2.3,4.2,2.7,7.2C440.6,371.8,438.3,374.1,435.2,381.4z"/>
	</g>
</g>
<g>
	<g>
		<g>
			<g>
				<path fill="#010101" d="M162,285.2c0,0,0.2-1.4,0.6-3.9c0.4-2.5,0.9-6,1.5-10.3c0.3-2.1,0.6-4.5,0.9-6.9c0.3-2.5,0.6-5,0.9-7.7
					c0.1-1.3,0.3-2.7,0.5-4.1c0.1-1.4,0.2-2.8,0.3-4.2c0.3-2.8,0.3-5.6,0.4-8.5c0-11.5-0.4-23-1.1-31.7c-0.1-2.2-0.4-4.1-0.6-5.9
					c-0.1-0.9-0.2-1.7-0.3-2.4c-0.1-0.8-0.2-1.4-0.4-2.1c-0.4-2.5-0.7-3.9-0.7-3.9s0.3,1.4,1,3.9c0.1,0.6,0.3,1.3,0.5,2
					c0.1,0.8,0.3,1.6,0.4,2.4c0.3,1.7,0.7,3.7,1,5.8c1.3,8.6,2.5,20.1,3.3,31.7c0.1,2.9,0.2,5.9,0.1,8.7c0,1.4,0,2.9-0.1,4.3
					c-0.1,1.4-0.1,2.8-0.2,4.1c-0.1,2.7-0.3,5.3-0.4,7.8c-0.1,2.5-0.3,4.8-0.5,7c-0.3,4.3-0.6,7.9-0.8,10.5c-0.2,2.5-0.4,4-0.4,4
					L162,285.2z"/>
			</g>
		</g>
	</g>
	<g>
		<g>
			<g>
				<path fill="#010101" d="M421.5,291.7L421.5,291.7c-0.2,0-0.3,0-0.5,0c-0.3,0-0.7,0-1.2,0s-1.1-0.1-1.9-0.3
					c-0.8-0.2-1.7-0.6-2.7-1.4c-0.5-0.4-0.9-0.9-1.3-1.5c-0.2-0.3-0.4-0.6-0.5-0.9c-0.1-0.2-0.1-0.3-0.2-0.5l-0.1-0.3
					c-0.2-0.8-0.5-1.6-0.8-2.5s-0.6-1.9-0.8-3.1c-0.1-0.6-0.2-1.2-0.3-1.9c0-0.7-0.1-1.5,0.2-2.6c0-0.2,0.2-0.6,0.3-0.9
					c0.1-0.3,0.4-0.6,0.6-0.9l0.2-0.2c2.6,2.8,0.7,0.8,1.3,1.4l0,0V276v-0.1c-0.1,0-0.1,0-0.2-0.1c-0.1,0-0.1,0-0.2,0
					s-0.2-0.1-0.3-0.1c-0.2,0-0.4,0-0.7-0.1h-0.2c-0.1,0-0.2,0-0.1,0l0,0c0,0,0,0,0-0.1s0-0.1,0-0.2c0-0.2-0.1-0.4-0.1-0.7
					c-0.2-1-0.6-2.2-1-3.3c-0.5-1.2-0.9-2.5-1.4-3.8c-0.2-0.7-0.5-1.4-0.7-2.2c-0.1-0.2-0.1-0.4-0.2-0.7c0-0.1,0-0.3-0.1-0.5v-0.2
					v-0.1c0-0.3,0-0.1,0-0.2v-0.1l0.1-1.1c0.1-1.4,0.4-2.9,0.6-4.4c0.1-0.8,0.2-1.5,0.4-2.3c0.1-0.7,0.3-1.5,0.4-2.2
					c0.3-1.5,0.5-3,1-4.6l0.6-2.3c0.2-0.7,0.5-1.4,0.7-2.1c0.4-1.4,0.8-2.9,1.3-4.4s1-3,1.9-4.5c0.2-0.4,0.5-0.7,0.9-1.1l0.7-0.8
					c0.2-0.3,0.3-0.5,0.5-0.8c0.2-0.2,0.3-0.6,0.4-0.9c0.5-1.2,1-2.6,1.2-3.9c0.1-0.7,0.2-1.3,0.3-2V226v-0.1v-0.1v-0.3l0.1-0.5
					c0-0.3,0.1-0.7,0.2-1.1c0.3-1.4,0.7-2.7,1-4c0.7-2.5,1.4-4.9,2.2-7.1c0.7-2.2,1.5-4.2,2.4-5.8s1.4-3.1,1.8-4.4
					c0.9-2.5,1.3-4,1.3-4s-0.3,1.5-1,4.1c-0.4,1.3-0.8,2.9-1.6,4.6c-0.1,0.2-0.2,0.4-0.3,0.7c-0.1,0.2-0.2,0.4-0.3,0.7
					c-0.1,0.2-0.2,0.4-0.3,0.7c-0.1,0.2-0.2,0.5-0.2,0.7c-0.2,0.5-0.3,1-0.5,1.5c-0.1,0.5-0.3,1.1-0.4,1.6c-0.6,2.2-1.2,4.6-1.7,7.1
					c-0.3,1.3-0.5,2.6-0.7,3.9c0,0.3-0.1,0.6-0.1,1l-0.1,1c0,0.8-0.1,1.5-0.2,2.3c-0.2,1.5-0.6,3-1.1,4.4c-0.2,0.4-0.2,0.7-0.5,1.1
					c-0.2,0.4-0.4,0.8-0.6,1.2l-0.3,0.4l-0.2,0.2l-0.1,0.1l0,0c0,0,0.1-0.1-0.1,0.1l0,0c-0.2,0.2-0.3,0.4-0.5,0.7
					c-0.6,1.1-1,2.5-1.4,3.9s-0.6,2.9-1,4.4c-0.2,0.8-0.4,1.6-0.6,2.3l-0.4,2.1c-0.3,1.4-0.5,2.9-0.7,4.4c-0.1,0.7-0.2,1.5-0.3,2.2
					c-0.1,0.7-0.1,1.4-0.2,2.1c-0.1,1.4-0.3,2.8-0.3,4.2v1.1v0.1c0,0,0,0.1,0-0.1l0,0l0,0l0,0c0,0.1,0,0.2,0.1,0.3
					c0.2,0.5,0.4,1.1,0.7,1.7c0.6,1.3,1.1,2.5,1.6,3.7s1,2.5,1.4,3.9c0.2,0.7,0.4,1.4,0.3,2.7c0,0.1,0,0.3-0.1,0.5l-0.1,0.3
					c0,0.1-0.1,0.3-0.2,0.5s-0.2,0.3-0.3,0.5l-0.1,0.1l0,0l0,0c-0.1,0.1,0.2-0.2-0.2,0.3c0,0,0,0,0.1,0c0.2-0.2,0.2-0.3,0.2-0.3
					s0,0.4,0.1,0.7c0,0.4,0.2,0.8,0.3,1.2c0.2,0.9,0.5,1.7,0.8,2.6s0.6,1.7,0.9,2.4c0,0.1,0.1,0.2,0.1,0.3l0,0c0,0,0,0.1,0.1,0.1
					c0,0,0.1,0,0.1,0.1c0.2,0.1,0.8,0.2,1.2,0.2c0.2,0,0.4,0,0.5,0s0.1,0,0.1,0l0,0L421.5,291.7z"/>
			</g>
		</g>
	</g>
	<path fill="none" stroke="#010101" stroke-width="4" d="M189.7,77.4c0,0-2.4,11.3,31.5,32.7s45.6,25,57.4,25s27.9-0.4,31.9-2.8
		c4-2.4,33.1-12.5,39.6-16.6c6.5-4,21.8-13.3,27.5-18.2c5.7-4.8,11.7-5.3,15.3-8.9c3.6-3.6,10.1-8.5,10.1-8.5"/>
	<g>
		<g>
			<g>
				<path fill="#010101" d="M289.9,133c0,0,0.6-7.5,1.6-18.8c0.3-2.8,0.5-5.9,0.8-9.1c0.2-1.6,0.4-3.3,0.6-5
					c0.1-0.8,0.2-1.7,0.3-2.6c0.1-0.9,0.2-1.7,0.4-2.6c0.5-3.5,1-7.1,1.4-10.8c0.5-3.7,0.9-7.4,1.3-11.2c0.2-1.9,0.4-3.8,0.6-5.6
					c0.1-1.9,0.3-3.7,0.4-5.6c0.1-1.9,0.4-3.8,0.7-5.6c0.3-1.8,0.7-3.6,1.1-5.3c0.8-3.5,1.5-6.8,2-10c0.4-3.2,0.8-6.2,0.1-9
					c-0.1-0.7-0.2-1.4-0.3-2.1c-0.1-0.7-0.1-1.3-0.2-2c-0.1-1.3-0.1-2.5-0.1-3.7c0-2.3,0.1-4.3,0.2-6c0.2-3.3,0.4-5.2,0.4-5.2
					s-0.2,1.9-0.3,5.2c0,1.6-0.1,3.7,0,5.9c0.1,1.1,0.1,2.4,0.2,3.6c0.1,0.6,0.1,1.3,0.2,2s0.2,1.3,0.4,2c0.7,2.8,0.5,6,0.1,9.2
					c-0.4,3.2-1.1,6.6-1.7,10.1c-0.3,1.7-0.7,3.5-1,5.3s-0.5,3.5-0.6,5.4s-0.2,3.7-0.3,5.6c-0.1,1.9-0.3,3.8-0.4,5.7
					c-0.3,3.8-0.6,7.5-1,11.2s-0.7,7.4-1.1,10.9c-0.1,0.9-0.2,1.7-0.3,2.6c-0.1,0.9-0.2,1.7-0.2,2.6c-0.2,1.7-0.3,3.3-0.4,4.9
					c-0.2,3.2-0.4,6.3-0.6,9.1c-0.7,11.3-1.1,18.8-1.1,18.8L289.9,133z"/>
			</g>
		</g>
	</g>
	<path fill="none" stroke="#010101" stroke-width="2" d="M382,95.2c0,0,11.7,10.9,12.5,13.3s3.2,6.1,4.8,9.3c1.6,3.2,7.7,2,7.7,7.3
		s1.2,13.7,2.4,16.2c1.2,2.4,3.2,2.8,1.6,5.7c-1.6,2.8-3.6,5.3-1.6,9.7s3.6,11.7,7.3,17c3.6,5.2,5.7,9.3,6.9,13.7
		c1.2,4.4,3.6,5.7,3.6,8.9"/>
	<path fill="none" stroke="#010101" stroke-width="2" d="M164.3,192.1c0,0,0-1.2,0.8-4.4s13.3-19.8,16.6-23.4
		c3.2-3.6,4.8-14.1,8.5-17.8c3.6-3.6,22.6-41.2,22.6-41.2"/>
	<path fill="none" stroke="#010101" stroke-width="2" d="M134,469.6c0,0,12.1-4.4,21-11.7s12.5-12.9,12.5-12.9"/>
	<path fill="none" stroke="#010101" stroke-width="2" d="M470.4,483.7c0,0-14.5,2.8-23.4-1.2S427.6,472,427.2,470s-1.6-2.8-1.6-2.8"
		/>
	<path fill="none" stroke="#010101" stroke-width="2" d="M174,427.6c0,0,45.6,15.8,118.8,12.1c73.1-3.6,130.9-31.1,130.9-31.1"/>
</g>
</svg>
