<?xml version="1.0" encoding="utf-8"?>
<!-- Generator: Adobe Illustrator 16.2.0, SVG Export Plug-In . SVG Version: 6.00 Build 0)  -->
<!DOCTYPE svg PUBLIC "-//W3C//DTD SVG 1.1//EN" "http://www.w3.org/Graphics/SVG/1.1/DTD/svg11.dtd">
<svg version="1.1" id="Layer_1" xmlns="http://www.w3.org/2000/svg" xmlns:xlink="http://www.w3.org/1999/xlink" x="0px" y="0px"
	 width="587px" height="543px" viewBox="0 0 587 543" enable-background="new 0 0 587 543" xml:space="preserve">
<style type="text/css">
	<![CDATA[
	 .bg {fill:#ffffff}
	]]>
</style>
<g>
	<g>
		<path class="bg" d="M511.435,351.258c-2.345-3.52-1.562-2.347-2.345-7.819s-1.563-8.209-1.955-12.51
			c-0.391-4.3-3.517-7.425-1.173-11.335c2.345-3.91,4.69-4.691,4.69-10.556c0-5.862,0.782-16.417-2.735-22.672
			c-3.519-6.256-1.955-17.2-4.691-23.454c-2.738-6.255-5.864-32.837-7.037-39.874c-1.172-7.037-16.809-46.907-21.892-57.461
			c-5.083-10.555-12.51-27.754-15.636-33.618c-3.128-5.864-14.855-16.809-18.764-21.891c-3.909-5.082-12.9-12.118-19.154-16.809
			s-8.991-8.6-12.118-9.772c-3.127-1.173-5.863-2.346-5.863-2.346s7.817-8.991,6.645-18.373c-1.173-9.38-3.127-22.28-1.955-25.799
			c1.174-3.519,2.736-4.69,2.736-7.037c0-2.345-0.39-5.083-3.517-6.254c-3.128-1.172-6.646-0.391-11.337-3.518
			c-4.689-3.127-12.9-4.691-14.073-5.473c-1.172-0.781-8.99,2.735-14.072,3.126c-5.081,0.39-10.163-1.564-11.727,1.173
			c-1.564,2.736-4.301,5.082-4.301,5.082s-1.562-3.909-7.426-5.082s-7.819,0-15.637,0c-7.818,0-14.072,0.391-19.546-1.954
			c-5.473-2.346-6.254-4.691-12.899-4.691c-6.645,0-18.765-0.002-28.536-0.002c-9.771,0-12.503,1.958-17.981,0.782
			c-5.479-1.175-5.479-1.175-5.479-1.175s-11.725-5.083-24.235-4.691c-12.509,0.391-17.981-1.563-21.5,1.173
			c-3.518,2.736-6.646,17.2-7.035,23.454c-0.39,6.254-1.173,12.508,0,16.027c1.172,3.519,0.781,5.473,0.781,5.473
			s-2.735,2.737-3.518,5.082s-2.736,10.555-3.127,13.682c-0.391,3.127-0.391,5.863-0.391,5.863s-10.164,8.209-19.155,8.6
			c-8.99,0.391-10.162,3.91-13.679,6.646c-3.52,2.736-21.502,31.274-25.02,36.356c-3.518,5.082-7.037,13.291-8.209,16.809
			s-9.775,38.7-12.511,44.563c-2.736,5.864-12.508,34.399-14.072,40.654c-1.564,6.255-3.127,10.554-2.736,16.81
			c0.392,6.255-0.781,25.409-0.781,25.409s-3.128,7.819-2.736,12.119c0.391,4.3,1.564,12.117,1.564,12.117
			s-4.692,5.863-5.864,11.337c-1.172,5.473-0.39,8.601-2.345,11.337c-1.955,2.735-6.645,5.864-6.645,8.6s3.126,12.508,3.126,12.508
			l3.127,5.473c0,0-3.908,5.082-3.518,9.382c0.391,4.301,2.346,12.12,2.346,13.683s-0.782,4.689,1.954,5.862
			s5.082,2.345,5.082,2.345s-0.78,7.429,2.347,12.51s3.518,5.081,5.863,9.772c2.345,4.69,3.519,8.6,3.519,12.899
			s0.391,7.817,2.736,10.164c2.346,2.347,4.69,6.255,4.3,8.601c-0.391,2.345,0,10.163,1.564,13.29
			c1.563,3.128,5.082,8.599,5.863,10.162c0.783,1.565,1.955,5.866,3.127,8.21c1.173,2.345,1.954,6.255,3.909,8.601
			s7.036,5.079,8.6,5.862c1.563,0.782,1.173,1.175,2.737,6.256c1.563,5.081,5.473,13.683,7.818,16.809
			c2.345,3.128,4.299,8.208,7.427,13.29c3.127,5.084,5.474,8.602,6.254,7.429c0.784-1.173,6.254-9.772,8.208-14.464
			c1.956-4.692,5.865-9.772,5.865-9.772s0.003,1.954,30.885,4.3c30.882,2.346,125.479,3.126,125.479,3.126
			s49.646,0.781,72.319-5.474c22.672-6.254,28.145-8.6,28.145-8.6s8.211,23.85,8.211,25.022c0,1.174-0.39,6.644,5.081,13.681
			c5.472,7.037,7.428,6.646,7.428,6.646s11.334-9.381,12.117-13.29c0.782-3.91,9.772-13.683,11.337-14.855
			c1.563-1.173,8.208-5.081,8.208-5.081s1.563-9.383,1.173-10.945s7.43-4.3,10.165-7.429c2.736-3.129,2.736-3.129,2.736-3.129
			s-2.346-19.152-2.346-24.234c0-5.083,0-6.254,1.172-9.772c1.174-3.52,7.82-23.846,9.383-27.364
			c1.563-3.519,6.646-17.981,6.254-24.626c-0.391-6.646,1.173-9.772,1.955-12.118c0.781-2.347,2.346-3.91,2.346-6.646
			c0-2.734,0.391-4.69,2.346-6.646c1.953-1.953,5.081-3.517,5.081-7.035S513.781,354.775,511.435,351.258z M156.498,414.188
			c-0.392-1.955-1.955-11.728-1.564-15.246c0.39-3.518-1.173-3.127-3.127-3.908c-1.955-0.781-1.173-3.127-1.954-7.427
			c-0.782-4.301-0.392-5.083-1.955-7.038c-1.564-1.953,0-5.861,0-9.38s-2.345-8.601-2.345-12.9c0-4.299,3.126-7.037,4.3-9.382
			c1.172-2.346,1.954-6.255,1.954-7.817c0-1.563-0.391-7.428-0.391-10.945c0-3.519,4.691-12.51,7.428-18.374
			c2.735-5.862,1.562-19.154,1.562-19.154s1.955,0.392,2.347,2.346c0.392,1.955-0.392,14.464-0.783,18.765
			c-0.392,4.302-1.955,20.718-2.736,26.972s-6.254,21.108-5.081,26.973c1.172,5.863,1.172,17.981,3.517,21.499
			c2.345,3.519,9.773,7.427,10.165,8.991c0.392,1.564-0.783,5.473-3.519,8.6c-2.736,3.127-3.125,3.52-4.69,7.428
			C158.06,418.096,156.889,416.141,156.498,414.188z M168.225,446.634c0,5.082-3.91,6.644-3.91,6.644s1.173-5.863,1.173-9.381
			c0-3.519,0.391-5.474-2.737-9.382c0,0,4.299,1.173,5.082,2.346C168.614,438.033,168.225,441.55,168.225,446.634z M437.167,390.734
			c-3.127,7.427,0,26.19,0,26.19s-5.473,6.255-6.255,9.772c-0.781,3.519-1.172,19.546-1.563,21.11s-2.737-21.891-2.346-23.064
			c0.391-1.173,1.173-2.346,0.391-6.645c-0.781-4.301-3.908-3.909-5.472-6.646c-1.563-2.736,2.735-3.908,6.645-6.254
			c3.91-2.345,6.646-15.636,6.646-24.236s-6.256-21.89-8.991-25.8c-2.736-3.909-1.564-6.255-1.174-10.554
			c0.393-4.299,4.301-19.937,4.301-26.581c0-6.646-3.127-17.592-3.127-17.592s2.345,2.346,3.519,3.91
			c1.172,1.563,3.127,10.556,3.127,12.51c0,1.953,3.127,9.38,7.035,12.899c3.909,3.519,0.392,3.908,0.392,6.646
			s-4.691,6.645-7.427,14.072c-2.736,7.429,4.689,17.2,6.646,19.936s2.344,4.299,2.736,7.427
			C442.64,380.962,440.294,383.309,437.167,390.734z"/>
	</g>
	<g>
		<path fill="none" stroke="#010101" stroke-width="3" d="M511.435,351.258c-2.345-3.52-1.562-2.347-2.345-7.819
			s-1.563-8.209-1.955-12.51c-0.391-4.3-3.517-7.425-1.173-11.335c2.345-3.91,4.69-4.691,4.69-10.556
			c0-5.862,0.782-16.417-2.735-22.672c-3.519-6.256-1.955-17.2-4.691-23.454c-2.738-6.255-5.864-32.837-7.037-39.874
			c-1.172-7.037-16.809-46.907-21.892-57.461c-5.083-10.555-12.51-27.754-15.636-33.618c-3.128-5.864-14.855-16.809-18.764-21.891
			c-3.909-5.082-12.9-12.118-19.154-16.809s-8.991-8.6-12.118-9.772c-3.127-1.173-5.863-2.346-5.863-2.346s7.817-8.991,6.645-18.373
			c-1.173-9.38-3.127-22.28-1.955-25.799c1.174-3.519,2.736-4.69,2.736-7.037c0-2.345-0.39-5.083-3.517-6.254
			c-3.128-1.172-6.646-0.391-11.337-3.518c-4.689-3.127-12.9-4.691-14.073-5.473c-1.172-0.781-8.99,2.735-14.072,3.126
			c-5.081,0.39-10.163-1.564-11.727,1.173c-1.564,2.736-4.301,5.082-4.301,5.082s-1.562-3.909-7.426-5.082s-7.819,0-15.637,0
			c-7.818,0-14.072,0.391-19.546-1.954c-5.473-2.346-6.254-4.691-12.899-4.691c-6.645,0-18.765-0.002-28.536-0.002
			c-9.771,0-12.503,1.958-17.981,0.782c-5.479-1.175-5.479-1.175-5.479-1.175s-11.725-5.083-24.235-4.691
			c-12.509,0.391-17.981-1.563-21.5,1.173c-3.518,2.736-6.646,17.2-7.035,23.454c-0.39,6.254-1.173,12.508,0,16.027
			c1.172,3.519,0.781,5.473,0.781,5.473s-2.735,2.737-3.518,5.082s-2.736,10.555-3.127,13.682c-0.391,3.127-0.391,5.863-0.391,5.863
			s-10.164,8.209-19.155,8.6c-8.99,0.391-10.162,3.91-13.679,6.646c-3.52,2.736-21.502,31.274-25.02,36.356
			c-3.518,5.082-7.037,13.291-8.209,16.809s-9.775,38.7-12.511,44.563c-2.736,5.864-12.508,34.399-14.072,40.654
			c-1.564,6.255-3.127,10.554-2.736,16.81c0.392,6.255-0.781,25.409-0.781,25.409s-3.128,7.819-2.736,12.119
			c0.391,4.3,1.564,12.117,1.564,12.117s-4.692,5.863-5.864,11.337c-1.172,5.473-0.39,8.601-2.345,11.337
			c-1.955,2.735-6.645,5.864-6.645,8.6s3.126,12.508,3.126,12.508l3.127,5.473c0,0-3.908,5.082-3.518,9.382
			c0.391,4.301,2.346,12.12,2.346,13.683s-0.782,4.689,1.954,5.862s5.082,2.345,5.082,2.345s-0.78,7.429,2.347,12.51
			s3.518,5.081,5.863,9.772c2.345,4.69,3.519,8.6,3.519,12.899s0.391,7.817,2.736,10.164c2.346,2.347,4.69,6.255,4.3,8.601
			c-0.391,2.345,0,10.163,1.564,13.29c1.563,3.128,5.082,8.599,5.863,10.162c0.783,1.565,1.955,5.866,3.127,8.21
			c1.173,2.345,1.954,6.255,3.909,8.601s7.036,5.079,8.6,5.862c1.563,0.782,1.173,1.175,2.737,6.256
			c1.563,5.081,5.473,13.683,7.818,16.809c2.345,3.128,4.299,8.208,7.427,13.29c3.127,5.084,5.474,8.602,6.254,7.429
			c0.784-1.173,6.254-9.772,8.208-14.464c1.956-4.692,5.865-9.772,5.865-9.772s0.003,1.954,30.885,4.3
			c30.882,2.346,125.479,3.126,125.479,3.126s49.646,0.781,72.319-5.474c22.672-6.254,28.145-8.6,28.145-8.6
			s8.211,23.85,8.211,25.022c0,1.174-0.39,6.644,5.081,13.681c5.472,7.037,7.428,6.646,7.428,6.646s11.334-9.381,12.117-13.29
			c0.782-3.91,9.772-13.683,11.337-14.855c1.563-1.173,8.208-5.081,8.208-5.081s1.563-9.383,1.173-10.945s7.43-4.3,10.165-7.429
			c2.736-3.129,2.736-3.129,2.736-3.129s-2.346-19.152-2.346-24.234c0-5.083,0-6.254,1.172-9.772
			c1.174-3.52,7.82-23.846,9.383-27.364c1.563-3.519,6.646-17.981,6.254-24.626c-0.391-6.646,1.173-9.772,1.955-12.118
			c0.781-2.347,2.346-3.91,2.346-6.646c0-2.734,0.391-4.69,2.346-6.646c1.953-1.953,5.081-3.517,5.081-7.035
			S513.781,354.775,511.435,351.258z M156.498,414.188c-0.392-1.955-1.955-11.728-1.564-15.246c0.39-3.518-1.173-3.127-3.127-3.908
			c-1.955-0.781-1.173-3.127-1.954-7.427c-0.782-4.301-0.392-5.083-1.955-7.038c-1.564-1.953,0-5.861,0-9.38
			s-2.345-8.601-2.345-12.9c0-4.299,3.126-7.037,4.3-9.382c1.172-2.346,1.954-6.255,1.954-7.817c0-1.563-0.391-7.428-0.391-10.945
			c0-3.519,4.691-12.51,7.428-18.374c2.735-5.862,1.562-19.154,1.562-19.154s1.955,0.392,2.347,2.346
			c0.392,1.955-0.392,14.464-0.783,18.765c-0.392,4.302-1.955,20.718-2.736,26.972s-6.254,21.108-5.081,26.973
			c1.172,5.863,1.172,17.981,3.517,21.499c2.345,3.519,9.773,7.427,10.165,8.991c0.392,1.564-0.783,5.473-3.519,8.6
			c-2.736,3.127-3.125,3.52-4.69,7.428C158.06,418.096,156.889,416.141,156.498,414.188z M168.225,446.634
			c0,5.082-3.91,6.644-3.91,6.644s1.173-5.863,1.173-9.381c0-3.519,0.391-5.474-2.737-9.382c0,0,4.299,1.173,5.082,2.346
			C168.614,438.033,168.225,441.55,168.225,446.634z M437.167,390.734c-3.127,7.427,0,26.19,0,26.19s-5.473,6.255-6.255,9.772
			c-0.781,3.519-1.172,19.546-1.563,21.11s-2.737-21.891-2.346-23.064c0.391-1.173,1.173-2.346,0.391-6.645
			c-0.781-4.301-3.908-3.909-5.472-6.646c-1.563-2.736,2.735-3.908,6.645-6.254c3.91-2.345,6.646-15.636,6.646-24.236
			s-6.256-21.89-8.991-25.8c-2.736-3.909-1.564-6.255-1.174-10.554c0.393-4.299,4.301-19.937,4.301-26.581
			c0-6.646-3.127-17.592-3.127-17.592s2.345,2.346,3.519,3.91c1.172,1.563,3.127,10.556,3.127,12.51
			c0,1.953,3.127,9.38,7.035,12.899c3.909,3.519,0.392,3.908,0.392,6.646s-4.691,6.645-7.427,14.072
			c-2.736,7.429,4.689,17.2,6.646,19.936s2.344,4.299,2.736,7.427C442.64,380.962,440.294,383.309,437.167,390.734z"/>
	</g>
</g>
<g>
	<path fill="#CFCCCC" d="M169.907,446.75c0,0,0.413,1.654,9.518,4.138s10.759,0.413,20.279,2.068
		c9.519,1.657,21.105,2.897,29.795,4.968c8.69,2.068,16.967,3.312,26.9,4.552c9.933,1.241,43.041,0.828,50.491-0.828
		c7.449-1.656,19.038-2.898,26.9-4.553c7.861-1.655,17.381-3.725,28.14-3.311c10.761,0.414,12.833-0.412,21.11,4.553
		c8.275,4.965,15.726,8.689,17.794,13.656c2.069,4.966,5.796,9.931,4.968,13.657c-0.828,3.725-2.483,12.002-2.483,12.002
		s7.034-4.139,13.654-4.968c6.623-0.828,6.209,1.655,6.209,1.655s3.727,14.071,4.553,16.555c0.827,2.483,3.725,12.829,3.725,12.829
		s5.382,7.037,6.209,8.691c0.827,1.655,4.576,4.521,4.576,4.521s14.875-17.761,15.702-19.418
		c0.826-1.655,12.413-12.416,13.655-14.071c1.242-1.654,2.897-7.036,2.897-7.036s-16.139,2.07-19.037,2.07
		c-2.896,0-4.966,1.24-9.932-2.07c-4.967-3.31-6.62-5.378-7.862-8.275c0,0-0.828-14.904-0.828-20.284c0-5.381-0.415-8.69,1.655-8.69
		c2.068,0,11.588,0.827,11.588,0.827s-9.107-7.448-12.004-7.863c-2.895-0.414-5.792-0.412-7.861-1.655
		c-2.068-1.242-2.896-5.794-2.896-5.794s-1.241-19.864-1.241-21.52s0.414-4.138,0.414-4.138s-83.188,33.521-138.641,31.864
		c-55.454-1.657-87.746-2.382-120.021-14.021L169.907,446.75z"/>
	<path fill="#CFCCCC" d="M168.249,401.215c0,0,7.448,0.414,15.727,0.414c8.276,0,8.276-2.068,17.381,0.414
		c9.105,2.483,11.174,2.069,24.417,4.139c13.243,2.068,15.727,5.794,27.727,4.966c12.002-0.828,17.382-2.068,18.21,0
		c0.828,2.069,2.069,6.621-4.552,6.208c-6.623-0.415-21.935,2.068-31.867,0c-9.931-2.069-30.624-6.208-41.384-3.725
		s-19.45-3.31-19.45,0s-0.827,6.207,4.966,7.861c5.793,1.656,10.758,1.657,12.415,2.898c1.656,1.241-4.553,3.311-9.519,2.482
		c-4.966-0.827-9.105-4.14-11.586-7.449c-2.483-3.31-6.208-7.034-8.276-7.034c-2.07,0,0.827-5.38,0.827-5.38L168.249,401.215z"/>
	<path fill="#CFCCCC" d="M284.542,427.701c1.654,0,25.657-6.622,33.519-9.519c7.863-2.898,23.175-9.105,23.175-9.105
		s-14.07,10.346-21.519,13.243c-7.449,2.897-11.59,9.934-16.555,10.346C298.197,433.079,284.542,427.701,284.542,427.701z"/>
	<path fill="#CFCCCC" d="M427.73,403.284c0,0,4.553-3.724-2.069-5.793c-6.621-2.07-7.448-1.655-10.76-0.415
		c-3.311,1.241-10.761,5.795-21.521,4.553c-10.76-1.243-18.622-1.655-25.658-2.068c-7.035-0.414-27.312,4.136-36.83,5.378
		c-9.52,1.243-19.452,4.553-19.452,4.553s-4.965-1.653-2.068-4.965c2.896-3.312,34.349-24.003,38.901-26.899
		c4.552-2.898,34.761-20.691,38.486-26.072c3.725-5.381,11.175-24.416,12.83-24.416s5.379,2.066,9.517,7.034
		c4.139,4.966,11.589,7.448,11.589,7.448l3.725-2.482l2.068-5.793c0,0-2.896,6.208-4.965,2.896
		c-2.068-3.311-7.45-11.175-7.864-14.898c-0.414-3.725-13.658-39.313-13.658-46.351c0-7.034-6.62-53.385-7.861-57.522
		c-1.243-4.139-4.968-36.417-5.382-44.695c-0.414-8.277,2.071-23.176,3.312-26.072s-0.829,41.797,4.552,53.799
		c5.38,12.001,5.38,12.001,5.38,12.001s0-8.69,0-12.415s2.069-9.519,2.069-9.519s-0.828,31.453,0,36.418
		c0.828,4.965,4.965,17.381,6.208,20.278c1.241,2.897,2.899,5.38,2.899,5.38s3.727-8.277,4.14-16.553
		c0.413-8.277,2.482-19.451,2.896-26.072c0.414-6.621,2.07-16.14,3.725-19.451c1.655-3.311,3.726-13.242,5.381-16.967
		c1.654-3.725,4.138-13.657,6.62-13.657c2.483,0,8.277-1.656,8.277-1.656s2.896-19.451,0.828-33.107c0,0,6.207,24.003,1.655,37.246
		c0,0,4.138-1.656,2.068,7.035c-2.068,8.69-7.036,19.865-8.69,22.762c-1.655,2.896-7.034,7.45-7.448,9.932s0,4.966-2.068,7.863
		c-2.069,2.896-3.313,8.276-4.141,10.345c-0.827,2.07-2.482,11.589-2.482,14.071s-4.967,9.519-5.793,13.244
		c-0.827,3.724-1.657,10.346-2.484,15.312c-0.825,4.966,0.829,9.104,0.829,9.104s0.412-3.724,5.793-5.793s8.69-2.897,7.036,0
		c-1.655,2.897-4.551,9.104-5.794,10.759c-1.242,1.655-5.794,4.967-5.794,7.448c0,2.484-0.415,7.037,2.069,8.278
		c2.482,1.241,5.38,3.312,5.38,3.312l4.142,9.52l2.027,12.406l-1.202,8.285l-5.378,21.52l6.208,14.484l5.793,14.486v9.932
		l-1.655,9.104L427.73,403.284z"/>
	<path fill="#CFCCCC" d="M393.797,108.63c0,0-4.554,11.587-1.657,30.624c0,0,1.243-22.761,3.313-23.589
		c2.068-0.828,2.068-0.828,2.068-0.828L393.797,108.63z"/>
	<path fill="#CFCCCC" d="M457.528,142.981c0,0-2.067,27.728-8.275,37.66c-6.209,9.932-11.59,13.656-12.416,17.381
		c-0.827,3.724-0.827,6.621-0.827,6.621s15.312-8.689,19.035-18.208c3.725-9.519,7.863-19.038,6.623-26.073
		c-1.242-7.035-1.655-14.484-1.655-14.484L457.528,142.981z"/>
	<path fill="#CFCCCC" d="M468.702,164.087c0,0-5.793,27.314-16.967,38.901c-11.173,11.587-17.794,12.416-17.794,12.416
		s17.38-2.07,21.519-8.691c4.139-6.622,11.586-17.795,12-23.589S468.702,164.087,468.702,164.087z"/>
	<path fill="#CFCCCC" d="M416.559,258.029c0,0,9.52-10.76,14.898-14.485c5.38-3.725,10.346-2.896,12.829-8.276
		c2.484-5.381,8.69-12.416,6.207-12.416c-2.482,0-12.002,7.449-14.071,9.932c-2.068,2.484-11.174,3.311-15.313,9.932
		C416.973,249.338,416.559,258.029,416.559,258.029z"/>
	<path fill="#CFCCCC" d="M424.836,280.789c3.31-0.826,13.655-3.724,18.622-8.275c4.967-4.553,9.519-9.932,3.313-7.45
		c-6.208,2.482-14.072,3.724-16.556,7.035C427.732,275.41,424.836,280.789,424.836,280.789z"/>
	<path fill="#CFCCCC" d="M445.94,256.373c6.208-4.966,14.485-12.829,18.21-18.623c3.724-5.793,13.242-20.692,13.242-20.692
		s-1.655-1.242-7.035,4.138c-5.379,5.38-14.899,7.863-20.692,20.279s-7.034,16.14-7.034,16.14L445.94,256.373z"/>
	<path fill="#CFCCCC" d="M484.843,234.026c0.413,1.655-9.933,20.691-14.485,26.071c-4.552,5.38-19.037,12.828-20.277,16.14
		c-1.241,3.312-6.623,12.829-0.415,9.931c6.208-2.895,13.244-9.103,16.554-11.586c3.311-2.483,8.691-4.553,8.691-4.553l-7.45,1.243
		c0,0,2.069-4.14,6.622-9.106c4.553-4.966,8.69-8.276,9.519-14.07C484.429,242.303,484.843,234.026,484.843,234.026z"/>
	<path fill="#CFCCCC" d="M499.326,255.963c0,0-9.517,34.348-12,40.142c-2.483,5.793-8.275,15.313-9.105,16.554
		c-0.828,1.241,1.655,0,5.795-5.379c4.138-5.382,9.933-14.486,12.001-16.141c2.069-1.656,3.311-3.725,7.035-1.656
		c3.725,2.069,5.794,1.656,5.794,1.656l-4.554-15.727l-1.066-12.501L499.326,255.963z"/>
	<path fill="#CFCCCC" d="M417.8,292.79c0,0,9.106,1.247,14.9,0.004c5.793-1.241,6.206-0.826,4.965,3.312
		c-1.241,4.139-5.794,13.243-5.794,13.243l-5.649-8.913L417.8,292.79z"/>
	<path fill="#CFCCCC" d="M452.977,294.451c-4.965,1.654-9.104,3.724-11.174,8.689c-2.068,4.968-6.207,11.587-3.31,12.001
		c2.896,0.414,7.863-2.067,11.174-1.241c3.31,0.827,8.274,2.898,12.001-1.654c3.725-4.553,9.519-16.555,9.519-19.037
		s-0.829-9.105-2.069-6.208c-1.241,2.898-7.863,10.346-9.104,13.658c-1.241,3.311-3.311,10.344-5.795,10.344
		c-2.482,0-6.62,1.242-8.689,0.828c-2.068-0.413-4.968-2.07-1.656-4.966s5.795-3.725,7.449-6.206
		C452.977,298.175,452.977,294.451,452.977,294.451z"/>
	<path fill="#CFCCCC" d="M436.838,323.007c2.896,0.825,7.449,0.412,8.69,1.24c1.242,0.828,2.896,3.31,1.655,6.207
		s-6.89,5.946-6.89,5.946l1.509-4.291L436.838,323.007z"/>
	<path fill="#CFCCCC" d="M441.803,344.938c0,0,11.59-19.45,19.451-21.932c7.863-2.484,14.07-1.243,18.622,1.24
		c4.553,2.482,7.45,4.138,7.45,4.138s-11.586,3.313-12.829,3.725c-1.242,0.414-5.795,4.966-5.795,4.966s-2.068-4.967,0.415-6.621
		c2.482-1.655,5.793-3.31,5.793-3.31s-7.448-2.485-9.932,0.826s-8.692,9.104-9.934,11.587c-1.24,2.484-1.241,8.691-4.137,9.105
		c-2.896,0.414-7.036,1.24-8.277,0S441.803,344.938,441.803,344.938z"/>
	<path fill="#CFCCCC" d="M504.707,328.385c0,0-3.31,8.69-6.208,13.242c-2.896,4.553-7.863,9.52-7.863,9.52s7.863,1.24,8.69,4.138
		c0.828,2.897,2.069,4.553-2.068,7.036s-15.727,4.553-15.727,4.553s4.14,2.482,10.762,0c6.621-2.483,14.069-6.622,14.069-6.622
		l7.035-0.828l-4.138-12l-0.828-12.003L504.707,328.385z"/>
	<path fill="#CFCCCC" d="M440.563,370.187c0,0,9.521,4.14,14.485,5.795s13.242,1.241,12.828,3.31s-0.413,4.965-4.139,4.553
		c-3.725-0.413-10.759-2.069-13.657-1.241c-2.896,0.828-7.863,1.241-9.104,3.725s0.829-5.793,0.829-5.793L440.563,370.187z"/>
	<path fill="#CFCCCC" d="M503.881,378.464c0,0-4.551,4.551-16.14,6.622c-11.587,2.07-29.795,4.553-35.59,7.035
		c-5.795,2.483-10.346,5.381-10.346,5.381s11.587,5.381,16.553,8.69c4.967,3.311,12.001,7.45,14.897,8.69
		c2.898,1.241-6.206,4.553-6.206,4.553s-13.242-3.31-16.967-6.207c-3.727-2.898-8.277-6.622-8.277-6.622
		s12.828,11.588,16.553,13.657c3.724,2.069,6.206,0.828,7.863,4.553c1.655,3.724,2.48,13.656,0,16.139
		c-2.482,2.482-5.378,9.104-11.173,9.104c-5.796,0-11.174-0.413-11.174-0.413s11.173,6.207,15.725,7.448
		c4.553,1.241,7.45,4.139,7.45,4.139s2.068,3.725-2.483,5.38c-4.553,1.655-12.831,2.896-18.21,2.481
		c-5.379-0.412-3.724,2.071,0.414,2.071s15.312-0.413,15.312-0.413l0.414,6.206l-14.897-0.828c0,0,8.69,4.967,11.174,4.967
		c2.484,0,2.484,3.31,0,4.139c-2.483,0.828-7.449,3.724-2.483,4.552c4.968,0.828,8.689,1.241,9.933,3.312
		c1.241,2.069,4.966,4.553,4.966,4.553l2.898-3.313l3.723-3.724c0,0,3.326-2.17,5.38-3.725c2.056-1.557,4.792-4.686,4.792-4.686
		l-1.894-17.661l-0.828-16.97l12.828-35.59l4.139-14.897l1.655-9.932l1.655-5.381L503.881,378.464z"/>
	<path fill="#CFCCCC" d="M160.803,391.295c0,0,0.828-13.241,8.277-23.175c7.45-9.933,15.313-23.59,18.209-31.451
		c2.896-7.862,15.727-43.454,15.313-59.593c-0.414-16.142,9.519-67.459,12.829-74.082c3.312-6.621,6.623-18.623,6.623-24.002
		c0-5.38-19.865,70.766-20.278,78.216c-0.414,7.449-4.139,20.692-5.793,26.073c-1.657,5.379-7.451,7.862-14.899,13.656
		c-7.448,5.794-15.312,12.829-15.727,14.069c-0.414,1.242-2.896,5.381-2.896,5.381s-1.654,16.14-1.241,19.036
		c0.412,2.897-1.241,14.071-2.483,16.141c-1.243,2.069-2.068,2.069-2.896,8.691c-0.829,6.621-0.829,5.38-0.415,11.587
		s-0.589,13.299,0.827,15.313S160.803,391.295,160.803,391.295z"/>
	<path fill="#CFCCCC" d="M171.562,175.266c1.655-1.241,3.311-4.553,3.726-1.655c0.414,2.896,2.481,6.621,2.481,13.242
		c0,6.622,3.725,25.659,2.07,30.625c-1.656,4.966-0.414,4.965-4.552,19.035c-4.138,14.072-5.794,23.176-2.485,25.66
		c3.312,2.482,4.14,0.827,8.278-7.864c4.138-8.689,6.208-42.211,4.965-48.832c-1.239-6.622-2.481-25.659-1.654-31.452
		c0.827-5.794,0.415-13.656,0.415-15.313c0-1.655-0.415-6.622-0.415-6.622l-4.966,11.587c0,0-3.311,4.552-4.138,5.794
		C174.459,170.713,171.562,175.266,171.562,175.266z"/>
	<path fill="#CFCCCC" d="M215.848,112.358c0,0,0.224,0.238,0.596,0.631c1.594,1.685,5.926,6.227,7.269,7.232
		c1.654,1.241,9.517,3.725,12.001,6.622c2.482,2.896,16.967,9.104,19.863,12.001c2.897,2.896,9.519,2.069,12.83,8.277
		c3.312,6.208,8.689,9.931,11.174,10.76c2.481,0.828,11.173,4.551,14.898,5.794c3.727,1.241,9.932,4.551,14.069,2.069
		c4.139-2.482,8.692-5.38,12.831-11.174c4.138-5.793,2.897-7.862,8.69-11.587c5.793-3.725,15.313-12.831,21.935-15.313
		c6.621-2.483,11.174-5.38,14.483-9.519c3.311-4.139,5.795-7.45,7.036-9.105c1.24-1.655,7.034-2.896,7.448-4.138
		c0.414-1.242,0-5.38,0-5.38l-5.793,3.31l-17.796,11.174c0,0-10.347,6.207-13.656,8.277c-3.311,2.07-9.932,2.897-12.829,4.139
		s-18.199,9.093-19.864,9.104c-1.665,0.011-6.622,1.655-12.001,2.483c-5.38,0.828-18.208,1.241-24.833,1.241
		c-6.62,0-12.828-2.482-18.207-4.965c-5.379-2.483-25.245-11.587-26.487-13.243C228.265,119.392,215.848,112.358,215.848,112.358z"
		/>
	<path fill="#CFCCCC" d="M160.391,290.315c0,0,2.069-20.28,2.896-28.556c0.829-8.276,0.001-39.314-0.413-43.866
		c-0.415-4.553-2.897-17.381-2.897-17.381s-4.552-18.623-4.967-22.348c-0.414-3.725-3.31-10.76-4.552-11.174
		c-1.241-0.414-5.379,1.242-5.379,2.897c0,1.656,0.415,10.761,0.415,10.761l-1.656-18.209c0,0-2.068-4.966-4.138-2.897
		c-2.07,2.069-1.656,17.381-1.656,17.381s6.621,10.761,7.45,12.416c0.827,1.655,4.551,12.829,4.551,12.829l1.242-9.104
		c0,0,3.31,3.724,5.38,7.863c2.068,4.139,4.139,19.037,3.724,20.278c-0.414,1.241-1.655,7.448-4.138,3.31
		c-2.484-4.138-4.553-6.621-5.381-3.31c-0.828,3.31,4.967,8.691,6.208,12c1.242,3.312,3.725,4.553,2.896,8.278
		c-0.828,3.723-3.31,7.035-3.31,10.759c0,3.725,2.069,9.105,1.655,10.346c-0.414,1.241,2.483,4.139-4.966,2.07
		c-7.449-2.07-13.658-0.827-15.312,0.827c-1.655,1.656-7.45,4.137-2.483,8.276s9.105,5.793,12.416,7.864
		c3.311,2.066,6.207,2.481,8.691,5.379C159.149,289.9,160.391,290.315,160.391,290.315z"/>
	<path fill="#CFCCCC" d="M152.943,238.999c0,0-6.622-12.829-13.243-16.968c-6.622-4.138-13.243-8.69-17.795-9.104
		c-4.552-0.414-8.69-0.414-8.69-0.414s6.207,4.139,11.173,9.104c4.967,4.966,13.243,9.934,16.554,14.485
		c3.311,4.552,4.138,9.104,7.863,9.519C152.529,246.035,152.943,238.999,152.943,238.999z"/>
	<path fill="#CFCCCC" d="M108.245,261.347c0,0,13.656,15.312,20.277,18.209c6.622,2.896,9.105,4.551,12.416,5.793
		c3.31,1.241,11.173,0.828,10.76,3.726c-0.414,2.896,3.725,0.825,4.966,2.896c1.241,2.067,3.724,4.965,3.724,4.965l-2.483,14.897
		l-4.965,14.9c0,0-1.656,7.445-1.656,8.688s-1.242,11.588-1.242,11.588l-4.966,9.519l1.241,9.517l2.484,9.52l-0.905,5.004
		l2.558,6.17c0,0-0.413,4.551,0,5.793c0.415,1.242,3.727,3.726,3.727,3.726l1.654,7.448l1.242,12.002c0,0,1.658,9.106,2.072,10.348
		c0.412,1.241,2.481,7.034,2.481,7.034l2.899,10.349l-0.829,11.588c0,0-1.657,4.138-2.07,5.379
		c-0.412,1.243-0.826,6.209-2.067,8.278c-1.242,2.07-0.414-2.482-2.484-2.482c-2.069,0-2.896-1.242-4.966,0
		c-2.069,1.24-12.415,5.791-14.898,7.447c-2.483,1.657-7.862,4.139-7.862,4.139l-6.622-4.965c0,0,1.241-2.898,3.724-3.312
		c2.483-0.415,9.104,0.001,9.104-3.31c0-3.312,5.381-8.278,0.828-5.381c-4.552,2.897-11.587,5.381-14.07,4.553
		c-2.483-0.828-6.208-2.483-6.208-2.483s15.311-7.036,19.037-10.76c3.725-3.725,7.863-9.106,7.863-12.002
		c0-2.896-11.174,2.896-14.485,7.035c-3.311,4.139-4.967,8.69-8.69,9.104c-3.725,0.414-7.864,0.414-7.864,0.414
		s-9.932-12.827-7.448-14.483c2.483-1.656,11.587-2.899,13.243-3.725c1.656-0.827,9.519-12.416,9.519-12.416
		s-10.76,2.069-14.485,2.069c-3.725,0-9.932-1.242-9.932-1.242s10.346-5.793,14.485-7.448c4.138-1.655,5.379-2.069,12.001-2.483
		s11.173-0.828,10.346-2.897s-8.69-7.862-15.312-7.035c-6.622,0.828-16.554,3.726-21.106,2.897s-7.035-2.069-7.035-2.069
		s1.24-4.14,4.551-4.554c3.311-0.414,12.828-1.241,15.726-3.725c2.897-2.482,5.794-4.552,9.104-7.036
		c3.311-2.482,6.622-9.519,6.622-9.519s-3.724-0.825-12.001,0.829c-8.278,1.655-11.175,2.069-11.175,2.069l11.175,4.966
		c0,0-11.587-0.828-16.14-0.828c-4.552,0-6.622,1.241-9.519,2.069c-2.897,0.828-7.449-1.653-7.449-3.31s-3.92-10.041-2.581-10.195
		c1.34-0.152,12.927-1.807,14.582-1.807c1.656,0-15.312-0.827-16.553-1.655c-1.242-0.828-3.725-5.795-3.725-5.795
		s7.035-2.069,11.174-4.138c4.139-2.069,9.104-2.481,16.967-2.896c7.863-0.413,23.175-5.382,25.658-8.691
		c2.483-3.311,9.519-9.932,9.105-12.415c-0.415-2.484-0.415-9.932-0.415-9.932s-8.691,0.002-12.416-2.069
		c-3.725-2.07-7.862-6.206-11.586-7.449c-3.725-1.242-15.726-3.725-15.726-3.725s16.967-6.621,20.277-8.276
		c3.311-1.656,0.827,0,7.862-3.726c7.037-3.725,8.691-3.724,13.244-5.378c4.552-1.657,8.691-4.139,8.691-4.139
		s-11.587,0.412-16.554-3.726c-4.966-4.139-11.587-10.763-16.139-14.487c-4.553-3.724-11.175-10.759-12.002-13.242
		C106.176,262.585,108.245,261.347,108.245,261.347z"/>
	<path fill="#CFCCCC" d="M83.415,332.112c1.656,0,7.449-0.413,9.932,0c2.483,0.412,6.208,4.551,9.105,7.448
		c2.896,2.896,3.723,7.033,11.587,6.206c7.862-0.825,8.277-0.828,9.518-2.068c1.242-1.241,0.415,2.068-6.622-2.069
		c-7.036-4.139-10.346-7.449-14.898-11.174c-4.552-3.724-8.277-5.38-11.587-4.138S83.415,332.112,83.415,332.112z"/>
	<path fill="#CFCCCC" d="M87.294,298.09c0,0,8.12-3.223,13.501-1.982c5.381,1.241,2.483,3.724,11.588,4.966
		c9.104,1.241,14.07,1.655,14.07,1.655s-2.896-6.621-11.587-8.277c-8.69-1.653-11.587-3.311-16.554-1.653
		C93.347,294.451,87.294,298.09,87.294,298.09z"/>
	<path fill="#CFCCCC" d="M78.694,347.344c0,0-1.073,5.048,3.894,6.703c4.966,1.655,6.208,3.724,6.208,3.724l-12.829-4.138
		L78.694,347.344z"/>
	<path fill="#CFCCCC" d="M250.195,131.806c0,0,0-4.965,1.655-6.621s5.378-2.482,7.862-2.069c2.484,0.414,8.693,2.069,10.76,2.896
		c2.07,0.828,6.623,1.656,6.623,1.656s-2.07,0.828-8.278,2.069c-6.207,1.241-7.035,5.38-7.035,5.38L250.195,131.806z"/>
	<path fill="#CFCCCC" d="M272.13,138.427c0,0,10.76-6.208,13.658-8.277c2.897-2.069,4.138-5.793,11.173-7.863
		c7.035-2.069,7.862-1.655,12.414-2.069c4.553-0.414,15.313,0.828,15.313,0.828s-2.896-1.241-1.24-4.965
		c1.654-3.725,7.449-9.934,9.519-9.519c2.068,0.414,8.276,1.656,15.312,1.242c7.036-0.414,7.45,0.001,10.76-2.896
		c3.311-2.897,4.139-6.208,8.276-6.208c4.139,0,10.76-1.241,10.76-1.241l-0.007,2.495l-10.338,8.265l-6.623,4.552
		c0,0-7.447,4.552-8.69,5.38c-1.242,0.828-2.896,4.551-8.275,5.793c-5.381,1.242-8.278,1.242-10.347,2.897
		c-2.07,1.655-7.863,4.138-12.415,6.207c-4.554,2.07-5.38,1.656-9.932,3.725s-10.761,3.724-19.452,3.724
		C283.304,140.496,272.13,138.427,272.13,138.427z"/>
	<path fill="#CFCCCC" d="M382.215,16.342c0,0-0.827,5.38,2.483,9.105c3.31,3.725,12.828,9.518,12.828,9.518l5.793,4.139
		c0,0-7.861-0.828-11.587,0c-3.725,0.827-1.656,3.724-10.347,5.793s-19.864,2.069-21.519,5.794
		c-1.655,3.725-2.483,10.346,4.138,10.346s19.865-4.139,19.865-2.483c0,1.656-2.898,7.036-6.622,12.416
		c-3.725,5.379-10.346,15.725-10.76,18.208c-0.414,2.483,1.241,7.036,1.654,5.38c0.414-1.656,4.965-9.519,8.691-14.899
		c3.726-5.38,7.864-16.967,11.587-18.623c3.725-1.655,4.552-4.139,10.347-2.483c5.794,1.656,9.933,2.069,9.933,2.069
		s-2.069-12.002-2.069-14.484s-0.826-8.69,0.415-11.587c1.24-2.897,2.896-7.035,2.068-8.69c-0.828-1.655-8.691-3.725-10.76-4.967
		C396.285,19.653,382.215,16.342,382.215,16.342z"/>
	<path fill="#CFCCCC" d="M233.229,81.315c0,0,14.485-3.31,21.933-4.139c7.448-0.828,11.173-4.967,20.691-5.38
		c9.519-0.414,10.347-3.311,16.555,0.415c6.207,3.724,9.93,7.035,14.483,8.69c4.553,1.655,13.244,2.897,13.244,2.897
		s-13.242-3.311-16.968-7.036c-3.725-3.725-6.622-7.863-12-9.104c-5.381-1.242-18.21,1.657-24.419,2.897
		c-6.206,1.241-18.62,3.725-25.658,5.38C234.057,77.59,233.229,81.315,233.229,81.315z"/>
	<path fill="#CFCCCC" d="M272.957,55.242c0,0,5.379-1.655,9.519,0.415c4.138,2.069,10.76,4.138,16.139,7.449
		c5.381,3.311,13.243,10.761,17.381,11.588c4.14,0.828,3.726,7.035,14.485,7.449c10.761,0.414,18.21,0.827,20.279-0.414
		c2.068-1.241-1.655-3.311-9.105-7.449c-7.449-4.139-10.349-10.346-19.037-14.897c-8.689-4.553-19.45-11.588-19.45-11.588
		s10.348,10.346,12.415,11.174c2.07,0.827,8.278,3.724,11.175,6.208c2.896,2.483,7.034,6.208,7.034,6.208s5.382,4.139-0.413,4.552
		c-5.794,0.414-6.21,3.311-10.761,0c-4.551-3.31-18.208-11.173-21.52-13.657s-16.554-9.931-19.45-9.518
		C278.752,53.173,272.957,55.242,272.957,55.242z"/>
</g>
<g>
	<g>
		<path fill="none" stroke="#010101" stroke-width="6" d="M511.435,351.258c-2.345-3.52-1.562-2.347-2.345-7.819
			s-1.563-8.209-1.955-12.51c-0.391-4.3-3.517-7.425-1.173-11.335c2.345-3.91,4.69-4.691,4.69-10.556
			c0-5.862,0.782-16.417-2.735-22.672c-3.519-6.256-1.955-17.2-4.691-23.456c-2.738-6.253-5.864-32.835-7.037-39.872
			c-1.172-7.035-16.809-46.907-21.892-57.461c-5.083-10.555-12.51-27.754-15.636-33.618c-3.128-5.864-14.855-16.809-18.764-21.891
			c-3.909-5.082-12.9-12.118-19.154-16.809s-8.991-8.6-12.118-9.772c-3.127-1.173-5.863-2.346-5.863-2.346s7.817-8.991,6.645-18.373
			c-1.173-9.38-3.127-22.28-1.955-25.799c1.174-3.519,2.736-4.69,2.736-7.037c0-2.345-0.39-5.083-3.517-6.254
			c-3.128-1.172-6.646-0.391-11.337-3.518c-4.689-3.127-12.9-4.691-14.073-5.473c-1.172-0.781-8.99,2.735-14.072,3.126
			c-5.081,0.39-10.163-1.564-11.727,1.173c-1.564,2.736-4.301,5.082-4.301,5.082s-1.562-3.909-7.426-5.082s-7.819,0-15.637,0
			c-7.818,0-14.072,0.391-19.546-1.954c-5.473-2.346-6.254-4.691-12.899-4.691c-6.645,0-18.765-0.002-28.536-0.002
			c-9.771,0-12.503,1.958-17.981,0.782c-5.479-1.175-5.479-1.175-5.479-1.175s-11.725-5.083-24.235-4.691
			c-12.509,0.391-17.981-1.563-21.5,1.173c-3.518,2.736-6.646,17.2-7.035,23.454c-0.39,6.254-1.173,12.508,0,16.027
			c1.172,3.519,0.781,5.473,0.781,5.473s-2.735,2.737-3.518,5.082s-2.736,10.555-3.127,13.682c-0.391,3.127-0.391,5.863-0.391,5.863
			s-10.164,8.209-19.155,8.6c-8.99,0.391-10.162,3.91-13.679,6.646c-3.52,2.736-21.502,31.274-25.02,36.356
			c-3.518,5.082-7.038,13.291-8.21,16.809s-9.775,38.7-12.511,44.563c-2.735,5.864-12.51,34.399-14.072,40.654
			c-1.562,6.256-3.128,10.554-2.737,16.81c0.392,6.254-0.78,25.408-0.78,25.408s-3.128,7.819-2.736,12.119
			c0.391,4.3,1.564,12.117,1.564,12.117s-4.692,5.863-5.864,11.337c-1.171,5.473-0.39,8.601-2.346,11.337
			c-1.954,2.735-6.646,5.864-6.646,8.6s3.129,12.508,3.129,12.508l3.125,5.473c0,0-3.909,5.082-3.518,9.382
			c0.392,4.301,2.346,12.12,2.346,13.683s-0.783,4.689,1.954,5.862s5.083,2.345,5.083,2.345s-0.78,7.429,2.345,12.51
			c3.129,5.081,3.519,5.081,5.864,9.772c2.345,4.69,3.519,8.6,3.519,12.899s0.392,7.817,2.737,10.164
			c2.345,2.347,4.689,6.255,4.3,8.601c-0.392,2.345,0,10.163,1.563,13.29c1.563,3.128,5.082,8.599,5.863,10.162
			c0.783,1.565,1.954,5.866,3.127,8.21c1.172,2.345,1.955,6.255,3.909,8.601c1.954,2.346,7.037,5.079,8.6,5.862
			c1.563,0.782,1.174,1.175,2.737,6.256c1.562,5.081,5.473,13.683,7.818,16.809c2.345,3.128,4.299,8.208,7.427,13.29
			c3.127,5.084,5.474,8.602,6.254,7.429c0.784-1.173,6.254-9.772,8.208-14.464c1.956-4.692,5.865-9.772,5.865-9.772
			s0.003,1.954,30.885,4.3c30.882,2.346,125.479,3.126,125.479,3.126s49.646,0.781,72.319-5.474c22.672-6.254,28.145-8.6,28.145-8.6
			s8.211,23.85,8.211,25.022c0,1.174-0.39,6.644,5.081,13.681c5.472,7.037,7.428,6.646,7.428,6.646s11.334-9.381,12.117-13.29
			c0.782-3.91,9.772-13.683,11.337-14.855c1.563-1.173,8.208-5.081,8.208-5.081s1.563-9.383,1.173-10.945s7.43-4.3,10.165-7.429
			c2.736-3.129,2.736-3.129,2.736-3.129s-2.346-19.152-2.346-24.234c0-5.083,0-6.254,1.172-9.772
			c1.174-3.52,7.82-23.846,9.383-27.364c1.563-3.519,6.646-17.981,6.254-24.626c-0.391-6.646,1.173-9.772,1.955-12.118
			c0.781-2.347,2.346-3.91,2.346-6.646c0-2.734,0.391-4.69,2.346-6.646c1.953-1.953,5.081-3.517,5.081-7.035
			S513.781,354.775,511.435,351.258z M156.498,414.188c-0.392-1.955-1.955-11.728-1.564-15.246c0.39-3.518-1.173-3.127-3.127-3.908
			s-1.173-3.127-1.954-7.427c-0.782-4.301-0.392-5.083-1.955-7.038c-1.564-1.953,0-5.861,0-9.38s-2.345-8.601-2.345-12.9
			c0-4.299,3.126-7.037,4.3-9.382c1.172-2.346,1.954-6.255,1.954-7.817c0-1.563-0.391-7.428-0.391-10.945
			c0-3.519,4.691-12.51,7.428-18.374c2.735-5.862,1.562-19.154,1.562-19.154s1.955,0.392,2.347,2.346
			c0.392,1.955-0.392,14.464-0.783,18.765c-0.392,4.302-1.955,20.718-2.736,26.972s-6.254,21.108-5.081,26.973
			c1.172,5.863,1.172,17.981,3.517,21.499c2.345,3.519,9.773,7.427,10.165,8.991c0.392,1.564-0.783,5.473-3.519,8.6
			c-2.736,3.127-3.125,3.52-4.69,7.428C158.06,418.096,156.889,416.141,156.498,414.188z M168.225,446.634
			c0,5.082-3.91,6.644-3.91,6.644s1.173-5.863,1.173-9.381c0-3.519,0.391-5.474-2.737-9.382c0,0,4.299,1.173,5.082,2.346
			C168.614,438.033,168.225,441.55,168.225,446.634z M437.167,390.734c-3.127,7.427,0,26.19,0,26.19s-5.473,6.255-6.255,9.772
			c-0.781,3.519-1.172,19.546-1.563,21.11s-2.737-21.891-2.346-23.064c0.391-1.173,1.173-2.346,0.391-6.645
			c-0.781-4.301-3.908-3.909-5.472-6.646c-1.563-2.736,2.735-3.908,6.645-6.254c3.91-2.345,6.646-15.636,6.646-24.236
			s-6.256-21.89-8.991-25.8c-2.736-3.909-1.564-6.255-1.174-10.554c0.393-4.299,4.301-19.937,4.301-26.581
			c0-6.646-3.127-17.592-3.127-17.592s2.345,2.346,3.519,3.91c1.172,1.563,3.127,10.556,3.127,12.51
			c0,1.953,3.127,9.38,7.035,12.899c3.909,3.519,0.392,3.908,0.392,6.646s-4.691,6.645-7.427,14.072
			c-2.736,7.429,4.689,17.2,6.646,19.936s2.344,4.299,2.736,7.427C442.64,380.962,440.294,383.309,437.167,390.734z"/>
	</g>
</g>
<g>
	<g>
		<g>
			<g>
				<path fill="#010101" d="M157.226,292.211c0,0,0.23-1.455,0.632-4.001c0.388-2.541,0.955-6.188,1.557-10.564
					c0.313-2.188,0.64-4.561,0.951-7.071c0.33-2.511,0.664-5.159,0.95-7.898c0.152-1.371,0.307-2.764,0.463-4.175
					c0.118-1.409,0.237-2.834,0.358-4.271c0.303-2.889,0.333-5.769,0.457-8.68c-0.022-11.794-0.418-23.612-1.146-32.435
					c-0.124-2.215-0.427-4.217-0.595-6.011c-0.098-0.895-0.189-1.732-0.273-2.507c-0.111-0.77-0.252-1.469-0.359-2.106
					c-0.449-2.548-0.706-4.005-0.706-4.005s0.355,1.437,0.976,3.95c0.15,0.631,0.34,1.326,0.504,2.09
					c0.137,0.769,0.285,1.6,0.443,2.489c0.291,1.78,0.732,3.781,1.005,5.985c1.329,8.798,2.528,20.597,3.353,32.438
					c0.082,3.001,0.248,6.039,0.14,8.96c-0.024,1.47-0.047,2.928-0.07,4.369c-0.061,1.434-0.122,2.85-0.181,4.243
					c-0.102,2.791-0.257,5.479-0.418,8.026c-0.142,2.551-0.308,4.958-0.475,7.178c-0.307,4.447-0.627,8.139-0.845,10.735
					c-0.231,2.59-0.363,4.069-0.363,4.069L157.226,292.211z"/>
			</g>
		</g>
	</g>
	<g>
		<g>
			<g>
				<path fill="#010101" d="M423.105,298.844c0,0-0.033,0.002-0.098,0.007c-0.084,0.005-0.209,0.012-0.374,0.021
					c-0.285,0.01-0.677,0.01-1.194-0.032c-0.517-0.041-1.159-0.127-1.949-0.354c-0.781-0.232-1.749-0.605-2.736-1.417
					c-0.485-0.4-0.97-0.921-1.34-1.528c-0.193-0.305-0.37-0.622-0.493-0.955c-0.065-0.167-0.131-0.336-0.197-0.507l-0.098-0.31
					c-0.243-0.794-0.506-1.652-0.786-2.568c-0.281-0.954-0.578-1.992-0.822-3.188c-0.117-0.606-0.236-1.227-0.289-1.967
					c-0.045-0.736-0.108-1.521,0.185-2.659c0.046-0.247,0.198-0.602,0.338-0.904c0.115-0.293,0.384-0.657,0.642-0.966l0.202-0.229
					c2.647,2.902,0.732,0.783,1.323,1.421l-0.003-0.037l-0.005-0.074c-0.014-0.047,0.018-0.105-0.033-0.143
					c-0.069-0.032-0.143-0.051-0.217-0.056c-0.076-0.013-0.14,0.016-0.223,0.005c-0.097-0.036-0.194-0.064-0.293-0.086
					c-0.189-0.038-0.38-0.048-0.677-0.095l-0.2-0.019c-0.058-0.004-0.167-0.009-0.136-0.005c0.001,0,0.007,0.016,0.005-0.001
					c0-0.021,0.002-0.042,0.005-0.063c0.003-0.053-0.004-0.142-0.009-0.227c-0.021-0.192-0.054-0.417-0.109-0.668
					c-0.214-1.008-0.61-2.203-1.044-3.423c-0.464-1.261-0.939-2.557-1.426-3.881c-0.246-0.699-0.495-1.386-0.72-2.254
					c-0.056-0.217-0.11-0.452-0.157-0.748c-0.022-0.147-0.046-0.29-0.055-0.518l-0.007-0.154l-0.002-0.077
					c0.006-0.266,0.004-0.093,0.006-0.161l0.016-0.135l0.121-1.088c0.134-1.438,0.377-2.974,0.623-4.521
					c0.121-0.771,0.243-1.546,0.365-2.326c0.146-0.76,0.294-1.524,0.441-2.291c0.301-1.534,0.554-3.064,1.01-4.662l0.619-2.37
					c0.232-0.743,0.463-1.422,0.673-2.166c0.431-1.474,0.838-2.999,1.315-4.525c0.498-1.528,1.007-3.07,1.947-4.599
					c0.255-0.382,0.534-0.761,0.894-1.124l0.677-0.791c0.199-0.277,0.305-0.519,0.474-0.775c0.165-0.227,0.294-0.607,0.443-0.902
					c0.558-1.273,0.993-2.649,1.262-4.018c0.136-0.683,0.239-1.363,0.282-2.001l0.009-0.142l0.011-0.067l0.021-0.133l0.041-0.266
					l0.083-0.53c0.041-0.345,0.15-0.724,0.227-1.082c0.321-1.478,0.703-2.778,1.051-4.091c0.75-2.593,1.484-5.031,2.256-7.258
					c0.72-2.212,1.556-4.297,2.495-5.949c0.874-1.659,1.423-3.215,1.871-4.508c0.885-2.582,1.285-4.094,1.285-4.095
					c0,0-0.303,1.533-1.022,4.176c-0.362,1.312-0.819,2.937-1.609,4.7c-0.104,0.221-0.209,0.445-0.315,0.672
					c-0.091,0.22-0.184,0.442-0.277,0.668c-0.095,0.225-0.189,0.452-0.286,0.683c-0.079,0.245-0.159,0.494-0.24,0.745
					c-0.16,0.504-0.323,1.021-0.491,1.55c-0.147,0.538-0.299,1.089-0.452,1.651c-0.621,2.246-1.193,4.713-1.77,7.32
					c-0.26,1.301-0.559,2.673-0.759,3.965c-0.049,0.334-0.13,0.642-0.149,1.008l-0.089,0.993c0,0.801-0.069,1.563-0.17,2.325
					c-0.201,1.521-0.567,3.032-1.119,4.556c-0.165,0.388-0.25,0.743-0.486,1.163c-0.213,0.396-0.438,0.845-0.667,1.194l-0.344,0.458
					l-0.172,0.229l-0.086,0.115l-0.021,0.029c-0.045,0.051,0.07-0.074-0.105,0.122l-0.03,0.041
					c-0.168,0.196-0.329,0.444-0.485,0.712c-0.607,1.137-1.021,2.585-1.384,4.038c-0.359,1.471-0.662,2.987-1.009,4.538
					c-0.164,0.773-0.382,1.59-0.567,2.349l-0.415,2.188c-0.314,1.419-0.474,2.964-0.668,4.464c-0.095,0.75-0.19,1.499-0.285,2.243
					c-0.067,0.732-0.135,1.46-0.201,2.184c-0.138,1.441-0.28,2.856-0.323,4.343l-0.051,1.091l-0.007,0.136
					c0.002-0.046-0.005,0.149,0.003-0.094l0.003-0.009l0.003-0.019c-0.004-0.046,0.005-0.011,0.014,0.02
					c0.017,0.06,0.048,0.176,0.093,0.304c0.168,0.515,0.438,1.158,0.701,1.771c0.569,1.288,1.126,2.549,1.669,3.775
					c0.544,1.277,1.07,2.531,1.483,3.972c0.186,0.755,0.421,1.447,0.354,2.728c-0.005,0.142-0.036,0.344-0.08,0.547l-0.068,0.295
					c-0.039,0.136-0.12,0.347-0.198,0.512c-0.082,0.175-0.177,0.344-0.28,0.501l-0.095,0.138l-0.032,0.046l-0.016,0.022
					c-0.11,0.128,0.225-0.254-0.252,0.293c0.023-0.015,0.046-0.031,0.067-0.05c0.174-0.191,0.199-0.307,0.211-0.294
					c0.001,0.001-0.002,0.386,0.063,0.758c0.05,0.377,0.164,0.83,0.278,1.264c0.24,0.884,0.555,1.779,0.868,2.632
					c0.334,0.885,0.646,1.712,0.936,2.477c0.034,0.088,0.075,0.212,0.104,0.267c0.016,0.015,0.027,0.029,0.037,0.045
					c0.009,0.042,0.036,0.052,0.052,0.063c0.026,0.033,0.054,0.037,0.1,0.061c0.162,0.107,0.806,0.251,1.226,0.231
					c0.212,0.002,0.383-0.011,0.475-0.022c0.063-0.006,0.056-0.009,0.054-0.01c0.031-0.004,0.047-0.007,0.047-0.007L423.105,298.844
					z"/>
			</g>
		</g>
	</g>
	<path fill="none" stroke="#010101" stroke-width="4" d="M185.628,79.261c0,0-2.481,11.587,32.28,33.521
		c34.763,21.933,46.765,25.658,58.766,25.658c12.001,0,28.554-0.414,32.692-2.897c4.139-2.483,33.937-12.831,40.559-16.968
		c6.621-4.139,22.346-13.657,28.141-18.623s12.002-5.38,15.726-9.104c3.725-3.725,10.346-8.69,10.346-8.69"/>
	<g>
		<g>
			<g>
				<path fill="#010101" d="M288.319,136.263c0,0,0.654-7.707,1.635-19.268c0.268-2.891,0.559-6.022,0.865-9.335
					c0.195-1.669,0.396-3.384,0.601-5.137c0.104-0.865,0.209-1.74,0.315-2.623c0.126-0.881,0.253-1.77,0.382-2.666
					c0.546-3.588,0.981-7.288,1.44-11.051c0.484-3.759,0.885-7.598,1.295-11.437c0.187-1.917,0.455-3.843,0.574-5.744
					c0.142-1.906,0.283-3.804,0.423-5.688c0.071-1.923,0.374-3.889,0.741-5.707c0.357-1.842,0.766-3.64,1.153-5.41
					c0.78-3.536,1.527-6.951,2.028-10.217c0.461-3.266,0.771-6.39,0.141-9.214c-0.112-0.716-0.224-1.417-0.332-2.102
					c-0.08-0.691-0.107-1.378-0.162-2.041c-0.125-1.329-0.111-2.583-0.136-3.763c-0.017-2.359,0.065-4.413,0.159-6.102
					c0.19-3.378,0.406-5.299,0.407-5.299c-0.001,0-0.167,1.927-0.27,5.305c-0.05,1.688-0.078,3.742-0.001,6.09
					c0.055,1.173,0.073,2.427,0.23,3.728c0.07,0.652,0.113,1.321,0.21,2.003c0.126,0.682,0.255,1.38,0.387,2.092
					c0.717,2.857,0.484,6.109,0.103,9.403c-0.421,3.313-1.083,6.764-1.772,10.322c-0.342,1.778-0.702,3.584-1.008,5.411
					c-0.318,1.846-0.55,3.624-0.576,5.509c-0.092,1.914-0.184,3.842-0.276,5.779c-0.072,1.944-0.29,3.855-0.428,5.789
					c-0.312,3.857-0.614,7.714-1.004,11.514c-0.363,3.8-0.708,7.546-1.159,11.137c-0.105,0.899-0.209,1.792-0.313,2.676
					c-0.104,0.935-0.164,1.761-0.247,2.632c-0.155,1.716-0.307,3.394-0.455,5.028c-0.22,3.309-0.429,6.437-0.621,9.324
					c-0.68,11.566-1.134,19.276-1.134,19.276L288.319,136.263z"/>
			</g>
		</g>
	</g>
	<path fill="none" stroke="#010101" stroke-width="2" d="M382.62,97.47c0,0,12.001,11.173,12.829,13.656
		c0.828,2.483,3.311,6.208,4.966,9.519s7.863,2.069,7.863,7.449s1.24,14.07,2.482,16.554c1.242,2.483,3.313,2.897,1.657,5.794
		c-1.657,2.896-3.727,5.38-1.657,9.932c2.068,4.552,3.726,12.001,7.45,17.381c3.723,5.379,5.794,9.518,7.035,14.07
		c1.24,4.552,3.724,5.794,3.724,9.104"/>
	<path fill="none" stroke="#010101" stroke-width="2" d="M159.558,196.792c0,0,0-1.241,0.827-4.553
		c0.827-3.311,13.657-20.277,16.968-24.002c3.31-3.725,4.965-14.485,8.69-18.209c3.725-3.725,23.175-42.211,23.175-42.211"/>
	<path fill="none" stroke="#010101" stroke-width="2" d="M128.519,481.1c0,0,12.415-4.55,21.52-11.999
		c9.105-7.45,12.829-13.244,12.829-13.244"/>
	<path fill="none" stroke="#010101" stroke-width="2" d="M473.251,495.586c0,0-14.901,2.896-24.004-1.241
		c-9.104-4.138-19.862-10.76-20.277-12.829c-0.413-2.068-1.656-2.897-1.656-2.897"/>
	<path fill="none" stroke="#010101" stroke-width="2" d="M169.491,438.059c0,0,46.767,16.141,121.673,12.415
		c74.905-3.726,134.084-31.868,134.084-31.868"/>
</g>
</svg>
