<?xml version="1.0" encoding="utf-8"?>
<!-- Generator: Adobe Illustrator 16.2.0, SVG Export Plug-In . SVG Version: 6.00 Build 0)  -->
<!DOCTYPE svg PUBLIC "-//W3C//DTD SVG 1.1//EN" "http://www.w3.org/Graphics/SVG/1.1/DTD/svg11.dtd">
<svg version="1.1" id="Layer_1" xmlns="http://www.w3.org/2000/svg" xmlns:xlink="http://www.w3.org/1999/xlink" x="0px" y="0px"
	 width="587px" height="543px" viewBox="0 0 587 543" enable-background="new 0 0 587 543" xml:space="preserve">
<style type="text/css">
	<![CDATA[
	 .bg {fill:#FFFFFF}
	]]>
</style>
<path class="bg" stroke="#010101" stroke-width="4" d="M185.306,78.91l-45.684,27.623c0,0-20.186,15.937-25.497,40.373
	c-5.313,24.436-18.062,80.743-9.563,116.865c0,0,5.313,14.873-1.062,42.495s-14.874,64.808-8.5,95.616
	c6.375,30.811,15.936,55.245,15.936,55.245s-15.936,6.374-9.562,20.187c6.375,13.811,11.687,14.873,11.687,14.873
	s-1.063,3.188,0,9.562c1.063,6.374,4.249,9.563,4.249,9.563v9.562l6.375,2.125c0,0,35.061-15.936,47.811-13.812
	c0,0-25.499-22.312-7.438-25.497c0,0,7.438,5.31,15.937,10.623c8.5,5.313,11.687,9.562,16.999,11.688
	c5.312,2.123,70.119,23.373,82.867,26.561c12.75,3.187,30.81,1.063,30.81,1.063s23.374,5.313,53.121-7.438
	s46.746-23.373,49.934-33.997s-4.25-13.812-4.25-13.812s15.937-18.062,5.313-61.62c-10.624-43.56-10.624-43.56-10.624-43.56
	s14.873,16.999,18.062,21.248c3.188,4.251,4.249,19.124,7.437,26.563l-3.188,13.811c0,0-1.063-5.313,2.125,5.313
	c3.188,10.626-4.25,36.122-4.25,36.122s22.311,4.249,31.873,2.125c9.562-2.125,13.812-4.251,19.124-2.125
	c5.312,2.125,10.624,2.125,10.624,2.125l-3.188-35.06l5.313-4.251c0,0,7.437-13.811,4.249-31.872c0,0,5.313-74.368-18.063-140.236
	c-23.373-65.869-28.685-114.74-28.685-114.74S436.033,92.724,403.1,77.85c-32.936-14.874-32.936-14.874-32.936-14.874
	s1.063-6.375-3.188-10.624c-4.249-4.25-2.124-16.999-2.124-16.999s-2.125-18.062-23.374-24.437
	c-21.248-6.374-56.307-4.249-56.307-4.249s-52.059-1.063-71.183,5.312c-19.122,6.375-22.311,8.5-27.621,11.687
	c-5.313,3.188-7.438,3.188-7.438,8.499c0,5.313-5.312,5.313-3.187,15.938c2.125,10.624,8.499,10.624,11.687,14.874
	s-2.125,8.5-2.125,8.5v7.434H185.306z"/>
<g>
	<g>
		<path fill="#B7B7B7" d="M112.752,493.654c0,0,31.873-23.373,40.372-20.186c8.5,3.188,7.437,3.188,4.25,6.375
			c0,0,8.58-3.702,3.715-7.24s-14.151-5.526-27.639-0.221c-13.487,5.307-28.966,5.528-32.282,4.423
			c-3.317-1.106,4.863,11.056,4.863,11.056L112.752,493.654z"/>
		<path fill="#B7B7B7" d="M95.641,402.072c0,0,9.729,8.846,24.321,3.097c14.594-5.749,31.396-10.394,36.041-4.423
			c4.644,5.971,2.433,9.287,0,9.287c-2.434,0-4.865-4.203-6.191-4.644c-1.327-0.442-9.508-1.105-12.604-0.222
			c-3.097,0.883-5.085,3.538-13.488,4.864s-12.161-0.443-14.594-0.886c-2.433-0.441-2.433,1.105,0.442,5.527
			c2.875,4.423,4.865,8.183,9.729,10.613c4.864,2.433,11.056,3.096,13.709,5.085c2.653,1.99,2.874,5.749,2.211,7.959
			c-0.663,2.213-6.191,9.729-7.739,11.942c-1.548,2.21-6.854,5.968-9.95,7.073c-3.096,1.105-2.653,1.105-4.201,1.328
			c-1.549,0.222-4.645,1.768-3.096,2.651c1.547,0.886,5.086,0.663,6.413-0.439c1.326-1.106,7.296-3.54,8.844-3.54
			s6.19-2.211,8.845-0.22c2.652,1.988,3.979,2.432,3.979,5.526s-2.21,3.538-2.21,3.538s-6.19,0.439-7.518,0.884
			c-1.327,0.442-6.854,2.873-9.287,3.76c-2.434,0.885-3.538,3.097-7.296,2.212c-3.758-0.886-7.076-2.651-7.739-3.76
			c-0.664-1.105-1.548-2.651-1.548-2.651l6.412-7.299l2.212-1.547l-5.97-13.489l-7.298-27.196L95.641,402.072z"/>
		<path fill="#B7B7B7" d="M177.454,320.711c0,0-0.222,23.215,0.221,28.965c0.442,5.749,1.104,5.527-4.864,11.938
			c-5.971,6.412-8.181,6.191-8.181,6.191s-7.52-27.197-5.97-38.474c1.548-11.276-4.865-25.869-8.845-28.521
			c-3.979-2.654-5.087-24.769-3.76-29.411c1.327-4.645,1.548-15.48-1.769-20.124c-3.317-4.645-6.191-7.519-8.846-17.689
			c-2.653-10.17-1.768-15.257-1.326-20.784c0.442-5.526-3.76-10.613-5.307-15.478c-1.548-4.864-5.971-24.764-7.297-30.955
			c-1.327-6.19-1.989-21.671,0.221-28.524c2.211-6.854,2.654-13.268,4.865-15.257s7.297,3.538,7.739,7.739
			c0.44,4.201,2.874,9.729,2.874,9.729s2.211-11.276,1.326-16.805c-0.885-5.527-0.222-12.824-0.222-12.824s4.421,7.737,6.854,14.371
			c2.433,6.634,2.212,23.439,1.77,26.978c-0.441,3.538-0.22,20.785-0.22,23.88s0.663,13.488,1.768,24.101
			c1.105,10.613,0.663,15.036,2.875,19.237s2.652,7.738,6.854,12.161c4.202,4.422-1.99-0.883-0.221-4.642
			c1.77-3.76-1.326-3.537,5.307-0.885c6.634,2.654,8.624-0.663,10.393,6.413c1.771,7.075-2.875,23.22-3.759,27.642
			c-0.885,4.422-1.104,12.602-1.104,16.141c0,3.538-7.738-10.613-11.057-15.478c-3.316-4.865-10.392-19.9-11.276-22.774
			c-0.884-2.875,0.441,4.422,1.769,7.739c1.327,3.315,9.507,20.563,11.056,22.553c1.548,1.991,4.863,7.958,5.97,9.287
			c1.104,1.327,3.316,4.645,3.316,4.645s0.001,3.096,0.664,8.401c0.663,5.307,2.211,15.036,2.874,17.909
			c0.663,2.875-0.221,5.751,2.875,9.067C178.117,320.483,177.454,320.711,177.454,320.711z"/>
		<path fill="#B7B7B7" d="M172.368,371.561c0,4.422,0.441,9.065-2.21,9.95c-2.654,0.885-5.087-5.308-6.413,4.644
			c-1.326,9.949,0,14.593,0,14.593s-9.286-18.794-9.729-20.342c-0.441-1.548,0.884-0.884,4.201-5.526
			c3.316-4.646,7.96-10.395,11.055-8.624C172.368,368.022,172.368,371.561,172.368,371.561z"/>
		<path fill="#B7B7B7" d="M335.553,534.069c0,0,38.693-23.217,45.547-28.966s12.823-10.834,18.792-13.929
			c5.971-3.097,9.73-4.644,9.509-6.854c-0.221-2.211,1.326-3.98-2.432-2.433c-3.76,1.548-24.319,18.79-43.557,26.087
			c-19.236,7.297-29.851,12.383-36.262,12.825c-6.415,0.44-15.037,1.547-15.037,1.547l-0.44,13.045c0,0,16.14,0.665,16.804,0.665
			S335.553,534.069,335.553,534.069z"/>
		<path fill="#B7B7B7" d="M178.121,316.503c0,0,10.17,8.402,12.823,11.275c2.654,2.874,8.182,10.393,8.182,10.393
			s-9.507-9.286-11.718-10.833c-2.213-1.549-4.865-3.096-5.749-3.761c-0.886-0.664-3.318-3.758-2.654,0.223
			c0.664,3.979,0,13.045,0,15.92c0,2.874,0.222,7.737,0,9.948c-0.221,2.212,0.886,6.19-1.326,9.066
			c-2.211,2.875-6.192,5.747-5.085,8.181c1.104,2.433,1.769,7.519,1.326,10.613s-0.885,5.97-2.434,6.633
			c-1.548,0.664-3.315-1.771-4.644,2.211c-1.326,3.979-2.431,9.51-2.21,11.72c0.221,2.213-0.22,7.737,2.21,12.604
			c2.433,4.865,2.654,5.08,5.086,9.502c2.433,4.424,5.086,11.278,8.403,18.795c3.315,7.521,4.863,11.058,5.748,12.163
			c0.885,1.104,3.096,1.546,3.096,1.546s1.549,6.191,3.539,7.958c1.99,1.77,15.035,3.095,19.899,3.537
			c4.865,0.443,15.921,1.991,22.554,4.646c6.633,2.652,17.91,8.845,24.321,11.056c6.414,2.21,13.93,2.874,20.784,9.285
			c6.855,6.413,11.941,11.72,16.142,16.584c4.203,4.865,10.171,13.486,10.835,9.95c0.665-3.537-1.988-28.968-7.074-33.61
			c-5.086-4.642-13.046-10.833-22.111-12.161c-9.064-1.326-23.659-5.748-32.061-8.622c-8.402-2.875-23.882-10.61-33.39-14.147
			s-16.584-4.863-19.458-8.844c-2.875-3.98-3.76-10.391-0.663-11.497c3.096-1.105,14.15-1.105,11.497-3.316
			c-2.652-2.212-5.307-5.308-14.371-5.308c-9.065,0-11.498-4.199-10.171-5.308c1.326-1.104,7.738,0.221,13.486,1.105
			c5.75,0.887,11.94-1.105,12.604-3.316c0.664-2.21,0.663-8.182-1.549-9.949c-2.211-1.77-5.969-3.315-10.612-8.182
			c-4.645-4.864-6.854-7.738-4.864-9.286s8.845-2.873,13.266-0.222c4.424,2.652,11.277,5.526,11.498,8.401
			c0.222,2.875-1.104,6.411,0.443,11.277c1.548,4.863,1.548,9.066,4.422,10.17c2.875,1.105,5.75-0.885,7.076-2.211
			c1.327-1.326,8.845-30.064,9.729-34.932c0.886-4.863,1.327-18.354,0.663-19.68c-0.663-1.325-0.884-4.2-6.412-6.411
			c-5.526-2.212-15.92-6.19-21.005-5.526c-5.085,0.662-11.94,0.884-12.824-0.442c-0.884-1.328,3.316-1.767,5.527-2.209
			c2.212-0.443,4.422-2.432,1.106-7.959C198.686,328.004,178.121,316.503,178.121,316.503z"/>
		<path fill="#B7B7B7" d="M184.311,108.434c1.548,7.074,0.665,18.132-0.884,23.659c-1.548,5.527-2.21,15.478-5.306,21.005
			c-3.097,5.527-8.847,14.593-5.086,19.679c3.759,5.085,8.845,6.854,9.949,6.191c1.105-0.664-0.884-3.097-1.99-5.087
			c-1.105-1.989-3.759-5.306-1.769-10.17c1.989-4.863,6.854-11.72,7.738-16.583c0.885-4.864,1.104-15.257,0.663-20.342
			C187.186,121.7,184.311,108.434,184.311,108.434z"/>
		<path fill="#B7B7B7" d="M175.911,86.985c2.211,1.326,12.161,7.296,16.141,11.276c3.98,3.979-0.664,6.634,7.518,7.297
			c8.182,0.664,25.649-1.769,30.514-1.106c4.865,0.664,13.931,1.991,19.899,1.991c5.971,0,19.017,4.422,22.111,6.633
			s6.635,0.885,8.182,1.77c1.549,0.884,3.097,0.221,3.097,0.221s-2.432-4.864-5.085-7.96s-7.96-8.624-11.497-8.844
			c-3.539-0.223-10.614-2.212-18.795-1.99c-8.182,0.22-11.277-1.328-15.259-1.107c-3.979,0.222-11.498-0.222-18.131-2.212
			s-12.823-3.315-17.024-5.306c-4.202-1.99-7.739-3.98-9.287-5.086s-3.758-1.99-3.758-1.99L175.911,86.985z"/>
		<path fill="#B7B7B7" d="M186.525,61.999c0,0,5.971-0.664,9.065,0.663c3.096,1.327,10.614,5.308,16.141,9.065
			c5.528,3.759,13.046,9.065,16.363,11.498c3.316,2.432,18.793,11.719,18.793,11.719S223.45,74.601,219.47,71.948
			c-3.979-2.653-11.055-8.181-14.373-11.498c-3.316-3.316-4.644-8.181-4.202-9.729c0.443-1.549,0.885,0.442-5.526-2.434
			c-6.413-2.874-8.845-5.306-11.276-7.738c-2.433-2.432-4.865-5.085-4.865-5.085l-4.644,15.479l3.759,6.633L186.525,61.999z"/>
		<path fill="#B7B7B7" d="M368.724,66.642c0,0-15.478,12.162-21.89,15.036c-6.411,2.874-10.835,1.325-15.257,5.084
			c-4.423,3.759-15.257,8.402-19.898,10.835c-4.646,2.432-13.931,8.401-13.269,5.085c0.663-3.316,1.549-6.635,5.528-8.182
			s10.833-5.086,14.372-6.634c3.538-1.547,11.717-4.2,13.708-5.306c1.988-1.105,5.528-2.433,8.182-4.644
			s19.017-21.668,20.784-24.101c1.77-2.433,3.095-4.423,3.095-4.423s-14.148,21.89-15.697,23.88
			c-1.548,1.989-8.622,7.296-8.622,7.296s10.391-4.201,14.593-6.854c4.2-2.652,14.813-9.949,14.813-9.949L368.724,66.642z"/>
		<path fill="#B7B7B7" d="M350.593,53.152c0,0,2.433-9.949,0.22-11.719c-2.21-1.77-9.285-5.748-14.148-5.085
			c-4.866,0.663-9.068-1.327-13.709-3.097c-4.646-1.768-11.722-6.19-15.7-6.19c-3.979,0-13.046,1.327-13.046,1.327
			s3.98-3.98,12.162-7.739c8.181-3.758,12.603-7.738,17.467-7.959s8.183-1.99,11.938-0.664c3.762,1.327,14.151,3.317,17.469,6.19
			c3.317,2.875,4.863,6.413,5.75,9.729c0.885,3.317-0.224,10.393-0.664,13.488c-0.442,3.095-4.863,9.729-5.306,10.392
			C352.582,52.489,350.593,53.152,350.593,53.152z"/>
		<path fill="#B7B7B7" d="M423.337,100.028c0,0,7.736,25.869,7.295,37.367s-3.536,61.914-4.642,69.431
			c-1.106,7.519-1.107,16.583-4.645,23.659c-3.538,7.076-7.297,13.488-7.297,13.488l-0.443,9.064c0,0,10.614-12.161,13.269-24.101
			c2.653-11.94,5.97-26.091,6.191-32.945c0.22-6.854,3.096-36.927,2.654-44.003c-0.442-7.075,0.219-20.784-1.99-25.427
			c-2.213-4.645-1.99-10.835-2.875-13.045c-0.886-2.211-3.537-9.951-3.537-9.951L423.337,100.028z"/>
		<path fill="#B7B7B7" d="M408.963,284.215c0,0,11.94-5.748,15.034-7.074c3.098-1.325,12.604-5.308,18.133-6.412
			c5.527-1.106,17.468-3.979,17.468-3.979s-11.939-1.327-15.921,0c-3.979,1.326-17.246,5.307-22.552,5.749
			c-5.308,0.44-10.173,0.883-10.173,0.883s0.003,1.771-0.661,5.087C409.627,281.783,408.963,284.215,408.963,284.215z"/>
		<path fill="#B7B7B7" d="M406.973,295.491c2.213,0,6.192-0.22,11.94-0.22s16.805,0.22,20.783,0.883
			c3.979,0.665,8.845,1.105,9.729,3.098c0.886,1.988,1.548,3.979-0.221,6.189c-1.771,2.211-6.855,3.979-10.837,5.971
			c-3.979,1.989-3.758,3.761-7.736,5.972c-3.979,2.21-6.414,3.757-11.277,4.642c-4.862,0.885-6.854,0.442-7.736,3.317
			c-0.886,2.874-2.214,5.972-0.223,7.297c1.989,1.326,7.519,2.432,12.825,0.884c5.306-1.548,5.97-4.2,11.938-6.854
			c5.971-2.653,9.949-3.317,11.057-0.663c1.106,2.652,6.412,8.18,9.728,9.508c3.319,1.326,7.298,2.874,9.508,3.979
			c2.212,1.106,3.761,1.989,3.761,1.989s-2.432,1.106-7.739,1.771c-5.308,0.661-12.823-1.549-17.468-1.771
			c-4.646-0.22-11.057-2.653-14.813-2.653c-3.76,0-7.96,1.328-7.74,3.761c0.223,2.432,1.328,5.085,3.318,5.971
			c1.989,0.885,5.969,1.99,8.401,3.538c2.432,1.548,4.863,1.989,5.971,3.758c1.104,1.769,1.548,5.087,1.548,5.087
			s-5.306,2.655-7.519,4.866c-2.209,2.211-0.223,1.548-7.296,1.99c-7.075,0.441-15.478,0.221-20.121,0.221
			c-4.645,0-5.75-1.547-6.634-4.201c-0.886-2.653-2.21-9.729-3.98-12.161c-1.767-2.433-2.651-4.201-2.651-4.201
			s5.307-19.236,7.297-25.871c1.988-6.635,3.096-16.583,3.979-20.342C405.649,297.482,406.973,295.491,406.973,295.491z"/>
		<path fill="#B7B7B7" d="M417.805,370.891c0,0,0.883,4.201,3.315,6.189c2.433,1.99,6.413,3.097,9.288,2.873
			c2.873-0.22,5.527-2.652,8.843-3.979s7.297-3.537,11.275-3.095c3.981,0.44,11.056,0.885,13.269,1.769
			c2.213,0.885,7.961,1.326,12.822,0.885c4.866-0.441,9.51-1.549,9.51-1.549s-2.433-1.991-6.189-4.422
			c-3.761-2.432-8.844-5.307-15.478-5.307c-6.636,0-16.584,0.222-20.564,2.652c-3.979,2.434-7.298,5.528-12.384,5.749
			c-5.084,0.223-11.938-1.99-11.938-1.99L417.805,370.891z"/>
		<path fill="#B7B7B7" d="M405.423,373.102c0,0,1.769,0.221,4.643,1.768c2.875,1.549,6.855,4.865,9.065,6.414
			c2.212,1.547,5.969,4.421,7.959,5.085c1.989,0.662,3.318,2.433,5.75,2.212c2.432-0.223,5.971-1.548,6.854-0.662
			c0.884,0.883,3.757,5.525,6.854,7.736c3.096,2.211,6.634,3.316,8.846,4.864c2.21,1.548,3.316,3.76,0.884,4.865
			c-2.433,1.104-7.74,3.757-11.939,6.853c-4.2,3.099-6.854,5.749-10.171,7.519c-3.315,1.77-5.527,0.442-5.527,0.442l-5.528-23.438
			l-10.393-11.498l-6.633-7.959L405.423,373.102z"/>
		<path fill="#B7B7B7" d="M448.981,417.985c0,0,3.316-0.884,6.19-1.768c2.874-0.885,9.064-3.316,14.15-3.097
			c5.085,0.223,9.949,0.887,12.381,1.99c2.434,1.105-1.769-5.307-4.422-6.189c-2.651-0.886-3.093-3.318-9.285-2.435
			c-6.19,0.886-8.4,0.663-13.046,3.98C450.308,413.784,448.981,417.102,448.981,417.985z"/>
		<path fill="#B7B7B7" d="M431.512,423.957c3.317,0,8.403-0.884,14.15-1.769c5.751-0.885,12.604-2.213,14.373-1.991
			c1.771,0.224,3.76,1.991,2.434,2.653c-1.327,0.664-7.295,2.213-11.497,3.538c-4.201,1.326-4.422,3.758-7.739,5.085
			c-3.316,1.326-8.181,1.99-11.057,1.548c-2.874-0.442-4.199-3.315-4.199-3.315L431.512,423.957z"/>
		<path fill="#B7B7B7" d="M488.339,436.781c0,0-1.77-1.549-5.086-3.98c-3.315-2.433-5.972-5.746-6.191-6.633
			c-0.22-0.886-0.22,0.44,2.876-0.442c3.094-0.884,5.524-3.096,6.41-4.201c0.885-1.104,0.223-3.536-0.663-4.422
			c-0.884-0.884-2.432-2.653-6.189-3.095c-3.761-0.442-9.729-1.326-14.815-0.442c-5.085,0.884-15.697,4.421-15.697,4.421
			s7.74-7.736,11.275-8.622c3.538-0.885,9.288-3.317,12.162-3.317s6.188,1.106,9.729,3.317c3.537,2.211,7.075,4.421,7.518,6.854
			c0.441,2.432,1.99,8.845,1.99,8.845L488.339,436.781z"/>
		<path fill="#B7B7B7" d="M490.985,380.621c-0.883,1.769-0.883,3.537-5.746,6.19c-4.864,2.653-10.835,3.097-14.372,1.991
			c-3.538-1.106-6.411-3.316-11.056-1.991c-4.645,1.326-10.396-1.547-12.161-2.211c-1.769-0.663,0.221,5.307,2.432,7.297
			c2.212,1.989,7.075,2.875,10.833,2.875c3.761,0,5.529,1.326,8.183,3.759c2.653,2.432,6.189,4.864,10.613,5.969
			c4.422,1.105,11.114,4.241,11.719,4.201C492.033,408.662,490.985,380.621,490.985,380.621z"/>
		<path fill="#B7B7B7" d="M394.59,344.361c0,0-4.644,11.497-7.076,14.593c-2.433,3.097-7.296,10.174-7.296,10.174
			s2.432-5.309,0.884,1.546s-1.548,10.393-1.105,13.268c0.441,2.875,0.441,4.645,1.324,6.411c0.888,1.771,2.879,5.529,2.879,5.529
			s-2.654-17.025-2.434-18.354c0.22-1.327,1.769-9.949,2.434-11.497c0.66-1.548,5.523-8.844,6.41-10.173
			c0.885-1.325,3.095-5.527,3.759-6.411c0.663-0.884,1.326-3.316,1.326-3.316L394.59,344.361z"/>
	</g>
	<path fill="#B7B7B7" d="M165.468,471.446c0,0,16.291,12.749,25.499,18.415c9.208,5.665,20.54,14.875,30.81,18.771
		c10.271,3.895,27.978,10.269,39.311,12.039c11.332,1.771,26.207,4.958,30.101,6.729c3.896,1.771,10.625,7.083,10.625,7.083
		l-4.958,1.771l-24.082-4.251l-32.581-10.979l-32.935-9.562l-14.874-6.021l-10.624-7.792l-12.394-9.207l-7.791-3.895l-1.063-8.854
		L165.468,471.446z"/>
	<path fill="#B7B7B7" d="M180.384,32.522c0,0,30.771,21.938,32.484,23.08c1.711,1.14,15.958,11.968,19.377,13.677
		c3.419,1.71,10.543,5.414,14.247,8.263c3.704,2.851,5.413,1.425,8.263,5.129s14.532,15.674,16.527,18.236
		c1.994,2.565-18.238-21.371-22.796-24.505c-4.56-3.134-21.655-14.532-25.93-17.667c-4.273-3.134-27.353-17.097-30.489-21.656
		c-3.136-4.559-4.559-4.844-4.559-7.978c0-3.136,4.559-5.984,4.559-5.984l-9.973,5.415L180.384,32.522z"/>
	<path fill="#B7B7B7" d="M302.621,32.52c0,0,10.266,7.411,11.976,11.685c1.71,4.274,4.559,7.693,3.99,9.974
		c-0.57,2.278-6.271,8.263-7.693,10.543c-1.426,2.279-5.983,9.688-7.125,11.397c-1.14,1.709-4.271,6.554-5.982,9.118
		c-1.71,2.563-5.128,6.838-5.698,10.258c-0.571,3.418-0.855,6.554-0.855,6.554s7.979-16.241,9.688-18.806
		s7.692-14.248,10.827-15.958c3.134-1.709,5.417-5.982,7.979-6.839c2.565-0.854,6.271-1.424,6.838-5.128
		c0.57-3.705,0.286-11.968-3.703-14.817c-3.988-2.849-7.693-4.274-11.112-5.128C308.329,34.517,302.621,32.52,302.621,32.52z"/>
	<path fill="#B7B7B7" d="M233.152,67.981c0,0,10.014-3.218,15.021-4.291c5.006-1.072,12.159-1.788,18.952-1.788
		c6.795,0,18.955,1.43,18.955,1.43s-10.014-0.356-13.232,0.715c-3.218,1.073-6.079,2.146-6.079,2.146s11.801,0.715,15.02,0.715
		c3.218,0,6.08-0.357,12.158,0.357c6.08,0.715,10.014,1.431,10.014,1.431l1.431,1.788c0,0-19.669-2.503-33.616-1.788
		c-13.946,0.715-26.521,5.154-26.521,5.154L233.152,67.981z"/>
	<path fill="#B7B7B7" d="M328.267,41.922c1.141,0.57,4.844,7.694,4.844,7.694s1.426,1.139,4.56-0.285
		c3.134-1.425,5.699-2.279,3.99-4.844c-1.71-2.564-1.71-3.704-3.704-3.704C335.96,40.783,328.267,41.922,328.267,41.922z"/>
	<path fill="#B7B7B7" d="M202.755,46.883c0,0-6.438-7.151,4.647-11.085s18.597-4.648,21.814-4.292
		c3.218,0.357,7.152,1.788,7.152,1.788s-5.723,1.788-10.37,1.788c-4.649,0-11.443,2.146-12.159,3.935
		c-0.715,1.789-1.431,4.648-1.431,4.648s1.071-0.357,3.218-0.357c2.146,0,6.795,1.073,6.795,1.073s-2.862,1.072-4.649,1.431
		c-1.787,0.356-3.576,1.073-3.576,2.146c0,1.073,1.073,3.576,1.073,3.576s0.716,1.073,1.788,2.146
		c1.072,1.071,2.146,3.934,2.146,3.934L202.755,46.883z"/>
</g>
<g>
	<path class="bg" d="M221.779,509.692c0,0,13.104-4.249,30.456,0.354c17.354,4.604,34.352,7.437,41.436,7.437
		c7.082,0,31.872-0.354,38.601-1.418c6.729-1.061,10.979-2.122,15.582-2.831c4.604-0.709,7.791-1.418,7.791-1.418
		s-25.497,2.125-31.517,2.834c-6.022,0.708-18.063,0.708-21.957,0.708c-3.896,0-9.563,0-17.354-0.708
		c-7.792-0.709-14.519-1.416-14.519-1.416s-24.082-5.312-31.873-6.374s-20.187,0.707-20.187,0.707L221.779,509.692z"/>
	<g>
		<path fill="none" stroke="#010101" stroke-width="3" d="M188.64,489.705c0,0-1.062-29.746,3.188-50.994
			c0,0,42.497-2.124,43.558-81.806c0,0,101.993-10.624,139.178-9.563c0,0,1.063,15.938,0,38.248
			c-1.063,22.31,3.188,32.934,27.622,40.371c0,0,2.125,4.249,0,19.122c-2.124,14.875,0,9.562,0,9.562"/>
		<path fill="none" stroke="#010101" stroke-width="2" d="M189.702,452.521c0,0,59.495-9.561,56.308-96.679"/>
		<path fill="none" stroke="#010101" stroke-width="2" d="M401.123,437.648c0,0-28.687-6.374-35.061-28.685
			c-6.375-22.312-1.063-61.621-1.063-61.621"/>
		<g>
			<g>
				<g>
					<path fill="#010101" d="M159.882,486.712c-0.52-1.508-0.929-2.948-1.25-4.51c-0.29-1.568-0.593-3.129-0.296-5.189
						c0.115-0.544,0.227-1.095,0.596-1.751l0.127-0.232l0.065-0.115l0.008-0.014c0.013-0.021-0.081,0.125-0.039,0.061l0.009-0.015
						l0.019-0.028l0.145-0.229l0.289-0.461c0.354-0.608,0.589-1.028,0.872-1.661c0.533-1.168,0.994-2.405,1.21-3.592
						c0.101-0.582,0.195-1.18,0.166-1.683l0.002-0.195l0.002-0.099l0.001-0.049l-0.008-0.136l-0.025-0.555l-0.001-0.698l0.023-0.602
						c0.087-1.543,0.233-2.912,0.064-3.838c-0.083-0.46-0.21-0.738-0.389-0.957c-0.074-0.109-0.23-0.224-0.333-0.311l-0.909-0.596
						l-0.904-0.59l-0.829-0.454c-0.273-0.155-0.55-0.311-0.849-0.443c-0.292-0.141-0.597-0.29-0.83-0.384l-1.649-0.666l0.284-1.665
						c0.347-2.033,0.604-4.188,0.697-6.236l0.029-1.526l-0.077-1.45l-0.119-0.615l-0.054-0.31l-0.025-0.155
						c-0.01-0.046,0.007-0.006-0.025-0.124l-0.027-0.1c-0.142-0.553-0.295-1.003-0.426-1.641c-0.296-1.204-0.457-2.387-0.514-3.676
						c-0.037-1.272,0.104-2.712,0.811-4.136l0.127-0.265l0.017-0.032l0.008-0.017l0.084-0.134l0.029-0.042l0.061-0.083l0.239-0.335
						l0.478-0.669c0.282-0.435,0.738-0.926,1.125-1.39c0.826-0.984,1.555-1.72,2.324-2.629c-0.162,0.443-0.324,0.887-0.515,1.328
						c0.153-3.02,0.288-5.935,0.751-9.051c0.076-0.412,0.105-0.756,0.224-1.224l0.208-0.725l0.111-0.357l0.015-0.045l0.007-0.022
						c0.055-0.146-0.064,0.173-0.051,0.135l0.02-0.065l0.041-0.132c0.271-0.773,0.3-1.254,0.424-1.868
						c0.207-1.398,0.37-2.844,0.527-4.315c0.182-1.499,0.273-2.887,0.633-4.605l0.032-0.157l0.004-0.021
						c0.033-0.172-0.04,0.212-0.032,0.166l0.005-0.034l0.009-0.067l0.036-0.274c0.021-0.178,0.055-0.379,0.063-0.537
						c-0.037-0.239-0.035-0.432-0.054-0.711l-0.133-0.987l-0.193-1.034l-0.453-2.175c-0.077-0.373-0.139-0.791-0.208-1.186
						c-0.037-0.454-0.117-0.914-0.068-1.426l0.194-2.213l0.288-2.274c0.371-2.998,0.871-5.894,1.085-8.73
						c0.058-0.743,0.104-1.517,0.268-2.383c0.084-0.433,0.195-0.898,0.458-1.433c0.116-0.258,0.319-0.552,0.56-0.817
						c0.143-0.137,0.295-0.267,0.453-0.385c0.173-0.104,0.363-0.197,0.552-0.277c0.368-0.125,0.776-0.191,1.085-0.165l0.249,0.011
						c0.044,0.004,0.075,0.003,0.131,0.012l0.068,0.011l0.273,0.041l1.138,0.201c0.689,0.139,1.356,0.202,1.572,0.131
						c0.104-0.032,0.098-0.026,0.169-0.101c0.079-0.09,0.134-0.206,0.259-0.592l0.097-0.382l0.105-0.491
						c0.06-0.34,0.125-0.678,0.172-1.029c0.204-1.396,0.327-2.837,0.374-4.257c0.025-0.709,0.024-1.418-0.015-2.09
						c-0.017-0.336-0.053-0.663-0.101-0.929c-0.024-0.111-0.058-0.28-0.059-0.253c0.013-0.009-0.028,0.011,0.029-0.021
						c0.1-0.054,0.196-0.113,0.291-0.178l0.07-0.05c0.13-0.063-0.811,0.346-0.419,0.166l-0.017-0.03l-0.03-0.063l-0.125-0.247
						l-1.002-1.976c-0.335-0.656-0.651-1.394-0.977-2.085l-0.378-0.808l0.527-0.595c1.971-2.226,3.933-4.527,5.667-6.893
						l0.604-0.894c0.213-0.3,0.403-0.595,0.535-0.873l0.23-0.423l0.058-0.104l0.03-0.054l0.015-0.025
						c0.011-0.025-0.044,0.128-0.016,0.047l0.089-0.27l0.084-0.264l0.031-0.186c0.024-0.114,0.053-0.246,0.065-0.422
						c0.155-1.295,0.016-2.785-0.115-4.271c-0.066-0.747-0.145-1.505-0.194-2.289c-0.044-0.788-0.094-1.579,0.026-2.497
						c0.111-0.737,0.193-1.514,0.237-2.236l0.076-2.155c0.061-2.99,0.076-6.018,0.081-9.035c0.013-3.029-0.008-6.024,0.08-9.11
						l0.063-1.191c-0.033-0.104,0.041-0.787-0.065-0.921c-0.04-0.11-0.07-0.223-0.093-0.34c-0.055-0.13-0.136-0.272-0.198-0.411
						c-0.106-0.283-0.35-0.553-0.519-0.831c-0.431-0.555-0.92-1.085-1.442-1.719c-0.129-0.164-0.26-0.358-0.386-0.539l-0.047-0.068
						l-0.023-0.034c0.026,0.052-0.063-0.11-0.059-0.105l-0.053-0.131l-0.105-0.264c-0.137-0.356-0.293-0.687-0.413-1.066
						l-0.735-2.249l-0.633-2.196c-0.438-1.458-0.787-2.938-1.162-4.41c-0.396-1.467-0.68-2.962-1.007-4.445
						c-0.347-1.479-0.587-2.981-0.839-4.481l-0.382-2.25l-0.25-2.272l-0.25-2.271c-0.088-0.757-0.058-1.528-0.092-2.292
						c-0.043-1.529-0.095-3.065-0.004-4.567l0.181-4.533c0.125-3.024,0.304-6.045,0.523-9.066c0.139-1.51,0.239-3.021,0.444-4.528
						c0.087-0.754,0.179-1.51,0.328-2.263c0.069-0.377,0.125-0.753,0.208-1.13l0.33-1.133c0.939-2.847,1.463-5.798,2.079-8.763
						c0.568-2.964,1.112-5.937,1.539-8.923c0.24-1.492,0.406-2.99,0.563-4.49c0.103-1.491,0.248-3.02-0.128-4.478
						c-0.333-1.465-0.933-2.864-1.704-4.158c-0.394-0.643-0.826-1.263-1.319-1.833c-0.497-0.56-1.042-1.114-1.744-1.41
						c0.707,0.282,1.267,0.831,1.774,1.383c0.505,0.563,0.951,1.179,1.358,1.816c0.799,1.286,1.427,2.687,1.792,4.164
						c0.408,1.484,0.289,3.025,0.212,4.534c-0.131,1.508-0.271,3.018-0.485,4.515c-0.374,3.003-0.865,5.987-1.382,8.969
						c-0.561,2.958-1.043,5.987-1.951,8.899l-0.284,1.052c-0.071,0.36-0.121,0.734-0.182,1.103c-0.132,0.733-0.209,1.48-0.283,2.229
						c-0.176,1.49-0.249,3-0.36,4.501c-0.165,3.011-0.29,6.025-0.36,9.044l-0.1,4.527c-0.063,1.52,0.017,3.004,0.084,4.495
						c0.048,0.745,0.028,1.491,0.13,2.234l0.285,2.229l0.285,2.229l0.417,2.214c0.275,1.478,0.539,2.954,0.908,4.413
						c0.351,1.462,0.658,2.934,1.075,4.378c0.396,1.449,0.768,2.907,1.226,4.337l0.661,2.147l0.703,2.056
						c0.108,0.341,0.284,0.693,0.422,1.039l0.111,0.261l0.055,0.132c0.012,0.025-0.058-0.109-0.02-0.041l0.018,0.022l0.035,0.047
						c0.097,0.126,0.177,0.249,0.284,0.381c0.449,0.527,0.995,1.099,1.501,1.728c0.231,0.354,0.509,0.653,0.693,1.067
						c0.1,0.2,0.204,0.388,0.294,0.603c0.075,0.243,0.144,0.493,0.202,0.743c0.078,0.273,0.077,0.459,0.078,0.642l0.008,0.283
						l0.004,0.142l0.002,0.071l0.002,0.035l-0.006,0.146l-0.032,1.075c-0.031,2.959,0.042,6.008,0.084,9.022
						c0.048,3.023,0.088,6.043,0.081,9.094l-0.052,2.37c-0.038,0.781-0.101,1.515-0.201,2.271c-0.121,1.23,0.104,2.775,0.258,4.266
						c0.151,1.517,0.354,3.054,0.191,4.76c-0.022,0.363-0.155,1.044-0.261,1.334l-0.083,0.271c0.021-0.055-0.04,0.111-0.041,0.108
						l-0.018,0.036l-0.036,0.071l-0.072,0.145l-0.293,0.577c-0.191,0.403-0.404,0.744-0.623,1.065l-0.647,0.993
						c-1.794,2.538-3.719,4.874-6.023,6.93c0.172-0.358,0.344-0.718,0.39-1.02c0.318,0.642,0.595,1.268,0.943,1.919l1.041,1.956
						l0.13,0.244c0.014,0.027,0.063,0.111,0.046,0.093l0.106,0.228c0.16,0.341,0.181,0.539,0.244,0.779
						c0.09,0.448,0.136,0.854,0.167,1.251c0.062,0.796,0.074,1.563,0.063,2.325c-0.021,1.528-0.119,3.034-0.311,4.562
						c-0.043,0.38-0.109,0.767-0.17,1.153l-0.114,0.591c-0.045,0.211-0.111,0.454-0.17,0.679c-0.098,0.317-0.277,0.896-0.657,1.369
						c-0.362,0.497-0.986,0.917-1.576,1.067c-1.19,0.291-2.02,0.067-2.771-0.026l-1.052-0.167l-0.274-0.035l-0.068-0.009
						c0.007,0-0.009,0.003-0.012,0.004l-0.037,0.003c-0.069-0.013-0.043,0.015-0.04-0.003c0.067-0.032,0.069-0.064-0.012,0.102
						c-0.07,0.146-0.146,0.407-0.192,0.705c-0.103,0.598-0.141,1.307-0.179,2.036c-0.172,3.052-0.625,5.997-0.921,8.87l-0.233,2.13
						l-0.151,2.204c-0.026,0.23,0.041,0.514,0.062,0.796l0.197,0.998l0.493,2.153l0.234,1.138l0.186,1.2
						c0.049,0.451,0.062,0.993,0.068,1.483c-0.012,0.208-0.038,0.374-0.056,0.563l-0.03,0.275l-0.008,0.067l-0.003,0.034
						l-0.039,0.208l-0.019,0.116c-0.229,1.188-0.34,2.752-0.477,4.188c-0.128,1.468-0.265,2.962-0.462,4.488
						c-0.129,0.836-0.3,1.819-0.515,2.447l-0.038,0.134l-0.02,0.066c0.011-0.026-0.108,0.295-0.06,0.163l-0.002,0.012l-0.004,0.021
						l-0.037,0.179l-0.088,0.349c-0.063,0.251-0.1,0.646-0.151,0.962c-0.355,2.74-0.452,5.741-0.538,8.622l-0.018,0.583
						l-0.589,0.626c-0.691,0.733-1.479,1.581-2.05,2.296c-0.307,0.387-0.62,0.688-0.929,1.181l-0.463,0.681l-0.231,0.339
						l-0.058,0.085l-0.029,0.043l-0.003,0.005c0.032-0.051-0.076,0.122,0.07-0.113l-0.002,0.007l-0.005,0.016l-0.042,0.113
						c-0.578,1.14-0.354,3.277,0.128,5.126c0.09,0.439,0.293,1.025,0.435,1.532l0.029,0.1c-0.016-0.049,0.012,0.057,0.016,0.078
						l0.056,0.246l0.107,0.493l0.201,0.991l0.141,1.824c0.017,0.593,0.004,1.171,0.006,1.758c-0.062,2.327-0.276,4.539-0.719,6.814
						c-0.409-0.771-0.819-1.538-1.242-2.275c0.44,0.167,0.79,0.333,1.152,0.499c0.364,0.157,0.727,0.346,1.085,0.542l1.08,0.581
						l0.927,0.578l0.921,0.579c0.482,0.33,0.902,0.663,1.284,1.113c0.771,0.875,1.203,1.979,1.383,2.938
						c0.345,1.937,0.107,3.484,0.086,4.828l-0.011,0.484l0.006,0.391l0.033,0.53l0.02,0.607c0.052,0.945-0.068,1.792-0.199,2.634
						c-0.285,1.671-0.822,3.18-1.46,4.654c-0.289,0.699-0.744,1.555-1.114,2.2l-0.279,0.466l-0.141,0.232l-0.073,0.119l0.005,0.008
						l0.005,0.011c-0.002-0.027-0.042,0.145-0.074,0.306c-0.119,0.823,0.05,2.18,0.339,3.438c0.283,1.272,0.693,2.619,1.142,3.843
						L159.882,486.712z"/>
				</g>
			</g>
		</g>
		<g>
			<g>
				<g>
					<path fill="#010101" d="M401.268,375.46c-1.186-2.922-2.242-5.823-3.143-8.873c-0.438-1.533-0.843-3.079-1.089-4.79
						c-0.128-0.843-0.196-1.779-0.091-2.889c0.079-0.522,0.114-0.756,0.217-1.243c0.088-0.444,0.182-0.837,0.273-1.225
						c0.373-1.548,0.801-2.993,1.056-4.342c0.265-1.325,0.311-2.626-0.002-3.203c-0.018-0.094-0.083-0.137-0.115-0.208l-0.028-0.052
						l-0.013-0.026l-0.003-0.007l-0.097-0.13l-0.02-0.029l-0.158-0.239l-0.632-0.955l-0.632-0.954
						c-0.208-0.336-0.405-0.733-0.607-1.1c-0.844-1.525-1.485-2.911-2.123-4.423l-0.258-0.612l0.091-0.495
						c1.441-7.864,2.829-15.654,4.708-23.54c0.096-0.474,0.301-1.051,0.455-1.572l0.252-0.8l0.102-0.319l0.13-0.35
						c0.378-0.953,0.625-1.824,0.896-2.705c0.523-1.851,1.016-3.764,1.435-5.671c0.431-1.89,0.825-3.886,1.028-5.643l0.142-1.497
						c0.036-0.479,0.193-1.112,0.295-1.658c0.249-1.064,0.51-2.03,0.814-3.011c0.599-1.951,1.261-3.855,1.998-5.743
						c0.177-0.474,0.372-0.944,0.566-1.415l0.291-0.706l0.2-0.608c0.372-0.974,0.492-1.816,0.701-2.697
						c0.708-3.773,1.035-7.769,1.609-11.745c0.123-0.994,0.321-2.007,0.5-3.014l0.545-2.917c0.321-1.932,0.63-3.874,0.901-5.841
						c0.542-3.92,1.046-7.857,1.357-11.789c0.1-0.985,0.156-1.966,0.195-2.941l0.073-1.468c0.013-0.485-0.017-0.951-0.021-1.429
						l-0.035-1.492c-0.017-0.495-0.031-0.99,0-1.523c0.026-1.062,0.104-2.056,0.175-3.054c0.311-3.993,0.747-7.945,1.16-11.904
						l1.215-11.865c0.355-3.95,0.739-7.921,0.747-11.849c-0.014-1.914-0.323-3.93-0.385-5.915c-0.01-2.01-0.063-4.029,0.013-6.013
						c0.072-3.985,0.253-7.961,0.456-11.937l0.644-11.917c0.133-3.979,0.674-7.938,1.252-11.87
						c-0.495,3.949-0.949,7.898-0.997,11.877l-0.39,11.93c-0.118,3.975-0.212,7.95-0.201,11.922
						c-0.032,1.993,0.064,3.953,0.112,5.92c0.102,1.988,0.451,3.918,0.515,5.979c0.078,4.03-0.225,8-0.496,11.978l-0.963,11.904
						c-0.328,3.962-0.68,7.928-0.902,11.875c-0.051,0.986-0.102,1.978-0.106,2.906c-0.023,0.462,0.003,0.96,0.029,1.459l0.067,1.489
						c0.019,0.517,0.059,1.043,0.057,1.552l-0.042,1.514c-0.021,1.011-0.059,2.018-0.137,3.015
						c-0.232,4.006-0.655,7.974-1.118,11.944c-0.229,1.979-0.503,3.972-0.793,5.971l-0.487,2.959
						c-0.146,0.956-0.313,1.898-0.414,2.883c-0.482,3.907-0.712,7.865-1.382,11.93c-0.218,1.061-0.411,2.185-0.736,3.082
						l-0.11,0.356l-0.055,0.178l-0.027,0.09l-0.015,0.044l-0.051,0.141l-0.264,0.68c-0.176,0.453-0.353,0.904-0.514,1.367
						c-0.673,1.833-1.278,3.703-1.806,5.568c-0.27,0.924-0.502,1.888-0.689,2.764c-0.062,0.436-0.181,0.769-0.211,1.283
						l-0.106,1.477c-0.027,0.598-0.109,1.088-0.18,1.604c-0.067,0.515-0.141,1.026-0.232,1.521c-0.166,1.003-0.351,2-0.555,2.986
						c-0.394,1.984-0.849,3.938-1.365,5.925c-0.289,1.026-0.578,2.07-0.916,2.977l-0.123,0.353l-0.057,0.154l-0.021,0.079
						l-0.043,0.158l-0.175,0.632c-0.111,0.437-0.251,0.799-0.346,1.305c-1.647,7.636-2.893,15.547-4.813,23.251
						c0.18-0.329,0.358-0.659,0.331-0.903c0.587,1.3,1.279,2.664,1.951,3.813c0.176,0.302,0.316,0.598,0.519,0.906l0.657,0.937
						l0.658,0.938l0.323,0.467c0.161,0.244,0.347,0.485,0.451,0.75c0.523,1.047,0.67,2.12,0.684,3.053
						c0.012,0.944-0.076,1.829-0.219,2.646c-0.27,1.65-0.676,3.147-0.977,4.58c-0.076,0.357-0.148,0.713-0.2,1.021
						c-0.056,0.266-0.123,0.783-0.15,1.021c-0.01,0.43,0.008,1.032,0.141,1.697c0.225,1.315,0.623,2.727,1.065,4.116
						c0.904,2.787,2.017,5.604,3.201,8.31L401.268,375.46z"/>
				</g>
			</g>
		</g>
	</g>
	<path fill="none" stroke="#010101" d="M244.546,73.851c0,0,13.647-5.87,31.885-5.513c18.239,0.358,30.397,2.861,30.397,2.861"/>
</g>
<path fill="none" stroke="#010101" stroke-width="4" d="M185.582,78.837l-45.685,27.623c0,0-20.186,15.938-25.498,40.373
	c-5.312,24.437-18.061,80.744-9.562,116.866c0,0,5.312,14.875-1.063,42.495c-6.375,27.622-14.874,64.808-8.499,95.616
	c6.375,30.811,15.937,55.245,15.937,55.245s-15.937,6.376-9.563,20.187c6.375,13.813,11.688,14.873,11.688,14.873
	s-1.063,3.188,0,9.563c1.062,6.375,4.249,9.562,4.249,9.562v9.563l6.375,2.124c0,0,35.059-15.937,47.808-13.813
	c0,0-25.498-22.311-7.436-25.497c0,0,7.436,5.313,15.936,10.624c8.5,5.313,11.688,9.563,16.999,11.688
	c5.313,2.125,70.119,23.373,82.868,26.561c12.749,3.188,30.81,1.063,30.81,1.063s23.375,5.313,53.121-7.438
	c29.748-12.749,46.747-23.373,49.935-33.998c3.188-10.623-4.25-13.811-4.25-13.811s15.937-18.062,5.313-61.62
	c-10.625-43.559-10.625-43.559-10.625-43.559s14.875,16.997,18.063,21.247c3.187,4.25,4.25,19.124,7.437,26.562l-3.187,13.811
	c0,0-1.063-5.312,2.122,5.313c3.188,10.624-4.247,36.122-4.247,36.122s22.311,4.25,31.87,2.125
	c9.563-2.125,13.812-4.25,19.123-2.125c5.313,2.125,10.625,2.125,10.625,2.125l-3.188-35.061l5.313-4.25
	c0,0,7.438-13.812,4.248-31.872c0,0,5.313-74.367-18.061-140.236s-28.685-114.74-28.685-114.74s-9.563-59.496-42.496-74.37
	c-32.936-14.873-32.936-14.873-32.936-14.873s1.063-6.375-3.188-10.625s-2.125-16.999-2.125-16.999s-2.125-18.061-23.373-24.436
	c-21.248-6.374-56.309-4.249-56.309-4.249s-52.059-1.063-71.182,5.311c-19.124,6.375-22.311,8.5-27.623,11.688
	c-5.313,3.187-7.437,3.187-7.437,8.499c0,5.312-5.313,5.312-3.188,15.937c2.125,10.624,8.5,10.624,11.688,14.874
	c3.187,4.25-2.125,8.499-2.125,8.499v7.434H185.582z"/>
</svg>
