<?xml version="1.0" encoding="utf-8"?>
<!-- Generator: Adobe Illustrator 19.2.1, SVG Export Plug-In . SVG Version: 6.00 Build 0)  -->
<svg version="1.1" id="Layer_1" xmlns="http://www.w3.org/2000/svg" xmlns:xlink="http://www.w3.org/1999/xlink" x="0px" y="0px"
	 width="590px" height="530px" viewBox="0 0 590 530" enable-background="new 0 0 590 530" xml:space="preserve">
<path fill="#CFD1D3" d="M112.9,41c0,0,1.8,35.1,35.9,36c8.1,0.2,18.1-1.1,29.9-13c3.9-4,5.2-13.6,7.1-23
	c-7.3,5.2-25.2,15.1-37.3,15.1C137.5,56.2,122,46.5,112.9,41"/>
<path fill="none" stroke="#1A1A1A" stroke-width="2.695374e-002" stroke-linecap="round" stroke-linejoin="round" d="M112.9,41
	c0,0,1.8,35.1,35.9,36c8.1,0.2,18.1-1.1,29.9-13c3.9-4,5.2-13.6,7.1-23c-7.3,5.2-25.2,15.1-37.3,15.1C137.5,56.2,122,46.5,112.9,41z
	"/>
<path id="la_x7C_Body_Color_x7C_body" fill="#e91e63" d="M232.4,480.8c-2.8,4-36.1,8.1-53.2,1.8c-2.8-1-5.2-2.4-7-4l-16.6-92.4
	c-1-7-2.5-9-5.7-9.2c-3.6,0.2-5.5,2.2-6.5,9.2l-17.4,92.4c-1.7,1.7-4.2,3-7,4.1c-8.8,3.2-21.8,3.7-32.8,2.9
	c-10.4-0.8-19-2.8-20.3-4.7c-0.5-11.6-9.3-97.1-3.7-122.8c3-13.8,11.4-46,16.6-75.6c2-11.1,3.5-21.9,4.1-31.1
	c1.3-19.5-5.4-62.5-9.8-87.4c-2-11.4-3.5-19.1-3.5-19.1c0.1-0.2,0.2-0.3,0.2-0.5c-0.9-21.4-3-27.9-3.5-43.6
	c-0.6-19.9,5.1-38.7,5-39.3l0,0c0,0,25.5-8.2,37.3-17.4c0.2,1,4.1,6.1,10.6,11.9c7.4,6.5,18.2,13.9,30.8,16.9l2.9,0.2
	c23.4-4.3,36.4-26.9,36.8-29c11.8,9.2,37.3,17.2,37.3,17.2s-10.3,38.2,1.6,83.7c0,0-15.1,78.1-13.2,106.5c1,15.3,4.4,34.5,8.3,52.8
	c4.7,22.5,10.1,43.5,12.4,54C241.7,383.7,232.9,469.3,232.4,480.8"/>
<path fill="#1A1A1A" d="M232.4,480.8l0.2,0.1c-0.5,0.7-1.7,1.3-3.5,1.9c-5.3,1.8-15.7,3.2-26.4,3.2c-8.5,0-17.1-0.9-23.5-3.3
	c-2.9-1.1-5.3-2.4-7-4.1l0,0l-16.6-92.5v0c-0.5-3.5-1.1-5.7-2-7.1c-0.9-1.3-2-1.8-3.5-1.9l0-0.2l0,0.2c-1.8,0.1-3.1,0.6-4.1,2
	c-1,1.4-1.8,3.6-2.2,7.1l0,0l-17.4,92.5l0,0c-1.8,1.7-4.2,3.1-7.1,4.1c-6.4,2.3-15,3.2-23.4,3.2c-3.2,0-6.4-0.1-9.4-0.4
	c-5.2-0.4-10-1.1-13.6-1.9c-1.8-0.4-3.3-0.9-4.5-1.4c-1.2-0.5-2-1-2.4-1.5l0,0l0-0.1c-0.4-8.8-5.6-60.5-5.6-96
	c0-11.1,0.5-20.7,1.8-26.8c3-13.8,11.4-46,16.6-75.6c1.9-11.1,3.5-21.8,4.1-31.1c0.1-1.7,0.2-3.5,0.2-5.4c0-21.2-6-59.1-9.9-81.9
	c-1-5.7-1.9-10.5-2.5-13.8c-0.3-1.7-0.6-3-0.7-3.9c-0.2-0.9-0.3-1.4-0.3-1.4l0-0.1l0-0.1c0.1-0.2,0.2-0.3,0.2-0.4v0v0
	c-0.9-21.4-3-27.9-3.5-43.6c0-1,0-2,0-2.9c0-9.3,1.3-18.2,2.5-24.9c0.6-3.3,1.3-6.1,1.7-8.1c0.2-1,0.4-1.8,0.6-2.4
	c0.1-0.3,0.1-0.5,0.2-0.7c0-0.2,0.1-0.3,0.1-0.3h0.1l-0.1,0l0,0h0.1l-0.1,0l0.2,0l-0.2,0.1l0,0L71,61.3l0.2-0.1c0,0,0.4-0.1,1.1-0.4
	c5-1.7,25.8-9,36.1-17l0.2-0.2l0.1,0.3c0,0.2,0.3,0.7,0.8,1.4c1.5,2.1,4.9,6.1,9.8,10.4c7.4,6.5,18.1,13.8,30.7,16.8l0,0.2l0-0.2
	l2.9,0.2l0,0.2l0-0.2c11.6-2.1,20.7-8.8,26.9-15.2c3.1-3.2,5.5-6.4,7.1-8.8c0.8-1.2,1.5-2.3,1.9-3.1c0.4-0.8,0.7-1.4,0.7-1.6
	l0.1-0.3l0.2,0.2c5.9,4.6,15.2,8.9,23,12c3.9,1.6,7.5,2.9,10,3.7c1.3,0.4,2.3,0.8,3,1c0.7,0.2,1.1,0.4,1.1,0.4l0.2,0.1l0,0.2
	c0,0-0.1,0.2-0.2,0.7c-0.8,3.2-3.9,17.4-3.9,37.3c0,13.2,1.4,28.9,5.8,45.6l0,0l0,0c0,0-0.2,1.1-0.6,3c-2.6,13.7-12.8,70.2-12.8,98
	c0,2,0.1,3.8,0.2,5.4c1,15.3,4.4,34.5,8.3,52.7c4.7,22.5,10.1,43.5,12.4,54c1.3,6.2,1.8,15.7,1.8,26.9c0,35.5-5.2,87.2-5.6,96l0,0.1
	l0,0L232.4,480.8l-0.2,0c0.4-8.8,5.6-60.5,5.6-96c0-11.1-0.5-20.7-1.8-26.8c-2.3-10.5-7.6-31.5-12.4-54c-3.8-18.3-7.3-37.5-8.3-52.8
	c-0.1-1.7-0.2-3.5-0.2-5.5c0-31.8,13.4-101.1,13.4-101.1l0.2,0l-0.2,0c-4.4-16.7-5.8-32.4-5.8-45.7c0-22.8,4.1-38.1,4.1-38.1
	l0.2,0.1l-0.1,0.2c0,0-25.5-8-37.4-17.2l0.1-0.2l0.2,0c-0.1,0.3-0.3,0.9-0.8,1.7c-3.1,5.8-15.7,23.6-36.2,27.4l0,0l-2.9-0.2l0,0
	c-12.7-3-23.5-10.4-30.9-16.9c-3.3-2.9-5.9-5.6-7.7-7.8c-0.9-1.1-1.6-2-2.1-2.7c-0.5-0.7-0.8-1.2-0.9-1.5l0.2,0l0.1,0.2
	c-11.9,9.2-37.3,17.4-37.3,17.4l-0.1-0.2l0.2-0.1l0,0l0,0l0,0l0,0c0,0.1,0,0.2-0.1,0.4c-0.6,2.6-5,18.5-5,36c0,1,0,2,0,2.9
	c0.5,15.7,2.6,22.2,3.5,43.6v0l0,0c0,0.3-0.2,0.4-0.2,0.6l-0.2-0.1l0.2,0c0,0,1.5,7.7,3.5,19.1c4,22.9,9.9,60.7,9.9,82
	c0,2-0.1,3.8-0.2,5.5c-0.6,9.3-2.1,20.1-4.1,31.2c-5.2,29.6-13.6,61.8-16.6,75.6c-1.3,6.1-1.8,15.6-1.8,26.8c0,35.5,5.2,87.2,5.6,96
	l-0.2,0l0.2-0.1c0.3,0.4,1.1,0.9,2.2,1.4c3.4,1.4,10.2,2.7,18,3.2c3,0.2,6.2,0.4,9.4,0.4c8.4,0,17-0.9,23.3-3.2c2.9-1,5.2-2.4,7-4
	l0.1,0.1l-0.2,0l17.4-92.4l0.2,0l-0.2,0c0.5-3.5,1.2-5.8,2.3-7.3c1.1-1.5,2.6-2,4.4-2.1h0c1.7,0,2.9,0.6,3.8,2.1
	c0.9,1.4,1.5,3.7,2,7.3l-0.2,0l0.2,0l16.6,92.4l-0.2,0l0.1-0.1c1.7,1.6,4.1,3,6.9,4c6.3,2.3,14.9,3.2,23.4,3.2
	c7.1,0,14.1-0.6,19.5-1.6c2.7-0.5,5-1,6.8-1.6c1.7-0.6,2.9-1.2,3.3-1.8L232.4,480.8l-0.2,0L232.4,480.8z"/>
<path id="la_x7C_Botttom_Color_x7C_bottom" fill="#e91e63" d="M232.4,480.8c-2.8,4-36.1,8.1-53.2,1.8c-2.8-1-5.2-2.4-7-4l-16.6-92.4
	c-1-7-2.5-9-5.7-9.2c-3.6,0.2-5.5,2.2-6.5,9.2l-17.4,92.4c-1.7,1.7-4.2,3-7,4.1c-8.8,3.2-21.8,3.7-32.8,2.9
	c-10.4-0.8-19-2.8-20.3-4.7c-0.5-11.6-9.3-97.1-3.7-122.8c3-13.8,11.4-46,16.6-75.6l33.2-9.7c0,0,39.8-10.4,74.2,0l37.5,31.3
	c4.7,22.5,10.1,43.5,12.4,54C241.7,383.7,232.9,469.3,232.4,480.8"/>
<path fill="#1A1A1A" d="M232.4,480.8l0.2,0.1c-0.5,0.7-1.7,1.3-3.5,1.9c-5.3,1.8-15.7,3.2-26.4,3.2c-8.5,0-17.1-0.9-23.5-3.3
	c-2.9-1.1-5.3-2.4-7-4.1l0,0l-16.6-92.5v0c-0.5-3.5-1.1-5.7-2-7.1c-0.9-1.3-2-1.8-3.5-1.9l0-0.2l0,0.2c-1.8,0.1-3.1,0.6-4.1,2
	c-1,1.4-1.8,3.6-2.2,7.1l0,0l-17.4,92.5l0,0c-1.8,1.7-4.2,3.1-7.1,4.1c-6.4,2.3-15,3.2-23.4,3.2c-3.2,0-6.4-0.1-9.4-0.4
	c-5.2-0.4-10-1.1-13.6-1.9c-1.8-0.4-3.3-0.9-4.5-1.4c-1.2-0.5-2-1-2.4-1.5l0,0l0-0.1c-0.4-8.8-5.6-60.5-5.6-96
	c0-11.1,0.5-20.7,1.8-26.8c3-13.8,11.4-46,16.6-75.6l0-0.1l33.3-9.7l0,0c0,0,17.7-4.6,39.7-4.6c11,0,23.1,1.2,34.6,4.6l0,0
	l37.6,31.3l0,0.1c4.7,22.5,10.1,43.5,12.4,54c1.3,6.2,1.8,15.7,1.8,26.9c0,35.5-5.2,87.2-5.6,96l0,0.1l0,0L232.4,480.8l-0.2,0
	c0.4-8.8,5.6-60.5,5.6-96c0-11.1-0.5-20.7-1.8-26.8c-2.3-10.5-7.6-31.5-12.4-54l0.2,0l-0.1,0.1l-37.5-31.3l0.1-0.1l-0.1,0.2
	c-11.4-3.5-23.5-4.6-34.5-4.6c-11,0-20.9,1.2-28.1,2.3c-3.6,0.6-6.5,1.2-8.5,1.6c-1,0.2-1.8,0.4-2.3,0.5c-0.5,0.1-0.8,0.2-0.8,0.2
	l0-0.2l0.1,0.2l-33.2,9.7l-0.1-0.2l0.2,0c-5.2,29.6-13.6,61.8-16.6,75.6c-1.3,6.1-1.8,15.6-1.8,26.8c0,35.5,5.2,87.2,5.6,96l-0.2,0
	l0.2-0.1c0.3,0.4,1.1,0.9,2.2,1.4c3.4,1.4,10.2,2.7,18,3.2c3,0.2,6.2,0.4,9.4,0.4c8.4,0,17-0.9,23.3-3.2c2.9-1,5.2-2.4,7-4l0.1,0.1
	l-0.2,0l17.4-92.4l0.2,0l-0.2,0c0.5-3.5,1.2-5.8,2.3-7.3c1.1-1.5,2.6-2,4.4-2.1h0c1.7,0,2.9,0.6,3.8,2.1c0.9,1.4,1.5,3.7,2,7.3
	l-0.2,0l0.2,0l16.6,92.4l-0.2,0l0.1-0.1c1.7,1.6,4.1,3,6.9,4c6.3,2.3,14.9,3.2,23.4,3.2c7.1,0,14.1-0.6,19.5-1.6
	c2.7-0.5,5-1,6.8-1.6c1.7-0.6,2.9-1.2,3.3-1.8L232.4,480.8l-0.2,0L232.4,480.8z"/>
<path fill="#FFFFFF" d="M121.5,461.9l-2.6,20.8L121.5,461.9z"/>
<line fill="none" stroke="#2B2D2F" stroke-width="4.902834e-002" stroke-miterlimit="10" x1="121.5" y1="461.9" x2="118.9" y2="482.7"/>
<path fill="#FFFFFF" d="M177,461.9l2.2,20.8L177,461.9z"/>
<line fill="none" stroke="#2B2D2F" stroke-width="4.902834e-002" stroke-miterlimit="10" x1="177" y1="461.9" x2="179.2" y2="482.7"/>
<path fill="none" stroke="#2B2D2F" stroke-width="4.902834e-002" stroke-miterlimit="10" stroke-dasharray="0.2995,0.2995" d="
	M143.7,384.7c0,0-4-4.5-6.8-11.3c-3.4-8.2-5.5-19.3-2.8-22.6c6.4-7.8,29.1-7.9,33.1,0.8c1.8,3.9,1,9-1.9,16.9
	c-4.3,11.6-9.2,15-9.9,15.9 M143.5,386.2c0,0-4.7-5.2-7.7-12.8c-3.5-8.8-5.3-20.4-2.1-23.8c8.1-8.6,29-7.2,34,0.7
	c2.2,3.4,2.7,6.4-0.6,16.3c-3.8,11.8-10.7,18.7-11.4,19.5"/>
<g id="la_x7C_Side_Color_x7C_side_1_">
	<path fill="#7b1fa2" d="M69.8,144.3c0,0.2-0.2,0.3-0.3,0.5c-1.6,3.1-31.3,33.3-31.3,33.3l-12-9.1l0,0L5.3,153
		c0,0,40.3-69.4,44.7-76c7.7-11.6,21.3-15.9,21.3-15.9s0,0.1,0.1,0.3l0,0c0.8,2.2,6,17.3,6.9,29.2c0.1,1.3,0.6,2.7,0.3,3.9
		C75.4,105.4,71.3,118.6,69.8,144.3"/>
	<path fill="#7b1fa2" d="M227,61.1c0,0-6.1,16.6-7,29.5c-1.4,18.7,2.4,38.5,8.7,54.2C230,148,260,178,260,178l32.9-25
		c0,0-40.3-69.4-44.7-76C240.6,65.4,227,61.1,227,61.1"/>
</g>
<path fill="#2B2D2F" d="M69.8,144.3l0.2,0c0,0.3-0.2,0.5-0.3,0.6c-0.2,0.4-0.9,1.2-1.8,2.4c-6.8,7.9-29.5,31-29.5,31l-0.1,0.1
	l-12.1-9.2l0.1-0.2l-0.1,0.2l0,0l0,0L5,153.1l0.1-0.1c0,0,40.3-69.4,44.7-76c7.8-11.7,21.3-16,21.4-16l0.2-0.1l0.1,0.2
	c0,0,0,0.1,0.1,0.3l0,0c0.8,2.2,6,17.3,6.9,29.2c0.1,1,0.4,2,0.4,3c0,0.3,0,0.7-0.1,1c-3.1,11-7.2,24.1-8.7,49.7L69.8,144.3l-0.2,0
	c1.5-25.7,5.6-38.9,8.7-49.8c0.1-0.3,0.1-0.6,0.1-0.9c0-0.9-0.3-1.9-0.4-2.9c-0.9-11.8-6.1-26.9-6.9-29.1l0,0
	C71,61.3,71,61.2,71,61.2l0.2-0.1l0.1,0.2c0,0-0.2,0.1-0.6,0.2c-2.7,1-13.8,5.6-20.6,15.7c-2.2,3.3-13.4,22.3-24,40.4
	c-5.3,9.1-10.5,18-14.3,24.6c-1.9,3.3-3.5,6-4.6,8c-1.1,1.9-1.7,3-1.7,3L5.3,153l0.1-0.2l21,15.9l-0.1,0.2l0.1-0.2l0,0l0,0l12,9.1
	l-0.1,0.2l-0.1-0.1c0,0,0.5-0.5,1.3-1.3c2.9-2.9,10-10.2,16.6-17.1c3.3-3.5,6.5-6.8,8.9-9.5c1.2-1.3,2.3-2.5,3-3.4
	c0.8-0.9,1.3-1.6,1.4-1.9c0.1-0.2,0.2-0.4,0.2-0.4L69.8,144.3z"/>
<path fill="#2B2D2F" d="M227,61.1l0.2,0.1c0,0-0.4,1-1,2.8c-1.7,5.3-5.3,17-6,26.6c-0.2,2.6-0.3,5.2-0.3,7.9
	c0,16.2,3.5,32.7,8.9,46.3c0.1,0.3,0.7,1.2,1.7,2.3c3.3,3.9,10.7,11.7,17.3,18.4c3.3,3.4,6.4,6.5,8.6,8.8c1.1,1.1,2.1,2.1,2.7,2.7
	c0.6,0.6,1,1,1,1L260,178l-0.1-0.2l32.9-25l0.1,0.2l-0.2,0.1c0,0-0.6-1.1-1.7-3c-7.8-13.4-39.1-67.2-42.9-73
	c-3.8-5.8-9.1-9.7-13.5-12.3c-2.2-1.3-4.1-2.2-5.5-2.7c-0.7-0.3-1.2-0.5-1.6-0.6c-0.4-0.1-0.6-0.2-0.6-0.2L227,61.1l0.2,0.1
	L227,61.1l0.1-0.2c0,0,13.6,4.3,21.4,16c4.4,6.6,44.7,76,44.7,76l0.1,0.1L260,178.3l-0.1-0.1c0,0-7.5-7.5-15.2-15.4
	c-3.8-4-7.7-8-10.7-11.3c-1.5-1.6-2.8-3.1-3.7-4.2c-1-1.1-1.6-2-1.7-2.4c-5.4-13.6-9-30.1-9-46.4c0-2.6,0.1-5.3,0.3-7.9
	c1-12.9,7-29.5,7-29.5l0.1-0.2l0.2,0.1L227,61.1z"/>
<g id="la_x7C_Top_x7C_accent_1_">
	<path fill="#1b5e20" d="M176.8,59.5c0,0,26.8,20.1,43,35c0.8,0.7,2.1,2.3,3.8,4.5C236.5,115.8,272,169,272,169l0,0l21-15.9
		c0,0-40.3-69.4-44.7-76C240.6,65.4,227,61.1,227,61.1s-25.6-8-37.4-17.2c-0.2,1-4.1,6.1-10.6,11.9L176.8,59.5z"/>
	<path fill="#1b5e20" d="M121.5,59.5c0,0-26.8,20.1-43,35c-0.8,0.7-2.1,2.3-3.8,4.5C61.7,115.8,26.2,169,26.2,169l0,0L5.3,153
		c0,0,40.3-69.4,44.7-76c7.7-11.6,21.3-15.9,21.3-15.9s25.6-8,37.4-17.2c0.2,1,4.1,6.1,10.6,11.9L121.5,59.5z"/>
</g>
<path fill="#1A1A1A" d="M176.8,59.5l0.1-0.2c0,0,26.8,20.1,43,35c0.8,0.7,2.1,2.3,3.8,4.6c13,16.8,48.4,70,48.4,70L272,169l-0.1-0.2
	l0,0l0.1,0.2l-0.1-0.2l21-15.9l0.1,0.2l-0.2,0.1c0,0-0.6-1.1-1.7-3c-7.8-13.4-39.1-67.3-42.9-73c-3.8-5.8-9.1-9.7-13.5-12.3
	c-2.2-1.3-4.1-2.2-5.5-2.7c-0.7-0.3-1.2-0.5-1.6-0.6c-0.4-0.1-0.6-0.2-0.6-0.2h0c0,0-25.6-8-37.4-17.2l0.1-0.2l0.2,0
	c-0.1,0.3-0.4,0.8-0.9,1.5c-1.5,2.2-4.9,6.1-9.8,10.5l-0.1-0.1l0.2,0.1l-2.3,3.6L176.8,59.5l0.1-0.2L176.8,59.5l-0.2-0.1l2.3-3.6
	l0,0c3.3-2.9,5.9-5.6,7.7-7.7c0.9-1.1,1.6-2,2.1-2.7c0.5-0.7,0.8-1.2,0.8-1.4l0.1-0.3l0.2,0.2c5.9,4.6,15.2,8.9,23.1,12
	c3.9,1.6,7.5,2.9,10.1,3.7c1.3,0.4,2.3,0.8,3.1,1c0.7,0.2,1.1,0.4,1.1,0.4h0c0,0,13.6,4.3,21.4,16c4.4,6.6,44.7,76,44.7,76l0.1,0.1
	l-21.1,16l0,0l-0.1,0l-0.1-0.1c0,0-0.6-0.8-1.5-2.3c-7-10.4-35.5-53-46.9-67.6c-1.7-2.2-3-3.8-3.8-4.5c-8.1-7.5-18.8-16.2-27.6-23.1
	c-4.4-3.4-8.2-6.4-11-8.5c-1.4-1.1-2.5-1.9-3.3-2.5c-0.8-0.6-1.2-0.9-1.2-0.9l-0.1-0.1l0.1-0.2L176.8,59.5z"/>
<path fill="#1A1A1A" d="M121.5,59.5l0.1,0.2c0,0-0.4,0.3-1.2,0.9c-5.3,4-27.6,21-41.8,34.1c-0.8,0.7-2.1,2.3-3.8,4.5
	c-6.5,8.4-18.6,25.9-29,41.2c-5.2,7.7-10.1,14.9-13.6,20.1c-1.8,2.6-3.2,4.8-4.2,6.3c-1,1.5-1.5,2.3-1.5,2.3l-0.1,0.1l-0.1,0l0,0
	L5,153.1l0.1-0.1c0,0,40.3-69.4,44.7-76c7.8-11.7,21.3-16,21.4-16l0,0l0,0c0,0,0.4-0.1,1.1-0.4c5-1.6,25.9-8.8,36.2-16.8l0.2-0.2
	l0.1,0.3c0,0.2,0.3,0.7,0.8,1.4c1.5,2.1,4.9,6.1,9.8,10.4l0,0l2.4,3.8l-0.1,0.1L121.5,59.5l-0.2,0.1L119,56l0.2-0.1l-0.1,0.1
	c-3.3-2.9-5.9-5.6-7.7-7.8c-0.9-1.1-1.6-2-2.1-2.7c-0.5-0.7-0.8-1.2-0.9-1.5l0.2,0l0.1,0.2c-11.9,9.2-37.4,17.2-37.4,17.2h0
	c0,0-0.2,0.1-0.6,0.2c-2.7,1-13.8,5.6-20.6,15.7c-2.2,3.3-13.4,22.3-24,40.4c-5.3,9.1-10.5,18-14.3,24.6c-1.9,3.3-3.5,6-4.6,8
	c-1.1,1.9-1.7,3-1.7,3L5.3,153l0.1-0.2l21,15.9l-0.1,0.2l0-0.2l0,0l0,0.2l-0.2-0.1c0,0,35.5-53.2,48.4-70c1.7-2.2,3-3.8,3.8-4.6
	c16.2-15,43-35,43-35L121.5,59.5l-0.2,0.1L121.5,59.5z"/>
<path id="la_x7C_Accent_x7C_acc2_1_" fill="#000000" d="M151.1,72.8c-0.5,0-1,0-1.5,0c-19.1-0.4-42.9-27-43-27.3l6.3-4.4
	c0,0,5.5,6.3,13.1,12.5c9.7,7.9,22.2,16.5,24.1,19.3c0.3,0.4,1.1,0.4,1.4,0c5-7.2,31.7-22,33.8-30.5c0.1-0.5,0.4-1,0.5-1.2l5.8,4.2
	C189.2,54.7,164.9,72.8,151.1,72.8"/>
<path fill="none" stroke="#1A1A1A" stroke-width="4.902834e-002" stroke-miterlimit="10" d="M151.1,72.8c-0.5,0-1,0-1.5,0
	c-19.1-0.4-42.9-27-43-27.3l6.3-4.4c0,0,5.5,6.3,13.1,12.5c9.7,7.9,22.2,16.5,24.1,19.3c0.3,0.4,1.1,0.4,1.4,0
	c5-7.2,31.7-22,33.8-30.5c0.1-0.5,0.4-1,0.5-1.2l5.8,4.2C189.2,54.7,164.9,72.8,151.1,72.8z"/>
<g id="la_x7C_Side_Color_x7C_side_7_">
	<path fill="#7b1fa2" d="M90.1,324.9c-2.9,8.5-9.6,92.4-5.9,138.5l2.1,22.1c-10.4-0.8-19-2.8-20.3-4.7c-0.5-11.6-9.3-97.1-3.7-122.8
		c2.7-12.4,9.7-39.5,14.9-66.4c2.8-14.3,5-28.5,5.8-40.4c1.3-19.5-5.4-62.4-9.8-87.4c1.5,1.7,16.8,19.5,22.9,41.1
		c5.8,20.7,5.7,20,9.2,37.4c3,14.9,4.6,20.5,6.8,30.5C112.1,273.3,94,313.6,90.1,324.9"/>
	<path fill="#7b1fa2" d="M208.1,324.9c2.9,8.5,9.6,92.4,5.9,138.5l-2.1,22.1c10.4-0.8,19-2.8,20.3-4.7c0.5-11.6,9.3-97.1,3.7-122.8
		c-2.7-12.4-9.7-39.5-14.9-66.4c-2.8-14.3-5-28.5-5.8-40.4c-1.3-19.5,5.4-62.4,9.8-87.4c-1.5,1.7-16.8,19.5-22.9,41.1
		c-5.8,20.7-5.7,20-9.2,37.4c-3,14.9-4.6,20.5-6.8,30.5C186.1,273.3,204.2,313.6,208.1,324.9"/>
</g>
<path fill="#1A1A1A" d="M208.1,324.9l0.2-0.1c0.6,1.7,1.3,6.4,2.1,13.2c2.3,20.3,4.9,59.4,4.9,93.3c0,11.6-0.3,22.7-1.1,32.1
	l-2.1,22.1l-0.2,0l0-0.2c5.2-0.4,9.9-1.1,13.5-1.9c1.8-0.4,3.3-0.9,4.5-1.3c1.1-0.5,1.9-1,2.2-1.4l0.2,0.1l-0.2,0
	c0.4-8.8,5.6-60.5,5.6-96c0-11.1-0.5-20.7-1.8-26.8c-2.7-12.4-9.7-39.5-14.9-66.4c-2.8-14.3-5-28.5-5.8-40.4
	c-0.1-1.7-0.2-3.5-0.2-5.5c0-21.3,6-59.1,9.9-82l0.2,0l0.1,0.1c-1.5,1.7-16.8,19.5-22.8,41c-5.8,20.7-5.7,19.9-9.2,37.4
	c-3,14.9-4.6,20.5-6.8,30.5l-0.2,0h0.2l0,0l-0.2,0h0.2h-0.1l0.1,0l0,0h-0.1l0.1,0c0,0,0.1,0.3,0.2,0.6c2.1,5.3,18.1,40.9,21.6,51.5
	L208.1,324.9l-0.2,0.1c-1.9-5.6-7.4-18.5-12.3-30c-2.5-5.8-4.9-11.2-6.6-15.2c-0.9-2-1.6-3.7-2.1-4.9c-0.3-0.6-0.4-1.1-0.6-1.4
	c-0.1-0.2-0.1-0.3-0.2-0.4c0-0.1-0.1-0.2-0.1-0.3l0-0.1c2.3-10,3.8-15.6,6.8-30.5c3.5-17.4,3.4-16.7,9.2-37.4
	c6.1-21.6,21.4-39.4,22.9-41.1l0.5-0.5l-0.1,0.7c-4,22.8-9.9,60.7-9.9,81.9c0,2,0.1,3.8,0.2,5.4c0.8,11.8,3,26,5.8,40.3
	c5.2,26.8,12.2,54,14.9,66.4c1.3,6.2,1.8,15.7,1.8,26.8c0,35.5-5.2,87.2-5.6,96l0,0.1l0,0c-0.4,0.6-1.2,1-2.4,1.5
	c-3.5,1.4-10.3,2.7-18.1,3.3l-0.2,0l2.1-22.3l0.2,0l-0.2,0c0.7-9.4,1.1-20.4,1.1-32.1c0-22.6-1.2-47.5-2.6-67.6
	c-0.7-10.1-1.5-18.9-2.3-25.7c-0.8-6.8-1.5-11.4-2-13.1L208.1,324.9z"/>
<g id="la_x7C_Side_Color_x7C_side_2_">
	<path fill="#7b1fa2" d="M112,272.7c0.1,0.5-18,40.8-21.9,52.2c0,0-4.9-16.5-13.1-33.3h0c2.8-14.3,5-28.5,5.8-40.4
		c1.3-19.5-5.4-62.4-9.8-87.4c1.5,1.7,16.8,19.5,22.9,41.1c5.8,20.7,5.7,20,9.2,37.4C108.1,257.2,109.7,262.7,112,272.7"/>
	<path fill="#7b1fa2" d="M186.2,272.7c-0.1,0.5,18,40.8,21.9,52.2c0,0,4.9-16.5,13.1-33.3h0c-2.8-14.3-5-28.5-5.8-40.4
		c-1.3-19.5,5.4-62.4,9.8-87.4c-1.5,1.7-16.8,19.5-22.9,41.1c-5.8,20.7-5.7,20-9.2,37.4C190.1,257.2,188.5,262.7,186.2,272.7"/>
</g>
<path fill="#1A1A1A" d="M90.1,324.9l0.2,0.1c-0.6,1.7-1.3,6.3-2,13.1c-2.3,20.3-4.9,59.4-4.9,93.3c0,11.6,0.3,22.6,1.1,32.1l-0.2,0
	l0.2,0l2.1,22.3l-0.2,0c-5.2-0.4-10-1.1-13.6-1.9c-1.8-0.4-3.3-0.9-4.5-1.4c-1.2-0.5-2-1-2.4-1.5l0,0l0-0.1
	c-0.4-8.8-5.6-60.5-5.6-96c0-11.1,0.5-20.7,1.8-26.8c2.7-12.4,9.7-39.6,14.9-66.4c2.8-14.3,5-28.5,5.8-40.3c0.1-1.7,0.2-3.5,0.2-5.4
	c0-21.2-6-59.1-9.9-81.9l-0.1-0.7l0.5,0.5c1.5,1.7,16.8,19.5,22.9,41.1c5.8,20.7,5.7,20,9.2,37.4c3,14.9,4.6,20.5,6.8,30.5l0,0.1
	c0,0.1,0,0.1-0.1,0.3c-0.3,0.8-1.5,3.7-3.3,7.9c-5.4,12.5-15.7,35.9-18.5,44.1L90.1,324.9l-0.2-0.1c1.9-5.7,7.4-18.5,12.4-30
	c2.5-5.8,4.9-11.2,6.6-15.2c0.9-2,1.6-3.7,2.1-4.9c0.2-0.6,0.4-1.1,0.6-1.4c0.1-0.2,0.1-0.3,0.1-0.4l0-0.1l0,0v0l0.1,0h-0.1v0l0.1,0
	h-0.1h0.2l-0.2,0l0,0h0.2l-0.2,0c-2.3-10-3.8-15.6-6.8-30.5c-3.5-17.4-3.4-16.6-9.2-37.4c-6.1-21.5-21.4-39.3-22.8-41l0.1-0.1l0.2,0
	c4,22.9,9.9,60.7,9.9,82c0,2-0.1,3.8-0.2,5.5c-0.8,11.9-3,26.1-5.8,40.4c-5.2,26.8-12.2,54-14.9,66.4c-1.3,6.1-1.8,15.6-1.8,26.8
	c0,35.5,5.2,87.2,5.6,96l-0.2,0l0.2-0.1c0.3,0.4,1.1,0.9,2.2,1.4c3.4,1.4,10.2,2.7,18,3.2l0,0.2l-0.2,0L84,463.5
	C83.3,454,83,443,83,431.4c0-22.6,1.2-47.5,2.6-67.6c0.7-10.1,1.5-18.9,2.3-25.7c0.8-6.8,1.5-11.4,2.1-13.2L90.1,324.9z"/>
<path fill="#1A1A1A" d="M112,272.7l0.2,0l0,0.1c0,0.1,0,0.1-0.1,0.3c-0.3,0.8-1.5,3.7-3.3,7.9c-5.4,12.5-15.7,35.9-18.5,44.1
	l-0.2,0.6L90,325c0,0-0.3-1-0.9-2.8c-1.8-5.4-6-17.8-12.2-30.4l0.2-0.1v0.2h-0.2l0-0.2c2.8-14.3,5-28.5,5.8-40.3
	c0.1-1.7,0.2-3.5,0.2-5.4c0-21.2-6-59.1-9.9-81.9l-0.1-0.7l0.5,0.5c1.5,1.7,16.8,19.5,22.9,41.1c5.8,20.7,5.7,20,9.2,37.4
	c3,14.9,4.6,20.5,6.8,30.5L112,272.7l-0.2,0c-2.3-10-3.8-15.6-6.8-30.5c-3.5-17.4-3.4-16.6-9.2-37.4c-6.1-21.5-21.4-39.3-22.8-41
	l0.1-0.1l0.2,0c4,22.9,9.9,60.7,9.9,82c0,2-0.1,3.8-0.2,5.5c-0.8,11.9-3,26.1-5.8,40.4l-0.2,0v-0.2h0.1l0.1,0.1
	c8.2,16.9,13.1,33.3,13.1,33.3l-0.2,0.1l-0.2-0.1c1.9-5.7,7.4-18.5,12.4-30c2.5-5.8,4.9-11.2,6.6-15.2c0.9-2,1.6-3.7,2.1-4.9
	c0.3-0.6,0.4-1.1,0.6-1.4c0.1-0.2,0.1-0.3,0.1-0.4l0-0.1l0,0v0L112,272.7l-0.2,0l0,0L112,272.7l-0.2,0L112,272.7l-0.2,0l0,0
	L112,272.7l-0.2,0L112,272.7z"/>
<path fill="#1A1A1A" d="M186.2,272.7l0.2,0L186.2,272.7l0.2,0l0,0L186.2,272.7l0.2,0L186.2,272.7l0.2,0l0,0L186.2,272.7l0.2,0
	c0,0,0.1,0.3,0.2,0.6c2.1,5.3,18.1,40.9,21.6,51.5l-0.2,0.1l-0.2-0.1c0,0,4.9-16.5,13.1-33.3l0.1-0.1h0.1v0.2l-0.2,0
	c-2.8-14.3-5-28.5-5.8-40.4c-0.1-1.7-0.2-3.5-0.2-5.5c0-21.3,6-59.1,9.9-82l0.2,0l0.1,0.1c-1.5,1.7-16.8,19.5-22.8,41
	c-5.8,20.7-5.7,19.9-9.2,37.4c-3,14.9-4.6,20.5-6.8,30.5L186.2,272.7l-0.2,0c2.3-10,3.8-15.6,6.8-30.5c3.5-17.4,3.4-16.7,9.2-37.4
	c6.1-21.6,21.4-39.4,22.9-41.1l0.5-0.5l-0.1,0.7c-4,22.8-9.9,60.7-9.9,81.9c0,2,0.1,3.8,0.2,5.4c0.8,11.8,3,26,5.8,40.3l0,0.2h-0.2
	v-0.2l0.2,0.1c-4.1,8.4-7.3,16.7-9.6,22.9c-1.1,3.1-2,5.7-2.6,7.5c-0.6,1.8-0.9,2.8-0.9,2.8l-0.2,0.6l-0.2-0.6
	c-1.9-5.6-7.4-18.5-12.3-30c-2.5-5.8-4.9-11.2-6.6-15.2c-0.9-2-1.6-3.7-2.1-4.9c-0.3-0.6-0.4-1.1-0.6-1.4c-0.1-0.2-0.1-0.3-0.2-0.4
	c0-0.1-0.1-0.2-0.1-0.3l0-0.1L186.2,272.7z"/>
<g id="la_x7C_Accent_x7C_acc2">
	<path fill="#000000" d="M234,462.3c0,0-30.1,6.7-64.9-1.7l3,18c0,0,5.9,7.4,31.3,7.3c21.8-0.1,29.1-4.5,29.1-4.5L234,462.3z"/>
	<path fill="#000000" d="M64.4,461.1c0,0,31.6,6.5,65.1-0.6l-3.4,18.2c0,0-5.9,7.4-31.3,7.3c-21.8-0.1-29.1-4.5-29.1-4.5L64.4,461.1
		z"/>
</g>
<path fill="none" stroke="#2B2D2F" stroke-width="4.902834e-002" stroke-miterlimit="10" d="M234,462.3c0,0-30.1,6.7-64.9-1.7l3,18
	c0,0,5.9,7.4,31.3,7.3c21.8-0.1,29.1-4.5,29.1-4.5L234,462.3z"/>
<path fill="none" stroke="#2B2D2F" stroke-width="4.902834e-002" stroke-miterlimit="10" d="M64.4,461.1c0,0,31.6,6.5,65.1-0.6
	l-3.4,18.2c0,0-5.9,7.4-31.3,7.3c-21.8-0.1-29.1-4.5-29.1-4.5L64.4,461.1z"/>
<path fill="#8F9096" d="M26.2,168.7L5.6,152.8c0.2-0.4,0.6-1,1.1-1.8l2.1-3.1l20.5,16.3l-0.3,0.5c-1.3,2-2.2,3.3-2.6,3.9L26.2,168.7
	z"/>
<path fill="#1A1A1A" d="M5.6,152.8l-0.1-0.1l1.2-1.7C6.2,151.8,5.8,152.4,5.6,152.8 M26.3,168.6c0.4-0.6,1.3-1.9,2.6-3.9L26.3,168.6
	z"/>
<path fill="#8F9096" d="M5.1,152.9L5,152.8v0l1.4-2C5.7,151.9,5.2,152.7,5.1,152.9 M26.3,169.2l-0.1-0.1L26.3,169.2L26.3,169.2z"/>
<path fill="#8F9096" d="M26.6,168.8c0.2-0.3,0.7-1.1,1.4-2.1c0.4-0.5,0.8-1.1,1.2-1.8L26.6,168.8z"/>
<path fill="#373738" d="M5.1,152.9L5.1,152.9c0.1-0.2,0.5-0.9,1.2-2.1l0,0C5.7,151.9,5.2,152.7,5.1,152.9 M26.3,169.2l-0.1-0.1l0,0
	L26.3,169.2L26.3,169.2z"/>
<path fill="#8F9096" d="M8.7,147.6l0.2,0.1L8.7,147.6z M28.9,164.7l0.3-0.5L8.8,147.9L6.7,151c0.1-0.3,0.3-0.5,0.5-0.8
	c0.5-0.8,1-1.7,1.6-2.7l0.1,0.1l20.6,16.4C29.2,164.1,29.1,164.4,28.9,164.7z M26.2,168.7L5.5,153c0-0.1,0.1-0.1,0.1-0.2L26.2,168.7
	l0.1-0.1C26.2,168.6,26.2,168.7,26.2,168.7z"/>
<path fill="#1A1A1A" d="M26.3,169.2l-0.1,0l0,0l-21-16.3c0.1-0.2,0.5-0.9,1.2-2.1l2.3-3.4l0.1,0.1c-0.6,1-1.1,2-1.6,2.7
	c-0.2,0.3-0.3,0.6-0.5,0.8l-1.2,1.7l0.1,0.1c0,0.1-0.1,0.1-0.1,0.2l20.7,15.7c0,0,0-0.1,0.1-0.1l2.6-3.9c0.2-0.3,0.4-0.6,0.6-0.8
	l0.3,0.2l-0.6,0.8c-0.5,0.7-0.9,1.3-1.2,1.8c-0.7,1-1.2,1.7-1.4,2.1L26.3,169.2z"/>
<path fill="#8F9096" d="M272.1,168.7l-2.8-4.1c-0.1-0.1-0.2-0.2-0.2-0.4l20.5-16l3.2,4.8L272.1,168.7z"/>
<path fill="#1A1A1A" d="M269.3,164.5l-0.2-0.4C269.1,164.3,269.2,164.4,269.3,164.5"/>
<path fill="#8F9096" d="M293.2,153.1L293.2,153.1l-0.1-0.1c0,0,0,0,0,0L293.2,153.1L293.2,153.1L293.2,153.1z M272,169.2L272,169.2
	l0.1-0.1l0,0L272,169.2z"/>
<path fill="#8F9096" d="M269,164.8l-0.5-0.7v0C268.7,164.4,268.8,164.6,269,164.8"/>
<path fill="#373738" d="M293.2,153.1l-0.1-0.1c0,0,0,0,0,0l0,0c0,0,0,0,0,0L293.2,153.1L293.2,153.1z M272,169.2L272,169.2
	L272,169.2l0.1-0.1L272,169.2z"/>
<path fill="#8F9096" d="M272,168.7c-0.3-0.5-1.3-1.9-2.8-4.1L272,168.7l20.7-15.7l-3.2-4.8l-20.5,16c-0.1-0.1-0.1-0.2-0.2-0.3
	l20.8-16.2h0l0.1,0.2l0.1,0.2c0.5,0.8,0.9,1.5,1.2,2.1c0.9,1.5,1.4,2.5,1.7,2.8L272,168.7z"/>
<path fill="#1A1A1A" d="M271.9,169.2l-2.9-4.3c-0.2-0.2-0.3-0.5-0.5-0.7l0.3-0.2c0.1,0.1,0.1,0.2,0.2,0.3h0l0.2,0.4
	c1.5,2.2,2.5,3.7,2.8,4.1l20.7-15.7c-0.2-0.4-0.8-1.3-1.7-2.8c-0.4-0.6-0.8-1.3-1.2-2.1l3.3,4.9c0,0,0,0,0,0l0.1,0.1l-21.1,16l0,0
	l0,0L271.9,169.2z"/>
<path fill="#8F9096" d="M186.1,272.5c-6.1-1.8-12.4-3-18.7-3.7c-6-0.7-11.9-1-17.3-1c-20.5,0-35.8,4.2-37.7,4.7l-1.9-7.4
	c0.1,0,0.3-0.1,0.6-0.1c0.5-0.1,1.3-0.3,2.4-0.5c2-0.4,5-1,8.7-1.5c7.3-1.1,17.4-2.2,28.7-2.2c0,0,0,0,0,0c11.8,0,24.7,1.2,36.9,4.9
	c0,0.1-0.1,0.2-0.1,0.3C187.1,268,186.6,270.1,186.1,272.5"/>
<path fill="#1A1A1A" d="M186.1,272.5c-6.3-1.8-12.6-3-18.7-3.7C173.6,269.5,179.9,270.7,186.1,272.5
	C186.1,272.5,186.1,272.5,186.1,272.5"/>
<path fill="#1A1A1A" d="M186.1,272.5C186.1,272.5,186.1,272.5,186.1,272.5c0.5-2.4,1-4.5,1.5-6.6C187.1,268,186.6,270.1,186.1,272.5
	L186.1,272.5z"/>
<path fill="#1A1A1A" d="M186.1,272.5c0.5-2.4,1-4.5,1.5-6.5c0-0.1,0.1-0.2,0.1-0.3c0,0,0,0,0,0L186.1,272.5z"/>
<path fill="#8F9096" d="M112.1,272.5c-0.6-2.8-1.2-5.3-1.8-7.8c1.8-0.4,19-4.3,40.2-4.4h0.5c11.7,0,24.6,1.2,36.7,4.9
	c0,0.1-0.1,0.3-0.1,0.4c-12.2-3.7-25.2-4.9-36.9-4.9c0,0,0,0,0,0c-11.2,0-21.3,1.1-28.7,2.2c-3.7,0.6-6.6,1.1-8.7,1.5
	c-1,0.2-1.8,0.4-2.4,0.5c-0.3,0.1-0.5,0.1-0.6,0.1l1.9,7.4c1.9-0.5,17.2-4.7,37.7-4.7c5.5,0,11.3,0.3,17.3,1
	c-5.4-0.6-10.7-0.8-15.7-0.8C131,267.9,114.1,272,112.1,272.5"/>
<path fill="#8F9096" d="M186,272.9c-6.3-1.8-12.6-3-18.7-3.7C173.6,269.9,179.9,271.1,186,272.9C186,272.9,186,272.9,186,272.9
	 M112.2,272.9C112.2,272.9,112.2,272.9,112.2,272.9c0,0,0.1,0,0.1,0L112.2,272.9z"/>
<path fill="#1A1A1A" d="M112.2,272.9c0-0.1,0-0.1,0-0.2l0-0.1c0-0.1,0-0.1,0-0.2c2-0.5,18.9-4.6,39.5-4.6c5.1,0,10.4,0.2,15.7,0.8
	c6.1,0.7,12.3,1.9,18.7,3.7c0,0.1,0,0.1,0,0.2l0,0.1c0,0.1,0,0.1,0,0.1c-6.1-1.8-12.4-3-18.7-3.7c-6-0.7-11.8-1-17.3-1
	c-10.9,0-20.4,1.2-27.1,2.4c-3.4,0.6-6,1.2-7.9,1.6c-0.9,0.2-1.6,0.4-2.1,0.5c-0.5,0.1-0.7,0.2-0.7,0.2l0,0
	C112.2,272.9,112.2,272.9,112.2,272.9"/>
<path fill="#1A1A1A" d="M112.2,272.9c0-0.1,0-0.1,0-0.2l0-0.1c-0.7-2.9-1.3-5.5-1.9-8c0.6,2.5,1.2,5,1.8,7.8c0,0.1,0,0.1,0,0.2
	l0,0.1C112.2,272.8,112.2,272.9,112.2,272.9C112.2,272.9,112.2,272.9,112.2,272.9"/>
<path fill="#1A1A1A" d="M112.1,272.9L110,265l0.2,0l0-0.2c0,0,0.1,0,0.1,0c0.6,2.5,1.2,5.1,1.9,8l0,0.1
	C112.2,272.8,112.2,272.9,112.1,272.9L112.1,272.9z"/>
<path fill="#1A1A1A" d="M186,272.9C186,272.9,186,272.9,186,272.9c0-0.1,0-0.1,0-0.1l0-0.1c0-0.1,0-0.1,0-0.2l0,0
	c0,0.1,0,0.2-0.1,0.2l0,0.1C186,272.8,186,272.9,186,272.9"/>
<path fill="#8F9096" d="M186.5,272.5c0.6-2.6,1.1-4.9,1.7-7.2l0,0v0L186.5,272.5z M186.2,272.8L186.2,272.8L186.2,272.8z"/>
<path fill="#1A1A1A" d="M186.2,272.8L186.2,272.8L186.2,272.8z M186.3,273L186.3,273l-0.2-0.1c0,0-0.1,0-0.1,0c0,0,0-0.1,0-0.1
	l0-0.1c0-0.1,0-0.2,0.1-0.2l1.6-6.9c0,0,0,0,0,0c0-0.1,0.1-0.3,0.1-0.4c0.1,0,0.1,0,0.2,0.1l0.2,0.1c-0.5,2.3-1.1,4.6-1.7,7.2
	L186.3,273z"/>
<path fill="none" stroke="#2B2D2F" stroke-width="4.902834e-002" stroke-miterlimit="10" stroke-dasharray="0.2995,0.2995" d="
	M266.9,161.4L254,171.7 M267.6,162.3l-12.9,10.3 M31.4,161.4l12.9,10.3 M30.7,162.3l12.9,10.3"/>
<path fill="#1A1A1A" d="M152.8,268.1l-4.1-0.1c-0.1,0-0.2-0.1-0.2-0.2l0.1-193.3c0-0.1,0.1-2.8,0.2-2.8l1.9,0l2.4,0
	c0.1,0,0.2,2.7,0.2,2.8L153,267.9C153,268,152.9,268.1,152.8,268.1"/>
<path fill="none" stroke="#2B2D2F" stroke-width="4.902834e-002" stroke-miterlimit="10" d="M152.8,268.1l-4.1-0.1
	c-0.1,0-0.2-0.1-0.2-0.2l0.1-193.3c0-0.1,0.1-2.8,0.2-2.8l1.9,0l2.4,0c0.1,0,0.2,2.7,0.2,2.8L153,267.9
	C153,268,152.9,268.1,152.8,268.1z"/>
<path fill="#FFFFFF" d="M150.7,377l0.1-305.3L150.7,377z"/>
<line fill="none" stroke="#2B2D2F" stroke-width="4.902834e-002" stroke-miterlimit="10" x1="150.7" y1="377" x2="150.8" y2="71.7"/>
<path fill="#1A1A1A" d="M151.7,88.2c-0.6,0.3-1.2,0.3-1.9,0l-0.1-0.2c-0.9-3.3-1-7.7-0.6-11.2c0-0.2,0.3-0.3,0.4-0.1
	c0.6,1.1,1.9,1.1,2.5,0c0.1-0.2,0.4-0.1,0.4,0.1c0.3,3.5,0.3,8-0.6,11.3L151.7,88.2z"/>
<path fill="none" stroke="#2B2D2F" stroke-width="4.902834e-002" stroke-miterlimit="10" d="M151.7,88.2c-0.6,0.3-1.2,0.3-1.9,0
	l-0.1-0.2c-0.9-3.3-1-7.7-0.6-11.2c0-0.2,0.3-0.3,0.4-0.1c0.6,1.1,1.9,1.1,2.5,0c0.1-0.2,0.4-0.1,0.4,0.1c0.3,3.5,0.3,8-0.6,11.3
	L151.7,88.2z"/>
<path id="la_x7C_body_Color_x7C_body_1_" fill="#e91e63" d="M523.4,483.1c-3.3,4.7-48,9.5-60.1-2.2l-16.6-92.4c-1-7-2.9-9.2-5.8-9.2
	c-3,0-5.4,2.2-6.4,9.2l-17.4,92.4c-12.1,11.7-56.9,6.9-60.1,2.2c-0.5-11.6-9.3-97.1-3.7-122.8c2.4-11,8.2-33.7,13.1-57.5
	c1.2-6,2.4-12.2,3.5-18.2c2-11.1,3.5-21.8,4.1-31.1c1.9-28.4-13.2-106.5-13.2-106.5c0-4.6,0.1-9,0.1-13.4c0.1-40.6-1.1-70-1.1-70
	s26.1-7.6,37.9-16.8l0.6-0.4c2.5,1.5,5.4,3.1,8.7,4.6c0,0,28.2,15.8,63.6,1.5c8.1-3,12.8-6,12.8-6c11.8,9.2,38.5,16.9,38.5,16.9
	s5,49.9-2,83.6c0,0-15.1,78.1-13.2,106.5c0.6,9.3,2.1,20,4.1,31.1c5.2,29.6,13.6,61.8,16.6,75.6
	C532.7,385.9,523.9,471.5,523.4,483.1"/>
<path fill="#2B2D2F" d="M523.4,483.1l0.2,0.1c-0.5,0.7-1.7,1.3-3.5,1.9c-5.3,1.8-15.7,3.2-26.4,3.2c-12.3,0-24.8-1.9-30.5-7.3l0,0
	l-16.6-92.5l0,0c-0.5-3.5-1.2-5.8-2.1-7.1c-0.9-1.4-2.1-1.8-3.5-1.9c-1.5,0-2.7,0.5-3.8,1.9c-1.1,1.4-1.9,3.6-2.4,7.2l0,0L417.3,481
	l0,0c-5.7,5.5-18.3,7.3-30.5,7.3c-7.1,0-14.1-0.6-19.6-1.6c-2.7-0.5-5.1-1-6.8-1.6c-1.8-0.6-3-1.2-3.5-1.9l0,0l0-0.1
	c-0.4-8.8-5.6-60.5-5.6-96c0-11.1,0.5-20.7,1.8-26.9c2.4-11,8.2-33.7,13.1-57.5c1.2-6,2.4-12.2,3.5-18.2c2-11.1,3.5-21.8,4.1-31.1
	c0.1-1.7,0.2-3.5,0.2-5.4c0-15.9-3.3-41.1-6.7-62.4c-1.7-10.6-3.3-20.3-4.6-27.3c-0.6-3.5-1.2-6.3-1.5-8.3c-0.4-2-0.6-3-0.6-3l0,0
	l0,0c0-4.6,0.1-9,0.1-13.4c0-1.4,0-2.8,0-4.2c0-19.2-0.3-35.7-0.6-47.3c-0.1-5.8-0.3-10.5-0.4-13.6c-0.1-3.2-0.2-4.9-0.2-4.9l0-0.2
	l0.1,0c0,0,0.4-0.1,1.1-0.3c5.1-1.6,26.4-8.4,36.7-16.4l0,0l0.6-0.4l0.1-0.1l0.1,0.1c2.5,1.5,5.4,3.1,8.6,4.6l0,0l0,0
	c0,0,0.2,0.1,0.6,0.3c2.8,1.4,15.2,7.1,32.5,7.1c9,0,19.3-1.5,30.3-6l0,0l0,0c4.1-1.5,7.2-3,9.4-4.1c1.1-0.6,1.9-1,2.5-1.4
	c0.3-0.2,0.5-0.3,0.6-0.4l0.2-0.1c0.1-0.1,0.1-0.1,0.2-0.1l0.1,0c5.9,4.6,15.5,8.8,23.6,11.9c4.1,1.5,7.8,2.8,10.5,3.7
	c1.3,0.4,2.4,0.8,3.2,1c0.8,0.2,1.2,0.3,1.2,0.3l0.1,0l0,0.1c0,0,1.7,17.3,1.7,38.5c0,14.7-0.8,31.3-3.7,45.1l-0.2,0l0.2,0
	c0,0-0.2,1.1-0.6,3c-2.6,13.7-12.8,70.1-12.8,97.9c0,2,0.1,3.8,0.2,5.5c0.6,9.3,2.1,20,4.1,31.1c5.2,29.6,13.5,61.8,16.6,75.6
	c1.3,6.2,1.8,15.7,1.8,26.9c0,35.5-5.2,87.2-5.6,96l0,0.1l0,0L523.4,483.1l-0.2,0c0.4-8.8,5.6-60.5,5.6-96c0-11.1-0.5-20.7-1.8-26.8
	c-3-13.8-11.4-46-16.6-75.6c-2-11.1-3.5-21.9-4.1-31.2c-0.1-1.7-0.2-3.5-0.2-5.5c0-31.9,13.4-101,13.4-101.1l0,0l0,0
	c2.8-13.8,3.7-30.4,3.7-45.1c0-10.6-0.4-20.2-0.9-27.1c-0.2-3.5-0.4-6.3-0.6-8.3c-0.2-2-0.3-3-0.3-3l0.2,0l-0.1,0.2
	c0,0-26.7-7.8-38.6-17l0.1-0.2v0.2v-0.2l0.1,0.2l-0.1,0v-0.2l0.1,0.2l-0.1-0.2l0.1,0.2l0,0l-0.1-0.2l0.1,0.2
	c-0.1,0.1-4.7,3.1-12.8,6.1l-0.1-0.2l0.1,0.2c-11.1,4.5-21.4,6-30.4,6c-19.9,0-33.3-7.5-33.3-7.5l0.1-0.2l-0.1,0.2
	c-3.3-1.5-6.2-3.1-8.7-4.6l0.1-0.2l0.1,0.2l-0.6,0.4l-0.1-0.2l0.1,0.2c-11.9,9.2-37.9,16.8-37.9,16.8l-0.1-0.2l0.2,0
	c0,0,1.1,27.4,1.1,65.9c0,1.4,0,2.8,0,4.2c0,4.3,0,8.8-0.1,13.4l-0.2,0l0.2,0c0,0,13.4,69.2,13.4,101.1c0,2-0.1,3.8-0.2,5.5
	c-0.6,9.3-2.1,20.1-4.1,31.2c-1.1,6-2.2,12.1-3.5,18.2c-4.9,23.8-10.7,46.4-13.1,57.5c-1.3,6.1-1.8,15.6-1.8,26.8
	c0,35.5,5.2,87.2,5.6,96l-0.2,0l0.2-0.1c0.4,0.6,1.6,1.2,3.3,1.8c5.2,1.8,15.6,3.2,26.3,3.2c12.2,0,24.8-1.9,30.3-7.2l0.1,0.1
	l-0.2,0l17.4-92.4l0.2,0l-0.2,0c0.5-3.5,1.3-5.9,2.5-7.3c1.1-1.5,2.5-2,4.1-2c1.5,0,2.8,0.6,3.8,2c1,1.5,1.7,3.8,2.2,7.3l-0.2,0
	l0.2,0l16.6,92.4l-0.2,0l0.1-0.1c5.5,5.3,18.1,7.2,30.3,7.2c7.1,0,14.1-0.6,19.5-1.6c2.7-0.5,5-1,6.8-1.6c1.7-0.6,2.9-1.2,3.3-1.8
	L523.4,483.1l-0.2,0L523.4,483.1z"/>
<path id="la_x7C_Body_Color_x7C_body_1_" fill="#e91e63" d="M487.4,234.1l-0.5,34.6c-3.5-1-7-1.3-10-0.6
	c-35.6,8.2-49.9,3.9-73.5,0.4c-2.8-0.4-5.8,0-8.9,1l-5-31.4l2.8-3.8l32.5-14.7h30.8L487.4,234.1z"/>
<path fill="#1A1A1A" d="M487.4,234.1l0.2,0l-0.5,34.9l-0.2-0.1c-2.2-0.6-4.4-0.9-6.4-0.9c-1.2,0-2.4,0.1-3.5,0.4
	c-15.1,3.5-26.3,4.7-36.1,4.7c-13.3,0-23.8-2.3-37.4-4.3c-0.7-0.1-1.4-0.2-2.2-0.2c-2.1,0-4.4,0.4-6.7,1.1l-0.2,0.1l-5-31.7l2.9-3.9
	l32.6-14.7h30.9l31.9,14.4l0,0.1L487.4,234.1l-0.1,0.2l-31.7-14.4h-30.7l-32.4,14.6l-2.8,3.7l5,31.3l-0.2,0l-0.1-0.2
	c2.3-0.7,4.6-1.1,6.8-1.1c0.8,0,1.5,0.1,2.2,0.2c13.6,2,24.1,4.3,37.4,4.3c9.7,0,21-1.2,36-4.7c1.1-0.3,2.3-0.4,3.6-0.4
	c2.1,0,4.3,0.3,6.5,0.9l-0.1,0.2l-0.2,0l0.5-34.6L487.4,234.1l-0.1,0.2L487.4,234.1z"/>
<g id="la_x7C_Side_Color_x7C_side_5_">
	<path id="la_x7C_Side_Color_x7C_side_3_" fill="#7b1fa2" d="M397,268.9L397,268.9c-0.9,0.2-1.7,0.4-2.6,0.7
		c-12,3.7-24.7,15.1-24.7,15.1h0c2-11.1,3.5-21.8,4.1-31.1c1.3-19.1-5.2-60.7-9.5-85.8c-2.1-12.3-3.7-20.6-3.7-20.6
		c0-4.6,0.1-9,0.1-13.4l4.1-16.2c0,0,5.2,14,11.6,37.6c5.3,19.3,11.5,45.1,16.4,75C394.5,240.2,395.9,251.1,397,268.9"/>
	<path id="la_x7C_Side_Color_x7C_side_4_" fill="#7b1fa2" d="M374.4,147.6c-0.6,3-5.6,13.1-10,20c-2.1-12.3-3.7-20.6-3.7-20.6
		c0-4.6,0.1-9,0.1-13.4l4.1-16.2C364.8,117.5,367.9,124,374.4,147.6"/>
</g>
<path fill="#1A1A1A" d="M397,268.9l0.2,0.1l0,0l0,0.1l-0.1,0c-0.8,0.2-1.7,0.4-2.5,0.7c-6,1.8-12.1,5.6-16.8,8.9
	c-2.3,1.7-4.3,3.2-5.7,4.3c-0.7,0.6-1.2,1-1.6,1.3c-0.4,0.3-0.6,0.5-0.6,0.5l-0.1,0h-0.3l0-0.2c2-11.1,3.5-21.8,4.1-31.1
	c0.1-1.7,0.2-3.5,0.2-5.4c0-20.7-5.7-57.4-9.6-80.4c-1.1-6.1-2-11.3-2.7-14.9c-0.3-1.8-0.6-3.2-0.8-4.2c-0.2-1-0.3-1.5-0.3-1.5l0,0
	v0c0-4.6,0.1-9,0.1-13.4v0l4.2-16.8l0.2,0.6c0,0,5.2,14,11.6,37.6c5.3,19.3,11.5,45.1,16.4,75c1.7,10.1,3,21.1,4.2,38.9l0,0l0,0
	L397,268.9l-0.2,0c-1.2-17.8-2.5-28.7-4.2-38.8c-4.9-29.9-11.1-55.6-16.4-75c-3.2-11.8-6.1-21.2-8.2-27.6c-1-3.2-1.9-5.7-2.5-7.4
	c-0.6-1.7-0.9-2.5-0.9-2.5l0.2-0.1l0.2,0l-4.1,16.2l-0.2,0h0.2c0,4.3,0,8.8-0.1,13.4l-0.2,0l0.2,0c0,0,1.6,8.4,3.7,20.6
	c4,23,9.7,59.6,9.7,80.4c0,2-0.1,3.8-0.2,5.5c-0.6,9.3-2.1,20.1-4.1,31.2l-0.2,0v-0.2h0v0.2l-0.1-0.1c0,0,12.7-11.4,24.7-15.1
	c0.9-0.3,1.7-0.5,2.6-0.7L397,268.9l-0.2-0.1l0,0L397,268.9l-0.2,0L397,268.9z"/>
<path fill="none" stroke="#1A1A1A" stroke-width="4.902834e-002" stroke-miterlimit="10" d="M374.4,147.6c-0.6,3-5.6,13.1-10,20
	c-2.1-12.3-3.7-20.6-3.7-20.6c0-4.6,0.1-9,0.1-13.4l4.1-16.2C364.8,117.5,367.9,124,374.4,147.6z"/>
<g id="la_x7C_Side_Color_x7C_side_6_">
	<path fill="#7b1fa2" d="M483.2,268.9L483.2,268.9c0.9,0.2,1.7,0.4,2.6,0.7c12,3.7,24.7,15.1,24.7,15.1h0c-2-11.1-3.5-21.8-4.1-31.1
		c-1.3-19.1,5.2-60.7,9.5-85.8c2.1-12.3,3.7-20.6,3.7-20.6c0-4.6-0.1-9-0.1-13.4l-4.1-16.2c0,0-5.2,14-11.6,37.6
		c-5.3,19.3-11.5,45.1-16.4,75C485.7,240.2,484.3,251.1,483.2,268.9"/>
	<path fill="#7b1fa2" d="M506.1,146.5c2.2,8,6.3,14.7,9.7,21.1c2.1-12.3,3.7-20.6,3.7-20.6c0.7-3.9,4.4-8,4.4-12.4l-8.6-17.1
		C515.4,117.5,512.6,122.9,506.1,146.5"/>
</g>
<path fill="#1A1A1A" d="M483.2,268.9l0.2-0.1l0,0L483.2,268.9l0-0.2c0.9,0.2,1.7,0.4,2.6,0.7c12.1,3.7,24.7,15.1,24.7,15.1l-0.1,0.1
	v-0.2h0v0.2l-0.2,0c-2-11.1-3.5-21.9-4.1-31.2c-0.1-1.7-0.2-3.5-0.2-5.5c0-20.8,5.7-57.4,9.7-80.4c2.1-12.3,3.7-20.6,3.7-20.6l0.2,0
	l-0.2,0c0-4.6-0.1-9-0.1-13.4h0.2l-0.2,0l-4.1-16.2l0.2,0l0.2,0.1c0,0-0.3,0.9-0.9,2.5c-1.8,5-5.9,17.3-10.7,35
	c-5.3,19.3-11.5,45.1-16.4,75c-1.7,10.1-3,21.1-4.2,38.8L483.2,268.9l0.2-0.1L483.2,268.9l-0.2,0c1.2-17.8,2.5-28.8,4.2-38.9
	c4.9-29.9,11.1-55.7,16.4-75c6.5-23.6,11.6-37.6,11.6-37.6l0.2-0.6l4.2,16.8v0c0,4.3,0,8.8,0.1,13.4l0,0l0,0c0,0-0.1,0.5-0.3,1.5
	c-0.6,2.9-1.9,9.9-3.4,19.1c-4,23-9.7,59.6-9.6,80.4c0,2,0.1,3.8,0.2,5.4c0.6,9.3,2.1,20,4.1,31.1l0,0.2h-0.3l-0.1,0
	c0,0-0.2-0.2-0.6-0.5c-2.6-2.2-13.6-11.3-24-14.5c-0.9-0.3-1.7-0.5-2.5-0.7l-0.1,0l0-0.1l0,0l0,0L483.2,268.9z"/>
<path fill="none" stroke="#1A1A1A" stroke-width="4.902834e-002" stroke-miterlimit="10" d="M506.1,146.5c2.2,8,6.3,14.7,9.7,21.1
	c2.1-12.3,3.7-20.6,3.7-20.6c0.7-3.9,4.4-8,4.4-12.4l-8.6-17.1C515.4,117.5,512.6,122.9,506.1,146.5z"/>
<g id="la_x7C_Side_Color_x7C_side">
	<path fill="#7b1fa2" d="M518.8,62.3c0,0-6.1,16.6-7,29.5c-1.4,18.7,2.4,38.5,8.7,54.2c1.3,3.2,31.3,33.3,31.3,33.3l32.9-25
		c0,0-40.3-69.4-44.7-76C532.3,66.7,518.8,62.3,518.8,62.3"/>
	<path fill="#7b1fa2" d="M363,62.3c0,0,6.1,16.6,7,29.5c1.4,18.7-2.4,38.5-8.7,54.2c-1.3,3.2-31.3,33.3-31.3,33.3l-32.9-25
		c0,0,40.3-69.4,44.7-76C349.4,66.7,363,62.3,363,62.3"/>
</g>
<path fill="#2B2D2F" d="M518.8,62.3l0.2,0.1c0,0-0.4,1-1,2.8c-1.7,5.3-5.3,17-6,26.6c-0.2,2.6-0.3,5.2-0.3,7.9
	c0,16.2,3.5,32.7,8.9,46.3c0.1,0.3,0.7,1.2,1.7,2.3c3.3,3.9,10.7,11.7,17.3,18.4c3.3,3.4,6.4,6.5,8.6,8.8c1.1,1.1,2.1,2.1,2.7,2.7
	c0.6,0.6,1,1,1,1l-0.1,0.1l-0.1-0.2l32.9-25l0.1,0.2l-0.2,0.1c0,0-0.6-1.1-1.7-3c-7.8-13.4-39.1-67.2-42.9-73
	c-3.8-5.8-9.1-9.7-13.5-12.3c-2.2-1.3-4.1-2.2-5.5-2.7c-0.7-0.3-1.2-0.5-1.6-0.6c-0.4-0.1-0.6-0.2-0.6-0.2L518.8,62.3l0.2,0.1
	L518.8,62.3l0.1-0.2c0,0,13.6,4.3,21.4,16c4.4,6.6,44.7,76,44.7,76l0.1,0.1l-33.2,25.2l-0.1-0.1c0,0-7.5-7.5-15.2-15.4
	c-3.8-4-7.7-8-10.7-11.3c-1.5-1.6-2.8-3.1-3.7-4.2c-1-1.1-1.6-2-1.7-2.4c-5.4-13.6-9-30.1-9-46.4c0-2.6,0.1-5.3,0.3-7.9
	c1-12.9,7-29.5,7-29.5l0.1-0.2l0.2,0.1L518.8,62.3z"/>
<path fill="#2B2D2F" d="M363,62.3l0.2-0.1c0,0,6.1,16.6,7,29.5c0.2,2.6,0.3,5.3,0.3,7.9c0,16.3-3.5,32.8-9,46.4
	c-0.2,0.5-0.8,1.3-1.8,2.4c-6.6,7.9-29.6,30.9-29.6,30.9l-0.1,0.1l-33.2-25.2l0.1-0.1c0,0,40.3-69.4,44.7-76
	c7.8-11.7,21.3-16,21.4-16l0.2-0.1l0.1,0.2L363,62.3l0.1,0.2c0,0-0.2,0.1-0.6,0.2c-2.7,1-13.8,5.6-20.6,15.7
	c-2.2,3.3-13.4,22.3-24,40.4c-5.3,9.1-10.5,18-14.3,24.6c-1.9,3.3-3.5,6-4.6,8c-1.1,1.9-1.7,3-1.7,3l-0.2-0.1l0.1-0.2l32.9,25
	l-0.1,0.2l-0.1-0.1c0,0,0.5-0.5,1.3-1.3c2.9-2.9,10.1-10.2,16.8-17.1c3.3-3.5,6.5-6.8,8.9-9.5c1.2-1.3,2.2-2.5,3-3.4
	c0.7-0.9,1.2-1.6,1.3-1.9c5.4-13.5,8.9-30,8.9-46.3c0-2.6-0.1-5.3-0.3-7.9c-0.5-6.4-2.2-13.7-3.9-19.5c-0.8-2.9-1.6-5.4-2.2-7.1
	c-0.6-1.8-1-2.8-1-2.8L363,62.3l0.1,0.2L363,62.3z"/>
<g id="la_x7C_Top_Color_x7C_accent">
	<path fill="#1b5e20" d="M462.1,55.5c0,0,33.2,25.2,49.4,40.2c0.8,0.7,2.1,2.3,3.8,4.5c12.9,16.7,48.4,69.9,48.4,69.9l0,0l21-15.9
		c0,0-40.3-69.4-44.7-76c-7.7-11.6-21.3-15.9-21.3-15.9s-25.6-8-37.4-17.2c-0.2,1-4.5,1.7-11.9,6.3L462.1,55.5z"/>
	<path fill="#1b5e20" d="M418.7,56.7c0,0-32.3,24-48.5,39c-0.8,0.7-2.1,2.3-3.8,4.5C353.5,117,318,170.2,318,170.2l0,0l-21-15.9
		c0,0,40.3-69.4,44.7-76c7.7-11.6,21.3-15.9,21.3-15.9s25.6-8,37.4-17.2c0.2,1,6.4,2,12.9,7.8L418.7,56.7z"/>
</g>
<path fill="#1A1A1A" d="M462.1,55.5l0.1-0.2c0,0,33.2,25.2,49.4,40.2c0.8,0.7,2.1,2.3,3.8,4.6c13,16.8,48.4,70,48.4,70l-0.2,0.1
	l-0.1-0.2l0,0l0.1,0.2l-0.1-0.2l21-15.9l0.1,0.2l-0.2,0.1c0,0-0.6-1.1-1.7-3c-7.8-13.4-39.1-67.3-42.9-73
	c-3.8-5.8-9.1-9.7-13.5-12.3c-2.2-1.3-4.1-2.2-5.5-2.7c-0.7-0.3-1.2-0.5-1.6-0.6c-0.4-0.1-0.6-0.2-0.6-0.2c0,0-25.6-8-37.4-17.2
	l0.1-0.2l0.2,0c0,0.2-0.2,0.3-0.3,0.5c-0.6,0.5-1.9,0.9-3.8,1.8c-2,0.9-4.6,2.1-7.9,4.2l0,0l-7.4,4L462.1,55.5l0.1-0.2L462.1,55.5
	l-0.1-0.2l7.4-4l0.1,0.2l-0.1-0.2c3.7-2.3,6.7-3.7,8.7-4.5c1-0.4,1.8-0.8,2.3-1c0.3-0.1,0.5-0.3,0.6-0.4c0.1-0.1,0.2-0.2,0.2-0.3
	l0.1-0.3l0.2,0.2c5.9,4.6,15.2,8.9,23.1,12c3.9,1.6,7.5,2.9,10.1,3.7c1.3,0.4,2.3,0.8,3.1,1c0.7,0.2,1.1,0.4,1.1,0.4
	c0,0,13.6,4.3,21.4,16c4.4,6.6,44.7,76,44.7,76l0.1,0.1l-21.1,16l0,0l-0.1,0l-0.1-0.1c0,0-0.6-0.8-1.5-2.3
	c-7-10.4-35.5-53-46.8-67.6c-1.7-2.2-3-3.8-3.8-4.5c-8.1-7.5-20.4-17.5-30.8-25.7c-5.2-4.1-9.8-7.7-13.2-10.3c-1.7-1.3-3-2.3-4-3.1
	c-0.9-0.7-1.5-1.1-1.5-1.1l-0.2-0.2l0.3-0.1L462.1,55.5z"/>
<path fill="#1A1A1A" d="M418.7,56.7l0.1,0.2c0,0-0.5,0.4-1.4,1.1c-6.4,4.8-32.9,24.8-47.1,37.9c-0.8,0.7-2.1,2.3-3.8,4.5
	c-6.5,8.4-18.6,25.9-29,41.2c-5.2,7.7-10.1,14.9-13.6,20.1c-1.8,2.6-3.2,4.8-4.2,6.3c-1,1.5-1.5,2.3-1.5,2.3l-0.1,0.1l-0.2-0.1l0,0
	l-21.1-16l0.1-0.1c0,0,40.3-69.4,44.7-76c7.8-11.7,21.3-16,21.4-16c0,0,0.4-0.1,1.1-0.4c5-1.6,25.9-8.8,36.2-16.8l0.2-0.2l0.1,0.3
	c0,0,0.1,0.1,0.3,0.3c0.7,0.4,2.4,1,4.6,2.1c2.3,1.1,5.1,2.7,7.9,5.3l-0.1,0.1l0.1-0.2l5.7,3.9l-0.2,0.2L418.7,56.7l-0.1,0.2
	l-5.5-3.8l0,0c-3.2-2.9-6.4-4.6-8.8-5.6c-1.2-0.5-2.2-0.9-2.9-1.3c-0.4-0.2-0.6-0.3-0.9-0.5c-0.2-0.1-0.4-0.3-0.4-0.5l0.2,0l0.1,0.2
	C388.6,54.5,363,62.5,363,62.5c0,0-0.2,0.1-0.6,0.2c-2.7,1-13.8,5.6-20.6,15.7c-2.2,3.3-13.4,22.3-24,40.4
	c-5.3,9.1-10.5,18-14.3,24.6c-1.9,3.3-3.5,6-4.6,8c-1.1,1.9-1.7,3-1.7,3l-0.2-0.1l0.1-0.2l21,15.9l-0.1,0.2l0.1-0.2l0,0l-0.1,0.2
	l-0.2-0.1c0,0,35.5-53.2,48.4-70c1.7-2.2,3-3.8,3.8-4.6c16.2-15,48.5-39,48.5-39L418.7,56.7l-0.1,0.2L418.7,56.7z"/>
<path id="la_x7C_Botttom_Color_x7C_bottom_1_" fill="#e91e63" d="M523.4,483.1c-2.5,3.5-28,7.1-45.8,3.8c-6.1-1.1-11.2-3-14.3-6
	l-16.6-92.4c-1-7-2.9-9.2-5.8-9.2c-3,0-5.4,2.2-6.4,9.2l-17.4,92.4c-3,2.9-7.9,4.7-13.6,5.9c-17.9,3.5-44-0.1-46.5-3.6
	c-0.5-11.6-9.3-97.1-3.7-122.8c2.4-11,8.2-33.7,13.1-57.5c0.3-1.4,0.6-2.8,0.8-4.2c0.1-0.5,0.2-0.9,0.3-1.4c0.6-2.9,1.1-5.8,1.6-8.6
	c0.1-0.6,0.2-1.1,0.3-1.7c0.1-0.8,0.3-1.5,0.4-2.3h0c0,0,12.6-11.4,24.7-15.1c0.9-0.3,1.7-0.5,2.6-0.7c2.2-0.5,4.4-0.6,6.4-0.3
	c23.6,3.5,37.9,7.8,73.5-0.4c3-0.7,6.5-0.4,10,0.6c9.8,2.7,20.2,10.3,23.7,15.9l0,0c5.2,29.6,13.6,61.8,16.6,75.6
	C532.7,385.9,523.9,471.5,523.4,483.1"/>
<path fill="none" stroke="#1A1A1A" stroke-width="4.902834e-002" stroke-miterlimit="10" d="M523.4,483.1c-2.5,3.5-28,7.1-45.8,3.8
	c-6.1-1.1-11.2-3-14.3-6l-16.6-92.4c-1-7-2.9-9.2-5.8-9.2c-3,0-5.4,2.2-6.4,9.2l-17.4,92.4c-3,2.9-7.9,4.7-13.6,5.9
	c-17.9,3.5-44-0.1-46.5-3.6c-0.5-11.6-9.3-97.1-3.7-122.8c2.4-11,8.2-33.7,13.1-57.5c0.3-1.4,0.6-2.8,0.8-4.2
	c0.1-0.5,0.2-0.9,0.3-1.4c0.6-2.9,1.1-5.8,1.6-8.6c0.1-0.6,0.2-1.1,0.3-1.7c0.1-0.8,0.3-1.5,0.4-2.3h0c0,0,12.6-11.4,24.7-15.1
	c0.9-0.3,1.7-0.5,2.6-0.7c2.2-0.5,4.4-0.6,6.4-0.3c23.6,3.5,37.9,7.8,73.5-0.4c3-0.7,6.5-0.4,10,0.6c9.8,2.7,20.2,10.3,23.7,15.9
	l0,0c5.2,29.6,13.6,61.8,16.6,75.6C532.7,385.9,523.9,471.5,523.4,483.1z"/>
<path id="la_x7C_Botttom_Color_x7C_bottom_2_" fill="#e91e63" d="M494.5,370.8c-1.7,49-18.7,74-16.3,116h-0.7
	c-6.1-1.1-11.2-3-14.3-6l-16.6-92.4c-1-7-2.9-9.2-5.8-9.2c-3,0-5.4,2.2-6.4,9.2l-17.4,92.4c-3,2.9-7.9,4.7-13.6,5.9
	c2.8-49.7-14.8-74.6-16.3-115.9c-1.8-51.6,53.7-52.2,53.7-52.2S496.3,319.3,494.5,370.8"/>
<path fill="none" stroke="#2B2D2F" stroke-width="4.902834e-002" stroke-miterlimit="10" d="M494.5,370.8c-1.7,49-18.7,74-16.3,116
	h-0.7c-6.1-1.1-11.2-3-14.3-6l-16.6-92.4c-1-7-2.9-9.2-5.8-9.2c-3,0-5.4,2.2-6.4,9.2l-17.4,92.4c-3,2.9-7.9,4.7-13.6,5.9
	c2.8-49.7-14.8-74.6-16.3-115.9c-1.8-51.6,53.7-52.2,53.7-52.2S496.3,319.3,494.5,370.8z"/>
<path id="la_x7C_Accent_Color_x7C_acc2_2_" fill="#000000" d="M438.3,59.6c-23.8,0-39.5-12.6-40.2-13.1l6.9-4.1
	c0.2,0.1,11.6,10.5,34.8,9.8c26.7-0.8,36.8-9.7,36.9-9.8l6.5,4.1c-0.6,0.5-14.1,12.2-42.7,13C439.7,59.6,439,59.6,438.3,59.6"/>
<path fill="none" stroke="#1A1A1A" stroke-width="4.902834e-002" stroke-miterlimit="10" d="M438.3,59.6
	c-23.8,0-39.5-12.6-40.2-13.1l6.9-4.1c0.2,0.1,11.6,10.5,34.8,9.8c26.7-0.8,36.8-9.7,36.9-9.8l6.5,4.1c-0.6,0.5-14.1,12.2-42.7,13
	C439.7,59.6,439,59.6,438.3,59.6z"/>
<path fill="#2B2D2F" d="M425,268v2.2h-0.4V268H425z M425,263.6v2.2h-0.4v-2.2H425z M425,259.2v2.2h-0.4v-2.2H425z M425,254.8v2.2
	h-0.4v-2.2H425z M425,250.4v2.2h-0.4v-2.2H425z M425,246.1v2.2h-0.4v-2.2H425z M425,241.7v2.2h-0.4v-2.2H425z M425,237.3v2.2h-0.4
	v-2.2H425z M425,232.9v2.2h-0.4v-2.2H425z M425,228.5v2.2h-0.4v-2.2H425z M425,224.1v2.2h-0.4v-2.2H425z M425,219.7v2.2h-0.4v-2.2
	H425z"/>
<path fill="#2B2D2F" d="M426.3,268v2.2h-0.4V268H426.3z M426.3,263.6v2.2h-0.4v-2.2H426.3z M426.3,259.2v2.2h-0.4v-2.2H426.3z
	 M426.3,254.8v2.2h-0.4v-2.2H426.3z M426.3,250.4v2.2h-0.4v-2.2H426.3z M426.3,246.1v2.2h-0.4v-2.2H426.3z M426.3,241.7v2.2h-0.4
	v-2.2H426.3z M426.3,237.3v2.2h-0.4v-2.2H426.3z M426.3,232.9v2.2h-0.4v-2.2H426.3z M426.3,228.5v2.2h-0.4v-2.2H426.3z M426.3,224.1
	v2.2h-0.4v-2.2H426.3z M426.3,219.7v2.2h-0.4v-2.2H426.3z"/>
<path fill="#2B2D2F" d="M454.6,268v2.2h-0.4V268H454.6z M454.6,263.6v2.2h-0.4v-2.2H454.6z M454.6,259.2v2.2h-0.4v-2.2H454.6z
	 M454.6,254.8v2.2h-0.4v-2.2H454.6z M454.6,250.4v2.2h-0.4v-2.2H454.6z M454.6,246.1v2.2h-0.4v-2.2H454.6z M454.6,241.7v2.2h-0.4
	v-2.2H454.6z M454.6,237.3v2.2h-0.4v-2.2H454.6z M454.6,232.9v2.2h-0.4v-2.2H454.6z M454.6,228.5v2.2h-0.4v-2.2H454.6z M454.6,224.1
	v2.2h-0.4v-2.2H454.6z M454.6,219.7v2.2h-0.4v-2.2H454.6z"/>
<path fill="#2B2D2F" d="M455.8,268v2.2h-0.4V268H455.8z M455.8,263.6v2.2h-0.4v-2.2H455.8z M455.8,259.2v2.2h-0.4v-2.2H455.8z
	 M455.8,254.8v2.2h-0.4v-2.2H455.8z M455.8,250.4v2.2h-0.4v-2.2H455.8z M455.8,246.1v2.2h-0.4v-2.2H455.8z M455.8,241.7v2.2h-0.4
	v-2.2H455.8z M455.8,237.3v2.2h-0.4v-2.2H455.8z M455.8,232.9v2.2h-0.4v-2.2H455.8z M455.8,228.5v2.2h-0.4v-2.2H455.8z M455.8,224.1
	v2.2h-0.4v-2.2H455.8z M455.8,219.7v2.2h-0.4v-2.2H455.8z"/>
<path fill="none" stroke="#2B2D2F" stroke-width="4.902834e-002" stroke-miterlimit="10" stroke-dasharray="0.2995,0.2995" d="
	M434.3,391.8c0,0-36.7-37.5-14.3-48.4c20-9.7,43.8-3.8,49.4,5.2c7.3,11.6-11.4,36.7-21.4,42.3 M434,393.5c0,0-38.9-39.9-14-51.6
	c20.1-9.4,42.6-2.9,49.4,5.2c10.5,12.6-11.8,40.3-21.1,45.2"/>
<line fill="none" stroke="#2B2D2F" stroke-width="4.902834e-002" stroke-miterlimit="10" x1="440.9" y1="379.5" x2="440.9" y2="272.7"/>
<g id="la_x7C_Accent_Color_x7C_acc2_3_">
	<path fill="#000000" d="M526,463.6c0,0-31.3,7.6-66.1-0.7l3,18c0,0,5.9,7.4,31.3,7.3c21.8-0.1,29.9-4.3,29.9-4.3L526,463.6z"/>
	<path fill="#000000" d="M355.8,463.3c0,0,31.6,6.5,65.1-0.6l-3.5,18.2c0,0-5.9,7.4-31.3,7.3c-21.8-0.1-29.1-4.5-29.1-4.5
		L355.8,463.3z"/>
</g>
<path fill="none" stroke="#2B2D2F" stroke-width="4.902834e-002" stroke-miterlimit="10" d="M526,463.6c0,0-31.3,7.6-66.1-0.7l3,18
	c0,0,5.9,7.4,31.3,7.3c21.8-0.1,29.9-4.3,29.9-4.3L526,463.6z"/>
<path fill="none" stroke="#2B2D2F" stroke-width="4.902834e-002" stroke-miterlimit="10" d="M355.8,463.3c0,0,31.6,6.5,65.1-0.6
	l-3.5,18.2c0,0-5.9,7.4-31.3,7.3c-21.8-0.1-29.1-4.5-29.1-4.5L355.8,463.3z"/>
<line fill="none" stroke="#2B2D2F" stroke-width="4.902834e-002" stroke-miterlimit="10" x1="403.5" y1="465.3" x2="404.4" y2="486.6"/>
<line fill="none" stroke="#2B2D2F" stroke-width="4.902834e-002" stroke-miterlimit="10" x1="478.6" y1="466" x2="477.1" y2="486.9"/>
<path fill="#8F9096" d="M317.9,169.9L297.4,154c0.2-0.3,0.5-0.8,0.9-1.5l2.3-3.4l20.5,16.2c0,0.1-0.1,0.1-0.1,0.2L317.9,169.9z"/>
<path fill="#1A1A1A" d="M297.4,154L297.4,154l0.9-1.5C297.8,153.2,297.5,153.7,297.4,154 M320.9,165.6c0-0.1,0.1-0.1,0.1-0.2
	L320.9,165.6z"/>
<path fill="#8F9096" d="M296.9,154.1l-0.1-0.1l1.1-1.7C297.3,153.4,296.9,154,296.9,154.1 M318,170.4l-0.1-0.1L318,170.4L318,170.4z
	"/>
<path fill="#8F9096" d="M321.1,165.9c0.1-0.2,0.2-0.4,0.4-0.6v0L321.1,165.9z"/>
<polygon fill="#373738" points="318,170.4 317.9,170.3 317.9,170.4 318.1,170.4 "/>
<path fill="#8F9096" d="M300.5,148.9l0.2,0.1L300.5,148.9z M321,165.4l-20.5-16.2l-2.3,3.4c0.2-0.4,0.4-0.8,0.7-1.2
	c0.4-0.8,1-1.7,1.6-2.7l0.1,0.1l20.6,16.3C321.1,165.2,321,165.3,321,165.4z M318,169.9l-20.7-15.7c0,0,0.1-0.1,0.1-0.2L318,169.9
	l2.9-4.3C319.3,167.9,318.3,169.4,318,169.9z"/>
<path fill="#1A1A1A" d="M318.1,170.4l-0.1,0l0,0l-21-16.2c0.1-0.1,0.4-0.7,1-1.8l2.5-3.7l0.1,0.1c-0.6,1-1.1,1.9-1.6,2.7
	c-0.3,0.4-0.5,0.8-0.7,1.2l-0.9,1.4l0.1,0.1c0,0.1-0.1,0.1-0.1,0.2l20.7,15.7c0.3-0.5,1.3-2,2.9-4.3l0.1-0.2
	c0.1-0.1,0.1-0.2,0.2-0.3l0.3,0.2c-0.1,0.2-0.3,0.4-0.4,0.6L318.1,170.4z"/>
<path fill="#8F9096" d="M563.8,169.9l-0.2-0.3c-0.4-0.6-1.2-1.9-2.4-3.6l-0.4-0.7l20.5-16l3.2,4.8L563.8,169.9z"/>
<path fill="#1A1A1A" d="M563.6,169.6l-2.4-3.6C562.4,167.8,563.2,169,563.6,169.6"/>
<polygon fill="#8F9096" points="585,154.3 585,154.3 584.9,154.2 584.9,154.1 585,154.3 585,154.3 "/>
<path fill="#8F9096" d="M563.3,169.9l-2.6-4c0.5,0.8,1,1.4,1.3,2C562.6,168.9,563.1,169.5,563.3,169.9"/>
<path fill="#373738" d="M585,154.3l-0.1-0.1c0,0,0,0,0,0l0,0c0,0,0,0,0,0L585,154.3L585,154.3z M563.7,170.4L563.7,170.4
	L563.7,170.4l0.1-0.1l0,0L563.7,170.4"/>
<path fill="#8F9096" d="M563.8,169.9c0-0.1-0.1-0.2-0.2-0.3L563.8,169.9l20.7-15.7l-3.2-4.8l-20.5,16l0.4,0.7
	c-0.2-0.3-0.4-0.6-0.7-1l20.8-16.2l0.1,0.2l0.1,0.2c0.5,0.8,0.9,1.5,1.2,2.1c0.9,1.5,1.4,2.5,1.7,2.8L563.8,169.9z"/>
<path fill="#1A1A1A" d="M563.7,170.4l-0.3-0.5c-0.3-0.4-0.7-1-1.3-1.9c-0.4-0.6-0.8-1.2-1.3-2l-0.4-0.6l0.3-0.2
	c0.2,0.3,0.4,0.7,0.7,1l2.4,3.6c0.1,0.1,0.1,0.2,0.2,0.3l20.7-15.7c-0.2-0.4-0.8-1.3-1.7-2.8c-0.4-0.6-0.8-1.3-1.2-2.1l3.3,4.9
	c0,0,0,0,0,0l0.1,0.1l-21.1,16l0,0L563.7,170.4z"/>
<path fill="none" stroke="#2B2D2F" stroke-width="4.902834e-002" stroke-miterlimit="10" stroke-dasharray="0.2995,0.2995" d="
	M559,162.5l-12.9,10.3 M559.7,163.4l-12.9,10.3 M323.6,162.5l12.9,10.3 M322.9,163.4l12.9,10.3"/>
<path fill="#8F9096" d="M394,236.3c-0.1-0.8-0.2-1.5-0.3-2.3l31-14v1.9h0.4v-2h0.9v2h0.4v-2h27.9v2h0.4v-2h0.9v2h0.4V220l30.7,13.9
	c-0.1,0.8-0.2,1.5-0.3,2.3l-30.8-14h-30.3L394,236.3z"/>
<path fill="#1A1A1A" d="M425.9,219.9H425v0L425.9,219.9L425.9,219.9z M454.2,219.9h-27.9v0L454.2,219.9L454.2,219.9z M455.4,219.9
	h-0.9v0L455.4,219.9L455.4,219.9z M486.5,233.9L455.8,220v-0.1h0.1l0.2,0.1l30.4,13.8C486.6,233.9,486.5,233.9,486.5,233.9z
	 M393.7,234c0,0,0-0.1,0-0.1l30.9-14h0.1v0.1L393.7,234z"/>
<path fill="#1A1A1A" d="M393.8,236.4l-0.4-2.4l0.2-0.1c0,0,0,0.1,0,0.1c0.1,0.8,0.2,1.5,0.3,2.3L393.8,236.4z"/>
<path fill="#1A1A1A" d="M486.4,236.3l-0.2-0.1c0.1-0.8,0.2-1.5,0.3-2.3c0,0,0-0.1,0-0.1l0.2,0.1L486.4,236.3z"/>
<rect x="424.6" y="219.9" fill="#373738" width="0.4" height="2"/>
<rect x="425.9" y="219.9" fill="#373738" width="0.4" height="2"/>
<rect x="454.2" y="219.9" fill="#373738" width="0.4" height="2"/>
<rect x="455.4" y="219.9" fill="#373738" width="0.4" height="2"/>
<path fill="#8F9096" d="M393.6,233.6c0,0,0-0.1,0-0.1l30.9-14H456l0.3,0.1l30.3,13.7c0,0,0,0.1,0,0.1l-30.9-14h-30.9L393.6,233.6z"
	/>
<path fill="#8F9096" d="M394.1,236.7c0-0.1,0-0.3-0.1-0.4l31.1-14h30.3l30.8,14c0,0.1,0,0.3-0.1,0.4l-30.8-14h-30.1L394.1,236.7z"/>
<path fill="#1A1A1A" d="M393.7,233.9c0-0.1,0-0.2,0-0.3l31.2-14.1h30.9l30.9,14c0,0.1,0,0.2,0,0.3L456.1,220l-0.2-0.1h-0.1v-0.2
	h-0.4v0.2h-0.9v-0.2h-0.4v0.2h-27.9v-0.2h-0.4v0.2H425v-0.2h-0.4v0.2h-0.1L393.7,233.9z"/>
<path fill="#8F9096" d="M393.6,236.5l0.1,0.2L393.6,236.5z M393.5,237l-0.5-3.2v0l0.2-0.1c0.2,1.1,0.3,2.1,0.5,3.2L393.5,237z"/>
<path fill="#1A1A1A" d="M393.7,236.9c-0.2-1.1-0.3-2.2-0.5-3.2l0.4-0.2c0,0,0,0.1,0,0.1c0,0.1,0,0.2,0,0.3l-0.2,0.1l0.4,2.4l0.2-0.1
	c0,0.1,0,0.3,0.1,0.4L393.7,236.9z"/>
<path fill="#8F9096" d="M486.7,236.9l-0.2-0.1c0.2-1.1,0.3-2.2,0.5-3.2l0.2,0.1L486.7,236.9z"/>
<path fill="#1A1A1A" d="M486.5,236.8l-0.4-0.2c0-0.1,0-0.3,0.1-0.4l0.2,0.1l0.4-2.4l-0.2-0.1c0-0.1,0-0.2,0-0.3c0,0,0-0.1,0-0.1
	l0.4,0.2C486.8,234.6,486.7,235.7,486.5,236.8"/>
<rect x="424.6" y="219.7" fill="#373738" width="0.4" height="0.2"/>
<rect x="425.9" y="219.7" fill="#373738" width="0.4" height="0.2"/>
<rect x="454.2" y="219.7" fill="#373738" width="0.4" height="0.2"/>
<rect x="455.4" y="219.7" fill="#373738" width="0.4" height="0.2"/>
<path fill="#B6B8BC" d="M395.6,232.8c0,0,4,30.2,3.6,35.8l-2.2,0.4c0,0-1.8-29.2-3.8-35.1L395.6,232.8z"/>
<path fill="#B6B8BC" d="M484.6,232.8c0,0-4,29.2-3.7,34.8l2.2,0.4c0,0,1.8-28.3,3.8-34.1L484.6,232.8z"/>
</svg>
