<?xml version="1.0" encoding="utf-8"?>
<!-- Generator: Adobe Illustrator 16.0.0, SVG Export Plug-In . SVG Version: 6.00 Build 0)  -->
<!DOCTYPE svg PUBLIC "-//W3C//DTD SVG 1.1//EN" "http://www.w3.org/Graphics/SVG/1.1/DTD/svg11.dtd">
<svg version="1.1" id="Layer_1" xmlns="http://www.w3.org/2000/svg" xmlns:xlink="http://www.w3.org/1999/xlink" x="0px" y="0px"
	 width="512px" height="512px" viewBox="0 0 512 512" enable-background="new 0 0 512 512" xml:space="preserve">
<path d="M512,480v32H32H0v-32V0h32v480H512z M448,0L322.031,20.594l30.281,37.031l-266.438,218l20.25,24.75l266.469-218l30.281,37
	L448,0z M413.219,182.563L384,146.844V448h64V90.531L413.219,182.563z M192,271.469V448h64V219.125L192,271.469z M101.609,345.406
	L96,338.531V448h64V297.625L101.609,345.406z M288,192.938V448h64V140.563L288,192.938z"/>
</svg>
