<?xml version="1.0" encoding="utf-8"?>
<!-- Generator: Adobe Illustrator 16.0.0, SVG Export Plug-In . SVG Version: 6.00 Build 0)  -->
<!DOCTYPE svg PUBLIC "-//W3C//DTD SVG 1.1//EN" "http://www.w3.org/Graphics/SVG/1.1/DTD/svg11.dtd">
<svg version="1.1" id="Layer_1" xmlns="http://www.w3.org/2000/svg" xmlns:xlink="http://www.w3.org/1999/xlink" x="0px" y="0px"
	 width="512px" height="512px" viewBox="0 0 512 512" enable-background="new 0 0 512 512" xml:space="preserve">
<path d="M512,128v96c-160,85.344-352,85.344-512,0v-96H512z M304,317.688V352c0,17.688-14.313,32-32,32h-32
	c-17.672,0-32-14.313-32-32v-34.313c-60-5.094-119.391-19.344-176-43.313V480c0,17.688,14.328,32,32,32h384
	c17.688,0,32-14.313,32-32V274.375C423.375,298.344,364,312.594,304,317.688z M192,96V64c0-17.625,14.359-32,32-32h64
	c17.625,0,32,14.375,32,32v32h32V64c0-35.344-28.656-64-64-64h-64c-35.344,0-64,28.656-64,64v32H192z"/>
</svg>
