<?xml version="1.0" encoding="utf-8"?>
<!-- Generator: Adobe Illustrator 16.0.0, SVG Export Plug-In . SVG Version: 6.00 Build 0)  -->
<!DOCTYPE svg PUBLIC "-//W3C//DTD SVG 1.1//EN" "http://www.w3.org/Graphics/SVG/1.1/DTD/svg11.dtd">
<svg version="1.1" id="Layer_1" xmlns="http://www.w3.org/2000/svg" xmlns:xlink="http://www.w3.org/1999/xlink" x="0px" y="0px"
	 width="512px" height="512px" viewBox="0 0 512 512" enable-background="new 0 0 512 512" xml:space="preserve">
<path d="M37.688,255.5c-1.938,0.344-3.844,0.5-5.719,0.5C16.781,256,3.313,245.125,0.5,229.688
	c-3.125-17.406,8.438-34.063,25.844-37.188c78.344-14.125,162.5-54.063,250.344-118.219L239.75,29.469L416,0l-62.594,167.375
	l-35.969-43.625C219.625,195.813,127.875,239.25,37.688,255.5z M96,352H64c-17.656,0-32,14.313-32,32v96c0,17.688,14.344,32,32,32
	h32c17.688,0,32-14.313,32-32v-96C128,366.313,113.688,352,96,352z M352,224h-32c-17.688,0-32,14.313-32,32v224
	c0,17.688,14.313,32,32,32h32c17.688,0,32-14.313,32-32V256C384,238.313,369.688,224,352,224z M480,160h-32
	c-17.688,0-32,14.313-32,32v288c0,17.688,14.313,32,32,32h32c17.688,0,32-14.313,32-32V192C512,174.313,497.688,160,480,160z
	 M224,288h-32c-17.656,0-32,14.313-32,32v160c0,17.688,14.344,32,32,32h32c17.688,0,32-14.313,32-32V320
	C256,302.313,241.688,288,224,288z"/>
</svg>
