<?xml version="1.0" encoding="utf-8"?>
<!-- Generator: Adobe Illustrator 15.0.0, SVG Export Plug-In . SVG Version: 6.00 Build 0)  -->
<!DOCTYPE svg PUBLIC "-//W3C//DTD SVG 1.1//EN" "http://www.w3.org/Graphics/SVG/1.1/DTD/svg11.dtd">
<svg version="1.1" id="Шар_1" xmlns="http://www.w3.org/2000/svg" xmlns:xlink="http://www.w3.org/1999/xlink" x="0px" y="0px"
	 width="587px" height="543px" viewBox="0 0 587 543" enable-background="new 0 0 587 543" xml:space="preserve">
<style type="text/css">
	<![CDATA[
	 .bg{fill:#FFFFFF;}
	]]>
</style>
<path class="bg" fill-rule="evenodd" clip-rule="evenodd" d="M520.306,240.901c0.468,0.418,0.896,0.825,1.281,1.219
	c0.192-0.167,0.38-0.333,0.563-0.5c0.209-0.208,0.313-0.521,0.313-0.938c0.417,0,0.667,0.084,0.751,0.25
	c0.46,1.102,0.502,2.144,0.125,3.125c0.607,0.785,1.024,1.504,1.25,2.156c1.293,0.258,2.252,1.747,2.875,4.469l-0.75,2.688
	c-12.793,16.584-32.502,27.168-59.128,31.751c-13.792,2.417-21.751-0.729-23.876-9.438c-0.417,0-0.667-0.084-0.75-0.251
	c-0.259-0.516-0.415-1.078-0.469-1.687c-2.641-1.67-4.089-3.982-4.344-6.938c-0.17-1.7,0.079-3.888,0.75-6.563
	c-2.655-9.156-4.489-19.094-5.5-29.814c-1.348-0.782-2.868-1.386-4.563-1.812c-0.021,3.758-0.063,7.78-0.126,12.063
	c0,0.417,0,0.833,0,1.25c1.459,6.875,1.667,14.772,0.625,23.689c0,0.042-0.208,0.063-0.625,0.063c0,4.167,0,8.333,0,12.5
	c0,0.417,0,0.833,0,1.25s0.021,0.833,0.063,1.25c0.584,8.958,0.146,16.876-1.313,23.751c0,10.834,0,21.668,0,32.501
	c0,0.417,0,0.834,0,1.25c1.459,7.293,1.896,15.626,1.313,25.002c-0.041,0.416-0.063,0.833-0.063,1.25c0,7.917,0,15.833,0,23.751
	c0,0.417,0,0.833,0,1.25c0,11.25,0,22.501,0,33.751c0,0.417,0,0.833,0,1.25c0.917,21.168,1.938,39.544,3.063,55.128
	c0.015,0.191,0.024,0.379,0.031,0.562c0.699,0.861,1.335,1.663,1.906,2.407c0.935-0.11,1.538,0.744,1.813,2.563
	c0.813,1.273,1.344,2.314,1.594,3.125c0.107-0.021,0.222-0.031,0.344-0.031c0,0.417,0.041,0.833,0.125,1.25
	c0.958,4.792,0.917,8.542-0.125,11.251c0,0.416-0.104,0.687-0.313,0.812c-27.71,18.21-63.857,27.939-108.442,29.189
	c0,0.417-0.021,0.625-0.063,0.625c-7.459,0.417-14.938,0.625-22.438,0.625c-0.417,0-0.833,0-1.25,0c-15,0-30.001,0-45.002,0
	c-0.417,0-0.833,0.021-1.25,0.063c-7.292,0.583-13.542,0.146-18.751-1.313c-0.417,0-0.833,0-1.25,0
	c-40.627-0.625-71.461-11.042-92.504-31.251c-0.417,0-0.625-0.021-0.625-0.063c-0.329-3.254-0.527-6.524-0.594-9.813
	c-0.854-1.374-1.281-2.729-1.281-4.063c0-2.459,0.521-4.646,1.563-6.563c0.606-1.136,1.366-2.063,2.282-2.781
	c-0.488-2.604-0.52-5.677-0.094-9.22c2-7.584,2.833-16.334,2.5-26.251c0-0.417,0-0.833,0-1.25s0-0.833,0-1.25
	c0-13.334,0-26.668,0-40.002c0.417,0,0.833,0,1.25,0c0-0.417,0-0.833,0-1.25c0-5.833,0-11.667,0-17.501c0-0.417,0-0.833,0-1.25
	c0-4.583,0-9.167,0-13.75c0-0.417,0-0.834,0-1.25c0-5.418,0-10.834,0-16.251c0-0.417,0-0.833,0-1.25c0-9.168,0-18.334,0-27.501
	c0.417,0,0.833,0,1.25,0c0-0.417,0-0.834,0-1.25c0-9.584,0-19.168,0-28.752c0-0.417,0-0.833,0-1.25c0-5,0-10,0-15
	c0-0.417,0-0.833,0-1.25c0-5.068,0-10.142,0-15.219c-0.428,0.146-0.845,0.219-1.25,0.219c-0.381,0-0.788-0.042-1.219-0.125
	c-0.01,0.876-0.021,1.751-0.031,2.625c-1.85,3.392-3.579,6.975-5.188,10.75c0.958,2.021,1.438,3.646,1.438,4.875
	c0,2.917-0.729,5.104-2.188,6.563c-0.727,0.716-1.644,1.341-2.75,1.875c-0.022,6.712-3.251,10.649-9.688,11.813
	c-0.208,0-0.396,0.021-0.562,0.063c-0.042,0-0.063,0.021-0.063,0.062c-2.166,0.292-4.646,0.313-7.438,0.063
	c-12.042-1.042-21.876-3.167-29.501-6.376c-16.458-6.875-29.063-17.188-37.814-30.938c1.583-0.917,2.417-2.584,2.5-5
	c0-0.363,0-0.728,0-1.094v-0.031c0-0.042,0-0.083,0-0.125c0.019-1.79,0.436-3.395,1.25-4.813c0-0.058,0-0.121,0-0.188
	c0.034,0.006,0.065,0.017,0.094,0.031c0.417-0.682,0.928-1.317,1.531-1.906c0.191-0.184,0.389-0.361,0.594-0.531
	c-0.313-0.041-0.636-0.072-0.969-0.094c0-0.417,0-0.833,0-1.25c0-0.417,0-0.833,0-1.25c5.417-17.917,10.771-35.855,16.063-53.814
	c0.125-0.375,0.188-0.771,0.188-1.188c0-0.417,0-0.833,0-1.25c0-3.75,0-7.5,0-11.25c0.417,0,0.833,0,1.25,0c0-0.417,0-0.833,0-1.25
	c0-3.75,0-7.5,0-11.25c0.417,0,0.833,0,1.25,0c0-0.417,0-0.833,0-1.25c0-3.75,0-7.5,0-11.25
	c5.292-33.459,17.897-59.606,37.814-78.441c0.208-0.208,0.521-0.313,0.938-0.313c0.034,0.087,0.065,0.17,0.094,0.25
	c0.19-0.232,0.388-0.461,0.593-0.688c1.833-2,4.021-3.125,6.563-3.375c0.26-0.025,0.521-0.036,0.781-0.032
	c29.936-13.545,58.531-28.41,85.785-44.595c0.599-1.196,1.37-2.196,2.313-3c1.858-1.562,4.941-2.916,9.25-4.063
	c1.417-1.245,2.688-2.641,3.813-4.188c0.125-0.208,0.396-0.313,0.813-0.313c0.002,1.163,0.034,2.298,0.094,3.407
	c0.288-0.049,0.58-0.102,0.875-0.156c0.067-0.636,0.161-1.303,0.281-2c4.833-0.5,11.625,0.833,20.376,4
	c7.667,2.75,15.875,4.75,24.626,6c9.583,0,19.167,0,28.751,0c0.417,0,0.833,0,1.25,0c16-2.333,29.335-4.625,40.002-6.875
	l0.125,1.875c0.012,0.15,0.021,0.296,0.031,0.438c0.547-0.132,1.12-0.236,1.719-0.313c0.022-0.081,0.043-0.165,0.063-0.25
	c0.625-2.792,2.063-3.167,4.313-1.125c0.699,0.466,1.334,0.987,1.906,1.563c4.246,0.748,7.402,2.769,9.47,6.063l0.03,0.031
	l0.781,0.407c27.799,14.002,56.154,27.524,85.066,40.563c2.524-0.098,5.379,2.902,8.563,9.001
	c17.44,16.484,29.754,38.402,36.939,65.753c9.376,35.709,18.876,69.586,28.501,101.629c-0.416,0-0.729,0.104-0.938,0.313
	C521.125,240.138,520.719,240.523,520.306,240.901z"/>
<g>
	<path fill-rule="evenodd" clip-rule="evenodd" fill="#514B4E" d="M342.479,23.139c-0.014,0.008-0.024,0.02-0.038,0.028
		c-0.41,0-0.762,0.084-1.057,0.252c-2.294,1.42-4.855,2.588-7.685,3.503c-0.421,0-0.816,0.063-1.185,0.189
		c-2.714,0.958-5.653,1.725-8.82,2.304c-0.41,0-0.805,0.063-1.184,0.189c-5.291,1.715-11.561,2.488-18.81,2.32v1.247h-5.002
		c0,0.41-0.021,0.616-0.063,0.616c-11.834,1.052-22.649,0.847-32.443-0.616c-0.411,0-0.826-0.042-1.247-0.126
		c-12.129-1.957-22.965-5.249-32.507-9.878c0-0.411-0.1-0.7-0.3-0.868c-0.235-0.214-0.448-0.45-0.646-0.7
		c-0.598-0.089-1.129-0.271-1.593-0.528c0.367,1.693,0.803,3.332,1.341,4.891c0.905,0.355,1.795,0.751,2.669,1.193
		c-0.069-0.079-0.141-0.153-0.209-0.232v-1.247c9.584,5.828,21.666,9.137,36.247,9.926c0.41,0.042,0.825,0.063,1.246,0.063h22.502
		c6.292,0.463,11.729,0.09,16.317-1.12c0.368-0.084,0.763-0.126,1.183-0.126c4.998-0.831,9.957-1.851,14.881-3.061
		c0.084-0.042,0.127-0.273,0.127-0.694c2.914,0,5.328-0.558,7.242-1.673c0.168-0.126,0.253-0.4,0.253-0.821
		c3.082,0.168,5.291-0.563,6.627-2.193c0.168-0.2,0.458-0.3,0.868-0.3c-0.298,0.559-0.612,1.097-0.93,1.634
		c0.957-0.402,1.949-0.659,3.012-0.733c0.39-0.866,0.759-1.754,1.108-2.661C343.643,23.789,343.007,23.518,342.479,23.139z"/>
	<path fill-rule="evenodd" clip-rule="evenodd" fill="#514B4E" d="M522.08,219.059c-4.702-12.298-8.621-24.8-11.757-37.509
		c-9.372-38.125-22.869-71.73-40.491-100.818c-3.923-6.459-9.131-11.398-15.622-14.817C417.243,46.548,380.823,26.88,344.95,6.914
		c-0.421,0-0.815,0.063-1.184,0.189c-14.717,6.049-32.238,9.321-52.563,9.815c0,0.42-0.021,0.631-0.063,0.631
		c-6.838,1.042-12.65,0.831-17.437-0.631c-0.42,0-0.841-0.021-1.262-0.063c-15.875-1.999-30.04-5.728-42.496-11.188
		c-30.96,20.714-64.335,38.945-100.124,54.693c-8.5,3.703-15.48,8.805-20.94,15.307c-19.377,22.881-31.149,53.673-35.315,92.376
		c-3.587,33.085-11.046,62.714-22.376,88.888c1.789,7.375,5.497,13.04,11.125,16.996c7.584,5.334,16.043,9.898,25.374,13.696
		c9.583,3.955,20.335,6.644,32.254,8.063h13.745c11.088-3.082,16.295-12.25,15.623-27.504h0.63
		c0.211,8.541-0.562,16.063-2.319,22.564c-0.115,0.368-0.173,0.763-0.173,1.185c1.452,17.705,1.867,36.456,1.247,56.255v32.491
		c0,0.421,0.021,0.842,0.063,1.262c0.578,7.29,0.142,13.54-1.31,18.748v1.246c0.663,29.424-1.425,56.092-6.265,80.004v16.253
		c27.047,28.793,69.968,42.479,128.765,41.061c36.084-0.873,69.458-3.499,100.124-7.875c30.959-4.418,55.503-15.064,73.629-31.938
		c-4.703-21.955-8.433-44.873-11.188-68.753c-0.041-0.411-0.063-0.826-0.063-1.247h-0.616c-0.42-27.92-0.631-55.84-0.631-83.76
		v-14.991c-0.421,0-0.631-0.021-0.631-0.063c-0.411-4.123-0.615-8.268-0.615-12.434v-27.506h1.246v-12.497h1.247v-21.255
		c2.335,13.497,7.837,23.812,16.505,30.944c0.253,0.2,0.585,0.3,0.995,0.3v-1.246c4.166,0,8.311,0.21,12.434,0.632
		c0.042,0,0.063,0.205,0.063,0.614c0.422,0,0.842-0.021,1.263-0.063c29.54-4.166,52.874-14.561,70-31.181
		C530.501,243.476,526.624,230.852,522.08,219.059z M143.44,276.799c-0.252,0.504-0.584,0.968-0.994,1.388
		c0,0.411-0.106,0.721-0.316,0.931c-0.21,0.211-0.526,0.316-0.947,0.316c-0.41,0-0.826,0.021-1.247,0.063
		c-5.628,0.578-10.21,0.142-13.745-1.311c-0.421,0-0.836-0.021-1.247-0.063c-15.548-2.293-29.303-6.443-41.265-12.45
		c-0.41,0-0.721-0.1-0.931-0.3c-1.831-1.925-4.019-3.487-6.564-4.686c0,0.41-0.105,0.72-0.315,0.931
		c-0.211,0.21-0.521,0.315-0.931,0.315c1.957,1.789,4.103,3.372,6.438,4.75c0.294,0.168,0.647,0.252,1.058,0.252
		c14.254,9.5,33.422,14.081,57.502,13.744h1.247c0.673,10.162-5.224,14.687-17.689,13.571c-12.035-1.042-21.866-3.167-29.493-6.376
		c-16.464-6.88-29.066-17.194-37.809-30.944c1.578-0.916,2.41-2.583,2.494-5.002v-1.246c3.125,0.21,5.354,1.357,6.69,3.44
		c0.126,0.2,0.395,0.3,0.805,0.3v-1.247h1.263c0-0.41-0.084-0.657-0.252-0.741c-2.335-1.168-4.755-2.167-7.259-2.999v-3.756
		c2.462,0.453,4.587,1.205,6.375,2.257c0.336,0.158,0.715,0.237,1.136,0.237c16.159,18,41.159,27.167,75.002,27.504h1.246
		C143.692,276.099,143.608,276.472,143.44,276.799z M437.452,488.187c0,0.421,0.042,0.836,0.126,1.246
		c0.957,4.798,0.915,8.548-0.126,11.251c0,0.422-0.104,0.695-0.316,0.821c-27.709,18.21-63.855,27.94-108.439,29.193
		c0,0.409-0.021,0.614-0.063,0.614c-7.459,0.421-14.938,0.632-22.439,0.632h-46.251c-0.41,0-0.826,0.021-1.247,0.063
		c-7.291,0.578-13.54,0.142-18.747-1.31h-1.262c-40.618-0.632-71.452-11.052-92.502-31.261c-0.411,0-0.616-0.021-0.616-0.063
		c-0.42-4.124-0.631-8.269-0.631-12.434h1.247c15.169,14.411,35.588,23.559,61.257,27.44c0.421,0.042,0.836,0.063,1.247,0.063
		c4.587,1.662,10.005,2.493,16.253,2.493h1.247c2.714,1.463,6.464,1.899,11.25,1.31c0.421-0.042,0.836-0.063,1.247-0.063h18.762
		c0.831,0,1.578,0.169,2.24,0.505c0.168,0.085,0.253,0.337,0.253,0.758h46.251v-1.263h16.254c7.994-0.326,15.891-0.946,23.686-1.861
		c0.042,0,0.063-0.211,0.063-0.632c4.955-0.042,9.542-0.415,13.761-1.12c0.41-0.084,0.826-0.126,1.246-0.126
		c7.291-0.632,13.976-1.82,20.056-3.566c0.38-0.126,0.774-0.188,1.185-0.188c8.006-1.168,15.133-3.167,21.382-5.997
		c0.336-0.169,0.71-0.252,1.12-0.252c8.458-2.379,15.859-5.855,22.202-10.432c0.2-0.125,0.3-0.399,0.3-0.82
		c3.083-1.504,6.065-3.088,8.947-4.749C436.68,488.271,437.031,488.187,437.452,488.187z M435.574,485.692h-0.615
		c-0.421,0-0.695,0.085-0.82,0.253c-1.747,2.956-4.393,4.955-7.938,5.996v1.247c-0.422,0-0.795,0.084-1.121,0.252
		c-6.542,3.377-13.254,6.629-20.135,9.753c-0.41,0-0.806,0.063-1.184,0.189c-7.669,2.251-16.021,3.854-25.059,4.813v1.246
		c-0.42,0-0.814,0.043-1.183,0.127c-5.671,1.378-11.946,2.167-18.826,2.367v1.263c-0.41,0-0.805,0.036-1.183,0.109
		c-3.336,0.8-7.107,1.179-11.315,1.137c-0.409,0-0.825,0.021-1.246,0.063c-27.457,2.493-56.624,3.303-87.5,2.43h-16.253
		c-0.421,0-0.736-0.104-0.947-0.316c-1.283-1.199-3.466-1.509-6.549-0.931c-0.421,0-0.841-0.021-1.262-0.063
		c-7.459-0.42-14.539-1.229-21.24-2.429c-0.421,0-0.842-0.043-1.262-0.127c-25.701-4.208-46.53-13.334-62.489-27.379
		c0-0.42-0.084-0.673-0.252-0.757c-1.252-0.579-1.588-1.993-1.01-4.244h1.262c13.75,14.58,32.917,23.728,57.502,27.44
		c0.411,0.042,0.826,0.063,1.247,0.063c7.29,2.294,15.622,3.54,24.995,3.74h1.247c2.672,1.083,6.007,1.52,10.004,1.31
		c0.421-0.032,0.836-0.047,1.247-0.047h11.25v-1.263h55.009c0.831,0,1.578,0.168,2.241,0.505c0.168,0.084,0.251,0.336,0.251,0.758
		c15.676-1.01,31.072-2.473,46.188-4.388c0.042,0,0.063-0.205,0.063-0.615c6.754-0.337,13.008-1.131,18.763-2.383
		c0.41-0.084,0.826-0.126,1.246-0.126c13.539-2.294,25.663-5.96,36.373-10.998c0.337-0.169,0.71-0.253,1.12-0.253
		c4.503-2.577,9.005-5.223,13.508-7.938c0.169-0.125,0.253-0.394,0.253-0.805C433.291,481.484,435.164,481.484,435.574,485.692z
		 M406.208,229.427c8.7-2.125,16.095-7.606,22.187-16.442c0.21-0.284,0.315-0.637,0.315-1.058c0.158,7.669,0.158,17.252,0,28.751
		v1.247c1.451,6.879,1.657,14.775,0.616,23.686c0,0.042-0.206,0.063-0.616,0.063v13.761c0,0.41,0.017,0.825,0.047,1.246
		c0.59,8.963,0.153,16.879-1.31,23.749v33.753c1.463,7.291,1.899,15.623,1.31,24.996c-0.03,0.42-0.047,0.842-0.047,1.262v59.996
		c0.915,21.166,1.936,39.544,3.062,55.135c0.158,2.126-0.862,3.75-3.062,4.876c-0.421,0-0.736,0.101-0.946,0.3
		c-3.42,3.251-7.691,5.649-12.814,7.195v1.247c-0.409,0-0.805,0.063-1.183,0.189c-11.583,4.587-24.521,7.858-38.819,9.815v1.247
		c-0.41,0-0.825,0.021-1.246,0.062c-5.713,0.495-11.13,1.305-16.253,2.431c-0.422,0-0.837,0.021-1.247,0.063
		c-14.834,1.799-30.25,3.03-46.251,3.693h-66.26c-0.411,0-0.826-0.043-1.247-0.127c-2.704-0.536-5.617-0.91-8.742-1.121
		c-0.421,0-0.841-0.021-1.262-0.063c-7.827-0.464-15.328-1.278-22.502-2.446c-0.411,0-0.826-0.036-1.247-0.11
		c-24.585-4.093-44.583-12.802-59.995-26.131c0-0.421-0.063-0.816-0.189-1.185c-1.336-3.166-1.689-7.358-1.058-12.576
		c1.999-7.574,2.83-16.321,2.493-26.242v-42.512h1.247v-79.987h1.247v-78.758c0-0.421-0.042-0.836-0.126-1.247
		c-0.494-3.167-1.283-6.086-2.367-8.758c0.421-7.669,2.336-9.21,5.744-4.624c2.714,3.629,6.217,6.422,10.51,8.379
		c0.41,0,0.721-0.105,0.931-0.315c0.21-0.21,0.316-0.521,0.316-0.931c-7.038-7.133-12.85-15.281-17.437-24.443
		c-13.581-27.257-21.103-60.364-22.565-99.319h-1.247v10.004c0.253,26.837,4.397,50.001,12.435,69.495
		c7.88,19.167,11.651,42.669,11.314,70.505c-2.503,4.586-4.776,9.526-6.816,14.817c-0.042,0.127-0.269,0.189-0.678,0.189h-1.263
		c-32.286-0.631-56.45-9.384-72.493-26.258c-0.42,0-0.694-0.105-0.82-0.316c-1.326-2.083-3.556-3.229-6.691-3.44v-2.493
		c5.417-17.916,10.772-35.852,16.064-53.81c0.126-0.378,0.189-0.779,0.189-1.199v-12.498h1.262v-12.498h1.247v-12.499
		c5.292-33.463,17.895-59.611,37.809-78.441c0.211-0.211,0.526-0.316,0.947-0.316c3.745,9.584,5.617,21.25,5.617,35h0.631v-8.742
		h1.247c0-0.421-0.021-0.836-0.063-1.247c-1.21-8.753-2.025-17.92-2.446-27.504c31.087-13.918,60.737-29.251,88.952-45.999
		c0.284-0.168,0.636-0.253,1.057-0.253c0.096,0.298,0.207,0.619,0.32,0.945c1.105-0.994,2.197-1.917,3.454-2.585
		c-0.003-0.292-0.021-0.571-0.019-0.869c4.292-1.957,7.769-4.765,10.431-8.426c0.125-0.21,0.399-0.315,0.82-0.315
		c0.002,1.04,0.037,2.054,0.086,3.057c0.292-0.323,0.632-0.608,1.024-0.837c0.046-0.325,0.078-0.636,0.136-0.973
		c4.829-0.505,11.619,0.826,20.372,3.992c7.669,2.756,15.88,4.76,24.633,6.012h29.997c16.001-2.335,29.335-4.628,40.003-6.879
		l0.015,0.224c0.122-0.007,0.242-0.018,0.369-0.018c0.735,0,1.383,0.135,1.95,0.366c0.744-1.64,2.043-1.637,3.915,0.059
		c2.251,1.494,3.855,3.598,4.813,6.312c0.127,0.368,0.189,0.763,0.189,1.184c0.001,0.005,0.001,0.009,0.001,0.014
		c1.686-0.073,3.234,0.169,4.661,0.854c0.235-0.426,0.474-0.845,0.72-1.246l1.798,0.947c27.878,14.034,56.318,27.594,85.322,40.681
		c2.703,24.417,1.91,49.002-2.383,73.755c-0.073,0.42-0.11,0.836-0.11,1.247c0,0.42,0.021,0.836,0.063,1.247
		c0.578,6.049,0.137,11.051-1.326,15.007c0,0.421-0.021,0.836-0.063,1.246C441.308,189.545,428.415,214.13,406.208,229.427z
		 M440.513,265.5c-5.712-17.042-8.399-36.982-8.063-59.822c10.047-16.211,15.464-37.046,16.253-62.504V126.92h1.247v-10.005
		c5.007-15.707,5.464-31.976,1.372-48.807c-0.084-0.379-0.126-0.773-0.126-1.184c20.545,16.958,34.8,40.581,42.765,70.868
		c9.372,35.715,18.871,69.595,28.498,101.639c-0.421,0-0.736,0.105-0.947,0.315c-4.618,4.535-10.136,8.18-16.553,10.936
		c-0.421,0-0.779,0.084-1.073,0.252c-4.166,2.452-8.811,4.45-13.935,5.997v1.247c-0.409,0-0.783,0.084-1.119,0.252
		c-4.798,2.209-10.257,3.792-16.381,4.75v1.247c-0.41,0-0.825,0.042-1.246,0.126c-9.794,2.041-19.793,2.415-29.998,1.12
		C440.787,265.673,440.556,265.615,440.513,265.5z M441.207,268.183h1.248c11.203,2.251,21.244,1.499,30.123-2.257
		c0.336-0.168,0.711-0.252,1.121-0.252c6.217-1.283,11.676-3.282,16.379-5.996c0.336-0.168,0.711-0.252,1.121-0.252
		c3.755-1.662,7.526-3.266,11.313-4.813c0.379-0.126,0.778-0.189,1.199-0.189v-1.247c0.831,0,1.577-0.163,2.241-0.489
		c0.169-0.084,0.252-0.336,0.252-0.758c6.039-2.703,11.352-6.143,15.938-10.32c0.212-0.2,0.316-0.51,0.316-0.931
		c0.41,0,0.657,0.084,0.741,0.252c1.168,2.788-0.331,5.202-4.497,7.243c-0.41,0-0.742,0.105-0.994,0.315
		c-3.672,2.956-7.922,5.355-12.75,7.196c-0.421,0-0.631,0.042-0.631,0.126c-0.295,1.283-1.337,1.657-3.125,1.12v1.247
		c-0.41,0-0.764,0.105-1.057,0.316c-1.957,1.293-4.52,2.025-7.686,2.193v1.246c-0.421,0-0.799,0.084-1.137,0.252
		c-5.165,2.662-11.04,4.661-17.625,5.997v1.246c-0.41,0-0.805,0.063-1.185,0.19c-6.827,1.83-14.764,2.598-23.812,2.303
		c-0.421,0-0.836,0.021-1.247,0.063C443.701,272.364,441.617,271.096,441.207,268.183z M467.575,285.114
		c-13.791,2.419-21.749-0.726-23.874-9.437c-0.41,0-0.658-0.084-0.741-0.252c-0.337-0.663-0.505-1.41-0.505-2.241h19.992
		c3.967-0.631,7.738-1.404,11.314-2.32c0.379-0.126,0.778-0.189,1.199-0.189c6.291-2.041,12.167-4.456,17.626-7.243
		c0.326-0.168,0.699-0.252,1.121-0.252c2.66-1.125,5.202-2.293,7.621-3.503c0.337-0.168,0.71-0.252,1.12-0.252
		c5.629-2.704,10.941-5.765,15.938-9.184c0.21-0.126,0.315-0.395,0.315-0.805c0.421,0,0.736-0.105,0.946-0.315
		c3.956-4.418,6.56-3.897,7.812,1.563l-0.757,2.682C513.911,269.955,494.202,280.538,467.575,285.114z"/>
	<g>
		<g>
			<path fill="#514B4E" d="M342.253,25.724c4.804-0.141,9.876-2.089,13.726-4.934c0.813-0.601-0.057-1.413-0.826-1.136
				c-4.334,1.556-8.667,3.111-13,4.667c-1.147,0.412-0.813,1.782,0.363,1.359c4.334-1.556,8.667-3.111,13-4.667
				c-0.275-0.378-0.551-0.757-0.826-1.136c-3.443,2.545-7.979,4.272-12.274,4.399C341.304,24.309,340.939,25.763,342.253,25.724z"/>
		</g>
	</g>
	<g>
		<g>
			<path fill="#514B4E" d="M342.166,26.399c5.021-0.905,9.551-3.3,14.067-5.567c1.099-0.551-0.446-0.586-0.912-0.427
				c-2.599,0.886-4.983,2.206-7.605,3.013c-2.109,0.649-3.933,1.475-5.948,2.417c-1.163,0.543,0.638,0.563,1.133,0.331
				c2.034-0.95,4.023-1.688,6.14-2.416c2.381-0.82,4.589-2.009,6.973-2.821c-0.305-0.142-0.608-0.285-0.912-0.427
				c-4.035,2.025-8.11,4.291-12.599,5.1C341.7,25.745,340.814,26.643,342.166,26.399z"/>
			<path fill="#514B4E" d="M354.768,19.501c-3.041,1.414-6.027,2.936-9.031,4.424c-1.093,0.541,0.437,0.601,0.912,0.427
				c3.364-1.228,7.021-2.078,9.566-4.736c0.45-0.47-1.42-0.256-1.762,0.101c-2.197,2.296-5.582,3.049-8.496,4.112
				c0.305,0.142,0.608,0.285,0.912,0.427c3.004-1.489,5.991-3.011,9.031-4.424C357.064,19.291,355.263,19.271,354.768,19.501z"/>
			<path fill="#514B4E" d="M337.759,27.009c2.822-0.615,5.567-1.48,8.288-2.443c1.113-0.394,0.356-0.78-0.438-0.604
				c-1.695,0.374-3.371,0.552-4.991,1.175c-1.099,0.422-2.198,0.845-3.297,1.268c-1.279,0.492-0.074,0.818,0.691,0.523
				c1.01-0.389,2.021-0.777,3.03-1.166c1.551-0.597,3.087-0.748,4.75-1.115c-0.146-0.202-0.291-0.403-0.438-0.604
				c-2.555,0.904-5.131,1.704-7.78,2.281C336.421,26.575,336.623,27.257,337.759,27.009z"/>
			<path fill="#514B4E" d="M345.957,23.829c-0.2,0.072-0.4,0.143-0.602,0.214c-0.158,0.056-0.689,0.264-0.62,0.521
				c0.088,0.33,0.867,0.128,1.058,0.084c0.383-0.088,0.726-0.217,1.076-0.391c0.184-0.091,0.651-0.437,0.222-0.562
				c-0.427-0.124-0.974,0.042-1.354,0.231c-0.45,0.224,0.385-0.082-0.127,0.037c0.146,0.202,0.291,0.403,0.438,0.604
				c0.2-0.071,0.4-0.142,0.602-0.214c0.121-0.043,0.863-0.373,0.562-0.603C346.896,23.513,346.274,23.715,345.957,23.829z"/>
		</g>
	</g>
	<g>
		<g>
			<path fill="#514B4E" d="M220.668,19.157c1.961,1.891,4.54,3.01,6.908,4.318c0.516,0.285,2.32-0.42,1.541-0.919
				c-2.246-1.44-4.377-3.052-6.78-4.232c-0.55-0.271-2.329,0.532-1.541,0.919c2.402,1.181,4.534,2.793,6.78,4.232
				c0.514-0.306,1.027-0.613,1.541-0.919c-2.274-1.257-4.769-2.33-6.653-4.147C221.985,17.947,220.166,18.672,220.668,19.157z"/>
			<path fill="#514B4E" d="M233.565,24.626c-1.365-1.056-2.667-2.16-4.127-3.085c-0.413-0.262-2.193,0.309-1.668,0.833
				c0.111,0.111,0.222,0.222,0.333,0.333c0.556-0.278,1.112-0.556,1.668-0.833c-2.59-1.382-4.839-3.315-7.552-4.484
				c-0.385-0.166-2.255,0.329-1.668,0.833c3.348,2.878,7.206,5.677,11.346,7.236c0.569,0.214,2.328-0.623,1.541-0.919
				c-4.035-1.52-7.829-4.26-11.091-7.065c-0.556,0.278-1.112,0.556-1.668,0.833c2.712,1.169,4.961,3.102,7.552,4.484
				c0.401,0.214,2.213-0.289,1.668-0.833c-0.111-0.111-0.222-0.222-0.333-0.333c-0.556,0.278-1.112,0.556-1.668,0.833
				c1.375,0.872,2.589,1.921,3.873,2.915C232.3,25.785,234.078,25.022,233.565,24.626z"/>
			<path fill="#514B4E" d="M218.368,15.925c0.208,0.54,0.498,1.034,0.823,1.511c0.179,0.262,0.328,0.533,0.654,0.611
				c0.286,0.068,0.559,0.156,0.833,0.262c0.367,0.141,0.794,0.07,1.148-0.077c0.196-0.082,0.849-0.462,0.52-0.756
				c-0.758-0.677-1.474-1.393-2.115-2.183c-0.408-0.504-2.265,0.169-1.796,0.748c0.64,0.79,1.357,1.506,2.115,2.183
				c0.556-0.278,1.112-0.556,1.668-0.833c-0.387-0.149-0.782-0.275-1.186-0.371c0.102,0.047,0.203,0.094,0.304,0.14
				c-0.42-0.544-0.789-1.106-1.037-1.751C220.044,14.746,218.136,15.324,218.368,15.925z"/>
			<path fill="#514B4E" d="M227.576,23.475c0.375,0.236,0.75,0.446,1.15,0.636c0.41,0.195,1,0.033,1.366-0.186
				c0.277-0.166,0.568-0.516,0.175-0.733c-0.383-0.212-0.767-0.424-1.15-0.636c-0.388-0.214-1.02-0.021-1.366,0.186
				C227.474,22.908,227.183,23.258,227.576,23.475c0.383,0.212,0.767,0.424,1.15,0.636c0.514-0.306,1.027-0.613,1.541-0.919
				c-0.4-0.19-0.774-0.4-1.15-0.636C228.598,22.23,226.808,22.993,227.576,23.475z"/>
			<path fill="#514B4E" d="M218.896,18.459c0.649,0.226,1.277,0.491,1.899,0.783c0.388,0.183,2.228-0.273,1.668-0.833
				c-0.542-0.544-0.939-1.297-1.719-1.445c-0.821-0.156-1.705-0.038-2.456,0.32c-0.289,0.138-0.912,0.555-0.393,0.842
				c1.443,0.798,2.887,1.596,4.331,2.394c0.43,0.238,2.22-0.392,1.668-0.833c-1.037-0.831-2.319-1.46-3.458-2.146
				C219.912,17.224,218.123,17.994,218.896,18.459c1.049,0.632,2.248,1.209,3.204,1.975c0.556-0.278,1.112-0.556,1.668-0.833
				c-1.443-0.798-2.887-1.596-4.331-2.394c-0.131,0.28-0.262,0.561-0.393,0.842c0.665-0.316,1.212,0.696,1.624,1.108
				c0.556-0.278,1.112-0.556,1.668-0.833c-0.622-0.292-1.25-0.558-1.899-0.783c-0.446-0.155-0.966-0.053-1.366,0.186
				C218.852,17.857,218.447,18.304,218.896,18.459z"/>
			<path fill="#514B4E" d="M228.637,24.047c0.155,0.109,0.31,0.218,0.465,0.327c0.556-0.278,1.112-0.556,1.668-0.833
				c-2.325-1.322-4.661-2.646-7.002-3.94c-0.432-0.239-2.219,0.397-1.668,0.833c2.569,2.039,5.474,3.818,8.639,4.747
				c0.434,0.127,2.171-0.528,1.365-0.974c-0.6-0.332-1.199-0.663-1.799-0.994c-0.537-0.297-2.322,0.488-1.541,0.919
				c0.599,0.332,1.199,0.663,1.798,0.994c0.455-0.324,0.91-0.649,1.365-0.974c-2.925-0.857-5.665-2.588-8.032-4.466
				c-0.556,0.278-1.112,0.556-1.668,0.833c2.341,1.295,4.677,2.619,7.002,3.94c0.461,0.262,2.204-0.457,1.668-0.833
				c-0.155-0.109-0.31-0.218-0.465-0.327C229.883,22.912,228.126,23.687,228.637,24.047z"/>
			<path fill="#514B4E" d="M230.433,23.299c-0.053-0.039-0.105-0.079-0.166-0.107c-0.411-0.193-0.999-0.033-1.366,0.186
				c-0.28,0.167-0.565,0.513-0.175,0.733c0.013,0.007,0.025,0.015,0.038,0.021c0.535,0.302,2.321-0.479,1.541-0.919
				c-0.013-0.007-0.025-0.015-0.038-0.021c-0.514,0.306-1.027,0.613-1.541,0.919c-0.03-0.021-0.06-0.042-0.089-0.064
				c0.364,0.263,0.886,0.17,1.276,0.008C230.076,23.987,230.795,23.561,230.433,23.299z"/>
		</g>
	</g>
	<g>
		<g>
			<path fill="#514B4E" d="M343.571,25.004c5.038-0.402,10.299-0.977,14.728-3.596c0.939-0.556-0.13-1.192-0.799-1.033
				c-4.667,1.111-9.334,2.222-14,3.333c-1.2,0.286-0.854,1.532,0.334,1.249c4.667-1.111,9.334-2.222,14-3.333
				c-0.266-0.344-0.532-0.689-0.799-1.033c-3.938,2.328-8.808,2.714-13.272,3.071C342.704,23.747,342.249,25.11,343.571,25.004z"/>
		</g>
	</g>
	<g>
		<g>
			<path fill="#514B4E" d="M326.596,31.003c4.725-1.205,9.45-2.409,14.176-3.614c0.573-0.146,1.343-0.833,0.293-0.855
				c-5.141-0.114-9.877,2.166-14.678,3.691C325.271,30.58,325.461,31.363,326.596,31.003c4.456-1.417,8.909-3.642,13.674-3.537
				c0.098-0.285,0.195-0.57,0.293-0.855c-4.725,1.205-9.45,2.409-14.176,3.614C325.239,30.518,325.453,31.294,326.596,31.003z"/>
			<path fill="#514B4E" d="M326.387,30.225c-0.941,0.24-1.883,0.48-2.824,0.72c-0.273,0.07-0.748,0.23-0.854,0.535
				c-0.133,0.378,0.636,0.33,0.803,0.298c1.043-0.202,2.067-0.467,3.085-0.774c0.215-0.065,0.958-0.289,0.861-0.648
				C327.363,30.005,326.602,30.16,326.387,30.225c-0.845,0.256-1.696,0.498-2.563,0.665c-0.018,0.277-0.034,0.555-0.052,0.833
				c0.941-0.24,1.883-0.48,2.824-0.72c0.217-0.056,0.956-0.295,0.861-0.648C327.361,29.999,326.604,30.169,326.387,30.225z"/>
		</g>
	</g>
	<g>
		<g>
			<path fill="#514B4E" d="M355.272,23.05c-0.249,0.11-0.77,0.371-0.89,0.402c-0.38,0.098-0.729,0.237-0.961,0.56
				c-0.236,0.327,0.97,0.16,1.035,0.139c0.938-0.291,1.853-0.628,2.73-1.071c0.092-0.046,0.592-0.302,0.351-0.466
				c-0.247-0.168-0.736-0.055-0.991,0.024c-0.266,0.083-0.531,0.163-0.798,0.239c-0.168,0.047-0.965,0.263-0.884,0.566
				c0.08,0.3,0.882,0.096,1.048,0.048c0.268-0.076,0.533-0.157,0.798-0.239c-0.213-0.147-0.427-0.294-0.641-0.442
				c-0.573,0.289-1.164,0.536-1.777,0.726c0.345,0.046,0.69,0.093,1.035,0.139c0.019-0.025,0.037-0.05,0.055-0.076
				c-0.29,0.159-0.58,0.317-0.871,0.475c0.646-0.166,1.269-0.487,1.878-0.756c0.165-0.073,0.662-0.411,0.233-0.513
				C356.186,22.701,355.668,22.876,355.272,23.05z"/>
			<path fill="#514B4E" d="M340.125,27.85c-1.274,0.005-2.713-0.102-3.953,0.212c-0.502,0.127-1.003,0.254-1.504,0.381
				c-0.248,0.063-1.417,0.717-0.543,0.708c1.749-0.02,3.475-0.252,5.197-0.535c0.325-0.054,0.967-0.193,1.131-0.533
				c0.157-0.323-0.68-0.213-0.775-0.197c-1.424,0.234-2.857,0.448-4.303,0.465c-0.181,0.236-0.362,0.472-0.543,0.708
				c1.519-0.384,2.354-0.4,4.043-0.407c0.467-0.002,0.969-0.111,1.366-0.366C340.539,28.093,340.507,27.848,340.125,27.85z"/>
			<path fill="#514B4E" d="M358.178,21.885c-0.497,0.078-1.084,0.219-1.395,0.643c-0.132,0.179,0.258,0.229,0.328,0.232
				c0.41,0.019,0.811-0.109,1.184-0.266c0.014-0.006,0.027-0.011,0.041-0.017c0.089-0.037,0.873-0.355,0.573-0.559
				c-0.306-0.208-0.946-0.021-1.245,0.104c-0.162,0.067-0.324,0.135-0.486,0.203c0.504-0.011,1.008-0.022,1.512-0.033
				c0.015-0.02,0.029-0.039,0.043-0.059c-0.29,0.159-0.58,0.317-0.871,0.475c-0.013,0.002-0.025,0.004-0.039,0.007
				c0.324-0.051,0.968-0.195,1.131-0.533C359.11,21.758,358.273,21.87,358.178,21.885z"/>
			<path fill="#514B4E" d="M334.52,28.204c-1.216,0.167-2.423,0.395-3.602,0.739c-0.265,0.077-0.735,0.195-0.871,0.475
				c-0.126,0.26,0.434,0.237,0.537,0.228c1.308-0.116,2.581-0.404,3.84-0.77c0.167-0.048,0.965-0.262,0.884-0.566
				c-0.08-0.299-0.882-0.097-1.048-0.048c-0.935,0.271-1.871,0.506-2.844,0.592c-0.111,0.234-0.223,0.469-0.334,0.703
				c1.011-0.294,2.04-0.48,3.082-0.623c0.322-0.044,0.97-0.199,1.131-0.533C335.453,28.076,334.614,28.191,334.52,28.204z"/>
			<path fill="#514B4E" d="M346.782,26.363c-2.117,0.35-4.245,0.63-6.354,1.021c-0.256,0.047-1.752,0.78-0.803,0.766
				c2.367-0.037,4.792-0.453,7.062-1.115c0.167-0.048,0.966-0.262,0.884-0.566c-0.08-0.299-0.882-0.097-1.048-0.048
				c-1.807,0.526-3.761,0.899-5.647,0.928c-0.268,0.255-0.535,0.51-0.803,0.766c2.109-0.391,4.238-0.672,6.354-1.021
				C347.207,26.965,348.14,26.139,346.782,26.363z"/>
			<path fill="#514B4E" d="M336.43,28.567c1.716,0.13,3.357-0.439,4.879-1.182c-0.479-0.022-0.956-0.044-1.435-0.066
				c-0.237,0.192-0.488,0.292-0.577,0.6c-0.15,0.519,1.515-0.001,1.694-0.134c0.307-0.226,0.621-0.434,0.946-0.632
				c0.754-0.459-0.58-0.403-0.823-0.341c-1.381,0.349-2.762,0.699-4.142,1.048c-0.168,0.042-0.964,0.266-0.884,0.566
				c0.081,0.303,0.88,0.091,1.048,0.048c1.381-0.349,2.762-0.699,4.142-1.048c-0.274-0.114-0.549-0.228-0.823-0.341
				c-0.325,0.198-0.64,0.406-0.946,0.632c0.564-0.044,1.13-0.089,1.694-0.134c0.048-0.163,0.304-0.305,0.423-0.4
				c0.257-0.208-0.073-0.324-0.251-0.332c-0.396-0.018-0.829,0.093-1.184,0.266c-0.819,0.4-1.583,0.721-2.512,0.651
				c-0.448-0.034-0.99,0.125-1.366,0.366C335.993,28.337,336.067,28.54,336.43,28.567z"/>
			<path fill="#514B4E" d="M340.928,26.385c-2.29,0.392-4.452,1.21-6.668,1.877c-0.454,0.137-1.409,0.838-0.334,0.703
				c1.091-0.137,2.146-0.222,3.211-0.492c0.112-0.028,1.332-0.592,0.711-0.686c-0.274-0.027-0.543-0.083-0.805-0.167
				c-0.152,0.202-0.305,0.404-0.457,0.606c1.484-0.472,3.015-0.778,4.5-1.25c0.097-0.031,0.868-0.359,0.573-0.559
				c-0.322-0.219-0.925,0.001-1.245,0.104c-1.484,0.472-3.015,0.778-4.5,1.25c-0.153,0.049-0.982,0.468-0.457,0.606
				c0.263,0.084,0.531,0.14,0.805,0.167c0.237-0.229,0.474-0.457,0.711-0.686c-0.736,0.186-1.453,0.218-2.215,0.314
				c-0.111,0.234-0.223,0.469-0.334,0.703c2.041-0.614,4.041-1.401,6.148-1.761C341.351,26.982,342.285,26.153,340.928,26.385z"/>
			<path fill="#514B4E" d="M355.652,23.172c0.014-0.023,0.026-0.047,0.039-0.07c0.105-0.189-0.232-0.228-0.328-0.232
				c-0.387-0.018-0.843,0.083-1.184,0.266c-0.08,0.043-0.16,0.086-0.24,0.127c-0.09,0.047-0.593,0.302-0.351,0.466
				c0.252,0.171,0.731,0.05,0.991-0.024c0.067-0.019,0.135-0.038,0.201-0.057c0.168-0.048,0.965-0.262,0.884-0.566
				c-0.08-0.3-0.882-0.096-1.048-0.048c-0.067,0.019-0.135,0.038-0.201,0.057c0.213,0.147,0.427,0.294,0.641,0.442
				c0.08-0.042,0.16-0.084,0.24-0.127c-0.504,0.011-1.008,0.022-1.512,0.033c-0.014,0.023-0.026,0.047-0.039,0.07
				c-0.175,0.314,0.693,0.211,0.775,0.197C354.866,23.645,355.463,23.514,355.652,23.172z"/>
			<path fill="#514B4E" d="M346.928,25.135c-1.033,0.207-2.22,0.649-3.262,0.719c-0.111,0.234-0.223,0.469-0.334,0.703
				c0.839-0.203,1.685-0.325,2.477-0.672c0.312-0.137,0.636-0.535,0.066-0.535c-0.167,0-0.334,0-0.5,0
				c-0.348,0.266-0.694,0.531-1.041,0.796c1.383-0.177,2.727-0.464,4.07-0.836c0.795-0.219,1.241-0.851,0.096-0.672
				c-2.811,0.438-5.547,1.037-8.045,2.446c-0.77,0.434,0.588,0.401,0.823,0.341c1.844-0.467,3.688-0.934,5.531-1.4
				c0.268-0.068,0.849-0.226,0.884-0.566c0.008-0.073,0.015-0.145,0.022-0.218c0.027-0.269-1.871-0.073-1.932,0.518
				c-0.008,0.073-0.015,0.145-0.022,0.218c0.295-0.188,0.589-0.377,0.884-0.566c-1.844,0.467-3.688,0.934-5.531,1.4
				c0.274,0.114,0.549,0.228,0.823,0.341c1.914-1.08,4.063-1.45,6.207-1.784c0.032-0.224,0.063-0.448,0.096-0.672
				c-1.014,0.28-2.029,0.524-3.074,0.658c-0.288,0.037-2.029,0.796-1.041,0.796c0.167,0,0.334,0,0.5,0
				c0.022-0.178,0.044-0.357,0.066-0.535c-0.282,0.124-1.091,0.223-1.523,0.328c-0.501,0.121-1.39,0.774-0.334,0.703
				c1.279-0.087,2.486-0.53,3.738-0.781C347.34,25.711,348.279,24.864,346.928,25.135z"/>
			<path fill="#514B4E" d="M359.441,21.365c-1.066,0.581-4.161,2.28-5.264,2.52c0.232,0.099,0.465,0.198,0.698,0.297
				c0.125-0.135,0.25-0.271,0.375-0.406c0.426-0.462-0.81-0.28-0.958-0.239c-1.891,0.519-3.834,0.908-5.738,1.39
				c-0.956,0.242-2.271,0.324-2.931,1.142c-0.263,0.326,0.229,0.347,0.46,0.328c0.837-0.122,0.898-0.086,0.185,0.105
				c-0.83,0.28-0.685,0.737,0.158,0.593c4.9-0.839,10.917-1.8,14.449-5.662c0.41-0.449-1.437-0.208-1.752,0.137
				c-3.049,3.333-8.099,4.069-12.342,4.795c0.053,0.198,0.105,0.395,0.158,0.593c0.729-0.247,1.396-0.514,2.051-0.922
				c0.167-0.104,0.363-0.345,0.052-0.413c-0.751-0.164-1.353-0.081-2.127-0.018c0.153,0.109,0.307,0.218,0.46,0.328
				c-0.263,0.325-0.525,0.083,0.396-0.15c0.66-0.167,1.321-0.334,1.981-0.501c1.564-0.396,3.148-0.702,4.704-1.129
				c-0.319-0.08-0.639-0.159-0.958-0.239c-0.125,0.135-0.25,0.271-0.375,0.406c-0.364,0.395,0.524,0.334,0.698,0.297
				c2.435-0.529,4.565-1.797,6.736-2.98C361.685,21.021,359.899,21.116,359.441,21.365z"/>
			<path fill="#514B4E" d="M355.383,23.6c0.06-0.088,0.118-0.175,0.177-0.263c0.23-0.343-0.974-0.154-1.035-0.139
				c-1.053,0.258-2.037,0.705-3.097,0.937c0.263,0.036,0.525,0.071,0.788,0.106c0.054-0.103,0.106-0.207,0.16-0.31
				c0.477-0.502-1.075-0.205-1.212-0.159c-0.971,0.323-1.942,0.638-2.924,0.923c-0.788,0.229-1.245,0.846-0.096,0.672
				c2.171-0.329,4.244-0.755,6.367-1.293c0.168-0.042,0.964-0.266,0.884-0.566c-0.081-0.303-0.88-0.091-1.048-0.048
				c-1.952,0.494-3.853,0.875-5.848,1.177c-0.032,0.224-0.063,0.448-0.096,0.672c1.152-0.334,2.293-0.704,3.432-1.083
				c-0.403-0.053-0.808-0.106-1.212-0.159c-0.229,0.241-0.323,0.361-0.34,0.69c-0.012,0.229,0.704,0.125,0.788,0.106
				c1.235-0.271,2.395-0.753,3.616-1.053c-0.345-0.046-0.69-0.093-1.035-0.139c-0.06,0.088-0.118,0.175-0.177,0.263
				c-0.201,0.299,0.713,0.208,0.775,0.197C354.625,24.067,355.156,23.938,355.383,23.6z"/>
			<path fill="#514B4E" d="M353.586,23.978c0.366-0.125,0.726-0.265,1.085-0.409c0.139-0.056,0.695-0.242,0.63-0.486
				c-0.064-0.239-0.643-0.135-0.788-0.106c-1.33,0.258-2.568,0.558-3.754,1.24c-0.095,0.054-0.342,0.248-0.168,0.365
				c0.257,0.175,0.725,0.042,0.991-0.024c1.183-0.293,2.369-0.499,3.475-1.025c0.094-0.044,0.591-0.303,0.351-0.466
				c-0.249-0.169-0.735-0.054-0.991,0.024c-0.414,0.125-0.829,0.245-1.248,0.353c-0.168,0.043-0.965,0.265-0.884,0.566
				c0.081,0.303,0.88,0.092,1.048,0.048c0.419-0.107,0.834-0.228,1.248-0.353c-0.213-0.147-0.427-0.294-0.641-0.442
				c-0.674,0.321-1.65,0.464-2.521,0.68c0.274,0.114,0.549,0.228,0.823,0.341c0.605-0.348,1.242-0.447,1.916-0.578
				c-0.053-0.198-0.105-0.395-0.158-0.593c-0.359,0.144-0.72,0.283-1.085,0.409c-0.095,0.032-0.869,0.358-0.573,0.559
				C352.658,24.297,353.271,24.086,353.586,23.978z"/>
			<path fill="#514B4E" d="M358.732,22.133c0.021-0.029,0.043-0.057,0.063-0.086c0.177-0.239-0.478-0.232-0.537-0.228
				c-0.389,0.03-0.83,0.141-1.157,0.362c-0.065,0.044-0.132,0.088-0.198,0.132c-0.168,0.11-0.362,0.338-0.052,0.413
				c0.365,0.088,0.786-0.034,1.129-0.151c0.045-0.015,0.09-0.031,0.135-0.046c0.095-0.032,0.869-0.358,0.573-0.559
				c-0.318-0.216-0.93-0.004-1.245,0.104c-0.045,0.015-0.09,0.031-0.135,0.046c0.359,0.087,0.718,0.174,1.077,0.262
				c0.066-0.043,0.133-0.087,0.198-0.132c-0.564,0.044-1.13,0.089-1.694,0.134c-0.021,0.029-0.043,0.057-0.063,0.086
				c-0.214,0.289,0.723,0.207,0.775,0.197C357.989,22.598,358.486,22.467,358.732,22.133z"/>
			<path fill="#514B4E" d="M356.39,23.319c0.672-0.296,1.37-0.553,1.996-0.938c0.174-0.107,0.357-0.339,0.052-0.413
				c-0.357-0.086-0.797,0.024-1.129,0.151c-0.169,0.064-0.528,0.249-0.631,0.265c-0.118,0.244-0.237,0.487-0.355,0.73
				c0.367-0.07,0.707-0.182,1.041-0.348c0.161-0.08,0.317-0.175,0.473-0.266c0.317-0.186,0.864-0.304-0.014-0.137
				c-0.258-0.066-0.517-0.132-0.775-0.197c-0.053,0.072-0.105,0.144-0.157,0.215c-0.176,0.24,0.477,0.232,0.537,0.228
				c0.38-0.03,0.842-0.135,1.157-0.362c0.359-0.259,0.707-0.527,1.042-0.818c0.245-0.213-0.063-0.323-0.251-0.332
				c-0.454-0.021-0.984,0.119-1.366,0.366c-0.719,0.466-1.479,0.846-2.273,1.164c-0.673,0.27-1.699,0.364-2.082,1.043
				c-0.205,0.364,0.957,0.159,1.035,0.139c0.409-0.103,0.817-0.208,1.225-0.32c0.168-0.046,0.965-0.264,0.884-0.566
				c-0.081-0.301-0.881-0.094-1.048-0.048c-0.407,0.111-0.815,0.217-1.225,0.32c0.345,0.046,0.69,0.093,1.035,0.139
				c0.031-0.055,0.063-0.11,0.093-0.165c-0.205,0.132-0.411,0.264-0.617,0.396c1.56-0.503,3.078-1.14,4.456-2.034
				c-0.539,0.011-1.078,0.023-1.617,0.034c-0.249,0.216-0.505,0.42-0.772,0.613c0.564-0.044,1.13-0.089,1.694-0.134
				c0.053-0.072,0.105-0.144,0.157-0.215c0.212-0.29-0.72-0.208-0.775-0.197c-0.367,0.07-0.707,0.182-1.041,0.348
				c-0.161,0.08-0.317,0.175-0.473,0.266c-0.317,0.186-0.864,0.304,0.014,0.137c-0.327,0.063-0.964,0.188-1.131,0.533
				c-0.157,0.323,0.68,0.213,0.775,0.197c0.58-0.096,1.113-0.333,1.658-0.541c-0.359-0.087-0.718-0.174-1.077-0.262
				c-0.499,0.307-1.095,0.5-1.631,0.737c-0.165,0.073-0.662,0.411-0.233,0.513C355.476,23.668,355.995,23.494,356.39,23.319z"/>
			<path fill="#514B4E" d="M355.297,23.405c0.233-0.12,0.466-0.241,0.694-0.371c0.181-0.103,0.352-0.34,0.052-0.413
				c-0.365-0.088-0.786,0.034-1.129,0.151c-0.309,0.105-0.612,0.221-0.915,0.341c-0.139,0.055-0.695,0.243-0.63,0.486
				c0.063,0.239,0.644,0.136,0.788,0.106c0.227-0.046,0.451-0.096,0.675-0.149c-0.345-0.046-0.69-0.093-1.035-0.139
				c-0.004,0.007-0.008,0.013-0.012,0.02c-0.182,0.311,0.699,0.21,0.775,0.197c0.353-0.062,0.932-0.192,1.131-0.533
				c0.004-0.007,0.008-0.013,0.012-0.02c0.212-0.361-0.962-0.157-1.035-0.139c-0.051,0.017-0.103,0.028-0.155,0.033
				c0.053,0.198,0.105,0.395,0.158,0.593c0.303-0.121,0.606-0.236,0.915-0.341c-0.359-0.087-0.718-0.174-1.077-0.262
				c-0.107,0.061-0.22,0.113-0.329,0.169c-0.154,0.079-0.67,0.409-0.234,0.513C354.366,23.75,354.923,23.596,355.297,23.405z"/>
			<path fill="#514B4E" d="M356.965,23.173c0.632-0.2,1.203-0.365,1.647-0.881c0.442-0.515-1.048-0.227-1.212-0.159
				c-0.471,0.195-0.883,0.44-1.33,0.678c-0.151,0.081-0.672,0.408-0.234,0.513c0.416,0.1,0.984-0.048,1.352-0.244
				c0.299-0.159,0.614-0.38,0.885-0.493c-0.403-0.053-0.808-0.106-1.212-0.159c-0.094,0.109-0.19,0.211-0.293,0.313
				c0.181-0.099,0.36-0.197,0.54-0.296c-0.271,0.095-0.542,0.187-0.814,0.273c-0.097,0.031-0.868,0.359-0.573,0.559
				C356.042,23.496,356.644,23.274,356.965,23.173z"/>
		</g>
	</g>
	<g>
		<g>
			<path fill="#514B4E" d="M349.923,24.806c-0.374,0.122-0.754,0.228-1.133,0.336c-0.262,0.075-0.729,0.185-0.878,0.45
				c-0.162,0.29,0.693,0.167,0.765,0.154c0.868-0.156,1.79-0.178,2.444-0.832c0.301-0.301-0.268-0.297-0.446-0.28
				c-0.399,0.04-0.997,0.153-1.296,0.452c-0.074,0.075-0.149,0.15-0.225,0.225c0.353-0.139,0.705-0.278,1.058-0.417
				c-0.389,0.058-0.775,0.121-1.162,0.19c-0.038,0.201-0.076,0.403-0.113,0.604c0.549-0.157,1.098-0.316,1.641-0.493
				c0.07-0.023,0.869-0.347,0.585-0.516C350.837,24.485,350.239,24.703,349.923,24.806z"/>
			<path fill="#514B4E" d="M352.927,24.228c-1.156,0.271-2.287,0.399-3.389,0.883c-0.096,0.042-0.46,0.196-0.415,0.363
				c0.044,0.166,0.438,0.122,0.541,0.107c1.403-0.199,3.075-0.17,4.207-1.167c0.328-0.29-0.292-0.295-0.446-0.28
				c-0.422,0.042-0.968,0.163-1.296,0.452c-0.175,0.154,0.254-0.075-0.124,0.072c-0.188,0.073-0.372,0.152-0.556,0.238
				c0.325-0.087,0.65-0.174,0.976-0.261c-0.641,0.049-1.276,0.125-1.911,0.215c0.042,0.157,0.084,0.313,0.126,0.47
				c0.748-0.329,1.641-0.362,2.434-0.547c0.148-0.035,0.966-0.258,0.893-0.531C353.892,23.962,353.076,24.193,352.927,24.228z"/>
			<path fill="#514B4E" d="M354.662,24.928c-0.878-0.304-1.818-0.424-2.735-0.201c-1.188,0.29-2.214,0.953-3.38,0.662
				c-0.156,0.185-0.313,0.37-0.47,0.555c0.286-0.086,0.572-0.171,0.859-0.257c0.763-0.222,1.262-0.826,0.113-0.604
				c-2.395,0.464-4.75,1.084-7.123,1.645c-0.794,0.188-1.248,0.802-0.113,0.604c3.997-0.699,8.06-0.833,12.01-1.809
				c1.13-0.28,0.977-0.822-0.146-0.545c-3.766,0.931-7.677,1.024-11.49,1.691c-0.038,0.201-0.076,0.403-0.113,0.604
				c2.199-0.52,4.384-1.097,6.604-1.526c0.038-0.201,0.076-0.403,0.113-0.604c-0.458,0.133-0.912,0.271-1.367,0.414
				c-0.14,0.044-0.979,0.428-0.47,0.555c2.04,0.51,3.957-1.205,5.885-0.539C353.374,25.757,354.782,24.97,354.662,24.928z"/>
			<path fill="#514B4E" d="M350.275,24.884c-0.371,0.054-0.87,0.176-1.146,0.452c-0.448,0.449,1.057,0.163,1.198,0.108
				c0.029-0.012,0.06-0.023,0.089-0.035c0.065-0.026,0.872-0.345,0.585-0.516c-0.313-0.187-0.938,0.01-1.239,0.128
				c-0.029,0.012-0.06,0.023-0.089,0.035c0.399,0.036,0.799,0.072,1.198,0.108c0.008-0.009,0.017-0.017,0.025-0.025
				c-0.353,0.139-0.705,0.278-1.058,0.417c0.021-0.003,0.042-0.006,0.063-0.009c0.319-0.047,0.96-0.192,1.138-0.509
				C351.203,24.747,350.345,24.874,350.275,24.884z"/>
		</g>
	</g>
</g>
</svg>
