<?xml version="1.0" encoding="utf-8"?>
<!-- Generator: Adobe Illustrator 15.0.0, SVG Export Plug-In . SVG Version: 6.00 Build 0)  -->
<!DOCTYPE svg PUBLIC "-//W3C//DTD SVG 1.1//EN" "http://www.w3.org/Graphics/SVG/1.1/DTD/svg11.dtd">
<svg version="1.1" id="Шар_1" xmlns="http://www.w3.org/2000/svg" xmlns:xlink="http://www.w3.org/1999/xlink" x="0px" y="0px"
	 width="587px" height="543px" viewBox="0 0 587 543" enable-background="new 0 0 587 543" xml:space="preserve">
<style type="text/css">
	<![CDATA[
	 .bg {fill:#FFFFFF}
	]]>
</style>
<path class="bg" fill-rule="evenodd" clip-rule="evenodd" d="M520.306,240.901c0.468,0.418,0.896,0.825,1.281,1.219
	c0.192-0.167,0.38-0.333,0.563-0.5c0.209-0.208,0.313-0.521,0.313-0.938c0.417,0,0.667,0.084,0.751,0.25
	c0.46,1.102,0.502,2.144,0.125,3.125c0.607,0.785,1.024,1.504,1.25,2.156c1.293,0.258,2.252,1.747,2.875,4.469l-0.75,2.688
	c-12.793,16.584-32.502,27.168-59.128,31.751c-13.792,2.417-21.751-0.729-23.876-9.438c-0.417,0-0.667-0.084-0.75-0.251
	c-0.259-0.516-0.415-1.078-0.469-1.687c-2.641-1.67-4.089-3.982-4.344-6.938c-0.17-1.7,0.079-3.888,0.75-6.563
	c-2.655-9.156-4.489-19.094-5.5-29.814c-1.348-0.782-2.868-1.386-4.563-1.812c-0.021,3.758-0.063,7.78-0.126,12.063
	c0,0.417,0,0.833,0,1.25c1.459,6.875,1.667,14.772,0.625,23.689c0,0.042-0.208,0.063-0.625,0.063c0,4.167,0,8.333,0,12.5
	c0,0.417,0,0.833,0,1.25s0.021,0.833,0.063,1.25c0.584,8.958,0.146,16.876-1.313,23.751c0,10.834,0,21.668,0,32.501
	c0,0.417,0,0.834,0,1.25c1.459,7.293,1.896,15.626,1.313,25.002c-0.041,0.416-0.063,0.833-0.063,1.25c0,7.917,0,15.833,0,23.751
	c0,0.417,0,0.833,0,1.25c0,11.25,0,22.501,0,33.751c0,0.417,0,0.833,0,1.25c0.917,21.168,1.938,39.544,3.063,55.128
	c0.015,0.191,0.024,0.379,0.031,0.562c0.699,0.861,1.335,1.663,1.906,2.407c0.935-0.11,1.538,0.744,1.813,2.563
	c0.813,1.273,1.344,2.314,1.594,3.125c0.107-0.021,0.222-0.031,0.344-0.031c0,0.417,0.041,0.833,0.125,1.25
	c0.958,4.792,0.917,8.542-0.125,11.251c0,0.416-0.104,0.687-0.313,0.812c-27.71,18.21-63.857,27.939-108.442,29.189
	c0,0.417-0.021,0.625-0.063,0.625c-7.459,0.417-14.938,0.625-22.438,0.625c-0.417,0-0.833,0-1.25,0c-15,0-30.001,0-45.002,0
	c-0.417,0-0.833,0.021-1.25,0.063c-7.292,0.583-13.542,0.146-18.751-1.313c-0.417,0-0.833,0-1.25,0
	c-40.627-0.625-71.461-11.042-92.504-31.251c-0.417,0-0.625-0.021-0.625-0.063c-0.329-3.254-0.527-6.524-0.594-9.813
	c-0.854-1.374-1.281-2.729-1.281-4.063c0-2.459,0.521-4.646,1.563-6.563c0.606-1.136,1.366-2.063,2.282-2.781
	c-0.488-2.604-0.52-5.677-0.094-9.22c2-7.584,2.833-16.334,2.5-26.251c0-0.417,0-0.833,0-1.25s0-0.833,0-1.25
	c0-13.334,0-26.668,0-40.002c0.417,0,0.833,0,1.25,0c0-0.417,0-0.833,0-1.25c0-5.833,0-11.667,0-17.501c0-0.417,0-0.833,0-1.25
	c0-4.583,0-9.167,0-13.75c0-0.417,0-0.834,0-1.25c0-5.418,0-10.834,0-16.251c0-0.417,0-0.833,0-1.25c0-9.168,0-18.334,0-27.501
	c0.417,0,0.833,0,1.25,0c0-0.417,0-0.834,0-1.25c0-9.584,0-19.168,0-28.752c0-0.417,0-0.833,0-1.25c0-5,0-10,0-15
	c0-0.417,0-0.833,0-1.25c0-5.068,0-10.142,0-15.219c-0.428,0.146-0.845,0.219-1.25,0.219c-0.381,0-0.788-0.042-1.219-0.125
	c-0.01,0.876-0.021,1.751-0.031,2.625c-1.85,3.392-3.579,6.975-5.188,10.75c0.958,2.021,1.438,3.646,1.438,4.875
	c0,2.917-0.729,5.104-2.188,6.563c-0.727,0.716-1.644,1.341-2.75,1.875c-0.022,6.712-3.251,10.649-9.688,11.813
	c-0.208,0-0.396,0.021-0.562,0.063c-0.042,0-0.063,0.021-0.063,0.062c-2.166,0.292-4.646,0.313-7.438,0.063
	c-12.042-1.042-21.876-3.167-29.501-6.376c-16.458-6.875-29.063-17.188-37.814-30.938c1.583-0.917,2.417-2.584,2.5-5
	c0-0.363,0-0.728,0-1.094v-0.031c0-0.042,0-0.083,0-0.125c0.019-1.79,0.436-3.395,1.25-4.813c0-0.058,0-0.121,0-0.188
	c0.034,0.006,0.065,0.017,0.094,0.031c0.417-0.682,0.928-1.317,1.531-1.906c0.191-0.184,0.389-0.361,0.594-0.531
	c-0.313-0.041-0.636-0.072-0.969-0.094c0-0.417,0-0.833,0-1.25c0-0.417,0-0.833,0-1.25c5.417-17.917,10.771-35.855,16.063-53.814
	c0.125-0.375,0.188-0.771,0.188-1.188c0-0.417,0-0.833,0-1.25c0-3.75,0-7.5,0-11.25c0.417,0,0.833,0,1.25,0c0-0.417,0-0.833,0-1.25
	c0-3.75,0-7.5,0-11.25c0.417,0,0.833,0,1.25,0c0-0.417,0-0.833,0-1.25c0-3.75,0-7.5,0-11.25
	c5.292-33.459,17.897-59.606,37.814-78.441c0.208-0.208,0.521-0.313,0.938-0.313c0.034,0.087,0.065,0.17,0.094,0.25
	c0.19-0.232,0.388-0.461,0.593-0.688c1.833-2,4.021-3.125,6.563-3.375c0.26-0.025,0.521-0.036,0.781-0.032
	c29.936-13.545,58.531-28.41,85.785-44.595c0.599-1.196,1.37-2.196,2.313-3c1.858-1.562,4.941-2.916,9.25-4.063
	c1.417-1.245,2.688-2.641,3.813-4.188c0.125-0.208,0.396-0.313,0.813-0.313c0.002,1.163,0.034,2.298,0.094,3.407
	c0.288-0.049,0.58-0.102,0.875-0.156c0.067-0.636,0.161-1.303,0.281-2c4.833-0.5,11.625,0.833,20.376,4
	c7.667,2.75,15.875,4.75,24.626,6c9.583,0,19.167,0,28.751,0c0.417,0,0.833,0,1.25,0c16-2.333,29.335-4.625,40.002-6.875
	l0.125,1.875c0.012,0.15,0.021,0.296,0.031,0.438c0.547-0.132,1.12-0.236,1.719-0.313c0.022-0.081,0.043-0.165,0.063-0.25
	c0.625-2.792,2.063-3.167,4.313-1.125c0.699,0.466,1.334,0.987,1.906,1.563c4.246,0.748,7.402,2.769,9.47,6.063l0.03,0.031
	l0.781,0.407c27.799,14.002,56.154,27.524,85.066,40.563c2.524-0.098,5.379,2.902,8.563,9.001
	c17.44,16.484,29.754,38.402,36.939,65.753c9.376,35.709,18.876,69.586,28.501,101.629c-0.416,0-0.729,0.104-0.938,0.313
	C521.125,240.138,520.719,240.523,520.306,240.901z"/>
<path fill-rule="evenodd" clip-rule="evenodd" fill="#514B4E" d="M451.322,68.108c4.092,16.832,3.635,33.101-1.372,48.807
	c0,2.925,0,5.844,0,8.758c0,0.421,0,0.836,0,1.247c-0.41,0-0.826,0-1.247,0c0,4.586,0,9.173,0,13.76c0,0.41,0,0.825,0,1.246
	c0,0.411,0,0.826,0,1.247c-0.789,25.458-6.206,46.293-16.253,62.504c-0.337,22.839,2.351,42.779,8.063,59.822
	c0.043,0.116,0.274,0.173,0.694,0.173c10.205,1.294,20.204,0.921,29.998-1.12c0.421-0.084,0.836-0.126,1.246-0.126
	c0-0.411,0-0.826,0-1.247c6.124-0.958,11.583-2.541,16.381-4.75c0.336-0.168,0.71-0.252,1.119-0.252c0-0.421,0-0.836,0-1.247
	c5.124-1.546,9.769-3.545,13.935-5.997c0.294-0.168,0.652-0.252,1.073-0.252c6.417-2.756,11.935-6.401,16.553-10.936
	c0.211-0.21,0.526-0.315,0.947-0.315c-9.627-32.043-19.126-65.923-28.498-101.639c-7.965-30.287-22.22-53.91-42.765-70.868
	C451.196,67.335,451.238,67.729,451.322,68.108z M446.273,139.418c-0.042-0.41-0.063-0.826-0.063-1.247
	c0-0.41,0.037-0.826,0.11-1.247c4.293-24.753,5.086-49.339,2.383-73.755c-29.004-13.087-57.444-26.647-85.322-40.681l-1.798-0.947
	c-2.252,3.671-4.045,8.379-5.382,14.123c0,0.421-0.084,0.8-0.252,1.136c-1.705,3.619-4.12,6.575-7.243,8.868
	c0,0.421,0,0.836,0,1.247c0,0.42-0.105,0.736-0.315,0.947c-7.007,6.743-15.654,11.846-25.942,15.307c0,0.42-0.042,0.652-0.127,0.694
	c-6.837,1.789-13.881,3.224-21.129,4.308c-0.411,0-0.826,0.042-1.247,0.126c-10.288,2.335-19.456,1.877-27.504-1.373
	c6.249,0,12.502,0,18.762,0c0.411,0,0.826,0,1.247,0c0-0.421,0-0.836,0-1.247c10.078,0.073,18.847-1.115,26.305-3.566
	c0.379-0.126,0.779-0.19,1.199-0.19c10.868-3.292,19.721-8.605,26.558-15.938c0.211-0.21,0.521-0.316,0.932-0.316
	c0-0.42,0-0.836,0-1.247c3.083-2.756,5.502-6.133,7.259-10.13c0.169-0.336,0.252-0.71,0.252-1.121c0-0.421,0.085-0.794,0.253-1.12
	c1.157-2.546,1.488-5.923,0.994-10.131c0-0.421-0.063-0.815-0.189-1.184c-0.957-2.714-2.562-4.818-4.813-6.312
	c-2.252-2.041-3.688-1.667-4.308,1.12c-6.376,28.751-29.109,41.313-68.202,37.683c-5.375-0.495-10.083-1.136-14.123-1.926
	c-23.87-4.586-35.825-18.546-35.868-41.879c-0.421,0-0.695,0.105-0.82,0.315c-2.662,3.661-6.139,6.47-10.431,8.426
	c-0.042,7.543,1.52,13.46,4.687,17.752c0.21,0.252,0.315,0.589,0.315,1.01c3.251,3.409,6.292,7.054,9.121,10.936
	c0.168,0.2,0.457,0.299,0.868,0.299c0.421,0,0.757,0.105,1.01,0.316c4.534,3.755,9.2,7.4,13.997,10.936
	c-0.42,0-0.815-0.058-1.183-0.173c-6.007-2.251-11.031-5.523-15.07-9.815c-0.421,0-0.731-0.105-0.931-0.315
	c-3.419-3.251-6.443-6.896-9.073-10.936c-0.832-1.672-1.62-3.361-2.367-5.065c-2.503-5.46-4.213-9.605-5.128-12.435
	c-0.421,0-0.773,0.084-1.057,0.253c-28.214,16.748-57.865,32.081-88.952,45.999c0.42,9.584,1.236,18.751,2.446,27.504
	c0.042,0.41,0.063,0.826,0.063,1.247c-0.421,0-0.836,0-1.247,0c0,2.493,0,4.992,0,7.496c0,0.421,0,0.836,0,1.246h-0.631
	c0-13.75-1.872-25.416-5.617-35c-0.421,0-0.736,0.105-0.947,0.316c-19.914,18.83-32.517,44.978-37.809,78.441
	c0,3.746,0,7.496,0,11.251c0,0.411,0,0.826,0,1.247c-0.421,0-0.836,0-1.247,0c0,3.755,0,7.505,0,11.25c0,0.421,0,0.837,0,1.247
	c-0.42,0-0.842,0-1.262,0c0,3.755,0,7.505,0,11.251c0,0.421,0,0.836,0,1.247c0,0.42-0.063,0.821-0.189,1.199
	c-5.292,17.958-10.646,35.894-16.064,53.81c0,0.421,0,0.836,0,1.247c0,0.42,0,0.836,0,1.246c3.135,0.211,5.365,1.357,6.691,3.44
	c0.126,0.211,0.4,0.316,0.82,0.316c16.043,16.874,40.207,25.627,72.493,26.258c0.42,0,0.842,0,1.263,0
	c0.41,0,0.636-0.063,0.678-0.189c2.041-5.292,4.313-10.231,6.816-14.817c0.337-27.836-3.434-51.337-11.314-70.505
	c-8.037-19.494-12.182-42.658-12.435-69.495c0-0.42,0-0.841,0-1.262c0-2.914,0-5.828,0-8.742c0.41,0,0.826,0,1.247,0
	c1.462,38.956,8.984,72.062,22.565,99.319c4.587,9.163,10.399,17.311,17.437,24.443c0,0.41-0.105,0.721-0.316,0.931
	c-0.21,0.21-0.521,0.315-0.931,0.315c-4.292-1.957-7.795-4.75-10.51-8.379c-3.408-4.586-5.323-3.045-5.744,4.624
	c1.084,2.672,1.873,5.591,2.367,8.758c0.084,0.41,0.126,0.826,0.126,1.247c0,10.415,0,20.83,0,31.245c0,0.42,0,0.836,0,1.246
	c0,5.008,0,10.01,0,15.007c0,0.421,0,0.837,0,1.246c0,9.584,0,19.168,0,28.752c0,0.421,0,0.841,0,1.263c-0.41,0-0.826,0-1.247,0
	c0,9.162,0,18.325,0,27.488c0,0.42,0,0.842,0,1.262c0,5.407,0,10.821,0,16.238c0,0.42,0,0.842,0,1.262c0,4.576,0,9.158,0,13.745
	c0,0.421,0,0.836,0,1.246c0,5.839,0,11.673,0,17.5c0,0.421,0,0.837,0,1.246c-0.411,0-0.826,0-1.247,0c0,13.341,0,26.674,0,40.003
	c0,0.421,0,0.842,0,1.263c0,0.41,0,0.825,0,1.246c0.337,9.921-0.494,18.668-2.493,26.242c-0.631,5.218-0.279,9.41,1.058,12.576
	c0.126,0.368,0.189,0.764,0.189,1.185c15.412,13.329,35.41,22.038,59.995,26.131c0.421,0.074,0.836,0.11,1.247,0.11
	c7.174,1.168,14.675,1.982,22.502,2.446c0.421,0.042,0.841,0.063,1.262,0.063c3.125,0.211,6.039,0.585,8.742,1.121
	c0.421,0.084,0.836,0.127,1.247,0.127c2.924,0,5.843,0,8.758,0c0.41,0,0.825,0,1.246,0c18.336,0,36.673,0,55.01,0
	c0.41,0,0.825,0,1.246,0c16.001-0.663,31.417-1.895,46.251-3.693c0.41-0.042,0.825-0.063,1.247-0.063
	c5.123-1.126,10.54-1.936,16.253-2.431c0.421-0.041,0.836-0.062,1.246-0.062c0-0.422,0-0.837,0-1.247
	c14.298-1.957,27.236-5.229,38.819-9.815c0.378-0.126,0.773-0.189,1.183-0.189c0-0.421,0-0.836,0-1.247
	c5.123-1.546,9.395-3.944,12.814-7.195c0.21-0.199,0.525-0.3,0.946-0.3c2.199-1.126,3.22-2.75,3.062-4.876
	c-1.126-15.591-2.146-33.969-3.062-55.135c0-0.421,0-0.837,0-1.247c0-11.256,0-22.507,0-33.753c0-0.421,0-0.836,0-1.247
	c0-7.922,0-15.838,0-23.749c0-0.42,0.017-0.842,0.047-1.262c0.59-9.373,0.153-17.705-1.31-24.996c0-0.42,0-0.836,0-1.246
	c0-10.835,0-21.672,0-32.507c1.463-6.87,1.899-14.786,1.31-23.749c-0.03-0.421-0.047-0.836-0.047-1.246c0-0.421,0-0.836,0-1.247
	c0-4.177,0-8.347,0-12.514c0.41,0,0.616-0.021,0.616-0.063c1.041-8.911,0.835-16.806-0.616-23.686c0-0.411,0-0.826,0-1.247
	c0.158-11.499,0.158-21.082,0-28.751c0,0.421-0.105,0.773-0.315,1.058c-6.092,8.836-13.486,14.317-22.187,16.442
	c22.207-15.296,35.1-39.881,38.676-73.756c0.042-0.41,0.063-0.825,0.063-1.246C446.41,150.469,446.852,145.467,446.273,139.418z
	 M510.323,181.55c3.136,12.708,7.055,25.211,11.757,37.509c4.544,11.793,8.421,24.417,11.63,37.872
	c-17.126,16.621-40.46,27.015-70,31.181c-0.421,0.042-0.841,0.063-1.263,0.063c0-0.409-0.021-0.614-0.063-0.614
	c-4.123-0.422-8.268-0.632-12.434-0.632c0,0.421,0,0.837,0,1.246c-0.41,0-0.742-0.1-0.995-0.3
	c-8.668-7.132-14.17-17.447-16.505-30.944c0,6.669,0,13.334,0,19.993c0,0.421,0,0.843,0,1.263c-0.41,0-0.826,0-1.247,0
	c0,3.745,0,7.496,0,11.251c0,0.41,0,0.826,0,1.246c-0.421,0-0.836,0-1.246,0c0,8.753,0,17.501,0,26.243c0,0.421,0,0.841,0,1.263
	c0,4.166,0.204,8.311,0.615,12.434c0,0.042,0.21,0.063,0.631,0.063c0,4.576,0,9.157,0,13.745c0,0.42,0,0.835,0,1.246
	c0,27.92,0.211,55.84,0.631,83.76h0.616c0,0.421,0.021,0.836,0.063,1.247c2.756,23.88,6.485,46.798,11.188,68.753
	c-18.126,16.874-42.67,27.521-73.629,31.938c-30.666,4.376-64.04,7.002-100.124,7.875c-58.796,1.419-101.718-12.268-128.765-41.061
	c0-0.42,0-0.836,0-1.246c0-5.008,0-10.01,0-15.007c4.839-23.912,6.927-50.58,6.265-80.004c0-0.411,0-0.826,0-1.246
	c1.452-5.208,1.888-11.458,1.31-18.748c-0.042-0.42-0.063-0.841-0.063-1.262c0-0.411,0-0.826,0-1.247c0-4.996,0-9.994,0-14.991
	c0-0.42,0-0.842,0-1.262c0-4.576,0-9.158,0-13.745c0-0.42,0-0.836,0-1.246c0.621-19.799,0.205-38.55-1.247-56.255
	c0-0.422,0.058-0.816,0.173-1.185c1.757-6.501,2.53-14.023,2.319-22.564h-0.63c0.673,15.254-4.535,24.422-15.623,27.504
	c-0.41,0-0.826,0-1.247,0c-4.166,0-8.332,0-12.498,0c-11.918-1.42-22.67-4.108-32.254-8.063c-9.331-3.798-17.79-8.362-25.374-13.696
	c-5.628-3.956-9.336-9.621-11.125-16.996c11.33-26.174,18.789-55.803,22.376-88.888c4.166-38.703,15.938-69.495,35.315-92.376
	c5.46-6.501,12.44-11.604,20.94-15.307c35.789-15.749,69.163-33.979,100.124-54.693c12.456,5.46,26.621,9.189,42.496,11.188
	c0.42,0.042,0.841,0.063,1.262,0.063c4.787,1.462,10.599,1.672,17.437,0.631c0.042,0,0.063-0.21,0.063-0.631
	c20.325-0.495,37.847-3.767,52.563-9.815c0.368-0.126,0.763-0.189,1.184-0.189c35.873,19.967,72.293,39.634,109.26,59.001
	c6.491,3.419,11.699,8.358,15.622,14.817C487.454,109.82,500.951,143.426,510.323,181.55z M490.078,259.677
	c-4.703,2.714-10.162,4.713-16.379,5.996c-0.41,0-0.785,0.084-1.121,0.252c-8.879,3.756-18.92,4.508-30.123,2.257
	c-0.422,0-0.838,0-1.248,0c0.41,2.914,2.494,4.182,6.249,3.803c0.411-0.042,0.826-0.063,1.247-0.063
	c9.048,0.295,16.984-0.473,23.812-2.303c0.38-0.126,0.774-0.19,1.185-0.19c0-0.421,0-0.836,0-1.246
	c6.585-1.336,12.46-3.335,17.625-5.997c0.338-0.168,0.716-0.252,1.137-0.252c0-0.42,0-0.836,0-1.246
	c3.166-0.168,5.729-0.9,7.686-2.193c0.293-0.21,0.646-0.316,1.057-0.316c0-0.421,0-0.836,0-1.247c1.788,0.537,2.83,0.163,3.125-1.12
	c0-0.084,0.21-0.126,0.631-0.126c4.828-1.841,9.078-4.24,12.75-7.196c0.252-0.21,0.584-0.315,0.994-0.315
	c4.166-2.041,5.665-4.455,4.497-7.243c-0.084-0.168-0.331-0.252-0.741-0.252c0,0.421-0.104,0.731-0.316,0.931
	c-4.586,4.177-9.898,7.617-15.938,10.32c0,0.421-0.083,0.674-0.252,0.758c-0.664,0.326-1.41,0.489-2.241,0.489
	c0,0.421,0,0.836,0,1.247c-0.421,0-0.82,0.063-1.199,0.189c-3.787,1.547-7.559,3.151-11.313,4.813
	C490.789,259.424,490.414,259.508,490.078,259.677z M493.708,263.18c-0.422,0-0.795,0.084-1.121,0.252
	c-5.459,2.788-11.335,5.202-17.626,7.243c-0.421,0-0.82,0.063-1.199,0.189c-3.576,0.916-7.348,1.689-11.314,2.32
	c-0.41,0-0.826,0-1.246,0c-4.166,0-8.332,0-12.498,0c-0.421,0-0.836,0-1.247,0c-1.673,0-3.34,0-5.001,0
	c0,0.831,0.168,1.578,0.505,2.241c0.083,0.168,0.331,0.252,0.741,0.252c2.125,8.711,10.083,11.855,23.874,9.437
	c26.627-4.576,46.336-15.159,59.129-31.75l0.757-2.682c-1.252-5.46-3.855-5.981-7.812-1.563c-0.21,0.21-0.525,0.315-0.946,0.315
	c0,0.411-0.105,0.679-0.315,0.805c-4.997,3.418-10.31,6.48-15.938,9.184c-0.41,0-0.783,0.084-1.12,0.252
	C498.91,260.887,496.368,262.055,493.708,263.18z M344.95,13.794c-10.668,2.251-24.002,4.544-40.003,6.879c-0.42,0-0.836,0-1.246,0
	c-9.584,0-19.167,0-28.751,0c-8.753-1.251-16.964-3.255-24.633-6.012c-8.752-3.167-15.543-4.498-20.372-3.992
	c-0.958,5.543-0.226,9.421,2.193,11.63c0.2,0.168,0.3,0.457,0.3,0.868c9.542,4.629,20.377,7.921,32.507,9.878
	c0.42,0.084,0.836,0.126,1.247,0.126c9.794,1.462,20.609,1.667,32.443,0.616c0.042,0,0.063-0.206,0.063-0.616
	c1.252,0,2.504,0,3.756,0c0.41,0,0.825,0,1.246,0c0-0.421,0-0.836,0-1.247c7.249,0.168,13.519-0.605,18.81-2.32
	c0.379-0.126,0.773-0.189,1.184-0.189c3.167-0.579,6.106-1.347,8.82-2.304c0.368-0.126,0.764-0.189,1.185-0.189
	c2.829-0.916,5.391-2.083,7.685-3.503c0.295-0.168,0.646-0.252,1.057-0.252c2.052-1.294,2.931-3.792,2.636-7.496L344.95,13.794z
	 M403.762,503.383c0.378-0.127,0.773-0.189,1.184-0.189c6.881-3.124,13.593-6.376,20.135-9.753c0.326-0.168,0.699-0.252,1.121-0.252
	c0-0.421,0-0.836,0-1.247c3.545-1.041,6.19-3.04,7.938-5.996c0.125-0.168,0.399-0.253,0.82-0.253h0.615
	c-0.41-4.208-2.283-4.208-5.617,0c0,0.411-0.084,0.68-0.253,0.805c-4.503,2.716-9.005,5.361-13.508,7.938
	c-0.41,0-0.783,0.084-1.12,0.253c-10.71,5.038-22.834,8.704-36.373,10.998c-0.42,0-0.836,0.042-1.246,0.126
	c-5.755,1.252-12.009,2.046-18.763,2.383c0,0.41-0.021,0.615-0.063,0.615c-15.116,1.915-30.513,3.378-46.188,4.388
	c0-0.422-0.083-0.674-0.251-0.758c-0.663-0.337-1.41-0.505-2.241-0.505c-0.421,0-0.836,0-1.246,0c-17.927,0-35.847,0-53.763,0
	c0,0.421,0,0.841,0,1.263c-0.41,0-0.825,0-1.247,0c-3.334,0-6.669,0-10.004,0c-0.411,0-0.826,0.015-1.247,0.047
	c-3.997,0.21-7.332-0.227-10.004-1.31c-0.411,0-0.826,0-1.247,0c-9.374-0.2-17.705-1.446-24.995-3.74
	c-0.421,0-0.836-0.021-1.247-0.063c-24.585-3.713-43.752-12.86-57.502-27.44c-0.421,0-0.842,0-1.262,0
	c-0.579,2.251-0.242,3.665,1.01,4.244c0.168,0.084,0.252,0.337,0.252,0.757c15.959,14.045,36.788,23.171,62.489,27.379
	c0.42,0.084,0.841,0.127,1.262,0.127c6.701,1.199,13.781,2.009,21.24,2.429c0.421,0.043,0.841,0.063,1.262,0.063
	c3.083-0.578,5.266-0.269,6.549,0.931c0.21,0.212,0.526,0.316,0.947,0.316c4.997,0,9.994,0,14.991,0c0.42,0,0.841,0,1.262,0
	c30.876,0.873,60.043,0.063,87.5-2.43c0.421-0.042,0.837-0.063,1.246-0.063c4.208,0.042,7.979-0.337,11.315-1.137
	c0.378-0.073,0.772-0.109,1.183-0.109c0-0.422,0-0.842,0-1.263c6.88-0.2,13.155-0.989,18.826-2.367
	c0.368-0.084,0.763-0.127,1.183-0.127c0-0.42,0-0.836,0-1.246C387.74,507.237,396.093,505.634,403.762,503.383z M404.945,504.44
	c-0.41,0-0.784,0.083-1.12,0.252c-6.249,2.83-13.376,4.829-21.382,5.997c-0.41,0-0.805,0.063-1.185,0.188
	c-6.08,1.746-12.765,2.935-20.056,3.566c-0.42,0-0.836,0.042-1.246,0.126c-4.219,0.705-8.806,1.078-13.761,1.12
	c0,0.421-0.021,0.632-0.063,0.632c-7.795,0.915-15.691,1.535-23.686,1.861c-0.422,0-0.837,0-1.247,0c-5.007,0-10.01,0-15.007,0
	c0,0.422,0,0.842,0,1.263c-0.41,0-0.825,0-1.247,0c-15.001,0-30.002,0-45.004,0c0-0.421-0.084-0.673-0.253-0.758
	c-0.662-0.336-1.409-0.505-2.24-0.505c-0.421,0-0.842,0-1.262,0c-4.997,0-9.994,0-14.991,0c-0.421,0-0.836,0-1.247,0
	c-0.421,0-0.842,0-1.262,0c-0.411,0-0.826,0.021-1.247,0.063c-4.786,0.59-8.537,0.153-11.25-1.31c-0.411,0-0.826,0-1.247,0
	c-6.249,0-11.667-0.831-16.253-2.493c-0.41,0-0.826-0.021-1.247-0.063c-25.669-3.882-46.088-13.029-61.257-27.44
	c-0.411,0-0.826,0-1.247,0c0,4.165,0.211,8.31,0.631,12.434c0,0.042,0.205,0.063,0.616,0.063
	c21.05,20.209,51.884,30.629,92.502,31.261c0.42,0,0.841,0,1.262,0c5.207,1.451,11.456,1.888,18.747,1.31
	c0.421-0.042,0.836-0.063,1.247-0.063c15.001,0,30.003,0,45.004,0c0.422,0,0.837,0,1.247,0c7.501,0,14.98-0.211,22.439-0.632
	c0.041,0,0.063-0.205,0.063-0.614c44.584-1.253,80.73-10.983,108.439-29.193c0.212-0.126,0.316-0.399,0.316-0.821
	c1.041-2.703,1.083-6.453,0.126-11.251c-0.084-0.41-0.126-0.825-0.126-1.246c-0.421,0-0.772,0.085-1.058,0.253
	c-2.882,1.661-5.864,3.245-8.947,4.749c0,0.421-0.1,0.695-0.3,0.82C420.805,498.585,413.403,502.062,404.945,504.44z
	 M142.446,278.187c0.41-0.42,0.741-0.884,0.994-1.388c0.168-0.327,0.252-0.7,0.252-1.121c-0.421,0-0.836,0-1.246,0
	c-33.843-0.337-58.844-9.505-75.002-27.504c-0.421,0-0.8-0.079-1.136-0.237c-1.789-1.052-3.913-1.804-6.375-2.257
	c0,0.832,0,1.663,0,2.494c0,0.421,0,0.841,0,1.262c2.504,0.831,4.924,1.831,7.259,2.999c0.168,0.084,0.252,0.332,0.252,0.741
	c-0.421,0-0.841,0-1.263,0c0,0.421,0,0.836,0,1.247c-0.41,0-0.678-0.1-0.805-0.3c-1.336-2.083-3.566-3.23-6.69-3.44
	c0,0.41,0,0.825,0,1.246c-0.084,2.419-0.916,4.087-2.494,5.002c8.743,13.75,21.345,24.064,37.809,30.944
	c7.627,3.209,17.458,5.334,29.493,6.376c12.466,1.115,18.362-3.409,17.689-13.571c-0.41,0-0.826,0-1.247,0
	c-24.08,0.337-43.248-4.244-57.502-13.744c-0.411,0-0.763-0.084-1.058-0.252c-2.335-1.378-4.481-2.961-6.438-4.75
	c0.41,0,0.72-0.105,0.931-0.315c0.21-0.211,0.315-0.521,0.315-0.931c2.546,1.199,4.734,2.761,6.564,4.686
	c0.21,0.2,0.521,0.3,0.931,0.3c11.961,6.007,25.716,10.157,41.265,12.45c0.41,0.043,0.826,0.063,1.247,0.063
	c3.535,1.452,8.117,1.889,13.745,1.311c0.421-0.043,0.836-0.063,1.247-0.063c0.42,0,0.736-0.105,0.947-0.316
	C142.34,278.907,142.446,278.598,142.446,278.187z M340.326,25.976c-1.336,1.631-3.545,2.362-6.627,2.193
	c0,0.421-0.085,0.695-0.253,0.821c-1.914,1.115-4.328,1.673-7.242,1.673c0,0.421-0.043,0.652-0.127,0.694
	c-4.924,1.21-9.883,2.23-14.881,3.061c-0.42,0-0.814,0.042-1.183,0.126c-4.588,1.21-10.025,1.583-16.317,1.12
	c-0.421,0-0.836,0-1.247,0c-7.091,0-14.176,0-21.256,0c-0.421,0-0.836-0.021-1.246-0.063c-14.581-0.789-26.663-4.098-36.247-9.926
	c0,0.411,0,0.826,0,1.247c16.243,18.746,41.969,25.206,77.181,19.377c14.128-2.335,24.231-9.21,30.313-20.625
	C340.784,25.676,340.494,25.776,340.326,25.976z"/>
</svg>
