<?xml version="1.0" encoding="utf-8"?>
<!-- Generator: Adobe Illustrator 21.0.0, SVG Export Plug-In . SVG Version: 6.00 Build 0)  -->
<svg version="1.1" id="Шар_1" xmlns="http://www.w3.org/2000/svg" xmlns:xlink="http://www.w3.org/1999/xlink" x="0px" y="0px"
	 width="590px" height="530px" viewBox="0 0 590 530" enable-background="new 0 0 590 530" xml:space="preserve">
<path id="la_x7C_Product_Color_x7C_bg" fill="#FFFFFF" d="M516.4,235.2c0.5,0.4,0.9,0.8,1.3,1.2c0.2-0.2,0.4-0.3,0.5-0.5
	c0.2-0.2,0.3-0.5,0.3-0.9c0.4,0,0.7,0.1,0.7,0.2c0.4,1.1,0.5,2.1,0.1,3.1c0.6,0.8,1,1.5,1.2,2.1c1.3,0.3,2.2,1.7,2.8,4.4l-0.7,2.6
	c-12.5,16.2-31.7,26.5-57.7,31c-13.5,2.4-21.2-0.7-23.3-9.2c-0.4,0-0.7-0.1-0.7-0.2c-0.3-0.5-0.4-1.1-0.5-1.6
	c-2.6-1.6-4-3.9-4.2-6.8c-0.2-1.7,0.1-3.8,0.7-6.4c-2.6-8.9-4.4-18.6-5.4-29.1c-1.3-0.8-2.8-1.4-4.5-1.8c0,3.7-0.1,7.6-0.1,11.8
	c0,0.4,0,0.8,0,1.2c1.4,6.7,1.6,14.4,0.6,23.1c0,0-0.2,0.1-0.6,0.1c0,4.1,0,8.1,0,12.2c0,0.4,0,0.8,0,1.2c0,0.4,0,0.8,0.1,1.2
	c0.6,8.7,0.1,16.5-1.3,23.2c0,10.6,0,21.2,0,31.7c0,0.4,0,0.8,0,1.2c1.4,7.1,1.9,15.3,1.3,24.4c0,0.4-0.1,0.8-0.1,1.2
	c0,7.7,0,15.5,0,23.2c0,0.4,0,0.8,0,1.2c0,11,0,22,0,32.9c0,0.4,0,0.8,0,1.2c0.9,20.7,1.9,38.6,3,53.8c0,0.2,0,0.4,0,0.5
	c0.7,0.8,1.3,1.6,1.9,2.3c0.9-0.1,1.5,0.7,1.8,2.5c0.8,1.2,1.3,2.3,1.6,3.1c0.1,0,0.2,0,0.3,0c0,0.4,0,0.8,0.1,1.2
	c0.9,4.7,0.9,8.3-0.1,11c0,0.4-0.1,0.7-0.3,0.8c-27.1,17.8-62.3,27.3-105.9,28.5c0,0.4,0,0.6-0.1,0.6c-7.3,0.4-14.6,0.6-21.9,0.6
	c-0.4,0-0.8,0-1.2,0c-14.6,0-29.3,0-43.9,0c-0.4,0-0.8,0-1.2,0.1c-7.1,0.6-13.2,0.1-18.3-1.3c-0.4,0-0.8,0-1.2,0
	c-39.7-0.6-69.8-10.8-90.3-30.5c-0.4,0-0.6,0-0.6-0.1c-0.3-3.2-0.5-6.4-0.6-9.6c-0.8-1.3-1.3-2.7-1.3-4c0-2.4,0.5-4.5,1.5-6.4
	c0.6-1.1,1.3-2,2.2-2.7c-0.5-2.5-0.5-5.5-0.1-9c2-7.4,2.8-15.9,2.4-25.6c0-0.4,0-0.8,0-1.2s0-0.8,0-1.2c0-13,0-26,0-39.1
	c0.4,0,0.8,0,1.2,0c0-0.4,0-0.8,0-1.2c0-5.7,0-11.4,0-17.1c0-0.4,0-0.8,0-1.2c0-4.5,0-8.9,0-13.4c0-0.4,0-0.8,0-1.2
	c0-5.3,0-10.6,0-15.9c0-0.4,0-0.8,0-1.2c0-9,0-17.9,0-26.8c0.4,0,0.8,0,1.2,0c0-0.4,0-0.8,0-1.2c0-9.4,0-18.7,0-28.1
	c0-0.4,0-0.8,0-1.2c0-4.9,0-9.8,0-14.6c0-0.4,0-0.8,0-1.2c0-4.9,0-9.9,0-14.9c-0.4,0.1-0.8,0.2-1.2,0.2s-0.8,0-1.2-0.1
	c0,0.9,0,1.7,0,2.6c-1.8,3.3-3.5,6.8-5.1,10.5c0.9,2,1.4,3.6,1.4,4.8c0,2.8-0.7,5-2.1,6.4c-0.7,0.7-1.6,1.3-2.7,1.8
	c0,6.6-3.2,10.4-9.5,11.5c-0.2,0-0.4,0-0.5,0.1c0,0-0.1,0-0.1,0.1c-2.1,0.3-4.5,0.3-7.3,0.1c-11.8-1-21.4-3.1-28.8-6.2
	c-16.1-6.7-28.4-16.8-36.9-30.2c1.5-0.9,2.4-2.5,2.4-4.9c0-0.4,0-0.7,0-1.1l0,0v-0.1c0-1.7,0.4-3.3,1.2-4.7c0-0.1,0-0.1,0-0.2h0.1
	c0.4-0.7,0.9-1.3,1.5-1.9c0.2-0.2,0.4-0.4,0.6-0.5c-0.3,0-0.6-0.1-0.9-0.1c0-0.4,0-0.8,0-1.2s0-0.8,0-1.2
	c5.3-17.5,10.5-35,15.7-52.5c0.1-0.4,0.2-0.8,0.2-1.2s0-0.8,0-1.2c0-3.7,0-7.3,0-11c0.4,0,0.8,0,1.2,0c0-0.4,0-0.8,0-1.2
	c0-3.7,0-7.3,0-11c0.4,0,0.8,0,1.2,0c0-0.4,0-0.8,0-1.2c0-3.7,0-7.3,0-11c5.2-32.7,17.5-58.2,36.9-76.6c0.2-0.2,0.5-0.3,0.9-0.3
	c0,0.1,0.1,0.2,0.1,0.2c0.2-0.2,0.4-0.5,0.6-0.7c1.8-2,3.9-3.1,6.4-3.3c0.3,0,0.5,0,0.8,0c29.2-13.2,57.1-27.7,83.7-43.5
	c0.6-1.2,1.3-2.1,2.3-2.9c1.8-1.5,4.8-2.8,9-4c1.4-1.2,2.6-2.6,3.7-4.1c0.1-0.2,0.4-0.3,0.8-0.3c0,1.1,0,2.2,0.1,3.3
	c0.3,0,0.6-0.1,0.9-0.2c0.1-0.6,0.2-1.3,0.3-2c4.7-0.5,11.3,0.8,19.9,3.9c7.5,2.7,15.5,4.6,24,5.9c9.4,0,18.7,0,28.1,0
	c0.4,0,0.8,0,1.2,0c15.6-2.3,28.6-4.5,39.1-6.7l0.1,1.8c0,0.1,0,0.3,0,0.4c0.5-0.1,1.1-0.2,1.7-0.3c0-0.1,0-0.2,0.1-0.2
	c0.6-2.7,2-3.1,4.2-1.1c0.7,0.5,1.3,1,1.9,1.5c4.1,0.7,7.2,2.7,9.2,5.9l0,0l0.8,0.4c27.1,13.7,54.8,26.9,83,39.6
	c2.5-0.1,5.3,2.8,8.4,8.8c17,16.1,29,37.5,36.1,64.2c9.2,34.9,18.4,67.9,27.8,99.2c-0.4,0-0.7,0.1-0.9,0.3
	C517.2,234.4,516.8,234.8,516.4,235.2z"/>
<g>
	<path fill="#514B4E" d="M342.8,22.6L342.8,22.6c-0.4,0-0.8,0.1-1.1,0.3c-2.2,1.4-4.7,2.5-7.5,3.4c-0.4,0-0.8,0.1-1.2,0.2
		c-2.6,0.9-5.5,1.7-8.6,2.2c-0.4,0-0.8,0.1-1.2,0.2c-5.2,1.7-11.3,2.4-18.4,2.3v1.2H300c0,0.4,0,0.6-0.1,0.6
		c-11.6,1-22.1,0.8-31.7-0.6c-0.4,0-0.8,0-1.2-0.1c-11.8-1.9-22.4-5.1-31.7-9.6c0-0.4-0.1-0.7-0.3-0.8c-0.2-0.2-0.4-0.4-0.6-0.7
		c-0.6-0.1-1.1-0.3-1.6-0.5c0.4,1.7,0.8,3.3,1.3,4.8c0.9,0.3,1.8,0.7,2.6,1.2c-0.1-0.1-0.1-0.1-0.2-0.2V25
		c9.4,5.7,21.2,8.9,35.4,9.7c0.4,0,0.8,0.1,1.2,0.1h22c6.1,0.5,11.5,0.1,15.9-1.1c0.4-0.1,0.7-0.1,1.2-0.1c4.9-0.8,9.7-1.8,14.5-3
		c0.1,0,0.1-0.3,0.1-0.7c2.8,0,5.2-0.5,7.1-1.6c0.2-0.1,0.2-0.4,0.2-0.8c3,0.2,5.2-0.5,6.5-2.1c0.2-0.2,0.4-0.3,0.8-0.3
		c-0.3,0.5-0.6,1.1-0.9,1.6c0.9-0.4,1.9-0.6,2.9-0.7c0.4-0.8,0.7-1.7,1.1-2.6C343.9,23.2,343.3,22.9,342.8,22.6z"/>
	<path fill="#514B4E" d="M518.1,213.8c-4.6-12-8.4-24.2-11.5-36.6c-9.1-37.2-22.3-70-39.5-98.4c-3.8-6.3-8.9-11.1-15.3-14.5
		c-36.1-18.9-71.6-38.1-106.7-57.6c-0.4,0-0.8,0.1-1.2,0.2c-14.4,5.9-31.5,9.1-51.3,9.6c0,0.4,0,0.6-0.1,0.6c-6.7,1-12.3,0.8-17-0.6
		c-0.4,0-0.8,0-1.2-0.1c-15.5-2-29.3-5.6-41.5-10.9c-30.2,20.2-62.8,38-97.7,53.4c-8.3,3.6-15.1,8.6-20.4,14.9
		C95.8,96.2,84.3,126.2,80.3,164c-3.5,32.3-10.8,61.2-21.8,86.8c1.7,7.2,5.4,12.7,10.9,16.6c7.4,5.2,15.7,9.7,24.8,13.4
		c9.4,3.9,19.9,6.5,31.5,7.9H139c10.8-3,15.9-12,15.3-26.8h0.6c0.2,8.3-0.5,15.7-2.3,22c-0.1,0.4-0.2,0.7-0.2,1.2
		c1.4,17.3,1.8,35.6,1.2,54.9v31.7c0,0.4,0,0.8,0.1,1.2c0.6,7.1,0.1,13.2-1.3,18.3v1.2c0.6,28.7-1.4,54.8-6.1,78.1v15.9
		c26.4,28.1,68.3,41.5,125.7,40.1c35.2-0.9,67.8-3.4,97.7-7.7c30.2-4.3,54.2-14.7,71.9-31.2c-4.6-21.4-8.2-43.8-10.9-67.1
		c0-0.4-0.1-0.8-0.1-1.2H430c-0.4-27.3-0.6-54.5-0.6-81.8v-14.6c-0.4,0-0.6,0-0.6-0.1c-0.4-4-0.6-8.1-0.6-12.1v-26.9h1.2v-12.2h1.2
		v-20.7c2.3,13.2,7.7,23.2,16.1,30.2c0.2,0.2,0.6,0.3,1,0.3v-1.2c4.1,0,8.1,0.2,12.1,0.6c0,0,0.1,0.2,0.1,0.6c0.4,0,0.8,0,1.2-0.1
		c28.8-4.1,51.6-14.2,68.3-30.4C526.3,237.7,522.6,225.3,518.1,213.8z M148.5,270.2c-0.2,0.5-0.6,0.9-1,1.4c0,0.4-0.1,0.7-0.3,0.9
		c-0.2,0.2-0.5,0.3-0.9,0.3s-0.8,0-1.2,0.1c-5.5,0.6-10,0.1-13.4-1.3c-0.4,0-0.8,0-1.2-0.1c-15.2-2.2-28.6-6.3-40.3-12.2
		c-0.4,0-0.7-0.1-0.9-0.3c-1.8-1.9-3.9-3.4-6.4-4.6c0,0.4-0.1,0.7-0.3,0.9c-0.2,0.2-0.5,0.3-0.9,0.3c1.9,1.7,4,3.3,6.3,4.6
		c0.3,0.2,0.6,0.2,1,0.2c13.9,9.3,32.6,13.7,56.1,13.4h1.2c0.7,9.9-5.1,14.3-17.3,13.2c-11.7-1-21.3-3.1-28.8-6.2
		c-16.1-6.7-28.4-16.8-36.9-30.2c1.5-0.9,2.4-2.5,2.4-4.9v-1.2c3.1,0.2,5.2,1.3,6.5,3.4c0.1,0.2,0.4,0.3,0.8,0.3V247h1.2
		c0-0.4-0.1-0.6-0.2-0.7c-2.3-1.1-4.6-2.1-7.1-2.9v-3.7c2.4,0.4,4.5,1.2,6.2,2.2c0.3,0.2,0.7,0.2,1.1,0.2
		c15.8,17.6,40.2,26.5,73.2,26.9h1.2C148.7,269.5,148.6,269.9,148.5,270.2z M435.5,476.6c0,0.4,0,0.8,0.1,1.2
		c0.9,4.7,0.9,8.3-0.1,11c0,0.4-0.1,0.7-0.3,0.8c-27.1,17.8-62.3,27.3-105.9,28.5c0,0.4,0,0.6-0.1,0.6c-7.3,0.4-14.6,0.6-21.9,0.6
		h-45.2c-0.4,0-0.8,0-1.2,0.1c-7.1,0.6-13.2,0.1-18.3-1.3h-1.2c-39.7-0.6-69.8-10.8-90.3-30.5c-0.4,0-0.6,0-0.6-0.1
		c-0.4-4-0.6-8.1-0.6-12.1h1.2c14.8,14.1,34.7,23,59.8,26.8c0.4,0,0.8,0.1,1.2,0.1c4.5,1.6,9.8,2.4,15.9,2.4h1.2
		c2.6,1.4,6.3,1.9,11,1.3c0.4,0,0.8-0.1,1.2-0.1h18.3c0.8,0,1.5,0.2,2.2,0.5c0.2,0.1,0.2,0.3,0.2,0.7h45.2v-1.2h15.9
		c7.8-0.3,15.5-0.9,23.1-1.8c0,0,0.1-0.2,0.1-0.6c4.8,0,9.3-0.4,13.4-1.1c0.4-0.1,0.8-0.1,1.2-0.1c7.1-0.6,13.6-1.8,19.6-3.5
		c0.4-0.1,0.8-0.2,1.2-0.2c7.8-1.1,14.8-3.1,20.9-5.9c0.3-0.2,0.7-0.2,1.1-0.2c8.3-2.3,15.5-5.7,21.7-10.2c0.2-0.1,0.3-0.4,0.3-0.8
		c3-1.5,5.9-3,8.7-4.6C434.8,476.6,435.1,476.6,435.5,476.6z M433.7,474.1h-0.6c-0.4,0-0.7,0.1-0.8,0.2c-1.7,2.9-4.3,4.8-7.7,5.9
		v1.2c-0.4,0-0.8,0.1-1.1,0.2c-6.4,3.3-12.9,6.5-19.7,9.5c-0.4,0-0.8,0.1-1.2,0.2c-7.5,2.2-15.6,3.8-24.5,4.7v1.2
		c-0.4,0-0.8,0-1.2,0.1c-5.5,1.3-11.7,2.1-18.4,2.3v1.2c-0.4,0-0.8,0-1.2,0.1c-3.3,0.8-6.9,1.2-11,1.1c-0.4,0-0.8,0-1.2,0.1
		c-26.8,2.4-55.3,3.2-85.4,2.4h-15.9c-0.4,0-0.7-0.1-0.9-0.3c-1.3-1.2-3.4-1.5-6.4-0.9c-0.4,0-0.8,0-1.2-0.1
		c-7.3-0.4-14.2-1.2-20.7-2.4c-0.4,0-0.8,0-1.2-0.1c-25.1-4.1-45.4-13-61-26.7c0-0.4-0.1-0.7-0.2-0.7c-1.2-0.6-1.6-1.9-1-4.1h1.2
		c13.4,14.2,32.1,23.2,56.1,26.8c0.4,0,0.8,0.1,1.2,0.1c7.1,2.2,15.3,3.5,24.4,3.7h1.2c2.6,1.1,5.9,1.5,9.8,1.3c0.4,0,0.8,0,1.2,0
		h11v-1.2H311c0.8,0,1.5,0.2,2.2,0.5c0.2,0.1,0.2,0.3,0.2,0.7c15.3-1,30.3-2.4,45.1-4.3c0,0,0.1-0.2,0.1-0.6
		c6.6-0.3,12.7-1.1,18.3-2.3c0.4-0.1,0.8-0.1,1.2-0.1c13.2-2.2,25.1-5.8,35.5-10.7c0.3-0.2,0.7-0.2,1.1-0.2
		c4.4-2.5,8.8-5.1,13.2-7.7c0.2-0.1,0.2-0.4,0.2-0.8C431.4,470,433.3,470,433.7,474.1z M405,224c8.5-2.1,15.7-7.4,21.7-16.1
		c0.2-0.3,0.3-0.6,0.3-1c0.2,7.5,0.2,16.8,0,28.1v1.2c1.4,6.7,1.6,14.4,0.6,23.1c0,0-0.2,0.1-0.6,0.1v13.4c0,0.4,0,0.8,0,1.2
		c0.6,8.7,0.1,16.5-1.3,23.2v33c1.4,7.1,1.9,15.3,1.3,24.4c0,0.4,0,0.8,0,1.2v58.6c0.9,20.7,1.9,38.6,3,53.8c0.2,2.1-0.8,3.7-3,4.8
		c-0.4,0-0.7,0.1-0.9,0.3c-3.3,3.2-7.5,5.5-12.5,7v1.2c-0.4,0-0.8,0.1-1.2,0.2c-11.3,4.5-23.9,7.7-37.9,9.6v1.2
		c-0.4,0-0.8,0-1.2,0.1c-5.6,0.5-10.9,1.3-15.9,2.4c-0.4,0-0.8,0-1.2,0.1c-14.5,1.8-29.5,3-45.2,3.6h-64.7c-0.4,0-0.8,0-1.2-0.1
		c-2.6-0.5-5.5-0.9-8.5-1.1c-0.4,0-0.8,0-1.2-0.1c-7.6-0.5-15-1.2-22-2.4c-0.4,0-0.8,0-1.2-0.1c-24-4-43.5-12.5-58.6-25.5
		c0-0.4-0.1-0.8-0.2-1.2c-1.3-3.1-1.6-7.2-1-12.3c2-7.4,2.8-15.9,2.4-25.6v-41.5h1.2v-78.1h1.2v-76.9c0-0.4,0-0.8-0.1-1.2
		c-0.5-3.1-1.3-5.9-2.3-8.5c0.4-7.5,2.3-9,5.6-4.5c2.6,3.5,6.1,6.3,10.3,8.2c0.4,0,0.7-0.1,0.9-0.3s0.3-0.5,0.3-0.9
		c-6.9-7-12.5-14.9-17-23.9c-13.3-26.6-20.6-58.9-22-97h-1.2v9.8c0.2,26.2,4.3,48.8,12.1,67.8c7.7,18.7,11.4,41.7,11,68.8
		c-2.4,4.5-4.7,9.3-6.7,14.5c0,0.1-0.3,0.2-0.7,0.2h-1.2c-31.5-0.6-55.1-9.2-70.8-25.6c-0.4,0-0.7-0.1-0.8-0.3
		c-1.3-2-3.5-3.2-6.5-3.4v-2.4c5.3-17.5,10.5-35,15.7-52.5c0.1-0.4,0.2-0.8,0.2-1.2V169h1.2v-12.2h1.2v-12.2
		c5.2-32.7,17.5-58.2,36.9-76.6c0.2-0.2,0.5-0.3,0.9-0.3c3.7,9.4,5.5,20.7,5.5,34.2h0.6v-8.5h1.2c0-0.4,0-0.8-0.1-1.2
		c-1.2-8.5-2-17.5-2.4-26.9c30.3-13.6,59.3-28.6,86.8-44.9c0.3-0.2,0.6-0.2,1-0.2c0.1,0.3,0.2,0.6,0.3,0.9c1.1-1,2.1-1.9,3.4-2.5
		c0-0.3,0-0.6,0-0.8c4.2-1.9,7.6-4.7,10.2-8.2c0.1-0.2,0.4-0.3,0.8-0.3c0,1,0,2,0.1,3c0.3-0.3,0.6-0.6,1-0.8c0-0.3,0.1-0.6,0.1-0.9
		c4.7-0.5,11.3,0.8,19.9,3.9c7.5,2.7,15.5,4.6,24,5.9h29.3c15.6-2.3,28.6-4.5,39.1-6.7v0.2c0.1,0,0.2,0,0.4,0c0.7,0,1.4,0.1,1.9,0.4
		c0.7-1.6,2-1.6,3.8,0.1c2.2,1.5,3.8,3.5,4.7,6.2c0.1,0.4,0.2,0.7,0.2,1.2l0,0c1.6-0.1,3.2,0.2,4.6,0.8c0.2-0.4,0.5-0.8,0.7-1.2
		l1.8,0.9c27.2,13.7,55,26.9,83.3,39.7c2.6,23.8,1.9,47.8-2.3,72c-0.1,0.4-0.1,0.8-0.1,1.2s0,0.8,0.1,1.2c0.6,5.9,0.1,10.8-1.3,14.7
		c0,0.4,0,0.8-0.1,1.2C439.3,185,426.7,209,405,224z M438.5,259.2c-5.6-16.6-8.2-36.1-7.9-58.4c9.8-15.8,15.1-36.2,15.9-61v-15.9
		h1.2v-9.8c4.9-15.3,5.3-31.2,1.3-47.6c-0.1-0.4-0.1-0.8-0.1-1.2c20.1,16.6,34,39.6,41.7,69.2c9.1,34.9,18.4,67.9,27.8,99.2
		c-0.4,0-0.7,0.1-0.9,0.3c-4.5,4.4-9.9,8-16.2,10.7c-0.4,0-0.8,0.1-1,0.2c-4.1,2.4-8.6,4.3-13.6,5.9v1.2c-0.4,0-0.8,0.1-1.1,0.2
		c-4.7,2.2-10,3.7-16,4.6v1.2c-0.4,0-0.8,0-1.2,0.1c-9.6,2-19.3,2.4-29.3,1.1C438.8,259.3,438.5,259.3,438.5,259.2z M439.2,261.8
		h1.2c10.9,2.2,20.7,1.5,29.4-2.2c0.3-0.2,0.7-0.2,1.1-0.2c6.1-1.3,11.4-3.2,16-5.9c0.3-0.2,0.7-0.2,1.1-0.2c3.7-1.6,7.3-3.2,11-4.7
		c0.4-0.1,0.8-0.2,1.2-0.2v-1.2c0.8,0,1.5-0.2,2.2-0.5c0.2-0.1,0.2-0.3,0.2-0.7c5.9-2.6,11.1-6,15.6-10.1c0.2-0.2,0.3-0.5,0.3-0.9
		c0.4,0,0.6,0.1,0.7,0.2c1.1,2.7-0.3,5.1-4.4,7.1c-0.4,0-0.7,0.1-1,0.3c-3.6,2.9-7.7,5.2-12.4,7c-0.4,0-0.6,0-0.6,0.1
		c-0.3,1.3-1.3,1.6-3.1,1.1v1.2c-0.4,0-0.7,0.1-1,0.3c-1.9,1.3-4.4,2-7.5,2.1v1.2c-0.4,0-0.8,0.1-1.1,0.2c-5,2.6-10.8,4.6-17.2,5.9
		v1.2c-0.4,0-0.8,0.1-1.2,0.2c-6.7,1.8-14.4,2.5-23.2,2.2c-0.4,0-0.8,0-1.2,0.1C441.6,265.9,439.6,264.6,439.2,261.8z M464.9,278.3
		c-13.5,2.4-21.2-0.7-23.3-9.2c-0.4,0-0.6-0.1-0.7-0.2c-0.3-0.6-0.5-1.4-0.5-2.2h19.5c3.9-0.6,7.6-1.4,11-2.3
		c0.4-0.1,0.8-0.2,1.2-0.2c6.1-2,11.9-4.4,17.2-7.1c0.3-0.2,0.7-0.2,1.1-0.2c2.6-1.1,5.1-2.2,7.4-3.4c0.3-0.2,0.7-0.2,1.1-0.2
		c5.5-2.6,10.7-5.6,15.6-9c0.2-0.1,0.3-0.4,0.3-0.8c0.4,0,0.7-0.1,0.9-0.3c3.9-4.3,6.4-3.8,7.6,1.5l-0.7,2.6
		C510.1,263.5,490.9,273.8,464.9,278.3z"/>
	<g>
		<g>
			<path fill="#514B4E" d="M342.6,25.1c4.7-0.1,9.6-2,13.4-4.8c0.8-0.6-0.1-1.4-0.8-1.1c-4.2,1.5-8.5,3-12.7,4.6
				c-1.1,0.4-0.8,1.7,0.4,1.3c4.2-1.5,8.5-3,12.7-4.6c-0.3-0.4-0.5-0.7-0.8-1.1c-3.4,2.5-7.8,4.2-12,4.3
				C341.6,23.7,341.3,25.1,342.6,25.1z"/>
		</g>
	</g>
	<g>
		<g>
			<path fill="#514B4E" d="M342.5,25.7c4.9-0.9,9.3-3.2,13.7-5.4c1.1-0.5-0.4-0.6-0.9-0.4c-2.5,0.9-4.9,2.2-7.4,2.9
				c-2.1,0.6-3.8,1.4-5.8,2.4c-1.1,0.5,0.6,0.5,1.1,0.3c2-0.9,3.9-1.6,6-2.4c2.3-0.8,4.5-2,6.8-2.8c-0.3-0.1-0.6-0.3-0.9-0.4
				c-3.9,2-7.9,4.2-12.3,5C342,25.1,341.2,26,342.5,25.7z"/>
			<path fill="#514B4E" d="M354.8,19c-3,1.4-5.9,2.9-8.8,4.3c-1.1,0.5,0.4,0.6,0.9,0.4c3.3-1.2,6.9-2,9.3-4.6
				c0.4-0.5-1.4-0.2-1.7,0.1c-2.1,2.2-5.4,3-8.3,4c0.3,0.1,0.6,0.3,0.9,0.4c2.9-1.5,5.8-2.9,8.8-4.3C357,18.8,355.3,18.8,354.8,19z"
				/>
			<path fill="#514B4E" d="M338.2,26.3c2.8-0.6,5.4-1.4,8.1-2.4c1.1-0.4,0.3-0.8-0.4-0.6c-1.7,0.4-3.3,0.5-4.9,1.1
				c-1.1,0.4-2.1,0.8-3.2,1.2c-1.2,0.5-0.1,0.8,0.7,0.5c1-0.4,2-0.8,3-1.1c1.5-0.6,3-0.7,4.6-1.1c-0.1-0.2-0.3-0.4-0.4-0.6
				c-2.5,0.9-5,1.7-7.6,2.2C336.9,25.9,337.1,26.6,338.2,26.3z"/>
			<path fill="#514B4E" d="M346.2,23.2c-0.2,0.1-0.4,0.1-0.6,0.2s-0.7,0.3-0.6,0.5c0.1,0.3,0.8,0.1,1,0.1c0.4-0.1,0.7-0.2,1.1-0.4
				c0.2-0.1,0.6-0.4,0.2-0.5s-1,0-1.3,0.2c-0.4,0.2,0.4-0.1-0.1,0c0.1,0.2,0.3,0.4,0.4,0.6c0.2-0.1,0.4-0.1,0.6-0.2
				c0.1,0,0.8-0.4,0.5-0.6C347.1,22.9,346.5,23.1,346.2,23.2z"/>
		</g>
	</g>
	<g>
		<g>
			<path fill="#514B4E" d="M223.9,18.7c1.9,1.8,4.4,2.9,6.7,4.2c0.5,0.3,2.3-0.4,1.5-0.9c-2.2-1.4-4.3-3-6.6-4.1
				c-0.5-0.3-2.3,0.5-1.5,0.9c2.3,1.2,4.4,2.7,6.6,4.1c0.5-0.3,1-0.6,1.5-0.9c-2.2-1.2-4.7-2.3-6.5-4
				C225.2,17.5,223.4,18.2,223.9,18.7z"/>
			<path fill="#514B4E" d="M236.5,24c-1.3-1-2.6-2.1-4-3c-0.4-0.3-2.1,0.3-1.6,0.8c0.1,0.1,0.2,0.2,0.3,0.3c0.5-0.3,1.1-0.5,1.6-0.8
				c-2.5-1.3-4.7-3.2-7.4-4.4c-0.4-0.2-2.2,0.3-1.6,0.8c3.3,2.8,7,5.5,11.1,7.1c0.6,0.2,2.3-0.6,1.5-0.9c-3.9-1.5-7.6-4.2-10.8-6.9
				c-0.5,0.3-1.1,0.5-1.6,0.8c2.6,1.1,4.8,3,7.4,4.4c0.4,0.2,2.2-0.3,1.6-0.8c-0.1-0.1-0.2-0.2-0.3-0.3c-0.5,0.3-1.1,0.5-1.6,0.8
				c1.3,0.9,2.5,1.9,3.8,2.8C235.2,25.1,237,24.4,236.5,24z"/>
			<path fill="#514B4E" d="M221.6,15.5c0.2,0.5,0.5,1,0.8,1.5c0.2,0.3,0.3,0.5,0.6,0.6s0.5,0.2,0.8,0.3c0.4,0.1,0.8,0.1,1.1-0.1
				c0.2-0.1,0.8-0.5,0.5-0.7c-0.7-0.7-1.4-1.4-2.1-2.1c-0.4-0.5-2.2,0.2-1.8,0.7c0.6,0.8,1.3,1.5,2.1,2.1c0.5-0.3,1.1-0.5,1.6-0.8
				c-0.4-0.1-0.8-0.3-1.2-0.4c0.1,0,0.2,0.1,0.3,0.1c-0.4-0.5-0.8-1.1-1-1.7C223.3,14.4,221.4,14.9,221.6,15.5z"/>
			<path fill="#514B4E" d="M230.6,22.9c0.4,0.2,0.7,0.4,1.1,0.6c0.4,0.2,1,0,1.3-0.2s0.6-0.5,0.2-0.7c-0.4-0.2-0.7-0.4-1.1-0.6
				c-0.4-0.2-1,0-1.3,0.2C230.5,22.3,230.2,22.7,230.6,22.9c0.4,0.2,0.7,0.4,1.1,0.6c0.5-0.3,1-0.6,1.5-0.9
				c-0.4-0.2-0.8-0.4-1.1-0.6C231.6,21.7,229.9,22.4,230.6,22.9z"/>
			<path fill="#514B4E" d="M222.1,18c0.6,0.2,1.2,0.5,1.9,0.8c0.4,0.2,2.2-0.3,1.6-0.8c-0.5-0.5-0.9-1.3-1.7-1.4
				c-0.8-0.2-1.7,0-2.4,0.3c-0.3,0.1-0.9,0.5-0.4,0.8c1.4,0.8,2.8,1.6,4.2,2.3c0.4,0.2,2.2-0.4,1.6-0.8c-1-0.8-2.3-1.4-3.4-2.1
				C223.1,16.8,221.4,17.5,222.1,18c1,0.6,2.2,1.2,3.1,1.9c0.5-0.3,1.1-0.5,1.6-0.8c-1.4-0.8-2.8-1.6-4.2-2.3
				c-0.1,0.3-0.3,0.5-0.4,0.8c0.6-0.3,1.2,0.7,1.6,1.1c0.5-0.3,1.1-0.5,1.6-0.8c-0.6-0.3-1.2-0.5-1.9-0.8c-0.4-0.2-0.9-0.1-1.3,0.2
				C222.1,17.4,221.7,17.8,222.1,18z"/>
			<path fill="#514B4E" d="M231.7,23.5c0.2,0.1,0.3,0.2,0.5,0.3c0.5-0.3,1.1-0.5,1.6-0.8c-2.3-1.3-4.6-2.6-6.8-3.8
				c-0.4-0.2-2.2,0.4-1.6,0.8c2.5,2,5.3,3.7,8.4,4.6c0.4,0.1,2.1-0.5,1.3-1c-0.6-0.3-1.2-0.6-1.8-1C232.8,22.3,231,23.1,231.7,23.5
				c0.7,0.3,1.3,0.6,1.9,1c0.4-0.3,0.9-0.6,1.3-1c-2.9-0.8-5.5-2.5-7.8-4.4c-0.5,0.3-1.1,0.5-1.6,0.8c2.3,1.3,4.6,2.6,6.8,3.8
				c0.5,0.3,2.2-0.4,1.6-0.8c-0.2-0.1-0.3-0.2-0.5-0.3C232.9,22.3,231.2,23.1,231.7,23.5z"/>
			<path fill="#514B4E" d="M233.4,22.7c-0.1,0-0.1-0.1-0.2-0.1c-0.4-0.2-1,0-1.3,0.2s-0.6,0.5-0.2,0.7l0,0c0.5,0.3,2.3-0.5,1.5-0.9
				l0,0c-0.5,0.3-1,0.6-1.5,0.9c0,0-0.1,0-0.1-0.1c0.4,0.3,0.9,0.2,1.2,0C233.1,23.4,233.8,23,233.4,22.7z"/>
		</g>
	</g>
	<g>
		<g>
			<path fill="#514B4E" d="M343.9,24.4c4.9-0.4,10.1-1,14.4-3.5c0.9-0.5-0.1-1.2-0.8-1c-4.6,1.1-9.1,2.2-13.7,3.3
				c-1.2,0.3-0.8,1.5,0.3,1.2c4.6-1.1,9.1-2.2,13.7-3.3c-0.3-0.3-0.5-0.7-0.8-1c-3.8,2.3-8.6,2.6-13,3
				C343,23.2,342.6,24.5,343.9,24.4z"/>
		</g>
	</g>
	<g>
		<g>
			<path fill="#514B4E" d="M327.3,30.2c4.6-1.2,9.2-2.4,13.8-3.5c0.6-0.1,1.3-0.8,0.3-0.8c-5-0.1-9.6,2.1-14.3,3.6
				C326,29.8,326.2,30.6,327.3,30.2c4.4-1.4,8.7-3.6,13.3-3.5c0.1-0.3,0.2-0.6,0.3-0.8c-4.6,1.2-9.2,2.4-13.8,3.5
				C326,29.8,326.2,30.5,327.3,30.2z"/>
			<path fill="#514B4E" d="M327.1,29.5c-0.9,0.2-1.8,0.5-2.8,0.7c-0.3,0.1-0.7,0.2-0.8,0.5c-0.1,0.4,0.6,0.3,0.8,0.3
				c1-0.2,2-0.5,3-0.8c0.2-0.1,0.9-0.3,0.8-0.6S327.3,29.4,327.1,29.5c-0.8,0.2-1.7,0.5-2.5,0.6c0,0.3,0,0.5-0.1,0.8
				c0.9-0.2,1.8-0.5,2.8-0.7c0.2-0.1,0.9-0.3,0.8-0.6C328,29.3,327.3,29.4,327.1,29.5z"/>
		</g>
	</g>
	<g>
		<g>
			<path fill="#514B4E" d="M355.3,22.5c-0.2,0.1-0.8,0.4-0.9,0.4c-0.4,0.1-0.7,0.2-0.9,0.5c-0.2,0.3,0.9,0.2,1,0.1
				c0.9-0.3,1.8-0.6,2.7-1c0.1,0,0.6-0.3,0.3-0.5c-0.2-0.2-0.7-0.1-1,0s-0.5,0.2-0.8,0.2c-0.2,0-0.9,0.3-0.9,0.6
				c0.1,0.3,0.9,0.1,1,0c0.3-0.1,0.5-0.2,0.8-0.2c-0.2-0.1-0.4-0.3-0.6-0.4c-0.6,0.3-1.1,0.5-1.7,0.7c0.3,0,0.7,0.1,1,0.1
				c0,0,0,0,0.1-0.1c-0.3,0.2-0.6,0.3-0.8,0.5c0.6-0.2,1.2-0.5,1.8-0.7c0.2-0.1,0.6-0.4,0.2-0.5S355.7,22.3,355.3,22.5z"/>
			<path fill="#514B4E" d="M340.5,27.2c-1.2,0-2.6-0.1-3.9,0.2c-0.5,0.1-1,0.2-1.5,0.4c-0.2,0.1-1.4,0.7-0.5,0.7
				c1.7,0,3.4-0.2,5.1-0.5c0.3-0.1,0.9-0.2,1.1-0.5s-0.7-0.2-0.8-0.2c-1.4,0.2-2.8,0.4-4.2,0.5c-0.2,0.2-0.4,0.5-0.5,0.7
				c1.5-0.4,2.3-0.4,3.9-0.4c0.5,0,0.9-0.1,1.3-0.4C340.9,27.4,340.9,27.2,340.5,27.2z"/>
			<path fill="#514B4E" d="M358.1,21.3c-0.5,0.1-1.1,0.2-1.4,0.6c-0.1,0.2,0.3,0.2,0.3,0.2c0.4,0,0.8-0.1,1.2-0.3l0,0
				c0.1,0,0.9-0.3,0.6-0.5s-0.9,0-1.2,0.1c-0.2,0.1-0.3,0.1-0.5,0.2c0.5,0,1,0,1.5,0c0,0,0,0,0-0.1c-0.3,0.2-0.6,0.3-0.9,0.5l0,0
				c0.3,0,0.9-0.2,1.1-0.5C359,21.2,358.2,21.3,358.1,21.3z"/>
			<path fill="#514B4E" d="M335,27.5c-1.2,0.2-2.4,0.4-3.5,0.7c-0.3,0.1-0.7,0.2-0.9,0.5c-0.1,0.3,0.4,0.2,0.5,0.2
				c1.3-0.1,2.5-0.4,3.7-0.8c0.2,0,0.9-0.3,0.9-0.6c-0.1-0.3-0.9-0.1-1,0c-0.9,0.3-1.8,0.5-2.8,0.6c-0.1,0.2-0.2,0.5-0.3,0.7
				c1-0.3,2-0.5,3-0.6c0.3,0,0.9-0.2,1.1-0.5C335.9,27.4,335.1,27.5,335,27.5z"/>
			<path fill="#514B4E" d="M347,25.7c-2.1,0.3-4.1,0.6-6.2,1c-0.2,0-1.7,0.8-0.8,0.7c2.3,0,4.7-0.4,6.9-1.1c0.2,0,0.9-0.3,0.9-0.6
				c-0.1-0.3-0.9-0.1-1,0c-1.8,0.5-3.7,0.9-5.5,0.9c-0.3,0.2-0.5,0.5-0.8,0.7c2.1-0.4,4.1-0.7,6.2-1C347.4,26.3,348.3,25.5,347,25.7
				z"/>
			<path fill="#514B4E" d="M336.9,27.9c1.7,0.1,3.3-0.4,4.8-1.2c-0.5,0-0.9,0-1.4-0.1c-0.2,0.2-0.5,0.3-0.6,0.6
				c-0.1,0.5,1.5,0,1.7-0.1c0.3-0.2,0.6-0.4,0.9-0.6c0.7-0.4-0.6-0.4-0.8-0.3c-1.3,0.3-2.7,0.7-4,1c-0.2,0-0.9,0.3-0.9,0.6
				c0.1,0.3,0.9,0.1,1,0c1.3-0.3,2.7-0.7,4-1c-0.3-0.1-0.5-0.2-0.8-0.3c-0.3,0.2-0.6,0.4-0.9,0.6c0.6,0,1.1-0.1,1.7-0.1
				c0-0.2,0.3-0.3,0.4-0.4c0.3-0.2-0.1-0.3-0.2-0.3c-0.4,0-0.8,0.1-1.2,0.3c-0.8,0.4-1.5,0.7-2.5,0.6c-0.4,0-1,0.1-1.3,0.4
				C336.5,27.6,336.5,27.8,336.9,27.9z"/>
			<path fill="#514B4E" d="M341.3,25.7c-2.2,0.4-4.3,1.2-6.5,1.8c-0.4,0.1-1.4,0.8-0.3,0.7c1.1-0.1,2.1-0.2,3.1-0.5
				c0.1,0,1.3-0.6,0.7-0.7c-0.3,0-0.5-0.1-0.8-0.2c-0.1,0.2-0.3,0.4-0.4,0.6c1.4-0.5,2.9-0.8,4.4-1.2c0.1,0,0.8-0.4,0.6-0.5
				c-0.3-0.2-0.9,0-1.2,0.1c-1.4,0.5-2.9,0.8-4.4,1.2c-0.1,0-1,0.5-0.4,0.6c0.3,0.1,0.5,0.1,0.8,0.2c0.2-0.2,0.5-0.4,0.7-0.7
				c-0.7,0.2-1.4,0.2-2.2,0.3c-0.1,0.2-0.2,0.5-0.3,0.7c2-0.6,3.9-1.4,6-1.7C341.7,26.3,342.6,25.5,341.3,25.7z"/>
			<path fill="#514B4E" d="M355.6,22.6C355.7,22.6,355.7,22.6,355.6,22.6c0.1-0.3-0.2-0.3-0.3-0.3c-0.4,0-0.8,0.1-1.2,0.3
				c-0.1,0-0.2,0.1-0.2,0.1c-0.1,0-0.6,0.3-0.3,0.5c0.2,0.2,0.7,0,1,0c0.1,0,0.1,0,0.2-0.1C355,23,355.7,22.8,355.6,22.6
				c-0.1-0.4-0.9-0.2-1-0.1c-0.1,0-0.1,0-0.2,0.1c0.2,0.1,0.4,0.3,0.6,0.4c0.1,0,0.2-0.1,0.2-0.1c-0.5,0-1,0-1.5,0c0,0,0,0,0,0.1
				c-0.2,0.3,0.7,0.2,0.8,0.2C354.9,23.1,355.5,22.9,355.6,22.6z"/>
			<path fill="#514B4E" d="M347.1,24.5c-1,0.2-2.2,0.6-3.2,0.7c-0.1,0.2-0.2,0.5-0.3,0.7c0.8-0.2,1.6-0.3,2.4-0.7
				c0.3-0.1,0.6-0.5,0.1-0.5c-0.2,0-0.3,0-0.5,0c-0.3,0.3-0.7,0.5-1,0.8c1.4-0.2,2.7-0.5,4-0.8c0.8-0.2,1.2-0.8,0.1-0.7
				c-2.7,0.4-5.4,1-7.9,2.4c-0.8,0.4,0.6,0.4,0.8,0.3c1.8-0.5,3.6-0.9,5.4-1.4c0.3-0.1,0.8-0.2,0.9-0.6c0-0.1,0-0.1,0-0.2
				c0-0.3-1.8-0.1-1.9,0.5c0,0.1,0,0.1,0,0.2c0.3-0.2,0.6-0.4,0.9-0.6c-1.8,0.5-3.6,0.9-5.4,1.4c0.3,0.1,0.5,0.2,0.8,0.3
				c1.9-1.1,4-1.4,6.1-1.7c0-0.2,0.1-0.4,0.1-0.7c-1,0.3-2,0.5-3,0.6c-0.3,0-2,0.8-1,0.8c0.2,0,0.3,0,0.5,0c0-0.2,0-0.3,0.1-0.5
				c-0.3,0.1-1.1,0.2-1.5,0.3c-0.5,0.1-1.4,0.8-0.3,0.7c1.2-0.1,2.4-0.5,3.6-0.8C347.5,25.1,348.5,24.3,347.1,24.5z"/>
			<path fill="#514B4E" d="M359.3,20.8c-1,0.6-4.1,2.2-5.1,2.5c0.2,0.1,0.5,0.2,0.7,0.3c0.1-0.1,0.2-0.3,0.4-0.4
				c0.4-0.5-0.8-0.3-0.9-0.2c-1.8,0.5-3.7,0.9-5.6,1.4c-0.9,0.2-2.2,0.3-2.9,1.1c-0.3,0.3,0.2,0.3,0.4,0.3c0.8-0.1,0.9-0.1,0.2,0.1
				c-0.8,0.3-0.7,0.7,0.2,0.6c4.8-0.8,10.7-1.8,14.1-5.5c0.4-0.4-1.4-0.2-1.7,0.1c-3,3.3-7.9,4-12,4.7c0.1,0.2,0.1,0.4,0.2,0.6
				c0.7-0.2,1.4-0.5,2-0.9c0.2-0.1,0.4-0.3,0.1-0.4c-0.7-0.2-1.3-0.1-2.1,0c0.1,0.1,0.3,0.2,0.4,0.3c-0.3,0.3-0.5,0.1,0.4-0.1
				c0.6-0.2,1.3-0.3,1.9-0.5c1.5-0.4,3.1-0.7,4.6-1.1c-0.3-0.1-0.6-0.2-0.9-0.2c-0.1,0.1-0.2,0.3-0.4,0.4c-0.4,0.4,0.5,0.3,0.7,0.3
				c2.4-0.5,4.5-1.8,6.6-2.9C361.5,20.5,359.8,20.6,359.3,20.8z"/>
			<path fill="#514B4E" d="M355.4,23c0.1-0.1,0.1-0.2,0.2-0.3c0.2-0.3-1-0.2-1-0.1c-1,0.3-2,0.7-3,0.9c0.3,0,0.5,0.1,0.8,0.1
				c0.1-0.1,0.1-0.2,0.2-0.3c0.5-0.5-1-0.2-1.2-0.2c-0.9,0.3-1.9,0.6-2.9,0.9c-0.8,0.2-1.2,0.8-0.1,0.7c2.1-0.3,4.1-0.7,6.2-1.3
				C354.7,23.4,355.5,23.2,355.4,23c-0.1-0.4-0.8-0.2-1-0.1c-1.9,0.5-3.8,0.9-5.7,1.1c0,0.2-0.1,0.4-0.1,0.7
				c1.1-0.3,2.2-0.7,3.4-1.1c-0.4-0.1-0.8-0.1-1.2-0.2c-0.2,0.2-0.3,0.4-0.3,0.7c0,0.2,0.7,0.1,0.8,0.1c1.2-0.3,2.3-0.7,3.5-1
				c-0.3,0-0.7-0.1-1-0.1c-0.1,0.1-0.1,0.2-0.2,0.3c-0.2,0.3,0.7,0.2,0.8,0.2C354.6,23.5,355.2,23.3,355.4,23z"/>
			<path fill="#514B4E" d="M353.6,23.4c0.4-0.1,0.7-0.3,1.1-0.4c0.1-0.1,0.7-0.2,0.6-0.5c-0.1-0.2-0.6-0.1-0.8-0.1
				c-1.3,0.3-2.5,0.5-3.7,1.2c-0.1,0.1-0.3,0.2-0.2,0.4c0.3,0.2,0.7,0,1,0c1.2-0.3,2.3-0.5,3.4-1c0.1,0,0.6-0.3,0.3-0.5
				c-0.2-0.2-0.7-0.1-1,0c-0.4,0.1-0.8,0.2-1.2,0.3c-0.2,0-0.9,0.3-0.9,0.6c0.1,0.3,0.9,0.1,1,0c0.4-0.1,0.8-0.2,1.2-0.3
				c-0.2-0.1-0.4-0.3-0.6-0.4c-0.7,0.3-1.6,0.5-2.5,0.7c0.3,0.1,0.5,0.2,0.8,0.3c0.6-0.3,1.2-0.4,1.9-0.6c-0.1-0.2-0.1-0.4-0.2-0.6
				c-0.4,0.1-0.7,0.3-1.1,0.4c-0.1,0-0.8,0.3-0.6,0.5C352.7,23.7,353.3,23.5,353.6,23.4z"/>
			<path fill="#514B4E" d="M358.7,21.6C358.7,21.6,358.7,21.5,358.7,21.6c0.2-0.3-0.4-0.3-0.5-0.3c-0.4,0-0.8,0.1-1.1,0.4
				c-0.1,0-0.1,0.1-0.2,0.1c-0.2,0.1-0.4,0.3,0,0.4s0.8,0,1.1-0.1h0.1C358.2,22.1,358.9,21.8,358.7,21.6c-0.3-0.2-0.9,0-1.2,0.1
				h-0.1c0.3,0.1,0.7,0.2,1.1,0.3c0.1,0,0.1-0.1,0.2-0.1c-0.5,0-1.1,0.1-1.7,0.1c0,0,0,0.1-0.1,0.1c-0.2,0.3,0.7,0.2,0.8,0.2
				C357.9,22,358.4,21.9,358.7,21.6z"/>
			<path fill="#514B4E" d="M356.4,22.7c0.7-0.3,1.3-0.5,1.9-0.9c0.2-0.1,0.3-0.3,0-0.4s-0.8,0-1.1,0.1c-0.2,0.1-0.5,0.2-0.6,0.3
				c-0.1,0.2-0.2,0.5-0.3,0.7c0.4-0.1,0.7-0.2,1-0.3c0.2-0.1,0.3-0.2,0.5-0.3c0.3-0.2,0.8-0.3,0-0.1c-0.3-0.1-0.5-0.1-0.8-0.2
				c-0.1,0.1-0.1,0.1-0.2,0.2c-0.2,0.2,0.5,0.2,0.5,0.2c0.4,0,0.8-0.1,1.1-0.4c0.3-0.3,0.7-0.5,1-0.8c0.2-0.2-0.1-0.3-0.2-0.3
				c-0.4,0-1,0.1-1.3,0.4c-0.7,0.5-1.4,0.8-2.2,1.1c-0.7,0.3-1.7,0.4-2,1c-0.2,0.4,0.9,0.2,1,0.1c0.4-0.1,0.8-0.2,1.2-0.3
				c0.2,0,0.9-0.3,0.9-0.6c-0.1-0.3-0.9-0.1-1,0c-0.4,0.1-0.8,0.2-1.2,0.3c0.3,0,0.7,0.1,1,0.1c0-0.1,0.1-0.1,0.1-0.2
				c-0.2,0.1-0.4,0.3-0.6,0.4c1.5-0.5,3-1.1,4.4-2c-0.5,0-1.1,0-1.6,0c-0.2,0.2-0.5,0.4-0.8,0.6c0.6,0,1.1-0.1,1.7-0.1
				c0.1-0.1,0.1-0.1,0.2-0.2c0.2-0.3-0.7-0.2-0.8-0.2c-0.4,0.1-0.7,0.2-1,0.3c-0.2,0.1-0.3,0.2-0.5,0.3c-0.3,0.2-0.8,0.3,0,0.1
				c-0.3,0.1-0.9,0.2-1.1,0.5s0.7,0.2,0.8,0.2c0.6-0.1,1.1-0.3,1.6-0.5c-0.4-0.1-0.7-0.2-1.1-0.3c-0.5,0.3-1.1,0.5-1.6,0.7
				c-0.2,0.1-0.6,0.4-0.2,0.5C355.5,23.1,356,22.9,356.4,22.7z"/>
			<path fill="#514B4E" d="M355.3,22.8c0.2-0.1,0.5-0.2,0.7-0.4c0.2-0.1,0.3-0.3,0.1-0.4c-0.4-0.1-0.8,0-1.1,0.1
				c-0.3,0.1-0.6,0.2-0.9,0.3c-0.1,0.1-0.7,0.2-0.6,0.5c0.1,0.2,0.6,0.1,0.8,0.1c0.2,0,0.4-0.1,0.7-0.1c-0.3,0-0.7-0.1-1-0.1l0,0
				c-0.2,0.3,0.7,0.2,0.8,0.2c0.3-0.1,0.9-0.2,1.1-0.5l0,0c0.2-0.4-0.9-0.2-1-0.1c0,0-0.1,0-0.2,0c0.1,0.2,0.1,0.4,0.2,0.6
				c0.3-0.1,0.6-0.2,0.9-0.3c-0.4-0.1-0.7-0.2-1.1-0.3c-0.1,0.1-0.2,0.1-0.3,0.2c-0.2,0.1-0.7,0.4-0.2,0.5
				C354.4,23.2,354.9,23,355.3,22.8z"/>
			<path fill="#514B4E" d="M356.9,22.6c0.6-0.2,1.2-0.4,1.6-0.9s-1-0.2-1.2-0.2c-0.5,0.2-0.9,0.4-1.3,0.7c-0.1,0.1-0.7,0.4-0.2,0.5
				c0.4,0.1,1,0,1.3-0.2s0.6-0.4,0.9-0.5c-0.4-0.1-0.8-0.1-1.2-0.2c-0.1,0.1-0.2,0.2-0.3,0.3c0.2-0.1,0.4-0.2,0.5-0.3
				c-0.3,0.1-0.5,0.2-0.8,0.3c-0.1,0-0.8,0.4-0.6,0.5C356,22.9,356.6,22.7,356.9,22.6z"/>
		</g>
	</g>
	<g>
		<g>
			<path fill="#514B4E" d="M350.1,24.2c-0.4,0.1-0.7,0.2-1.1,0.3c-0.3,0.1-0.7,0.2-0.9,0.4c-0.2,0.3,0.7,0.2,0.7,0.2
				c0.8-0.2,1.7-0.2,2.4-0.8c0.3-0.3-0.3-0.3-0.4-0.3c-0.4,0-1,0.1-1.3,0.4c-0.1,0.1-0.1,0.1-0.2,0.2c0.3-0.1,0.7-0.3,1-0.4
				c-0.4,0.1-0.8,0.1-1.1,0.2c0,0.2-0.1,0.4-0.1,0.6c0.5-0.2,1.1-0.3,1.6-0.5c0.1,0,0.8-0.3,0.6-0.5
				C350.9,23.9,350.4,24.1,350.1,24.2z"/>
			<path fill="#514B4E" d="M353,23.6c-1.1,0.3-2.2,0.4-3.3,0.9c-0.1,0-0.4,0.2-0.4,0.4c0,0.2,0.4,0.1,0.5,0.1c1.4-0.2,3-0.2,4.1-1.1
				c0.3-0.3-0.3-0.3-0.4-0.3c-0.4,0-0.9,0.2-1.3,0.4c-0.2,0.2,0.2-0.1-0.1,0.1c-0.2,0.1-0.4,0.1-0.5,0.2c0.3-0.1,0.6-0.2,1-0.3
				c-0.6,0-1.2,0.1-1.9,0.2c0,0.2,0.1,0.3,0.1,0.5c0.7-0.3,1.6-0.4,2.4-0.5c0.1,0,0.9-0.3,0.9-0.5C353.9,23.4,353.1,23.6,353,23.6z"
				/>
			<path fill="#514B4E" d="M354.7,24.3c-0.9-0.3-1.8-0.4-2.7-0.2c-1.2,0.3-2.2,0.9-3.3,0.6c-0.2,0.2-0.3,0.4-0.5,0.5
				c0.3-0.1,0.6-0.2,0.8-0.3c0.7-0.2,1.2-0.8,0.1-0.6c-2.3,0.5-4.6,1.1-7,1.6c-0.8,0.2-1.2,0.8-0.1,0.6c3.9-0.7,7.9-0.8,11.7-1.8
				c1.1-0.3,1-0.8-0.1-0.5c-3.7,0.9-7.5,1-11.2,1.7c0,0.2-0.1,0.4-0.1,0.6c2.1-0.5,4.3-1.1,6.4-1.5c0-0.2,0.1-0.4,0.1-0.6
				c-0.4,0.1-0.9,0.3-1.3,0.4c-0.1,0-1,0.4-0.5,0.5c2,0.5,3.9-1.2,5.7-0.5C353.4,25.1,354.8,24.4,354.7,24.3z"/>
			<path fill="#514B4E" d="M350.4,24.3c-0.4,0.1-0.9,0.2-1.1,0.4c-0.4,0.4,1,0.2,1.2,0.1h0.1c0.1,0,0.9-0.3,0.6-0.5s-0.9,0-1.2,0.1
				h-0.1c0.4,0,0.8,0.1,1.2,0.1l0,0c-0.3,0.1-0.7,0.3-1,0.4c0,0,0,0,0.1,0c0.3,0,0.9-0.2,1.1-0.5C351.3,24.1,350.5,24.3,350.4,24.3z
				"/>
		</g>
	</g>
</g>
</svg>
