<?xml version="1.0" encoding="utf-8"?>
<!-- Generator: Adobe Illustrator 21.0.0, SVG Export Plug-In . SVG Version: 6.00 Build 0)  -->
<svg version="1.1" id="Шар_1" xmlns="http://www.w3.org/2000/svg" xmlns:xlink="http://www.w3.org/1999/xlink" x="0px" y="0px"
	 width="590px" height="530px" viewBox="0 0 590 530" enable-background="new 0 0 590 530" xml:space="preserve">
<path id="la_x7C_Product_Color_x7C_bg" fill="#FFFFFF" d="M516.4,235.2c0.5,0.4,0.9,0.8,1.3,1.2c0.2-0.2,0.4-0.3,0.5-0.5
	c0.2-0.2,0.3-0.5,0.3-0.9c0.4,0,0.7,0.1,0.7,0.2c0.4,1.1,0.5,2.1,0.1,3.1c0.6,0.8,1,1.5,1.2,2.1c1.3,0.3,2.2,1.7,2.8,4.4l-0.7,2.6
	c-12.5,16.2-31.7,26.5-57.7,31c-13.5,2.4-21.2-0.7-23.3-9.2c-0.4,0-0.7-0.1-0.7-0.2c-0.3-0.5-0.4-1.1-0.5-1.6
	c-2.6-1.6-4-3.9-4.2-6.8c-0.2-1.7,0.1-3.8,0.7-6.4c-2.6-8.9-4.4-18.6-5.4-29.1c-1.3-0.8-2.8-1.4-4.5-1.8c0,3.7-0.1,7.6-0.1,11.8
	c0,0.4,0,0.8,0,1.2c1.4,6.7,1.6,14.4,0.6,23.1c0,0-0.2,0.1-0.6,0.1c0,4.1,0,8.1,0,12.2c0,0.4,0,0.8,0,1.2c0,0.4,0,0.8,0.1,1.2
	c0.6,8.7,0.1,16.5-1.3,23.2c0,10.6,0,21.2,0,31.7c0,0.4,0,0.8,0,1.2c1.4,7.1,1.9,15.3,1.3,24.4c0,0.4-0.1,0.8-0.1,1.2
	c0,7.7,0,15.5,0,23.2c0,0.4,0,0.8,0,1.2c0,11,0,22,0,32.9c0,0.4,0,0.8,0,1.2c0.9,20.7,1.9,38.6,3,53.8c0,0.2,0,0.4,0,0.5
	c0.7,0.8,1.3,1.6,1.9,2.3c0.9-0.1,1.5,0.7,1.8,2.5c0.8,1.2,1.3,2.3,1.6,3.1c0.1,0,0.2,0,0.3,0c0,0.4,0,0.8,0.1,1.2
	c0.9,4.7,0.9,8.3-0.1,11c0,0.4-0.1,0.7-0.3,0.8c-27.1,17.8-62.3,27.3-105.9,28.5c0,0.4,0,0.6-0.1,0.6c-7.3,0.4-14.6,0.6-21.9,0.6
	c-0.4,0-0.8,0-1.2,0c-14.6,0-29.3,0-43.9,0c-0.4,0-0.8,0-1.2,0.1c-7.1,0.6-13.2,0.1-18.3-1.3c-0.4,0-0.8,0-1.2,0
	c-39.7-0.6-69.8-10.8-90.3-30.5c-0.4,0-0.6,0-0.6-0.1c-0.3-3.2-0.5-6.4-0.6-9.6c-0.8-1.3-1.3-2.7-1.3-4c0-2.4,0.5-4.5,1.5-6.4
	c0.6-1.1,1.3-2,2.2-2.7c-0.5-2.5-0.5-5.5-0.1-9c2-7.4,2.8-15.9,2.4-25.6c0-0.4,0-0.8,0-1.2c0-0.4,0-0.8,0-1.2c0-13,0-26,0-39.1
	c0.4,0,0.8,0,1.2,0c0-0.4,0-0.8,0-1.2c0-5.7,0-11.4,0-17.1c0-0.4,0-0.8,0-1.2c0-4.5,0-8.9,0-13.4c0-0.4,0-0.8,0-1.2
	c0-5.3,0-10.6,0-15.9c0-0.4,0-0.8,0-1.2c0-9,0-17.9,0-26.8c0.4,0,0.8,0,1.2,0c0-0.4,0-0.8,0-1.2c0-9.4,0-18.7,0-28.1
	c0-0.4,0-0.8,0-1.2c0-4.9,0-9.8,0-14.6c0-0.4,0-0.8,0-1.2c0-4.9,0-9.9,0-14.9c-0.4,0.1-0.8,0.2-1.2,0.2s-0.8,0-1.2-0.1
	c0,0.9,0,1.7,0,2.6c-1.8,3.3-3.5,6.8-5.1,10.5c0.9,2,1.4,3.6,1.4,4.8c0,2.8-0.7,5-2.1,6.4c-0.7,0.7-1.6,1.3-2.7,1.8
	c0,6.6-3.2,10.4-9.5,11.5c-0.2,0-0.4,0-0.5,0.1c0,0-0.1,0-0.1,0.1c-2.1,0.3-4.5,0.3-7.3,0.1c-11.8-1-21.4-3.1-28.8-6.2
	c-16.1-6.7-28.4-16.8-36.9-30.2c1.5-0.9,2.4-2.5,2.4-4.9c0-0.4,0-0.7,0-1.1l0,0v-0.1c0-1.7,0.4-3.3,1.2-4.7c0-0.1,0-0.1,0-0.2h0.1
	c0.4-0.7,0.9-1.3,1.5-1.9c0.2-0.2,0.4-0.4,0.6-0.5c-0.3,0-0.6-0.1-0.9-0.1c0-0.4,0-0.8,0-1.2s0-0.8,0-1.2
	c5.3-17.5,10.5-35,15.7-52.5c0.1-0.4,0.2-0.8,0.2-1.2s0-0.8,0-1.2c0-3.7,0-7.3,0-11c0.4,0,0.8,0,1.2,0c0-0.4,0-0.8,0-1.2
	c0-3.7,0-7.3,0-11c0.4,0,0.8,0,1.2,0c0-0.4,0-0.8,0-1.2c0-3.7,0-7.3,0-11c5.2-32.7,17.5-58.2,36.9-76.6c0.2-0.2,0.5-0.3,0.9-0.3
	c0,0.1,0.1,0.2,0.1,0.2c0.2-0.2,0.4-0.5,0.6-0.7c1.8-2,3.9-3.1,6.4-3.3c0.3,0,0.5,0,0.8,0c29.2-13.2,57.1-27.7,83.7-43.5
	c0.6-1.2,1.3-2.1,2.3-2.9c1.8-1.5,4.8-2.8,9-4c1.4-1.2,2.6-2.6,3.7-4.1c0.1-0.2,0.4-0.3,0.8-0.3c0,1.1,0,2.2,0.1,3.3
	c0.3,0,0.6-0.1,0.9-0.2c0.1-0.6,0.2-1.3,0.3-2c4.7-0.5,11.3,0.8,19.9,3.9c7.5,2.7,15.5,4.6,24,5.9c9.4,0,18.7,0,28.1,0
	c0.4,0,0.8,0,1.2,0c15.6-2.3,28.6-4.5,39.1-6.7l0.1,1.8c0,0.1,0,0.3,0,0.4c0.5-0.1,1.1-0.2,1.7-0.3c0-0.1,0-0.2,0.1-0.2
	c0.6-2.7,2-3.1,4.2-1.1c0.7,0.5,1.3,1,1.9,1.5c4.1,0.7,7.2,2.7,9.2,5.9l0,0l0.8,0.4c27.1,13.7,54.8,26.9,83,39.6
	c2.5-0.1,5.3,2.8,8.4,8.8c17,16.1,29,37.5,36.1,64.2c9.2,34.9,18.4,67.9,27.8,99.2c-0.4,0-0.7,0.1-0.9,0.3
	C517.2,234.4,516.8,234.8,516.4,235.2z"/>
<path fill="#514B4E" d="M449,66.5c4,16.4,3.5,32.3-1.3,47.6c0,2.9,0,5.7,0,8.5c0,0.4,0,0.8,0,1.2c-0.4,0-0.8,0-1.2,0
	c0,4.5,0,9,0,13.4c0,0.4,0,0.8,0,1.2s0,0.8,0,1.2c-0.8,24.9-6.1,45.2-15.9,61c-0.3,22.3,2.3,41.8,7.9,58.4c0,0.1,0.3,0.2,0.7,0.2
	c10,1.3,19.7,0.9,29.3-1.1c0.4-0.1,0.8-0.1,1.2-0.1c0-0.4,0-0.8,0-1.2c6-0.9,11.3-2.5,16-4.6c0.3-0.2,0.7-0.2,1.1-0.2
	c0-0.4,0-0.8,0-1.2c5-1.5,9.5-3.5,13.6-5.9c0.3-0.2,0.6-0.2,1-0.2c6.3-2.7,11.7-6.2,16.2-10.7c0.2-0.2,0.5-0.3,0.9-0.3
	c-9.4-31.3-18.7-64.4-27.8-99.2c-7.8-29.6-21.7-52.6-41.7-69.2C448.9,65.7,449,66.1,449,66.5z M444.1,136.1c0-0.4-0.1-0.8-0.1-1.2
	s0-0.8,0.1-1.2c4.2-24.2,5-48.2,2.3-72c-28.3-12.8-56.1-26-83.3-39.7l-1.8-0.9c-2.2,3.6-3.9,8.2-5.3,13.8c0,0.4-0.1,0.8-0.2,1.1
	c-1.7,3.5-4,6.4-7.1,8.7c0,0.4,0,0.8,0,1.2s-0.1,0.7-0.3,0.9c-6.8,6.6-15.3,11.6-25.3,14.9c0,0.4,0,0.6-0.1,0.7
	c-6.7,1.7-13.6,3.1-20.6,4.2c-0.4,0-0.8,0-1.2,0.1c-10,2.3-19,1.8-26.8-1.3c6.1,0,12.2,0,18.3,0c0.4,0,0.8,0,1.2,0
	c0-0.4,0-0.8,0-1.2c9.8,0.1,18.4-1.1,25.7-3.5c0.4-0.1,0.8-0.2,1.2-0.2c10.6-3.2,19.3-8.4,25.9-15.6c0.2-0.2,0.5-0.3,0.9-0.3
	c0-0.4,0-0.8,0-1.2c3-2.7,5.4-6,7.1-9.9c0.2-0.3,0.2-0.7,0.2-1.1c0-0.4,0.1-0.8,0.2-1.1c1.1-2.5,1.5-5.8,1-9.9
	c0-0.4-0.1-0.8-0.2-1.2c-0.9-2.6-2.5-4.7-4.7-6.2c-2.2-2-3.6-1.6-4.2,1.1c-6.2,28.1-28.4,40.3-66.6,36.8c-5.2-0.5-9.8-1.1-13.8-1.9
	c-23.3-4.5-35-18.1-35-40.9c-0.4,0-0.7,0.1-0.8,0.3c-2.6,3.6-6,6.3-10.2,8.2c0,7.4,1.5,13.1,4.6,17.3c0.2,0.2,0.3,0.6,0.3,1
	c3.2,3.3,6.1,6.9,8.9,10.7c0.2,0.2,0.4,0.3,0.8,0.3c0.4,0,0.7,0.1,1,0.3c4.4,3.7,9,7.2,13.7,10.7c-0.4,0-0.8-0.1-1.2-0.2
	c-5.9-2.2-10.8-5.4-14.7-9.6c-0.4,0-0.7-0.1-0.9-0.3c-3.3-3.2-6.3-6.7-8.9-10.7c-0.8-1.6-1.6-3.3-2.3-4.9c-2.4-5.3-4.1-9.4-5-12.1
	c-0.4,0-0.8,0.1-1,0.2c-27.5,16.3-56.5,31.3-86.8,44.9c0.4,9.4,1.2,18.3,2.4,26.9c0,0.4,0.1,0.8,0.1,1.2c-0.4,0-0.8,0-1.2,0
	c0,2.4,0,4.9,0,7.3c0,0.4,0,0.8,0,1.2h-0.6c0-13.4-1.8-24.8-5.5-34.2c-0.4,0-0.7,0.1-0.9,0.3C104,86.4,91.7,112,86.5,144.6
	c0,3.7,0,7.3,0,11c0,0.4,0,0.8,0,1.2c-0.4,0-0.8,0-1.2,0c0,3.7,0,7.3,0,11c0,0.4,0,0.8,0,1.2c-0.4,0-0.8,0-1.2,0c0,3.7,0,7.3,0,11
	c0,0.4,0,0.8,0,1.2s-0.1,0.8-0.2,1.2c-5.2,17.5-10.4,35-15.7,52.5c0,0.4,0,0.8,0,1.2s0,0.8,0,1.2c3.1,0.2,5.2,1.3,6.5,3.4
	c0.1,0.2,0.4,0.3,0.8,0.3c15.7,16.5,39.3,25,70.8,25.6c0.4,0,0.8,0,1.2,0s0.6-0.1,0.7-0.2c2-5.2,4.2-10,6.7-14.5
	c0.3-27.2-3.4-50.1-11-68.8c-7.8-19-11.9-41.6-12.1-67.8c0-0.4,0-0.8,0-1.2c0-2.8,0-5.7,0-8.5c0.4,0,0.8,0,1.2,0
	c1.4,38,8.8,70.3,22,97c4.5,8.9,10.2,16.9,17,23.9c0,0.4-0.1,0.7-0.3,0.9s-0.5,0.3-0.9,0.3c-4.2-1.9-7.6-4.6-10.3-8.2
	c-3.3-4.5-5.2-3-5.6,4.5c1.1,2.6,1.8,5.5,2.3,8.5c0.1,0.4,0.1,0.8,0.1,1.2c0,10.2,0,20.3,0,30.5c0,0.4,0,0.8,0,1.2
	c0,4.9,0,9.8,0,14.7c0,0.4,0,0.8,0,1.2c0,9.4,0,18.7,0,28.1c0,0.4,0,0.8,0,1.2c-0.4,0-0.8,0-1.2,0c0,8.9,0,17.9,0,26.8
	c0,0.4,0,0.8,0,1.2c0,5.3,0,10.6,0,15.9c0,0.4,0,0.8,0,1.2c0,4.5,0,8.9,0,13.4c0,0.4,0,0.8,0,1.2c0,5.7,0,11.4,0,17.1
	c0,0.4,0,0.8,0,1.2c-0.4,0-0.8,0-1.2,0c0,13,0,26,0,39.1c0,0.4,0,0.8,0,1.2c0,0.4,0,0.8,0,1.2c0.3,9.7-0.5,18.2-2.4,25.6
	c-0.6,5.1-0.3,9.2,1,12.3c0.1,0.4,0.2,0.7,0.2,1.2c15,13,34.6,21.5,58.6,25.5c0.4,0.1,0.8,0.1,1.2,0.1c7,1.1,14.3,1.9,22,2.4
	c0.4,0,0.8,0.1,1.2,0.1c3.1,0.2,5.9,0.6,8.5,1.1c0.4,0.1,0.8,0.1,1.2,0.1c2.9,0,5.7,0,8.5,0c0.4,0,0.8,0,1.2,0c17.9,0,35.8,0,53.7,0
	c0.4,0,0.8,0,1.2,0c15.6-0.6,30.7-1.9,45.2-3.6c0.4,0,0.8-0.1,1.2-0.1c5-1.1,10.3-1.9,15.9-2.4c0.4,0,0.8-0.1,1.2-0.1
	c0-0.4,0-0.8,0-1.2c14-1.9,26.6-5.1,37.9-9.6c0.4-0.1,0.8-0.2,1.2-0.2c0-0.4,0-0.8,0-1.2c5-1.5,9.2-3.9,12.5-7
	c0.2-0.2,0.5-0.3,0.9-0.3c2.1-1.1,3.1-2.7,3-4.8c-1.1-15.2-2.1-33.2-3-53.8c0-0.4,0-0.8,0-1.2c0-11,0-22,0-33c0-0.4,0-0.8,0-1.2
	c0-7.7,0-15.5,0-23.2c0-0.4,0-0.8,0-1.2c0.6-9.2,0.1-17.3-1.3-24.4c0-0.4,0-0.8,0-1.2c0-10.6,0-21.2,0-31.7
	c1.4-6.7,1.9-14.4,1.3-23.2c0-0.4,0-0.8,0-1.2c0-0.4,0-0.8,0-1.2c0-4.1,0-8.1,0-12.2c0.4,0,0.6,0,0.6-0.1c1-8.7,0.8-16.4-0.6-23.1
	c0-0.4,0-0.8,0-1.2c0.2-11.2,0.2-20.6,0-28.1c0,0.4-0.1,0.8-0.3,1c-5.9,8.6-13.2,14-21.7,16.1c21.7-14.9,34.3-38.9,37.8-72
	c0-0.4,0.1-0.8,0.1-1.2C444.3,146.9,444.7,142,444.1,136.1z M506.6,177.2c3.1,12.4,6.9,24.6,11.5,36.6c4.4,11.5,8.2,23.8,11.4,37
	c-16.7,16.2-39.5,26.4-68.3,30.4c-0.4,0-0.8,0.1-1.2,0.1c0-0.4,0-0.6-0.1-0.6c-4-0.4-8.1-0.6-12.1-0.6c0,0.4,0,0.8,0,1.2
	c-0.4,0-0.7-0.1-1-0.3c-8.5-7-13.8-17-16.1-30.2c0,6.5,0,13,0,19.5c0,0.4,0,0.8,0,1.2c-0.4,0-0.8,0-1.2,0c0,3.7,0,7.3,0,11
	c0,0.4,0,0.8,0,1.2c-0.4,0-0.8,0-1.2,0c0,8.5,0,17.1,0,25.6c0,0.4,0,0.8,0,1.2c0,4.1,0.2,8.1,0.6,12.1c0,0,0.2,0.1,0.6,0.1
	c0,4.5,0,8.9,0,13.4c0,0.4,0,0.8,0,1.2c0,27.3,0.2,54.5,0.6,81.8h0.6c0,0.4,0,0.8,0.1,1.2c2.7,23.3,6.3,45.7,10.9,67.1
	c-17.7,16.5-41.7,26.9-71.9,31.2c-29.9,4.3-62.5,6.8-97.7,7.7c-57.4,1.4-99.3-12-125.7-40.1c0-0.4,0-0.8,0-1.2c0-4.9,0-9.8,0-14.7
	c4.7-23.3,6.8-49.4,6.1-78.1c0-0.4,0-0.8,0-1.2c1.4-5.1,1.8-11.2,1.3-18.3c0-0.4-0.1-0.8-0.1-1.2c0-0.4,0-0.8,0-1.2
	c0-4.9,0-9.8,0-14.6c0-0.4,0-0.8,0-1.2c0-4.5,0-8.9,0-13.4c0-0.4,0-0.8,0-1.2c0.6-19.3,0.2-37.6-1.2-54.9c0-0.4,0.1-0.8,0.2-1.2
	c1.7-6.3,2.5-13.7,2.3-22h-0.6c0.7,14.9-4.4,23.8-15.3,26.8c-0.4,0-0.8,0-1.2,0c-4.1,0-8.1,0-12.2,0c-11.6-1.4-22.1-4-31.5-7.9
	c-9.1-3.7-17.4-8.2-24.8-13.4c-5.5-3.9-9.1-9.4-10.9-16.6c11.1-25.6,18.3-54.5,21.8-86.8c4.1-37.8,15.6-67.8,34.5-90.2
	c5.3-6.3,12.1-11.3,20.4-14.9c34.9-15.4,67.5-33.2,97.7-53.4c12.2,5.3,26,9,41.5,10.9c0.4,0,0.8,0.1,1.2,0.1
	c4.7,1.4,10.3,1.6,17,0.6c0,0,0.1-0.2,0.1-0.6c19.8-0.5,36.9-3.7,51.3-9.6c0.4-0.1,0.7-0.2,1.2-0.2c35,19.5,70.6,38.7,106.7,57.6
	c6.3,3.3,11.4,8.2,15.3,14.5C484.3,107.2,497.5,140,506.6,177.2z M486.9,253.5c-4.6,2.6-9.9,4.6-16,5.9c-0.4,0-0.8,0.1-1.1,0.2
	c-8.7,3.7-18.5,4.4-29.4,2.2c-0.4,0-0.8,0-1.2,0c0.4,2.8,2.4,4.1,6.1,3.7c0.4,0,0.8-0.1,1.2-0.1c8.8,0.3,16.6-0.5,23.2-2.2
	c0.4-0.1,0.8-0.2,1.2-0.2c0-0.4,0-0.8,0-1.2c6.4-1.3,12.2-3.3,17.2-5.9c0.3-0.2,0.7-0.2,1.1-0.2c0-0.4,0-0.8,0-1.2
	c3.1-0.2,5.6-0.9,7.5-2.1c0.3-0.2,0.6-0.3,1-0.3c0-0.4,0-0.8,0-1.2c1.7,0.5,2.8,0.2,3.1-1.1c0-0.1,0.2-0.1,0.6-0.1
	c4.7-1.8,8.9-4.1,12.4-7c0.2-0.2,0.6-0.3,1-0.3c4.1-2,5.5-4.3,4.4-7.1c-0.1-0.2-0.3-0.2-0.7-0.2c0,0.4-0.1,0.7-0.3,0.9
	c-4.5,4.1-9.7,7.4-15.6,10.1c0,0.4-0.1,0.7-0.2,0.7c-0.6,0.3-1.4,0.5-2.2,0.5c0,0.4,0,0.8,0,1.2c-0.4,0-0.8,0.1-1.2,0.2
	c-3.7,1.5-7.4,3.1-11,4.7C487.6,253.2,487.2,253.3,486.9,253.5z M490.4,256.9c-0.4,0-0.8,0.1-1.1,0.2c-5.3,2.7-11.1,5.1-17.2,7.1
	c-0.4,0-0.8,0.1-1.2,0.2c-3.5,0.9-7.2,1.6-11,2.3c-0.4,0-0.8,0-1.2,0c-4.1,0-8.1,0-12.2,0c-0.4,0-0.8,0-1.2,0c-1.6,0-3.3,0-4.9,0
	c0,0.8,0.2,1.5,0.5,2.2c0.1,0.2,0.3,0.2,0.7,0.2c2.1,8.5,9.8,11.6,23.3,9.2c26-4.5,45.2-14.8,57.7-31l0.7-2.6
	c-1.2-5.3-3.8-5.8-7.6-1.5c-0.2,0.2-0.5,0.3-0.9,0.3c0,0.4-0.1,0.7-0.3,0.8c-4.9,3.3-10.1,6.3-15.6,9c-0.4,0-0.8,0.1-1.1,0.2
	C495.5,254.7,493,255.8,490.4,256.9z M345.2,13.4c-10.4,2.2-23.4,4.4-39.1,6.7c-0.4,0-0.8,0-1.2,0c-9.4,0-18.7,0-28.1,0
	c-8.5-1.2-16.6-3.2-24-5.9c-8.5-3.1-15.2-4.4-19.9-3.9c-0.9,5.4-0.2,9.2,2.1,11.4c0.2,0.2,0.3,0.4,0.3,0.8
	c9.3,4.5,19.9,7.7,31.7,9.6c0.4,0.1,0.8,0.1,1.2,0.1c9.6,1.4,20.1,1.6,31.7,0.6c0,0,0.1-0.2,0.1-0.6c1.2,0,2.4,0,3.7,0
	c0.4,0,0.8,0,1.2,0c0-0.4,0-0.8,0-1.2c7.1,0.2,13.2-0.6,18.4-2.3c0.4-0.1,0.8-0.2,1.2-0.2c3.1-0.6,6-1.3,8.6-2.2
	c0.4-0.1,0.7-0.2,1.2-0.2c2.8-0.9,5.3-2,7.5-3.4c0.3-0.2,0.6-0.2,1-0.2c2-1.3,2.9-3.7,2.6-7.3L345.2,13.4z M402.6,491.4
	c0.4-0.1,0.8-0.2,1.2-0.2c6.7-3,13.3-6.2,19.7-9.5c0.3-0.2,0.7-0.2,1.1-0.2c0-0.4,0-0.8,0-1.2c3.5-1,6-3,7.7-5.9
	c0.1-0.2,0.4-0.2,0.8-0.2h0.6c-0.4-4.1-2.2-4.1-5.5,0c0,0.4-0.1,0.7-0.2,0.8c-4.4,2.7-8.8,5.2-13.2,7.7c-0.4,0-0.8,0.1-1.1,0.2
	c-10.5,4.9-22.3,8.5-35.5,10.7c-0.4,0-0.8,0-1.2,0.1c-5.6,1.2-11.7,2-18.3,2.3c0,0.4,0,0.6-0.1,0.6c-14.8,1.9-29.8,3.3-45.1,4.3
	c0-0.4-0.1-0.7-0.2-0.7c-0.6-0.3-1.4-0.5-2.2-0.5c-0.4,0-0.8,0-1.2,0c-17.5,0-35,0-52.5,0c0,0.4,0,0.8,0,1.2c-0.4,0-0.8,0-1.2,0
	c-3.3,0-6.5,0-9.8,0c-0.4,0-0.8,0-1.2,0c-3.9,0.2-7.2-0.2-9.8-1.3c-0.4,0-0.8,0-1.2,0c-9.2-0.2-17.3-1.4-24.4-3.7
	c-0.4,0-0.8,0-1.2-0.1c-24-3.6-42.7-12.6-56.1-26.8c-0.4,0-0.8,0-1.2,0c-0.6,2.2-0.2,3.6,1,4.1c0.2,0.1,0.2,0.3,0.2,0.7
	c15.6,13.7,35.9,22.6,61,26.7c0.4,0.1,0.8,0.1,1.2,0.1c6.5,1.2,13.5,2,20.7,2.4c0.4,0,0.8,0.1,1.2,0.1c3-0.6,5.1-0.3,6.4,0.9
	c0.2,0.2,0.5,0.3,0.9,0.3c4.9,0,9.8,0,14.6,0c0.4,0,0.8,0,1.2,0c30.1,0.9,58.6,0.1,85.4-2.4c0.4,0,0.8-0.1,1.2-0.1
	c4.1,0,7.8-0.3,11-1.1c0.4-0.1,0.8-0.1,1.2-0.1c0-0.4,0-0.8,0-1.2c6.7-0.2,12.8-1,18.4-2.3c0.4-0.1,0.7-0.1,1.2-0.1
	c0-0.4,0-0.8,0-1.2C387,495.2,395.1,493.6,402.6,491.4z M403.8,492.4c-0.4,0-0.8,0.1-1.1,0.2c-6.1,2.8-13.1,4.7-20.9,5.9
	c-0.4,0-0.8,0.1-1.2,0.2c-5.9,1.7-12.5,2.9-19.6,3.5c-0.4,0-0.8,0-1.2,0.1c-4.1,0.7-8.6,1.1-13.4,1.1c0,0.4,0,0.6-0.1,0.6
	c-7.6,0.9-15.3,1.5-23.1,1.8c-0.4,0-0.8,0-1.2,0c-4.9,0-9.8,0-14.7,0c0,0.4,0,0.8,0,1.2c-0.4,0-0.8,0-1.2,0c-14.6,0-29.3,0-43.9,0
	c0-0.4-0.1-0.7-0.2-0.7c-0.6-0.3-1.4-0.5-2.2-0.5c-0.4,0-0.8,0-1.2,0c-4.9,0-9.8,0-14.6,0c-0.4,0-0.8,0-1.2,0s-0.8,0-1.2,0
	s-0.8,0-1.2,0.1c-4.7,0.6-8.3,0.1-11-1.3c-0.4,0-0.8,0-1.2,0c-6.1,0-11.4-0.8-15.9-2.4c-0.4,0-0.8,0-1.2-0.1
	c-25.1-3.8-45-12.7-59.8-26.8c-0.4,0-0.8,0-1.2,0c0,4.1,0.2,8.1,0.6,12.1c0,0,0.2,0.1,0.6,0.1c20.5,19.7,50.7,29.9,90.3,30.5
	c0.4,0,0.8,0,1.2,0c5.1,1.4,11.2,1.8,18.3,1.3c0.4,0,0.8-0.1,1.2-0.1c14.6,0,29.3,0,43.9,0c0.4,0,0.8,0,1.2,0
	c7.3,0,14.6-0.2,21.9-0.6c0,0,0.1-0.2,0.1-0.6c43.5-1.2,78.8-10.7,105.9-28.5c0.2-0.1,0.3-0.4,0.3-0.8c1-2.6,1.1-6.3,0.1-11
	c-0.1-0.4-0.1-0.8-0.1-1.2c-0.4,0-0.8,0.1-1,0.2c-2.8,1.6-5.7,3.2-8.7,4.6c0,0.4-0.1,0.7-0.3,0.8C419.3,486.7,412,490.1,403.8,492.4
	z M147.5,271.6c0.4-0.4,0.7-0.9,1-1.4c0.2-0.3,0.2-0.7,0.2-1.1c-0.4,0-0.8,0-1.2,0c-33-0.3-57.4-9.3-73.2-26.9
	c-0.4,0-0.8-0.1-1.1-0.2c-1.7-1-3.8-1.8-6.2-2.2c0,0.8,0,1.6,0,2.4c0,0.4,0,0.8,0,1.2c2.4,0.8,4.8,1.8,7.1,2.9
	c0.2,0.1,0.2,0.3,0.2,0.7c-0.4,0-0.8,0-1.2,0c0,0.4,0,0.8,0,1.2c-0.4,0-0.7-0.1-0.8-0.3c-1.3-2-3.5-3.2-6.5-3.4c0,0.4,0,0.8,0,1.2
	c-0.1,2.4-0.9,4-2.4,4.9c8.5,13.4,20.8,23.5,36.9,30.2c7.4,3.1,17,5.2,28.8,6.2c12.2,1.1,17.9-3.3,17.3-13.2c-0.4,0-0.8,0-1.2,0
	c-23.5,0.3-42.2-4.1-56.1-13.4c-0.4,0-0.7-0.1-1-0.2c-2.3-1.3-4.4-2.9-6.3-4.6c0.4,0,0.7-0.1,0.9-0.3c0.2-0.2,0.3-0.5,0.3-0.9
	c2.5,1.2,4.6,2.7,6.4,4.6c0.2,0.2,0.5,0.3,0.9,0.3c11.7,5.9,25.1,9.9,40.3,12.2c0.4,0,0.8,0.1,1.2,0.1c3.5,1.4,7.9,1.8,13.4,1.3
	c0.4,0,0.8-0.1,1.2-0.1s0.7-0.1,0.9-0.3C147.4,272.3,147.5,272,147.5,271.6z M340.7,25.3c-1.3,1.6-3.5,2.3-6.5,2.1
	c0,0.4-0.1,0.7-0.2,0.8c-1.9,1.1-4.2,1.6-7.1,1.6c0,0.4,0,0.6-0.1,0.7c-4.8,1.2-9.6,2.2-14.5,3c-0.4,0-0.8,0-1.2,0.1
	c-4.5,1.2-9.8,1.5-15.9,1.1c-0.4,0-0.8,0-1.2,0c-6.9,0-13.8,0-20.8,0c-0.4,0-0.8,0-1.2-0.1c-14.2-0.8-26-4-35.4-9.7
	c0,0.4,0,0.8,0,1.2c15.9,18.3,41,24.6,75.3,18.9c13.8-2.3,23.7-9,29.6-20.1C341.1,25,340.9,25.1,340.7,25.3z"/>
</svg>
