<?xml version="1.0" encoding="utf-8"?>
<!-- Generator: Adobe Illustrator 19.2.1, SVG Export Plug-In . SVG Version: 6.00 Build 0)  -->
<svg version="1.1" id="Layer_1" xmlns="http://www.w3.org/2000/svg" xmlns:xlink="http://www.w3.org/1999/xlink" x="0px" y="0px"
	 viewBox="0 0 620 500" enable-background="new 0 0 620 500" xml:space="preserve">
<rect fill="none" width="620" height="500"/>
<path id="la-product-cutmask" fill="#FFFFFF" d="M486.8,321c23.9-37.1,37.9-75.2,37.9-105.5c0-15.4-2.6-29.1-6.8-41.3
	c-11.7-0.5-22.3,2.9-28.1,5.3l1.4,6.6l-11.6,2.5l-4.8-22.9l11.6-2.5l0.6,3.1c10.3-3.1,19.1-3.9,26.5-3c-19.5-42.7-58.1-63-62.2-65.5
	c-5.6-3.4-67.4-24-88.2-37.3C342.3,47.1,320.5,43,320.5,43c-4.1-1-9.5-1.3-9.5-1.3s-5.4,0.3-9.5,1.3c0,0-21.8,4.1-42.6,17.4
	c-20.7,13.3-82.6,33.9-88.2,37.3c-4.2,2.5-41,22.8-59.8,65.2c6.3-0.1,13.4,0.9,21.5,3.4l0.7-3.1l11.6,2.5l-4.8,22.9l-11.6-2.5
	l1.4-6.5c-5-2-13.4-4.8-23.1-5.3c-4,12.2-6.5,25.9-6.5,41.3c0,29.7,13.1,67,35.7,103.4c3.7-2.4,6.8-4.5,9.3-6.3l-1.3-1.8l9.6-7
	l13.7,18.9l-9.6,7l-3.7-5.1c-3.5,2.2-7,4.2-10.3,6.1c38.2,56,98.3,108,167.5,125.4c68.5-17.2,129-68.4,168-123.7
	c-4.3-2.4-8.7-5-13.3-7.9l-3.7,5.1l-9.6-7l13.7-18.9l9.6,7l-1.4,1.9C477.4,315,481.7,317.8,486.8,321z M381.4,84.8L381.4,84.8C383,85.1 384,86.7 383.49999999999983,88.3C383.1999999999999,89.69999999999999 381.99999999999983,90.6 380.59999999999985,90.6C380.3999999999998,90.6 380.1999999999998,90.5 379.99999999999983,90.5C379.59999999999985,90.39999999999999 369.09999999999985,88.1 357.59999999999985,81.8C355.7999999999999,80.8 353.7999999999999,79.6 351.6999999999999,78.39999999999999C340.09999999999985,71.69999999999999 324.1999999999999,62.49999999999999 310.1999999999999,62.49999999999999C296.1999999999999,62.49999999999999 280.2999999999999,71.69999999999999 268.6999999999999,78.39999999999999C266.5999999999999,79.7 264.5999999999999,80.8 262.7999999999999,81.8C251.39999999999992,88.1 240.79999999999993,90.4 240.39999999999992,90.5C240.19999999999993,90.6 239.99999999999991,90.6 239.79999999999993,90.6C238.39999999999992,90.6 237.19999999999993,89.7 236.89999999999992,88.3C236.59999999999994,86.7 237.59999999999994,85.1 239.19999999999993,84.8C239.29999999999995,84.8 249.29999999999995,82.60000000000001 259.99999999999994,76.7C261.69999999999993,75.80000000000001 263.69999999999993,74.60000000000001 265.79999999999995,73.4C277.99999999999994,66.4 294.69999999999993,56.7 310.29999999999995,56.7C325.99999999999994,56.7 342.59999999999997,66.30000000000001 354.79999999999995,73.4C356.9,74.60000000000001 358.9,75.8 360.59999999999997,76.7C371.29999999999995,82.5 381.29999999999995,84.8 381.4,84.8 
			M361.6,233.7c9.4-29.3,39.2-46,66.6-37.2c27.4,8.8,42,39.6,32.7,68.9c-9.4,29.3-39.2,46-66.6,37.2S352.2,263.1,361.6,233.7z M197.8,193.6c28.5-9.1,59.5,8.3,69.3,38.8c9.7,30.5-5.5,62.6-34,71.7c-28.5,9.1-59.5-8.3-69.3-38.8
			C154,234.9,169.2,202.7,197.8,193.6z"/>
<g>
	
		<path id="la_x7C_Background_Color_x7C_bg" fill="#C9C8C8" stroke="#000000" stroke-width="3.3734" stroke-linecap="round" stroke-linejoin="round" stroke-miterlimit="10" d="
		M486.8,321c23.9-37.1,37.9-75.2,37.9-105.5c0-15.4-2.6-29.1-6.8-41.3c-11.7-0.5-22.3,2.9-28.1,5.3l1.4,6.6l-11.6,2.5l-4.8-22.9
		l11.6-2.5l0.6,3.1c10.3-3.1,19.1-3.9,26.5-3c-19.5-42.7-58.1-63-62.2-65.5c-5.6-3.4-67.4-24-88.2-37.3
		C342.3,47.1,320.5,43,320.5,43c-4.1-1-9.5-1.3-9.5-1.3s-5.4,0.3-9.5,1.3c0,0-21.8,4.1-42.6,17.4c-20.7,13.3-82.6,33.9-88.2,37.3
		c-4.2,2.5-41,22.8-59.8,65.2c6.3-0.1,13.4,0.9,21.5,3.4l0.7-3.1l11.6,2.5l-4.8,22.9l-11.6-2.5l1.4-6.5c-5-2-13.4-4.8-23.1-5.3
		c-4,12.2-6.5,25.9-6.5,41.3c0,29.7,13.1,67,35.7,103.4c3.7-2.4,6.8-4.5,9.3-6.3l-1.3-1.8l9.6-7l13.7,18.9l-9.6,7l-3.7-5.1
		c-3.5,2.2-7,4.2-10.3,6.1c38.2,56,98.3,108,167.5,125.4c68.5-17.2,129-68.4,168-123.7c-4.3-2.4-8.7-5-13.3-7.9l-3.7,5.1l-9.6-7
		l13.7-18.9l9.6,7l-1.4,1.9C477.4,315,481.7,317.8,486.8,321z"/>
	
		<path fill="none" stroke="#000000" stroke-width="2.2489" stroke-linecap="round" stroke-linejoin="round" stroke-miterlimit="10" stroke-dasharray="3.3734,4.4978" d="
		M310.9,451.9c-27.5-7.1-54.6-19.9-80.7-38.2c-24.2-17-46.4-37.9-66.1-62.1c-18.3-22.5-33.6-47.1-44.1-71.1
		c-10.4-23.7-15.9-46.2-15.9-65c0-17,3.1-33.2,9.4-48.2c5.1-12.3,12.2-23.9,21.3-34.4c7.3-8.5,19.6-20.8,37.3-31.2
		c0.3-0.2,0.6-0.3,0.8-0.4c1.5-0.9,10.5-4.3,19.2-7.6c21.8-8.2,54.7-20.6,69.1-29.8c19.8-12.7,40.9-16.8,41.1-16.8h0.1h0.1
		c3.2-0.7,7.5-1.1,8.6-1.2c1.1,0.1,5.3,0.4,8.6,1.2h0.1h0.1c0.2,0,21.3,4.2,41.1,16.8c14.4,9.2,47.3,21.6,69.1,29.8
		c8.7,3.3,17.7,6.7,19.2,7.6c0.3,0.2,0.6,0.4,1.1,0.6c15,8.6,28.1,19.3,39,31.6c9.3,10.5,16.6,22.1,21.8,34.3
		c6.3,14.9,9.6,30.9,9.6,47.7c0,18.7-5.6,41.2-16.3,65c-10.8,23.9-26.3,48.5-45,71.1c-19.8,23.8-42.9,45.3-67.1,62.1
		C365.7,432,338.4,444.9,310.9,451.9z"/>
	
		<path fill="none" stroke="#000000" stroke-width="2.2489" stroke-linecap="round" stroke-linejoin="round" stroke-miterlimit="10" stroke-dasharray="3.3734,4.4978" d="
		M310.9,451.9c-27.5-7.1-54.6-19.9-80.7-38.2c-24.2-17-46.4-37.9-66.1-62.1c-18.3-22.5-33.6-47.1-44.1-71.1
		c-10.4-23.7-15.9-46.2-15.9-65c0-17,3.1-33.2,9.4-48.2c5.1-12.3,12.2-23.9,21.3-34.4c7.3-8.5,19.6-20.8,37.3-31.2
		c0.3-0.2,0.6-0.3,0.8-0.4c1.5-0.9,10.5-4.3,19.2-7.6c21.8-8.2,54.7-20.6,69.1-29.8c19.8-12.7,40.9-16.8,41.1-16.8h0.1h0.1
		c3.2-0.7,7.5-1.1,8.6-1.2c1.1,0.1,5.3,0.4,8.6,1.2h0.1h0.1c0.2,0,21.3,4.2,41.1,16.8c14.4,9.2,47.3,21.6,69.1,29.8
		c8.7,3.3,17.7,6.7,19.2,7.6c0.3,0.2,0.6,0.4,1.1,0.6c15,8.6,28.1,19.3,39,31.6c9.3,10.5,16.6,22.1,21.8,34.3
		c6.3,14.9,9.6,30.9,9.6,47.7c0,18.7-5.6,41.2-16.3,65c-10.8,23.9-26.3,48.5-45,71.1c-19.8,23.8-42.9,45.3-67.1,62.1
		C365.7,432,338.4,444.9,310.9,451.9z"/>
	
		<path fill="none" stroke="#000000" stroke-width="2.2489" stroke-linecap="round" stroke-linejoin="round" stroke-miterlimit="10" stroke-dasharray="3.3734,4.4978" d="
		M310.9,447.6c-26.6-7-52.9-19.5-78.3-37.3c-23.9-16.8-45.8-37.4-65.3-61.3c-18.1-22.2-33.1-46.5-43.5-70.1
		c-10.2-23.2-15.6-45.1-15.6-63.3c0-16.4,3-32.1,9-46.6c4.9-11.9,11.8-23.1,20.6-33.3c7-8.2,19.1-20.2,36.2-30.3h0.1
		c0.3-0.2,0.5-0.3,0.7-0.4c1.5-0.8,11.3-4.5,18.5-7.2c22-8.3,55.1-20.7,69.9-30.2c18.9-12.1,39.4-16.2,39.6-16.3h0.1h0.2
		c2.7-0.6,6.4-0.9,7.6-1c1.2,0.1,4.9,0.4,7.6,1h0.2h0.2c0.2,0,20.7,4.1,39.6,16.2c14.8,9.4,47.9,21.9,69.9,30.2
		c7.2,2.7,17.1,6.4,18.6,7.2c0.3,0.2,0.7,0.4,1.1,0.7c14.6,8.4,27.3,18.7,37.9,30.7c9,10.2,16.1,21.4,21.1,33.1
		c6.1,14.4,9.2,29.9,9.2,46.1c0,18.2-5.5,40-16,63.2c-10.6,23.6-26,47.8-44.4,70.1c-19.5,23.6-42.4,44.8-66.2,61.3
		C364.1,428,337.6,440.6,310.9,447.6z"/>
	
		<line fill="none" stroke="#000000" stroke-width="4.4978" stroke-linecap="round" stroke-linejoin="round" stroke-miterlimit="10" x1="312.3" y1="97.7" x2="312.3" y2="456.3"/>
	
		<path id="clip" fill="#FFFFFF" stroke="#000000" stroke-width="3.3734" stroke-linecap="round" stroke-linejoin="round" stroke-miterlimit="10" d="
		M381.4,84.8c-0.1,0-10.1-2.3-20.8-8.1c-1.7-0.9-3.7-2.1-5.8-3.3c-12.2-7.1-28.8-16.7-44.5-16.7c-15.6,0-32.3,9.7-44.5,16.7
		c-2.1,1.2-4.1,2.4-5.8,3.3c-10.7,5.9-20.7,8.1-20.8,8.1c-1.6,0.3-2.6,1.9-2.3,3.5c0.3,1.4,1.5,2.3,2.9,2.3c0.2,0,0.4,0,0.6-0.1
		c0.4-0.1,11-2.4,22.4-8.7c1.8-1,3.8-2.1,5.9-3.4c11.6-6.7,27.5-15.9,41.5-15.9s29.9,9.2,41.5,15.9c2.1,1.2,4.1,2.4,5.9,3.4
		c11.5,6.3,22,8.6,22.4,8.7c0.2,0,0.4,0.1,0.6,0.1c1.4,0,2.6-0.9,2.9-2.3C384,86.7,383,85.1,381.4,84.8z"/>
	
		<path fill="none" stroke="#000000" stroke-width="1.9678" stroke-linecap="round" stroke-linejoin="round" stroke-miterlimit="10" stroke-dasharray="2.8111,2.8111" d="
		M221.7,88.4l4.7,12.5c0,0,0.4,5.6,47.1-18.8c14.3-5.9,21-14,38.8-14"/>
	
		<path fill="none" stroke="#000000" stroke-width="1.9678" stroke-linecap="round" stroke-linejoin="round" stroke-miterlimit="10" stroke-dasharray="2.8111,2.8111" d="
		M404.4,89l-4.7,12.5c0,0-1.9,5-48.6-19.3c-14.3-5.9-21-14-38.8-14"/>
</g>
<g>
	<g>
		
			<path id="valve_x5F_2" fill="#FFFFFF" stroke="#000000" stroke-width="2.1652" stroke-linecap="round" stroke-linejoin="round" stroke-miterlimit="10" d="
			M361.6,233.7c9.4-29.3,39.2-46,66.6-37.2c27.4,8.8,42,39.6,32.7,68.9c-9.4,29.3-39.2,46-66.6,37.2S352.2,263.1,361.6,233.7z"/>
		
			<ellipse transform="matrix(0.3041 -0.9526 0.9526 0.3041 50.0465 570.199)" fill="#FFFFFF" stroke="#000000" stroke-width="3.2477" stroke-linecap="round" stroke-linejoin="round" stroke-miterlimit="10" cx="415.3" cy="250.8" rx="51.2" ry="47.8"/>
		
			<ellipse transform="matrix(0.3041 -0.9526 0.9526 0.3041 50.97 572.7781)" fill="#FFFFFF" stroke="#000000" stroke-width="2.1652" stroke-linecap="round" stroke-linejoin="round" stroke-miterlimit="10" cx="417.5" cy="251.5" rx="48.7" ry="45.5"/>
		
			<path fill="#FBDB4A" stroke="#000000" stroke-width="2.1652" stroke-linecap="round" stroke-linejoin="round" stroke-miterlimit="10" d="
			M378.4,250c-0.8-0.3-1.4-1-1.4-1.9c0-0.2,0.1-5.3,2.3-12c2.8-8.8,7.9-16.2,14.7-21.3c0.9-0.6,2.1-0.5,2.7,0.4s0.5,2.1-0.4,2.7
			c-14.8,11.2-15.4,30.1-15.4,30.3c0,1.1-0.9,1.9-2,1.9C378.8,250.1,378.6,250.1,378.4,250z"/>
		
			<path fill="#FBDB4A" stroke="#000000" stroke-width="2.1652" stroke-linecap="round" stroke-linejoin="round" stroke-miterlimit="10" d="
			M395.1,289.3c-0.2-0.1-0.4-0.2-0.6-0.3c-0.2-0.1-4.3-3.2-8.5-8.8c-5.6-7.4-8.6-15.8-8.9-24.3c0-1.1,0.8-2,1.9-2s2,0.8,2,1.9
			c0.5,18.5,15.6,30,15.8,30.1c0.9,0.6,1,1.9,0.4,2.7C396.8,289.3,395.9,289.5,395.1,289.3z"/>
	</g>
	<g>
		
			<path id="valve_x5F_1_1_" fill="#FFFFFF" stroke="#000000" stroke-width="3.2477" stroke-linecap="round" stroke-linejoin="round" stroke-miterlimit="10" d="
			M197.8,193.6c28.5-9.1,59.5,8.3,69.3,38.8c9.7,30.5-5.5,62.6-34,71.7c-28.5,9.1-59.5-8.3-69.3-38.8
			C154,234.9,169.2,202.7,197.8,193.6z"/>
		
			<ellipse transform="matrix(0.9526 -0.3041 0.3041 0.9526 -65.7651 76.7134)" fill="#FFFFFF" stroke="#000000" stroke-width="2.1652" stroke-linecap="round" stroke-linejoin="round" stroke-miterlimit="10" cx="213.4" cy="249.5" rx="52.1" ry="55.7"/>
		
			<ellipse transform="matrix(0.9526 -0.3041 0.3041 0.9526 -66.3552 75.5272)" fill="#FFFFFF" stroke="#000000" stroke-width="3.2477" stroke-linecap="round" stroke-linejoin="round" stroke-miterlimit="10" cx="209.3" cy="250.8" rx="47.8" ry="51.2"/>
		
			<ellipse transform="matrix(0.9526 -0.3041 0.3041 0.9526 -66.6729 74.8906)" fill="#FFFFFF" stroke="#000000" stroke-width="2.1652" stroke-linecap="round" stroke-linejoin="round" stroke-miterlimit="10" cx="207.1" cy="251.5" rx="45.5" ry="48.7"/>
		
			<path fill="#FBDB4A" stroke="#000000" stroke-width="2.1652" stroke-linecap="round" stroke-linejoin="round" stroke-miterlimit="10" d="
			M246.2,250c0.8-0.3,1.4-1,1.4-1.9c0-0.2-0.1-5.3-2.3-12c-2.8-8.8-7.9-16.2-14.7-21.3c-0.9-0.6-2.1-0.5-2.7,0.4
			c-0.6,0.9-0.5,2.1,0.4,2.7c14.8,11.2,15.4,30.1,15.4,30.3c0,1.1,0.9,1.9,2,1.9C245.8,250.1,246,250.1,246.2,250z"/>
		
			<path fill="#FBDB4A" stroke="#000000" stroke-width="2.1652" stroke-linecap="round" stroke-linejoin="round" stroke-miterlimit="10" d="
			M229.4,289.3c0.2-0.1,0.4-0.2,0.6-0.3c0.2-0.1,4.3-3.2,8.5-8.8c5.6-7.4,8.6-15.8,8.9-24.3c0-1.1-0.8-2-1.9-2c-1.1,0-2,0.8-2,1.9
			c-0.5,18.5-15.6,30-15.8,30.1c-0.9,0.6-1,1.9-0.4,2.7C227.8,289.3,228.7,289.5,229.4,289.3z"/>
	</g>
</g>
<g>
	<g>
		
			<path fill="none" stroke="#000000" stroke-width="5.0601" stroke-linecap="round" stroke-linejoin="round" stroke-miterlimit="10" d="
			M336.8,138.9c0,0,52,5.8,127.2,37.5"/>
		
			<path fill="none" stroke="#000000" stroke-width="5.0601" stroke-linecap="round" stroke-linejoin="round" stroke-miterlimit="10" d="
			M337.2,351.6c0,0,64.9-7.8,102.9-25.5"/>
	</g>
	<g>
		
			<path fill="none" stroke="#000000" stroke-width="5.0601" stroke-linecap="round" stroke-linejoin="round" stroke-miterlimit="10" d="
			M287.8,138.9c0,0-52,5.8-127.2,37.5"/>
		
			<path fill="none" stroke="#000000" stroke-width="5.0601" stroke-linecap="round" stroke-linejoin="round" stroke-miterlimit="10" d="
			M287.4,351.6c0,0-64.9-7.8-102.9-25.5"/>
	</g>
</g>
<g>
	
		<path id="la_x7C_Background_Color_x7C_bg_4_" fill="#C9C8C8" stroke="#000000" stroke-width="3.3734" stroke-linecap="round" stroke-linejoin="round" stroke-miterlimit="10" d="
		M474.7,165.7l4.8,22.9l11.6-2.5l-1.4-6.6c-3,1.2-4.8,2.2-4.8,2.2s-5-13.1-3.2-13.7c1.8-0.7,3.5-1.2,5.2-1.7l-0.6-3.1L474.7,165.7z"
		/>
	
		<path id="la_x7C_Background_Color_x7C_bg_3_" fill="#C9C8C8" stroke="#000000" stroke-width="3.3734" stroke-linecap="round" stroke-linejoin="round" stroke-miterlimit="10" d="
		M468.7,308.6c0,0,2.1,1.6,5.6,4.2l1.4-1.9l-9.6-7l-13.7,18.9l9.6,7l3.7-5.1c-2.3-1.4-4.6-2.9-7-4.4L468.7,308.6z"/>
	
		<path fill="#FFFFFF" stroke="#000000" stroke-width="2.53" stroke-linecap="round" stroke-linejoin="round" stroke-miterlimit="10" d="
		M533,172.7c0,0,14.6,5.1,21.1,27.2s60.7,132,7,148.6c0,0,32,2.8,32-55.7s-34.2-125-79.9-130.3C513.2,162.6,530.5,173.2,533,172.7z"
		/>
	
		<path fill="#FFFFFF" stroke="#000000" stroke-width="2.53" stroke-linecap="round" stroke-linejoin="round" stroke-miterlimit="10" d="
		M513.5,163.2c-8.6-0.9-19.1,0.2-31.7,4.8c-1.8,0.6,3.2,13.7,3.2,13.7s15.1-8.2,32.9-7.5c10,0.4,20.9,3.6,30.5,12.8
		C548.4,186.9,539.2,166,513.5,163.2z"/>
	
		<path fill="#FFFFFF" stroke="#000000" stroke-width="2.53" stroke-linecap="round" stroke-linejoin="round" stroke-miterlimit="10" d="
		M486.8,321c-11-6.9-18.1-12.4-18.1-12.4l-10.1,11.7c7.2,4.7,14,8.7,20.4,12.3c84.8,47.4,102.7,5.4,102.7,5.4
		C555,358,511.3,336.3,486.8,321z"/>
</g>
<g>
	
		<path id="la_x7C_Background_Color_x7C_bg_2_" fill="#C9C8C8" stroke="#000000" stroke-width="3.3734" stroke-linecap="round" stroke-linejoin="round" stroke-miterlimit="10" d="
		M139.9,188.5l4.8-22.9l-11.6-2.5l-0.7,3.1c1.7,0.5,3.4,1.1,5.1,1.7c1.8,0.6-3.2,13.7-3.2,13.7s-1.7-0.9-4.7-2.1l-1.4,6.5
		L139.9,188.5z"/>
	
		<path id="la_x7C_Background_Color_x7C_bg_1_" fill="#C9C8C8" stroke="#000000" stroke-width="3.3734" stroke-linecap="round" stroke-linejoin="round" stroke-miterlimit="10" d="
		M167.1,322.9L153.3,304l-9.6,7l1.3,1.8c3.6-2.5,5.7-4.2,5.7-4.2l10.1,11.7c-2.4,1.6-4.8,3-7.1,4.5l3.7,5.1L167.1,322.9z"/>
	
		<path fill="#FFFFFF" stroke="#000000" stroke-width="2.53" stroke-linecap="round" stroke-linejoin="round" stroke-miterlimit="10" d="
		M26.2,292.9c0-58.5,34.2-125,79.9-130.3c0,0-17.2,10.6-19.8,10.1c0,0-14.6,5.1-21.1,27.2s-60.7,132-7,148.6
		C58.2,348.6,26.2,351.4,26.2,292.9"/>
	
		<path fill="#FFFFFF" stroke="#000000" stroke-width="2.53" stroke-linecap="round" stroke-linejoin="round" stroke-miterlimit="10" d="
		M137.5,168c-10.2-3.8-19-5.2-26.6-5.1c-29.5,0.4-40,24-40,24.1c11.2-10.7,24.3-13.3,35.6-12.7c15.5,0.8,27.8,7.4,27.8,7.4
		S139.3,168.6,137.5,168z"/>
	
		<path fill="#FFFFFF" stroke="#000000" stroke-width="2.53" stroke-linecap="round" stroke-linejoin="round" stroke-miterlimit="10" d="
		M150.7,308.6c0,0-5.8,4.5-15,10.4c-23.8,15.3-70.2,39.9-98,19c0,0,18.3,43,105.8-7.1c5.5-3.2,11.3-6.7,17.3-10.6L150.7,308.6z"/>
</g>
</svg>
