<?xml version="1.0" encoding="utf-8"?>
<!-- Generator: Adobe Illustrator 19.2.1, SVG Export Plug-In . SVG Version: 6.00 Build 0)  -->
<svg version="1.1" id="Layer_1" xmlns="http://www.w3.org/2000/svg" xmlns:xlink="http://www.w3.org/1999/xlink" x="0px" y="0px"
	 viewBox="0 0 620 503" enable-background="new 0 0 620 503" xml:space="preserve">
	 <!-- hack to set margins -->
<rect fill="none" width="620" height="503" stroke="none" style="opacity:0;fill-opacity:0;"/>
	 <!--set cutmask -->
<path id="la-product-cutmask" fill="#FFFFFF" d="M589.8,67.3c-3.1-10.6-11.7-19.4-21.8-19.9c-3.8-0.2-7.7,0.8-11.7,3.3
	c-6.2,3.9-10.6,10.1-14.6,16.2c-12.2,18.6-28.3,31-50.2,36.7c-27.3,7.1-56.4,2.1-82.7-6.9c-69.9-23.9-100.3-20.3-100.3-20.3
	s-30.4-3.6-100.3,20.4c-25.1,8.6-52.6,13.6-78.9,7.8c-18.2-4-36.4-14.2-47.7-29.2c-4.8-6.3-8.9-13.1-14.3-18.7
	c-9.7-10-22.8-13.6-33.1-2.4c-9,9.5-9.7,24.3-8.8,36.5c3.7,51,33,101.5,57.7,144.8c0,0,0.7,10.9,4.4,21.1
	c3.6,10.2,105.4,205,221,205s217.4-194.8,221-205c3.6-10.2,4.4-21.1,4.4-21.1c20.2-35.3,39.8-72.3,51.2-111.5
	C590.2,106.4,595.1,85.5,589.8,67.3z M88.4,219.6C53.6,179.5,32.9,94.1,34.5,71c0.8-11.5,6.8-16,14.7-9.2c1,0.8,2,1.8,3,3
	c10.3,12,14.1,27,22.6,39.9c6.6,10.1,13.4,18.2,14.8,30.7C97.6,202.8,94.8,227.8,88.4,219.6z M528.6,219.6
	c-6.4,8.3-9.2-12.8-1.2-80.2c1.5-12.5,8.3-20.6,14.8-30.7c8.4-12.9,12.2-27.9,22.6-39.9c1-1.2,2-2.2,3-3c7.9-6.8,13.9-2.3,14.7,9.2
	C584.1,98,563.3,179.5,528.6,219.6z M308.5,463.5c-1.1,0-1.9-0.9-1.9-1.9V76.4c0-1.1,0.9-1.9,1.9-1.9s1.9,0.9,1.9,1.9v385.2
	C310.4,462.7,309.6,463.5,308.5,463.5z M303.7,462c-0.7,0-1.3-0.6-1.3-1.3v-3.9c0-0.7,0.6-1.3,1.3-1.3s1.3,0.6,1.3,1.3v3.9C305,461.4,304.4,462,303.7,462z
	 M303.7,453c-0.7,0-1.3-0.6-1.3-1.3v-3.9c0-0.7,0.6-1.3,1.3-1.3s1.3,0.6,1.3,1.3v3.9C305,452.4,304.4,453,303.7,453z M303.7,443.9
	c-0.7,0-1.3-0.6-1.3-1.3v-3.9c0-0.7,0.6-1.3,1.3-1.3s1.3,0.6,1.3,1.3v3.9C305,443.3,304.4,443.9,303.7,443.9z M303.7,434.8
	c-0.7,0-1.3-0.6-1.3-1.3v-3.9c0-0.7,0.6-1.3,1.3-1.3s1.3,0.6,1.3,1.3v3.9C305,434.3,304.4,434.8,303.7,434.8z M303.7,425.8
	c-0.7,0-1.3-0.6-1.3-1.3v-3.9c0-0.7,0.6-1.3,1.3-1.3s1.3,0.6,1.3,1.3v3.9C305,425.2,304.4,425.8,303.7,425.8z M303.7,416.7
	c-0.7,0-1.3-0.6-1.3-1.3v-3.9c0-0.7,0.6-1.3,1.3-1.3s1.3,0.6,1.3,1.3v3.9C305,416.2,304.4,416.7,303.7,416.7z M303.7,407.7
	c-0.7,0-1.3-0.6-1.3-1.3v-3.9c0-0.7,0.6-1.3,1.3-1.3s1.3,0.6,1.3,1.3v3.9C305,407.1,304.4,407.7,303.7,407.7z M303.7,398.6
	c-0.7,0-1.3-0.6-1.3-1.3v-3.9c0-0.7,0.6-1.3,1.3-1.3s1.3,0.6,1.3,1.3v3.9C305,398,304.4,398.6,303.7,398.6z M303.7,389.6
	c-0.7,0-1.3-0.6-1.3-1.3v-3.9c0-0.7,0.6-1.3,1.3-1.3s1.3,0.6,1.3,1.3v3.9C305,389,304.4,389.6,303.7,389.6z M303.7,380.5
	c-0.7,0-1.3-0.6-1.3-1.3v-3.9c0-0.7,0.6-1.3,1.3-1.3s1.3,0.6,1.3,1.3v3.9C305,379.9,304.4,380.5,303.7,380.5z M303.7,371.4
	c-0.7,0-1.3-0.6-1.3-1.3v-3.9c0-0.7,0.6-1.3,1.3-1.3s1.3,0.6,1.3,1.3v3.9C305,370.9,304.4,371.4,303.7,371.4z M303.7,362.4
	c-0.7,0-1.3-0.6-1.3-1.3v-3.9c0-0.7,0.6-1.3,1.3-1.3s1.3,0.6,1.3,1.3v3.9C305,361.8,304.4,362.4,303.7,362.4z M303.7,353.3
	c-0.7,0-1.3-0.6-1.3-1.3v-3.9c0-0.7,0.6-1.3,1.3-1.3s1.3,0.6,1.3,1.3v3.9C305,352.7,304.4,353.3,303.7,353.3z M303.7,344.3
	c-0.7,0-1.3-0.6-1.3-1.3v-3.9c0-0.7,0.6-1.3,1.3-1.3s1.3,0.6,1.3,1.3v3.9C305,343.7,304.4,344.3,303.7,344.3z M303.7,335.2
	c-0.7,0-1.3-0.6-1.3-1.3V330c0-0.7,0.6-1.3,1.3-1.3s1.3,0.6,1.3,1.3v3.9C305,334.6,304.4,335.2,303.7,335.2z M303.7,326.2
	c-0.7,0-1.3-0.6-1.3-1.3V321c0-0.7,0.6-1.3,1.3-1.3s1.3,0.6,1.3,1.3v3.9C305,325.6,304.4,326.2,303.7,326.2z M303.7,317.1
	c-0.7,0-1.3-0.6-1.3-1.3v-3.9c0-0.7,0.6-1.3,1.3-1.3s1.3,0.6,1.3,1.3v3.9C305,316.5,304.4,317.1,303.7,317.1z M303.7,308
	c-0.7,0-1.3-0.6-1.3-1.3v-3.9c0-0.7,0.6-1.3,1.3-1.3s1.3,0.6,1.3,1.3v3.9C305,307.5,304.4,308,303.7,308z M303.7,299
	c-0.7,0-1.3-0.6-1.3-1.3v-3.9c0-0.7,0.6-1.3,1.3-1.3s1.3,0.6,1.3,1.3v3.9C305,298.4,304.4,299,303.7,299z M303.7,289.9
	c-0.7,0-1.3-0.6-1.3-1.3v-3.9c0-0.7,0.6-1.3,1.3-1.3s1.3,0.6,1.3,1.3v3.9C305,289.3,304.4,289.9,303.7,289.9z M303.7,280.9
	c-0.7,0-1.3-0.6-1.3-1.3v-3.9c0-0.7,0.6-1.3,1.3-1.3s1.3,0.6,1.3,1.3v3.9C305,280.3,304.4,280.9,303.7,280.9z M303.7,271.8
	c-0.7,0-1.3-0.6-1.3-1.3v-3.9c0-0.7,0.6-1.3,1.3-1.3s1.3,0.6,1.3,1.3v3.9C305,271.2,304.4,271.8,303.7,271.8z M303.7,262.7
	c-0.7,0-1.3-0.6-1.3-1.3v-3.9c0-0.7,0.6-1.3,1.3-1.3s1.3,0.6,1.3,1.3v3.9C305,262.2,304.4,262.7,303.7,262.7z M303.7,253.7
	c-0.7,0-1.3-0.6-1.3-1.3v-3.9c0-0.7,0.6-1.3,1.3-1.3s1.3,0.6,1.3,1.3v3.9C305,253.1,304.4,253.7,303.7,253.7z M303.7,244.6
	c-0.7,0-1.3-0.6-1.3-1.3v-3.9c0-0.7,0.6-1.3,1.3-1.3s1.3,0.6,1.3,1.3v3.9C305,244,304.4,244.6,303.7,244.6z M303.7,235.6
	c-0.7,0-1.3-0.6-1.3-1.3v-3.9c0-0.7,0.6-1.3,1.3-1.3s1.3,0.6,1.3,1.3v3.9C305,235,304.4,235.6,303.7,235.6z M303.7,226.5
	c-0.7,0-1.3-0.6-1.3-1.3v-3.9c0-0.7,0.6-1.3,1.3-1.3s1.3,0.6,1.3,1.3v3.9C305,225.9,304.4,226.5,303.7,226.5z M303.7,217.5
	c-0.7,0-1.3-0.6-1.3-1.3v-3.9c0-0.7,0.6-1.3,1.3-1.3s1.3,0.6,1.3,1.3v3.9C305,216.9,304.4,217.5,303.7,217.5z M303.7,208.4
	c-0.7,0-1.3-0.6-1.3-1.3v-3.9c0-0.7,0.6-1.3,1.3-1.3s1.3,0.6,1.3,1.3v3.9C305,207.8,304.4,208.4,303.7,208.4z M303.7,199.3
	c-0.7,0-1.3-0.6-1.3-1.3v-3.9c0-0.7,0.6-1.3,1.3-1.3s1.3,0.6,1.3,1.3v3.9C305,198.8,304.4,199.3,303.7,199.3z M303.7,190.3
	c-0.7,0-1.3-0.6-1.3-1.3v-3.9c0-0.7,0.6-1.3,1.3-1.3s1.3,0.6,1.3,1.3v3.9C305,189.7,304.4,190.3,303.7,190.3z M303.7,181.2
	c-0.7,0-1.3-0.6-1.3-1.3V176c0-0.7,0.6-1.3,1.3-1.3s1.3,0.6,1.3,1.3v3.9C305,180.6,304.4,181.2,303.7,181.2z M303.7,172.2
	c-0.7,0-1.3-0.6-1.3-1.3V167c0-0.7,0.6-1.3,1.3-1.3s1.3,0.6,1.3,1.3v3.9C305,171.6,304.4,172.2,303.7,172.2z M303.7,163.1
	c-0.7,0-1.3-0.6-1.3-1.3v-3.9c0-0.7,0.6-1.3,1.3-1.3s1.3,0.6,1.3,1.3v3.9C305,162.5,304.4,163.1,303.7,163.1z M303.7,154
	c-0.7,0-1.3-0.6-1.3-1.3v-3.9c0-0.7,0.6-1.3,1.3-1.3s1.3,0.6,1.3,1.3v3.9C305,153.5,304.4,154,303.7,154z M303.7,145
	c-0.7,0-1.3-0.6-1.3-1.3v-3.9c0-0.7,0.6-1.3,1.3-1.3s1.3,0.6,1.3,1.3v3.9C305,144.4,304.4,145,303.7,145z M303.7,135.9
	c-0.7,0-1.3-0.6-1.3-1.3v-3.9c0-0.7,0.6-1.3,1.3-1.3s1.3,0.6,1.3,1.3v3.9C305,135.3,304.4,135.9,303.7,135.9z M303.7,126.9
	c-0.7,0-1.3-0.6-1.3-1.3v-3.9c0-0.7,0.6-1.3,1.3-1.3s1.3,0.6,1.3,1.3v3.9C305,126.3,304.4,126.9,303.7,126.9z M303.7,117.8
	c-0.7,0-1.3-0.6-1.3-1.3v-3.9c0-0.7,0.6-1.3,1.3-1.3s1.3,0.6,1.3,1.3v3.9C305,117.2,304.4,117.8,303.7,117.8z M303.7,108.8
	c-0.7,0-1.3-0.6-1.3-1.3v-3.9c0-0.7,0.6-1.3,1.3-1.3s1.3,0.6,1.3,1.3v3.9C305,108.2,304.4,108.8,303.7,108.8z M303.7,99.7
	c-0.7,0-1.3-0.6-1.3-1.3v-3.9c0-0.7,0.6-1.3,1.3-1.3s1.3,0.6,1.3,1.3v3.9C305,99.1,304.4,99.7,303.7,99.7z M303.7,90.6
	c-0.7,0-1.3-0.6-1.3-1.3v-3.9c0-0.7,0.6-1.3,1.3-1.3s1.3,0.6,1.3,1.3v3.9C305,90.1,304.4,90.6,303.7,90.6z M303.7,81.6
	c-0.7,0-1.3-0.6-1.3-1.3v-3.9c0-0.7,0.6-1.3,1.3-1.3s1.3,0.6,1.3,1.3v3.9C305,81,304.4,81.6,303.7,81.6z M313.2,462c-0.7,0-1.3-0.6-1.3-1.3v-3.9c0-0.7,0.6-1.3,1.3-1.3s1.3,0.6,1.3,1.3v3.9C314.5,461.4,313.9,462,313.2,462z
	 M313.2,453c-0.7,0-1.3-0.6-1.3-1.3v-3.9c0-0.7,0.6-1.3,1.3-1.3s1.3,0.6,1.3,1.3v3.9C314.5,452.4,313.9,453,313.2,453z M313.2,443.9
	c-0.7,0-1.3-0.6-1.3-1.3v-3.9c0-0.7,0.6-1.3,1.3-1.3s1.3,0.6,1.3,1.3v3.9C314.5,443.3,313.9,443.9,313.2,443.9z M313.2,434.8
	c-0.7,0-1.3-0.6-1.3-1.3v-3.9c0-0.7,0.6-1.3,1.3-1.3s1.3,0.6,1.3,1.3v3.9C314.5,434.3,313.9,434.8,313.2,434.8z M313.2,425.8
	c-0.7,0-1.3-0.6-1.3-1.3v-3.9c0-0.7,0.6-1.3,1.3-1.3s1.3,0.6,1.3,1.3v3.9C314.5,425.2,313.9,425.8,313.2,425.8z M313.2,416.7
	c-0.7,0-1.3-0.6-1.3-1.3v-3.9c0-0.7,0.6-1.3,1.3-1.3s1.3,0.6,1.3,1.3v3.9C314.5,416.2,313.9,416.7,313.2,416.7z M313.2,407.7
	c-0.7,0-1.3-0.6-1.3-1.3v-3.9c0-0.7,0.6-1.3,1.3-1.3s1.3,0.6,1.3,1.3v3.9C314.5,407.1,313.9,407.7,313.2,407.7z M313.2,398.6
	c-0.7,0-1.3-0.6-1.3-1.3v-3.9c0-0.7,0.6-1.3,1.3-1.3s1.3,0.6,1.3,1.3v3.9C314.5,398,313.9,398.6,313.2,398.6z M313.2,389.6
	c-0.7,0-1.3-0.6-1.3-1.3v-3.9c0-0.7,0.6-1.3,1.3-1.3s1.3,0.6,1.3,1.3v3.9C314.5,389,313.9,389.6,313.2,389.6z M313.2,380.5
	c-0.7,0-1.3-0.6-1.3-1.3v-3.9c0-0.7,0.6-1.3,1.3-1.3s1.3,0.6,1.3,1.3v3.9C314.5,379.9,313.9,380.5,313.2,380.5z M313.2,371.4
	c-0.7,0-1.3-0.6-1.3-1.3v-3.9c0-0.7,0.6-1.3,1.3-1.3s1.3,0.6,1.3,1.3v3.9C314.5,370.9,313.9,371.4,313.2,371.4z M313.2,362.4
	c-0.7,0-1.3-0.6-1.3-1.3v-3.9c0-0.7,0.6-1.3,1.3-1.3s1.3,0.6,1.3,1.3v3.9C314.5,361.8,313.9,362.4,313.2,362.4z M313.2,353.3
	c-0.7,0-1.3-0.6-1.3-1.3v-3.9c0-0.7,0.6-1.3,1.3-1.3s1.3,0.6,1.3,1.3v3.9C314.5,352.7,313.9,353.3,313.2,353.3z M313.2,344.3
	c-0.7,0-1.3-0.6-1.3-1.3v-3.9c0-0.7,0.6-1.3,1.3-1.3s1.3,0.6,1.3,1.3v3.9C314.5,343.7,313.9,344.3,313.2,344.3z M313.2,335.2
	c-0.7,0-1.3-0.6-1.3-1.3V330c0-0.7,0.6-1.3,1.3-1.3s1.3,0.6,1.3,1.3v3.9C314.5,334.6,313.9,335.2,313.2,335.2z M313.2,326.2
	c-0.7,0-1.3-0.6-1.3-1.3V321c0-0.7,0.6-1.3,1.3-1.3s1.3,0.6,1.3,1.3v3.9C314.5,325.6,313.9,326.2,313.2,326.2z M313.2,317.1
	c-0.7,0-1.3-0.6-1.3-1.3v-3.9c0-0.7,0.6-1.3,1.3-1.3s1.3,0.6,1.3,1.3v3.9C314.5,316.5,313.9,317.1,313.2,317.1z M313.2,308
	c-0.7,0-1.3-0.6-1.3-1.3v-3.9c0-0.7,0.6-1.3,1.3-1.3s1.3,0.6,1.3,1.3v3.9C314.5,307.5,313.9,308,313.2,308z M313.2,299
	c-0.7,0-1.3-0.6-1.3-1.3v-3.9c0-0.7,0.6-1.3,1.3-1.3s1.3,0.6,1.3,1.3v3.9C314.5,298.4,313.9,299,313.2,299z M313.2,289.9
	c-0.7,0-1.3-0.6-1.3-1.3v-3.9c0-0.7,0.6-1.3,1.3-1.3s1.3,0.6,1.3,1.3v3.9C314.5,289.3,313.9,289.9,313.2,289.9z M313.2,280.9
	c-0.7,0-1.3-0.6-1.3-1.3v-3.9c0-0.7,0.6-1.3,1.3-1.3s1.3,0.6,1.3,1.3v3.9C314.5,280.3,313.9,280.9,313.2,280.9z M313.2,271.8
	c-0.7,0-1.3-0.6-1.3-1.3v-3.9c0-0.7,0.6-1.3,1.3-1.3s1.3,0.6,1.3,1.3v3.9C314.5,271.2,313.9,271.8,313.2,271.8z M313.2,262.7
	c-0.7,0-1.3-0.6-1.3-1.3v-3.9c0-0.7,0.6-1.3,1.3-1.3s1.3,0.6,1.3,1.3v3.9C314.5,262.2,313.9,262.7,313.2,262.7z M313.2,253.7
	c-0.7,0-1.3-0.6-1.3-1.3v-3.9c0-0.7,0.6-1.3,1.3-1.3s1.3,0.6,1.3,1.3v3.9C314.5,253.1,313.9,253.7,313.2,253.7z M313.2,244.6
	c-0.7,0-1.3-0.6-1.3-1.3v-3.9c0-0.7,0.6-1.3,1.3-1.3s1.3,0.6,1.3,1.3v3.9C314.5,244,313.9,244.6,313.2,244.6z M313.2,235.6
	c-0.7,0-1.3-0.6-1.3-1.3v-3.9c0-0.7,0.6-1.3,1.3-1.3s1.3,0.6,1.3,1.3v3.9C314.5,235,313.9,235.6,313.2,235.6z M313.2,226.5
	c-0.7,0-1.3-0.6-1.3-1.3v-3.9c0-0.7,0.6-1.3,1.3-1.3s1.3,0.6,1.3,1.3v3.9C314.5,225.9,313.9,226.5,313.2,226.5z M313.2,217.5
	c-0.7,0-1.3-0.6-1.3-1.3v-3.9c0-0.7,0.6-1.3,1.3-1.3s1.3,0.6,1.3,1.3v3.9C314.5,216.9,313.9,217.5,313.2,217.5z M313.2,208.4
	c-0.7,0-1.3-0.6-1.3-1.3v-3.9c0-0.7,0.6-1.3,1.3-1.3s1.3,0.6,1.3,1.3v3.9C314.5,207.8,313.9,208.4,313.2,208.4z M313.2,199.3
	c-0.7,0-1.3-0.6-1.3-1.3v-3.9c0-0.7,0.6-1.3,1.3-1.3s1.3,0.6,1.3,1.3v3.9C314.5,198.8,313.9,199.3,313.2,199.3z M313.2,190.3
	c-0.7,0-1.3-0.6-1.3-1.3v-3.9c0-0.7,0.6-1.3,1.3-1.3s1.3,0.6,1.3,1.3v3.9C314.5,189.7,313.9,190.3,313.2,190.3z M313.2,181.2
	c-0.7,0-1.3-0.6-1.3-1.3V176c0-0.7,0.6-1.3,1.3-1.3s1.3,0.6,1.3,1.3v3.9C314.5,180.6,313.9,181.2,313.2,181.2z M313.2,172.2
	c-0.7,0-1.3-0.6-1.3-1.3V167c0-0.7,0.6-1.3,1.3-1.3s1.3,0.6,1.3,1.3v3.9C314.5,171.6,313.9,172.2,313.2,172.2z M313.2,163.1
	c-0.7,0-1.3-0.6-1.3-1.3v-3.9c0-0.7,0.6-1.3,1.3-1.3s1.3,0.6,1.3,1.3v3.9C314.5,162.5,313.9,163.1,313.2,163.1z M313.2,154
	c-0.7,0-1.3-0.6-1.3-1.3v-3.9c0-0.7,0.6-1.3,1.3-1.3s1.3,0.6,1.3,1.3v3.9C314.5,153.5,313.9,154,313.2,154z M313.2,145
	c-0.7,0-1.3-0.6-1.3-1.3v-3.9c0-0.7,0.6-1.3,1.3-1.3s1.3,0.6,1.3,1.3v3.9C314.5,144.4,313.9,145,313.2,145z M313.2,135.9
	c-0.7,0-1.3-0.6-1.3-1.3v-3.9c0-0.7,0.6-1.3,1.3-1.3s1.3,0.6,1.3,1.3v3.9C314.5,135.3,313.9,135.9,313.2,135.9z M313.2,126.9
	c-0.7,0-1.3-0.6-1.3-1.3v-3.9c0-0.7,0.6-1.3,1.3-1.3s1.3,0.6,1.3,1.3v3.9C314.5,126.3,313.9,126.9,313.2,126.9z M313.2,117.8
	c-0.7,0-1.3-0.6-1.3-1.3v-3.9c0-0.7,0.6-1.3,1.3-1.3s1.3,0.6,1.3,1.3v3.9C314.5,117.2,313.9,117.8,313.2,117.8z M313.2,108.8
	c-0.7,0-1.3-0.6-1.3-1.3v-3.9c0-0.7,0.6-1.3,1.3-1.3s1.3,0.6,1.3,1.3v3.9C314.5,108.2,313.9,108.8,313.2,108.8z M313.2,99.7
	c-0.7,0-1.3-0.6-1.3-1.3v-3.9c0-0.7,0.6-1.3,1.3-1.3s1.3,0.6,1.3,1.3v3.9C314.5,99.1,313.9,99.7,313.2,99.7z M313.2,90.6
	c-0.7,0-1.3-0.6-1.3-1.3v-3.9c0-0.7,0.6-1.3,1.3-1.3s1.3,0.6,1.3,1.3v3.9C314.5,90.1,313.9,90.6,313.2,90.6z M313.2,81.6
	c-0.7,0-1.3-0.6-1.3-1.3v-3.9c0-0.7,0.6-1.3,1.3-1.3s1.3,0.6,1.3,1.3v3.9C314.5,81,313.9,81.6,313.2,81.6z"/>
<path id="la_x7C_Body_Color" fill="#8b795e" stroke="#000000" stroke-width="3.8821" stroke-linecap="round" stroke-linejoin="round" stroke-miterlimit="10" d="
	M589.8,67.3c-3.1-10.6-11.7-19.4-21.8-19.9c-3.8-0.2-7.7,0.8-11.7,3.3c-6.2,3.9-10.6,10.1-14.6,16.2c-12.2,18.6-28.3,31-50.2,36.7
	c-27.3,7.1-56.4,2.1-82.7-6.9c-69.9-23.9-100.3-20.3-100.3-20.3s-30.4-3.6-100.3,20.4c-25.1,8.6-52.6,13.6-78.9,7.8
	c-18.2-4-36.4-14.2-47.7-29.2c-4.8-6.3-8.9-13.1-14.3-18.7c-9.7-10-22.8-13.6-33.1-2.4c-9,9.5-9.7,24.3-8.8,36.5
	c3.7,51,33,101.5,57.7,144.8c0,0,0.7,10.9,4.4,21.1c3.6,10.2,105.4,205,221,205s217.4-194.8,221-205c3.6-10.2,4.4-21.1,4.4-21.1
	c20.2-35.3,39.8-72.3,51.2-111.5C590.2,106.4,595.1,85.5,589.8,67.3z M88.4,219.6C53.6,179.5,32.9,94.1,34.5,71
	c0.8-11.5,6.8-16,14.7-9.2c1,0.8,2,1.8,3,3c10.3,12,14.1,27,22.6,39.9c6.6,10.1,13.4,18.2,14.8,30.7
	C97.6,202.8,94.8,227.8,88.4,219.6z M528.6,219.6c-6.4,8.3-9.2-12.8-1.2-80.2c1.5-12.5,8.3-20.6,14.8-30.7
	c8.4-12.9,12.2-27.9,22.6-39.9c1-1.2,2-2.2,3-3c7.9-6.8,13.9-2.3,14.7,9.2C584.1,98,563.3,179.5,528.6,219.6z"/>
<path d="M308.5,463.5c-1.1,0-1.9-0.9-1.9-1.9V76.4c0-1.1,0.9-1.9,1.9-1.9s1.9,0.9,1.9,1.9v385.2
	C310.4,462.7,309.6,463.5,308.5,463.5z"/>
<path d="M303.7,462c-0.7,0-1.3-0.6-1.3-1.3v-3.9c0-0.7,0.6-1.3,1.3-1.3s1.3,0.6,1.3,1.3v3.9C305,461.4,304.4,462,303.7,462z
	 M303.7,453c-0.7,0-1.3-0.6-1.3-1.3v-3.9c0-0.7,0.6-1.3,1.3-1.3s1.3,0.6,1.3,1.3v3.9C305,452.4,304.4,453,303.7,453z M303.7,443.9
	c-0.7,0-1.3-0.6-1.3-1.3v-3.9c0-0.7,0.6-1.3,1.3-1.3s1.3,0.6,1.3,1.3v3.9C305,443.3,304.4,443.9,303.7,443.9z M303.7,434.8
	c-0.7,0-1.3-0.6-1.3-1.3v-3.9c0-0.7,0.6-1.3,1.3-1.3s1.3,0.6,1.3,1.3v3.9C305,434.3,304.4,434.8,303.7,434.8z M303.7,425.8
	c-0.7,0-1.3-0.6-1.3-1.3v-3.9c0-0.7,0.6-1.3,1.3-1.3s1.3,0.6,1.3,1.3v3.9C305,425.2,304.4,425.8,303.7,425.8z M303.7,416.7
	c-0.7,0-1.3-0.6-1.3-1.3v-3.9c0-0.7,0.6-1.3,1.3-1.3s1.3,0.6,1.3,1.3v3.9C305,416.2,304.4,416.7,303.7,416.7z M303.7,407.7
	c-0.7,0-1.3-0.6-1.3-1.3v-3.9c0-0.7,0.6-1.3,1.3-1.3s1.3,0.6,1.3,1.3v3.9C305,407.1,304.4,407.7,303.7,407.7z M303.7,398.6
	c-0.7,0-1.3-0.6-1.3-1.3v-3.9c0-0.7,0.6-1.3,1.3-1.3s1.3,0.6,1.3,1.3v3.9C305,398,304.4,398.6,303.7,398.6z M303.7,389.6
	c-0.7,0-1.3-0.6-1.3-1.3v-3.9c0-0.7,0.6-1.3,1.3-1.3s1.3,0.6,1.3,1.3v3.9C305,389,304.4,389.6,303.7,389.6z M303.7,380.5
	c-0.7,0-1.3-0.6-1.3-1.3v-3.9c0-0.7,0.6-1.3,1.3-1.3s1.3,0.6,1.3,1.3v3.9C305,379.9,304.4,380.5,303.7,380.5z M303.7,371.4
	c-0.7,0-1.3-0.6-1.3-1.3v-3.9c0-0.7,0.6-1.3,1.3-1.3s1.3,0.6,1.3,1.3v3.9C305,370.9,304.4,371.4,303.7,371.4z M303.7,362.4
	c-0.7,0-1.3-0.6-1.3-1.3v-3.9c0-0.7,0.6-1.3,1.3-1.3s1.3,0.6,1.3,1.3v3.9C305,361.8,304.4,362.4,303.7,362.4z M303.7,353.3
	c-0.7,0-1.3-0.6-1.3-1.3v-3.9c0-0.7,0.6-1.3,1.3-1.3s1.3,0.6,1.3,1.3v3.9C305,352.7,304.4,353.3,303.7,353.3z M303.7,344.3
	c-0.7,0-1.3-0.6-1.3-1.3v-3.9c0-0.7,0.6-1.3,1.3-1.3s1.3,0.6,1.3,1.3v3.9C305,343.7,304.4,344.3,303.7,344.3z M303.7,335.2
	c-0.7,0-1.3-0.6-1.3-1.3V330c0-0.7,0.6-1.3,1.3-1.3s1.3,0.6,1.3,1.3v3.9C305,334.6,304.4,335.2,303.7,335.2z M303.7,326.2
	c-0.7,0-1.3-0.6-1.3-1.3V321c0-0.7,0.6-1.3,1.3-1.3s1.3,0.6,1.3,1.3v3.9C305,325.6,304.4,326.2,303.7,326.2z M303.7,317.1
	c-0.7,0-1.3-0.6-1.3-1.3v-3.9c0-0.7,0.6-1.3,1.3-1.3s1.3,0.6,1.3,1.3v3.9C305,316.5,304.4,317.1,303.7,317.1z M303.7,308
	c-0.7,0-1.3-0.6-1.3-1.3v-3.9c0-0.7,0.6-1.3,1.3-1.3s1.3,0.6,1.3,1.3v3.9C305,307.5,304.4,308,303.7,308z M303.7,299
	c-0.7,0-1.3-0.6-1.3-1.3v-3.9c0-0.7,0.6-1.3,1.3-1.3s1.3,0.6,1.3,1.3v3.9C305,298.4,304.4,299,303.7,299z M303.7,289.9
	c-0.7,0-1.3-0.6-1.3-1.3v-3.9c0-0.7,0.6-1.3,1.3-1.3s1.3,0.6,1.3,1.3v3.9C305,289.3,304.4,289.9,303.7,289.9z M303.7,280.9
	c-0.7,0-1.3-0.6-1.3-1.3v-3.9c0-0.7,0.6-1.3,1.3-1.3s1.3,0.6,1.3,1.3v3.9C305,280.3,304.4,280.9,303.7,280.9z M303.7,271.8
	c-0.7,0-1.3-0.6-1.3-1.3v-3.9c0-0.7,0.6-1.3,1.3-1.3s1.3,0.6,1.3,1.3v3.9C305,271.2,304.4,271.8,303.7,271.8z M303.7,262.7
	c-0.7,0-1.3-0.6-1.3-1.3v-3.9c0-0.7,0.6-1.3,1.3-1.3s1.3,0.6,1.3,1.3v3.9C305,262.2,304.4,262.7,303.7,262.7z M303.7,253.7
	c-0.7,0-1.3-0.6-1.3-1.3v-3.9c0-0.7,0.6-1.3,1.3-1.3s1.3,0.6,1.3,1.3v3.9C305,253.1,304.4,253.7,303.7,253.7z M303.7,244.6
	c-0.7,0-1.3-0.6-1.3-1.3v-3.9c0-0.7,0.6-1.3,1.3-1.3s1.3,0.6,1.3,1.3v3.9C305,244,304.4,244.6,303.7,244.6z M303.7,235.6
	c-0.7,0-1.3-0.6-1.3-1.3v-3.9c0-0.7,0.6-1.3,1.3-1.3s1.3,0.6,1.3,1.3v3.9C305,235,304.4,235.6,303.7,235.6z M303.7,226.5
	c-0.7,0-1.3-0.6-1.3-1.3v-3.9c0-0.7,0.6-1.3,1.3-1.3s1.3,0.6,1.3,1.3v3.9C305,225.9,304.4,226.5,303.7,226.5z M303.7,217.5
	c-0.7,0-1.3-0.6-1.3-1.3v-3.9c0-0.7,0.6-1.3,1.3-1.3s1.3,0.6,1.3,1.3v3.9C305,216.9,304.4,217.5,303.7,217.5z M303.7,208.4
	c-0.7,0-1.3-0.6-1.3-1.3v-3.9c0-0.7,0.6-1.3,1.3-1.3s1.3,0.6,1.3,1.3v3.9C305,207.8,304.4,208.4,303.7,208.4z M303.7,199.3
	c-0.7,0-1.3-0.6-1.3-1.3v-3.9c0-0.7,0.6-1.3,1.3-1.3s1.3,0.6,1.3,1.3v3.9C305,198.8,304.4,199.3,303.7,199.3z M303.7,190.3
	c-0.7,0-1.3-0.6-1.3-1.3v-3.9c0-0.7,0.6-1.3,1.3-1.3s1.3,0.6,1.3,1.3v3.9C305,189.7,304.4,190.3,303.7,190.3z M303.7,181.2
	c-0.7,0-1.3-0.6-1.3-1.3V176c0-0.7,0.6-1.3,1.3-1.3s1.3,0.6,1.3,1.3v3.9C305,180.6,304.4,181.2,303.7,181.2z M303.7,172.2
	c-0.7,0-1.3-0.6-1.3-1.3V167c0-0.7,0.6-1.3,1.3-1.3s1.3,0.6,1.3,1.3v3.9C305,171.6,304.4,172.2,303.7,172.2z M303.7,163.1
	c-0.7,0-1.3-0.6-1.3-1.3v-3.9c0-0.7,0.6-1.3,1.3-1.3s1.3,0.6,1.3,1.3v3.9C305,162.5,304.4,163.1,303.7,163.1z M303.7,154
	c-0.7,0-1.3-0.6-1.3-1.3v-3.9c0-0.7,0.6-1.3,1.3-1.3s1.3,0.6,1.3,1.3v3.9C305,153.5,304.4,154,303.7,154z M303.7,145
	c-0.7,0-1.3-0.6-1.3-1.3v-3.9c0-0.7,0.6-1.3,1.3-1.3s1.3,0.6,1.3,1.3v3.9C305,144.4,304.4,145,303.7,145z M303.7,135.9
	c-0.7,0-1.3-0.6-1.3-1.3v-3.9c0-0.7,0.6-1.3,1.3-1.3s1.3,0.6,1.3,1.3v3.9C305,135.3,304.4,135.9,303.7,135.9z M303.7,126.9
	c-0.7,0-1.3-0.6-1.3-1.3v-3.9c0-0.7,0.6-1.3,1.3-1.3s1.3,0.6,1.3,1.3v3.9C305,126.3,304.4,126.9,303.7,126.9z M303.7,117.8
	c-0.7,0-1.3-0.6-1.3-1.3v-3.9c0-0.7,0.6-1.3,1.3-1.3s1.3,0.6,1.3,1.3v3.9C305,117.2,304.4,117.8,303.7,117.8z M303.7,108.8
	c-0.7,0-1.3-0.6-1.3-1.3v-3.9c0-0.7,0.6-1.3,1.3-1.3s1.3,0.6,1.3,1.3v3.9C305,108.2,304.4,108.8,303.7,108.8z M303.7,99.7
	c-0.7,0-1.3-0.6-1.3-1.3v-3.9c0-0.7,0.6-1.3,1.3-1.3s1.3,0.6,1.3,1.3v3.9C305,99.1,304.4,99.7,303.7,99.7z M303.7,90.6
	c-0.7,0-1.3-0.6-1.3-1.3v-3.9c0-0.7,0.6-1.3,1.3-1.3s1.3,0.6,1.3,1.3v3.9C305,90.1,304.4,90.6,303.7,90.6z M303.7,81.6
	c-0.7,0-1.3-0.6-1.3-1.3v-3.9c0-0.7,0.6-1.3,1.3-1.3s1.3,0.6,1.3,1.3v3.9C305,81,304.4,81.6,303.7,81.6z"/>
<path d="M313.2,462c-0.7,0-1.3-0.6-1.3-1.3v-3.9c0-0.7,0.6-1.3,1.3-1.3s1.3,0.6,1.3,1.3v3.9C314.5,461.4,313.9,462,313.2,462z
	 M313.2,453c-0.7,0-1.3-0.6-1.3-1.3v-3.9c0-0.7,0.6-1.3,1.3-1.3s1.3,0.6,1.3,1.3v3.9C314.5,452.4,313.9,453,313.2,453z M313.2,443.9
	c-0.7,0-1.3-0.6-1.3-1.3v-3.9c0-0.7,0.6-1.3,1.3-1.3s1.3,0.6,1.3,1.3v3.9C314.5,443.3,313.9,443.9,313.2,443.9z M313.2,434.8
	c-0.7,0-1.3-0.6-1.3-1.3v-3.9c0-0.7,0.6-1.3,1.3-1.3s1.3,0.6,1.3,1.3v3.9C314.5,434.3,313.9,434.8,313.2,434.8z M313.2,425.8
	c-0.7,0-1.3-0.6-1.3-1.3v-3.9c0-0.7,0.6-1.3,1.3-1.3s1.3,0.6,1.3,1.3v3.9C314.5,425.2,313.9,425.8,313.2,425.8z M313.2,416.7
	c-0.7,0-1.3-0.6-1.3-1.3v-3.9c0-0.7,0.6-1.3,1.3-1.3s1.3,0.6,1.3,1.3v3.9C314.5,416.2,313.9,416.7,313.2,416.7z M313.2,407.7
	c-0.7,0-1.3-0.6-1.3-1.3v-3.9c0-0.7,0.6-1.3,1.3-1.3s1.3,0.6,1.3,1.3v3.9C314.5,407.1,313.9,407.7,313.2,407.7z M313.2,398.6
	c-0.7,0-1.3-0.6-1.3-1.3v-3.9c0-0.7,0.6-1.3,1.3-1.3s1.3,0.6,1.3,1.3v3.9C314.5,398,313.9,398.6,313.2,398.6z M313.2,389.6
	c-0.7,0-1.3-0.6-1.3-1.3v-3.9c0-0.7,0.6-1.3,1.3-1.3s1.3,0.6,1.3,1.3v3.9C314.5,389,313.9,389.6,313.2,389.6z M313.2,380.5
	c-0.7,0-1.3-0.6-1.3-1.3v-3.9c0-0.7,0.6-1.3,1.3-1.3s1.3,0.6,1.3,1.3v3.9C314.5,379.9,313.9,380.5,313.2,380.5z M313.2,371.4
	c-0.7,0-1.3-0.6-1.3-1.3v-3.9c0-0.7,0.6-1.3,1.3-1.3s1.3,0.6,1.3,1.3v3.9C314.5,370.9,313.9,371.4,313.2,371.4z M313.2,362.4
	c-0.7,0-1.3-0.6-1.3-1.3v-3.9c0-0.7,0.6-1.3,1.3-1.3s1.3,0.6,1.3,1.3v3.9C314.5,361.8,313.9,362.4,313.2,362.4z M313.2,353.3
	c-0.7,0-1.3-0.6-1.3-1.3v-3.9c0-0.7,0.6-1.3,1.3-1.3s1.3,0.6,1.3,1.3v3.9C314.5,352.7,313.9,353.3,313.2,353.3z M313.2,344.3
	c-0.7,0-1.3-0.6-1.3-1.3v-3.9c0-0.7,0.6-1.3,1.3-1.3s1.3,0.6,1.3,1.3v3.9C314.5,343.7,313.9,344.3,313.2,344.3z M313.2,335.2
	c-0.7,0-1.3-0.6-1.3-1.3V330c0-0.7,0.6-1.3,1.3-1.3s1.3,0.6,1.3,1.3v3.9C314.5,334.6,313.9,335.2,313.2,335.2z M313.2,326.2
	c-0.7,0-1.3-0.6-1.3-1.3V321c0-0.7,0.6-1.3,1.3-1.3s1.3,0.6,1.3,1.3v3.9C314.5,325.6,313.9,326.2,313.2,326.2z M313.2,317.1
	c-0.7,0-1.3-0.6-1.3-1.3v-3.9c0-0.7,0.6-1.3,1.3-1.3s1.3,0.6,1.3,1.3v3.9C314.5,316.5,313.9,317.1,313.2,317.1z M313.2,308
	c-0.7,0-1.3-0.6-1.3-1.3v-3.9c0-0.7,0.6-1.3,1.3-1.3s1.3,0.6,1.3,1.3v3.9C314.5,307.5,313.9,308,313.2,308z M313.2,299
	c-0.7,0-1.3-0.6-1.3-1.3v-3.9c0-0.7,0.6-1.3,1.3-1.3s1.3,0.6,1.3,1.3v3.9C314.5,298.4,313.9,299,313.2,299z M313.2,289.9
	c-0.7,0-1.3-0.6-1.3-1.3v-3.9c0-0.7,0.6-1.3,1.3-1.3s1.3,0.6,1.3,1.3v3.9C314.5,289.3,313.9,289.9,313.2,289.9z M313.2,280.9
	c-0.7,0-1.3-0.6-1.3-1.3v-3.9c0-0.7,0.6-1.3,1.3-1.3s1.3,0.6,1.3,1.3v3.9C314.5,280.3,313.9,280.9,313.2,280.9z M313.2,271.8
	c-0.7,0-1.3-0.6-1.3-1.3v-3.9c0-0.7,0.6-1.3,1.3-1.3s1.3,0.6,1.3,1.3v3.9C314.5,271.2,313.9,271.8,313.2,271.8z M313.2,262.7
	c-0.7,0-1.3-0.6-1.3-1.3v-3.9c0-0.7,0.6-1.3,1.3-1.3s1.3,0.6,1.3,1.3v3.9C314.5,262.2,313.9,262.7,313.2,262.7z M313.2,253.7
	c-0.7,0-1.3-0.6-1.3-1.3v-3.9c0-0.7,0.6-1.3,1.3-1.3s1.3,0.6,1.3,1.3v3.9C314.5,253.1,313.9,253.7,313.2,253.7z M313.2,244.6
	c-0.7,0-1.3-0.6-1.3-1.3v-3.9c0-0.7,0.6-1.3,1.3-1.3s1.3,0.6,1.3,1.3v3.9C314.5,244,313.9,244.6,313.2,244.6z M313.2,235.6
	c-0.7,0-1.3-0.6-1.3-1.3v-3.9c0-0.7,0.6-1.3,1.3-1.3s1.3,0.6,1.3,1.3v3.9C314.5,235,313.9,235.6,313.2,235.6z M313.2,226.5
	c-0.7,0-1.3-0.6-1.3-1.3v-3.9c0-0.7,0.6-1.3,1.3-1.3s1.3,0.6,1.3,1.3v3.9C314.5,225.9,313.9,226.5,313.2,226.5z M313.2,217.5
	c-0.7,0-1.3-0.6-1.3-1.3v-3.9c0-0.7,0.6-1.3,1.3-1.3s1.3,0.6,1.3,1.3v3.9C314.5,216.9,313.9,217.5,313.2,217.5z M313.2,208.4
	c-0.7,0-1.3-0.6-1.3-1.3v-3.9c0-0.7,0.6-1.3,1.3-1.3s1.3,0.6,1.3,1.3v3.9C314.5,207.8,313.9,208.4,313.2,208.4z M313.2,199.3
	c-0.7,0-1.3-0.6-1.3-1.3v-3.9c0-0.7,0.6-1.3,1.3-1.3s1.3,0.6,1.3,1.3v3.9C314.5,198.8,313.9,199.3,313.2,199.3z M313.2,190.3
	c-0.7,0-1.3-0.6-1.3-1.3v-3.9c0-0.7,0.6-1.3,1.3-1.3s1.3,0.6,1.3,1.3v3.9C314.5,189.7,313.9,190.3,313.2,190.3z M313.2,181.2
	c-0.7,0-1.3-0.6-1.3-1.3V176c0-0.7,0.6-1.3,1.3-1.3s1.3,0.6,1.3,1.3v3.9C314.5,180.6,313.9,181.2,313.2,181.2z M313.2,172.2
	c-0.7,0-1.3-0.6-1.3-1.3V167c0-0.7,0.6-1.3,1.3-1.3s1.3,0.6,1.3,1.3v3.9C314.5,171.6,313.9,172.2,313.2,172.2z M313.2,163.1
	c-0.7,0-1.3-0.6-1.3-1.3v-3.9c0-0.7,0.6-1.3,1.3-1.3s1.3,0.6,1.3,1.3v3.9C314.5,162.5,313.9,163.1,313.2,163.1z M313.2,154
	c-0.7,0-1.3-0.6-1.3-1.3v-3.9c0-0.7,0.6-1.3,1.3-1.3s1.3,0.6,1.3,1.3v3.9C314.5,153.5,313.9,154,313.2,154z M313.2,145
	c-0.7,0-1.3-0.6-1.3-1.3v-3.9c0-0.7,0.6-1.3,1.3-1.3s1.3,0.6,1.3,1.3v3.9C314.5,144.4,313.9,145,313.2,145z M313.2,135.9
	c-0.7,0-1.3-0.6-1.3-1.3v-3.9c0-0.7,0.6-1.3,1.3-1.3s1.3,0.6,1.3,1.3v3.9C314.5,135.3,313.9,135.9,313.2,135.9z M313.2,126.9
	c-0.7,0-1.3-0.6-1.3-1.3v-3.9c0-0.7,0.6-1.3,1.3-1.3s1.3,0.6,1.3,1.3v3.9C314.5,126.3,313.9,126.9,313.2,126.9z M313.2,117.8
	c-0.7,0-1.3-0.6-1.3-1.3v-3.9c0-0.7,0.6-1.3,1.3-1.3s1.3,0.6,1.3,1.3v3.9C314.5,117.2,313.9,117.8,313.2,117.8z M313.2,108.8
	c-0.7,0-1.3-0.6-1.3-1.3v-3.9c0-0.7,0.6-1.3,1.3-1.3s1.3,0.6,1.3,1.3v3.9C314.5,108.2,313.9,108.8,313.2,108.8z M313.2,99.7
	c-0.7,0-1.3-0.6-1.3-1.3v-3.9c0-0.7,0.6-1.3,1.3-1.3s1.3,0.6,1.3,1.3v3.9C314.5,99.1,313.9,99.7,313.2,99.7z M313.2,90.6
	c-0.7,0-1.3-0.6-1.3-1.3v-3.9c0-0.7,0.6-1.3,1.3-1.3s1.3,0.6,1.3,1.3v3.9C314.5,90.1,313.9,90.6,313.2,90.6z M313.2,81.6
	c-0.7,0-1.3-0.6-1.3-1.3v-3.9c0-0.7,0.6-1.3,1.3-1.3s1.3,0.6,1.3,1.3v3.9C314.5,81,313.9,81.6,313.2,81.6z"/>
</svg>
