<?xml version="1.0" encoding="utf-8"?>
<!-- Generator: Adobe Illustrator 19.2.1, SVG Export Plug-In . SVG Version: 6.00 Build 0)  -->
<svg version="1.1" id="Layer_1" xmlns="http://www.w3.org/2000/svg" xmlns:xlink="http://www.w3.org/1999/xlink" x="0px" y="0px"
	 viewBox="0 0 620 480" enable-background="new 0 0 620 480" xml:space="preserve">
	 <!-- hack to set margins -->
<rect fill="none" stroke="none" width="620" height="480" style="opacity:0;fill-opacity:0;"/>
	 <!--set cutmask -->
<path id="la-product-cutmask" fill="#FFFFFF" d="M589.1,55.8c-3.1-10.6-11.7-19.4-21.8-19.9c-3.8-0.2-7.7,0.8-11.7,3.3
	c-6.2,3.9-10.6,10.1-14.6,16.2c-12.2,18.6-28.3,31-50.2,36.7c-27.3,7.1-56.4,2.1-82.7-6.9c-69.9-24-100.3-20.4-100.3-20.4
	s-30.4-3.6-100.3,20.4c-25.1,8.6-52.6,13.6-78.9,7.8c-18.2-4-36.4-14.2-47.7-29.2c-4.8-6.3-8.9-13.1-14.3-18.7
	c-9.7-10-22.8-13.6-33.1-2.4c-8.8,9.6-9.6,24.3-8.7,36.6c3.7,51,33,101.5,57.7,144.8c0,0,0.7,10.9,4.4,21.1
	c3.6,10.2,105.4,205,221,205s217.4-194.8,221-205c3.6-10.2,4.4-21.1,4.4-21.1c20.2-35.3,39.8-72.3,51.2-111.5
	C589.5,94.9,594.5,74,589.1,55.8z M87.7,208.1C52.9,168,32.2,82.6,33.8,59.5c0.8-11.5,6.8-16,14.7-9.2c1,0.8,2,1.8,3,3
	c10.3,12,14.1,27,22.6,39.9c6.6,10.1,13.4,18.2,14.8,30.7C96.9,191.3,94.1,216.3,87.7,208.1z M527.9,208.1
	c-6.4,8.3-9.2-12.8-1.2-80.2c1.5-12.5,8.3-20.6,14.8-30.7c8.4-12.9,12.2-27.9,22.6-39.9c1-1.2,2-2.2,3-3c7.9-6.8,13.9-2.3,14.7,9.2
	C583.4,86.5,562.7,168,527.9,208.1z M470,274.8c-4.4,32.8-30.2,57.9-57.7,56s-46.3-30-41.9-62.9c4.4-32.8,30.2-57.9,57.7-56
	C455.6,213.8,474.3,242,470,274.8z"/>
<path id="la_x7C_Body_Color" fill="#333333" stroke="#000000" stroke-width="3.882" stroke-linecap="round" stroke-linejoin="round" stroke-miterlimit="10" d="
	M589.1,55.8c-3.1-10.6-11.7-19.4-21.8-19.9c-3.8-0.2-7.7,0.8-11.7,3.3c-6.2,3.9-10.6,10.1-14.6,16.2c-12.2,18.6-28.3,31-50.2,36.7
	c-27.3,7.1-56.4,2.1-82.7-6.9c-69.9-24-100.3-20.4-100.3-20.4s-30.4-3.6-100.3,20.4c-25.1,8.6-52.6,13.6-78.9,7.8
	c-18.2-4-36.4-14.2-47.7-29.2c-4.8-6.3-8.9-13.1-14.3-18.7c-9.7-10-22.8-13.6-33.1-2.4c-8.8,9.6-9.6,24.3-8.7,36.6
	c3.7,51,33,101.5,57.7,144.8c0,0,0.7,10.9,4.4,21.1c3.6,10.2,105.4,205,221,205s217.4-194.8,221-205c3.6-10.2,4.4-21.1,4.4-21.1
	c20.2-35.3,39.8-72.3,51.2-111.5C589.5,94.9,594.5,74,589.1,55.8z M87.7,208.1C52.9,168,32.2,82.6,33.8,59.5
	c0.8-11.5,6.8-16,14.7-9.2c1,0.8,2,1.8,3,3c10.3,12,14.1,27,22.6,39.9c6.6,10.1,13.4,18.2,14.8,30.7
	C96.9,191.3,94.1,216.3,87.7,208.1z M527.9,208.1c-6.4,8.3-9.2-12.8-1.2-80.2c1.5-12.5,8.3-20.6,14.8-30.7
	c8.4-12.9,12.2-27.9,22.6-39.9c1-1.2,2-2.2,3-3c7.9-6.8,13.9-2.3,14.7,9.2C583.4,86.5,562.7,168,527.9,208.1z"/>
<line fill="none" stroke="#000000" stroke-width="3.8821" stroke-linecap="round" stroke-linejoin="round" stroke-miterlimit="10" x1="307.8" y1="64.9" x2="307.8" y2="450.1"/>
<line fill="none" stroke="#000000" stroke-width="2.5881" stroke-linecap="round" stroke-linejoin="round" stroke-miterlimit="10" stroke-dasharray="3.8821,5.1762" x1="303" y1="64.9" x2="303" y2="450.1"/>
<line fill="none" stroke="#000000" stroke-width="2.5881" stroke-linecap="round" stroke-linejoin="round" stroke-miterlimit="10" stroke-dasharray="3.8821,5.1762" x1="312.6" y1="64.9" x2="312.6" y2="450.1"/>
<g>
	
		<path fill="#272624" stroke="#000000" stroke-width="2.836" stroke-linecap="round" stroke-linejoin="round" stroke-miterlimit="10" d="
		M470,274.8c-4.4,32.8-30.2,57.9-57.7,56s-46.3-30-41.9-62.9c4.4-32.8,30.2-57.9,57.7-56C455.6,213.8,474.3,242,470,274.8z"/>
	
		<path fill="#272624" stroke="#000000" stroke-width="2.836" stroke-linecap="round" stroke-linejoin="round" stroke-miterlimit="10" d="
		M466.6,275.6c-3.7,28-25.7,49.3-49.1,47.7c-23.4-1.6-39.4-25.6-35.7-53.5c3.7-28,25.7-49.3,49.1-47.7
		C454.3,223.7,470.3,247.7,466.6,275.6z"/>
	
		<path fill="#FFFFFF" stroke="#000000" stroke-width="2.836" stroke-linecap="round" stroke-linejoin="round" stroke-miterlimit="10" d="
		M466.6,275.6c-3.5,26.3-24.2,46.3-46.2,44.8s-37-24-33.5-50.3s24.2-46.3,46.2-44.8C455,226.8,470,249.3,466.6,275.6z"/>
	
		<path fill="#272624" stroke="#000000" stroke-width="2.836" stroke-linecap="round" stroke-linejoin="round" stroke-miterlimit="10" d="
		M463.3,276.5c-3,22.6-20.7,39.8-39.6,38.5s-31.8-20.6-28.8-43.2s20.7-39.8,39.6-38.5C453.4,234.6,466.3,253.9,463.3,276.5z"/>
</g>
</svg>
