<?xml version="1.0" encoding="utf-8"?>
<!-- Generator: Adobe Illustrator 19.2.1, SVG Export Plug-In . SVG Version: 6.00 Build 0)  -->
<svg version="1.1" id="Layer_1" xmlns="http://www.w3.org/2000/svg" xmlns:xlink="http://www.w3.org/1999/xlink" x="0px" y="0px"
	 viewBox="0 0 587 450" enable-background="new 0 0 587 450" xml:space="preserve">
	 <!-- hack to set margins -->
<rect fill="none" width="587" height="450" stroke="none" style="opacity:0;fill-opacity:0;"/>
	 <!--set cutmask -->
	 <path id="la-product-cutmask" d="
		M498.1,221.2c0-34.8,10.9-93.6,10.9-93.6c-0.5,0-13.9-1.9-16.8-2.6c-34.5-7.7-92.8-30-123.1-39.8c-21.9-7.1-45.5-22-69.3-22.9
		c-24.4-0.9-46.7,13.7-69.7,19.6c-3.7,1-7.4,2.1-11,3.3c-30.5,9.8-89.7,32.6-124.1,40c-3.4,0.7-3.4,0.7-15.4,2.3c-0.1,0-0.2,0-0.3,0
		c0,0,10.9,58.7,10.9,93.6c0,22.7-3.7,48.1-6.8,63.6c-0.5,2.2-2.1,10.4-3.9,15c5.4,7.3,114.1,87.9,216.5,87.9
		c110.6,0.1,206.9-79.3,212.7-87.7c0,0-2.8-9.2-3.7-14.5C501.8,270,498.1,244.2,498.1,221.2z" fill="#FFFFFF"/>
<g>
	
		<path fill="#FFFFFF" stroke="#000000" stroke-width="3.2509" stroke-linecap="round" stroke-linejoin="round" stroke-miterlimit="10" d="
		M528.3,290c0,0,9.4-5.3,13.5-28.3c4.2-23,39-137.3,4.5-154.6c0,0,20.6-2.9,20.6,57.9s-23.4,129.6-52.8,135.1
		C514.2,300.1,526.8,289.5,528.3,290z"/>
	
		<path fill="#FFFFFF" stroke="#000000" stroke-width="3.2509" stroke-linecap="round" stroke-linejoin="round" stroke-miterlimit="10" d="
		M492.2,125c5.8,1.3,11,2.2,15.2,2.5c16-14,37.9-26.7,52.2-9.4C559.7,118.1,547.9,73.7,492.2,125z"/>
	
		<path fill="#FFFFFF" stroke="#000000" stroke-width="3.2509" stroke-linecap="round" stroke-linejoin="round" stroke-miterlimit="10" d="
		M505.1,285.5c1.7,8,3.9,14.1,3.7,14.5c21.9,3.1,29.5-24.7,29.5-24.8C527.3,292.2,513.5,289.5,505.1,285.5z"/>
</g>
<g>
	
		<path fill="#FFFFFF" stroke="#000000" stroke-width="3.2509" stroke-linecap="round" stroke-linejoin="round" stroke-miterlimit="10" d="
		M58.7,290c0,0-9.4-5.3-13.5-28.3c-4.2-23-39-137.3-4.5-154.6c0,0-20.6-2.9-20.6,57.9s23.4,129.6,52.8,135.1
		C72.8,300.1,60.3,289.5,58.7,290z"/>
	
		<path fill="#FFFFFF" stroke="#000000" stroke-width="3.2509" stroke-linecap="round" stroke-linejoin="round" stroke-miterlimit="10" d="
		M27.3,118.1c14.3-17.4,36.3-4.5,52.3,9.5c4.2-0.2,9.4-1.1,15.4-2.3C39.1,73.6,27.4,118.1,27.3,118.1z"/>
	
		<path fill="#FFFFFF" stroke="#000000" stroke-width="3.2509" stroke-linecap="round" stroke-linejoin="round" stroke-miterlimit="10" d="
		M83.4,284.8c-8.2,4.3-22.9,8.3-34.5-9.6c-0.1,0.1,7.7,28.9,30.6,24.6C79.3,299.5,81.7,293.1,83.4,284.8z"/>
</g>
<g>
	
		<path id="la_x7C_Background_Color" fill="#FFFFFF" stroke="#000000" stroke-width="3.2509" stroke-linecap="round" stroke-linejoin="round" stroke-miterlimit="10" d="
		M498.1,221.2c0-34.8,10.9-93.6,10.9-93.6c-0.5,0-13.9-1.9-16.8-2.6c-34.5-7.7-92.8-30-123.1-39.8c-21.9-7.1-45.5-22-69.3-22.9
		c-24.4-0.9-46.7,13.7-69.7,19.6c-3.7,1-7.4,2.1-11,3.3c-30.5,9.8-89.7,32.6-124.1,40c-3.4,0.7-3.4,0.7-15.4,2.3c-0.1,0-0.2,0-0.3,0
		c0,0,10.9,58.7,10.9,93.6c0,22.7-3.7,48.1-6.8,63.6c-0.5,2.2-2.1,10.4-3.9,15c5.4,7.3,114.1,87.9,216.5,87.9
		c110.6,0.1,206.9-79.3,212.7-87.7c0,0-2.8-9.2-3.7-14.5C501.8,270,498.1,244.2,498.1,221.2z"/>
	<path d="M80.9,139.8c21.9-1.7,67.8-17.8,104.9-30.8c12.6-4.4,24.6-8.6,33.7-11.6c3.4-1.1,7.1-2.3,10.9-3.2
		c8.3-2.1,16.6-5.4,24.6-8.6c13.7-5.4,27.9-11,42.6-11c0.7,0,1.4,0,2.1,0c15.5,0.6,31.1,7.3,46.2,13.8c7.9,3.4,15.3,6.6,22.7,9
		c9.1,3,21.1,7.1,33.7,11.6c37.1,13,82.9,29.1,104.9,30.8c0.2-1.2,0.4-2.2,0.6-3.2c-21.3-1.5-67.3-17.7-104.3-30.7
		c-12.7-4.4-24.6-8.6-33.8-11.6c-7.3-2.4-14.6-5.5-22.4-8.9c-15.4-6.6-31.2-13.5-47.3-14.1c-0.7,0-1.4,0-2.2,0
		c-15.3,0-29.8,5.7-43.8,11.3c-7.9,3.1-16.1,6.4-24.2,8.4c-3.8,1-7.6,2.2-11.1,3.3c-9.2,3-21.1,7.2-33.8,11.6
		c-37.1,13-83,29.1-104.3,30.7C80.6,137.6,80.8,138.6,80.9,139.8z"/>
	<path fill="#000000" style="opacity:0.3;fill-opacity:0.3;" d="M461.4,162.9c-14-0.2-55.4-9.5-105.4-22.5s-75.7-16.2-113-3.6c-37.3,12.6-105.4,26.1-105.4,26.1
		s-25.7,9,13.1,2.3c38.7-6.8,90.7-18.9,144.7-18.9s154.8,25.3,166.1,21.4C472.5,163.8,464.5,163,461.4,162.9z"/>
	<path fill="#000000" style="opacity:0.3;fill-opacity:0.3;" d="M134.9,287c14,0.2,55.4,9.5,105.4,22.5c50,13.1,75.7,16.2,113,3.6c37.4-12.6,105.4-26.1,105.4-26.1
		s25.7-9-13.1-2.3s-90.7,18.9-144.7,18.9s-154.7-25.2-166-21.4C123.8,286.1,131.9,287,134.9,287z"/>
	<path fill="#000000" style="opacity:0.3;fill-opacity:0.3;" d="M140.3,223c14,0.1,55.4,5.4,105.4,12.7c50,7.4,75.7,9.2,113,2C396,230.6,464,222.9,464,222.9
		s25.7-5.1-13.1-1.3s-90.7,10.8-144.7,10.8s-154.8-14.3-166-12.1C128.9,222.5,137.1,223,140.3,223z"/>
	
		<path fill="none" stroke="#000000" stroke-width="3.2509" stroke-linecap="round" stroke-linejoin="round" stroke-miterlimit="10" d="
		M88.4,126.5c0,0,23.8,83.2,0,181"/>
	
		<path fill="none" stroke="#000000" stroke-width="1.7437" stroke-linecap="round" stroke-linejoin="round" stroke-miterlimit="10" stroke-dasharray="2.6156,3.4875" d="
		M83.2,126.5c0,0,24.6,79.6,0.8,177.5"/>
	
		<path fill="none" stroke="#000000" stroke-width="3.2509" stroke-linecap="round" stroke-linejoin="round" stroke-miterlimit="10" d="
		M499.6,126.5c0,0-23.8,83.2,0,181"/>
	
		<path fill="none" stroke="#000000" stroke-width="1.7437" stroke-linecap="round" stroke-linejoin="round" stroke-miterlimit="10" stroke-dasharray="2.6156,3.4875" d="
		M504.9,126.5c0,0-24.6,79.6-0.8,177.5"/>
	
		<path fill="none" stroke="#000000" stroke-width="1.7437" stroke-linecap="round" stroke-linejoin="round" stroke-miterlimit="10" stroke-dasharray="2.6156,3.4875" d="
		M89.9,132.4c0,0,67.4-20.9,86.2-26.9c18.9-6,44-17.6,52.8-17.3s41.1-21.3,69.2-21.3c0,0,15.8-1.9,56.7,18.9
		c13.4,5.1,48,17.1,68.6,24s65.3,21.5,84.6,22.6"/>
</g>
</svg>
