<?xml version="1.0" encoding="utf-8"?>
<!-- Generator: Adobe Illustrator 19.2.1, SVG Export Plug-In . SVG Version: 6.00 Build 0)  -->
<svg version="1.1" id="Layer_1" xmlns="http://www.w3.org/2000/svg" xmlns:xlink="http://www.w3.org/1999/xlink" x="0px" y="0px"
	 viewBox="0 0 620 450" enable-background="new 0 0 620 450" xml:space="preserve">
	 <!-- hack to set margins -->
<rect fill="none" width="620" height="450" stroke="none" style="opacity:0;fill-opacity:0;"/>
	 <!--set cutmask -->
<path id="la-product-cutmask" fill="#FFFFFF" d="M529.6,142.1c-3.5-12.1-7-41.7-7-41.7C361.5,42.2,308.4,45.7,308.4,45.7s-53.1-3.5-214.2,54.7c0,0-3.5,29.6-7,41.7
		c-3.5,12.1-17,100.8,0,127.8s47.6,37.6,61.8,58.2c14.2,20.6,80.4,80.2,159.5,80.2l0,0l0,0l0,0l0,0c79.1,0,145.3-59.6,159.5-80.2
		s44.7-31.2,61.8-58.2C546.7,242.9,533.2,154.1,529.6,142.1z M367,79.3c-0.2,0-0.5,0-0.7-0.1c-34.8-8.1-65.9-7.7-85.9-5.9c-21.7,1.9-35.4,5.8-35.5,5.8c-1.6,0.5-3.3-0.5-3.7-2.1
		c-0.5-1.6,0.5-3.3,2.1-3.7c0.6-0.2,14.2-4.1,36.5-6c20.5-1.8,52.4-2.3,88,6c1.6,0.4,2.6,2,2.3,3.6C369.6,78.3,368.3,79.3,367,79.3z
		"/>
<g>
	
		<path fill="#FFFFFF" stroke="#000000" stroke-width="3.6142" stroke-linecap="round" stroke-linejoin="round" stroke-miterlimit="10" d="
		M512.7,276.8c-7.3,0-14.8-1-22.6-3c-2.2-0.6-3.5-2.8-2.9-4.9c0.6-2.2,2.8-3.5,4.9-2.9c33.5,8.6,53.2-4.8,62-13.5
		c9.6-9.5,17-22.5,22-38.5c4.1-12.9,6.6-27.7,7.8-45.1c2.8-40.6-1.7-72.4-13.3-94.5c-1.5-2.9-4.1-6.8-8.2-8.8
		c-3.4-1.8-7.5-1.6-11.9,0.4c-13.6,6.2-21.6,23.4-27.5,39.3c-4.1,11-9.2,24.7-9.7,36.8c-0.1,2.2-2,4-4.2,3.9s-4-2-3.9-4.2
		c0.5-13.4,5.9-27.8,10.2-39.4c6.5-17.5,15.4-36.4,31.8-43.9c6.8-3.1,13.3-3.2,19-0.2c4.7,2.4,8.7,6.7,11.7,12.3
		c12.3,23.5,17,56.8,14.2,98.9c-1.2,18.1-3.9,33.4-8.2,47c-5.4,17.3-13.5,31.3-24,41.8c-9,9-20.1,14.8-32.9,17.3
		C522.3,276.3,517.6,276.8,512.7,276.8z"/>
	
		<path fill="#FFFFFF" stroke="#000000" stroke-width="3.6142" stroke-linecap="round" stroke-linejoin="round" stroke-miterlimit="10" d="
		M105.9,276.8c7.3,0,14.8-1,22.6-3c2.2-0.6,3.5-2.8,2.9-4.9c-0.6-2.2-2.8-3.5-4.9-2.9c-33.5,8.6-53.2-4.8-62-13.5
		c-9.6-9.5-17-22.5-22-38.5c-4.1-12.9-6.6-27.7-7.8-45.1c-2.8-40.6,1.7-72.4,13.3-94.5c1.5-2.9,4.1-6.8,8.2-8.8
		c3.4-1.8,7.5-1.6,11.9,0.4c13.6,6.2,21.6,23.4,27.5,39.3c4.1,11,9.2,24.7,9.7,36.8c0.1,2.2,2,4,4.2,3.9s4-2,3.9-4.2
		c-0.5-13.4-5.9-27.8-10.2-39.4C96.7,84.9,87.8,66,71.4,58.5c-6.8-3.1-13.3-3.2-19-0.2c-4.7,2.4-8.7,6.7-11.7,12.3
		c-12.3,23.5-17,56.8-14.2,98.9c1.2,18.1,3.9,33.4,8.2,47c5.4,17.3,13.5,31.3,24,41.8c9,9,20.1,14.8,32.9,17.3
		C96.3,276.3,101,276.8,105.9,276.8z"/>
</g>
<g>
	
		<path id="la_x7C_Body_Color" fill="#FFFFFF" stroke="#000000" stroke-width="3.6142" stroke-linecap="round" stroke-linejoin="round" stroke-miterlimit="10" d="
		M529.6,142.1c-3.5-12.1-7-41.7-7-41.7C361.5,42.2,308.4,45.7,308.4,45.7s-53.1-3.5-214.2,54.7c0,0-3.5,29.6-7,41.7
		c-3.5,12.1-17,100.8,0,127.8s47.6,37.6,61.8,58.2c14.2,20.6,80.4,80.2,159.5,80.2l0,0l0,0l0,0l0,0c79.1,0,145.3-59.6,159.5-80.2
		s44.7-31.2,61.8-58.2C546.7,242.9,533.2,154.1,529.6,142.1z"/>
	
		<path fill="none" stroke="#000000" stroke-width="3.0118" stroke-linecap="round" stroke-linejoin="round" stroke-dasharray="3.6124,5.4187" d="
		M91.3,115.1c0,0,136.3-54.7,213.5-54.7s220.8,55.4,220.8,55.4"/>
	
		<path fill="none" stroke="#000000" stroke-width="2.4095" stroke-linecap="round" stroke-linejoin="round" stroke-miterlimit="10" stroke-dasharray="3.6142,4.819" d="
		M529.6,269.9c10.8-80-12.8-157.3-12.8-157.3"/>
	
		<path fill="none" stroke="#000000" stroke-width="2.4095" stroke-linecap="round" stroke-linejoin="round" stroke-miterlimit="10" stroke-dasharray="3.6142,4.819" d="
		M512.5,112.5c0,0,23.6,80.6,12.8,163.9"/>
	
		<path fill="none" stroke="#000000" stroke-width="2.4095" stroke-linecap="round" stroke-linejoin="round" stroke-miterlimit="10" stroke-dasharray="3.6142,4.819" d="
		M100.7,112.5c0,0-23.6,77.4-12.8,157.3"/>
	
		<path fill="none" stroke="#000000" stroke-width="2.4095" stroke-linecap="round" stroke-linejoin="round" stroke-miterlimit="10" stroke-dasharray="3.6142,4.819" d="
		M105,112.5c0,0-23.6,80.6-12.8,163.9"/>
	
		<path fill="none" stroke="#000000" stroke-width="2.4095" stroke-linecap="round" stroke-linejoin="round" stroke-miterlimit="10" stroke-dasharray="3.6142,4.819" d="
		M100.7,131.2c0,0,10.8-1,26.2-10s99.9-37.7,177-37.7s188.2,39.8,188.2,39.8s13.4,9.2,24.7,11.7"/>
	
		<path fill="none" stroke="#000000" stroke-width="2.4095" stroke-linecap="round" stroke-linejoin="round" stroke-miterlimit="10" stroke-dasharray="3.6142,4.819" d="
		M100.7,127.1c0,0,10.8-1,26.2-10s99.9-37.7,177-37.7s188.2,39.8,188.2,39.8s13.4,9.2,24.7,11.7"/>
	
		<path id="clip" fill="#FFFFFF" stroke="#000000" stroke-width="3.6142" stroke-linecap="round" stroke-linejoin="round" stroke-miterlimit="10" d="
		M367,79.3c-0.2,0-0.5,0-0.7-0.1c-34.8-8.1-65.9-7.7-85.9-5.9c-21.7,1.9-35.4,5.8-35.5,5.8c-1.6,0.5-3.3-0.5-3.7-2.1
		c-0.5-1.6,0.5-3.3,2.1-3.7c0.6-0.2,14.2-4.1,36.5-6c20.5-1.8,52.4-2.3,88,6c1.6,0.4,2.6,2,2.3,3.6C369.6,78.3,368.3,79.3,367,79.3z
		"/>
	
		<path fill="none" stroke="#000000" stroke-width="1.5059" stroke-linecap="round" stroke-linejoin="round" stroke-miterlimit="10" d="
		M96.3,155.5c0,0,102.3-39.6,209.2-39.6s211.3,42.2,211.3,42.2"/>
	
		<path fill="none" stroke="#000000" stroke-width="1.5059" stroke-linecap="round" stroke-linejoin="round" stroke-miterlimit="10" d="
		M336.8,107.3c0,0,67.1,5,117.8,25.7c50.7,20.8,62.5,25.7,67.3,27"/>
	
		<path fill="none" stroke="#000000" stroke-width="1.5059" stroke-linecap="round" stroke-linejoin="round" stroke-miterlimit="10" d="
		M91.2,191.2c0,0,223.7-24.3,433.4,0"/>
	
		<path fill="none" stroke="#000000" stroke-width="1.5059" stroke-linecap="round" stroke-linejoin="round" stroke-miterlimit="10" d="
		M91.3,244.5c1.5,0,10,1.9,27.5,0s121.8,11.1,189.8,11.1"/>
	
		<path fill="none" stroke="#000000" stroke-width="1.5059" stroke-linecap="round" stroke-linejoin="round" stroke-miterlimit="10" d="
		M525.2,244.5c-1.5,0-10,1.9-27.5,0s-121.8,11.1-189.8,11.1"/>
	
		<path fill="none" stroke="#000000" stroke-width="1.5059" stroke-linecap="round" stroke-linejoin="round" stroke-miterlimit="10" d="
		M113.1,296.8c6.4,4.8,92.4,72.3,195.3,72.3s172.5-54.8,172.5-54.8"/>
	
		<path fill="none" stroke="#000000" stroke-width="1.5059" stroke-linecap="round" stroke-linejoin="round" stroke-miterlimit="10" d="
		M521.9,280c0,0-89.5,53.5-213.2,53.5S94.7,280,94.7,280"/>
	
		<path fill="none" stroke="#000000" stroke-width="2.4095" stroke-linecap="round" stroke-linejoin="round" stroke-miterlimit="10" stroke-dasharray="3.6142,4.819" d="
		M155.9,336.7c0,0,72.5,59,148.5,59s144.3-47,144.3-47"/>
	
		<path fill="none" stroke="#000000" stroke-width="2.4095" stroke-linecap="round" stroke-linejoin="round" stroke-miterlimit="10" stroke-dasharray="3.6142,4.819" d="
		M189.8,366.3c1.9,1.3,57.2,35.8,118.8,35.8s109.9-30,109.9-30"/>
</g>
</svg>
