<?xml version="1.0" encoding="utf-8"?>
<!-- Generator: Adobe Illustrator 21.0.0, SVG Export Plug-In . SVG Version: 6.00 Build 0)  -->
<svg version="1.1" id="Layer_1" xmlns="http://www.w3.org/2000/svg" xmlns:xlink="http://www.w3.org/1999/xlink" x="0px" y="0px"
	 width="380px" height="530px" viewBox="0 0 380 530" enable-background="new 0 0 380 530" xml:space="preserve">
<path id="la_x7C_Top_x7C_top-color" fill="#9E005D" stroke="#000000" stroke-miterlimit="10" d="M300.6,22.5l-55.7-4.9
	c-34.9,15-79.6,15-112.3,0.9l-54,4c1.1,30-0.9,141.8-51,159l-0.2,316.4c0,0,70.9,15.1,161.7,15.1c90.8,0,163.4-15.1,163.4-15.1
	l0.2-315.4C303.6,163.5,299.6,58.5,300.6,22.5z"/>
<g id="la_x7C_Top-Lines_x7C_top-lines">
	<path fill="#FFFFFF" d="M352.2,196c-30-4.4-51.2-36.1-60.8-91.6c-7.2-41.5-5.6-82.3-5.6-82.7l3.4,0.1
		c-0.1,1.6-6.2,160.5,62.9,170.7L352.2,196z"/>
	<path fill="#FFFFFF" d="M352,191c-66.5-12.7-60.6-162.3-60.3-168.7l3.4,0.2c-0.1,1.5-6.6,153,57,165.1L352,191z"/>
	<path fill="#FFFFFF" d="M352,186c-60.4-20.5-55.2-157.5-54.9-163.3l3,0.3c0.2,12.2-3.2,137.8,52,159.9L352,186z"/>
</g>
<g id="la_x7C_Top-Lines_x7C_top-lines_4_">
	<path fill="#FFFFFF" d="M28.1,196.5c30-4.4,50.5-36,60.1-91.5c7.2-41.5,5.6-82.7,5.6-83.1l-3.5,0.2c0.1,1.6,6.9,160.8-62.2,171
		V196.5z"/>
	<path fill="#FFFFFF" d="M28.1,190.9c66.5-12.7,60-162.2,59.7-168.6l-3.4,0.3c0.1,1.5,7.3,152.7-56.3,164.8V190.9z"/>
	<path fill="#FFFFFF" d="M28.1,185.4C88.4,165,82.7,28.6,82.5,22.8l-3.4,0.2c0.1,1.4,7,139.3-51,159L28.1,185.4z"/>
</g>
<path id="la_x7C_Top-Lines_x7C_top-lines_1_" fill="#FFFFFF" d="M262.4,19.6l-6.9-0.4c-15.3,8.6-40.9,16.1-66.1,16.1
	c-26.2,0-45.3-3.9-65.6-15.6l-6.1,0.4c15.9,11,42.9,19.2,71.7,19.2C217.2,39.3,246.5,29.9,262.4,19.6z"/>
<path id="la_x7C_Top-Lines_x7C_top-lines_2_" fill="#FFFFFF" d="M269.1,20.3l-4.8-0.5c-14.7,11.3-45.3,21.9-74.9,21.9
	c-30.7,0-59.5-9.5-73.9-21.5l-4.7,0.5c14.8,13.8,45.6,25,78.6,25C221.5,45.6,254,33.4,269.1,20.3z"/>
<path id="la_x7C_Top-Lines_x7C_top-lines_3_" fill="#FFFFFF" d="M251.3,18.7c0,0-5.7-0.5-6-0.5c-14.6,6.2-34.8,11.6-55.8,11.6
	c-22.3,0-42.4-3.9-57.4-10.8c-0.7,0.2-1.4,0-2.1,0.1l-4,0.4c15.9,8.6,38.5,14.3,63.5,14.3C213.4,33.8,235.5,26.7,251.3,18.7z"/>
</svg>
