<?xml version="1.0" encoding="utf-8"?>
<!-- Generator: Adobe Illustrator 21.0.0, SVG Export Plug-In . SVG Version: 6.00 Build 0)  -->
<svg version="1.1" id="Layer_1" xmlns="http://www.w3.org/2000/svg" xmlns:xlink="http://www.w3.org/1999/xlink" x="0px" y="0px"
	 width="380px" height="530px" viewBox="0 0 380 530" enable-background="new 0 0 380 530" xml:space="preserve">
<path id="la_x7C_Bottom_x7C_bottom-color" fill-rule="evenodd" clip-rule="evenodd" fill="#FFFFFF" stroke="#000000" stroke-width="0.5" stroke-miterlimit="10" d="
	M304.1,138.3c0.8-0.3,1.3-0.7,1.3-1v-29.9c0-0.9-2.6-1.7-5.8-1.7h-219c-3.2,0-5.8,0.7-5.8,1.7v29.9c0,0.4,0.5,0.8,1.3,1
	C65.7,157.4,41.5,218.4,22.7,395l4.7,9.5c0,0,101.5,25.6,158.4,11.4l4.3-37l4.3,37c56.9,14.2,158.4-11.4,158.4-11.4l4.7-9.5
	C338.8,218.4,314.6,157.4,304.1,138.3z"/>
<rect id="la_x7C_Bottom-Lines_x7C_bottom-lines" x="74.9" y="129.6" fill-rule="evenodd" clip-rule="evenodd" fill="#9E005D" width="230.5" height="7.4"/>
<rect id="la_x7C_Bottom-Lines_x7C_bottom-lines_1_" x="74.9" y="117.7" fill-rule="evenodd" clip-rule="evenodd" fill="#9E005D" width="230.5" height="7.4"/>
<path id="la_x7C_Bottom-Lines_x7C_bottom-lines_2_" fill-rule="evenodd" clip-rule="evenodd" fill="#9E005D" d="M305.4,107.4
	c0-0.7-1.6-1.3-3.7-1.5h-223c-2.2,0.2-3.7,0.8-3.7,1.5v5.9h230.5V107.4z"/>
<path id="la_x7C_Bottom-Lines_x7C_bottom-lines_3_" fill-rule="evenodd" clip-rule="evenodd" fill="#9E005D" d="M186.4,411.1
	l0.5-4.2c-54.2,12-145.9-9.5-156.2-12l-6.4-14.3c-0.3,2.6-0.6,5.2-0.9,7.8l4.5,9.9l0.9,0.2c0.8,0.2,64,16,119.1,16
	C161.7,414.5,174.8,413.5,186.4,411.1z"/>
<g id="la_x7C_Bottom-Lines_x7C_bottom-lines_4_">
	<path fill-rule="evenodd" clip-rule="evenodd" fill="#9E005D" d="M187.5,401.8c-54.5,10.7-142.7-9.3-152.8-11.6l-9-22
		c-0.3,2.7-0.6,5.4-0.9,8.1l7.1,17.3l0.9,0.2c0.8,0.2,64.1,15.5,119.3,15.1c12.3-0.1,24.2-1,34.9-3L187.5,401.8z"/>
</g>
<path id="la_x7C_Bottom-Lines_x7C_bottom-lines_5_" fill-rule="evenodd" clip-rule="evenodd" fill="#9E005D" d="M357.2,392.1
	L357,392l-4.4,8.8c-10.1,2.5-104.7,24.7-158.6,11.5l0.4,3.6c56.9,14.2,158.4-11.4,158.4-11.4l4.7-9.5
	C357.5,394,357.3,393.1,357.2,392.1z"/>
<path id="la_x7C_Bottom-Lines_x7C_bottom-lines_6_" fill-rule="evenodd" clip-rule="evenodd" fill="#9E005D" d="M356,380.8
	l-6.5,14.5c-10.2,2.5-101.8,24-156,12.1l0.5,4.2c11.6,2.4,24.7,3.4,38.3,3.4c55.1,0,118.3-15.8,119.1-16l0.9-0.2l4.6-10.1
	C356.6,385.9,356.3,383.3,356,380.8z"/>
<g id="la_x7C_Bottom-Lines_x7C_bottom-lines_7_">
	<path fill-rule="evenodd" clip-rule="evenodd" fill="#9E005D" d="M354.7,369l-9.2,20.6c-10,2.4-98.1,23.1-152.6,12.7l0.5,4.1
		c10.7,1.9,22.6,2.7,34.9,2.7c55.1,0,118.3-15.8,119.1-16l0.9-0.2l7.2-16.2C355.3,374.2,355,371.6,354.7,369z"/>
</g>
<path id="la_x7C_Bottom-Lines_x7C_bottom-lines_8_" fill-rule="evenodd" clip-rule="evenodd" fill="#9E005D" d="M27.6,400.4
	l-4.4-8.8l-0.1,0c-0.1,1.1-0.2,2.2-0.4,3.4l4.7,9.5C38,407,94.8,420,144.9,420c9.6,0,18.9-0.5,27.6-1.6c0.6-0.1,1.2-0.2,1.8-0.3
	c0.2,0,0.3,0,0.5-0.1c3.8-0.6,7.6-1.3,11.1-2.2l0.5-4C132.4,425.1,37.7,402.9,27.6,400.4z"/>
<g opacity="0.75">
	
		<line fill-rule="evenodd" clip-rule="evenodd" fill="none" stroke="#BABABA" stroke-width="0.3909" stroke-miterlimit="10" x1="77.7" y1="108.5" x2="77.7" y2="135.1"/>
	
		<line fill-rule="evenodd" clip-rule="evenodd" fill="none" stroke="#BABABA" stroke-width="0.3909" stroke-miterlimit="10" x1="86.3" y1="108.5" x2="86.3" y2="135.1"/>
	
		<line fill-rule="evenodd" clip-rule="evenodd" fill="none" stroke="#BABABA" stroke-width="0.3909" stroke-miterlimit="10" x1="94.9" y1="108.5" x2="94.9" y2="135.1"/>
	
		<line fill-rule="evenodd" clip-rule="evenodd" fill="none" stroke="#BABABA" stroke-width="0.3909" stroke-miterlimit="10" x1="103.5" y1="108.5" x2="103.5" y2="135.1"/>
	
		<line fill-rule="evenodd" clip-rule="evenodd" fill="none" stroke="#BABABA" stroke-width="0.3909" stroke-miterlimit="10" x1="112.1" y1="108.5" x2="112.1" y2="135.1"/>
	
		<line fill-rule="evenodd" clip-rule="evenodd" fill="none" stroke="#BABABA" stroke-width="0.3909" stroke-miterlimit="10" x1="120.7" y1="108.5" x2="120.7" y2="135.1"/>
	
		<line fill-rule="evenodd" clip-rule="evenodd" fill="none" stroke="#BABABA" stroke-width="0.3909" stroke-miterlimit="10" x1="129.3" y1="108.5" x2="129.3" y2="135.1"/>
	
		<line fill-rule="evenodd" clip-rule="evenodd" fill="none" stroke="#BABABA" stroke-width="0.3909" stroke-miterlimit="10" x1="137.9" y1="108.5" x2="137.9" y2="135.1"/>
	
		<line fill-rule="evenodd" clip-rule="evenodd" fill="none" stroke="#BABABA" stroke-width="0.3909" stroke-miterlimit="10" x1="146.5" y1="108.5" x2="146.5" y2="135.1"/>
	
		<line fill-rule="evenodd" clip-rule="evenodd" fill="none" stroke="#BABABA" stroke-width="0.3909" stroke-miterlimit="10" x1="155.1" y1="108.5" x2="155.1" y2="135.1"/>
	
		<line fill-rule="evenodd" clip-rule="evenodd" fill="none" stroke="#BABABA" stroke-width="0.3909" stroke-miterlimit="10" x1="163.7" y1="108.5" x2="163.7" y2="135.1"/>
	
		<line fill-rule="evenodd" clip-rule="evenodd" fill="none" stroke="#BABABA" stroke-width="0.3909" stroke-miterlimit="10" x1="172.3" y1="108.5" x2="172.3" y2="135.1"/>
	
		<line fill-rule="evenodd" clip-rule="evenodd" fill="none" stroke="#BABABA" stroke-width="0.3909" stroke-miterlimit="10" x1="180.8" y1="108.5" x2="180.8" y2="135.1"/>
	
		<line fill-rule="evenodd" clip-rule="evenodd" fill="none" stroke="#BABABA" stroke-width="0.3909" stroke-miterlimit="10" x1="189.4" y1="108.5" x2="189.4" y2="135.1"/>
	
		<line fill-rule="evenodd" clip-rule="evenodd" fill="none" stroke="#BABABA" stroke-width="0.3909" stroke-miterlimit="10" x1="198" y1="108.5" x2="198" y2="135.1"/>
	
		<line fill-rule="evenodd" clip-rule="evenodd" fill="none" stroke="#BABABA" stroke-width="0.3909" stroke-miterlimit="10" x1="206.6" y1="108.5" x2="206.6" y2="135.1"/>
	
		<line fill-rule="evenodd" clip-rule="evenodd" fill="none" stroke="#BABABA" stroke-width="0.3909" stroke-miterlimit="10" x1="215.2" y1="108.5" x2="215.2" y2="135.1"/>
	
		<line fill-rule="evenodd" clip-rule="evenodd" fill="none" stroke="#BABABA" stroke-width="0.3909" stroke-miterlimit="10" x1="223.8" y1="108.5" x2="223.8" y2="135.1"/>
	
		<line fill-rule="evenodd" clip-rule="evenodd" fill="none" stroke="#BABABA" stroke-width="0.3909" stroke-miterlimit="10" x1="232.4" y1="108.5" x2="232.4" y2="135.1"/>
	
		<line fill-rule="evenodd" clip-rule="evenodd" fill="none" stroke="#BABABA" stroke-width="0.3909" stroke-miterlimit="10" x1="241" y1="108.5" x2="241" y2="135.1"/>
	
		<line fill-rule="evenodd" clip-rule="evenodd" fill="none" stroke="#BABABA" stroke-width="0.3909" stroke-miterlimit="10" x1="249.6" y1="108.5" x2="249.6" y2="135.1"/>
	
		<line fill-rule="evenodd" clip-rule="evenodd" fill="none" stroke="#BABABA" stroke-width="0.3909" stroke-miterlimit="10" x1="258.2" y1="108.5" x2="258.2" y2="135.1"/>
	
		<line fill-rule="evenodd" clip-rule="evenodd" fill="none" stroke="#BABABA" stroke-width="0.3909" stroke-miterlimit="10" x1="266.8" y1="108.5" x2="266.8" y2="135.1"/>
	
		<line fill-rule="evenodd" clip-rule="evenodd" fill="none" stroke="#BABABA" stroke-width="0.3909" stroke-miterlimit="10" x1="275.3" y1="108.5" x2="275.3" y2="135.1"/>
	
		<line fill-rule="evenodd" clip-rule="evenodd" fill="none" stroke="#BABABA" stroke-width="0.3909" stroke-miterlimit="10" x1="283.9" y1="108.5" x2="283.9" y2="135.1"/>
	
		<line fill-rule="evenodd" clip-rule="evenodd" fill="none" stroke="#BABABA" stroke-width="0.3909" stroke-miterlimit="10" x1="292.5" y1="108.5" x2="292.5" y2="135.1"/>
	
		<line fill-rule="evenodd" clip-rule="evenodd" fill="none" stroke="#BABABA" stroke-width="0.3909" stroke-miterlimit="10" x1="301.1" y1="108.5" x2="301.1" y2="135.1"/>
</g>
<line opacity="0.75" fill-rule="evenodd" clip-rule="evenodd" fill="none" stroke="#231F20" stroke-width="0.25" stroke-miterlimit="10" x1="189.7" y1="366.6" x2="189.7" y2="137.5"/>
<path opacity="0.75" fill-rule="evenodd" clip-rule="evenodd" fill="none" stroke="#231F20" stroke-width="0.25" stroke-miterlimit="10" d="
	M172.9,418.8c0,0,2.1-48.1,16.7-74.3c0,0,13.9,25.9,16.6,73.6"/>
</svg>
