<?xml version="1.0" encoding="utf-8"?>
<!-- Generator: Adobe Illustrator 21.0.0, SVG Export Plug-In . SVG Version: 6.00 Build 0)  -->
<svg version="1.1" id="Layer_1" xmlns="http://www.w3.org/2000/svg" xmlns:xlink="http://www.w3.org/1999/xlink" x="0px" y="0px"
	 width="380px" height="530px" viewBox="0 0 380 530" enable-background="new 0 0 380 530" xml:space="preserve">
<path id="la_x7C_Top_x7C_top-color" fill="#9E005D" stroke="#000000" stroke-miterlimit="10" d="M300.6,22.5l-55.7-4.9
	c-0.3,1.8-0.6,3.5-0.9,5.2H133.4c-0.3-1.4-0.5-2.9-0.8-4.4l-54,4c1.1,30-0.9,141.8-51,159l-0.2,316.4c0,0,70.9,15.1,161.7,15.1
	c90.8,0,163.4-15.1,163.4-15.1l0.2-315.4C303.6,163.5,299.6,58.5,300.6,22.5z"/>
<path opacity="0.6" d="M244,23.4H133.4c9.2,45.5,56.5,63.6,56.5,63.6S234.5,68.4,244,23.4z"/>
<g id="la_x7C_Top-Lines_x7C_top-lines">
	<path fill="#FFFFFF" d="M352.2,196c-30-4.4-51.2-36.1-60.8-91.6c-7.2-41.5-5.6-82.3-5.6-82.7l3.4,0.1
		c-0.1,1.6-6.2,160.5,62.9,170.7L352.2,196z"/>
	<path fill="#FFFFFF" d="M352,191c-66.5-12.7-60.6-162.3-60.3-168.7l3.4,0.2c-0.1,1.5-6.6,153,57,165.1L352,191z"/>
	<path fill="#FFFFFF" d="M352,186c-60.4-20.5-55.2-157.5-54.9-163.3l3,0.3c0.2,12.2-3.2,137.8,52,159.9L352,186z"/>
</g>
<g id="la_x7C_Top-Lines_x7C_top-lines_4_">
	<path fill="#FFFFFF" d="M28.1,196.5c30-4.4,50.5-36,60.1-91.5c7.2-41.5,5.6-82.7,5.6-83.1l-3.5,0.2c0.1,1.6,6.9,160.8-62.2,171
		V196.5z"/>
	<path fill="#FFFFFF" d="M28.1,190.9c66.5-12.7,60-162.2,59.7-168.6l-3.4,0.3c0.1,1.5,7.3,152.7-56.3,164.8V190.9z"/>
	<path fill="#FFFFFF" d="M28.1,185.4C88.4,165,82.7,28.6,82.5,22.8l-3.4,0.2c0.1,1.4,7,139.3-51,159L28.1,185.4z"/>
</g>
<path id="la_x7C_Top-Lines_x7C_top-lines_3_" fill="#FFFFFF" d="M189.9,90.8l-0.7-0.3c-56.2-24.9-60.6-70.8-60.6-71.3l3.5-0.3
	c0,0.5,4.3,44,57.8,68.1c5.9-2.7,48.7-23.4,55.3-68.8l2.9,0.2c-7.3,50.6-57,72-57.5,72.2L189.9,90.8z"/>
<path id="la_x7C_Top-Lines_x7C_top-lines_2_" fill="#FFFFFF" d="M190.1,98.2l-0.7-0.3c-62-27.1-66.9-77.7-66.9-78.2l3.6-0.3
	c0,0.5,4.7,48.6,64.1,74.9c6.2-2.8,53.4-25.8,60.7-75.7l3.6,0.3c-8.1,55.2-63.1,78.7-63.6,78.9L190.1,98.2z"/>
<path id="la_x7C_Top-Lines_x7C_top-lines_1_" fill="#FFFFFF" d="M190.3,105.7l-0.7-0.3c-67.9-29.7-73.2-84.7-73.3-85.3l3.5-0.2
	c0,0.5,5.2,53,70.5,81.9c6.5-3,58.6-27.6,66.7-82.7l3.5,0.4c-8.9,60.5-68.9,85.6-69.5,85.8L190.3,105.7z"/>
</svg>
