<?xml version="1.0" encoding="utf-8"?>
<!-- Generator: Adobe Illustrator 21.0.0, SVG Export Plug-In . SVG Version: 6.00 Build 0)  -->
<svg version="1.1" id="Layer_1" xmlns="http://www.w3.org/2000/svg" xmlns:xlink="http://www.w3.org/1999/xlink" x="0px" y="0px"
	 width="380px" height="530px" viewBox="0 0 380 530" enable-background="new 0 0 380 530" xml:space="preserve">
<path id="la_x7C_Bottom_x7C_bottom-color_1_" fill-rule="evenodd" clip-rule="evenodd" fill="#FFFFFF" stroke="#000000" stroke-width="0.5" stroke-miterlimit="10" d="
	M113.2,131.6c-1.8-0.8-3-2.5-3-4.6v-15.9c0-2.8,2.3-5,5.1-5h172.3c2.8,0,5.1,2.2,5.1,5v15.9c0,1.5-0.7,2.8-1.7,3.7
	c20.6,64.5,4,289.7,4,289.7c-13.6,9.8-36.1,13.4-60.8,13.7l-22.6-22.6l-20.6,20.6c-40.6-4-76.2-12.4-76.2-12.4
	S80.4,301.6,80.4,240.2C80.4,187,106.3,142.5,113.2,131.6z"/>
<path id="la_x7C_Bottom-Lines_x7C_bottom-lines_9_" fill-rule="evenodd" clip-rule="evenodd" fill="#9E005D" d="M113.1,131.8
	c0,0,0.1-0.1,0.1-0.1c-1.8-0.8-3-2.5-3-4.6v-1.8h182.6v1.8c0,1.5-0.7,2.8-1.7,3.7c0.1,0.3,0.2,0.7,0.3,1H113.1z"/>
<rect id="la_x7C_Bottom-Lines_x7C_bottom-lines_10_" x="110.1" y="114.7" fill-rule="evenodd" clip-rule="evenodd" fill="#9E005D" width="182.6" height="6.5"/>
<path id="la_x7C_Bottom-Lines_x7C_bottom-lines_11_" fill-rule="evenodd" clip-rule="evenodd" fill="#9E005D" d="M115.3,106.1h172.3
	c2.7,0,4.9,2.1,5.1,4.7H110.2C110.3,108.2,112.6,106.1,115.3,106.1z"/>
<g opacity="0.75">
	
		<line fill-rule="evenodd" clip-rule="evenodd" fill="none" stroke="#BABABA" stroke-width="0.2919" stroke-miterlimit="10" x1="282.1" y1="109.3" x2="282.1" y2="129.3"/>
	
		<line fill-rule="evenodd" clip-rule="evenodd" fill="none" stroke="#BABABA" stroke-width="0.2919" stroke-miterlimit="10" x1="275.9" y1="109.3" x2="275.9" y2="129.3"/>
	
		<line fill-rule="evenodd" clip-rule="evenodd" fill="none" stroke="#BABABA" stroke-width="0.2919" stroke-miterlimit="10" x1="269.6" y1="109.3" x2="269.6" y2="129.3"/>
	
		<line fill-rule="evenodd" clip-rule="evenodd" fill="none" stroke="#BABABA" stroke-width="0.2919" stroke-miterlimit="10" x1="263.4" y1="109.3" x2="263.4" y2="129.3"/>
	
		<line fill-rule="evenodd" clip-rule="evenodd" fill="none" stroke="#BABABA" stroke-width="0.2919" stroke-miterlimit="10" x1="257.2" y1="109.3" x2="257.2" y2="129.3"/>
	
		<line fill-rule="evenodd" clip-rule="evenodd" fill="none" stroke="#BABABA" stroke-width="0.2919" stroke-miterlimit="10" x1="251" y1="109.3" x2="251" y2="129.3"/>
	
		<line fill-rule="evenodd" clip-rule="evenodd" fill="none" stroke="#BABABA" stroke-width="0.2919" stroke-miterlimit="10" x1="244.8" y1="109.3" x2="244.8" y2="129.3"/>
	
		<line fill-rule="evenodd" clip-rule="evenodd" fill="none" stroke="#BABABA" stroke-width="0.2919" stroke-miterlimit="10" x1="238.5" y1="109.3" x2="238.5" y2="129.3"/>
	
		<line fill-rule="evenodd" clip-rule="evenodd" fill="none" stroke="#BABABA" stroke-width="0.2919" stroke-miterlimit="10" x1="232.3" y1="109.3" x2="232.3" y2="129.3"/>
	
		<line fill-rule="evenodd" clip-rule="evenodd" fill="none" stroke="#BABABA" stroke-width="0.2919" stroke-miterlimit="10" x1="226.1" y1="109.3" x2="226.1" y2="129.3"/>
	
		<line fill-rule="evenodd" clip-rule="evenodd" fill="none" stroke="#BABABA" stroke-width="0.2919" stroke-miterlimit="10" x1="219.9" y1="109.3" x2="219.9" y2="129.3"/>
	
		<line fill-rule="evenodd" clip-rule="evenodd" fill="none" stroke="#BABABA" stroke-width="0.2919" stroke-miterlimit="10" x1="213.7" y1="109.3" x2="213.7" y2="129.3"/>
	
		<line fill-rule="evenodd" clip-rule="evenodd" fill="none" stroke="#BABABA" stroke-width="0.2919" stroke-miterlimit="10" x1="207.4" y1="109.3" x2="207.4" y2="129.3"/>
	
		<line fill-rule="evenodd" clip-rule="evenodd" fill="none" stroke="#BABABA" stroke-width="0.2919" stroke-miterlimit="10" x1="201.2" y1="109.3" x2="201.2" y2="129.3"/>
	
		<line fill-rule="evenodd" clip-rule="evenodd" fill="none" stroke="#BABABA" stroke-width="0.2919" stroke-miterlimit="10" x1="195" y1="109.3" x2="195" y2="129.3"/>
	
		<line fill-rule="evenodd" clip-rule="evenodd" fill="none" stroke="#BABABA" stroke-width="0.2919" stroke-miterlimit="10" x1="188.8" y1="109.3" x2="188.8" y2="129.3"/>
	
		<line fill-rule="evenodd" clip-rule="evenodd" fill="none" stroke="#BABABA" stroke-width="0.2919" stroke-miterlimit="10" x1="182.6" y1="109.3" x2="182.6" y2="129.3"/>
	
		<line fill-rule="evenodd" clip-rule="evenodd" fill="none" stroke="#BABABA" stroke-width="0.2919" stroke-miterlimit="10" x1="176.3" y1="109.3" x2="176.3" y2="129.3"/>
	
		<line fill-rule="evenodd" clip-rule="evenodd" fill="none" stroke="#BABABA" stroke-width="0.2919" stroke-miterlimit="10" x1="170.1" y1="109.3" x2="170.1" y2="129.3"/>
	
		<line fill-rule="evenodd" clip-rule="evenodd" fill="none" stroke="#BABABA" stroke-width="0.2919" stroke-miterlimit="10" x1="163.9" y1="109.3" x2="163.9" y2="129.3"/>
	
		<line fill-rule="evenodd" clip-rule="evenodd" fill="none" stroke="#BABABA" stroke-width="0.2919" stroke-miterlimit="10" x1="157.7" y1="109.3" x2="157.7" y2="129.3"/>
	
		<line fill-rule="evenodd" clip-rule="evenodd" fill="none" stroke="#BABABA" stroke-width="0.2919" stroke-miterlimit="10" x1="151.4" y1="109.3" x2="151.4" y2="129.3"/>
	
		<line fill-rule="evenodd" clip-rule="evenodd" fill="none" stroke="#BABABA" stroke-width="0.2919" stroke-miterlimit="10" x1="145.2" y1="109.3" x2="145.2" y2="129.3"/>
	
		<line fill-rule="evenodd" clip-rule="evenodd" fill="none" stroke="#BABABA" stroke-width="0.2919" stroke-miterlimit="10" x1="139" y1="109.3" x2="139" y2="129.3"/>
	
		<line fill-rule="evenodd" clip-rule="evenodd" fill="none" stroke="#BABABA" stroke-width="0.2919" stroke-miterlimit="10" x1="132.8" y1="109.3" x2="132.8" y2="129.3"/>
	
		<line fill-rule="evenodd" clip-rule="evenodd" fill="none" stroke="#BABABA" stroke-width="0.2919" stroke-miterlimit="10" x1="126.6" y1="109.3" x2="126.6" y2="129.3"/>
	
		<line fill-rule="evenodd" clip-rule="evenodd" fill="none" stroke="#BABABA" stroke-width="0.2919" stroke-miterlimit="10" x1="120.3" y1="109.3" x2="120.3" y2="129.3"/>
</g>
<path id="la_x7C_Bottom-Lines_x7C_bottom-lines_12_" fill-rule="evenodd" clip-rule="evenodd" fill="#9E005D" d="M211.9,406.8
	l24.1,24.1c27.1-0.5,47-4.8,59.2-12.8c-0.1,1.5-0.2,2.4-0.2,2.4c-13.6,9.8-36.1,13.4-60.8,13.7l-22.6-22.6l-20.6,20.6
	c-40.6-4-76.2-12.4-76.2-12.4s-0.4-1.2-1-3.4c6.3,1.4,39.3,8.7,76.2,12.4L211.9,406.8z"/>
<path id="la_x7C_Bottom-Lines_x7C_bottom-lines_14_" fill-rule="evenodd" clip-rule="evenodd" fill="#9E005D" d="M212.2,398.5
	l25.1,25.1c25.9-0.4,45.4-4.2,58.3-11.3c-0.1,1.8-0.2,3.3-0.3,4.6c-13.6,6.7-33.3,10.3-58.8,10.7l-0.8,0L212.2,404l-21.3,21.3
	l-0.9-0.1c-34.2-3.4-65.3-9.7-77-12.3c-0.4-1.3-0.8-2.7-1.2-4.3c9.6,2.1,41.9,8.9,77.7,12.5L212.2,398.5z"/>
<path id="la_x7C_Bottom-Lines_x7C_bottom-lines_13_" fill-rule="evenodd" clip-rule="evenodd" fill="#9E005D" d="M212.6,390
	l26.3,26.3c24.5-0.4,43.6-3.7,57.1-9.8c-0.1,1.6-0.2,3.1-0.3,4.4c-14,5.8-33.3,9-57.6,9.3l-0.8,0l-24.7-24.7L190.2,418l-0.9-0.1
	c-33.6-3.3-64.4-9.4-78.3-12.3c-0.4-1.3-0.8-2.8-1.2-4.3c12.6,2.7,44.2,9.1,79,12.6L212.6,390z"/>
</svg>
