<?xml version="1.0" encoding="utf-8"?>
<!-- Generator: Adobe Illustrator 21.0.0, SVG Export Plug-In . SVG Version: 6.00 Build 0)  -->
<svg version="1.1" id="Layer_1" xmlns="http://www.w3.org/2000/svg" xmlns:xlink="http://www.w3.org/1999/xlink" x="0px" y="0px"
	 width="380px" height="530px" viewBox="0 0 380 530" enable-background="new 0 0 380 530" xml:space="preserve">
<path id="la_x7C_Bottom_x7C_bottom-color_1_" fill-rule="evenodd" clip-rule="evenodd" fill="#FFFFFF" stroke="#000000" stroke-width="0.5" stroke-miterlimit="10" d="
	M277.5,131.6c1.8-0.8,3-2.5,3-4.6v-15.9c0-2.8-2.3-5-5.1-5H103.1c-2.8,0-5.1,2.2-5.1,5v15.9c0,1.5,0.7,2.8,1.7,3.7
	c-20.6,64.5-4,289.7-4,289.7c13.6,9.8,36.1,13.4,60.8,13.7l22.6-22.6l20.6,20.6c40.6-4,76.2-12.4,76.2-12.4s34.5-118.1,34.5-179.4
	C310.4,187,284.4,142.5,277.5,131.6z"/>
<path id="la_x7C_Bottom-Lines_x7C_bottom-lines_9_" fill-rule="evenodd" clip-rule="evenodd" fill="#9E005D" d="M277.6,131.8
	c0,0-0.1-0.1-0.1-0.1c1.8-0.8,3-2.5,3-4.6v-1.8H98v1.8c0,1.5,0.7,2.8,1.7,3.7c-0.1,0.3-0.2,0.7-0.3,1H277.6z"/>
<rect id="la_x7C_Bottom-Lines_x7C_bottom-lines_10_" x="98" y="114.7" fill-rule="evenodd" clip-rule="evenodd" fill="#9E005D" width="182.6" height="6.5"/>
<path id="la_x7C_Bottom-Lines_x7C_bottom-lines_11_" fill-rule="evenodd" clip-rule="evenodd" fill="#9E005D" d="M275.4,106.1H103.1
	c-2.7,0-4.9,2.1-5.1,4.7h182.5C280.4,108.2,278.2,106.1,275.4,106.1z"/>
<g opacity="0.75">
	
		<line fill-rule="evenodd" clip-rule="evenodd" fill="none" stroke="#BABABA" stroke-width="0.2919" stroke-miterlimit="10" x1="108.6" y1="109.3" x2="108.6" y2="129.3"/>
	
		<line fill-rule="evenodd" clip-rule="evenodd" fill="none" stroke="#BABABA" stroke-width="0.2919" stroke-miterlimit="10" x1="114.9" y1="109.3" x2="114.9" y2="129.3"/>
	
		<line fill-rule="evenodd" clip-rule="evenodd" fill="none" stroke="#BABABA" stroke-width="0.2919" stroke-miterlimit="10" x1="121.1" y1="109.3" x2="121.1" y2="129.3"/>
	
		<line fill-rule="evenodd" clip-rule="evenodd" fill="none" stroke="#BABABA" stroke-width="0.2919" stroke-miterlimit="10" x1="127.3" y1="109.3" x2="127.3" y2="129.3"/>
	
		<line fill-rule="evenodd" clip-rule="evenodd" fill="none" stroke="#BABABA" stroke-width="0.2919" stroke-miterlimit="10" x1="133.5" y1="109.3" x2="133.5" y2="129.3"/>
	
		<line fill-rule="evenodd" clip-rule="evenodd" fill="none" stroke="#BABABA" stroke-width="0.2919" stroke-miterlimit="10" x1="139.7" y1="109.3" x2="139.7" y2="129.3"/>
	
		<line fill-rule="evenodd" clip-rule="evenodd" fill="none" stroke="#BABABA" stroke-width="0.2919" stroke-miterlimit="10" x1="146" y1="109.3" x2="146" y2="129.3"/>
	
		<line fill-rule="evenodd" clip-rule="evenodd" fill="none" stroke="#BABABA" stroke-width="0.2919" stroke-miterlimit="10" x1="152.2" y1="109.3" x2="152.2" y2="129.3"/>
	
		<line fill-rule="evenodd" clip-rule="evenodd" fill="none" stroke="#BABABA" stroke-width="0.2919" stroke-miterlimit="10" x1="158.4" y1="109.3" x2="158.4" y2="129.3"/>
	
		<line fill-rule="evenodd" clip-rule="evenodd" fill="none" stroke="#BABABA" stroke-width="0.2919" stroke-miterlimit="10" x1="164.6" y1="109.3" x2="164.6" y2="129.3"/>
	
		<line fill-rule="evenodd" clip-rule="evenodd" fill="none" stroke="#BABABA" stroke-width="0.2919" stroke-miterlimit="10" x1="170.8" y1="109.3" x2="170.8" y2="129.3"/>
	
		<line fill-rule="evenodd" clip-rule="evenodd" fill="none" stroke="#BABABA" stroke-width="0.2919" stroke-miterlimit="10" x1="177.1" y1="109.3" x2="177.1" y2="129.3"/>
	
		<line fill-rule="evenodd" clip-rule="evenodd" fill="none" stroke="#BABABA" stroke-width="0.2919" stroke-miterlimit="10" x1="183.3" y1="109.3" x2="183.3" y2="129.3"/>
	
		<line fill-rule="evenodd" clip-rule="evenodd" fill="none" stroke="#BABABA" stroke-width="0.2919" stroke-miterlimit="10" x1="189.5" y1="109.3" x2="189.5" y2="129.3"/>
	
		<line fill-rule="evenodd" clip-rule="evenodd" fill="none" stroke="#BABABA" stroke-width="0.2919" stroke-miterlimit="10" x1="195.7" y1="109.3" x2="195.7" y2="129.3"/>
	
		<line fill-rule="evenodd" clip-rule="evenodd" fill="none" stroke="#BABABA" stroke-width="0.2919" stroke-miterlimit="10" x1="202" y1="109.3" x2="202" y2="129.3"/>
	
		<line fill-rule="evenodd" clip-rule="evenodd" fill="none" stroke="#BABABA" stroke-width="0.2919" stroke-miterlimit="10" x1="208.2" y1="109.3" x2="208.2" y2="129.3"/>
	
		<line fill-rule="evenodd" clip-rule="evenodd" fill="none" stroke="#BABABA" stroke-width="0.2919" stroke-miterlimit="10" x1="214.4" y1="109.3" x2="214.4" y2="129.3"/>
	
		<line fill-rule="evenodd" clip-rule="evenodd" fill="none" stroke="#BABABA" stroke-width="0.2919" stroke-miterlimit="10" x1="220.6" y1="109.3" x2="220.6" y2="129.3"/>
	
		<line fill-rule="evenodd" clip-rule="evenodd" fill="none" stroke="#BABABA" stroke-width="0.2919" stroke-miterlimit="10" x1="226.8" y1="109.3" x2="226.8" y2="129.3"/>
	
		<line fill-rule="evenodd" clip-rule="evenodd" fill="none" stroke="#BABABA" stroke-width="0.2919" stroke-miterlimit="10" x1="233.1" y1="109.3" x2="233.1" y2="129.3"/>
	
		<line fill-rule="evenodd" clip-rule="evenodd" fill="none" stroke="#BABABA" stroke-width="0.2919" stroke-miterlimit="10" x1="239.3" y1="109.3" x2="239.3" y2="129.3"/>
	
		<line fill-rule="evenodd" clip-rule="evenodd" fill="none" stroke="#BABABA" stroke-width="0.2919" stroke-miterlimit="10" x1="245.5" y1="109.3" x2="245.5" y2="129.3"/>
	
		<line fill-rule="evenodd" clip-rule="evenodd" fill="none" stroke="#BABABA" stroke-width="0.2919" stroke-miterlimit="10" x1="251.7" y1="109.3" x2="251.7" y2="129.3"/>
	
		<line fill-rule="evenodd" clip-rule="evenodd" fill="none" stroke="#BABABA" stroke-width="0.2919" stroke-miterlimit="10" x1="257.9" y1="109.3" x2="257.9" y2="129.3"/>
	
		<line fill-rule="evenodd" clip-rule="evenodd" fill="none" stroke="#BABABA" stroke-width="0.2919" stroke-miterlimit="10" x1="264.2" y1="109.3" x2="264.2" y2="129.3"/>
	
		<line fill-rule="evenodd" clip-rule="evenodd" fill="none" stroke="#BABABA" stroke-width="0.2919" stroke-miterlimit="10" x1="270.4" y1="109.3" x2="270.4" y2="129.3"/>
</g>
<path id="la_x7C_Bottom-Lines_x7C_bottom-lines_12_" fill-rule="evenodd" clip-rule="evenodd" fill="#9E005D" d="M178.8,406.8
	l-24.1,24.1c-27.1-0.5-47-4.8-59.2-12.8c0.1,1.5,0.2,2.4,0.2,2.4c13.6,9.8,36.1,13.4,60.8,13.7l22.6-22.6l20.6,20.6
	c40.6-4,76.2-12.4,76.2-12.4s0.4-1.2,1-3.4c-6.3,1.4-39.3,8.7-76.2,12.4L178.8,406.8z"/>
<path id="la_x7C_Bottom-Lines_x7C_bottom-lines_14_" fill-rule="evenodd" clip-rule="evenodd" fill="#9E005D" d="M178.5,398.5
	l-25.1,25.1c-25.9-0.4-45.4-4.2-58.3-11.3c0.1,1.8,0.2,3.3,0.3,4.6c13.6,6.7,33.3,10.3,58.8,10.7l0.8,0l23.5-23.5l21.3,21.3l0.9-0.1
	c34.2-3.4,65.3-9.7,77-12.3c0.4-1.3,0.8-2.7,1.2-4.3c-9.6,2.1-41.9,8.9-77.7,12.5L178.5,398.5z"/>
<path id="la_x7C_Bottom-Lines_x7C_bottom-lines_13_" fill-rule="evenodd" clip-rule="evenodd" fill="#9E005D" d="M178.1,390
	l-26.3,26.3c-24.5-0.4-43.6-3.7-57.1-9.8c0.1,1.6,0.2,3.1,0.3,4.4c14,5.8,33.3,9,57.6,9.3l0.8,0l24.7-24.7l22.4,22.4l0.9-0.1
	c33.6-3.3,64.4-9.4,78.3-12.3c0.4-1.3,0.8-2.8,1.2-4.3c-12.6,2.7-44.2,9.1-79,12.6L178.1,390z"/>
</svg>
