<?xml version="1.0" encoding="utf-8"?>
<!-- Generator: Adobe Illustrator 15.0.0, SVG Export Plug-In . SVG Version: 6.00 Build 0)  -->
<!DOCTYPE svg PUBLIC "-//W3C//DTD SVG 1.1 Basic//EN" "http://www.w3.org/Graphics/SVG/1.1/DTD/svg11-basic.dtd">
<svg version="1.1" baseProfile="basic" id="Шар_1"
	 xmlns="http://www.w3.org/2000/svg" xmlns:xlink="http://www.w3.org/1999/xlink" x="0px" y="0px" width="220px" height="220px"
	 viewBox="0 0 220 220" xml:space="preserve">
<path d="M28.426,116l-1.788,0.915c0.416,0.813,0.915,1.597,1.484,2.327c0.173,0.221,0.343,0.445,0.509,0.671l1.617-1.19
	c-0.178-0.242-0.357-0.479-0.541-0.716C29.216,117.376,28.784,116.701,28.426,116"/>
<path d="M32.2,121.684l-1.733,1.017c0.561,0.954,1.078,1.95,1.538,2.963l1.828-0.834C33.344,123.756,32.795,122.697,32.2,121.684"/>
<path d="M35.135,128.125l-1.903,0.643c0.354,1.051,0.658,2.133,0.903,3.215l1.958-0.444
	C35.833,130.391,35.511,129.242,35.135,128.125"/>
<path d="M35.442,91.502l-1.921-0.585c-0.324,1.061-0.706,2.118-1.136,3.14l1.852,0.778C34.693,93.751,35.099,92.629,35.442,91.502"
	/>
<path d="M28.866,103.797l-1.717-1.042c-0.643,1.058-1.146,2.194-1.496,3.375l1.926,0.57
	C27.881,105.686,28.313,104.708,28.866,103.797"/>
<path d="M32.695,98.028l-1.761-0.965c-0.533,0.973-1.123,1.929-1.754,2.84l1.652,1.143C31.503,100.077,32.13,99.062,32.695,98.028"
	/>
<path d="M25.393,113.439l1.962-0.429c-0.193-0.883-0.291-1.799-0.291-2.718c0-0.152,0.003-0.303,0.008-0.454l-2.007-0.069
	c-0.006,0.173-0.01,0.348-0.01,0.523C25.055,111.357,25.169,112.418,25.393,113.439"/>
<path d="M28.261,142.673c-0.647,4.668,0.258,9.298,2.619,13.388c2.362,4.09,5.919,7.19,10.285,8.963
	c6.444,2.615,11.642,7.813,14.258,14.259c1.772,4.364,4.871,7.922,8.962,10.282c4.091,2.363,8.721,3.269,13.388,2.619
	c6.89-0.955,13.988,0.946,19.477,5.221c3.718,2.895,8.18,4.426,12.903,4.426c4.723,0,9.186-1.531,12.904-4.426
	c5.487-4.273,12.586-6.178,19.478-5.221c4.667,0.648,9.297-0.256,13.387-2.619c4.091-2.36,7.188-5.918,8.962-10.282
	c2.617-6.445,7.813-11.644,14.26-14.259c4.365-1.771,7.922-4.873,10.283-8.963s3.27-8.72,2.619-13.388
	c-0.957-6.889,0.945-13.987,5.219-19.478c2.896-3.717,4.426-8.18,4.426-12.902c0-4.724-1.53-9.186-4.426-12.903
	c-4.272-5.489-6.176-12.588-5.219-19.477c0.648-4.668-0.258-9.297-2.619-13.388c-2.361-4.09-5.918-7.19-10.283-8.962
	c-6.445-2.616-11.643-7.813-14.26-14.258c-1.773-4.366-4.871-7.923-8.962-10.284c-4.091-2.362-8.721-3.268-13.387-2.619
	c-6.89,0.956-13.989-0.946-19.478-5.219c-3.719-2.895-8.181-4.426-12.904-4.426c-4.723,0-9.186,1.531-12.903,4.426
	c-5.488,4.273-12.587,6.175-19.477,5.219c-4.669-0.649-9.297,0.257-13.388,2.619c-4.091,2.361-7.189,5.918-8.962,10.284
	c-2.616,6.445-7.813,11.642-14.258,14.258c-4.366,1.772-7.923,4.872-10.285,8.962c-2.361,4.091-3.267,8.72-2.619,13.388
	c0.957,6.889-0.945,13.988-5.219,19.477c-2.895,3.717-4.425,8.179-4.425,12.903c0,4.723,1.53,9.186,4.425,12.902
	C27.315,128.686,29.218,135.784,28.261,142.673 M31.672,77.439c-0.542-3.901,0.216-7.771,2.189-11.192
	c1.976-3.421,4.949-6.012,8.599-7.494c7.301-2.963,13.188-8.851,16.153-16.153c1.481-3.649,4.072-6.622,7.493-8.597
	c3.419-1.975,7.29-2.732,11.192-2.191c7.807,1.085,15.848-1.071,22.065-5.912c3.108-2.42,6.839-3.699,10.788-3.699
	c3.951,0,7.68,1.279,10.789,3.699c6.218,4.841,14.261,6.996,22.064,5.912c3.9-0.541,7.771,0.216,11.191,2.191
	c3.422,1.975,6.013,4.948,7.494,8.597c2.965,7.302,8.853,13.19,16.152,16.153c3.649,1.482,6.623,4.073,8.6,7.494
	c1.975,3.421,2.73,7.291,2.188,11.192c-1.084,7.805,1.071,15.848,5.913,22.066c2.42,3.108,3.699,6.838,3.699,10.788
	s-1.279,7.68-3.699,10.788c-4.842,6.218-6.997,14.261-5.913,22.065c0.542,3.9-0.215,7.771-2.188,11.191
	c-1.977,3.421-4.949,6.014-8.6,7.493c-7.301,2.964-13.188,8.853-16.152,16.153c-1.481,3.648-4.072,6.621-7.494,8.598
	c-3.42,1.977-7.289,2.73-11.191,2.189c-7.807-1.084-15.848,1.072-22.064,5.912c-3.108,2.42-6.838,3.699-10.789,3.699
	c-3.949,0-7.68-1.279-10.788-3.699c-5.162-4.019-11.582-6.187-18.08-6.187c-1.328,0-2.66,0.091-3.985,0.274
	c-3.9,0.541-7.773-0.215-11.192-2.19c-3.421-1.976-6.012-4.948-7.493-8.597c-2.965-7.303-8.853-13.19-16.153-16.154
	c-3.649-1.48-6.623-4.072-8.599-7.493c-1.974-3.421-2.731-7.291-2.189-11.192c1.084-7.805-1.071-15.848-5.913-22.064
	c-2.42-3.107-3.698-6.838-3.698-10.788s1.278-7.68,3.698-10.788C30.601,93.287,32.756,85.244,31.672,77.439"/>
<path d="M136.918,183.557l0.122,2.006c1.106-0.067,2.231-0.076,3.338-0.029l0.086-2.008
	C139.289,183.475,138.093,183.484,136.918,183.557"/>
<path d="M143.693,36.768c0.983-0.137,1.992-0.157,2.978-0.058l0.202-1.998c-1.145-0.115-2.313-0.092-3.455,0.066l-0.21,0.029
	l0.261,1.991L143.693,36.768z"/>
<path d="M36.944,138.566c-0.021-1.176-0.104-2.366-0.245-3.537l-1.994,0.242c0.134,1.102,0.211,2.223,0.23,3.33L36.944,138.566z"/>
<path d="M165.686,54.074c-0.773-0.797-1.515-1.643-2.201-2.512l-1.575,1.245c0.729,0.923,1.515,1.82,2.336,2.666L165.686,54.074z"/>
<path d="M143.965,183.854l-0.232,1.994c0.562,0.066,1.131,0.1,1.697,0.1c0.662,0,1.332-0.047,1.991-0.139l-0.278-1.99
	C146.092,183.965,145.02,183.977,143.965,183.854"/>
<path d="M159.857,49.916l1.694-1.076c-0.595-0.937-1.146-1.915-1.641-2.907l-1.798,0.895
	C158.639,47.882,159.227,48.921,159.857,49.916"/>
<path d="M158.504,42.8c-0.544-1.114-1.227-2.152-2.027-3.084l-1.521,1.31c0.689,0.801,1.275,1.694,1.744,2.654L158.504,42.8z"/>
<path d="M36.628,143.835c0.079-0.569,0.144-1.149,0.194-1.724l-2.002-0.174c-0.047,0.541-0.108,1.086-0.183,1.621
	c-0.086,0.625-0.134,1.258-0.14,1.881l2.009,0.021C36.512,144.922,36.553,144.375,36.628,143.835"/>
<path d="M151.697,182.25c-0.479,0.275-0.979,0.521-1.486,0.732l0.768,1.854c0.59-0.242,1.17-0.528,1.724-0.849
	c0.514-0.297,1.011-0.625,1.479-0.977l-1.203-1.607C152.572,181.709,152.143,181.994,151.697,182.25"/>
<path d="M152.59,38.901l1.145-1.651c-0.332-0.23-0.68-0.45-1.032-0.654c-0.714-0.411-1.466-0.764-2.235-1.05l-0.697,1.883
	c0.666,0.247,1.313,0.552,1.928,0.907C152.003,38.513,152.305,38.703,152.59,38.901"/>
<path d="M60.975,171.527l-1.727,1.024c0.567,0.955,1.09,1.949,1.554,2.953l1.824-0.84C62.134,173.598,61.578,172.541,60.975,171.527
	"/>
<path d="M55.27,167.201c0.751,0.818,1.467,1.686,2.127,2.574l1.612-1.198c-0.702-0.944-1.461-1.862-2.259-2.731L55.27,167.201z"/>
<path d="M34.935,149.105c0.3,1.188,0.754,2.342,1.351,3.432l1.763-0.964c-0.516-0.94-0.908-1.938-1.166-2.959L34.935,149.105z"/>
<path d="M94.352,188.246c1.018,0.445,2.021,0.949,2.984,1.496l0.991-1.747c-1.022-0.581-2.089-1.115-3.169-1.588L94.352,188.246z"/>
<path d="M101.316,189.902l-1.167,1.635c0.354,0.252,0.708,0.516,1.055,0.785c0.591,0.461,1.218,0.877,1.863,1.238l0.979-1.754
	c-0.557-0.313-1.099-0.672-1.608-1.068C102.069,190.451,101.691,190.17,101.316,189.902"/>
<path d="M62.295,178.711c0.621,1.07,1.376,2.057,2.246,2.93l1.423-1.418c-0.747-0.75-1.397-1.599-1.932-2.52L62.295,178.711z"/>
<path d="M34.725,77.706c0.129,1.101,0.2,2.221,0.214,3.331l2.009-0.025c-0.015-1.179-0.091-2.369-0.228-3.539L34.725,77.706z"/>
<path d="M50.287,162.77c0.896,0.646,1.774,1.351,2.604,2.088l1.336-1.5c-0.881-0.784-1.812-1.53-2.766-2.217L50.287,162.77z"/>
<path d="M38.44,155.527c0.842,0.9,1.799,1.692,2.845,2.353l1.07-1.7c-0.899-0.565-1.723-1.246-2.447-2.022L38.44,155.527z"/>
<path d="M44.507,159.448c1.012,0.448,2.013,0.956,2.976,1.51l1.001-1.741c-1.023-0.588-2.088-1.129-3.164-1.604L44.507,159.448z"/>
<path d="M190.941,117.545l1.64,1.162c0.718-1.014,1.3-2.107,1.735-3.256l-1.879-0.71
	C192.064,115.729,191.561,116.672,190.941,117.545"/>
<path d="M184.584,130.05l1.938,0.53c0.293-1.071,0.645-2.139,1.043-3.172l-1.871-0.727
	C185.268,127.781,184.895,128.914,184.584,130.05"/>
<path d="M106.495,194.932c1.184,0.305,2.414,0.459,3.657,0.459v-2.009c-1.075,0-2.137-0.134-3.157-0.396L106.495,194.932z"/>
<path d="M162.238,167.366l1.558,1.269c0.701-0.859,1.454-1.693,2.238-2.478l-1.419-1.421
	C163.782,165.568,162.982,166.453,162.238,167.366"/>
<path d="M188.627,99.763l1.702-1.067c-0.588-0.938-1.136-1.919-1.624-2.915l-1.803,0.885
	C187.422,97.724,188.002,98.766,188.627,99.763"/>
<path d="M185.729,86.253c-0.166-1.098-0.275-2.215-0.328-3.323l-2.006,0.094c0.056,1.176,0.172,2.363,0.348,3.528L185.729,86.253z"
	/>
<path d="M187.139,123.447l1.789,0.912c0.506-0.988,1.066-1.961,1.67-2.892l-1.686-1.093
	C188.271,121.363,187.676,122.396,187.139,123.447"/>
<path d="M179.073,155.382l1.252,1.569c0.962-0.768,1.825-1.659,2.565-2.652l-1.611-1.201
	C180.643,153.953,179.898,154.723,179.073,155.382"/>
<path d="M182.854,150.328l1.854,0.77c0.476-1.146,0.8-2.345,0.967-3.563l-1.989-0.271
	C183.541,148.311,183.264,149.342,182.854,150.328"/>
<path d="M185.393,140.496l-2.008,0.082c0.045,1.088,0.145,2.186,0.293,3.256c0.012,0.084,0.022,0.168,0.032,0.252l1.993-0.243
	c-0.012-0.095-0.023-0.188-0.036-0.284C185.527,142.55,185.436,141.52,185.393,140.496"/>
<path d="M183.423,137.033l2.004,0.125c0.069-1.104,0.196-2.221,0.38-3.316l-1.981-0.33
	C183.63,134.676,183.495,135.861,183.423,137.033"/>
<path d="M194.109,104.622c-0.477-1.128-1.102-2.2-1.856-3.186l-1.594,1.221c0.651,0.852,1.19,1.776,1.603,2.747L194.109,104.622z"/>
<path d="M176.669,61.508c-1.024-0.418-2.04-0.896-3.021-1.421l-0.947,1.771c1.04,0.557,2.119,1.066,3.209,1.51L176.669,61.508z"/>
<path d="M175.963,157.195c-0.943,0.384-1.883,0.815-2.794,1.285l0.922,1.785c0.856-0.441,1.74-0.849,2.63-1.209
	c0.15-0.063,0.301-0.125,0.45-0.191l-0.815-1.836C176.225,157.088,176.094,157.145,175.963,157.195"/>
<path d="M170.794,58.36c-0.916-0.621-1.813-1.298-2.664-2.012l-1.291,1.538c0.904,0.759,1.854,1.479,2.829,2.137L170.794,58.36z"/>
<path d="M158.354,173.286l1.785,0.922c0.508-0.981,1.074-1.951,1.686-2.88l-1.68-1.104
	C159.496,171.212,158.895,172.242,158.354,173.286"/>
<path d="M167.246,162.361l1.268,1.561c0.862-0.703,1.77-1.365,2.694-1.973l-1.101-1.68
	C169.124,160.914,168.161,161.618,167.246,162.361"/>
<path d="M183.678,76.751c-0.125,0.9-0.215,1.818-0.268,2.727l2.006,0.115c0.049-0.856,0.134-1.719,0.251-2.566
	c0.038-0.277,0.069-0.558,0.092-0.835l-2.002-0.164C183.736,76.268,183.711,76.512,183.678,76.751"/>
<path d="M155.257,179.193l1.572,1.25c0.763-0.959,1.403-2.021,1.905-3.157l-1.836-0.813
	C156.466,177.452,155.913,178.368,155.257,179.193"/>
<path d="M185.59,72.506c-0.212-1.209-0.583-2.394-1.102-3.522l-1.824,0.837c0.445,0.973,0.766,1.993,0.947,3.033L185.59,72.506z"/>
<path d="M185.505,93.409l1.886-0.696c-0.386-1.041-0.721-2.114-0.996-3.187l-1.945,0.5
	C184.741,91.166,185.098,92.304,185.505,93.409"/>
<path d="M180.988,67.112l1.563-1.261c-0.776-0.964-1.675-1.822-2.665-2.553l-1.191,1.617
	C179.548,65.543,180.318,66.282,180.988,67.112"/>
<path d="M193.241,110.293c0,0.453-0.023,0.909-0.07,1.357l1.997,0.209c0.055-0.517,0.082-1.045,0.082-1.566
	c0-0.71-0.051-1.422-0.15-2.115l-1.988,0.286C193.197,109.063,193.241,109.678,193.241,110.293"/>
<path d="M61.477,48.186l-1.756-0.975c-0.538,0.968-1.133,1.921-1.77,2.83l1.646,1.152C60.273,50.226,60.905,49.215,61.477,48.186"/>
<path d="M63.249,44.482c0.339-0.836,0.765-1.631,1.264-2.364l-1.66-1.132c-0.579,0.851-1.072,1.773-1.465,2.74
	c-0.066,0.163-0.134,0.325-0.202,0.487L63.034,45C63.107,44.829,63.179,44.655,63.249,44.482"/>
<path d="M57.42,53.99l-1.52-1.313c-0.725,0.838-1.502,1.65-2.31,2.412l1.378,1.461C55.826,55.741,56.65,54.88,57.42,53.99"/>
<path d="M68.607,38.336c0.218-0.125,0.439-0.246,0.664-0.357l-0.899-1.796c-0.258,0.129-0.517,0.268-0.769,0.413
	c-0.819,0.473-1.591,1.023-2.295,1.634l1.316,1.517C67.232,39.22,67.899,38.745,68.607,38.336"/>
<path d="M75.439,36.661l0.09-2.006c-1.236-0.056-2.47,0.047-3.678,0.306l0.421,1.964C73.313,36.702,74.378,36.613,75.439,36.661"/>
<path d="M68.478,182.174l-1.025,1.729l0.151,0.088c1.017,0.588,2.104,1.052,3.23,1.379l0.562-1.928
	c-0.972-0.283-1.91-0.686-2.788-1.19L68.478,182.174z"/>
<path d="M74.48,185.941c0.132,0.004,0.264,0.006,0.396,0.006c0.669,0,1.346-0.047,2.01-0.139c0.38-0.056,0.768-0.102,1.151-0.141
	l-0.204-1.999c-0.407,0.042-0.819,0.092-1.224,0.147c-0.686,0.096-1.384,0.135-2.075,0.115L74.48,185.941z"/>
<path d="M52.27,58.846l-1.222-1.594c-0.883,0.676-1.807,1.313-2.751,1.892l1.052,1.711C50.351,60.24,51.332,59.564,52.27,58.846"/>
<path d="M37.135,71.104l-1.906-0.633c-0.39,1.173-0.626,2.392-0.703,3.624l2.006,0.126C36.597,73.162,36.8,72.112,37.135,71.104"/>
<path d="M44.342,63.39c0.637-0.259,1.273-0.541,1.894-0.837l-0.869-1.811c-0.582,0.279-1.181,0.544-1.779,0.787
	c-0.476,0.193-0.945,0.412-1.395,0.652l0.945,1.772C43.525,63.746,43.931,63.557,44.342,63.39"/>
<path d="M82.383,37.075l-0.063-2.007c-1.107,0.034-2.229,0.011-3.337-0.069l-0.146,2.003c0.821,0.061,1.653,0.09,2.475,0.09
	C81.669,37.092,82.025,37.087,82.383,37.075"/>
<path d="M36.806,84.555l-2-0.184c-0.102,1.104-0.261,2.216-0.475,3.305l1.971,0.387C36.529,86.907,36.698,85.726,36.806,84.555"/>
<path d="M40.549,65.792l-1.365-1.474c-0.898,0.832-1.695,1.785-2.363,2.83l1.689,1.084C39.088,67.33,39.774,66.509,40.549,65.792"/>
<path d="M123.329,187.268l0.912,1.789c0.985-0.502,2.013-0.961,3.049-1.361l-0.726-1.872
	C125.466,186.246,124.377,186.732,123.329,187.268"/>
<path d="M126.827,32.708c-1.028-0.416-2.048-0.889-3.027-1.408l-0.938,1.776c1.041,0.55,2.121,1.053,3.214,1.494L126.827,32.708z"/>
<path d="M107.878,27.406l-0.357-1.977c-1.218,0.221-2.401,0.597-3.519,1.118l0.85,1.82C105.813,27.919,106.83,27.595,107.878,27.406
	"/>
<path d="M114.816,25.953c-1.162-0.392-2.379-0.634-3.617-0.721l-0.141,2.004c1.067,0.075,2.116,0.283,3.116,0.62L114.816,25.953z"/>
<path d="M133.232,34.563c-1.09-0.198-2.185-0.456-3.25-0.764l-0.56,1.929c1.132,0.328,2.292,0.601,3.45,0.811L133.232,34.563z"/>
<path d="M81.372,185.502c1.106,0.002,2.229,0.063,3.333,0.182l0.212-1.998c-1.174-0.125-2.365-0.188-3.541-0.19L81.372,185.502z"/>
<path d="M117.866,190.738c-0.146,0.113-0.293,0.225-0.442,0.33l1.164,1.637c0.174-0.124,0.346-0.251,0.514-0.382
	c0.722-0.563,1.478-1.101,2.248-1.599l-1.093-1.688C119.438,189.568,118.634,190.141,117.866,190.738"/>
<path d="M130.461,186.652c1.071-0.293,2.169-0.533,3.264-0.715l-0.33-1.981c-1.162,0.192-2.326,0.446-3.463,0.759L130.461,186.652z"
	/>
<path d="M111.532,193.309l0.215,1.998c1.233-0.134,2.44-0.423,3.589-0.858l-0.714-1.878
	C113.634,192.945,112.594,193.193,111.532,193.309"/>
<path d="M139.936,37.08l-0.056-2.008c-1.11,0.03-2.229,0.003-3.337-0.081l-0.152,2.002c0.863,0.066,1.739,0.1,2.604,0.1
	C139.309,37.093,139.621,37.089,139.936,37.08"/>
<path d="M119.814,31.256l1.119-1.668c-0.625-0.42-1.242-0.866-1.834-1.326c-0.312-0.242-0.638-0.475-0.966-0.692l-1.104,1.678
	c0.285,0.188,0.566,0.389,0.836,0.599C118.495,30.336,119.15,30.811,119.814,31.256"/>
<path d="M96.074,33.762l-0.86-1.815c-1.002,0.474-2.04,0.902-3.087,1.272l0.67,1.894C93.907,34.72,95.01,34.265,96.074,33.762"/>
<path d="M88.002,186.205c1.085,0.229,2.17,0.52,3.229,0.857l0.613-1.91c-1.122-0.361-2.274-0.668-3.426-0.912L88.002,186.205z"/>
<path d="M102.128,30.086l-1.216-1.599c-0.881,0.669-1.809,1.301-2.759,1.877l1.042,1.717
	C100.205,31.47,101.191,30.797,102.128,30.086"/>
<path d="M89.399,36.123l-0.474-1.952c-1.08,0.262-2.184,0.47-3.281,0.619l0.271,1.99C87.081,36.622,88.253,36.4,89.399,36.123"/>
<path d="M109.2,51.001V39.397h-1.426c-0.561,2.575-4.516,20.134-9.376,25.619c0,0,4.414,4.964,4.829,10.291h13.85
	c0.416-5.327,4.83-10.291,4.83-10.291c-4.861-5.485-8.816-23.044-9.378-25.619h-1.426v11.604c1.006,0.384,1.721,1.356,1.721,2.497
	c0,1.476-1.196,2.672-2.672,2.672s-2.672-1.196-2.672-2.672C107.48,52.357,108.194,51.385,109.2,51.001"/>
<rect x="101.634" y="77.6" width="17.038" height="7.514"/>
<polygon points="63.96,132.096 60.171,135.885 56.382,132.096 55.773,132.705 55.165,133.313 58.954,137.102 55.165,140.891 
	55.773,141.5 56.382,142.107 60.171,138.32 63.96,142.107 65.177,140.891 61.389,137.102 65.177,133.313 "/>
<polygon points="156.346,132.096 155.128,133.313 158.917,137.102 155.128,140.891 156.346,142.107 160.134,138.32 163.923,142.107 
	164.531,141.5 165.141,140.891 161.352,137.102 165.141,133.313 164.531,132.705 163.923,132.096 160.134,135.885 "/>
</svg>
